<?xml version="1.0" encoding="UTF-8"?>
<svg id="Layer_2" data-name="Layer 2" xmlns="http://www.w3.org/2000/svg" viewBox="0 0 48 47.31">
  <defs>
    <style>
      .cls-1 {
        fill: #bdbdbd;
      }
    </style>
  </defs>
  <g id="Layer_1-2" data-name="Layer 1">
    <g id="uuid-84d2cc7b-6dd8-41cf-811e-e2354cc2b914" data-name="Layer 1-2">
      <g>
        <path class="cls-1" d="M32.53.73C26.38-.23,21.06-.17,15.81.47,11.24,4.03,7.29,7.88,3.94,12.1.9,23.71-.28,35.58.05,47.31c3.57-.03,7.14-.15,10.49-.04.25-3.21.49-6.43.74-9.64.68-3.89,1.06-7.77,1.45-11.66,1.69-3.51,3.51-7.04,5.48-10.51,3.58-1.69,6.9-2.41,10.24-2.54,2.59,2.46,4.52,5.11,6.03,7.94.79,4.29,1.14,8.14,1.4,11.99-.5,4.81-.89,9.16-1.28,13.5,4.53,0,8.96.05,13.39.24-.35-9.97-.59-19.67-.89-29.36-4.32-6.03-8.51-12.09-14.58-16.49h0Z"/>
        <path class="cls-1" d="M30.34,23.81c-1.15-1.62-2.62-2.67-4.07-3.5-.76-.44-1.58-.24-2.37-.06-.49.13-.99-.12-1.46.2-.85.5-1.75.8-2.56,1.45-1.02.92-1.88,2.23-2.63,3.61-.95,1.54-1.37,3.67-1.33,5.75.04,3.77.04,5.32,1.28,8.7.67,1.75,1.81,3.11,3,3.98.95.76,1.94,1.41,3.01,1.61,1.45.14,2.92-.53,4.21-1.47,1.23-1.19,2.3-2.7,3.05-4.62,1.45-3.6,2.1-8.29,1.27-12.4-.41-1.13-.82-2.3-1.39-3.25h0Z"/>
      </g>
    </g>
  </g>
</svg>