<?xml version="1.0" encoding="UTF-8"?>
<svg id="Layer_2" data-name="Layer 2" xmlns="http://www.w3.org/2000/svg" viewBox="0 0 32.78 48">
  <defs>
    <style>
      .cls-1 {
        fill: #bdbdbd;
      }
    </style>
  </defs>
  <g id="Layer_1-2" data-name="Layer 1">
    <g id="uuid-68a3c172-c9c3-43f0-aaad-5d24c6727740" data-name="Layer 1-2">
      <path class="cls-1" d="M32.78,7.19c-.29-2.56-.99-4.9-1.86-7.19-3.21,1.06-6.41,2.73-9.41,4.71-1.84,3.21-3.34,6.65-4.37,10.24-1.48-3.67-3.22-7.19-5.32-10.47C8.92,2.22,5.57.98,2.16.85c-.7,3.1-.86,6.03-.77,8.95.84,2.89,1.72,5.69,2.7,8.46,3.25,2.39,6.31,4.21,9.45,5.89.46,2.12.42,3.95.37,5.77-2.2-2.06-4.58-3.99-7.18-5.56-2.48.08-4.68.41-6.72,1.17.84,4.12,2.37,7.7,4.26,11.09,3.87,2.49,7.61,4.03,11.49,5.03.54,2.32.92,4.34,1.41,6.34,1.71.05,3.21-.42,4.59-1.13-.39-1.85-.8-3.89-1.21-5.93,2.11-.82,4.15-1.67,6.18-2.57,1.93-2.3,3.57-4.75,5.03-7.3-.1-2.33-.53-4.6-1.18-6.81-2.6.26-4.95,1.06-7.13,2.2-1.25,1.65-2.46,3.26-3.6,4.92-.16-2.34-.22-4.85-.36-7.36,3.4-1.82,6.45-3.64,9.26-5.76,1.7-3.54,3.27-7.21,4.04-11.08h0Z"/>
    </g>
  </g>
</svg>