<?xml version="1.0" encoding="UTF-8"?>
<svg id="Layer_2" data-name="Layer 2" xmlns="http://www.w3.org/2000/svg" viewBox="0 0 26.55 48">
  <defs>
    <style>
      .cls-1 {
        fill: #bdbdbd;
      }
    </style>
  </defs>
  <g id="Layer_1-2" data-name="Layer 1">
    <g id="_ÎÓÈ_1" data-name=" ÎÓÈ 1">
      <path class="cls-1" d="M9.61,47.63c-1.1-.03-2.19-.01-3.29-.06-1.44,0-2.88-.02-4.32-.07-1.16.03-1.29-.31-1.08-1.22.18-1.12.6-2.19.91-3.28.56-1.88.91-3.79,1.4-5.68.42-1.2.91-2.38,1.22-3.6.41-1.34.8-2.68,1.17-4.02.93-2.35,2.07-4.65,3.1-6.97,0,0,0,0,0,0-.24-.35-.34-.93-.5-1.21-.26-.68-.56-1.35-.9-2-2.16-3.81-3.5-7.89-5.13-11.86-.39-.97-.75-1.94-1.19-2.9C.52,3.64.67,2.42.06,1.35-.23.72.66.61,1.2.58c.58-.07,1.16-.12,1.74-.14.88-.07,1.76,0,2.63.09.73.07,1.46.13,2.19.11.97.01,1.92-.13,2.88-.19.5-.03,1-.04,1.5-.06.87-.03,1.73-.05,2.59-.15,2.27-.19,4.54-.34,6.82-.16,2.52.07,1.91.11,1.99,2.04.02,1.62-.86,3.11-1.19,4.68-.21.87-.53,1.71-.76,2.58-.31,1.37-.62,2.73-.97,4.09-.19.82-.36,1.65-.64,2.45-.27.78-.68,1.51-.9,2.3-.19.63-.44,1.25-.61,1.88-.14.63-.17,1.27-.33,1.89.45.92.77,1.89,1.14,2.84.31.84.69,1.66.96,2.51.28.96.44,1.95.78,2.9,1.02,2.93,2.22,5.81,3.11,8.77.69,2.35,1.87,4.61,2.21,7.03.04.26.07.52.13.78.06.16.14.34.01.5-.33.39-1.79.43-2.36.47-3.64-.07-7.28.19-10.92.19-.07,0-.13,0-.2,0-1.17,0-2.24-.24-3.39-.37h0Z"/>
    </g>
  </g>
</svg>