<?xml version="1.0" encoding="UTF-8"?>
<svg id="Layer_2" data-name="Layer 2" xmlns="http://www.w3.org/2000/svg" viewBox="0 0 48 46.08">
  <defs>
    <style>
      .cls-1 {
        fill: #bdbdbd;
      }
    </style>
  </defs>
  <g id="Layer_1-2" data-name="Layer 1">
    <path class="cls-1" d="M47.54,25.53c-1.35-1.29-3.51-2.54-5.05-3.35-.89-.47-1.1-1.63-.42-2.36l4.62-5.05c.85-.93.26-2.42-1.01-2.54l-5.39-.49c-.8-.07-1.41-.73-1.41-1.52V2.73c0-1.26-1.46-1.97-2.49-1.22l-6.89,5.07c-.83.61-2.02.27-2.38-.67l-1.92-4.92c-.51-1.32-2.41-1.3-2.91.02l-2.5,6.64c-.34.9-1.43,1.27-2.27.77l-5.89-3.51c-1.16-.69-2.61.31-2.33,1.62l1.71,7.99c.24,1.14-.84,2.11-1.98,1.77l-5.03-1.51c-1.34-.4-2.5,1-1.81,2.2l2.7,4.71c.39.69.19,1.55-.47,2l-3.75,2.56c-1.07.73-.8,2.36.46,2.72l5.41,1.53c.93.26,1.39,1.29.96,2.15l-1.37,2.69c-.59,1.15.45,2.45,1.73,2.17l4.09-.9c.97-.22,1.9.51,1.9,1.49v6.47c0,1.4,1.77,2.06,2.72,1.01l4.83-5.34c.7-.77,1.96-.66,2.5.23l2.01,3.31c.71,1.18,2.52.91,2.85-.42l1.35-5.56c.19-.77.95-1.28,1.75-1.15,1.73.28,4.42,1.18,6.43,1.91,1.15.42,2.32-.58,2.06-1.75l-1.33-5.98c-.19-.87.41-1.72,1.31-1.84l6.34-.85c1.27-.17,1.81-1.71.89-2.59h0Z"/>
  </g>
</svg>