<?xml version="1.0" encoding="UTF-8"?>
<svg id="Layer_2" data-name="Layer 2" xmlns="http://www.w3.org/2000/svg" viewBox="0 0 48 48.76">
  <defs>
    <style>
      .cls-1 {
        fill: #bdbdbd;
      }
    </style>
  </defs>
  <g id="Layer_1-2" data-name="Layer 1">
    <g id="uuid-8aea527e-f020-4d39-a55f-4426302f188f" data-name="Layer 1-2">
      <path class="cls-1" d="M14.31,45.55c-.05-.1-.13-.06-.08.04.05.1.13.06.08-.04ZM2.34,40.55c-.07.35.08.03.26.07,3.95.85,3.85.52,3.94,1.03.71,3.84.7,3.81.7,3.84-.05.32-.07.37-.04.42.39.82.39.76.18,0-.04-.15-.07-.07,2.59-2.62.23-.23,3.5,2.08,4.15,2.02.11-.01.08.11-.41-3.75-.01-.09.09-.05.34,0,.14.03,1.38-.72,4.87-2.01.35-.13.52-.09.47-.22-.05-.12-3.03-1.29-3.51-1.45-1.73-.6-1.98-.73-1.93-.98.29-1.51,2.05-4.53,1.67-4.33-3.94,2.1-4.19,2.88-4.47,2.6-2.29-2.24-2.9-2.85-2.77-2.59.19.39.22.44.16.45-.41.1-.83,3.15-1.49,3.71-4.25,3.61-3.58,3.05-4.26,3.6-.12.1-.43.17-.43.18h0ZM39.03,16.96c.05.23,9.09-8,8.97-7.24-.18,1.19-1.83,4.41-2.52,5.76-1.18,2.3-.45,2.1-6.44,11.71-.95,1.52-8.85,9.91-12.4,12.79-6.4,5.2-6.47,5.54-7.73,6.28-1.2.71-4.05,2.14-5.43,2.25-4.49.34-4.77.37-7.77-.23-.42-.09-1.77-1.06-2.14-1.35C1.02,44.92-.03,40.67,0,40.53c.26-1.22.36-2.95,1.75-6.42.77-1.92,4.88-6.25,6.63-7.26,5.9-3.45,6.56-3.18,11.57-4.94,3.98-1.4,6.1-3.24,7.55-3.76.13-.04.03.03,4.31-5.21.5-.61,3.1-8.66,3.53-12.85.01-.11.16-.13.2-.03.71,1.91.39,13.89.62,13.61,5.79-7.04,7.77-11.38,7.81-10.35.08,1.62-4.95,13.62-4.95,13.62h0Z"/>
    </g>
  </g>
</svg>