<?xml version="1.0" encoding="UTF-8"?>
<svg id="Layer_2" data-name="Layer 2" xmlns="http://www.w3.org/2000/svg" viewBox="0 0 48 39.72">
  <defs>
    <style>
      .cls-1 {
        fill: #bdbdbd;
      }
    </style>
  </defs>
  <g id="Layer_1-2" data-name="Layer 1">
    <path class="cls-1" d="M30.63,17.23c6.85-2.65,15.83-7.29,11.33-12.12-4.86-5.22-11.79,3.95-15.51,9.9,2.43-6.15,3.69-13.55-1.34-13.71-4.31-.14-3.86,7.54-2.92,13.33C17.07,7.31,7.61-4.33,2.86,1.65c-4.75,5.98,7.74,12.44,15.45,15.71C10.87,16.16-1.98,14.98.26,21.69c2.1,6.31,12.06,3.31,18.32.7-5.92,3.55-13.92,9.6-7.77,13.56,6.76,4.36,10.66-6.7,12.23-12.77.6,5.93,2.52,19.05,7.66,16.12,4.94-2.82-1.07-12.8-4.4-17.63,7.36,5.1,19.62,12.27,21.48,4.89,1.86-7.38-8.68-9.1-17.15-9.32h0Z"/>
  </g>
</svg>