<?xml version="1.0" encoding="UTF-8"?>
<svg id="Layer_2" data-name="Layer 2" xmlns="http://www.w3.org/2000/svg" viewBox="0 0 48 41.43">
  <defs>
    <style>
      .cls-1 {
        fill: #bdbdbd;
      }
    </style>
  </defs>
  <g id="Layer_1-2" data-name="Layer 1">
    <g id="_ÎÓÈ_1" data-name=" ÎÓÈ 1">
      <g>
        <path class="cls-1" d="M39.82,41.25c-.64-.34-1.09-.98-1.48-1.69-.83-.97-1.25-2.55-1.38-3.95,0,.01,0,.03,0,.04,0,0,0,0,0,.01-.05-.62-.07-1.23-.09-1.85-.13-1.2-.27-2.39-.24-3.61-.03-1.1-.2-2.2-.1-3.3,0-.13.02-.27.03-.4-.01-.36-.02-.71-.02-1.07,0-.03-.01-.06-.01-.09-.36-.07-.71-.14-1.07-.16.09,1.12-.07,2.24-.09,3.36-.06,1.87-.1,3.76-.33,5.62-.08.65-.24,1.28-.3,1.94-.09,1.41-.31,2.92-1.06,4.01-.37.66-.92,1.28-1.61,1.08-.12-.02-.23-.04-.35-.06-.13,0-.28,0-.43-.02-1.6-.15-2.17-2.42-2.61-4.06-.61-1.98-.39-4.14-.5-6.22.02-1.7-.18-3.4-.17-5.1-.52.04-1.05.03-1.57.06,0,0-.01,0-.02,0,0,.02,0,.05,0,.07-.02.36-.03.72-.03,1.09,0,.7.1,1.43.12,2.13.02.78-.03,1.57-.07,2.35-.16,2.81-.16,5.72-1.09,8.33-.32,1.05-1.25,1.66-2.11,1.48-2.24-.53-2.58-5.54-2.85-7.92-.13-1.31-.1-2.63-.17-3.95-.06-.98-.11-1.96-.11-2.94.03-.27,0-.57.02-.85-.24.06-.48.05-.73.05-.15,0-.3,0-.44,0h-.05,0c-.28,0-.55,0-.83-.02.02.61,0,1.23-.02,1.85.02.75.07,1.5.05,2.26.04,1.59.03,3.18-.08,4.77-.05,1.09-.11,2.18-.32,3.24-.15.68-.38,1.33-.63,1.95-.26.76-.8,1.41-1.49,1.3-1.73-.2-1.89-2.96-2.18-4.68-.27-2.3-.35-4.63-.43-6.96.02-1.19-.05-2.36-.05-3.54,0,0,0,0-.01,0-.52-.03-1.04-.08-1.56-.14-.07,0-.15,0-.22-.01.03,1.06.1,2.12.09,3.18,0,1.54-.09,3.07-.15,4.61-.05,1.54-.23,3.07-.45,4.59-.2,1.01-.3,2.24-1.01,2.89-.36.31-.83.51-1.27.39-1.23-.45-1.72-2.16-2.12-3.55-.14-.72-.16-1.47-.27-2.2-.15-1.11-.13-2.24-.21-3.36-.22-2.76-.07-5.53-.14-8.3-.18.02-.35.04-.53.04-.92-.03-1.85-.18-2.77-.14-.54.03-1.08.03-1.62-.05-.37-.09-.35-.69-.37-1.07,0-.6,0-1.21-.03-1.81,0-.45-.24-2.83.12-2.9.81-.36,1.67-.28,2.52-.34.99-.11,1.98-.21,2.98-.19.05-.04.1-.07.15-.09-.25-.41-.06-1.3-.08-1.76.03-.73.07-1.45.14-2.18.08-1.14.19-2.27.4-3.38.18-1.1.29-2.23.54-3.31,0,0,0,.01,0,.02.27-1.21.73-2.34,1.36-3.31.42-.76,1.05-1.33,1.79-1.42.46-.1.87.28,1.1.76.53,1.05.62,2.34.66,3.55.09,1.54.09,3.08.05,4.63,0,1.29-.12,2.58-.13,3.87.01.43.02.85.02,1.28,0,.09,0,.2,0,.31.44.05.87.08,1.31.11.11,0,.24-.05.35-.07,0-1.95.13-3.9.1-5.85.01-1.53.06-3.07.32-4.56.19-1.07.35-2.2.84-3.13.58-1.33,1.78-2.05,2.86-1.16.84.85,1.13,2.26,1.28,3.55.18,1.54.25,3.08.25,4.64.02,1.81.11,3.61,0,5.42-.01.37,0,.74.02,1.11.09.01.18.03.27.02.35-.01.7-.02,1.05-.05.07,0,.14,0,.2-.01.1-.01.19-.03.28,0-.07-.74.1-2.12.08-2.51.08-1.27,0-2.54.06-3.8.11-1.93.23-3.9.69-5.76.5-1.65,1-4.22,2.66-4.37.59.02,1.68,1.43,1.95,2.08.51,1.52.68,3.2.82,4.83.33,2.89.27,5.82.43,8.73.33,0,.66-.03.99-.03.05,0,.11,0,.16,0,.06,0,.12,0,.18,0,.06-1.79.17-3.59.26-5.38.08-1.94.34-3.87.85-5.7.42-1.27.73-2.63,1.54-3.6,1.21-1.58,2.26-.61,2.91,1.06.2.55.3,1.14.42,1.7.13.61.26,1.16.33,1.77.25,2.03.16,4.07.11,6.11-.06,1.48-.14,2.95-.21,4.43,0,.18-.02.35-.02.53.56-.01,1.12-.05,1.68-.07.17-2.53.02-5.07.2-7.59.1-1.23.19-2.47.37-3.68.2-1.02.48-2.01.82-2.96.26-1.04,1.12-1.87,1.99-1.63.54.18.89.81,1.21,1.35.29.6.36,1.32.48,2,.25,1.37.35,2.76.41,4.16.14,1.32.17,2.63.22,3.95,0,1.15.1,2.3.02,3.45,0,.07,0,.14-.01.22.16-.04.33-.09.5-.11,1.08-.18,2.2-.08,3.27.17.29.12.51.41.71.68.53.66.84,1.56.77,2.51-.03,2.91-3.19,3.74-5.01,3.53.04,1.56.09,3.12.13,4.68.07.84.09,1.69.04,2.54-.01,1.91.06,3.81-.09,5.72-.09,1.41-.03,2.88-.5,4.2-.32.96-1.13,1.8-1.96,1.8-.22,0-.44-.06-.65-.19h0Z"/>
        <path class="cls-1" d="M37.47,17.2c-.11,0-.21,0-.28,0-.85-.04-1.69-.19-2.54-.21-.17.02-.37.12-.49-.1-.23-.13-.24-.58,0-.72.23-.05.46-.04.7-.02.21.01.41.03.62,0,1.05-.08,2.1-.28,3.16-.21.52.16.29.95-.23.77-.03.44-.39.49-.74.49-.06,0-.12,0-.18,0h0Z"/>
        <path class="cls-1" d="M42.69,22.77c-.56-.06-1.14-.11-1.68-.28-.21-.06-.31-.39-.19-.61.16-.25.45-.25.68-.3.29-.02.58-.02.87-.01.28,0,.56,0,.84-.01.42-.06.89-.24,1.29-.23.47.02.93-.05,1.4-.12.42-.06.84-.12,1.26-.12.07-.76.05-1.52.06-2.28.03-.7.08-1.42-.13-2.09-.43.09-.86.19-1.29.29-.11.03-.24.06-.34-.04-.26-.22-.11-.72.18-.74-2.1,0-4.16.57-6.24.82-.3.04-.61.07-.91.15-.38.09-.84.42-1.16,0,.16-1.05,2.61-.91,3.33-1.12,1.53-.3,3.07-.57,4.62-.63.45,0,.91-.03,1.36-.02.29.04.7-.07.83.36.55.06.32,1.09.39,1.57.08.7.03,1.41,0,2.12.02.37.03.74,0,1.11-.04.32-.05.65-.09.97-.1.19-.1.42-.13.65-.16.45-.66.25-.98.34-1.13.16-2.26.2-3.39.2-.2,0-.39,0-.59,0h0Z"/>
        <path class="cls-1" d="M41.65,23.19c-.21-.16-.17-.61.06-.7.29-.12.59-.24.89-.34,1.06-.34,2.15-.5,3.21-.82.35-.13.7-.29,1.02-.54.18-.14.3-.45.54-.43.06-1.45-.03-2.87-.1-4.3-1.58-.16-3.15.11-4.72.22-.1-.01-.2.01-.31.03-.14.03-.27.06-.4,0-.21-.12-.24-.52-.04-.68.29-.18.65-.11.96-.16.31-.02.61-.05.92-.09,1.3-.15,2.6-.24,3.9-.09.19,0,.35.25.3.49.04.37.05.74.07,1.11.07,1.31.09,2.63.05,3.93.1,1.76-.14,1.75-.79,1.73-.28,0-.65-.01-1.1.13-1.01.1-2.02.25-3.03.4-.33.04-.68.15-1.02.15-.13,0-.26-.02-.38-.06h0ZM46.75,21.73s-.07.04-.1.06c.24-.03.48-.02.71-.01,0-.04,0-.09,0-.13,0-.1,0-.21,0-.31-.04.07-.09.13-.13.2-.08.13-.23.17-.35.11-.05.03-.09.06-.14.08h0ZM47.53,15.31h0s0,0,0,0h0Z"/>
        <path class="cls-1" d="M15.29,26.2c-.22-.17-.16-.65.1-.72.22-.05.45-.05.67-.05.47,0,.94-.02,1.4-.04.97-.08,1.94-.11,2.91-.06,1,.13,2,.13,3,.13.57.02,1.13-.07,1.7-.1,1.02-.04,2.05-.05,3.07-.1.47,0,.94-.03,1.42-.06.61-.04,1.22-.08,1.83-.04,1.4-.11,2.8-.36,4.21-.29.49,0,.97-.16,1.45-.16.27.05.55.05.82.09.37-.24.57.06.52.35-.04.23-.22.46-.56.44-.29-.05-.59-.07-.89-.1-.45.06-.89.16-1.34.16-1.16-.05-2.31.07-3.46.22-.8.1-1.61.04-2.41.08-1.22.11-2.44.11-3.66.15-.65-.01-1.3.05-1.94.1-.44.02-.89.02-1.33.01-.3,0-.6,0-.9,0-1.04-.07-2.07-.19-3.11-.15-.76.05-1.51.1-2.27.12-.22,0-.45,0-.67,0-.06,0-.13,0-.2.02-.05,0-.11.02-.16.02-.06,0-.13-.01-.18-.06h0Z"/>
        <path class="cls-1" d="M12.86,26.16c-.13,0-.26,0-.39,0-.23,0-.46.01-.69-.04-.72-.14-1.46-.2-2.18-.27-.32-.02-.64-.1-.96-.12-.15,0-.3,0-.45,0-.25,0-.5,0-.75-.02-.45,0-.91-.04-1.36-.1-.49-.06-.98,0-1.47,0-.5-.02-1,.01-1.49.02-.81-.03-1.61-.09-2.42-.1-.09,0-.18,0-.26-.01-.26-.04-.35-.53-.12-.71.1-.08.2-.07.3-.07.05,0,.11,0,.17,0,.8.01,1.6.07,2.4.1.92-.02,1.81-.05,2.73-.04.94.12,1.88.14,2.82.16,1.2.15,2.35.26,3.56.43.8-.07,1.59.17,2.38.22.84-.01,1.68-.14,2.51-.16.69-.06,1.38-.19,2.08-.24.4-.09.8-.18,1.21-.23.42-.03.84-.18,1.26-.11.91.19.4,1.51-.07.79-.34-.06-.69.07-1.03.1-.58.05-1.15.25-1.74.29-.46.02-.91.12-1.37.17-.93.05-1.85.15-2.78.19-.63-.03-1.25-.17-1.87-.23h0Z"/>
        <path class="cls-1" d="M.39,25.21c-.33-.02-.3-.49-.33-.8-.01-.5-.03-.98-.03-1.46,0-1.12-.01-2.25.06-3.37.05-.6-.02-1.22.1-1.82.12-.59,2.1-.38,2.58-.52.43-.03.85-.11,1.27-.18.75-.09,1.5-.08,2.25-.17.25-.02.5.05.75.09.39.07.78.05,1.17.11.28.03.61.41.38.76-.19.27-.34.07-.55,0-.57,0-1.14-.13-1.7-.18-.68.09-1.35.08-2.03.15-.54.07-1.08.18-1.62.23-.64.08-1.3.01-1.94.18-.03.78-.03,1.55-.09,2.33,0,.74,0,1.48-.01,2.22,0,.51.02,1.02.03,1.53.04.34.11.92-.29.92h0,0Z"/>
        <path class="cls-1" d="M2.32,25.75c-.35,0-.7.01-1.05-.02-.33.04-.67,0-.99-.1-.33-.13-.22-.64-.28-.97-.01-.59-.02-1.19.06-1.78.05-.43.09-.86.06-1.29.02-.36-.1-1.22.15-1.42.24-.21.57.09.47.44-.03.19-.01.39-.01.58,0,.29.01.58.02.87-.01.43-.07.86-.12,1.29.08-.04.16-.04.24-.04.03,0,.06,0,.09,0,.22,0,.43,0,.64.02.56.03,1.12.03,1.68.07.68.04,1.36.24,2.04.08.4-.14.87-.14,1.09.4.11.29.11.62.15.93,0,.14.08.24.11.37.04.42-.22.52-.49.48-.97,0-1.93.08-2.9.08-.33-.02-.65-.02-.98-.01h0ZM6.48,24.92s0,0,0,0c-.01,0-.02,0-.03-.01.01,0,.02,0,.04.01Z"/>
      </g>
    </g>
  </g>
</svg>