<?xml version="1.0" encoding="UTF-8"?>
<svg id="Layer_2" data-name="Layer 2" xmlns="http://www.w3.org/2000/svg" viewBox="0 0 48 45.78">
  <defs>
    <style>
      .cls-1 {
        fill: #bdbdbd;
      }
    </style>
  </defs>
  <g id="Layer_1-2" data-name="Layer 1">
    <g id="uuid-e4cdd660-6ce1-4af4-88b6-2ad2b60de59f" data-name="Layer 1-2">
      <path class="cls-1" d="M25.93,0c1.77.11.43,2.25,1.37,9.83.57,4.58.43,4.89,1.02,4.77,2.29-.45,5.77-1.02,8.1-.91,18.61.8,9.66.18-.79,5.17-.13.06-.14.25,0,.32,1.18.88,12.24,8.67,12.26,8.69.82.54-2.46-.48-13.95-2.12-.09-.01-.35.28-.26.44,1.87,3.1,4.5,14.96,5.53,19.16.12.43-.25.54-.36.33-1.43-2.55-7.56-9.61-9.47-11.24-.17-.14-1.64.1-1.67.13-3.79,3.95-5.55,5.67-11.93,9.69-.25.15-.6.29-.53,0,4.78-18.86,4.41-9.66-8.98-12.43-.52-.11-6.14-1.48-6.25-1.86-.04-.15.08-.3.25-.31,1.47-.05,12.58-5.26,13.81-6.04.43-.28-4.41-5.26-6.34-14.98-.09-.44-.43-1-.01-1.33.72-.57,2.35,1.12,2.87,1.53,2.42,1.89,4.76,3.76,7.02,5.63C17.65,14.5,25.1-.04,25.93,0Z"/>
    </g>
  </g>
</svg>