<?xml version="1.0" encoding="UTF-8"?>
<svg id="Layer_2" data-name="Layer 2" xmlns="http://www.w3.org/2000/svg" viewBox="0 0 45.33 48">
  <defs>
    <style>
      .cls-1 {
        fill: #bdbdbd;
      }
    </style>
  </defs>
  <g id="Layer_1-2" data-name="Layer 1">
    <path class="cls-1" d="M45.07,19.12c-.25-2.99-2.99-2.74-2.99-2.74,0,0-3.98-.25-3.98-1.74-.25-1.74,7.47-.5,7.22-3.98s-6.72-2.49-6.72-3.98c0,0-.5-1,3.49-1.49,0,0,2.49,0,2.99-1.99s-1-2.99-2.99-2.99c-2.99-.5-8.47,0-10.46,1-1.49.75-3.98,2.49-5.48,5.48,0,0-1.49,2.99-3.49,4.98-1.99-1.99-3.49-4.98-3.49-4.98-1.49-2.99-3.98-4.73-5.48-5.48C11.71.2,6.23-.3,3.24.2,1.25.2-.24,1.19.25,3.18s2.99,1.99,2.99,1.99c3.98.5,3.49,1.49,3.49,1.49C6.73,8.16.25,7.17,0,10.65s7.47,2.24,7.22,3.98c0,1.49-3.98,1.74-3.98,1.74,0,0-2.74-.25-2.99,2.74-.25,2.49,1.99,3.49,1.99,3.49,2.49,1,5.48.5,7.97,1.49,1.49.5,4.48,2.49,6.47,6.47,1,2.49,1.49,5.98,1,10.46-.5,3.49,1,6.97,4.98,6.97s5.48-3.49,4.98-6.97c-.5-4.48,0-7.97,1-10.46,1.99-3.98,4.98-5.98,6.47-6.47,2.49-1,5.48-.5,7.97-1.49,0,0,2.24-1,1.99-3.49Z"/>
  </g>
</svg>