<?xml version="1.0" encoding="UTF-8"?>
<svg id="Layer_2" data-name="Layer 2" xmlns="http://www.w3.org/2000/svg" viewBox="0 0 48 30.8">
  <defs>
    <style>
      .cls-1 {
        fill: #bdbdbd;
      }
    </style>
  </defs>
  <g id="Layer_1-2" data-name="Layer 1">
    <g id="_ÎÓÈ_1" data-name=" ÎÓÈ 1">
      <g>
        <path class="cls-1" d="M.96,24.22c.16-.81.34-1.62.51-2.43.3-1.35.67-2.65,1.05-3.96.25-.85.45-1.72.81-2.53.45-1.06,1.01-2.06,1.37-3.16.37-1.2,1.07-2.24,1.53-3.39.31-.68.71-1.31,1.05-1.97.27-.22.59-.36.89-.54,1.18-.62,2.29-1.35,3.46-1.99,1.09-.7,2.27-1.24,3.32-1.99.72-.57,1.62-.79,2.39-1.25.29-.14.95-.65,1.35-.66.03-.06.07-.12.15-.16.3-.1.62-.06.92-.1.58-.07,1.17-.02,1.75-.01.48,0,1.04-.06,1.5-.06,1.27-.04,2.52.17,3.78.23,1.29.07,2.58,0,3.85.22.19.03.39.04.58.04.18,0,.35,0,.53.03.08.01.15.03.22.05,0,0,.01,0,.02.01.04,0,.08-.01.12,0,0,0,.01,0,.02,0,.02,0,.04.01.06.03.54.36,1.09.71,1.61,1.1.67.55,1.26,1.2,1.92,1.75,1.12,1.03,2.24,2.08,3.25,3.23.78.73,1.47,1.55,2.22,2.31.88.94,1.51,2.1,2.36,3.07.31.41.62.82.92,1.23.37.51.73,1.04,1.05,1.58.86,1.12,1.7,2.26,2.31,3.55.07.2.18.41.14.63,0,.02,0,.04-.02.05.03.11.01.23-.06.32-.21.36-.42.71-.71,1.01-.49.64-.99,1.29-1.42,1.98-.23.38-.44.62-.61.74-.02.02-.04.03-.07.04-.29.17-.48.03-.52-.16-.94-.5-1.92-.94-2.88-1.42-.6-.27-1.24-.49-1.77-.91,0,0,0,0-.01-.01-.63-.5-1.39-.79-2.05-1.25-.14-.03-.28-.07-.42-.11-.62-.23-1.25-.42-1.91-.53-1.59-.39-3.21-.6-4.85-.64-.21.04-.38,0-.47-.09-.05,0-.09-.02-.14-.03s-.09-.02-.13-.03c-.42-.09-.84-.18-1.26-.27-1.14-.24-2.3-.45-3.45-.66-.87-.12-1.72-.35-2.59-.49-.44-.07-.89-.13-1.33-.22-.16-.02-.37-.07-.5-.16-.22,0-.44,0-.66,0-1.07-.02-2.14-.06-3.2-.13-1.18-.04-2.35.06-3.52.07-.17,0-.35-.01-.52,0-.12.23-.32.47-.39.63-.49.77-1.02,1.51-1.56,2.25-.88,1.27-1.78,2.53-2.61,3.83-.22.38-.43.76-.62,1.16-.05.1-.13.15-.22.17-.1.3-.23.59-.38.87-.09.15-.17.31-.25.46-.5.96-.92,1.97-1.42,2.94-.33.65-.5,1.38-.87,2.01-.13.49-1.05.21-1.41.25-.79-.02-1.58.01-2.37-.03-.54.09-.55-.44-.59-.85-.04-1,.12-1.99.26-2.98.13-.89.29-1.78.46-2.67h0Z"/>
        <path class="cls-1" d="M.16,5.55c-.05-.02-.1-.05-.15-.07,0,0,0,0,0,0,.01,0,.02,0,.03,0,.04.02.08.05.12.07Z"/>
        <path class="cls-1" d="M.16,5.55c-.05-.02-.1-.05-.15-.07,0,0,0,0,0,0,.01,0,.02,0,.03,0,.04.02.08.05.12.07Z"/>
      </g>
    </g>
  </g>
</svg>