<?xml version="1.0" encoding="UTF-8"?>
<svg id="Layer_2" data-name="Layer 2" xmlns="http://www.w3.org/2000/svg" viewBox="0 0 22.08 48">
  <defs>
    <style>
      .cls-1 {
        fill: #bdbdbd;
      }
    </style>
  </defs>
  <g id="Layer_1-2" data-name="Layer 1">
    <g id="uuid-14a20d3d-26d9-4af6-b230-7d4fe9ba456e" data-name="Layer 1-2">
      <path class="cls-1" d="M22.08,24.14c-2.97-2.8-6.14-5.37-9.45-7.74,3-1.97,6.02-4.23,8.86-6.71C17,5.72,11.8,2.48,6.17,0,3.94,1.38,1.77,2.86,0,4.09c2.73,1.89,5.37,3.91,7.91,6.05-2.39,1.97-4.73,4.45-7.08,6.92,2.83,2.25,5.67,4.54,8.3,7.04-2.58,2.4-5.02,4.94-7.45,7.47,2.66,1.91,5.24,4.04,7.68,6.31-2.2,1.64-4.27,3.46-6.18,5.43,1.23,2.05,3.02,3.53,4.99,4.69,4.58-2.74,9.07-5.45,13.43-8.36-2.3-2.81-4.77-5.58-7.41-8.19,2.61-2.18,5.37-4.64,7.89-7.32h0Z"/>
    </g>
  </g>
</svg>