<?xml version="1.0" encoding="UTF-8"?>
<svg id="Layer_2" data-name="Layer 2" xmlns="http://www.w3.org/2000/svg" viewBox="0 0 48 29.63">
  <defs>
    <style>
      .cls-1 {
        fill: #bdbdbd;
      }
    </style>
  </defs>
  <g id="Layer_1-2" data-name="Layer 1">
    <g id="_ÎÓÈ_1" data-name=" ÎÓÈ 1">
      <path class="cls-1" d="M.54,27.42c-.13-.8-.34-1.58-.42-2.4-.02-.53-.25-1.78,0-2.14.51-.46,1.13-.65,1.71-.83-.3-1.16-.08-2.56.5-3.39.03-.03.06-.06.09-.08.1-.19.21-.36.28-.48.52-.82,1.04-1.65,1.59-2.43.85-1.16,1.85-1.93,2.83-2.76,1.81-1.48,4.09-2.49,6.05-1.29,0-.63.04-1.26.12-1.87.12-.74.37-1.4.6-2.07.39-1.12.76-2.28,1.32-3.22,1.45-2.27,3.81-3.21,5.78-3.64,1.53-.21,3.03-.77,4.57-.8,1.81-.04,3.7.15,5.27,1.73,1.35,1.11,2.33,3.03,2.87,5.28.15-.43.32-.84.51-1.23.43-.93,1.08-1.56,1.77-1.86.91-.4,1.87-.13,2.8-.06.93.04,1.87-.06,2.8.19.74.22,1.47.47,2.19.84,1.06.7,1.82,2.19,2.55,3.56.54.96.79,2.23.75,3.51.03,1.32-.11,2.62-.45,3.83-.31,1.71-.84,3.32-.96,5.11.67.07,1.35.17,2.01.38.21.07.31.28.32.51.1.45-.06,1.16-.04,1.62-.02,1.31-.07,2.61-.28,3.88-.12.46.05,1.09-.21,1.43-.63.38-1.35.3-2.02.41-1.59,0-3.17.13-4.76.1-.57,0-1.14,0-1.71,0-1.28,0-2.56-.02-3.84.11-1.39.16-2.79.16-4.19.13-1.9.03-3.77-.6-5.67-.68-.92-.09-1.85-.08-2.77.04-1.83.27-3.67.23-5.51.23-1.52,0-3.03-.07-4.55-.14-.19-.02-.39-.05-.58-.09h0c-1.09.06-2.18.08-3.27.16-1.06.14-2.11.24-3.17.33-.09.03-.17.07-.26.1-.07,0-.12-.02-.18-.07-1.08.09-2.16.17-3.24.27,0,0-.02,0-.02,0-.73,0-.97-1.3-1.18-2.21h0Z"/>
    </g>
  </g>
</svg>