<?xml version="1.0" encoding="UTF-8"?>
<svg id="Layer_2" data-name="Layer 2" xmlns="http://www.w3.org/2000/svg" viewBox="0 0 48 37.33">
  <defs>
    <style>
      .cls-1 {
        fill: #bdbdbd;
      }
    </style>
  </defs>
  <g id="Layer_1-2" data-name="Layer 1">
    <g id="uuid-b28cecec-8ae3-4201-b9af-f8d40f549462" data-name="Layer 1-2">
      <path class="cls-1" d="M46.08,37.33c.04-.05-.03.01-2.19-3.55-.1-.17,2.02-1.87,2.28-2.07.06-.05.07-.14,0-.19-2.46-2.25-2.56-2.28-2.36-2.39,4.05-2.16,4.07-2.07,3.91-2.25l-2.07-2.47c-.18-.22,1.96-2.5,2.3-2.84.04-.04.03-.1,0-.13-2.68-2.07-2.72-2.01-2.6-2.16,1.75-2.23,1.84-2.31,1.68-2.46l-3.67-3.39c-.05-.05,1.56-2.27,1.56-2.26.14-.2-2.31-2.01-2.19-2.23l1.01-1.94c.29-.56-3.27-2.37-3.22-2.71.04-.3.57-4,.49-4.29-.13-.48-22.5,19.02-22.66,19-.2-.03-.3-.24-.27-.3l1.11-3c.02-.06-.04-.12-.1-.1l-6.33,2.29c-.08.03-2.72-4.41-2.78-4.16-1.53,5.35-1.43,5.31-1.81,5.33C.14,19.46-.18,19.43.05,19.59c0,0,5.61,3.24,5.54,3.3-.01,0-3.68,2.94-4.92,4.07-.25.23.61,0,4.44.08.14,0,.43,7.76.46,8.22,0,.09.13.12.17.04l3.81-5.98s.08-.04.1,0c.13.24,3.92,5.28,3.97,5.31s.12,0,.12-.06c0,0,.72-6.72.72-6.73.01-.03,6.23,1.78,5.85,1.67.08.02.16-.05.13-.13-1.8-5.24-1.82-4.17.94-2.92,5.74,2.59,24.64,10.94,24.7,10.87h0Z"/>
    </g>
  </g>
</svg>