<?xml version="1.0" encoding="UTF-8"?>
<svg id="Layer_2" data-name="Layer 2" xmlns="http://www.w3.org/2000/svg" viewBox="0 0 45.47 48">
  <defs>
    <style>
      .cls-1 {
        fill: #bdbdbd;
      }
    </style>
  </defs>
  <g id="Layer_1-2" data-name="Layer 1">
    <path class="cls-1" d="M5.05.51C1.52.51,0,5.05,0,10.61c0,8.59,3.54,17.68,10.11,24.76,3.54,3.54,7.58,5.56,9.6,9.09,1.01,2.02,2.02,3.54,3.03,3.54s2.02-1.52,3.03-3.54c2.02-3.54,6.06-5.56,9.6-9.09,6.57-7.07,10.11-16.17,10.11-24.76,0-5.56-1.52-10.11-5.05-10.11-4.55,0-6.57,6.57-8.08,13.14C30.32,9.09,27.28.51,22.74,0c-4.55.51-7.58,9.09-9.6,13.64C11.62,7.07,9.6.51,5.05.51Z"/>
  </g>
</svg>