<?xml version="1.0" encoding="UTF-8"?>
<svg id="Layer_2" data-name="Layer 2" xmlns="http://www.w3.org/2000/svg" viewBox="0 0 9.55 48">
  <defs>
    <style>
      .cls-1 {
        fill: #bdbdbd;
      }
    </style>
  </defs>
  <g id="Layer_1-2" data-name="Layer 1">
    <g id="_ÎÓÈ_1" data-name=" ÎÓÈ 1">
      <path class="cls-1" d="M4.58,0C2.37,2.33.24,5.64,1.64,8.53c.34.7.86,1.31,1.06,2.05.8,2.97-3.82,5.74-2.45,8.49.68,1.37,2.62,1.88,3.03,3.35.59,2.09-2.38,3.68-2.39,5.85-.01,2.53,3.88,3.92,3.53,6.42-.17,1.25-1.42,2.19-1.48,3.45-.08,1.52,1.5,2.51,2.36,3.76,1,1.46.99,3.54-.03,4.99.95.56,2.01.94,3.11,1.11.63-2.18.41-4.59-.61-6.62-.28-.56-.63-1.11-.75-1.73-.47-2.29,2.18-4.36,1.74-6.65-.33-1.73-2.3-2.81-2.55-4.55-.3-2.1,1.94-3.59,2.88-5.49,1.01-2.04.27-4.78-1.62-6.04-.88-.59-2.01-.95-2.47-1.9-.58-1.21.29-2.61,1.18-3.61s1.93-2.18,1.7-3.5c-.22-1.26-1.57-2.21-1.49-3.49.1-1.54,2.2-2.39,2.25-3.94-1.35-.15-2.7-.29-4.07-.46h0Z"/>
    </g>
  </g>
</svg>