<?xml version="1.0" encoding="UTF-8"?>
<svg id="Layer_2" data-name="Layer 2" xmlns="http://www.w3.org/2000/svg" viewBox="0 0 48 40.37">
  <defs>
    <style>
      .cls-1 {
        fill: #bdbdbd;
      }
    </style>
  </defs>
  <g id="Layer_1-2" data-name="Layer 1">
    <g id="uuid-a2a18ed5-659f-45a5-b70b-59d247127a63" data-name="Layer 1-2">
      <path class="cls-1" d="M19.88,3.78c1.26,6.82,3.2,14.73,2.9,14.53-2.06-1.41-16.23-7.11-16.64-7.12-.41-.02,12.69,10.64,12.45,10.76-.73.36-2.42.19-12.28,1.33-.56.07-2.39-.1-.26.38.03,0,11.05,2.42,12.64,2.67.02,0-4.46,9.52-4.47,9.54-.66,1.33,7.72-8.73,7.74-8.75.1-.12-.05,6.01-.15,6.89-.31,2.67-.33,2.67-.3,2.68.1.01,4.42-9.33,4.57-9.13.31.43.17.32,3.01,6.56,1.09,2.39,1.21,2.27,1.16,2.17-.07-.52-1.13-9.14-.62-9.08.02,0,10.51,4.29,10.89,4.29.01,0-7.47-7.6-7.59-7.84-.12-.26-.33-.12,8.66-.16,6.16-.03,4.24-.14-1.06-1.37-2.37-.55-7.82-1.78-7.67-1.9.83-.63,5.1-4.97,6.23-6.33,2.5-2.99,3.71-2.53-6.28,1.63-1.17.49-3.77,1.58-3.76,1.45.32-4.73.81-8.82.88-9.43.18-1.59-3.55,9.69-4.06,9.88-.13.05-6.69-15.56-5.99-13.64h0ZM2.06,23.63c-1.55.78-1.62-1.13-1.99-3.08C-.85,15.57,6.95,7.3,10.59,5.28c3.44-1.91,4.37-2.75,6.02-3.35C23.6-.63,21.46.07,24.2.14c4.62.11,11.23,3.18,13.44,4.42.46.26,4.71,4.08,5.71,5.68,1.21,1.95,3.85,6.05,4.13,8.09.03.26.76,6.69.45,7.19-5.43,8.79-5.49,7.17-9.9,9.9-3.75,2.33-8.85,4.27-11.02,4.94-.47.15-8.61-1.19-14.02-1.73-.35-.03-9.09-9.44-8.54-8.85-.31-.33-2.36-6.16-2.38-6.15h0Z"/>
    </g>
  </g>
</svg>