<?xml version="1.0" encoding="UTF-8"?>
<svg id="Layer_2" data-name="Layer 2" xmlns="http://www.w3.org/2000/svg" viewBox="0 0 48 36.86">
  <defs>
    <style>
      .cls-1 {
        fill: #bdbdbd;
      }
    </style>
  </defs>
  <g id="Layer_1-2" data-name="Layer 1">
    <g id="_ÎÓÈ_1" data-name=" ÎÓÈ 1">
      <g>
        <path class="cls-1" d="M.57,34.78c-.33-.01-.47-.37-.42-.67-.14-.48,0-1.28-.05-1.68.03-1-.04-2,.09-2.99.06-1.52.05-3.04.22-4.54.41-3.02.75-6.06,1.23-9.06.45-2.47,1.12-4.9,2.15-7.11.61-1.14,1.48-2.02,2.24-3,.75-.89,1.36-1.94,2.05-2.89,1.44-1.51,4.48-1.55,6.34-1.78,1.27-.17,2.53-.52,3.81-.61,1.31-.11,2.6-.4,3.91-.45,2.29.03,4.58-.07,6.87.07.24.01.48.03.72.05,1.67.08,3.29.66,4.91,1.1,1.49.4,3.03.72,4.41,1.54.94.54,1.75,1.36,2.48,2.24.86,1.09,1.85,2.07,2.47,3.39,1.18,2.04,1.72,4.45,2.06,6.86.36,2.41.6,4.85.83,7.29.13,2.4.52,4.77.68,7.17.02,1.58.27,3.15.34,4.72,0,.28-.05.5-.14.65.32.47-.11,1.21-.67.76-2.16-.18-4.35.01-6.51.06-1.52.11-3.03.43-4.56.51-.14,0-.29,0-.43.01-.57,0-1.13-.03-1.7-.06-.47-.02-.93-.05-1.4-.05-.42,0-.84,0-1.25,0-.7.01-1.4.03-2.11-.04-1.4-.15-2.79-.39-4.19-.49-1.52-.22-3.05-.2-4.58-.17-1.13,0-2.25-.09-3.38-.05-2.01.16-4.02.24-6.02-.06-1.32-.2-2.65-.18-3.97-.16-.72.01-1.44.02-2.17,0-.13,0-.25,0-.38,0-1.31-.06-2.6-.42-3.91-.56h0Z"/>
        <path class="cls-1" d="M45.71,31.22c-.27-.75-.72-1.4-.89-2.19-.11-.61-.5-2.36.32-2.31.05,0,.09.01.15.03.49.31.14,1.07.32,1.58.07.78.5,1.37.76,2.07.42.69.13,1.2-.21,1.2h-.02c-.15,0-.32-.12-.43-.37h0Z"/>
        <path class="cls-1" d="M34.11,36.83c-.27-.05-.55-.06-.83-.1-.48-.09-.95-.26-1.44-.33-1.02-.18-2.05-.38-3.06-.54-1.41-.22-2.78-.68-4.12-1.22-.48-.19-1.12-.11-1.49-.54-.23-.31-.05-.82.3-.85.15-.03.27.06.41.1.33.09.66.13.99.24,1.13.41,2.24.9,3.42,1.08,1.2.23,2.31.4,3.48.64.56.05,1.1.25,1.66.36.85.14,1.71.12,2.56.03,1.03,0,2.04-.18,3.07-.23.5-.06,1.01-.09,1.51-.11.64-.04,1.28-.17,1.92-.21.43,0,.86,0,1.29.02.61.02,1.22.04,1.83,0,.26-.03.52,0,.78.02.24.02.47.04.71.03-.03-.65.03-1.3-.05-1.94-.03-.67-.17-1.32-.27-1.98-.15-.71-.11-1.45-.29-2.16-.1-.61-.26-1.2-.42-1.78-.48-.29-.26-1.07.19-1.04.06,0,.12.02.18.05.57.33.59,1.19.78,1.82.1.44.2,1.01.27,1.43.06.44.04.9.14,1.34.23,1.27.4,2.56.34,3.87.03.48.06,1.13-.37,1.37-.38.15-.78.11-1.18.07-.17-.02-.34-.03-.51-.03-1.12.08-2.25,0-3.37,0-.52.02-1.04.14-1.56.17-.76.06-1.53.11-2.29.17-.77.07-1.53.19-2.3.19-.57.02-1.14.1-1.71.1-.09,0-.19,0-.28,0-.1,0-.21-.01-.31-.02h0Z"/>
        <path class="cls-1" d="M11.85,35.82c-.71-.08-1.43-.09-2.14-.21-.92-.11-1.84-.14-2.76-.17-.62-.02-1.24-.04-1.86-.09-.39-.02-.79-.06-1.18-.11-.53-.06-1.05-.12-1.59-.11-.15,0-.31,0-.48,0-.55.02-1.16.04-1.51-.4-.34-.46-.42-.91-.24-1.5.04-.73.19-1.45.41-2.14.13-.77.27-1.55.55-2.26,0-.31.22-.57.47-.55,0,0,0,0,0,0,.52.05.48.79.26,1.19-.12.35-.19.72-.28,1.08-.08.59-.24,1.15-.39,1.71-.12.52-.1,1.05-.23,1.57.02.04.04.07.06.11.01.02.02.04.04.06.4.09.8.08,1.2.07.27,0,.54-.01.81,0,.31.01.62.05.94.09.36.05.71.09,1.07.1.6.06,1.2.07,1.8.09.59.01,1.19.03,1.78.08.47.05.94.05,1.41.14.78.11,1.56.09,2.34.25.34.07.68-.06,1.02-.09.86.01,1.72.08,2.58.08,1,.21,1.99.03,2.99-.09.28,0,.56.01.84.03.3.02.59.03.89.03.41-.03.81-.06,1.22-.03.59,0,1.17-.11,1.75-.03,1.69.49,3.44.34,5.14.67.57.22,1.16.18,1.75.11.35.04.69,0,1.04-.04.1,0,.2,0,.3,0,.17,0,.34,0,.5-.03.22-.06.46-.04.61.19.19.26.09.66-.17.8-.22.09-.46.09-.7.11-.4-.03-.79.06-1.18.07-.24-.04-.49-.01-.73,0-.14.01-.28.03-.43.03-.05,0-.09,0-.14,0-.6,0-1.12-.26-1.7-.29-1.18-.14-2.37-.15-3.55-.34-.46-.13-.92-.27-1.4-.24-.83.08-1.66.05-2.49.09-.24,0-.48-.01-.71-.03-.38-.02-.75-.05-1.13,0-.91.19-1.84.22-2.75.06-.79-.01-1.58-.03-2.37-.08-.16,0-.31.03-.46.06-.16.03-.32.06-.49.06-.02,0-.03,0-.05,0-.23,0-.45-.06-.68-.1h0Z"/>
      </g>
    </g>
  </g>
</svg>