<?xml version="1.0" encoding="UTF-8"?>
<svg id="Layer_2" data-name="Layer 2" xmlns="http://www.w3.org/2000/svg" viewBox="0 0 48 45.44">
  <defs>
    <style>
      .cls-1 {
        fill: #bdbdbd;
      }
    </style>
  </defs>
  <g id="Layer_1-2" data-name="Layer 1">
    <g id="_ÎÓÈ_1" data-name=" ÎÓÈ 1">
      <path class="cls-1" d="M0,6.36c7.43,13.03,14.86,26.05,22.3,39.08,9.96-6.4,20.51-13.49,24.92-24.48.8-2,1.3-4.51-.12-6.12-.75-.86-1.89-1.26-3-1.54-6.17-1.56-12.99-.29-18.19,3.38,2.23-2.1,4.19-4.49,5.82-7.08.34-.53.67-1.12.62-1.75-.1-1.34-1.74-1.93-3.08-2.01-3.42-.21-6.89.84-9.63,2.89,1.29-1.81,2.59-3.63,3.88-5.44.33-.47.68-.98.67-1.56-.03-1.42-1.96-1.81-3.37-1.7C13.22.62,5.79,3.26,0,6.36Z"/>
    </g>
  </g>
</svg>