<?xml version="1.0" encoding="UTF-8"?>
<svg id="Layer_2" data-name="Layer 2" xmlns="http://www.w3.org/2000/svg" viewBox="0 0 48 46.19">
  <defs>
    <style>
      .cls-1 {
        fill: #bdbdbd;
      }
    </style>
  </defs>
  <g id="Layer_1-2" data-name="Layer 1">
    <g id="uuid-e88e4936-c714-4b3e-96a3-0404018811d4" data-name="Layer 1-2">
      <path class="cls-1" d="M8.55,28.83c-1.34.93-2.51,2.12-3.27,3.57-.62,1.17-.8,2.49-.8,3.81.61,1.96,1.36,3.88,2.1,5.79,1.23,1.24,2.9,2.06,4.65,2.28,1.69.07,3.37-.51,4.91-1.16,1.24-.6,2.26-1.49,3.17-2.49.07,1.44.46,2.89,1.47,3.91.18.18.37.36.56.54.89.23,1.78.46,2.67.67.32.07.64.14.97.2.14.03.28.05.42.07.04,0,.42.06.4.06.49.06.99.1,1.48.12,1.32-1,2.98-1.44,4.44-2.21,1.07-.56,2.1-1.2,3.16-1.79.34-.72.58-1.48.66-2.26.26-1.7.12-3.4-.14-5.09-.09-.52-.29-1.02-.51-1.5.53.06,1.06.11,1.59.16,2.64.15,5-.4,6.97-1.58-.12-.4-.09-.84.13-1.18.99-1.49,1.83-3.06,2.64-4.65.38-.75.73-1.51,1.17-2.23.21-.34.42-.67.62-1.01-.89-1.15-1.32-2.67-1.82-4.02-.06-.17-.16-.35-.21-.53,0,0,0,0,0-.01-.04-.08-.08-.16-.12-.25-.28-.56-.58-1.11-.88-1.66-.4-.74-.79-1.48-1.14-2.23-2.37-1.43-5.41-1.82-8.22-1.45-.47.06-1.06.12-1.66.25.44-.96.7-2.01,1-3.02.53-2.3-.02-4.87-1.27-6.92-.64-.31-1.24-.67-1.88-.99-.36-.18-.73-.35-1.09-.52-.16-.07-.32-.15-.48-.22-.09-.04-.18-.08-.28-.12.06.03.22.09-.06-.03-.72-.29-1.46-.56-2.21-.76-.39-.11-.79-.18-1.19-.27-.1-.02-.21-.04-.31-.06,0,0-.02,0-.02,0h-.02c-.16,0-.33-.02-.49-.01-.02,0-.16.01-.24.02-.06.01-.15.03-.17.03-.26.05-.52.09-.78.12-.31.04-.12.02-.05,0-.1.01-.2.03-.3.04-.17.03-.35.06-.52.09-1.57.28-3.11.7-4.62,1.24-.38.14-.76.28-1.14.43-.09.04-.19.08-.28.11,0,0-.05.02-.09.04-.06.02-.16.07-.18.08-.09.04-.18.08-.28.12-.24.11-.48.22-.71.33-.66.83-1.16,1.8-1.56,2.77-.43,1.12-.36,2.35-.25,3.52.02.67.06,1.35.15,2.02-.91-.44-1.85-.82-2.86-1.02-.85-.18-2.04-.22-3.26-.12-.12.33-.34.61-.64.76-1.44.72-2.87,1.48-4.23,2.34-.62.39-1.23.8-1.82,1.24-.05.03-.09.07-.14.1,0,0-.01.02-.02.03,0,.01-.02.03-.04.05-.02.04-.12.16-.14.19-.06.09-.1.19-.15.29,0,.02-.02.03-.02.05,0,.01-.01.03-.02.05-.04.11-.08.23-.12.34-.07.24-.14.49-.2.73-.12.52-.2,1.04-.28,1.56h0c0,.07-.01.12-.02.17-.01.12-.03.24-.04.36-.02.22-.05.45-.08.67-.08.7-.25,1.39-.38,2.08-.06.35-.12.71-.17,1.07l-.02.15c.4,1.33,1.11,2.58,2.19,3.67,1.62,1.79,4.03,2.6,6.37,3.07h0ZM20.19,26.87c.2.1.42.18.63.24.01,0,.03.01.04.02-.01,0-.03-.01-.04-.02-.22-.06-.43-.14-.63-.24h0ZM21.99,27.48c-.17-.03-.35-.07-.52-.12.17.05.34.09.52.12ZM25.17,17.95c.45.22.94.36,1.38.6.56.35,1.08.77,1.51,1.27.65.72,1.13,1.65,1.11,2.65.02.38-.12.72-.22,1.08-.33,1.12-1.09,2.04-1.95,2.8-.76.61-1.68.97-2.64,1.08-.42.08-.86.15-1.29.14.43,0,.86-.06,1.29-.14.96-.11,1.89-.46,2.64-1.08.87-.76,1.62-1.68,1.95-2.8.11-.35.25-.7.22-1.08.02-.99-.46-1.92-1.11-2.65-.43-.5-.95-.92-1.51-1.27-.44-.24-.93-.38-1.38-.6-.76-.39-1.6-.56-2.44-.55.84-.01,1.68.16,2.44.55h0Z"/>
    </g>
  </g>
</svg>