<?xml version="1.0" encoding="UTF-8"?>
<svg id="Layer_2" data-name="Layer 2" xmlns="http://www.w3.org/2000/svg" viewBox="0 0 40 48">
  <defs>
    <style>
      .cls-1 {
        fill: #bdbdbd;
      }
    </style>
  </defs>
  <g id="Layer_1-2" data-name="Layer 1">
    <path class="cls-1" d="M35.74,31.67c-.91-.37-.99-1.63-.14-2.12,2.39-1.37,4.41-3.44,4.4-6.53,0-2.88-2.02-4.6-4.44-5.63-.94-.4-.95-1.75-.02-2.16,2.39-1.06,4.3-2.87,4.44-5.95.27-5.89-5.49-8.46-13.01-8.8L17.06.03c-2.61-.12-7.57.12-10.04.96C3.74,2.11.17,4.25,0,8.3c-.14,3.51,2.77,5.44,5.82,6.5,1.05.36,1.05,1.87,0,2.23C2.76,18.08.03,20.08.02,23.84c0,3.71,2.32,6,5.92,7.19,1.04.34,1.08,1.83.06,2.23-3.26,1.27-6.25,3.54-5.92,7.58.49,5.87,6.52,7.67,14.02,7.03l12.37-1.06c2.19-.19,4.35-.72,6.37-1.6,3.35-1.46,7.39-4.15,7-8.61-.22-2.56-1.96-4.06-4.11-4.94Z"/>
  </g>
</svg>