<?xml version="1.0" encoding="UTF-8"?>
<svg id="Layer_2" data-name="Layer 2" xmlns="http://www.w3.org/2000/svg" viewBox="0 0 23.48 48">
  <defs>
    <style>
      .cls-1 {
        fill: #bdbdbd;
      }
    </style>
  </defs>
  <g id="Layer_1-2" data-name="Layer 1">
    <g id="uuid-24390fa5-2b0a-4edb-816f-cbb422c673ed" data-name="Layer 1-2">
      <path class="cls-1" d="M23.14.94c-1.3-.47-2.69-1.12-4.07-.89-.5.39-.99.8-1.45,1.24-2.17,2.37-3.88,5.23-5.63,7.98-.92,1.3-1.89,2.57-2.5,4.09-2.25,5.04-4.87,9.94-6.24,15.38-.5,1.95-1.12,3.87-1.52,5.85-.26,1.33-.46,2.72-.75,4.05-.58,2.67-1.07,5.46-.9,8.21-.2.36.06.88.45.86.26,0,.52-.03.77-.03.83-.04,1.63.19,2.44.32,2.97-.15,5.94-.28,8.91-.5,3.15-.38,1.76.34,2.36-3.75.31-2.49.53-4.99.91-7.47.71-3.34,1.18-6.73,1.8-10.09.54-2.88,1.14-5.74,1.94-8.55.61-3.41,1.24-6.8,2.25-10.1.23-.91,2.38-6.38,1.23-6.61h0Z"/>
    </g>
  </g>
</svg>