<?xml version="1.0" encoding="UTF-8"?>
<svg id="Layer_2" data-name="Layer 2" xmlns="http://www.w3.org/2000/svg" viewBox="0 0 46.43 48">
  <defs>
    <style>
      .cls-1 {
        fill: #bdbdbd;
      }
    </style>
  </defs>
  <g id="Layer_1-2" data-name="Layer 1">
    <g id="_ÎÓÈ_1" data-name=" ÎÓÈ 1">
      <path class="cls-1" d="M9.94,47.99c-.88-.02-1.75-.04-2.63-.06-1.01.03-2.02.05-3.03.04-.15,0-.3,0-.44,0-1.84-.06-2.36-.45-2.27-1.27-.12-.98-.16-1.96-.31-2.94-.1-1.07.05-2.14-.13-3.21,0-.47-.11-.94-.14-1.42.02-.67.12-1.35.11-2.02-.04-.57-.05-1.15-.19-1.72,0-.07.01-.13.05-.19h0c-.17-1.97-.27-3.95-.47-5.92C.86,26.28-.06,23.27,0,20.25c.04-2.31.09-4.61.46-6.9-.19-1.66-.05-3.31.03-4.97-.03-1.44-.19-2.88-.12-4.31,0-1.02-.05-2.03-.12-3.05C.16.62.18,0,1.47.01c2.1-.04,4.2.03,6.3.12,4.02.13,8.1.22,12.05.62,4.48.43,8.94.95,13.25,1.64,2.43.45,4.67,1.06,6.97,1.62,6.27,1.49,5.19,1.5.33,3.2-3.11,1.16-6.76,2.02-10.27,2.96-.02,0-.04,0-.06.01,3.61,1,7.39,1.89,10.74,3.05,1.45.47,2.96.9,4.41,1.37.75.23,1.62.58,1.07.98-2.53,1.24-6.63,1.61-10.21,2.11-2.61.33-5.3.57-7.86.97-.16.02-.31.04-.46.07,1.48.64,2.81,1.33,4.09,2.03,1.84.92,4.09,1.69,6.23,2.48,1.26.4,2.54.81,3.54,1.33.97.46,2.2,1.12.31,1.47-2.46.64-5.04,1.17-7.69,1.65-2.33.51-4.76,1.06-7.05,1.58-.64.15-1.28.29-1.91.44,1.89.75,4.02,1.4,5.95,2.14,2.89.91,5.93,1.73,8.56,2.77,1.08.44,2.45.81,3.2,1.37.57,1.35-5.92,1.86-8.15,2.29-3.24.62-6.67,1.03-10.08,1.46-.12.01-.24.03-.37.05,2.05.78,4.23,1.49,6.62,2.09,1.79.52,3.21,1.26,4.93,1.8,1.28.38,2.55.71,3.84,1.02.46.1.66.26.67.43.29.17.37.4.02.61-.64.31-1.75.37-2.62.55-2.29.37-4.69.62-7.12.81-4.03.2-7.98.61-12.05.63-2.4.05-4.76.25-7.16.28-.21,0-.43,0-.64,0-.3,0-.61,0-.91,0h0Z"/>
    </g>
  </g>
</svg>