<?xml version="1.0" encoding="UTF-8"?>
<svg id="Layer_2" data-name="Layer 2" xmlns="http://www.w3.org/2000/svg" viewBox="0 0 47.29 48">
  <defs>
    <style>
      .cls-1 {
        fill: #bdbdbd;
      }
    </style>
  </defs>
  <g id="Layer_1-2" data-name="Layer 1">
    <g id="uuid-97fdbd6d-0d51-4bf4-b40d-dcb75f6a3d64" data-name="Layer 1-2">
      <path class="cls-1" d="M40.87,13.24c-.37-.09-11.3.64-11.3.64-.1,0-.17-.1-.14-.19l2.5-6.72c.1-.28-.18-.54-.45-.43-11.48,4.96-4.24,4.09-14.18.51-.07-.03-.15.03-.14.11.2,2.13.54,6.72.67,6.84.04.04-7.56,4.6-9.64,5.43-.51.21,1.02.37,5.86,1.04.15.02,1.06,8.3,1.15,8.76.43,2.13,4.9-5.78,5.27-4.84l3.7,9.14c.09.23,1.76-8.77,1.75-8.75.03-.16.2-.26.35-.21,2.53.87,8.98,3.02,9.19,2.98.05-.01-3.01-7.78-2.96-7.84,2.95-2.73,8.59-6.42,8.37-6.48h0ZM4.71,40.44c-1.08.81,2.67-15.94,2.68-16.07.02-.15-7.18-.42-7.18-.42-.16.02-.26-.15-.19-.29,0,0,3.07-5.5,3.17-5.56.31-.21,9.25-4.82,10-5.35,1.07-.77-2.4-8.64-1.86-8.58,1.39.15,7.84.65,8.94.54.16-.02,3.87,1.86,3.87,1.86C24.4,6.7,38.41-.07,39.09,0c.2.02-2.92,10.45-2.76,10.47,10.53,1.47,11.25,1.49,10.89,1.82-10.24,9.35-10.06,9.07-9.8,9.17.02,0,1.21,4.15,1.17,4.27l-2.11,6.79c-.02.07-6.11-2.39-6.11-2.39-.51-.22-6.95,18.43-7.45,17.85-.18-.22-3.9-13.7-4.6-16.57-.02-.09-11.22,7.18-13.61,9.02h0Z"/>
    </g>
  </g>
</svg>