<?xml version="1.0" encoding="UTF-8"?>
<svg id="Layer_2" data-name="Layer 2" xmlns="http://www.w3.org/2000/svg" viewBox="0 0 48 37.22">
  <defs>
    <style>
      .cls-1 {
        fill: #bdbdbd;
      }
    </style>
  </defs>
  <g id="Layer_1-2" data-name="Layer 1">
    <g id="uuid-02556cf4-6854-4c76-ba1c-68eaafb1f683" data-name="Layer 1-2">
      <path class="cls-1" d="M43.41,27.03c.37-.46.74-.93,1.13-1.38.91-1.07,1.94-2.01,2.68-3.24.85-1.52,1.35-1.46-.44-2.12-.83-.37-1.65-.78-2.51-1.04-.96-.3-1.95-.51-2.9-.85-.7-.23-1.39-.5-2.12-.56-.98-.08-1.96-.05-2.93-.25-1.36-.35-2.75-.29-4.13-.07-1.16.19-2.36.21-3.49.61.19-.44.38-.87.61-1.29.74-1.25,1.54-2.46,2.17-3.79.65-1.43,1.28-2.87,1.95-4.28.64-1.41,1.32-2.82,2-4.21.98-1.91-.16-1.56-1.39-2.08-1.29-.5-2.58-1-3.87-1.5-.56-.19-1.12-.36-1.64-.66-.31-.17-.85-.6-1.02-.02-.17.58-.32,1.16-.5,1.74-.41,1.2-.83,2.34-1.02,3.62-.18.86-.5,1.74-.7,2.61-.26,1.27-.64,2.51-.98,3.76-.33,1.38-.57,2.79-1.02,4.14-.01.03-.02.07-.03.12-.16-.33-.33-.66-.48-.99-.31-.65-.82-1.13-1.26-1.67-1.11-1.44-2.29-2.81-3.61-4.01-2.43-2.04-5.27-3.33-7.96-4.86-.27-.46-.67.05-.93.25-.45.37-.91.73-1.36,1.1-.95.79-1.9,1.61-2.7,2.59-.67.85-1.24,1.8-1.97,2.59-2.48,2.97-1.79,2.15.99,3.37.59.25,1.13.64,1.72.87.56.22,1.14.37,1.7.55,1.6.52,3.21,1.04,4.83,1.48,1.24.39,2.43.94,3.64,1.4.42.19.85.39,1.27.58-1.65-.05-3.31-.04-4.95.12-2.44.33-4.83,1.04-7.15,1.92-1.54.58-3.04,1.33-4.35,2.4-.27.27-.81.52-.71,1.01.18.46.43.87.62,1.32.33.7.56,1.45.9,2.14.52.97.97,1.98,1.46,2.96.48.75,1.24,3.02,1.96,3.24.18.04.33-.1.47-.2.59-.42,1.15-.9,1.71-1.37.84-.71,1.76-1.3,2.66-1.92,1.75-1.18,3.65-2.06,5.47-3.1.82-.45,1.6-.97,2.43-1.38,1.08-.49,2.15-.99,3.21-1.52.08,0,.15-.03.21-.06.07.05.14.1.2.16.23.21.46.5.68.73.47.52.92,1.07,1.4,1.58.29.41.53.86.86,1.23.86.98,1.35,2.24,1.91,3.44.13.36.29.71.42,1.07.16.62.26,1.24.38,1.88.12.57.19,1.54.55,1.96.05.03.09.05.14.05.06.04.12.05.19.05.31,0,.71-.32.98-.4.51-.2,1.03-.39,1.56-.51.57-.07,1.13-.21,1.67-.43.48-.15.96-.29,1.42-.48.37-.21,1.38-.17,1.34-.78-.3-1.68-.73-3.33-1.28-4.93-.22-.78-.47-1.53-.82-2.25-.49-1.11-1.05-2.19-1.81-3.11-.2-.26-.41-.53-.64-.77.09.02.17.03.23.06,1.12.27,2.2.68,3.27,1.15,1.42.59,2.88,1.03,4.3,1.64,1.38.7,2.86,1.05,4.32,1.47.47.03.72-.53,1.01-.84h0Z"/>
    </g>
  </g>
</svg>