<?xml version="1.0" encoding="UTF-8"?>
<svg id="Layer_2" data-name="Layer 2" xmlns="http://www.w3.org/2000/svg" viewBox="0 0 48 35.52">
  <defs>
    <style>
      .cls-1 {
        fill: #bdbdbd;
      }
    </style>
  </defs>
  <g id="Layer_1-2" data-name="Layer 1">
    <g id="uuid-202cfa11-e544-43fc-8773-176279e38b22" data-name="Layer 1-2">
      <path class="cls-1" d="M31.3,12.09c-4.11-1.79-8.38-3.13-12.51-4.86C13.37,4.96,8.01,2.5,2.29,0,1.16,2.34.05,4.43,0,7.04c-.02,1.4.32,2.79.36,4.18.09,2.82.66,5.27,1.62,7.95.56,1.55.81,3.11,1.55,4.6.75,1.52,1.6,2.92,2.72,4.21,2.18,2.52,5.47,4.6,8.42,6.11,1.54.79,3.31,1.39,5.04,1.39,2.34,0,4.77.16,7.1-.12,4.12-.49,8.13-1.89,11.69-4.01,1.57-.93,3.11-2.53,4.49-3.73,1.06-.92,2.31-2.13,3.17-3.24,1.01-1.31,1.62-2.7,1.85-4.6-5-2.19-11.24-5.33-16.7-7.7h0Z"/>
    </g>
  </g>
</svg>