<?xml version="1.0" encoding="UTF-8"?>
<svg id="Layer_2" data-name="Layer 2" xmlns="http://www.w3.org/2000/svg" viewBox="0 0 48 35.43">
  <defs>
    <style>
      .cls-1 {
        fill: #bdbdbd;
      }
    </style>
  </defs>
  <g id="Layer_1-2" data-name="Layer 1">
    <g id="uuid-e9f06a10-4ac8-4605-9293-499b938a17a4" data-name="Layer 1-2">
      <path class="cls-1" d="M24.56,34.59c2.04.36,4.08.84,6.13.84,2.64,0,5.22-.79,7.65-1.82,1.96-.83,3.89-1.85,5.44-3.37,2.58-2.52,3.93-6.27,4.17-10.03.24-3.76-.53-7.56-1.67-11.16-1.11-3.49-2.88-7.19-6.11-8.52-3.97-1.64-8.13.98-12.19,2.09-4.23,1.16-8.78.66-13.03,1.77-4.8,1.25-9.02,4.58-11.66,9C.65,17.8-.42,23.25.15,28.53c.27,2.55,1.38,5.54,3.75,5.99,8,1.5,14.41-1.04,20.66.07h0Z"/>
    </g>
  </g>
</svg>