<?xml version="1.0" encoding="UTF-8"?>
<svg id="Layer_2" data-name="Layer 2" xmlns="http://www.w3.org/2000/svg" viewBox="0 0 48 20.95">
  <defs>
    <style>
      .cls-1 {
        fill: #bdbdbd;
      }
    </style>
  </defs>
  <g id="Layer_1-2" data-name="Layer 1">
    <g id="_ÎÓÈ_1" data-name=" ÎÓÈ 1">
      <path class="cls-1" d="M.43,12.25C0,8.71,1.66,5.18,4.93,2.68c1.29-.99,2.96-1.86,4.93-1.85,2.31,0,4.46,1.26,5.56,2.75s1.34,3.17,1.4,4.8c.09-2.58.98-5.25,3.56-6.95,2.58-1.7,7.2-2.03,9.96-.17,2.95,1.98,2.56,5.18,3.53,7.9-.08-1.88-.15-3.82.83-5.51.98-1.69,3.32-3.07,5.99-2.86,2.91.23,5.13,2.21,6.14,4.18,1.32,2.58,1.23,5.32,1.13,7.98-.05,1.39-.12,2.81-.79,4.08-.68,1.27-2.09,2.4-4,2.66-1.91.26-4.03-.42-5.38-1.51s-2.02-2.52-2.16-3.91c-.99,2.65-4.05,4.77-7.84,5.42-1.51.26-3.19.29-4.68-.19-3.49-1.12-4.36-4.29-4.71-6.92-.83,2.51-2.73,4.78-5.41,6.46-1.43.9-3.14,1.65-5.09,1.85s-4.18-.22-5.56-1.31c-.96-.76-1.42-1.75-1.74-2.72-.68-2.1-.79-4.27-.15-4.61h0Z"/>
    </g>
  </g>
</svg>