<?xml version="1.0" encoding="UTF-8"?>
<svg id="Layer_2" data-name="Layer 2" xmlns="http://www.w3.org/2000/svg" viewBox="0 0 48 38.05">
  <defs>
    <style>
      .cls-1 {
        fill: #bdbdbd;
      }
    </style>
  </defs>
  <g id="Layer_1-2" data-name="Layer 1">
    <g id="_ÎÓÈ_1" data-name=" ÎÓÈ 1">
      <path class="cls-1" d="M35.54,37.99c-1.75.05-3.49.04-5.24.01-1.61.08-3.22-.07-4.82-.2-2.79-.07-5.56-.02-8.34-.14-2.54-.1-5.06-.52-7.61-.46-2.41.11-4.79-.37-7.19-.39-.33.16-.59-.03-.67-.27,0-.01-.01-.03-.02-.04-.43-1.4,0-2.9-.07-4.34.02-1.1-.15-2.19-.23-3.28-.07-1.56-.06-3.12-.15-4.68-.2-3.47-.41-6.94-.52-10.42-.05-1.58-.03-3.16-.21-4.74-.1-1.46-.09-2.94-.34-4.39C-.02,3.66-.02,2.65.03,1.63c.03-.35.03-.7.06-1.05.04-.18.2-.3.37-.32C.56.02.85-.04,1.09.05c.21.01.41-.02.62-.04,1.43-.09,2.85.27,4.25.5,1.42.2,2.81.33,4.18.74.89.76.71,2.24.75,3.3,0,1.18.02,2.37-.06,3.55-.05.92-.15,1.84-.12,2.76,0,.06,0,.12,0,.18.03.01.06.03.08.04.71.07,1.42.1,2.13.13,1.78.11,3.56.37,5.31.71,1.01.24,1.91.8,2.91,1.09.49.32.38,1.2.5,1.72.19,1.56.15,3.11.3,4.67.06.4.11.81.19,1.21.03.02.07.05.1.08.69.18,1.41.16,2.12.14.3,0,.59-.02.89,0,1.79.07,3.58.21,5.36.43,3.27.53,2.86-.76,3.38,2.82.12.94.22,1.89.33,2.83.02.22.05.44.08.66.03,0,.06,0,.1.01.66-.01,1.34.1,2,.11,1.48.13,2.88.07,4.34.13.84.08,1.67.21,2.49.36,1.17.08,2.33.18,3.48.4.44.03.58.37.6.76.13.78.25,1.56.32,2.34.05.58.18,1.19.16,1.76,0,.33-.04.66,0,.99.1.57.08,1.14.09,1.71-.04.4.18,1.11-.4,1.17-.15,0-.3,0-.46.01-.09.04-.18.04-.28,0-.05,0-.1,0-.14,0-.65.08-1.3.14-1.95.25-1.2.26-2.42.21-3.63.24-1.34.1-2.68.2-4.03.2-.52,0-1.05-.02-1.57-.05h0Z"/>
    </g>
  </g>
</svg>