<?xml version="1.0" encoding="UTF-8"?>
<svg id="Layer_2" data-name="Layer 2" xmlns="http://www.w3.org/2000/svg" viewBox="0 0 35.51 48">
  <defs>
    <style>
      .cls-1 {
        fill: #bdbdbd;
        fill-rule: evenodd;
      }
    </style>
  </defs>
  <g id="Layer_1-2" data-name="Layer 1">
    <g id="uuid-5b7b1aa7-c335-42bc-927c-c831dfdad344" data-name="Layer 1-2">
      <path class="cls-1" d="M21.29.47C11.49,2.11.78-4.78,1.23,9.51c.38,11.83-2.81,29.5-.19,33.42,2.61,3.92,6.37,6.71,14.03,3.96,13.57-4.87,21.82-1.76,20.25-7.47-1.57-5.72-26,.2-27.3-3.62-1.29-3.83,5.73-4.86,11.72-3.66,13.12,2.63,16.98-2.04,14.72-6.15-1.61-2.93-15.04-1.46-20.41-1.05-5.37.41-8.88-.67-7.65-4.46,1.23-3.79,25.28.75,28.23-3.28s-10.16-6.54-17.03-5.13c-6.87,1.41-11.9-.74-10.83-2.81,1.06-2.07,22.72.85,26.79-2.45,4.07-3.3.01-8.38-12.27-6.33h0Z"/>
    </g>
  </g>
</svg>