<?xml version="1.0" encoding="UTF-8"?>
<svg id="Layer_2" data-name="Layer 2" xmlns="http://www.w3.org/2000/svg" viewBox="0 0 48 46.86">
  <defs>
    <style>
      .cls-1 {
        fill: #bdbdbd;
      }
    </style>
  </defs>
  <g id="Layer_1-2" data-name="Layer 1">
    <g id="uuid-06a522b1-2cd8-4076-b3ce-75049c0e31d2" data-name="Layer 1-2">
      <path class="cls-1" d="M47.78,23.16c-.21-1.96-.56-3.82-1.37-5.61-.34-1.24-.71-2.45-1.29-3.59-.69-1.57-1.46-3.21-2.7-4.36-1.86-1.54-3.79-3.34-6.19-3.68-.25.04-.54-.01-.83-.06.02-.29.03-.57.04-.79,0-.87.09-1.74.2-2.6.18-1.27-.26-1.85-.7-1.93-.12-.18-.32-.31-.58-.3-2.53-.34-5.12-.11-7.66-.1-2.68-.05-5.36-.23-8.05-.09-.82.13-3.8-.32-3.95.84-.11.11-.2.26-.23.47-.16.89-.15,1.79-.11,2.69.02.66.09,1.31.15,1.96-.44,0-.89.07-1.27.06-1.88.07-3.71.66-5.27,1.81-3.73,2.83-6.49,7.35-7.44,12.18-.41,1.72-.34,3.49-.44,5.24-.11,1.71-.15,3.44.14,5.13.21,1.75.87,3.35,1.52,4.95.58,1.27.97,2.68,1.64,3.91,1.82,2.41,3.22,5.28,5.54,7.18.1.1.21.16.32.18.13.12.3.19.53.19,5.25-.28,10.52,0,15.78-.19,2.59-.12,5.17-.25,7.76-.3,1.51.07,3.02.16,4.52-.1.15-.01.27-.07.37-.14.17-.02.33-.12.46-.24.65-.53,1.31-1.03,1.95-1.58,1.13-1.3,2.26-2.61,3.31-3.99,2.41-2.95,3.28-6.88,3.78-10.7.33-2.13.49-4.32.11-6.46h0ZM35.72,27.59c-.69,2.68-1.44,5.64-3.55,7.42-2.18,1.2-4.52,2.16-7,1.78-1.22-.08-2.4-.46-3.56-.84-.41-.1-.83-.15-1.24-.24-.67-.22-1.3-.57-1.94-.86-1.6-1.18-2.94-2.76-3.99-4.52-.63-1.42-1.03-3.06-.83-4.65.29-2.43.33-5.12,1.6-7.22,1.01-1.31,2.13-2.56,3.46-3.48,1.83-1.32,3.96-1.91,6.09-2.4,1.45-.17,2.85.19,4.25.54,1.83.35,3.68.86,4.92,2.47,1.78,1.66,1.84,4.41,1.8,6.77-.03.79.16,1.55.2,2.33-.05.97-.1,1.94-.2,2.9h0Z"/>
    </g>
  </g>
</svg>