<?xml version="1.0" encoding="UTF-8"?>
<svg id="Layer_2" data-name="Layer 2" xmlns="http://www.w3.org/2000/svg" viewBox="0 0 48 42.95">
  <defs>
    <style>
      .cls-1 {
        fill: #bdbdbd;
      }
    </style>
  </defs>
  <g id="Layer_1-2" data-name="Layer 1">
    <path class="cls-1" d="M47.22,3.69c-.05-2.08-1.77-3.72-3.86-3.69L3.74.64c-2.07.03-3.74,1.71-3.74,3.77v34.76c0,2.08,1.7,3.77,3.8,3.77h10.94c2.18,0,3.92-1.82,3.79-3.98l-.86-15.44c-.11-1.98,1.34-3.71,3.32-3.95l5.55-.7c2.2-.28,4.17,1.37,4.27,3.58l.77,16.89c.09,2.02,1.76,3.61,3.8,3.61h8.83c2.13,0,3.84-1.74,3.8-3.86l-.78-35.4Z"/>
  </g>
</svg>