<?xml version="1.0" encoding="UTF-8"?>
<svg id="Layer_2" data-name="Layer 2" xmlns="http://www.w3.org/2000/svg" viewBox="0 0 44.45 48">
  <defs>
    <style>
      .cls-1 {
        fill: #bdbdbd;
      }
    </style>
  </defs>
  <g id="Layer_1-2" data-name="Layer 1">
    <path class="cls-1" d="M16.99,1.64C9.45,3.25,2.99,9.18.83,16.71c-2.15,7.54,0,16.69,4.85,22.61,4.85,5.92,12.38,9.15,19.92,8.61,6.46-.54,12.38-3.77,15.61-9.15-4.31,1.62-9.69,1.62-14-1.08-4.85-3.23-7.54-9.15-7-15.08.54-6.46,4.31-11.85,9.69-14.54,4.85-2.69,10.77-2.15,14.54,1.08-2.15-4.31-6.46-7.54-11.85-8.61C27.76-.52,22.37.02,16.99,1.64Z"/>
  </g>
</svg>