<?xml version="1.0" encoding="UTF-8"?>
<svg id="Layer_2" data-name="Layer 2" xmlns="http://www.w3.org/2000/svg" viewBox="0 0 5.84 48">
  <defs>
    <style>
      .cls-1 {
        fill: #bdbdbd;
      }
    </style>
  </defs>
  <g id="Layer_1-2" data-name="Layer 1">
    <g id="_ÎÓÈ_1" data-name=" ÎÓÈ 1">
      <path class="cls-1" d="M3.39,47.98c-.83-.04-1.67-.06-2.5-.23-.36-.13-.31-1.16-.37-1.76-.07-1.23-.11-2.46-.11-3.7-.07-7.82-.16-15.63-.18-23.44-.08-2.71-.06-5.36-.1-8.06C.06,8.45.1,6.1.02,3.75-.02,3.13,0,2.7.06,2.41c.03-.52.1-.99.27-1.33.28-.37.64-.17.94-.4C2.52.14,3.86-.33,5.12.3c.24.13.39.57.34,1.11-.01.97-.01,1.94-.03,2.91-.03,2.35.04,4.7.06,7.04.04,2.53-.11,5.04-.11,7.56.03,2.11.11,4.21.13,6.33.04,2.53-.01,5.07.07,7.6.09,2.92-.04,5.86.11,8.77.03,1.12.06,2.24.1,3.35.03.61.02,1.22.04,1.82,0,.29-.1.52-.22.58-.04.13-.11.23-.19.25-.25.02-.49.11-.73.17-.35.1-.7.2-1.05.2-.09,0-.17,0-.26-.02h0Z"/>
    </g>
  </g>
</svg>