<?xml version="1.0" encoding="UTF-8"?>
<svg id="Layer_2" data-name="Layer 2" xmlns="http://www.w3.org/2000/svg" viewBox="0 0 48 33.07">
  <defs>
    <style>
      .cls-1 {
        fill: #bdbdbd;
      }
    </style>
  </defs>
  <g id="Layer_1-2" data-name="Layer 1">
    <path class="cls-1" d="M47.94,27.97c-.59-3.66-3.68-3.47-3.68-3.47,0,0-6.15-.39-6.24-1.9-.13-2.29,9.98-.26,9.59-5.89-.41-6-9.66-4.05-9.53-6.02,0,0-.85-1.31,5.91-2.22,0,0,3.06,0,3.79-2.82.19-.73.16-1.5-.05-2.22-.32-1.1-1.16-2.68-3.28-3.13-3.35-.72-11.43-.06-14.39,1.24-1.8.79-4.42,2.4-6.07,6.14-1.65-3.74-4.28-5.35-6.07-6.14C14.97.23,6.89-.42,3.54.3,1.42.75.59,2.33.27,3.43c-.21.72-.24,1.49-.05,2.22.73,2.82,3.79,2.82,3.79,2.82,6.77.92,5.91,2.22,5.91,2.22.13,1.96-9.11.01-9.53,6.02C0,22.34,10.11,20.31,9.98,22.6c-.09,1.5-6.24,1.9-6.24,1.9,0,0-3.09-.2-3.68,3.47-.59,3.66,3.42,4.51,3.42,4.51,7.16,1.64,13.44-.66,13.44-.66,0,0,4.62-1.55,7.09-7.22,2.47,5.67,7.09,7.22,7.09,7.22,0,0,6.28,2.29,13.44.66,0,0,4.01-.85,3.42-4.51h0Z"/>
  </g>
</svg>