<?xml version="1.0" encoding="UTF-8"?>
<svg id="Layer_2" data-name="Layer 2" xmlns="http://www.w3.org/2000/svg" viewBox="0 0 48 29.28">
  <defs>
    <style>
      .cls-1 {
        fill: #bdbdbd;
      }
    </style>
  </defs>
  <g id="Layer_1-2" data-name="Layer 1">
    <g id="uuid-a733bdb8-3277-4f84-bdde-f66748cbaa8b" data-name="Layer 1-2">
      <path class="cls-1" d="M47.64,25.43c.4.64-9.25-4.5-10.08-5.06-.43-.28.76,9.72.06,8.85-1.93-2.4-1.92-2.08-5.6-6.43-.09-.11-.15-.25-.27-.17-1.16.82-2.93,2.79-4.23,4.22-2.24,2.47-1.35,1.97-1.56-4.08-.08-2.36-.02-2.35-.1-2.29-.96.66-13.83,7.29-22.48-2.14-.66-.72-2.65-3.53-2.35-3.48,2.97.41,3.55.55,3.33.33C3.05,13.92-.13,8.73,0,8.19c.06-.24.76.77,2.53,1.84.14.09,4.45,2.71,4.31,2.43C3.56,5.79,3.13,3.7,3.55,4.14c2.35,2.46,4.4,4.94,7.33,6.55.22.12-.48-.87-1.89-4.1-.81-1.87-1.27-5.42-1.47-6.5-.09-.46.84,1.03,1.27,1.89,3.4,6.88,2.77,5.53,6.4,9.7,4.96,5.69,10.06,3.63,9.97,3.5,0,0-2.04-3.95-2.02-4.07.04-.2.08-.06,2.54.95,0,0,3.93,1.48,3.94,1.2.02-.69.18-1.44.26-2.14.33-2.86.38-5.93.66-5.44l4.04,7.34c.12.22,4.05-6.11,3.99-5.1-.06.88.18,3.8.27,4.92.02.21,6.8-.19,9.14-.02.44.03-5.16,4.89-5.12,4.95.41.58,4.78,7.66,4.78,7.67h0Z"/>
    </g>
  </g>
</svg>