<?xml version="1.0" encoding="UTF-8"?>
<svg id="Layer_2" data-name="Layer 2" xmlns="http://www.w3.org/2000/svg" viewBox="0 0 48 29.69">
  <defs>
    <style>
      .cls-1 {
        fill: #bdbdbd;
      }
    </style>
  </defs>
  <g id="Layer_1-2" data-name="Layer 1">
    <g id="uuid-ca90d757-e392-4098-83fa-37cd94a59480" data-name="Layer 1-2">
      <path class="cls-1" d="M39.85,27.39c.38-1.57.19-3.2-.43-4.69.07-.05.13-.1.2-.15.57-.43,1.18-.79,1.76-1.2,2.13-1.49,4.2-3.07,6.36-4.51.3-.3.29-.73.22-1.12-.11-.82,0-1.82-.62-2.45-.54-.37-1.14.17-1.7.23-1.38.31-2.76.62-4.13.98,0,0,0,0,0,0-1.3.32-2.58.69-3.83,1.18-.43-.37-1.18-.64-1.52-.83.38-1.36,1.22-2.48,1.91-3.69.53-1.16,1.33-2.19,1.76-3.39.28-1.15,1.67-2.61.48-3.63-.51-.5-1.17-.83-1.86-1.02-.52-.23-.99.03-1.26.49-.91,1.15-1.83,2.29-2.63,3.51-.98,1.56-2.01,3.14-3,4.71-.15-.04-.3-.08-.43-.14-.69-.24-1.36-.56-2.08-.71-.04-2.48.52-4.91.71-7.37.3-3.28,1.49-3.93-2.96-3.45-.51.05-.59.53-.64.95-.35,1.09-.75,2.17-1.08,3.27-.4,1.26-.58,2.57-.89,3.86-.01.26-.12.61-.2.97-.65.09-1.28.32-1.94.29-.89-1.89-1.99-3.68-2.83-5.6-.43-.82-.81-1.68-1.22-2.51-.26-.55-.56-1.24-1.29-1.14-.8-.08-1.34.53-1.91.98-.74.34-.71.85-.56,1.56.76,2.54,1.36,5.18,2.55,7.56,0,0,0,.01,0,.02-.04.04-.08.08-.12.11-.6.51-1.13,1.08-1.67,1.65-1.1-.58-2.1-1.33-3.14-2-.87-.84-1.88-1.47-2.91-2.09-.7-.52-1.37-1.38-2.29-1.43-.66.21-.85,1.04-1.32,1.5-.28.5-1.45,1.98-1.04,2.45,1.27,1.25,2.5,2.55,3.98,3.56.79.66,1.5,1.41,2.36,1.99-.08.31-.13.62-.22.92-1.56-.23-3.01.66-4.53.87-1.12.11-2.24.17-3.36.23-.74.11-1.87-.16-2.28.62-.19.65-.17,1.35-.23,2.02-.08.5-.02,1.13.59,1.25.93.28,1.82.69,2.75.96,1.69.43,3.45.58,5.06,1.24-.02.25,0,.52,0,.74,0,.67.04,1.34.16,2,.18.81.09,2.53,1.22,2.54,2.25.1,4.5.15,6.75.19,2.47-.02,4.93-.13,7.4.01,1.89-.07,3.77-.34,5.66-.47,1.45-.28,2.91-.15,4.37-.24,1.3-.05,2.6-.25,3.88-.46.98-.12,1.89.2,1.98-1.13h0Z"/>
    </g>
  </g>
</svg>