<?xml version="1.0" encoding="UTF-8"?>
<svg id="Layer_2" data-name="Layer 2" xmlns="http://www.w3.org/2000/svg" viewBox="0 0 48 36.02">
  <defs>
    <style>
      .cls-1 {
        fill: #bdbdbd;
      }
    </style>
  </defs>
  <g id="Layer_1-2" data-name="Layer 1">
    <g id="_ÎÓÈ_1" data-name=" ÎÓÈ 1">
      <path class="cls-1" d="M6.94,32.16c-.49-.36-.99-.77-1.29-1.31-.23-.5.31-.8.66-1.06,1.43-.87,2.84-1.78,4.09-2.91-.34-.11-.67-.23-1-.34-2.59-.88-5.14-2.02-7.13-3.95-.92-.79-1.73-1.76-2.05-2.99-.63-1.73.19-3.72,1.42-5.06,1.28-1.43,2.9-1.84,4.4-.76,1.48,1.08,2.71,2.5,3.81,3.98.67.83,1.51,1.48,2.29,2.2.67.64,1.47,1.09,2.27,1.55.29.17.58.33.87.51.7-.71,1.4-1.42,2.08-2.14.77-.82,1.51-1.66,2.28-2.47-1.6-1.75-3.28-3.44-4.61-5.43-.66-1.02-1.27-2.11-1.68-3.26-.37-.91-.84-1.79-.95-2.8-.4-2.76,1.97-6.59,4.95-5.81,1.9.42,2.81,2.33,3.67,3.93.56,1.18.99,2.42,1.55,3.6.61,1.16,1,2.43,1.11,3.78.07.58.08,1.17.07,1.76.58-.67,1.13-1.36,1.7-2.05,1.32-1.49,2.77-2.84,4.19-4.22.83-.81,1.72-1.55,2.58-2.32.93-.86,2.03-1.53,3.26-1.67,1.51-.33,2.6,1.34,3.02,2.6.38,1.43-.39,3.05-1.17,4.29-.88,1.36-2.09,2.45-3.2,3.61-.68.77-1.37,1.53-2.07,2.29,2.61,0,5.24-.38,7.84-.14,1.58.24,3.21,0,4.78.26,1.88.3,3.8,1.21,3.19,3.59-.33,1.21-1.34,2.07-2.3,2.78-1.66,1.39-3.6,2.22-5.57,2.94-4.23,1.36-9.42.19-13.45-1.01-.66-.23-1.31-.5-1.92-.84-1.24.98-2.54,1.89-3.76,2.9-.01.01-.03.03-.04.04,2.26.36,4.58.41,6.84.78,1.02.15,2.02.37,3.04.53,1.94.26,3.93.35,5.75,1.06,3.05,1.33,2.33,3.77-.55,5.1-2.11,1.06-4.43,1.25-6.67,1.67-1.43.19-2.85.5-4.29.63-2.73.17-5.41-.32-7.96-1.11-.51-.21-.91-.61-1.31-.98-.78-.74-1.64-1.38-2.48-2.05-.07.04-.14.08-.21.12-.78.51-1.45,1.18-2.24,1.66-.31.25-.68.35-1.02.26-.1-.03-.2-.08-.29-.14-.31-.12-.59-.28-.87-.44-.57-.35-1.1-.76-1.64-1.14h0Z"/>
    </g>
  </g>
</svg>