<?xml version="1.0" encoding="UTF-8"?>
<svg id="Layer_2" data-name="Layer 2" xmlns="http://www.w3.org/2000/svg" viewBox="0 0 45.89 48">
  <defs>
    <style>
      .cls-1 {
        fill: #bdbdbd;
        fill-rule: evenodd;
      }
    </style>
  </defs>
  <g id="Layer_1-2" data-name="Layer 1">
    <g id="uuid-3a3a48d9-507b-4dbf-b7a5-772b58ccafbf" data-name="Layer 1-2">
      <path class="cls-1" d="M9.73,47.16c11-4.5,17.07,4.76,20.28-1.77,2.72-5.52-8.86-6.91-3.22-11.76,2.9-2.49,5.13-1.06,7.39-.46,2.13.56,4.33.28,5.82-1.31,2.56-2.74,1.29-5.18-.75-7.21-1.52-1.51-3.69-2.54-3.88-4.71-.44-5.07,15.65-8.53,8.85-15.72-4.79-5.07-9.26,2.84-14.48,2.46C24.97,6.35,24.96.29,20.25,0c-6.47-.38-3.13,12.54-4.96,15.45-4.13,6.54-10.15-1.39-14.31,2.95-4.16,4.34,6.49,11.78,3.98,18.38-2.39,6.28-3.45,13.75,4.77,10.38h0Z"/>
    </g>
  </g>
</svg>