<?xml version="1.0" encoding="UTF-8"?>
<svg id="Layer_2" data-name="Layer 2" xmlns="http://www.w3.org/2000/svg" viewBox="0 0 48 32.62">
  <defs>
    <style>
      .cls-1 {
        fill: #bdbdbd;
        fill-rule: evenodd;
      }
    </style>
  </defs>
  <g id="Layer_1-2" data-name="Layer 1">
    <g id="uuid-15550c7d-00de-49a5-a985-cb1f5903e1ba" data-name="Layer 1-2">
      <path class="cls-1" d="M9.04,30.1C4.15,27.44.48,22.39.04,16.69c-.24-3.09.65-6.56,3.19-8.37,2.53-1.81,6.78-.81,7.32,2.22.29,1.61-.45,3.38.15,4.88.79,1.97,3.66,2.3,5.4,1.03,1.75-1.28,2.5-3.58,2.64-5.73.22-3.27-.49-7.08,1.84-9.4,1.96-1.96,5.39-1.63,7.31.23s2.52,4.83,2.21,7.57c-.2,1.76-.5,4.02,1.02,4.8,1.25.64,2.8-.37,3.57-1.61s1.09-2.72,1.92-3.92c2.2-3.16,7.4-2.79,9.66.18,2,2.62,2.32,6.49.7,9.34-3.02,5.31-8.77,9.28-9.34,9.66-1.17.77-2.39,1.46-3.64,2.07-2.52,1.2-5.18,2.06-7.9,2.53-2.55.45-5.15.56-7.7.31-1.22-.12-2.39-.11-3.6-.35-1.33-.27-2.64-.65-3.89-1.17-.63-.26-1.25-.56-1.85-.88h0Z"/>
    </g>
  </g>
</svg>