<?xml version="1.0" encoding="UTF-8"?>
<svg id="Layer_2" data-name="Layer 2" xmlns="http://www.w3.org/2000/svg" viewBox="0 0 48 35.53">
  <defs>
    <style>
      .cls-1 {
        fill: #bdbdbd;
      }
    </style>
  </defs>
  <g id="Layer_1-2" data-name="Layer 1">
    <g id="_ÎÓÈ_1" data-name=" ÎÓÈ 1">
      <path class="cls-1" d="M32.19,35.53c-1.05-.01-2.09-.23-3.13-.33-.18-.04-.46-.02-.76,0-.58.04-1.23.08-1.34-.29-.53-1.18-.94-2.41-1.38-3.62-.02-.06-.05-.12-.07-.17-.29,1.22-.57,2.44-.93,3.64-.1.46-.45.5-.84.51-.28.01-.56.02-.83.01-.99-.06-1.96-.27-2.93-.4-.64-.15-1.48.01-2-.46-.34-.66-.66-1.34-.89-2.05-.13-.43-.22-.88-.35-1.31-.03.1-.06.2-.08.29-.24.96-.61,1.87-.85,2.82-.04.24-.12.51-.4.53-.43.08-.86.1-1.29.13-.83.04-1.66.05-2.49,0-.94-.06-1.88-.2-2.82-.23-.43-.02-.86.03-1.29.04-.03.25-.38.36-.52.14-.43-.67-.65-1.46-.99-2.18-.34-.81-.72-1.61-1.05-2.43-.27-.7-.48-1.42-.73-2.13-.37-.91-.78-1.81-1.13-2.73-.44-1.23-1.06-2.39-1.51-3.62-.22-.61-.36-1.25-.55-1.87-.27-.86-.62-1.69-.95-2.53-.08-.11-.08-.23-.04-.32,0-.02,0-.04,0-.06.11-1.61.15-3.24.43-4.83.19-.96.31-1.95.53-2.89.54-2.14,1.09-4.28,1.68-6.41-.1-.3.17-.46.38-.39.16-.1.44-.09.6-.11.32-.03.64-.04.97-.07,1.01-.13,2.03-.2,3.05-.3.81-.1,1.63-.18,2.44-.32.35-.05.71-.15,1.06-.15.22,0,.34.11.38.25.1.07.17.2.13.33-.09.65.01,1.29.11,1.92.11.65.21,1.3.28,1.96.02-.12.04-.23.06-.34.11-.58.27-1.15.42-1.72.26-.95.59-1.88.99-2.77.1-.31,1.03-.28,1.33-.37,1.06-.2,2.14-.22,3.22-.24.41-.02.83-.03,1.24-.04.52-.05.66-.05.91.46.27.47.37,1,.54,1.51.28.69.38,1.44.67,2.13.18.39.42.76.59,1.15.03.06.05.12.08.18.05-1.1.36-2.15.61-3.22.08-.42.13-.85.22-1.27.07-.39.11-.84.6-.8,1.24-.08,2.49-.17,3.73-.23.21-.02.41-.06.6-.13.26-.11.66-.38.83,0,.08.26.07.54.17.79.1.28.18.53.25.82.23.91.45,1.83.75,2.71.13.35.23.71.32,1.06.02-.12.04-.23.06-.35.23-1.19.58-2.34.81-3.53.35-1.32-.16-1.46,1.33-1.42.87-.02,1.73.04,2.59.15.65.05,1.3.09,1.95.19,1.8.04,1.59.1,1.75,1.85.04.39.03.78.05,1.17.04.5.19.99.26,1.49.05.28.08.57.09.85.08-.23.16-.46.24-.69.33-1.1.71-2.17,1.31-3.15-.01-.36.33-.35.61-.34.05,0,.1,0,.15,0,.81-.02,1.61.07,2.41.2.66.09,1.32.15,1.99.19.11,0,.23.02.3.12.09.14.07.32.1.47,0,.06.01.12.02.18.17.96.26,1.94.32,2.92.08.66.21,1.31.29,1.96.18.94.23,1.9.34,2.86.27,1.7.46,3.46.58,5.17.07.57.16,1.14.2,1.71.07.67.19,1.38-.13,2.02-.61,1.34-1.08,2.74-1.66,4.1-.9,1.92-1.83,3.83-2.86,5.68-.19.45-.39.89-.59,1.33-.39.98-.81,1.97-1.28,2.91-.21.33-.26.84-.64,1.01-.57.22-1.18.33-1.8.29-1.06-.07-2.12-.01-3.18.02-.66-.02-.79-.21-.91-.85-.12-.49-.23-.97-.35-1.46-.17.77-.38,1.53-.59,2.29-.07.32-.33.51-.64.52-.32.06-.64.09-.96.09-.05,0-.1,0-.15,0h0Z"/>
    </g>
  </g>
</svg>