<?xml version="1.0" encoding="UTF-8"?>
<svg id="Layer_2" data-name="Layer 2" xmlns="http://www.w3.org/2000/svg" viewBox="0 0 48 13.39">
  <defs>
    <style>
      .cls-1 {
        fill: #bdbdbd;
        fill-rule: evenodd;
      }
    </style>
  </defs>
  <g id="Layer_1-2" data-name="Layer 1">
    <g id="uuid-d80a75fc-6829-40fb-b4b7-b7a60672a18f" data-name="Layer 1-2">
      <path class="cls-1" d="M.14,12.22c.36.85,31.71,1.34,33.14,1.11h0c2.49.14,8.54.02,14.72-.18l-.26-4.72c-.11-2.01-.81-3.98-2.14-5.46-1.3-1.45-3.35-2.68-6.49-2.5-3.37.2-5.66,3.66-6.83,6.61-.21.53-1.19.51-1.35-.02C29.93,3.88,28.44.12,25.22,0c-5.14-.18-7.39,3.75-8.33,6.58-.18.53-1.16.53-1.35,0C14.59,3.82,12.45,0,7.86,0-.56,0-.22,11.37.14,12.22Z"/>
    </g>
  </g>
</svg>