<?xml version="1.0" encoding="UTF-8"?>
<svg id="Layer_2" data-name="Layer 2" xmlns="http://www.w3.org/2000/svg" viewBox="0 0 48 29.83">
  <defs>
    <style>
      .cls-1 {
        fill: #bdbdbd;
      }
    </style>
  </defs>
  <g id="Layer_1-2" data-name="Layer 1">
    <g id="_ÎÓÈ_1" data-name=" ÎÓÈ 1">
      <path class="cls-1" d="M21.38.31c.46,0,.91-.02,1.37-.03.54,0,1.09.03,1.63.06.32.02.64.04.96.05.1,0,.21.01.34.01.65.02,1.56.04,1.31.89.03,1.21.34,2.4.42,3.61.06,1.8.12,3.61.13,5.42.66-1.61,1.38-3.19,2.23-4.7.68-1.22,1.61-2.32,2.69-3.18,1.44-.86,2.93-1.75,4.56-2.12,1.38-.27,2.79-.28,4.19-.28.58,0,1.15,0,1.73-.02.27-.01.55-.01.82,0,1.29.06,2.54.38,3.73.88.18.01.35.11.45.28.18.66.01,1.42.05,2.11-.05,1.23-.02,2.45-.04,3.68-.18,4.29-.21,8.59-.6,12.87-.16,2.79-.04,5.6-.48,8.37.1.27-.03.57-.11.84-.14.37-.58.44-.86.27-.21.04-.43.06-.64.08-.11,0-.23.02-.34.03-6.92.2-13.87.62-20.79.3-5.94-.22-11.88-.39-17.82-.54-1.78-.07-3.56-.11-5.33-.21-.21,0-.36-.08-.45-.22-.07-.04-.15-.09-.22-.17-.24-.31-.46-.8-.07-1.11.23-2.2.3-4.43.83-6.59C2.27,13.58,5.32,6.98,11.54,2.78c1.8-1.12,3.87-1.65,5.88-2.19.32-.06.65-.11.97-.14.99-.11,1.99-.13,2.99-.14h0Z"/>
    </g>
  </g>
</svg>