<?xml version="1.0" encoding="UTF-8"?>
<svg id="Layer_2" data-name="Layer 2" xmlns="http://www.w3.org/2000/svg" viewBox="0 0 48 38.89">
  <defs>
    <style>
      .cls-1 {
        fill: #bdbdbd;
      }
    </style>
  </defs>
  <g id="Layer_1-2" data-name="Layer 1">
    <g id="uuid-d81290ac-8bde-4542-a85a-9cbcfb5be573" data-name="Layer 1-2">
      <path class="cls-1" d="M48,15.39c-.1-.12-.2-.25-.29-.37-1.55-2-2.98-4.1-4.36-6.22-.02-.03-.03-.05-.05-.08-1.31-1.68-2.65-3.36-3.98-5.02-.06,0-.12.02-.18.02-2.36.34-4.55,1.6-6.2,3.36-.31-2.12-1.13-3.96-2.46-5.36-.7-.74-1.55-1.33-2.48-1.72-1.66.51-3.35.92-5.04,1.3-1.1.25-2.21.49-3.32.73-1.45,1.15-2.59,2.63-3.03,4.44-1.53-2.66-4.11-3.74-6.77-3.73-1.39,1.24-2.8,2.47-4.16,3.74-1.39,1.46-2.74,2.96-4.06,4.48.01.78.11,1.57.29,2.33.53,2.27,1.69,4.34,2.97,6.27-2.29.73-3.98,2.63-4.87,4.87.11.41.22.82.32,1.24.06.08.11.16.13.26.22.93.45,1.87.7,2.79.63,2.38,1.32,4.74,1.95,7.11,1.48,1.02,3.29,1.53,5.05,1.29,2.99-.4,5.34-2.75,7.34-5.07.12,2.82,1.65,5.49,3.91,6.84.03,0,.05-.01.08-.02,2.34-.46,4.71-.64,7.08-.8.65-.1,1.31-.21,1.96-.29,1.85-1.7,2.94-4.25,2.95-6.81,1.53,2.87,4.68,4.63,7.84,4.66.32-.38.66-.75,1-1.11.64-.66,1.3-1.29,2-1.89.31-.36.62-.73.93-1.09,1.16-1.35,2.32-2.69,3.52-4,.25-.27.5-.55.75-.82-.05-.63-.17-1.26-.36-1.87-.63-2.1-1.96-3.94-3.62-5.32,1.87-.62,3.54-2.18,4.48-4.14h0Z"/>
    </g>
  </g>
</svg>