<?xml version="1.0" encoding="UTF-8"?>
<svg id="Layer_2" data-name="Layer 2" xmlns="http://www.w3.org/2000/svg" viewBox="0 0 37.86 48">
  <defs>
    <style>
      .cls-1 {
        fill: #bdbdbd;
      }
    </style>
  </defs>
  <g id="Layer_1-2" data-name="Layer 1">
    <g id="uuid-e3336049-cddb-4d4a-a5cd-0ad5afc709bf" data-name="Layer 1-2">
      <path class="cls-1" d="M9.04,48c7.19-.77,14.41-1.25,21.17-.94v-10.55c2.87-4.86,5.37-9.81,7.65-14.83-.92-1.86-2.35-3.38-4.11-4.53-1.36.71-2.8,1.94-3.75,3.41-.96-5-2-10.12-3.03-15.24-.89-1.11-2.18-1.89-3.59-2.43-.85.41-1.79,1.04-2.6,1.76.1,2.49.14,5.05.19,7.6-.96-3.09-2.44-6.53-4.31-9.8-.95-1.02-2.3-1.81-3.74-2.45-.9,1.2-1.57,2.25-2.13,3.35.48,3.27,1.08,6.39,1.69,9.51-1.32-3.04-3.1-6-5.16-8.81-1.45.24-2.56,1.25-3.26,2.45,1.18,2.93,2.23,5.92,3.27,8.92-1.49-1.49-3.7-3.18-6.16-4.54-.47.91-.9,2.16-1.16,3.43,2.51,5.7,5.21,11.43,8.27,17.02.7,5.55.73,10.92.77,16.68h0Z"/>
    </g>
  </g>
</svg>