<?xml version="1.0" encoding="UTF-8"?>
<svg id="Layer_2" data-name="Layer 2" xmlns="http://www.w3.org/2000/svg" viewBox="0 0 48 43.41">
  <defs>
    <style>
      .cls-1 {
        fill: #bdbdbd;
        fill-rule: evenodd;
      }
    </style>
  </defs>
  <g id="Layer_1-2" data-name="Layer 1">
    <g id="uuid-5b9a6996-d85f-4cfe-8fef-f3cd99b834f5" data-name="Layer 1-2">
      <path class="cls-1" d="M9.27,40.83c-.89.74-1.76,1.54-2.78,2.1-1.47.81-3.88.71-4.13-1.23-.15-1.2.6-2.44,1.07-3.55.51-1.22,1.02-2.44,1.48-3.68.18-.49.22-1.03.11-1.52-.11-.5-.18-1.01-.28-1.51-.42-2.06-1.38-3.91-2.22-5.79-.96-2.15-1.68-4.35-2.19-6.22-.93-3.38.15-7.19,2.95-9.57.3-.26.6-.47.87-.62,1.89-1.05,4.61-.38,5.22,1.61.62,2-1.61,5.97-.84,10.31.48,2.71,3.85,3.8,5.77,1.68,1.43-1.58,1.63-3.91,1.27-5.93-.36-2.01-1.2-3.89-1.56-5.91s-.15-4.34,1.28-5.92c1.22-1.34,3.24-1.88,4.86-1.29,1.62.59,2.72,2.27,2.65,4.03-.04,1.14-.53,2.25-.69,3.39s.12,2.47,1.13,2.93c1.2.54,2.65-.46,3.44-1.61,1.52-2.21,1.78-4.98,2.64-7.49.94-2.73,3.29-5.6,6.19-4.96,1.73.38,2.89,1.97,3.06,3.76.29,3.01-1.67,5.65-3.91,7.6-.9.79-1.94,1.62-2.12,2.78-.23,1.46,1.16,2.69,2.61,2.76s2.86-.69,4.08-1.57,2.36-1.91,3.72-2.53,3.06-.71,4.11.24c.89.8,1.12,2.18.79,3.4s-1.12,2.28-2.01,3.2c-4.74,4.87-11.93,5.85-18.48,6.69-1.08.14-2.18.29-3.16.82s-1.79,1.53-1.79,2.61c0,1.51,1.59,2.49,3.09,2.55,1.5.06,2.99-.51,4.49-.75,1.74-.27,3.78.03,4.4,1.82.51,1.49-.29,3.15-1.6,4.15-2.16,1.66-4.93,1.69-7.43,1.25-2.21-.39-4.35-1.1-6.61-1.23-3.33-.19-6.81.98-9.49,3.18h0Z"/>
    </g>
  </g>
</svg>