<?xml version="1.0" encoding="UTF-8"?>
<svg id="Layer_2" data-name="Layer 2" xmlns="http://www.w3.org/2000/svg" viewBox="0 0 48 39.92">
  <defs>
    <style>
      .cls-1 {
        fill: #bdbdbd;
        fill-rule: evenodd;
      }
    </style>
  </defs>
  <g id="Layer_1-2" data-name="Layer 1">
    <g id="uuid-04221d70-2a62-46b7-a5c2-145413f6535a" data-name="Layer 1-2">
      <path class="cls-1" d="M23.7,4.58c-.38,1.43-1.91,5.08-2.38,6.51-.84,2.54-2.74.8-3.91-.64-1.27-1.56-2.71-2.99-4.38-4.12-2.57-1.74-6.21-3.46-9.52-2.35C1.11,4.78-.5,6.92.14,9.39c1.87,7.14,8.7,7.3,11.18,8.72,1.55.89,5.17,2.55,2.16,4.23-1.54.85-5.37,3.75-6.8,4.82-1.91,1.42-3.14,4.12-1.7,6.3,1.34,2.03,4.1,2.52,6.28,1.72,1.29-.48,3.61-1.51,5.4-4.86.44-.82,2.1-2.8,2.7-3.08,1.45-.69,1.85.75,2.08,1.93.55,2.87.18,6.11,1.93,8.62,1.5,2.17,5.06,2.98,7.1,1.02,1.77-1.7.94-4.7.21-6.68-.42-1.15-1.02-2.16-1.74-3.15-.35-.48-.71-.96-1.03-1.46-.35-.54-1.4-1.77-1.4-2.45,0-1.98,3.41-.23,4.05.04,1.01.43,2.07.75,3.02,1.3,4.94,2.88,7.06,2.13,8.51,2.15,2.55.05,5.08-1.12,5.77-3.77.9-3.5-2.62-5.17-5.47-5.67-2.14-.37-8.59-1.57-10.74-1.87-1.18-.17-2.32-.45-3.4-.95-1.35-.63-1.54-1.22-.96-2.54,1.37-2.65,6.09-6.65,6.01-9.94-.06-2.43-2.09-4.02-4.45-3.81-2.49.22-4.52,2.2-5.15,4.57h0Z"/>
    </g>
  </g>
</svg>