<?xml version="1.0" encoding="UTF-8"?>
<svg id="Layer_2" data-name="Layer 2" xmlns="http://www.w3.org/2000/svg" viewBox="0 0 34.46 48">
  <defs>
    <style>
      .cls-1 {
        fill: #bdbdbd;
      }
    </style>
  </defs>
  <g id="Layer_1-2" data-name="Layer 1">
    <g id="_ÎÓÈ_1" data-name=" ÎÓÈ 1">
      <path class="cls-1" d="M11.98,47.87c-.96-.03-1.9-.19-2.82-.48-.9-.23-1.84-.34-2.69-.75-.96-.48-1.98-.87-2.84-1.55-.73-.65-1.56-1.15-2.24-1.86-.54-.62-.78-1.47-1.03-2.27-.61-1.95-.45-4.12.45-5.93.98-2.19,3.22-3.07,5.18-3.79.74-.29,1.53-.33,2.27-.61.12-.03.26-.08.42-.14-.62-.21-1.19-.54-1.8-.98-.7-.54-1.48-1.04-1.91-1.89-1-1.88-1.45-3.65-1.33-5.83.05-1.11.15-2.25.52-3.29.49-1.3,1.12-2.55,2.03-3.54.44-.48.9-.94,1.41-1.34.66-.51,1.43-.82,2.17-1.18.15-.06.3-.14.46-.21-.01-.12-.02-.24-.05-.34-.11-.69-.24-1.37-.42-2.04-.35-1.16-.46-2.37-.69-3.56-.17-.73-.3-1.47-.4-2.22-.08-.88-.43-1.68-.53-2.56-.02-.35-.28-.86.1-1.07.54-.19,1.12-.02,1.67-.01.58.03,1.16.03,1.73.02,1.15-.05,2.3-.11,3.46,0,1.73-.02,3.47-.02,5.2-.14,1.95-.11,3.9-.27,5.85-.21.7-.02,1.4-.07,2.1-.09.57.11.17.77.15,1.17-.34,2.19-.91,4.32-1.24,6.52-.13.94-.22,1.9-.32,2.84-.04.2-.03.48-.06.73.22.09.43.2.61.33,0,0-.02-.01-.02-.02,0,0,0,0-.01,0,.03.02.07.05.09.06.57.4,1.18.72,1.75,1.1.85.62,1.68,1.34,2.28,2.25,0,0,0,0,0,0,.05.08.1.15.15.23.46.66.8,1.4,1.18,2.12.8,1.69,1.38,3.6,1.2,5.54-.07,1.04-.23,2.15-.79,3.02-.89,1.26-2.02,2.35-3.35,2.98-.62.37-1.27.7-1.94.92.15.05.3.11.45.18.87.35,1.68.83,2.48,1.33.6.41,1.28.72,1.79,1.27.74.94,1.27,2.06,1.52,3.27.3.83.36,1.7.27,2.58-.06,1.2-.16,2.43-.63,3.53-.83,1.67-2.18,3.11-3.81,3.77-1.02.41-2.08.71-3.14.97-.97.17-1.96.21-2.94.37-.91.11-1.78.39-2.68.55-1.07.17-2.15.28-3.23.34-.14,0-.29.01-.43.02-.89.03-1.78.05-2.68.05-.97,0-1.93-.03-2.9-.13h0Z"/>
    </g>
  </g>
</svg>