<?xml version="1.0" encoding="UTF-8"?>
<svg id="Layer_2" data-name="Layer 2" xmlns="http://www.w3.org/2000/svg" viewBox="0 0 48 28.3">
  <g id="Layer_1-2" data-name="Layer 1">
    <g id="_ÎÓÈ_1" data-name=" ÎÓÈ 1">
      <g>
        <path d="M4.92,27.93c-.26-2.47.22-4.99.96-7.34-.03.09-.06.18-.08.26,1.5-4.71,4.17-9.3,8.13-12.34,1.18-.91,2.46-1.68,3.81-2.32-.08.04-.17.08-.25.12,2.52-1.18,5.26-1.87,8.04-1.97.82-.03,1.64,0,2.46.06l-.39-.03c1.49.14,2.96.44,4.38.94-.16-.06-.33-.12-.49-.18.6.22,1.2.47,1.77.75.09.05.38.2-.05-.03-.44-.23-.15-.08-.06-.03.13.07.25.14.38.22.13.07.25.15.37.23.07.05.15.1.22.14-.5-.34-.64-.43-.4-.27.02.02.05.03.07.05.2.14.4.29.6.44.09.07.18.14.27.21-.94-.74-.68-.55-.48-.39.07.06.14.12.21.18.18.15.36.31.53.46.09.08.18.16.26.24.31.29-.7-.67-.39-.37.05.05.1.1.16.15.39.38.76.78,1.12,1.18-.83-.92-.16-.18.05.07.18.21.36.43.53.65.18.22.35.45.52.68.08.1.16.21.23.31.03.04.06.08.09.13.03.04.06.08.09.13-.3-.42-.38-.53-.24-.33.32.45.63.91.93,1.38.7,1.1,1.35,2.24,1.95,3.4-.08-.16-.16-.31-.24-.47,1.4,2.74,2.56,5.64,3.26,8.65.11.26.25.51.43.73.2.3.43.57.68.83.53.56,1.19,1.12,1.87,1.5.19.1.38.2.57.3.28.14.57.21.88.21.08-.04.17-.08.25-.12.11-.21.11-.42,0-.64-.48-2.06-1.18-4.06-2.01-6-.96-2.24-2.1-4.42-3.41-6.48-1.41-2.22-3.03-4.33-4.88-6.2-2.2-2.22-4.72-4.2-7.61-5.44-4.79-2.05-10.3-2.09-15.16-.26-2.28.86-4.43,2.08-6.29,3.65-1.7,1.43-3.11,3.15-4.29,5.03-1.22,1.94-2.22,4.03-2.96,6.2C.56,18.37.02,20.63,0,22.91c0,.48.02.97.07,1.45.05.51.4.99.7,1.37.48.61,1.11,1.2,1.74,1.65.49.35,1.08.8,1.69.89.27.04.77.09.72-.35h0Z"/>
        <path d="M11.92,25.01c-.09-1-.05-2,.07-2.99-.02.17-.04.34-.06.51.26-2.07.86-4.1,1.71-6-.08.18-.16.36-.24.54.53-1.18,1.17-2.3,1.93-3.34-.14.18-.27.37-.41.55.42-.57.89-1.1,1.4-1.59l-.55.53c.34-.32.7-.62,1.08-.88-.23.16-.45.32-.68.47.63-.43,1.32-.76,2-1.1-.25.12-.5.25-.74.37.76-.38,1.53-.72,2.34-.98-.24.08-.48.15-.73.23.5-.16,1.02-.28,1.54-.35l-.68.09c1.26-.17,2.54-.14,3.81-.04-.2-.02-.4-.03-.59-.05,1.68.14,3.41.38,4.98.99-.16-.06-.32-.13-.48-.19,1.38.56,2.61,1.42,3.66,2.48-.11-.11-.22-.22-.32-.33,1.72,1.76,2.85,3.96,3.56,6.3-.05-.15-.09-.3-.13-.44.59,1.96.89,3.98,1.1,6.02.05.53.45.84.93.96.61.15,1.44-.03,2-.28.73-.31,1.46-.75,1.98-1.37.36-.44.78-1,.72-1.6-.4-3.95-1.21-8.13-3.62-11.38-1.09-1.48-2.48-2.81-4.1-3.69-1.54-.84-3.25-1.27-4.98-1.51-1.82-.25-3.7-.4-5.53-.22-1.31.13-2.53.42-3.77.86-1.16.42-2.26,1-3.35,1.56-1.68.86-3.16,2.02-4.4,3.45-1.1,1.28-2.04,2.72-2.76,4.24-1.41,2.96-2.38,6.23-2.33,9.53,0,.31.02.62.05.93.05.53.45.85.93.97.61.15,1.44-.03,2-.28.73-.31,1.46-.75,1.98-1.37.36-.44.77-.99.72-1.6h0Z"/>
        <path d="M19.07,27.2c.15-2.41.24-5.13,1.8-7.12.46-.58,1.03-1.05,1.67-1.42l-.15.08c.87-.48,1.81-.79,2.77-1.01.95-.22,1.93-.42,2.9-.44-.11,0-.22,0-.33,0,.18,0,.35,0,.53.02.15.01.47.08-.14-.03.39.07-.66-.17-.28-.07-.98-.26-1.99-.6-2.87-1.1.28.15-.41-.28-.13-.08.14.1.27.2.41.31-.08-.07-.17-.14-.26-.21.72.63,1.31,1.42,1.83,2.22.51.8.93,1.65,1.27,2.53-.02-.05-.04-.11-.06-.16.54,1.41.88,2.88,1.09,4.36.04.29.55.53.74.63.63.35,1.34.64,2.02.88.69.24,1.4.49,2.12.62.1.02,1,.18.97-.01-.3-2.04-.83-4.06-1.77-5.91-.47-.92-1.04-1.78-1.7-2.57-1.41-1.66-3.48-2.49-5.52-3.12-1.01-.31-2.06-.59-3.13-.59-.62,0-1.23.06-1.85.16-1.08.19-2.16.41-3.18.82-.9.36-1.77.85-2.45,1.56-.56.58-.97,1.29-1.27,2.04-.68,1.74-.76,3.65-.88,5.49-.02.26.63.57.74.63.63.35,1.34.64,2.02.88.22.08,3.06,1.01,3.09.6h0Z"/>
      </g>
    </g>
  </g>
</svg>