<?xml version="1.0" encoding="UTF-8"?>
<svg id="Layer_2" data-name="Layer 2" xmlns="http://www.w3.org/2000/svg" viewBox="0 0 48 12.67">
  <g id="Layer_1-2" data-name="Layer 1">
    <g id="_ÎÓÈ_1" data-name=" ÎÓÈ 1">
      <g>
        <path d="M2.64,10.21c.1,0,.25-.03.34-.09.06-.05.08-.09-.02-.09s-.25.03-.34.09c-.06.05-.08.09.02.09h0Z"/>
        <path d="M1.87,8.31c-.63.92-.76,2.17-.31,3.19.07.15.37.15.49.15.29,0,.57-.05.85-.12.3-.07.61-.16.9-.29.22-.1.44-.21.6-.4.97-1.2,1.34-2.87.95-4.37-.04-.15-.4-.15-.49-.15-.29,0-.57.05-.85.12-.3.07-.61.16-.9.29-.09.05-.18.09-.27.14-.13.06-.24.15-.32.26-.39,1.22-.55,2.51-.46,3.8.01.15.44.15.49.15.29,0,.57-.05.85-.12.3-.07.61-.16.9-.29.19-.09.5-.2.6-.4.83-1.68,1.37-3.49,1.62-5.34-.05-.09-.14-.14-.25-.14-.99-.17-2.07.05-2.99.4-.75.29-1.47.66-2.03,1.26-.41.44-.75.93-.94,1.51C.06,8.65-.02,9.37,0,10.09c.02.81.16,1.62.3,2.42.04.21.51.15.64.14.43-.03.85-.13,1.26-.27,1.4-.47,2.65-1.26,3.58-2.42.74-.93,1.21-2.07,1.34-3.26.08-.66.03-1.32-.13-1.96-.03-.14-.26-.14-.37-.15-.26-.02-.52.02-.78.06-2.11.37-4.19,1.47-5.18,3.45-.37.73-.58,1.57-.57,2.4,0,.19.02.39.05.58.03.19.05.46.14.62.12.22.7.2.89.19.61-.02,1.21-.16,1.78-.36.66-.24,1.37-.6,1.74-1.23.23-.39.31-.89.12-1.31-.07-.16-.37-.15-.49-.15-.34,0-.71.07-1.04.16-.33.09-.68.2-.98.38-.09.06-.41.23-.35.38.1.24.13.48.08.73,0-.04.02-.08.02-.11-.03.16-.09.3-.17.44-.04.07-.08.13-.13.19-.01.02-.1.13-.04.05.06-.08-.04.04-.05.04-.04.04-.24.18-.1.09.16-.11-.03.02-.03.01,0-.02.39-.17.42-.18.22-.08.46-.13.69-.17.08-.02.15-.02.23-.02.12,0,.14,0,.05,0,.03,0,.21.03.09,0-.05-.01-.1-.02-.15-.03.08.05.16.09.25.14-.23-.73-.24-1.51-.08-2.26,0,.04-.02.08-.02.11.2-.92.65-1.74,1.27-2.44-.11.12.01-.01.03-.03.04-.04.08-.08.12-.11.09-.09.18-.17.28-.25.08-.07.17-.13.25-.2.03-.02.06-.04.09-.06-.12.08-.15.1-.09.06.05-.03.11-.07.16-.1.1-.06.44-.21.06-.04.13-.05.56-.2.06-.04.05-.02.1-.04.15-.05.23-.08-.4.11-.17.05.05-.01.1-.03.16-.04-.3.07-.37.08-.22.05.04,0,.07-.01.11-.02-.38-.03-.76-.05-1.14-.08.21.82.22,1.68.04,2.51,0-.04.02-.08.02-.11-.21.98-.65,1.89-1.28,2.67-.03.04-.07.09-.11.13-.02.02-.18.2-.07.08-.08.08-.15.16-.24.24-.19.18-.39.34-.6.49-.04.03-.09.06-.14.1.2-.17.08-.05.02-.01-.11.07-.22.13-.34.19-.03.02-.07.03-.1.05.18-.09.23-.12.15-.08-.06.03-.12.05-.18.08-.1.04-.31.1.12-.05-.07.02-.14.05-.21.08.63-.04,1.27-.08,1.9-.12-.22-1.29-.44-2.62-.17-3.93,0,.04-.02.08-.02.11.09-.39.21-.77.41-1.13.09-.16.19-.31.3-.46.05-.07.11-.14.17-.21.12-.15-.05.05.02-.03.04-.04.07-.07.11-.11.07-.06.13-.12.2-.18.04-.03.21-.13.21-.16,0,.02-.18.11-.05.04.04-.03.08-.05.13-.07.08-.04.22-.08-.09.04.04-.01.07-.03.11-.05-.37.18-.25.1-.14.06.14-.05-.42.12-.18.06,0,0-.41.08-.21.05-.04,0-.37.06-.15.02.13-.02-.27,0-.13,0,.02,0,.13.01.14,0-.01.02-.21-.02-.07,0,.06,0,.12.02.18.03-.08-.05-.16-.09-.25-.14-.06.44-.14.88-.23,1.32,0-.04.02-.08.02-.11-.3,1.36-.75,2.67-1.37,3.92.94-.22,1.88-.43,2.83-.65-.07-.91,0-1.83.18-2.73,0,.04-.02.08-.02.11.07-.32.15-.64.26-.96-.94.22-1.88.43-2.83.65.19.73.2,1.49.04,2.24,0-.04.02-.08.02-.11-.17.74-.49,1.43-.97,2.02.94-.22,1.88-.43,2.83-.65-.28-.63-.34-1.32-.19-1.98,0,.04-.02.08-.02.11.09-.39.25-.76.48-1.1.26-.39-1.03-.21-1.12-.19-.37.08-.75.17-1.09.33-.21.1-.46.2-.6.4h0Z"/>
        <path d="M10.09,11.57c-.28,0-.55-.08-.77-.27l-.24.12-.1-.66s0,0,0-.01c-.04-.15-.06-.3-.07-.42-.06-.79.11-1.58.44-2.3.27-.63.67-1.2,1.18-1.67l.03.03c.29-.25.6-.47.94-.65.64-.33,1.28-.23,1.56.24.14.23.14.48.12.67.22.34.3.76.25,1.12-.06.53-.33,1-.55,1.37-.44.76-.99,1.7-1.94,2.21-.26.14-.56.23-.86.23h0ZM9.94,9.54c-.01.1-.02.21-.03.31.12-.08.24-.17.35-.26l-.32-.05h0ZM12.07,7.03c-.29.02-.65.35-.87.71-.3.49-.51,1.04-.64,1.6.69-.63,1.21-1.43,1.51-2.31Z"/>
        <path d="M16.99,10.67l-.22-.76c-.3-1.05-.17-2.19.29-3.18.05-.14.1-.27.16-.4.5-1.06,1.54-1.89,2.7-2.14l.71-.16-.12.72c-.27,1.62-.97,3.16-2.02,4.43-.08.26-.22.51-.42.7l-.47.47-.09-.16-.53.48h0ZM17.99,7.07c-.14.42-.18.87-.11,1.31.68-.87,1.19-1.87,1.48-2.93-.08.04-.15.09-.22.14l.07.1c-.52.35-.94.83-1.21,1.38h0Z"/>
        <path d="M23.62,9.16c-.1,0-.2-.02-.31-.05-.04-.01-.07-.03-.1-.04-.16.03-.32.04-.48,0-.28-.05-.5-.2-.64-.44-.14-.23-.16-.48-.17-.64-.04-.65-.17-2.62,1.27-3.26l.24.54s.01-.02.02-.02c.66-.82,1.6-1.35,2.58-1.45l.54-.06.06-.02h0s.02,0,.02,0l-.08.62c-.15,1.16-.62,2.26-1.34,3.18-.14.28-.3.55-.46.81-.32.53-.73.82-1.15.82h0ZM25.1,5.37c-.75.54-1.29,1.41-1.39,2.31.25-.22.48-.46.69-.71.26-.52.5-1.05.7-1.6Z"/>
        <path d="M29.44,8.07s-.04,0-.06,0c-.3-.02-.56-.15-.74-.38-.21-.27-.23-.59-.23-.83,0-1.65,1.07-3.21,2.57-3.91.32-.31.71-.52,1.13-.61l.62-.13-.03.63c-.03.7-.18,1.4-.42,2.06-.19.9-.63,1.74-1.29,2.39-.14.14-.29.25-.45.32-.29.24-.7.46-1.11.46h0ZM31.4,3.96c-.14.21-.24.46-.3.69-.06.23-.08.47-.09.71.12-.24.23-.48.32-.73.04-.22.07-.44.07-.67Z"/>
        <path d="M37.3,7.15c-.1,0-.2-.01-.3-.03,0,0-.02,0-.02,0-.09,0-.18,0-.24-.02-.2-.05-.54-.21-.71-.73-.01-.02-.02-.04-.03-.06-.34-.61-.37-1.36-.09-2.06.19-.49.51-.89.91-1.16.26-.31.56-.57.88-.77.2-.25.42-.47.67-.67l.76-.61.03.75.24-.05.02.59c.03,1.05-.1,2.1-.39,3.12-.26.89-.87,1.72-1.71,1.72h0ZM38.08,3.48c-.26.47-.42.99-.48,1.53.22-.49.38-1,.48-1.53Z"/>
        <path d="M44.45,6.27c-.18,0-.35-.06-.5-.18-.22-.18-.3-.43-.33-.55-.54-1.87.18-4.01,1.75-5.19l.08.11c.25-.16.52-.29.81-.38.48-.16.9-.07,1.14.24.13.17.17.36.17.52.43.36.55.99.32,1.74-.27.89-.76,1.72-1.43,2.38-.2.19-.44.41-.77.5-.03,0-.05.01-.08.02-.07.09-.14.18-.21.26-.29.35-.63.54-.95.54h0ZM46.39,1.75s-.05.04-.08.07c-.5.46-.74,1.17-.69,1.84.33-.61.59-1.25.77-1.91h0Z"/>
      </g>
    </g>
  </g>
</svg>