<?xml version="1.0" encoding="UTF-8"?>
<svg id="Layer_2" data-name="Layer 2" xmlns="http://www.w3.org/2000/svg" viewBox="0 0 26.37 48">
  <defs>
    <style>
      .cls-1 {
        fill: #f6f6f6;
      }

      .cls-2 {
        fill: #131414;
      }
    </style>
  </defs>
  <g id="Layer_1-2" data-name="Layer 1">
    <g id="uuid-2b0f8c52-de48-41f5-9b71-1e6f6fc14f9e" data-name="Layer 1-2">
      <g>
        <path class="cls-1" d="M26.37,24c0,6.35-1.36,12.13-3.57,16.42-2.4,4.66-5.82,7.58-9.62,7.58-7.28,0-13.18-10.74-13.18-24,0-.88.03-1.76.09-2.61C.79,9.36,6.4,0,13.18,0c7.29,0,13.18,10.74,13.18,24Z"/>
        <path class="cls-2" d="M22.92,38.24c0,.74-.04,1.47-.12,2.18-2.4,4.66-5.82,7.58-9.62,7.58-7.28,0-13.18-10.74-13.18-24,0-.88.03-1.76.09-2.61,2.01-1,4.22-1.54,6.54-1.54,9,0,16.29,8.25,16.29,18.4h0Z"/>
      </g>
    </g>
  </g>
</svg>