<?xml version="1.0" encoding="UTF-8"?>
<svg id="Layer_2" data-name="Layer 2" xmlns="http://www.w3.org/2000/svg" viewBox="0 0 14.17 48">
  <g id="Layer_1-2" data-name="Layer 1">
    <g id="_ëÎÓÈ_1" data-name=" ëÎÓÈ 1">
      <path d="M9.51,47.99c-.06-.01-.11-.05-.11-.09,0-.04.03-.06.08-.04.05.02.07,0,.06-.04-.01-.04-.07-.07-.12-.08-.06,0-.1-.03-.1-.05,0-.06.15-.11.18-.06.03.05.24.13.3.11.02,0,.03.02.03.06s-.03.07-.07.07-.07.02-.06.05c.01.06-.05.08-.19.06h0ZM9.04,47.79c0-.06.01-.08.05-.07.03.02.02,0-.03-.04-.08-.06-.07-.07.03-.17.15-.13.15-.22,0-.18-.08.02-.12,0-.12-.03,0-.03.01-.04.03-.03.01.01.09,0,.17-.02.13-.04.14-.06.11-.2-.06-.24-.05-.32.02-.35.06-.02.06-.01.01.04s-.04.08.07.17c.14.12.25.15.16.04-.03-.04-.05-.09-.03-.1.04-.04-.11-.2-.2-.2-.07,0-.07,0,0-.05.06-.04.06-.05-.01-.02-.05.02-.11.04-.15.06-.05.02-.06,0-.04-.05.02-.05,0-.08-.04-.08-.05,0-.06-.03-.05-.12.03-.14.15-.27.15-.15,0,.04-.03.08-.06.1s-.01.03.04.03.12-.02.13-.04c.04-.07.12-.06.12.02,0,.04-.02.07-.06.07s-.04.01-.03.02.09,0,.16-.03c.11-.04.12-.06.07-.09-.09-.06-.01-.06.1,0,.07.04.09.03.09-.02s-.05-.07-.23-.07c-.25,0-.35-.07-.36-.25,0-.06-.02-.14-.04-.18-.02-.06-.01-.08.04-.08.11,0,.19-.13.16-.26-.03-.1-.04-.11-.1-.07-.06.05-.07.04-.07-.02,0-.04-.02-.07-.04-.05-.02.01-.06,0-.08-.03-.02-.03-.01-.04.02-.02.08.05.1-.08.02-.14-.07-.05-.07-.06,0-.06.1,0,.11-.14.01-.17-.09-.04-.09-.11,0-.11.04,0,.06.02.05.04-.04.06.07.14.23.17.08.01.16.06.18.1.04.07.18.1.18.05,0-.05-.13-.16-.2-.16-.05,0-.04-.02.01-.06.08-.06.09-.25.03-.35-.02-.03-.07-.06-.12-.06-.08,0-.08.01-.03.11.03.06.07.1.09.09.02-.01.04,0,.04.02,0,.1-.09.1-.17-.02-.05-.07-.07-.16-.05-.24.02-.09,0-.13-.07-.18-.05-.03-.09-.09-.09-.12s-.02-.06-.05-.06-.05-.02-.05-.05c0-.03.03-.03.09,0,.11.06.16.01.1-.1-.04-.08-.04-.09.05-.04.05.03.11.03.12,0,.04-.06-.1-.16-.17-.12-.03.02-.02,0,.03-.04.09-.07.09-.07,0-.07-.05,0-.07-.01-.06-.03s0-.07-.05-.12c-.08-.09-.08-.09.02-.04.08.04.11.04.11,0,0-.06-.12-.19-.18-.19-.03,0-.03-.06,0-.16.03-.09.07-.16.09-.16s.06-.04.09-.1c.04-.08.04-.11-.03-.16-.06-.04-.1-.05-.15-.01-.04.04-.06.03-.06-.03,0-.04-.02-.07-.05-.05-.03.02-.05-.01-.05-.06,0-.07.02-.09.11-.07.1.02.1.02.02-.03-.07-.04-.07-.06-.03-.09.05-.03.04-.05-.02-.12-.09-.09-.1-.2-.03-.31.04-.05.04-.04.02.06-.02.08,0,.15.04.2.04.04.07.09.07.12,0,.06.07.06.22.02.06-.02.09-.05.08-.09-.02-.04-.06-.06-.15-.04-.09.02-.11.01-.08-.03.02-.04,0-.07-.06-.08-.08-.02-.09-.05-.06-.15.03-.12.03-.13-.07-.11-.07.01-.12,0-.13-.05-.03-.07.02-.09.2-.08.05,0,.05,0,.01-.02-.03-.01-.06-.05-.06-.09s-.03-.07-.06-.09,0-.01.06,0c.08.02.13,0,.15-.04.02-.05,0-.07-.05-.06-.04,0-.1-.01-.14-.05s-.09-.07-.12-.08c-.03-.01-.05-.04-.03-.06s.08-.01.13.02c.09.05.1.04.1-.06,0-.11.11-.2.19-.15.02.01.04,0,.04-.05,0-.05-.03-.07-.07-.05-.04.01-.07,0-.07-.02s.02-.05.03-.05.09-.04.15-.1l.12-.1-.18.03c-.11.02-.18.01-.18-.02,0-.03-.02-.05-.05-.05s-.05.04-.05.09.02.1.05.12c.09.06.04.1-.11.1-.08,0-.13,0-.09-.02.03-.01.06-.05.06-.09,0-.04-.02-.06-.06-.04-.03.02,0-.03.07-.1.1-.1.14-.12.18-.08.09.09.2-.15.12-.27-.06-.09-.18-.13-.18-.05,0,.02-.03.04-.07.04s-.07-.02-.07-.04.02-.04.06-.04.04-.01.02-.03c-.02-.02,0-.06.02-.1.04-.05.03-.09-.03-.16-.08-.08-.08-.09,0-.06.05.02.08,0,.08-.05,0-.04.02-.08.05-.08s.04-.03.03-.07-.01-.07,0-.07.04-.07.04-.16c0-.1-.02-.17-.05-.17-.03,0-.03-.02.01-.04.08-.05.03-.15-.07-.15-.04,0-.06-.02-.04-.04.01-.02.06-.03.1-.02.05.02.07,0,.07-.07s-.02-.09-.07-.07c-.04.01-.08,0-.09-.02-.03-.05.11-.05.18,0,.07.04.22.01.24-.04,0-.03-.04-.09-.11-.13-.09-.06-.13-.07-.15-.03,0,.03-.05.05-.09.05-.06,0-.06-.01.02-.07.06-.05.07-.08.03-.1-.03-.01-.06-.05-.06-.08s.04-.02.09.03c.1.09.2.1.2.03,0-.03-.04-.05-.08-.05-.07,0-.06-.02.03-.09.08-.07.1-.09.05-.11-.05-.02-.05-.03.01-.03.11,0,.15-.29.05-.35-.06-.03-.06-.05,0-.08.05-.03.05-.05,0-.12-.04-.05-.05-.09-.02-.11.07-.05.21-.36.17-.37-.02,0-.14.03-.26.08-.27.12-.26.12-.26,0,0-.07.03-.09.11-.09.07,0,.13-.04.16-.12.07-.15.07-.16-.01-.16-.04,0-.06-.03-.04-.07.01-.04-.02-.09-.07-.13-.13-.08-.13-.15,0-.11.14.05.28-.02.33-.15.04-.1.07-.12.2-.09l.15.03-.13-.06c-.12-.05-.13-.07-.06-.12.07-.06.07-.07-.02-.11-.05-.03-.09-.07-.09-.1,0-.03-.02-.05-.05-.06-.03,0-.04.01-.02.05.01.04,0,.08-.02.1s-.06-.03-.08-.11c-.02-.08-.05-.13-.08-.11-.03.02-.04.06-.02.09.02.04,0,.05-.08.03-.06-.01-.08-.03-.04-.05.09-.03.07-.14-.02-.17-.05-.01-.03-.03.06-.03h.14s-.15-.05-.15-.05c-.08-.02-.14-.06-.13-.09.04-.06.27,0,.34.09.03.04.07.06.09.04s0-.06-.03-.08c-.04-.03-.05-.04-.01-.04.03,0,.07.02.08.05.04.07.12.06.12-.02,0-.07-.08-.09-.22-.07-.03,0-.06-.04-.06-.09s-.03-.1-.06-.1c-.03,0-.01-.03.05-.05.15-.07.13-.11-.05-.15-.09-.02-.12-.04-.08-.05.05-.01.07-.06.05-.19-.02-.15-.01-.17.08-.14.12.04.17-.04.08-.12-.05-.05-.09-.05-.13,0-.07.07-.15.07-.11,0,.02-.03,0-.05-.02-.05s-.04-.03-.02-.07c.03-.08.16-.1.16-.02s.12.06.19-.02c.03-.04.04-.09.02-.11-.02-.02-.05,0-.06.02-.01.03-.04.06-.06.06s-.03-.03-.01-.07,0-.07-.03-.07-.05.02-.05.05c0,.08-.13,0-.16-.1-.01-.05,0-.08.02-.06.02.01.06-.02.09-.08l.04-.11v.11c0,.1.15.16.15.06,0-.03-.02-.04-.05-.02-.03.02-.05,0-.05-.02s.03-.05.07-.05.07-.02.07-.05-.04-.05-.09-.05-.09-.02-.09-.05.03-.04.07-.03c.04.01.07,0,.07-.02s-.03-.05-.06-.05c-.04,0-.04-.01,0-.06.11-.11.06-.18-.11-.18-.09,0-.16-.02-.16-.05s.03-.05.07-.05.07-.03.07-.06c0-.08.11-.31.15-.31.02,0,.06.03.09.07.05.06.05.07-.02.04-.04-.02-.08,0-.08.02s.08.05.17.05c.16,0,.17,0,.08-.07-.05-.04-.07-.07-.04-.07.03,0-.02-.03-.11-.07-.09-.04-.15-.1-.16-.15,0-.05-.01-.06-.03-.03-.05.13-.1.05-.06-.11.03-.16.03-.17-.09-.17-.12,0-.12,0,.03-.07.08-.04.15-.09.16-.13s.04.02.08.11c.08.16.2.22.23.11.01-.03-.01-.06-.05-.06s-.09-.08-.12-.18c-.07-.22-.07-.29,0-.2.03.05.05.05.05.01,0-.08-.15-.25-.23-.25-.05,0-.03-.02.03-.05.06-.03.11-.08.11-.11,0-.08-.04-.08-.13.02-.07.07-.08.07-.09,0-.03-.16.03-.23.14-.17.07.04.11.04.15,0s.03-.06-.04-.08c-.1-.03-.22-.27-.16-.33.06-.06.1-.39.05-.39-.02,0-.05.03-.07.07s-.05.06-.08.04c-.04-.02-.04-.05,0-.08.07-.07.06-.13-.02-.13-.04,0-.07-.04-.07-.08,0-.07,0-.07.04-.01.04.06.05.06.07,0,.02-.04.06-.07.11-.06.09.01.2-.06.2-.12,0-.02-.03-.04-.07-.04s-.08-.03-.09-.06c-.01-.03-.03-.01-.03.05,0,.12-.1.15-.1.03,0-.04-.03-.07-.08-.07-.05,0-.07.03-.05.07.01.04,0,.07-.02.07s-.05-.03-.05-.07-.02-.08-.03-.09c-.02-.01,0-.01.02,0,.03,0,.07,0,.09-.03.02-.03.06-.04.09-.02.03.01.1-.02.14-.07.08-.09.08-.09-.07-.06-.12.02-.15.01-.15-.05,0-.04.02-.08.05-.08s.03-.03.02-.08c-.02-.06,0-.07.08-.04.1.03.1.02.03-.02-.05-.03-.12-.04-.17-.03-.05.02-.11-.01-.15-.08-.06-.1-.06-.1.01-.04.09.08.27.03.27-.07s-.13-.14-.21-.07c-.06.05-.07.04-.07-.02,0-.05.04-.08.11-.08.06,0,.14-.04.18-.08.06-.07.05-.08-.02-.05-.06.02-.07.01-.05-.04.01-.04,0-.07-.04-.08-.03,0,.02-.02.11-.03.1-.02.18-.05.17-.08s-.04-.04-.08-.03c-.11.02-.33-.08-.33-.16,0-.05.04-.06.12-.04.11.02.12.02.03-.04-.05-.04-.08-.09-.06-.11s-.03-.03-.1-.02c-.1.02-.11,0-.06-.03.04-.03.11-.05.15-.05s.11-.05.14-.12c.06-.13.13-.16.13-.06,0,.04.03.03.06-.02.06-.08.07-.07.19.07.07.08.14.13.16.12.02-.02,0-.05-.03-.07s-.05-.06-.05-.08-.02-.11-.07-.18c-.06-.11-.08-.12-.08-.05,0,.07-.03.08-.12.07-.07-.01-.13,0-.14.02s-.05.03-.07.01c-.02-.01-.04.03-.04.09s-.02.12-.05.12c-.04,0-.07-.11-.03-.16,0-.01-.03-.06-.08-.12-.09-.1-.09-.1.03-.13.13-.03.16-.09.08-.14-.09-.05-.05-.21.05-.21.07,0,.09-.03.08-.11,0-.06-.04-.13-.07-.16-.05-.04-.05-.06.02-.12.05-.04.07-.04.05-.02-.03.05.06.3.11.3.01,0,.03-.05.03-.12,0-.07-.02-.12-.05-.12-.03,0-.03-.03.02-.06.12-.09.1-.11-.06-.1-.08,0-.13,0-.12-.03s-.04-.05-.13-.06c-.14-.02-.13-.02.04-.03.23,0,.3-.08.15-.15-.1-.04-.09-.05.04-.03.11.02.16,0,.18-.05.04-.1-.01-.15-.07-.06-.03.05-.04.04-.04-.06,0-.07.03-.14.06-.15.05-.02.05-.03,0-.08-.05-.05-.07-.05-.12,0-.03.03-.08.06-.11.06-.08,0-.13-.23-.07-.3.03-.03.04-.09.02-.13s0-.09.02-.1c.03-.02.04,0,.02.05-.02.06-.01.07.04.06.04-.01.08-.09.09-.18.02-.14.14-.27.14-.15,0,.03.02.05.05.05.11,0-.06-.13-.21-.16l-.15-.03.19-.16c.1-.09.16-.16.13-.16s-.04-.03-.03-.07c.02-.05,0-.07-.06-.06-.15.01-.25,0-.25-.05,0-.02.07-.03.16-.02.17.03.21-.02.11-.12-.04-.04-.04-.06,0-.06.03,0,.05-.02.03-.05s-.07-.05-.12-.05-.1-.02-.12-.04c-.01-.02.04-.03.12-.02.13.02.14.01.12-.09-.03-.09-.02-.1.02-.03.03.05.09.08.13.08.05,0,.06-.01.02-.03-.03-.01-.06-.06-.06-.12,0-.09,0-.09.12-.02.09.06.11.1.07.18-.02.06-.03.13,0,.15s0,0-.05-.03c-.1-.08-.14-.05-.16.14-.02.19.05.28.21.27.11,0,.11,0,.02-.03-.12-.02-.15-.11-.03-.11.04,0,.06-.02.04-.05-.02-.03.02-.05.08-.05.1,0,.1,0,.01-.07-.09-.07-.09-.07.01-.05.06.01.11,0,.11-.02s-.03-.04-.07-.04c-.12,0-.13-.14-.02-.23.09-.08.1-.09.03-.09-.05,0-.08-.02-.08-.05s-.05-.04-.1-.03c-.13.01-.16-.07-.07-.17.1-.1.09-.13-.03-.11-.06,0-.1.05-.1.09,0,.04-.02.08-.05.1-.04.01-.06-.02-.05-.09,0-.06.03-.11.07-.11s.06-.03.06-.07-.03-.07-.06-.07c-.04,0-.04-.01,0-.06s.04-.07-.02-.11c-.07-.05-.05-.06.1-.09.15-.03.25-.12.12-.12-.03,0-.04-.02-.02-.05.05-.09.16-.05.13.05-.02.07,0,.09.06.09s.07-.03.06-.1c-.02-.08,0-.1.09-.08.08.01.11,0,.11-.04,0-.04-.05-.06-.11-.06-.09,0-.11-.02-.09-.09.01-.05,0-.09-.03-.09s-.05.04-.05.09c0,.07-.03.09-.11.09-.06,0-.15.01-.19.03-.07.03-.07.02-.02-.07.03-.05.09-.09.12-.07.11.04.07-.06-.04-.1-.06-.03-.12-.1-.13-.16-.02-.08-.04-.1-.06-.06-.02.03-.07.06-.12.06-.07,0-.07,0,0-.05.05-.03.08-.09.08-.14s-.02-.08-.04-.07c-.02.01-.03.06-.02.1.02.06.01.07-.04.03-.04-.02-.11-.04-.15-.03-.07.01-.08,0-.04-.08.06-.11-.05-.38-.18-.42-.04-.02-.09-.05-.11-.08-.04-.06-.1,0-.06.06.02.03.07.05.12.05.06,0,.1.04.12.12.02.06.05.12.07.12s.03.02.02.05c-.02.03-.07.05-.13.05-.08,0-.09.02-.07.12.02.1,0,.11-.06.09-.06-.02-.1,0-.12.08-.05.14-.05.16-.06.27,0,.05-.05.1-.1.12-.05.02-.08.05-.07.07.01.02-.02.04-.07.03-.05,0-.1-.03-.1-.07s-.03-.08-.08-.1c-.04-.03-.06-.07-.04-.1.03-.04.06-.03.1.04.11.16.23.1.23-.1,0-.2-.06-.24-.29-.2-.14.03-.23.11-.11.11.03,0,.01.07-.03.15-.09.16-.12.36-.06.36.02,0,.04-.03.05-.07.01-.06.03-.06.11,0,.08.06.08.07,0,.07-.05,0-.07.02-.05.05.02.03,0,.05-.03.05-.03,0-.04.03-.02.08.02.05-.02.02-.09-.06s-.12-.18-.12-.24c0-.05-.02-.07-.03-.03s-.05.06-.09.06-.07.03-.08.06c-.01.04-.04.04-.1-.02-.1-.1-.1-.15,0-.12.05.02.07,0,.07-.07,0-.05-.02-.09-.05-.09s-.04.02-.02.05c.02.03-.01.04-.09.02-.12-.03-.17.04-.07.1.08.05.05.16-.03.13-.07-.03-.07-.02-.02.05.05.06.08.07.13.03.05-.04.06-.04.06.02,0,.04.03.08.07.08.08,0,.09.05.02.21-.03.07-.07.11-.09.09-.06-.04-.05-.16.01-.15.03,0,.06-.01.07-.04,0-.03-.03-.05-.1-.06-.06,0-.12.01-.12.04,0,.03-.03.03-.09,0-.09-.05-.11-.03-.1.06,0,.02-.02.03-.04.03s-.05.04-.05.09.02.09.05.09.05.06.05.13-.02.11-.03.08c-.02-.03-.06-.05-.09-.05-.13-.01-.15-.02-.15-.1,0-.07,0-.07-.07.01-.1.13-.09.21.02.21.21,0,.33.11.14.13-.06,0-.12.03-.13.06s-.09.05-.16.06c-.09,0-.12.03-.1.08.04.1-.06.15-.23.11-.1-.02-.13-.01-.1.03.02.03.06.04.09.02.04-.02.04-.01,0,.02-.07.08-.29.12-.33.06-.02-.03-.06-.05-.09-.05s-.02.02.03.05c.11.06.1.14,0,.14-.05,0-.11-.05-.14-.11-.05-.09-.05-.09-.03.07.01.1,0,.19-.02.2-.03.02-.05,0-.05-.05,0-.07,0-.07-.08,0-.06.06-.09.06-.14.02-.08-.07-.08-.1,0-.08.08.03.2-.1.15-.15-.02-.02-.09-.05-.15-.07-.09-.03-.11-.02-.08.04.02.04,0,.09-.05.12-.05.03-.06.05-.02.05.03,0,.05.02.03.05-.02.03,0,.05.04.05.11,0,.09.06-.05.16-.09.06-.13.07-.14.03-.01-.03-.06-.06-.12-.05h-.1s.11.09.11.09c.11.09.14.21.05.18-.03-.01-.1.04-.14.11-.04.07-.1.13-.13.13-.06,0-.06.01,0-.18.03-.09.03-.15,0-.15-.02,0-.04.04-.04.09s-.02.09-.05.09-.05.03-.05.07-.04.07-.08.07c-.05,0-.06-.01-.02-.03.03-.01.05-.04.03-.06-.04-.06.08-.28.14-.28.08,0,.11-.1.07-.21-.03-.09-.04-.09-.07-.01-.02.05-.05.07-.08.06-.02-.01-.04,0-.04.02s-.04.05-.09.05c-.09,0-.19.13-.19.24,0,.03.03.02.05-.04.03-.06.08-.11.11-.13.05-.02.06.01.03.13-.02.08-.05.18-.07.21-.03.04-.02.07.03.1.07.04.06.05-.07.1-.08.03-.15.09-.15.13s-.02.06-.05.06-.04-.02-.03-.03-.02-.03-.08-.03c-.11,0-.15.16-.06.22.03.02.02.03-.03.03-.05,0-.08-.02-.08-.05s-.02-.05-.05-.05-.05.03-.05.07-.05.13-.12.19c-.14.14-.4.16-.4.04,0-.11-.06-.04-.08.09,0,.06-.02.13-.03.17-.02.12-.1.05-.08-.07.01-.08-.01-.1-.08-.03-.05.05-.07.1-.05.11s.04.04.04.06c0,.03-.11.04-.28.02-.28-.02-.41.03-.28.11.05.03.03.04-.06.04-.15,0-.2-.04-.13-.12.04-.05.02-.08-.07-.12-.07-.03-.12-.08-.12-.1s-.02-.03-.04-.02c-.02.01-.06,0-.07-.05-.02-.05,0-.07.03-.05.03.01.09,0,.13-.02.06-.04.06-.05,0-.09-.09-.06-.2-.06-.17,0,.01.02,0,.06-.02.07-.03.02-.04.05-.02.07s0,.04-.04.04c-.11,0,0-.31.12-.32.05,0,.09.01.09.03s.05.05.12.07c.08.02.11.05.09.11-.04.12.09.05.15-.07.03-.06.06-.09.08-.07.01.01.07,0,.11-.02.07-.04.06-.05-.09-.08-.22-.04-.32-.14-.18-.18.06-.02.09-.05.07-.09-.01-.04,0-.08.05-.1.04-.02.07-.06.07-.1,0-.06-.03-.06-.14-.02-.11.04-.14.08-.13.15,0,.05-.02.11-.05.12-.05.02-.06-.02-.04-.17.02-.14,0-.2-.04-.2-.07,0-.14-.18-.1-.23.02-.02.07,0,.12.03s.09.04.09.02.04-.05.09-.07c.05-.01.1-.07.11-.13,0-.06.05-.11.09-.11.13,0,.47-.17.52-.26.04-.08.03-.08-.12,0-.09.05-.19.08-.22.06s-.07,0-.09.03c-.03.05-.05.05-.1,0-.04-.04-.03-.06.07-.09.07-.02.12-.05.12-.08,0-.03.03-.03.07,0,.05.04.07.04.1,0,.02-.03,0-.09-.07-.14-.13-.11-.13-.14.02-.14.08,0,.12.03.12.08,0,.06.04.07.22.04.27-.04.34-.09.15-.11-.08,0-.15.01-.17.03-.05.07-.13.05-.1-.03.02-.05,0-.07-.08-.07-.06,0-.08-.01-.05-.03s.06-.06.06-.1c0-.07,0-.07.09,0,.15.14.2.08.05-.06-.08-.08-.13-.14-.1-.14s.06.02.08.05c.02.03.07.03.13,0,.06-.03.12-.05.14-.05.02,0,.02-.01,0-.04s-.07-.04-.11-.03c-.1.03-.17-.02-.18-.13,0-.05.03-.08.08-.08.06,0,.08-.02.06-.08-.02-.07-.02-.07.03-.02.03.03.09.06.13.06.05,0,.05-.02,0-.07-.09-.09-.09-.09-.03-.2.03-.07,0-.12-.12-.24-.18-.17-.2-.24-.09-.24.04,0,.06.02.04.05-.02.03,0,.05.04.05s.07-.02.07-.04.07-.05.15-.07c.16-.03.15-.08-.02-.1-.06,0-.12-.01-.14-.02-.05,0-.08-.19-.04-.19.02,0,.04.02.04.05s.03.03.07.02c.04-.01.1,0,.13.02.11.1.46,0,.45-.13,0-.14-.07-.26-.11-.2-.05.08-.11.07-.14-.01-.02-.04,0-.06.04-.04.03.01.08,0,.09-.03.02-.03,0-.05-.05-.05-.06,0-.07-.03-.05-.13.03-.16-.03-.27-.13-.23-.04.02-.08,0-.08-.01,0-.06.19-.11.23-.07.02.02.08.05.14.05.08,0,.11-.01.11-.08,0-.05-.02-.09-.05-.09s-.04-.02-.02-.05c.02-.03.05-.03.1,0,.04.03.08.04.1.02.02-.02-.02-.08-.1-.13-.08-.06-.13-.14-.13-.21,0-.07.02-.1.05-.09.03.02.05,0,.05-.02s-.05-.05-.1-.05c-.07,0-.09-.02-.06-.05.06-.06.36,0,.32.05-.01.02,0,.05.02.07.03.02.05.01.05-.01s.05-.07.11-.09c.09-.04.08-.05-.13-.06-.13,0-.19-.02-.14-.03.15-.04.17-.09.04-.09-.08,0-.13-.03-.14-.08-.01-.07,0-.07.05-.03.09.07.26.01.23-.07-.01-.04-.06-.07-.1-.07-.07,0-.07,0,0-.05.04-.03.12-.05.18-.05.09,0,.1.02.08.1-.03.09-.03.1.04.03.04-.04.07-.11.07-.16,0-.05.01-.15.03-.22.04-.16-.07-.23-.22-.13-.09.06-.09.05,0-.07.1-.13.1-.13.02-.17-.07-.03-.06-.03.04-.04.07,0,.13-.02.13-.05,0-.06-.17-.06-.3,0-.07.04-.06.01.05-.09.1-.1.18-.14.25-.12.13.03.13-.05,0-.17-.06-.06-.09-.13-.08-.2.02-.11.02-.11.03.01,0,.08.05.14.13.18.15.07.18.07.14.01-.01-.02,0-.07.04-.1.05-.05.05-.07-.03-.14-.06-.05-.07-.08-.04-.08.03,0,.06.02.06.05s.04.01.08-.03c.06-.06.07-.1.02-.17-.03-.06-.04-.1,0-.12.07-.05.05-.12-.04-.12-.07,0-.07,0-.02-.04.04-.02.05-.06.03-.09-.02-.03,0-.05.04-.05s.08-.06.1-.14c.02-.08.05-.14.07-.14s.03.04.01.1c-.02.07,0,.1.07.12.06.01.11.08.12.16.01.08.05.14.07.14.07,0,.34-.29.31-.32-.02-.02-.05,0-.07.04-.06.1-.09.04-.11-.16,0-.1-.05-.2-.09-.22-.11-.06-.15.04-.06.13.04.04.06.09.05.11s0,.1.02.16c.09.24-.04.07-.2-.26-.11-.23-.14-.33-.1-.33.03,0,.06-.02.06-.04,0-.05.14-.11.18-.08.04.04-.09.22-.13.19-.02-.01-.04,0-.04.02,0,.07.05.06.15-.03.08-.08.09-.07.12.03.03.13.14.1.12-.04,0-.06,0-.09.03-.08.03.02.03,0,.02-.04-.02-.04,0-.07.02-.07s.05.02.05.05.02.05.06.05,0-.05-.06-.12c-.06-.06-.13-.12-.15-.12s-.03.05-.01.12c.02.08.01.12-.04.12-.04,0-.06-.05-.06-.13,0-.07-.02-.13-.05-.13s-.07-.02-.09-.04c-.02-.02.02-.03.11-.01.08.02.17,0,.2-.03.04-.04.05-.03.05.03,0,.09.07.11.12.04.04-.06-.02-.18-.1-.21-.04-.01-.06,0-.04.02.02.03,0,.05-.02.05s-.05-.02-.05-.05-.04-.09-.09-.13c-.07-.06-.08-.09-.03-.13.04-.03.08-.04.12-.01.05.03.05.04,0,.04-.03,0-.06.02-.06.05s.03.03.08.02c.05-.02.07-.01.04.03-.02.03,0,.06.02.06.03,0,.04-.04.03-.12-.02-.07,0-.12.02-.12s.05.03.05.07.04.07.09.07c.08,0,.09,0,.03-.13-.04-.07-.06-.17-.04-.23.01-.06,0-.12-.05-.16-.04-.03-.07-.08-.07-.11s.04-.01.09.03c.12.11.18.01.08-.14-.06-.1-.06-.12,0-.12.04,0,.08.03.09.07.04.12.11.08.09-.05-.01-.06-.04-.11-.06-.09s-.04-.01-.04-.06c0-.05.07-.14.15-.2.13-.11.15-.11.2-.03.08.11.1.1.18-.06.07-.14.07-.15-.08-.29-.08-.08-.12-.13-.07-.12.05.02.09,0,.11-.06.02-.05.07-.08.13-.08.06,0,.1-.02.09-.06,0-.03,0-.06.03-.06.08,0,.11-.24.04-.31-.06-.06-.07-.05-.11.04-.03.06-.03.14,0,.18.02.04.02.1,0,.14-.04.06-.04.06-.05,0,0-.04,0-.09,0-.11,0-.02-.01-.03-.04-.03s-.04-.06-.04-.14.02-.13.05-.13.06-.02.07-.06c.02-.05,0-.06-.08-.04-.06.01-.1,0-.1-.01s.05-.05.11-.05c.09-.01.1-.04.09-.18,0-.09-.03-.17-.06-.18-.06-.02-.05-.15,0-.15.06,0,.15.22.16.4,0,.1.04.16.12.2.09.04.09.06.04.07-.05.01-.06.04-.03.09.04.06.05.06.11-.02.04-.06.09-.08.13-.05.04.03.05.02.03-.02-.02-.03,0-.05.02-.05s.04-.02.02-.05c-.02-.03-.06-.04-.1-.02-.1.04-.16-.02-.1-.09.03-.03.07-.05.09-.04s.03,0,.03-.03-.03-.05-.06-.06-.08,0-.12-.01c-.03,0-.06-.03-.06-.05,0-.03.04-.04.08-.03.06.01.07,0,.02-.04-.08-.08-.08-.16,0-.09.03.03.08.04.09.02.06-.06.03-.11-.08-.11-.08,0-.12-.04-.16-.16-.04-.14-.04-.17.04-.22.09-.05.09-.05.06.08-.03.11-.01.15.07.2.08.05.12.04.18-.03.07-.08.07-.08,0-.05-.05.02-.08,0-.08-.03,0-.04-.02-.03-.04.01-.06.1-.11.03-.07-.09.02-.06.06-.09.1-.07.11.04.17-.02.11-.1-.04-.05-.04-.07.04-.07.11,0,.17.07.1.12-.06.04-.06.12,0,.12.03,0,.05-.03.05-.07s.02-.07.05-.07c.04,0,.03-.02,0-.07-.03-.04-.07-.12-.07-.19-.01-.1,0-.11.08-.06.05.03.09.07.09.09s.03.04.07.04c.1,0,.09-.08-.02-.11-.05-.01-.11-.07-.14-.12-.05-.09-.04-.1.06-.1.13,0,.27-.13.27-.25,0-.04.05-.09.1-.11.12-.04.03-.12-.1-.08-.09.02-.21-.14-.16-.22.02-.03-.01-.05-.06-.05-.1,0-.14.07-.13.22,0,.07-.02.11-.08.11-.05,0-.1-.02-.11-.05-.05-.07-.13-.06-.1.02.02.05,0,.07-.07.07-.05,0-.09.02-.09.04s-.06.07-.14.12c-.08.05-.14.11-.14.15s-.03.07-.07.07c-.05,0-.06-.03-.04-.08.03-.07.02-.08-.05-.02-.06.05-.07.08-.02.1.05.03.04.05,0,.11-.06.07-.07.07-.17,0-.1-.06-.11-.06-.13.02-.01.05-.06.09-.1.09-.05,0-.07.02-.05.07.02.05,0,.07-.11.07-.08,0-.15.03-.17.08-.03.08-.03.08-.08,0-.05-.09-.2-.06-.16.04.01.04,0,.06-.04.06s-.09.05-.12.12-.1.12-.14.12-.09.03-.11.07c-.01.04-.06.07-.1.07s-.13.06-.21.13c-.19.19-.43.39-.43.36,0-.01-.05.03-.11.1s-.13.12-.16.12-.06.03-.08.07c-.02.04-.05.06-.08.04s-.06,0-.08.05c-.02.06-.04.06-.09.02-.05-.04-.06-.04-.06,0,0,.09-.16.24-.25.24-.05,0-.1.03-.11.07s-.05.06-.07.04c-.02-.01-.04.02-.05.08,0,.06-.01.08-.03.05-.01-.03-.05-.04-.09-.03-.04.01-.05.05-.04.08.02.03,0,.04-.05.02-.06-.02-.08-.01-.06.04.02.05,0,.07-.09.07-.07,0-.15.05-.19.12-.04.06-.11.12-.14.12s-.07.02-.07.04-.05.06-.11.09c-.09.04-.12.04-.14,0-.01-.03-.02-.02-.03.03,0,.06-.03.08-.08.06-.05-.02-.08,0-.1.07-.01.06-.05.09-.09.07-.04-.01-.12,0-.19.03l-.13.05.12.04c.12.04.11.05-.11.07-.07,0-.17.05-.22.09-.04.04-.11.07-.14.07s-.06.03-.06.07-.02.07-.05.07-.04.03-.03.07c.04.11-.02.12-.12.02-.07-.07-.11-.08-.16-.04-.04.03-.07.08-.07.12,0,.04-.05.05-.18.04-.1-.01-.22,0-.27.03-.07.04-.07.05,0,.03.05-.02.07,0,.06.04-.03.08-.18.14-.2.08,0-.03-.05-.03-.09-.02-.06.02-.07,0-.04-.05.02-.05.01-.07-.02-.05-.03.02-.04.06-.03.09.04.1-.03.12-.09.03-.08-.11-.08-.2,0-.2.07,0,.07,0,0-.07-.08-.08-.1-.23-.03-.19.03.02.05,0,.05-.02s-.03-.05-.06-.05c-.07,0-.08-.19-.01-.19.03,0,0-.02-.05-.04-.09-.04-.09-.04,0-.04.06,0,.08-.03.06-.1-.02-.08,0-.09.06-.07.06.02.09,0,.09-.04,0-.04.03-.08.06-.09.03-.01.04-.05.02-.1-.03-.08-.04-.08-.13.03l-.09.11.06-.13c.03-.08.08-.12.12-.11.03.01.06,0,.06-.02s-.02-.05-.05-.05-.04-.02-.02-.05c.02-.03.08-.05.13-.05.1,0,.1,0,.02-.06-.1-.08-.11-.13-.01-.09.05.02.09-.02.12-.12.03-.08.07-.15.09-.15s.03-.06.03-.13,0-.1,0-.06c.02.06.03.06.07,0,.03-.05.04-.03.02.06-.02.08,0,.13.02.13s.05-.05.05-.11.04-.15.09-.21c.09-.1.13-.18.06-.14-.02.01-.06,0-.1-.04-.05-.05-.05-.07.01-.07.04,0,.11.02.16.04.07.04.08.03.06-.09-.02-.12-.03-.13-.11-.09-.05.03-.09.03-.09,0s.07-.08.15-.12.15-.09.14-.11.11-.06.26-.09c.24-.04.26-.06.15-.09-.1-.03-.12-.06-.1-.14.02-.09.02-.1-.05-.04-.04.04-.08.09-.08.13s-.04.06-.09.06-.09-.02-.09-.05.02-.05.05-.05c.03,0,.03-.05,0-.13-.06-.15-.03-.25.08-.25.04,0,.07-.03.05-.06-.01-.04.01-.06.06-.06.06,0,.07.01.04.06-.04.04-.03.06.01.06.13,0,.29-.38.23-.55-.03-.08-.01-.11.08-.16.1-.06.12-.05.16.02.02.04.07.08.1.08.03,0,.03-.03-.01-.08-.04-.05-.09-.13-.13-.19-.05-.09-.05-.11.01-.11.05,0,.07-.03.04-.09-.02-.05,0-.13.02-.18.04-.07.05-.06.02.04-.03.11-.02.12.07.1.05-.01.1-.06.1-.1s.01-.06.03-.05.07,0,.12-.05c.05-.04.1-.07.11-.06.01.01.05-.02.09-.07.05-.07.07-.08.07-.02,0,.06.01.05.05-.01.03-.05.03-.1.02-.13s0-.05.04-.05.07-.02.07-.05c0-.06-.08-.06-.11,0-.01.02-.08.05-.15.06-.1.02-.13,0-.15-.09-.03-.14,0-.19.09-.12.04.03.12.04.2.02.09-.02.12-.05.08-.07-.03-.02-.09-.01-.13.02-.06.05-.07.04-.07-.01,0-.04.03-.1.07-.13.06-.05.08-.04.14.03.04.06.08.07.11.04.06-.06.02-.12-.11-.19-.09-.05-.1-.12-.05-.3.01-.04.02-.08.02-.09s.03,0,.06.03c.08.08.13.07.1-.02-.02-.06,0-.07.08-.04.06.02.09.01.06,0-.03-.02-.05-.11-.05-.19,0-.12.02-.14.07-.1.05.04.06.04.03-.04-.02-.05-.05-.12-.08-.15-.04-.05-.03-.06.04-.05.2.02.23,0,.12-.09-.11-.1-.13-.15-.04-.14.03,0,.08-.04.11-.1.04-.09.08-.11.23-.09.2.02.24-.07.08-.15-.07-.04-.08-.07-.05-.1.03-.03.07-.03.11,0,.08.06.26.07.3.01.01-.02-.03-.04-.09-.04s-.12-.02-.12-.05-.03-.05-.08-.05c-.07,0-.07,0,0-.09.05-.05.13-.1.18-.11.06,0,.1-.05.1-.09s.04-.12.09-.17c.05-.05.07-.12.05-.15-.02-.03,0-.07.03-.1.05-.03.05-.04,0-.04-.03,0-.06-.02-.06-.05s.07-.05.16-.05c.18,0,.2-.02.09-.13-.05-.05-.06-.09-.02-.12.03-.03.05-.11.05-.19,0-.11.01-.13.09-.1.08.02.09,0,.09-.09,0-.09-.02-.12-.11-.13-.06,0-.03-.02.08-.05.14-.03.2-.08.25-.17.04-.09.04-.13,0-.16-.03-.02-.03-.04,0-.06.03-.02.04-.09.03-.16-.02-.12,0-.09.06.08.01.05.04.03.09-.06.08-.16.08-.16,0-.18-.06-.01-.05-.04.04-.13.06-.07.1-.14.09-.17,0-.03.02-.05.07-.05.06,0,.08-.02.07-.08,0-.05.02-.08.07-.08.05,0,.06-.02.04-.03-.07-.05-.07-.14,0-.2.09-.08.09-.14-.01-.11-.07.02-.07.01,0-.05.13-.1.16-.09.14.03-.02.1-.02.1.06.01.04-.05.1-.09.12-.08.02,0,.04,0,.04-.03s-.06-.05-.14-.05-.15-.02-.17-.05c-.02-.04,0-.04.07-.02.09.03.1.02.07-.06-.02-.08-.01-.09.07-.07.08.02.09,0,.06-.06-.03-.07-.01-.08.09-.05.1.03.13.02.13-.06,0-.05.01-.13.03-.17.03-.07.02-.07-.07-.03-.06.03-.11.04-.13,0-.02-.03-.01-.05,0-.05.02,0,0-.02-.04-.05-.07-.04-.05-.07.14-.26.12-.12.25-.2.28-.19.03.01.06,0,.06-.02s-.02-.05-.06-.06c-.03-.01-.02-.05.04-.11.05-.05.12-.16.15-.24.06-.15.1-.17.23-.15.04,0,.06-.02.04-.06-.02-.04,0-.07.03-.07s.04-.01.03-.03-.07,0-.13.03c-.06.03-.13.04-.16.03-.03-.01,0-.04.07-.07.07-.03.13-.07.13-.1s.04-.05.08-.05c.06,0,.07,0,.02-.04-.05-.03-.05-.04,0-.07.05-.02.05-.03,0-.03-.09,0-.07-.1.02-.1.05,0,.07-.03.05-.07-.02-.05,0-.07.07-.06.05,0,.11-.02.12-.05.02-.05,0-.06-.08-.03-.06.02-.1.01-.1-.02,0-.03.03-.05.07-.05s.07-.02.07-.05.03-.05.07-.05.07-.02.07-.05-.02-.05-.05-.05c-.09,0-.05-.09.05-.12.06-.02.09-.06.08-.11,0-.04.02-.1.05-.13.05-.04.06-.07.02-.12-.04-.05-.03-.08.04-.12.05-.03.11-.06.12-.05.02,0,.07-.09.12-.2.05-.11.08-.18.08-.16,0,.02.03,0,.07-.05.04-.05.06-.11.04-.14-.01-.03.01-.07.05-.08.1-.04.09-.13,0-.13-.08,0-.08,0,0-.06.05-.03.08-.08.08-.11s.05-.09.11-.14c.25-.23.31-.33.26-.38-.04-.04-.03-.05.05-.05s.12-.05.19-.24c.08-.21.1-.24.23-.24.11,0,.13-.01.07-.05-.05-.03-.05-.05,0-.05.03,0,.05-.02.03-.05-.02-.03-.05-.04-.07-.02-.02.01-.06,0-.09-.04-.04-.05-.04-.07.02-.09.04-.01.07-.06.07-.1s.04-.07.09-.07.09-.02.09-.05-.06-.05-.13-.05c-.12,0-.12,0-.04-.06.18-.11.45-.41.47-.55.01-.06.05-.14.08-.18.03-.04.05-.11.05-.16,0-.05.01-.09.05-.09s.02-.02-.03-.04c-.09-.04-.09-.04.01-.07.06-.02.11-.06.11-.08,0-.03.03-.03.07,0,.06.05.09.04.08-.05,0-.01.04-.05.09-.08.07-.05.09-.04.12.03.02.06.06.08.1.06.05-.02.06-.01.04.03-.02.03,0,.08.05.12.06.04.07.07.03.09-.03.02-.05.01-.05-.02s-.02-.05-.05-.05-.03.03-.02.07c.02.04,0,.1-.06.14-.07.05-.08.07-.02.14.05.06.05.08,0,.08-.03,0-.05.01-.03.03s-.01.07-.06.13c-.06.07-.08.11-.04.13.03.02.01.04-.06.05-.08.01-.11.04-.1.1,0,.05,0,.08-.03.08s-.04.05-.05.1-.03.11-.05.12c-.03,0-.03.05-.02.09.02.04,0,.1-.06.14-.06.05-.07.08-.03.09.1.04.07.11-.05.11-.08,0-.09,0-.04.04.06.04.06.05-.01.08-.04.02-.07.05-.05.08.02.03.05.02.09-.01.05-.04.07-.04.07,0,0,.03-.03.07-.06.08-.04.01-.07.11-.07.24-.01.29-.02.32-.11.36-.09.04-.11.13-.03.13.03,0,.03-.02.02-.05-.02-.03-.01-.04.02-.02.03.02.04.06.03.1-.01.04-.04.06-.07.04-.02-.01-.05,0-.07.02-.01.02,0,.06.01.07.06.04,0,.26-.06.26-.03,0-.07.04-.08.09-.01.06-.07.1-.13.1h-.11s.11.04.11.04c.11.03.11.04.03.11-.09.09-.1.15-.03.11.03-.02.05,0,.05.05,0,.05-.03.07-.07.05-.09-.03-.09.02-.01.1.05.05.03.08-.06.15-.06.05-.09.09-.06.09.03,0,.07.03.08.08.02.06,0,.07-.07.05-.07-.02-.09-.01-.05.03.03.04.03.1,0,.21-.06.15-.1.18-.15.1-.02-.03-.05-.05-.07-.05s-.02.04.01.09.07.08.09.07c.02-.01.03.02.03.07s-.02.1-.04.1-.04.03-.04.07-.05.11-.1.16c-.07.07-.09.11-.05.15.06.08.06.24,0,.28-.04.02-.03.05.01.08.05.03.04.05-.04.07-.08.02-.09.04-.05.15.03.08.03.13,0,.15-.03.02-.03.04,0,.07.04.02.05.07.02.12-.02.05-.04.11-.04.13,0,.03-.03.05-.06.05-.12.01-.12.02-.03.09s.09.07-.01.1c-.08.02-.1.05-.06.11.02.05.03.1.02.11-.01.01-.03.12-.03.23,0,.11-.01.22-.03.25-.03.05-.03.08-.05.25,0,.07-.04.11-.09.11-.07,0-.07,0-.01.04.06.03.06.06,0,.12-.03.04-.05.11-.03.15.01.04,0,.07-.01.07s-.04.05-.03.12,0,.11-.02.09-.04.04-.03.11c0,.19-.11.48-.21.51-.09.03-.12.11-.03.11.03,0,0,.06-.06.13-.09.1-.1.12-.03.09.07-.02.08-.01.06.04-.02.04-.03.1-.03.14s-.04.08-.09.09c-.08.02-.08.04-.04.12.04.07.04.11-.02.2-.08.11-.15.35-.17.6,0,.03-.03.05-.05.03-.03-.02-.05,0-.05.02s.02.05.05.05c.03,0,.03.03,0,.09-.03.05-.03.09-.02.09s0,.03-.02.06-.06.09-.06.14-.02.08-.05.08c-.09,0-.05.13.05.15.07.02.09,0,.1-.05,0-.17.06-.19.26-.1.24.12.29.11.19,0-.08-.09-.08-.1.02-.17.1-.07.1-.08.02-.14-.13-.1-.04-.08.14.03.08.05.2.09.25.09.08,0,.07-.01-.02-.04-.06-.02-.09-.04-.06-.04.04,0,.05-.03.02-.09-.05-.09,0-.17.15-.19.12-.02.1.09-.01.12-.05.01-.09.05-.08.07.02.07.22.14.22.08,0-.03-.02-.05-.05-.05s-.05-.02-.05-.05.04-.05.1-.05.08-.02.07-.04c-.01-.02.02-.03.08-.02.09.02.09.01.03-.03-.06-.04-.05-.05.06-.03.12.02.13.01.1-.12-.02-.12-.02-.14.05-.11.04.02.08,0,.08-.02s-.02-.05-.04-.05c-.06,0-.11-.15-.06-.2.05-.05.18,0,.22.08.01.03-.03.12-.09.18l-.11.12h.11c.12,0,.18-.06.19-.19,0-.04.05-.12.1-.18l.1-.11.06.11c.05.09.05.1-.02.08-.04-.02-.08,0-.08.02s.04.05.09.05c.11,0,.13-.18.02-.22-.1-.04-.09-.17.01-.15.05,0,.09.06.1.12.02.16.13.09.11-.07-.02-.16.15-.37.25-.31.03.02.02.04-.03.05-.09.02-.11.08-.03.13.03.02.1-.03.16-.1.11-.12.11-.12.09-.03-.03.13.06.14.14.01.03-.05.07-.09.09-.09.08,0,.31-.28.37-.44.04-.11.09-.18.13-.18.06,0,.06.01.02.06-.03.03-.06.1-.05.15,0,.08.01.08.07-.03.04-.07.08-.13.1-.13.05,0,.15.16.16.26,0,.08.01.08.04-.02.02-.06.04-.09.04-.06s.02.06.04.06.03-.08.03-.18c-.01-.26-.01-.26-.09-.2-.06.05-.07.04-.07-.02s.03-.07.14-.05c.17.04.37-.14.28-.24-.04-.05-.03-.06.02-.06.04,0,.08.02.08.05s.03.04.06.03c.03-.01.05-.06.04-.1-.02-.09.07-.11.1-.02.03.08.13,0,.13-.09,0-.05-.03-.07-.12-.04-.09.02-.11.01-.09-.04.02-.04,0-.07-.04-.07-.04,0-.08.03-.1.06-.01.03-.03,0-.03-.06,0-.07-.03-.15-.06-.18-.04-.04-.04-.06,0-.06.03,0,.08.04.1.08.03.05.06.07.08.05s.07,0,.11.04c.06.06.08.06.09.02.01-.03,0-.08-.04-.1-.05-.04-.05-.04,0-.03.04.01.08.08.09.14.01.12.03.12.24.12.12,0,.18-.01.14-.03s-.08-.04-.08-.06-.02-.03-.04-.02c-.07.05-.09-.04-.02-.11.05-.05.07-.05.07.01,0,.04.03.07.07.07.04,0,.06-.03.04-.07-.02-.05,0-.06.07-.04.05.01.13,0,.16-.03.05-.04.08-.04.1,0,.02.03.07.05.12.05s.1.03.11.06c.01.04.03.03.03-.02,0-.04-.04-.09-.1-.11-.1-.03-.1-.04.03-.08l.14-.05-.14-.03c-.14-.03-.18-.1-.06-.13.05-.01.04,0,0,.03-.05.04-.04.05.07.06.14.02.14.02.16.29,0,.07.03.08.12.07.08-.01.12,0,.12.04,0,.04.03.05.07.04.09-.03.09-.14.01-.17-.03-.01-.04-.04-.03-.06.04-.04.17.08.15.14,0,.03.1.1.24.16.14.06.25.13.23.15s.02.04.06.05c.05.01.01.02-.07.03-.14,0-.23.1-.09.1.1,0,.09.24-.01.34-.05.05-.1.09-.12.09h-.05s0,.03.02.06c.04.05.03.06-.06.04-.1-.02-.11,0-.09.08.01.05.04.1.07.1s.04.02.04.05-.04.04-.09.03c-.05-.01-.09,0-.09.02s.03.04.07.04.07.02.07.05-.04.05-.08.05c-.12,0-.22.18-.15.26.05.06.03.07-.06.07-.07,0-.13-.03-.15-.06-.01-.03-.01,0,0,.06.04.16.06.18.11.09.04-.06.04-.06.04.01,0,.05-.06.1-.19.13-.1.03-.19.06-.19.08s.05.01.12,0c.15-.04.15.03,0,.11-.06.03-.13.09-.14.13-.02.06-.01.06.06,0,.11-.1.18-.1.08,0-.04.04-.06.09-.05.12.04.07-.09.21-.19.21-.05,0-.1.03-.1.06,0,.03,0,.04.01.01.03-.06.11-.02.11.05,0,.02-.04.04-.1.04-.07,0-.09.02-.07.08.02.06.02.07-.04.02-.05-.04-.08-.04-.12.01-.04.05-.04.08,0,.12.03.03.08.04.09.02s.03,0,.03.02-.04.06-.09.07c-.09.02-.13.17-.05.17.03,0,.05.02.05.05s-.04.04-.09.02c-.07-.02-.09,0-.09.06,0,.05-.03.1-.06.12-.03.01-.03.03.02.03.05,0,.08.03.08.06s-.03.04-.07.03c-.04-.01-.07,0-.07.02,0,.03-.02.03-.07,0-.06-.05-.07-.05-.04.03.02.05.06.12.1.15.08.08.04.12-.19.14-.02,0-.03.03-.03.06s.03.04.07.02c.05-.02.07,0,.06.03-.03.1-.15.06-.22-.07-.08-.17-.14-.17-.14.01,0,.12.03.15.16.2.14.05.15.06.06.09-.06.02-.1.08-.1.14,0,.09,0,.09-.05.04-.04-.05-.04-.03-.03.08.01.08,0,.15-.02.15s-.04.03-.04.07c0,.04-.03.06-.07.04-.07-.03-.1.03-.07.15,0,.03-.02.02-.05-.01-.09-.09-.14-.07-.14.04,0,.05.02.08.05.07.09-.06.14.02.09.13-.04.08-.06.08-.09.03-.03-.05-.04-.05-.04,0,0,.03-.02.06-.05.06s-.04-.02-.02-.05c.04-.07-.02-.06-.09.02-.05.05-.05.07.05.12.11.05.16.15.07.15-.03,0-.05-.02-.05-.04s-.04-.04-.09-.04c-.1,0-.19.18-.1.21.03,0,.05.05.05.09,0,.07,0,.07-.09,0-.11-.1-.13-.1-.16.02-.02.09.03.12.2.1.05,0,.03.03-.05.12-.06.07-.09.12-.05.11.1-.02.12.1.02.14-.05.02-.09.07-.09.11s-.04.07-.09.06c-.06,0-.08.02-.06.08.01.05,0,.09-.03.09-.03,0-.03.02,0,.04.05.03.05.06.01.13-.03.05-.04.11-.02.12.02.02,0,.03-.02.03s-.04.03-.02.08c.02.06,0,.07-.1.05-.1-.02-.13,0-.13.07s.02.08.09.06c.05-.02.09,0,.09.02,0,.05-.06.07-.18.05-.08-.01-.07.05.02.12.06.04.06.06.02.06-.04,0-.06.05-.05.11.02.22-.05.32-.22.32-.1,0-.16.02-.16.06,0,.04-.02.03-.06-.02-.05-.06-.07-.07-.12-.01-.08.08-.07.13,0,.1.03-.01.11,0,.18.04.14.08.22.09.15.01-.08-.08-.07-.13.04-.1.05.01.09.05.09.07,0,.07-.2.22-.29.22-.04,0-.1.03-.13.06-.04.04-.06.04-.06,0,0-.08-.17-.07-.21.02-.02.05,0,.09.07.11.12.04.32.01.32-.05,0-.02.02-.04.05-.04.09,0,.05.1-.05.13-.05.01-.09.04-.09.07s-.05.04-.11.04c-.08,0-.09.01-.04.04.04.02.09.03.11.02.07-.04-.01.24-.09.3-.04.03-.07.07-.07.09s-.03.07-.07.11c-.05.05-.06.09-.03.12.03.03.01.11-.05.23-.12.22-.19.28-.17.13.02-.13,0-.15-.22-.11-.2.04-.26.11-.1.11.07,0,.12.02.12.05s-.02.05-.05.05-.04.02-.02.04c.01.02.05.03.09.02.03-.01.1,0,.15.05.09.07.08.07-.07.07-.09,0-.19.04-.23.08-.06.08-.07.08-.05-.02.02-.08,0-.11-.1-.13-.14-.03-.21,0-.09.05.04.02.08.06.08.1,0,.07,0,.07-.07,0-.08-.08-.3-.07-.3.02,0,.03.03.04.06.03.03-.01.08.01.12.06.04.05.06.05.06.02,0-.07.14-.03.22.07.05.06.06.06.12,0,.04-.04.09-.06.13-.04.04.01,0,.06-.09.11-.08.05-.16.13-.17.18-.01.06-.05.08-.11.06-.05-.01-.09-.04-.09-.07s-.05-.04-.11-.04c-.1,0-.1,0-.01-.04.08-.03.08-.04.01-.04-.05,0-.08-.04-.08-.1,0-.06-.02-.08-.05-.07-.03.02-.04.08-.04.14,0,.06-.01.14-.04.17-.05.06-.03.07.11.06.09,0,.16.01.16.03s.05.04.11.04.12.03.14.07c.02.05,0,.06-.05.04-.06-.02-.07,0-.05.07.01.06,0,.1-.02.1s-.04-.03-.04-.07c0-.07-.2-.22-.29-.22-.03,0,0,.04.06.1.14.11.13.24-.02.32-.08.04-.09.05-.02.05.05,0,.08.04.08.1,0,.06-.01.09-.03.07-.03-.03-.16.05-.16.11,0,.02.05.05.1.06.08.02.09.04.05.09-.05.05-.07.05-.11,0-.03-.03-.09-.06-.13-.06-.05,0-.04.03.04.09.1.08.1.09.03.12-.11.04-.1.04-.13-.06-.01-.05-.06-.09-.1-.09s-.08-.02-.08-.05.04-.05.1-.05c.1,0,.1-.1,0-.13-.04-.01-.05,0-.03.03.02.03.01.05-.02.05s-.05-.02-.05-.05c0-.04-.02-.03-.07,0-.04.03-.07.09-.07.13,0,.05-.03.06-.11.04l-.11-.03.11.1c.07.07.1.13.08.19-.05.16.02.19.18.07.13-.1.16-.1.21-.05.09.1.07.21-.04.21-.09,0-.09.01-.04.08.05.07.05.07,0,.02-.04-.03-.1-.06-.13-.06-.06,0-.06.01,0,.07.05.06.04.08-.04.1-.08.02-.09.04-.05.12.04.07.04.1,0,.13-.03.02-.04.07-.02.11.02.06,0,.07-.07.05-.08-.02-.1,0-.1.09,0,.07-.02.13-.05.15s-.04.05-.02.07-.03.08-.1.12c-.07.04-.09.06-.05.05.05-.02.08,0,.08.04,0,.04-.02.07-.04.07-.07,0-.11.25-.04.29.03.02.08.01.09-.02.02-.03.03-.01.03.05,0,.13-.02.13-.12.03-.07-.07-.31-.07-.38,0-.05.05.06.26.15.3.1.04.12.04.17-.05.03-.06.08-.09.14-.07.05.01.09,0,.09-.02s.04-.04.09-.02c.12.03.14,0,.08-.15l-.05-.12-.05.12c-.03.08-.06.1-.07.05-.01-.03,0-.1.05-.14.07-.07.08-.07.14,0,.04.04.06.08.04.1s0,.03.03.03.06-.02.06-.05.03-.05.07-.05c.04,0,.06-.02.04-.06-.02-.04,0-.05.04-.03.06.02.07,0,.05-.05-.02-.06,0-.07.11-.05.09.02.14,0,.14-.03,0-.03.02-.1.04-.14.03-.07.02-.08-.06-.06-.08.03-.1.01-.1-.05,0-.05.01-.06.03-.03.02.06.16.03.22-.05.02-.03.03,0,.01.05-.02.08,0,.11.14.16.09.03.19.04.22.02.03-.02.1-.03.16-.02.12.01.19-.06.1-.11-.03-.02-.04-.01-.02.02.02.04,0,.05-.11.02-.1-.02-.14-.01-.14.04,0,.05,0,.05-.04,0-.06-.09-.02-.14.09-.11.1.03.24-.08.24-.2,0-.05.03-.07.09-.05.06.02.1,0,.14-.08.04-.08.05-.09.05-.03,0,.13.2.16.28.04.06-.1.07-.1.13-.02.06.08.06.08.04-.02-.02-.06,0-.11.02-.11s.05.03.05.07.02.07.04.07.03-.04.02-.09c-.02-.06,0-.09.04-.09.05,0,.05-.01,0-.06-.08-.08-.07-.13.03-.13.07,0,.07,0,.01.05-.06.04-.05.05.03.03.09-.02.1,0,.09.17v.19s.04-.18.04-.18c.04-.16.17-.25.17-.13,0,.03-.02.05-.06.05s-.04.01-.03.02c.06.06.17-.04.26-.22.08-.17.1-.19.24-.17.13.01.16,0,.18-.09.01-.06.05-.11.07-.11s.02-.05,0-.12c-.03-.08-.03-.13,0-.15.03-.02.04-.01.02.01-.05.08.26.04.5-.07.12-.06.22-.11.22-.13s-.02-.02-.04,0c-.02.01-.06,0-.07-.02-.02-.03.07-.04.2-.03.17,0,.22,0,.21-.05-.05-.12.03-.06.1.08.06.11.06.14.01.14-.03,0-.09-.03-.12-.06-.05-.05-.06-.04-.04.03.02.11.17.11.25,0,.03-.04.07-.05.08-.04s.03,0,.03-.02.03-.04.07-.03c.04.01.07,0,.07-.03s-.03-.05-.07-.05-.07-.02-.07-.05.03-.04.07-.03.09,0,.11-.04c.03-.06.05-.05.09.05.06.12.22.17.17.06-.01-.04,0-.08.05-.09.07-.03.07-.04,0-.15l-.08-.12.16.03c.14.02.17.01.19-.07.01-.05,0-.1-.02-.1s-.04.02-.04.05-.05.05-.11.05c-.07,0-.09-.01-.05-.04.04-.03.03-.06-.06-.1-.07-.03-.12-.08-.12-.1,0-.06.11-.05.18.02.05.05.05.04.03-.02-.02-.04,0-.1.04-.14.06-.05.07-.04.08.05,0,.06.01.08.03.05.03-.08.13-.07.36.04.11.06.22.1.26.09.03,0,.06.03.06.09,0,.09.02.1.18.08.29-.04.35.04.31.38-.02.16-.07.32-.11.37-.12.13-.18.44-.13.59.03.09.03.16,0,.24-.03.06-.06.15-.07.2,0,.05-.05.13-.1.18-.09.08-.09.08,0,.17l.1.08-.14.11c-.08.06-.13.12-.11.13.01.01.06,0,.1-.04.04-.03.07-.04.07-.02s.03,0,.08-.03c.07-.06.08-.05.05.06-.01.07,0,.13.02.13s.04.02.04.04-.1.04-.21.03c-.12,0-.21.01-.21.03s.02.04.05.04c.03,0,.07,0,.1.01.15.02.25.36.11.36-.05,0-.06.03-.04.09.02.05,0,.09-.02.09s-.05.03-.05.07.02.07.05.07.02.03-.01.07c-.03.04-.08.06-.09.05s-.05,0-.06.03c-.02.03,0,.07.02.08s.06.11.08.2c.02.14.01.18-.07.22-.07.04-.12.04-.2,0-.11-.06-.19.01-.15.13.04.1.1.07.08-.04-.02-.1-.02-.1.05-.01.04.05.07.12.07.15s.02.07.03.08c.02.01,0,.01-.02,0-.03,0-.06,0-.06.03s.02.05.05.05.05.02.05.05c0,.03-.03.03-.09,0-.05-.03-.09-.08-.09-.12,0-.06-.02-.06-.11-.01-.11.06-.32.27-.32.32,0,.01.03.03.07.03s.06-.01.05-.03c-.01-.02,0-.07.04-.11.05-.07.09-.07.22-.04.22.06.23.14,0,.12-.16,0-.18,0-.16.08.01.05.06.09.11.09.08,0,.08.01.03.12-.05.12-.06.12-.1.03-.04-.1-.22-.18-.22-.1,0,.02.06.1.12.16.07.06.11.14.1.18-.02.04.02.09.11.13.08.03.14.08.14.1,0,.05-.03.05-.14,0-.11-.06-.25-.01-.2.06.05.09.06.17,0,.17-.03,0-.04.04-.02.09.02.06,0,.09-.04.09-.04,0-.1.03-.14.07-.06.06-.06.07,0,.07.04,0,.08-.03.09-.06.02-.05.04-.04.1,0,.1.08.1.13.01.16-.05.02-.06,0-.04-.04.03-.08,0-.08-.15-.01l-.12.06.15.06c.1.04.14.09.12.13-.02.05,0,.06.1.04.12-.02.12-.02.04.04-.05.04-.07.09-.06.12.02.03,0,.04-.04.03-.04-.02-.07-.05-.07-.07s-.02-.04-.05-.04c-.04,0-.04.02,0,.06.05.06-.03.24-.15.33-.03.02-.02.03.02.03.04,0,.11.04.15.09.07.09.07.09-.01.12-.05.02-.08.05-.07.07.01.02-.01.04-.06.04-.07,0-.07,0-.01.05.04.03.05.05.02.05-.03,0-.01.02.02.05.06.04.06.05-.02.05-.07,0-.08.01-.04.05.07.07.02.23-.07.23-.07,0-.07,0,0,.05.06.04.05.05-.03.05-.06,0-.11-.03-.13-.06-.02-.04-.02-.04-.03,0,0,.03-.08.07-.17.09s-.16.05-.16.08.05.03.11.01c.06-.02.13-.03.16-.03.03,0,.11,0,.18.01.08,0,.11.03.09.08-.01.04-.03.08-.03.09s-.04.02-.08.02c-.07,0-.07,0,.01.06.09.05.09.06-.02.08-.1.02-.11.03-.04.1.06.06.06.08-.04.13-.1.05-.11.04-.09-.01.01-.04,0-.07-.03-.07s-.04-.04-.03-.09c.03-.12-.14-.13-.19-.01-.02.05-.05.1-.08.12-.03.02,0,.03.08.03.08,0,.13.03.13.07,0,.04.03.07.07.07s.07.02.07.05.03.05.08.05c.06,0,.07.01.02.07-.03.04-.04.09-.03.12s0,.05-.02.05-.05-.02-.05-.04c0-.06-.28-.06-.31,0-.02.03,0,.04.05.02.11-.04.1.04-.04.17-.06.06-.12.14-.12.18s.05,0,.1-.05l.1-.11.11.13c.06.07.11.11.12.09.03-.17.01-.28-.03-.27-.03,0-.07-.02-.08-.06-.02-.06,0-.07.08-.05.06.02.13.03.16.03s.05.03.03.07c-.02.04,0,.07.04.07.05,0,.06-.03.05-.09-.01-.06,0-.09.03-.09.04,0,.05.05.03.15-.02.08-.03.18-.03.22,0,.04-.03.06-.07.04-.04-.01-.12,0-.19.03-.1.04-.13.04-.21-.03-.11-.1-.13-.05-.02.05.09.09.09.16.01.13-.04-.01-.06.01-.06.07,0,.05.01.08.03.07.02-.01.04.03.05.1.02.09,0,.11-.04.1-.03-.01-.07,0-.09.02-.01.02,0,.05.05.07.12.05.14.03.15-.07.01-.17.1-.21.1-.06,0,.08,0,.17,0,.21,0,.04-.01.11-.03.15-.02.06-.01.08.04.08.04,0,.07.04.07.08,0,.05-.01.06-.03.02-.03-.07-.16-.08-.16-.01,0,.03-.06.05-.13.05-.25,0-.38.22-.17.3.05.02.06,0,.04-.1l-.03-.12.14.08c.07.05.15.09.16.1.01,0-.03.06-.09.1-.1.08-.11.09-.04.18.08.12.15.08.08-.05-.04-.07-.03-.09.03-.09.04,0,.07-.04.07-.1s.02-.08.04-.07c.06.04.04.21-.03.21-.08,0-.08.05.02.12.08.06.08.06,0,.06-.05,0-.08.02-.08.05s-.03.04-.06.03c-.09-.02-.1.16,0,.22.07.05.07.07.02.14-.03.04-.05.1-.03.13.02.04.01.04-.02.02-.03-.02-.05-.08-.05-.13s-.04-.11-.08-.12c-.05-.02-.12-.06-.17-.1-.1-.09-.17-.03-.2.16-.01.09,0,.12.02.07.03-.05.06-.04.14.05.06.06.08.12.05.13-.09.03-.05.1.05.1.05,0,.08.02.07.05-.02.03-.05.04-.07.02-.05-.03-.24.17-.22.23,0,.03.1.04.19.04.1,0,.16,0,.15.03-.02.02-.07.05-.12.05s-.1.02-.12.05c-.02.03,0,.05.01.05s.06.04.07.1c.02.08.01.09-.04.04-.05-.04-.08-.04-.13,0-.05.05-.05.07,0,.15.04.05.1.08.13.08s.06.02.06.05-.02.05-.05.05-.04.02-.04.03c.02.13,0,.16-.08.11-.06-.05-.08-.03-.1.09-.02.09-.07.17-.14.2l-.11.05.1.11c.06.06.17.17.24.26.12.14.13.15.03.12-.07-.02-.1-.01-.1.02,0,.03.04.07.09.08s.09.05.09.07-.01.04-.03.02-.06.02-.09.09c-.08.15-.08.16,0,.16.04,0,.07.03.07.06,0,.09-.14.27-.19.24-.02-.01-.04,0-.04.05s.02.07.04.07c.03,0,.2.34.2.39,0,0-.07,0-.15,0-.08,0-.13,0-.09.01s.06.06.06.09c0,.04.03.05.07.04.04-.02.07,0,.07.05,0,.04-.02.08-.05.08s-.04.02-.02.05c.02.03.02.05,0,.05-.05,0-.16-.13-.16-.18,0-.06-.18-.11-.21-.06-.01.02,0,.06.05.1.04.03.06.09.05.12s0,.06.02.06.03.03.02.07c-.01.04.01.08.06.09.05.02.09.06.09.1,0,.05-.01.06-.05.02-.03-.03-.09-.05-.13-.05-.07,0-.08.02-.04.09.03.06.03.1,0,.12-.03.02-.04.08-.03.14.01.06,0,.12-.03.13-.03.01-.03.04.02.07.05.03.05.05.01.05-.03,0-.06.05-.06.11,0,.09-.02.11-.09.09-.07-.02-.08,0-.08.09,0,.09.04.11.13.11.07,0,.13.01.13.03,0,.08,0,.11.06.18.03.04,0,.02-.05-.03-.12-.13-.15-.13-.23-.03-.07.1-.08.17-.02.13.03-.02.05,0,.05.04s-.03.08-.06.09c-.08.03.04.12.15.1.04,0,.05,0,.02,0-.03.01-.05.04-.03.06.01.02,0,.04-.03.04-.08,0-.09.32,0,.35.03.01.06.05.06.08s-.08,0-.17-.08l-.17-.13.03.16c.02.09.08.21.15.28.1.1.1.13.05.18-.05.04-.08.04-.13-.02-.03-.04-.09-.07-.13-.07s-.06-.03-.04-.07c.03-.09-.02-.13-.09-.07-.08.06-.08.13-.01.13.03,0,.1.06.17.13.1.11.11.13.04.14-.04,0-.08.05-.08.08s.02.06.04.04c.05-.03.1.14.06.18-.01.01-.05,0-.08-.02-.03-.03-.08-.03-.12,0-.05.03-.05.04-.01.04.03,0,.06.04.06.1s-.02.09-.05.09c-.06,0,0,.15.07.22.06.05.04.27-.03.23-.02-.01-.05,0-.06.04-.02.04.02.08.09.1.08.02.11.05.08.09-.02.03-.07.13-.11.22-.04.09-.1.19-.14.22-.06.05-.06.06,0,.06.09,0,.11.12.02.16-.03.02-.01.02.05,0,.07-.01.09,0,.08.03-.02.03,0,.04.07.02.06-.02.09,0,.07.02-.02.03-.07.04-.12.02-.08-.02-.09,0-.07.13.03.14.02.14-.04.06-.04-.05-.07-.07-.07-.03,0,.09-.08.06-.11-.04-.01-.05-.05-.08-.08-.07-.07.04-.06.21.02.24.06.02.14.19.13.27,0,.04.11.05.15,0,.02-.02,0-.06-.02-.09-.04-.05-.02-.06.08-.06.08,0,.16-.03.19-.06.04-.04.06-.04.06,0,0,.03-.05.07-.12.08-.13.03-.14.07-.06.16.05.05.04.06-.02.03-.13-.04-.19.12-.11.28.07.13.05.28-.03.23-.06-.04-.19.07-.15.13.06.09.06.29,0,.33-.09.06-.13.04-.13-.07s0-.1-.09-.01c-.1.1-.17.35-.09.35.02,0,.04.02.04.05s-.04.03-.08.02c-.05-.02-.04,0,.03.05.1.07.1.09.04.16-.08.1-.14.26-.08.22.02-.01.07.01.09.06.04.07.05.07.06.01,0-.04,0-.09,0-.11,0-.02,0-.08.02-.14.02-.07.04-.08.07-.03.02.03.02.09,0,.11-.02.03-.02.09,0,.14.06.15.05.26-.03.26-.04,0-.07-.02-.07-.04s-.05-.06-.12-.07c-.09-.02-.12-.07-.15-.19-.02-.09-.02-.19,0-.23s0-.11-.04-.15c-.05-.07-.08-.08-.13-.03-.04.04-.05.07-.01.09.07.05.11.24.06.27-.02.01-.04.11-.03.21.01.17.03.19.13.18.32-.02.38,0,.37.11,0,.07-.05.11-.12.12-.11.02-.26.15-.17.15.03,0,.06-.02.08-.05.04-.07.12-.06.12.02,0,.04.02.07.05.07.03,0,.04.06.02.15-.03.14-.02.14.04.07.09-.12.11-.1.09.06-.01.08-.03.13-.05.1s-.08-.06-.14-.08c-.13-.04-.14.03-.01.2.07.08.08.14.05.17-.03.03-.05.08-.05.13s-.08.14-.17.22c-.14.12-.16.15-.1.2.06.05.06.07.01.12-.07.08-.13.05-.1-.05.02-.04,0-.07-.05-.07-.06,0-.07-.05-.07-.21,0-.21-.03-.3-.08-.24-.02.02,0,.06.02.11.06.1-.03.29-.15.33-.09.02-.08.04.07.17.1.09.2.13.27.12.07-.01.11.01.13.07.04.13-.01.16-.12.06-.06-.05-.1-.06-.12-.03-.02.03,0,.05.02.05.08,0,.06.13-.03.19-.06.04-.07.06-.02.08.05.02.05.04,0,.09-.03.04-.04.08-.02.1s.08-.02.13-.08.08-.09.06-.06c-.02.03,0,.06.04.06.13,0,.18.42.09.62-.07.15-.15.17-.15.03,0-.05.03-.09.07-.09.04,0,.06-.03.04-.07-.02-.05-.04-.06-.06-.02-.02.03-.05.05-.06.05-.02,0-.08,0-.15.03-.09.02-.12.05-.1.12.01.05,0,.1-.03.11-.03.01,0,.04.05.06s.11.06.11.09c0,.03.02.01.04-.04.04-.09.04-.09.08,0,.02.06.01.11-.04.15-.05.04-.08.12-.08.23,0,.15,0,.17.07.12.06-.05.07-.05.07.01,0,.04-.04.1-.09.14-.05.04-.08.08-.06.1.03.03-.09,0-.27-.06-.04-.02-.05,0-.03.03.02.03.07.06.1.06s.06.02.04.05c-.02.03-.08.03-.14.02-.07-.02-.11,0-.11.02,0,.07.32.07.34,0,.02-.06.27.03.27.1,0,.03-.02.04-.05.02-.08-.05-.36.02-.39.1-.04.1.01.15.06.07.02-.04.07-.05.12-.03.04.02.06.05.05.08-.02.03-.05.04-.07.02-.02-.01-.07.02-.09.07-.05.09-.05.1.05.04.09-.05.1-.05.05.04-.03.05-.04.1-.02.1s0,.03-.02.06-.06.13-.06.22c0,.12-.02.17-.09.18-.08.02-.08.04-.03.12.05.08.04.1-.03.16-.05.04-.11.07-.13.07-.07,0-.04-.11.04-.17.08-.06.08-.07,0-.15-.08-.08-.08-.08-.08,0,0,.05-.03.09-.07.11-.05.02-.06.04-.03.08.03.04,0,.08-.09.14-.08.05-.16.07-.18.06-.03-.02-.03.03,0,.13.02.08.04.16.04.17s-.04.01-.08.01c-.05,0-.09-.04-.09-.1l-.02.02ZM9.66,45.89c.03-.07-.13-.31-.18-.26-.02.02,0,.06.04.1.05.05.06.08.03.1-.05.03-.02.12.05.12.02,0,.05-.03.06-.06h0ZM9.44,45.83c-.02-.07-.18-.06-.21.01-.01.04.02.06.1.05.07,0,.11-.03.11-.06h0ZM9.88,44.41s-.03-.06-.07-.06c-.05,0-.07.05-.07.15,0,.14,0,.15.07.06.04-.05.07-.12.07-.15ZM9.76,44.3c.07-.07.07-.11.03-.15-.04-.04-.06-.04-.06.02,0,.05-.04.08-.09.08-.06,0-.08.02-.07.07.04.09.08.09.18-.02h0ZM9.34,43.1s.02-.07.04-.1c.05-.08,0-.14-.06-.08-.02.02-.06.09-.08.16-.03.08-.02.11.03.09.03-.01.06-.04.06-.06ZM10.47,42.98c.08,0,.08-.04.02-.14-.03-.05-.05-.05-.09.03-.03.05-.05.13-.05.16,0,.05,0,.05.03,0,.01-.03.05-.06.09-.06h0ZM10.25,42.94s.05-.05-.02-.07c-.07-.03-.07-.04.02-.12.06-.05.09-.1.07-.12-.05-.05-.2.06-.2.13,0,.04-.03.06-.08.04-.07-.03-.07-.02.01.07.11.11.12.12.2.06h0ZM9.45,42.51c0-.12-.06-.14-.18-.06-.14.1-.13.14.04.14.11,0,.14-.02.14-.08h0ZM9.67,41.46c.09-.06.08-.07-.06-.06-.1,0-.14.02-.12.07.03.08.07.08.18,0h0ZM9.37,41.19c-.02-.09-.16-.11-.23-.04-.05.05.03.13.14.13.09,0,.1-.02.09-.09h0ZM10.23,40.15s-.07-.03-.12-.01c-.06.02-.09.01-.06-.02.02-.03-.01-.05-.09-.05-.07,0-.12.02-.12.05s.03.03.07.02.08,0,.1.04c.02.04.07.06.14.05.06-.01.1-.04.09-.07h0ZM10.9,40.2s-.06-.09-.12-.12c-.09-.06-.1-.06-.1.01,0,.05.02.07.07.05.04-.02.07,0,.07.04,0,.04.02.07.05.07s.04-.02.03-.06ZM9.29,40.06c.05-.05.06-.09.03-.09-.09,0-.06-.07.05-.12.13-.06.17-.18.06-.16-.05,0-.12,0-.15-.02-.05-.03-.05,0-.03.08.02.07.01.12-.02.12-.03,0-.04.03-.02.07.01.04,0,.07-.03.07s-.05.03-.05.07c0,.1.06.09.16-.02h0ZM10.59,40.01c.04-.07.04-.11,0-.16-.03-.04-.07-.06-.09-.04-.02.01-.07-.04-.1-.11-.04-.07-.1-.13-.15-.14-.1-.02-.11.08-.01.11.04.01.06.05.04.09-.01.03,0,.07.05.09s.07.06.07.09c0,.05.09.18.13.18,0,0,.04-.04.06-.1h0ZM10.42,39.4s0-.08-.03-.12c-.04-.05-.04-.07,0-.07.04,0,.04-.02-.01-.08-.06-.07-.06-.09,0-.14.04-.03.07-.09.06-.12,0-.03-.02-.02-.05.03-.03.05-.07.07-.1.05-.03-.02-.06.01-.07.07-.03.11-.14.13-.17.04-.03-.09-.12,0-.1.1.02.06.08.1.18.12.09.02.16.04.15.06-.01.11.07.14.13.05h0ZM9.68,38.66c0-.07,0-.1-.06-.1s-.07.04-.06.12c.01.14.1.13.12-.02h0ZM10.23,37.99c-.03-.08-.01-.09.11-.07.16.03.23-.04.12-.13-.06-.05-.08-.05-.11,0-.02.03-.05.05-.06.04-.02-.02-.28.18-.28.21,0,.02.05.03.12.03.1,0,.12-.02.09-.09h0ZM10.57,37.68c.02-.07-.13-.12-.2-.06-.04.04-.03.06.02.1.08.05.15.04.17-.03h0ZM10.73,37.47s-.02-.05-.05-.07-.04-.05-.02-.07,0-.05-.01-.05c-.27-.04-.3-.03-.3.05,0,.05.02.1.04.13.06.06.33.07.33.02h0ZM10.13,37.37c.06.01.08,0,.06-.02-.06-.1-.22-.1-.27,0-.04.08-.04.09.03.05.04-.03.12-.03.18-.02h0ZM9.62,36.86s0-.05.02-.05.04-.02.02-.05c-.02-.04-.05-.03-.08.01-.03.05-.05.05-.07,0-.01-.03-.06-.06-.11-.06-.09,0-.09,0,0,.09.08.09.28.14.22.05h0ZM9.86,36.58s-.06-.05-.1-.05-.07-.02-.07-.05-.02-.05-.05-.05c-.07,0,.06.18.14.2.09.02.11,0,.07-.06h0ZM9.96,35.91c.09-.09.07-.11-.12-.11-.1,0-.14,0-.09.02.05.01.08.05.08.09,0,.08.06.09.13.01ZM10.88,35.85s-.06-.07-.11-.09c-.11-.03-.11-.01-.04.1.06.1.19.08.15-.02h0ZM10.56,35.59s.07-.03.07-.07c0-.05-.03-.06-.11-.05-.06.01-.13.02-.16.02-.08,0-.07.15.01.15.04,0,.07.03.08.06,0,.03.01.02.03-.02s.05-.08.09-.08h0ZM10.73,35.09c.06-.06.09-.12.06-.12s-.06.02-.06.05-.05.05-.12.05c-.11,0-.15.05-.09.11.05.05.09.04.2-.09h0ZM9.8,34.93c.03-.11-.04-.12-.13-.03-.05.05-.05.08-.01.12.06.06.11.04.14-.08h0ZM11.4,34.77c.01-.07,0-.14-.06-.19-.07-.07-.1-.07-.21,0l-.13.07.15.03c.08.02.14.05.12.08-.03.05,0,.14.07.14.02,0,.05-.05.06-.12h0ZM10.35,33.57c0-.06-.03-.08-.09-.06-.08.02-.08.04-.04.11.06.1.14.07.14-.05h0ZM11.54,33.52c.03-.11-.05-.17-.12-.1-.05.05-.02.2.05.2.02,0,.05-.04.07-.09ZM11.61,33.14c-.03-.05-.07-.07-.08-.05s-.07.03-.13.02c-.17-.04-.14.02.04.07.22.06.23.06.17-.04h0ZM10.79,33.01c.09.03.09,0,0-.12-.07-.1-.11-.1-.11-.02,0,.03-.02.1-.04.15-.02.07-.02.08.01.03.03-.04.08-.05.12-.04h0ZM11.79,32.9s0-.05-.02-.05-.05-.04-.05-.08c0-.07,0-.07-.07.01-.05.07-.05.1-.01.13.08.05.11.04.15-.01h0ZM9.82,32.52c.05-.08.05-.11,0-.14-.1-.06-.15-.05-.09.03.05.06.05.08,0,.14-.03.04-.04.07-.02.07s.07-.05.1-.1h0ZM10.02,31.79c-.1-.13-.33-.18-.33-.07,0,.03.02.05.04.04.07-.04.2.02.16.08-.02.03,0,.04.05.02.04-.02.08,0,.08.02s.02.05.05.05,0-.06-.05-.13h0ZM9.6,31.38s-.03-.09-.07-.12c-.06-.05-.07-.04-.07.03,0,.05.01.11.03.12.05.05.11.03.11-.03ZM11.71,31.26c.11-.11.12-.14.02-.14-.04,0-.07-.02-.07-.05s-.04-.05-.08-.05c-.05,0-.06.01-.03.03.07.05.12.2.07.2-.03,0-.05.02-.05.05,0,.07.04.06.14-.05h0ZM11.24,30.64c.06-.04.06-.05-.01-.05-.05,0-.1-.03-.11-.07-.03-.08-.11-.1-.11-.02,0,.05.1.18.14.18.01,0,.06-.02.09-.04h0ZM9.65,30.37s-.05-.04,0-.09c.04-.05.04-.06-.02-.04-.04.02-.09.06-.1.1-.03.09.07.17.14.1.03-.03.03-.06-.01-.07ZM12.12,30.15s-.02-.07-.04-.07-.04-.02-.04-.05.02-.03.05-.02c.03.02.04.01.02-.02-.04-.06-.17-.07-.26,0-.06.03-.04.05.06.09.07.03.13.07.13.1s.02.05.04.05.04-.03.04-.07h0ZM9.69,30.05c.05-.09.05-.13,0-.17-.03-.03-.07-.04-.09-.02-.02.02,0,.05.02.06s.06.04.06.07-.02.03-.05.02c-.07-.04-.14.02-.11.1.04.1.09.09.16-.05h0ZM9.95,29.94s0-.06-.05-.08c-.07-.03-.07-.03,0-.09.1-.07.06-.14-.05-.09-.07.03-.1.22-.04.28.05.05.1.04.13-.02ZM11.91,29.69c-.07-.07-.19,0-.16.1.02.09.03.09.11.02.05-.05.07-.09.05-.12ZM11.83,29.42c.02-.05.01-.14,0-.2-.03-.09-.02-.1.04-.04.07.06.08.05.08-.03s.03-.09.2-.08h.2s-.21-.03-.21-.03c-.12-.02-.23-.02-.25,0-.02.02-.07.03-.1.01-.05-.02-.05.02-.03.17.02.14,0,.21-.04.24-.05.03-.05.04.01.04.04,0,.09-.04.11-.09h0ZM10.03,28.22c.07-.02.13-.06.13-.1,0-.09-.08-.08-.11,0-.02.06-.08.07-.26.05-.14-.01-.26,0-.31.03-.06.04-.03.05.17.05.14,0,.31-.02.38-.04h0ZM10.72,28.01s0-.06-.06-.03c-.04.02-.12.03-.17.03s-.09.02-.09.04c0,.07.3.03.32-.04h0ZM11.1,27.77s.04-.04.09-.02c.12.04.12-.02.01-.1-.07-.05-.09-.04-.16.04-.1.12-.1.13-.01.13.04,0,.07-.02.07-.05h0ZM9.95,27.58c0-.17-.11-.19-.17-.04-.05.13-.03.18.09.18.06,0,.08-.03.08-.14ZM9.85,27.3s0-.05-.04-.05-.07-.03-.07-.07c0-.05.03-.06.09-.04.06.02.09.01.07-.03-.01-.03-.06-.06-.11-.06-.07,0-.09.04-.1.15-.01.11,0,.15.06.15.04,0,.08-.02.1-.05h0ZM10.04,26.84c.06-.04.06-.31.01-.37-.02-.02-.07,0-.11.03-.04.03-.12.05-.17.03-.07-.02-.09,0-.07.05.01.04.03.09.03.11,0,.07.1.05.2-.04.09-.08.09-.08.04.02-.09.17-.06.26.07.17h0ZM3.36,26.66s.11-.07.16-.07.09-.02.09-.05.03-.03.07-.02c.05.02.07,0,.07-.07,0-.09,0-.1-.2-.02-.19.07-.3.1-.38.11-.03,0,.06.19.1.19,0,0,.05-.03.09-.07h0ZM9.63,26.57c-.02-.12.08-.21.13-.12.04.06.16.06.16,0,0-.03-.03-.03-.07-.02-.04.02-.07,0-.07-.04,0-.11-.18-.13-.21-.03-.02.07-.05.08-.09.04-.04-.03-.08-.02-.14.05-.1.12-.1.21,0,.17.04-.01.12,0,.18.02s.11.04.12.05,0-.05,0-.11h0ZM3.95,26.42l.05-.13.03.12c.03.1.03.11.06.03.08-.2.01-.31-.18-.31-.08,0-.13.18-.07.29.03.06.03.09-.01.11-.05.02-.05.02,0,.03.03,0,.08-.05.11-.13h0ZM12.66,26.48s-.04-.06-.12-.04c-.09.02-.12,0-.12-.05,0-.11-.08-.1-.11.02-.03.1.02.13.21.14.08,0,.13-.02.13-.06h0ZM3.07,26.06c.03-.16.02-.28-.03-.24-.07.07-.1.34-.05.34.03,0,.06-.05.07-.11ZM11.06,25.98s0-.07-.06-.13c-.13-.14-.15-.11-.08.11.03.1.06.15.08.12.01-.04.04-.08.06-.09h0ZM10.23,25.89c.08-.09.08-.09-.02-.09-.06,0-.1-.01-.08-.03.04-.04-.08-.16-.16-.16-.05,0-.05,0,0,.04.1.07.2.28.13.31-.04.01-.04.02,0,.03.03,0,.09-.04.14-.09h0ZM5.35,25.66s0-.04-.04-.08c-.08-.1-.19-.09-.19.02,0,.08.1.1.23.06ZM10.81,25.6c-.01-.05,0-.08.01-.07.05.03.19-.02.19-.08,0-.03-.05-.03-.11-.02-.08.02-.13,0-.19-.08-.07-.09-.08-.09-.08-.02,0,.05.02.08.05.08s.04.02.04.03c-.02.11.01.25.06.25.03,0,.04-.04.03-.09h0ZM5.48,25.18c0-.1-.01-.19-.03-.19s-.03.1-.03.21c0,.26.06.23.06-.03ZM12.74,25.28s-.07-.04-.05-.07c.02-.03,0-.03-.05,0-.07.06-.08.05-.08-.01,0-.04-.04-.08-.09-.08-.05,0-.09.03-.09.06,0,.07.27.17.38.13.06-.02.06-.03-.01-.04h0ZM11.01,25.25s-.04-.08-.09-.1c-.05-.02-.09-.06-.09-.1s.02-.06.05-.04.05,0,.05-.02c0-.11-.18-.05-.2.07-.02.1,0,.12.09.12.07,0,.11.03.11.07,0,.04.02.07.05.07s.05-.03.05-.07h0ZM6.26,25.18c-.02-.07-.04-.08-.07-.05-.03.03-.06.03-.1-.02-.08-.1-.26-.14-.26-.05,0,.04.03.08.06.08.03,0,.08,0,.11.01.03,0,.09.03.14.06.13.08.16.07.13-.04h0ZM5.03,25.02c0-.12-.06-.16-.12-.07-.04.06,0,.19.07.19.03,0,.05-.05.05-.12h0ZM6.49,25c.06-.11.02-.24-.07-.24-.08,0-.09.08,0,.11.03.01,0,.02-.07.01-.07,0-.15,0-.19.03-.05.03-.05.04,0,.03.14-.01.19,0,.19.07,0,.1.08.09.14-.02h0ZM6.77,24.74s-.05-.04-.05,0c0,.03-.04.06-.08.06-.07,0-.07,0,.01.07.08.06.1.06.13,0,.02-.04.02-.09-.01-.12h0ZM6.04,24.85c.04-.06.03-.07-.11-.11-.1-.03-.1-.03-.05.06.07.11.11.12.16.05h0ZM11.08,24.76s.05-.03.04-.07c-.02-.04-.06-.06-.1-.05-.04.01-.05,0-.04-.02.02-.03,0-.05-.02-.05s-.04-.02-.03-.04-.02-.04-.08-.03c-.12,0-.18.16-.06.16.04,0,.07.03.07.08,0,.05.03.07.07.05.04-.02.1-.03.14-.03h0ZM6.74,24.65s.03-.02.03-.07.03-.1.06-.1c.08,0-.06-.09-.15-.09-.05,0-.05.01,0,.07.07.09.02.17-.1.17-.05,0-.08.02-.06.05.02.03.06.03.11,0,.05-.03.1-.03.11-.02h0ZM12.94,24.48s-.02-.06-.05-.07c-.03-.02-.04-.05-.02-.07.01-.02.04-.03.06-.02.02.01.04-.02.04-.07,0-.06-.02-.09-.07-.09-.07,0-.07,0,0,.05.05.04,0,.04-.16.02l-.24-.03.18.1c.12.06.17.12.15.17-.01.04,0,.07.04.07.04,0,.07-.02.07-.04h0ZM5.59,24.4s.08-.06.1-.04.04,0,.04-.03-.04-.05-.09-.03c-.05.01-.12,0-.16-.02-.06-.03-.07-.02-.07.08,0,.13.08.15.17.05ZM10.06,24.19c0-.12-.02-.13-.14-.13-.15,0-.21.06-.13.11.03.02.08,0,.12-.03s.08-.05.09-.03c.04.04-.12.18-.2.18-.04,0-.07.02-.07.04s.07.03.16.02c.14-.02.16-.03.16-.15h0ZM4.04,24.13s-.03-.09-.06-.12c-.04-.04-.04-.06,0-.06.05,0,.05-.01.01-.05-.03-.03-.08-.04-.1-.02-.07.04-.06.25,0,.28.1.04.13.03.13-.03h0ZM10.95,24.07s.14,0,.22-.01l.14-.04-.13-.03c-.07-.02-.12-.05-.1-.08s-.03-.05-.09-.05c-.08,0-.12.03-.12.07,0,.05-.03.06-.09.04-.08-.03-.09-.02-.04.09.04.09.06.1.09.05.02-.04.07-.06.12-.04h0ZM7.28,23.9s.05-.04.08-.04c.06,0,.06-.02,0-.1-.05-.08-.05-.1,0-.14.04-.03.05-.05.01-.07-.03-.02-.05-.01-.05,0s-.06.07-.13.11c-.1.06-.15.06-.21.03-.13-.08-.15,0-.04.16.08.11.13.14.21.11.06-.02.11-.05.12-.07h0ZM4.84,23.75c-.04-.05-.04-.07,0-.09.03-.01.01-.03-.04-.03-.06,0-.13-.04-.15-.09-.04-.07-.06-.07-.1-.01-.07.11-.03.21.08.23.06,0,.12.05.14.09.02.05.04.06.08.02s.03-.07,0-.12h0ZM11.14,23.18c0-.36-.06-.47-.16-.34-.04.05-.05.11-.03.14.02.03.05.09.07.14.03.08.01.08-.1.06-.12-.03-.12-.03-.06.05.06.08.24.25.27.25,0,0,0-.14,0-.3h0ZM10.08,23.26s.04-.05,0-.05c-.04,0-.02-.05.05-.13.06-.08.14-.12.18-.11.06.02.06.02,0-.05-.06-.07-.08-.06-.21.07-.08.08-.14.17-.13.2,0,.03,0,.07-.03.08-.03.02-.05,0-.05-.06s-.04-.1-.1-.11c-.1-.02-.11-.11,0-.1.09.01,0-.06-.13-.1-.1-.03-.11-.02-.09.1.01.1.04.14.13.15.07,0,.1.04.09.08-.01.03-.01.07,0,.09.04.04.26,0,.31-.06h0ZM6.2,23.21s-.04-.09-.09-.15c-.11-.13-.2-.07-.14.09.04.1.23.15.23.06ZM6.84,23.07s-.08-.09-.08-.12c0-.03-.02-.04-.06-.02-.04.02-.09.03-.11.03s-.03.04-.03.1c0,.08.02.09.13.07.08-.02.13,0,.13.02,0,.03.02.04.05.02.04-.02.03-.05-.03-.1h0ZM8.18,22.96c0-.09-.13-.04-.2.07l-.07.11.14-.07c.08-.04.14-.09.14-.11h0ZM4.83,22.91c-.08-.05-.09-.05-.17,0-.06.04-.06.06,0,.12.06.07.07.07.15,0,.07-.06.07-.09.03-.12ZM13.43,22.94s.06-.05.05-.07c-.01-.02-.05-.03-.07-.02-.02.01-.04,0-.04-.05s0-.07-.02-.07-.05-.01-.09-.03c-.1-.04-.14.16-.04.21.09.05.12.06.22.02h0ZM4.63,22.82s.01-.04-.02-.02c-.08.05-.07-.05.02-.13.07-.07.06-.08-.02-.17-.12-.13-.27-.09-.19.05.05.09.04.09-.07.07-.09-.02-.12-.01-.12.05,0,.04.03.07.06.06s.11.02.17.07c.13.1.13.1.17.03h0ZM10,22.8s-.03-.1-.03-.12-.02-.03-.05-.01c-.03.02-.07,0-.09-.03-.04-.06-.14-.03-.14.05,0,.04.22.17.3.18.02,0,.03-.03.01-.07h0ZM11.2,22.66c.05-.06.05-.07-.02-.04-.04.02-.08,0-.08-.02s.04-.05.09-.05.1-.03.1-.06c0-.03.01-.1.02-.14.02-.1-.05-.11-.09-.01-.01.04-.06.06-.1.04-.05-.02-.07,0-.07.09,0,.11.04.27.07.27,0,0,.04-.03.07-.07h0ZM13.42,22.55s-.05-.03,0-.09c.05-.06.05-.07-.03-.04-.05.02-.11.03-.14.03s-.01.04.04.09c.05.05.11.08.14.06.03-.01.02-.03-.01-.05h0ZM5.28,22.41s-.02-.06-.07-.08c-.11-.04-.16,0-.12.07.04.06.15.07.19,0h0ZM11.06,22.13s-.04-.09-.1-.15l-.1-.11v.12c.02.06.06.13.1.15.1.04.09.04.09,0h0ZM6.55,21.99c0-.06.02-.1.06-.1s.06.03.06.07.02.07.05.07c.06,0,.06-.12,0-.24-.06-.11-.25-.12-.33-.02-.03.04-.04.07-.01.07.08,0,.11.15.05.22-.05.06-.04.07.03.05.06-.01.09-.06.09-.12h0ZM5.45,21.94s-.06-.06-.14-.09c-.16-.06-.17-.04-.07.06.08.08.21.1.21.03h0ZM6.06,21.7c0-.08-.02-.15-.05-.17-.03-.02-.04-.01-.02.02.04.07-.06.13-.13.06-.07-.07-.29-.07-.24,0,.02.03.05.04.07.02.02-.01.08.03.12.09.11.17.26.16.26-.02ZM5.43,21.6c-.05-.08-.33-.2-.35-.15,0,.03-.04.04-.06.02-.05-.03-.37.08-.37.12,0,.03.33-.02.41-.07.03-.02.08,0,.11.04.04.05.04.07,0,.07-.03,0-.05.02-.05.05s.03.03.07.02.08,0,.1.03c.02.03.05.03.1-.02.04-.04.06-.09.04-.12h0ZM6.77,21.62s-.03-.1-.07-.14c-.08-.08-.22-.09-.22-.01,0,.03-.03.04-.08.02-.08-.03-.21.04-.21.12,0,.02.05.04.12.04s.12-.02.12-.05c0-.07.18-.05.21.02.04.09.12.09.12,0h0ZM9.71,21.56s0-.05-.02-.05-.04-.03-.02-.07c.02-.05,0-.07-.07-.06-.06,0-.09.03-.07.07.01.03.02.08.02.11,0,.06.13.06.16,0h0ZM5.3,21.34c-.06-.03-.17-.05-.23-.03-.1.03-.09.03.08.08.22.07.32.03.15-.05h0ZM6.96,21.41s.03-.04.07-.02c.04.02.06,0,.05-.01s0-.06.02-.07c.05-.03.02-.12-.04-.12-.07,0-.25.19-.22.23.04.06.12.06.12,0h0ZM8.39,21.24c.04-.1.04-.11-.04-.11-.08,0-.14.08-.1.14.04.07.1.06.14-.03h0ZM5.38,21.18c.07-.07.07-.1.02-.1-.23-.03-.33-.02-.33.01,0,.02.06.03.13.01.11-.03.12-.02.07.03-.03.03-.06.08-.06.1,0,.07.08.04.16-.06h0ZM7.05,21.13s.04-.02.03-.05c-.02-.03-.05-.04-.08,0-.03.03-.08.04-.11.02-.04-.02-.06.01-.06.08,0,.1,0,.1.09.03.05-.04.11-.08.14-.08h0ZM6.31,20.98s-.03-.11-.03-.18c0-.08,0-.09-.02-.03-.01.05-.05.08-.09.06-.05-.02-.06,0-.04.08.02.06.05.11.07.12.02,0,.04.05.04.09,0,.07,0,.07.05,0,.03-.05.03-.11.01-.14h0ZM5.15,20.87c-.08-.06-.11-.26-.03-.26.03,0,.05.03.05.07s.02.08.05.1c.06.04.04-.18-.03-.23-.03-.02-.02-.03.01-.03.03,0,.06-.02.06-.05s-.04-.05-.09-.05c-.1,0-.13-.07-.03-.11.03-.01.01-.02-.04-.02-.11,0-.12.07-.01.16.04.03.06.07.04.09s-.08,0-.13-.05c-.08-.07-.09-.08-.09-.01,0,.04.02.09.05.1.06.04.06.21,0,.21-.02,0-.05-.03-.06-.06s-.04-.04-.06-.02c-.05.05.08.13.16.1.03-.01.08.02.11.07.03.05.07.08.1.06.03-.02.03-.05-.03-.09h0ZM9.26,20.84c-.17-.05-.23-.04-.2,0,.02.03.05.04.07.02s.04,0,.04.05c0,.06.01.06.1.01.09-.06.09-.06-.01-.09h0ZM6.68,20.88s.02-.07.05-.08c.03-.01.03-.06,0-.16-.03-.08-.05-.16-.05-.18s-.02-.03-.06-.03-.07.03-.07.06c0,.04-.04.06-.12.04-.11-.02-.12-.01-.07.1.03.07.03.15.02.18-.02.03,0,.04.03.03.04-.01.07-.07.08-.12.02-.11.04-.12.14-.06.04.03.05.05.01.07-.06.04-.07.22,0,.22.03,0,.05-.03.05-.07h0ZM7.13,20.87s0-.06.04-.04c.03.01.07,0,.09-.04.02-.04-.02-.06-.11-.06-.15,0-.15,0-.09.12.06.11.11.12.08.02h0ZM5.92,20.57c0-.09-.09-.13-.16-.06-.04.04.05.16.12.16.02,0,.04-.04.04-.09ZM11.67,20.64s-.06-.05-.14-.09c-.11-.06-.14-.06-.14,0,0,.03.03.07.06.09.08.03.22.04.22.01h0ZM5.66,20.3c-.07-.05-.09-.05-.11,0-.01.03.02.09.07.12.07.05.09.05.11,0,.01-.03-.02-.09-.07-.12ZM7.45,20.3s-.07-.08-.05-.11c.02-.03-.01-.05-.08-.05-.06,0-.08.01-.05.03s.06.05.06.09c0,.1.16.24.18.16.01-.03-.02-.09-.06-.12ZM6.04,20.28c.04.07.1.06.14-.02.03-.07-.24-.24-.29-.19-.01.01,0,.02.03.02s.06.02.06.05-.04.05-.1.05c-.08,0-.09.01-.03.07.04.04.08.05.12.02.03-.03.07-.03.08,0h0ZM5.77,20.12s.05-.08.03-.14c-.02-.08-.01-.09.05-.07.1.04.1-.02-.02-.14-.17-.17-.22-.2-.29-.16-.07.05-.07.05.11.13.14.06.17.15.06.15-.06,0-.08.06-.07.17,0,.02-.02.05-.06.07-.05.03-.04.04.03.03.05,0,.12-.03.15-.05h0ZM6.84,20.14s.07-.03.14,0c.1.04.17.02.17-.04,0-.05-.28-.15-.33-.12-.03.02-.04.06-.02.1.02.06,0,.06-.1,0-.14-.09-.18-.08-.13.04.03.08.23.11.28.03h0ZM11.86,19.97c0-.09-.13-.18-.16-.12-.02.03-.02.08,0,.11.03.08.17.08.17,0h0ZM7.15,19.81s-.04-.11-.08-.15c-.07-.06-.08-.05-.05.02.02.04.01.09-.01.11-.03.02-.02.05.01.09.07.08.13.05.13-.07h0ZM7.49,19.66c-.05-.09-.15-.03-.15.08s0,.11.09.03c.05-.05.08-.1.07-.12h0ZM5.37,19.74s0-.08-.02-.1c-.06-.04-.06-.12.01-.12.03,0,.06-.05.06-.11,0-.08-.02-.11-.09-.1-.06,0-.09.04-.08.1,0,.05.01.16.02.24,0,.16.06.2.1.08h0ZM6.05,19.51c0-.06-.05-.1-.1-.11-.05,0-.06,0-.01.01.1.03.04.16-.08.16-.05,0-.08.02-.07.04.01.02.08.03.15.02.09-.02.12-.05.11-.12h0ZM6.3,19.29s.03-.05.06-.05c.04,0,.06-.04.04-.12-.03-.13-.11-.11-.11.03,0,.05-.02.09-.05.09s-.05.02-.05.05.02.05.05.05.05-.02.05-.05h0ZM7.98,19.13c0-.12-.05-.16-.1-.08-.03.05.02.19.06.19.02,0,.04-.05.04-.12h0ZM7.97,18.9s.05-.08.03-.1c-.02-.02.02-.02.08,0,.11.03.11.03.03-.04-.09-.08-.23-.05-.21.04,0,.03-.02.08-.06.11-.05.04-.06.06-.01.06.03,0,.09-.03.13-.06h0ZM7.9,18.6s.03-.11.06-.14c.04-.04.04-.06-.02-.06s-.07-.03-.05-.13c.03-.1.02-.12-.04-.1-.05.02-.07,0-.05-.04.01-.04,0-.07-.02-.07-.08,0-.1.06-.05.16.08.15.09.31.01.31-.06,0-.06.07-.02.23.01.05.19-.1.19-.17h0ZM6.63,18.22s.06-.03.13-.02l.13.02-.13-.12c-.07-.07-.13-.14-.13-.17s-.02-.05-.05-.05-.04.03-.02.08c.02.04,0,.1-.03.12-.04.03-.05.04,0,.04.03,0,.05.03.03.07-.01.04,0,.07.03.07s.05-.02.05-.04h0ZM8.07,17.62c-.01-.09-.21-.25-.3-.25-.07,0-.08.13-.01.23.03.06.06.06.1.01.08-.08.13-.07.13.01,0,.04.02.07.04.07s.04-.03.03-.08ZM6.4,17.46c-.02-.14-.07-.18-.12-.1-.03.05.08.29.12.26.02,0,.02-.08,0-.16h0ZM8.63,17.53c.08-.04.11-.08.07-.1-.04-.03-.04-.04,0-.07.03-.02.04-.06.03-.09-.04-.07-.17-.07-.16,0,0,.03,0,.09,0,.13,0,.06-.02.05-.06-.01-.03-.05-.09-.08-.14-.08-.11,0-.12.07-.02.11.04.01.07.06.07.1,0,.09.05.09.21,0h0ZM7.16,17.48c.01-.05-.27-.09-.37-.05-.04.01-.06.05-.04.08.04.06.4.03.41-.03ZM.43,17.12c-.04-.07-.12-.04-.1.03.02.06,0,.07-.08.04-.1-.03-.1-.03-.01.04.09.07.1.07.15,0,.03-.04.05-.09.03-.12h0ZM7.52,17.17s-.03-.05-.06-.05c-.04,0-.04-.02.01-.05.06-.04.06-.05,0-.09-.05-.03-.02-.06.13-.1.2-.05.31-.14.18-.14-.04,0-.07.02-.07.03s-.05.04-.12.04c-.2.01-.26.06-.26.18,0,.09-.02.11-.07.09-.04-.02-.07,0-.07.05,0,.06.04.08.16.08.09,0,.16-.02.16-.05h0ZM6.98,17.1s-.08-.07-.14-.07c-.1,0-.1.01-.05.07.08.09.23.09.2,0h0ZM8.74,16.97c-.01-.08,0-.1.07-.09.05,0,.08,0,.08-.03s-.05-.05-.12-.05c-.07,0-.11.02-.09.05.02.03-.01.06-.07.08-.16.04-.11.12.1.15.02,0,.03-.04.02-.1h0ZM7.13,16.88c-.01-.08-.02-.16-.03-.18,0-.01,0-.04,0-.06s-.02-.02-.05,0c-.03.02-.07,0-.1-.03-.04-.05-.04-.05-.02.01.02.05,0,.09-.07.11-.05.02-.09.07-.09.12,0,.11.08.12.12.02.04-.09.16-.04.16.07,0,.05.02.09.05.09s.04-.07.03-.15h0ZM8.62,16.78c.08-.06.08-.06,0-.1-.05-.02-.09,0-.1.02,0,.03-.05.05-.08.05s-.07.02-.07.05c0,.07.15.06.25-.02h0ZM8.78,16.49s-.03-.06-.09-.04c-.06.02-.08.01-.06-.02.02-.03,0-.05-.04-.05-.1,0-.15.1-.07.15.1.07.26.05.26-.03ZM.74,16.37c0-.08-.02-.13-.05-.11-.03.02-.05.06-.05.09s-.04.09-.08.11c-.07.04-.06.05.05.05.11,0,.13-.02.13-.14ZM7.02,16.44s-.07-.21-.14-.21c-.04,0-.04.03,0,.12.06.12.09.14.14.09h0ZM7.86,16.35c.05-.06.05-.08,0-.12-.09-.06-.19-.06-.19,0,0,.02-.01.08-.03.12-.04.1.14.1.22,0h0ZM8.96,16.33s.06-.03.09-.02c.1.04.12-.15.03-.21-.06-.04-.12-.03-.24.04-.08.05-.18.08-.22.07-.03-.01-.08,0-.1.03-.02.03.02.04.12.03.1-.01.16,0,.18.04.03.07.09.08.13.02h0ZM7.73,16.04c-.06-.06-.49-.19-.49-.15,0,.05.29.17.42.18.06,0,.09-.01.07-.03ZM9.31,15.9s-.03-.04-.07-.02c-.06.02-.07,0-.04-.08.03-.1.03-.1-.04-.01-.04.05-.07.08-.07.06s-.03-.02-.06,0c-.04.02-.03.05.03.07.14.05.26.05.26,0h0ZM9.31,15.67s.03-.02-.03-.07c-.08-.06-.13-.06-.2-.02-.12.06-.07.16.06.12.06-.01.13-.03.17-.03h0ZM7.99,15.58c0-.06-.14-.25-.19-.25-.08,0-.05.18.04.23.1.06.15.06.15.01ZM8.01,15.22c.02-.05,0-.06-.08-.05-.06.01-.12.02-.14.02-.02,0-.03.02,0,.05.04.07.2.06.23-.02h0ZM9.3,15.25s.05-.07.03-.12c-.03-.08-.11-.11-.11-.03,0,.02-.01.08-.03.12-.03.08.02.1.11.03h0ZM10.13,14.84c.05-.12.03-.16-.05-.16-.07,0-.07,0-.01.04.11.07.02.11-.09.05-.09-.05-.1-.05-.05.04.06.12.17.13.21.02h0ZM9.48,14.61c-.02-.06,0-.06.08-.04.12.03.11.05.08-.44,0-.14-.1-.14-.1,0,0,.06-.02.13-.05.15-.03.02-.04.06-.03.1.01.04,0,.07-.02.07s-.05.03-.05.07c0,.05-.03.06-.08.04-.07-.02-.06-.01.01.05.12.1.18.1.15,0h0ZM10.15,14.58s.04-.08.03-.12c-.01-.04,0-.09.04-.11.05-.03.05-.04-.02-.04-.06,0-.08.04-.08.11,0,.09-.02.11-.09.09-.07-.02-.09,0-.09.05,0,.09.14.1.22.02h0ZM9.91,13.86s.01-.06.12-.06c.08,0,.15-.02.17-.05.01-.04-.03-.06-.15-.06s-.17-.02-.17-.07c0-.08-.13-.09-.24-.02-.06.04-.05.05.03.05.1,0,.23.11.18.15-.02.02-.01.05,0,.08.04.07.09.06.06-.01h0ZM5.19,13.76c.02-.05,0-.07-.09-.07-.12,0-.16.07-.06.11.1.04.12.03.15-.04ZM4.12,13.63s-.03-.04.03-.07c.04-.02.08-.06.08-.1,0-.13-.18.02-.2.17-.02.12-.01.13.06.09.06-.04.07-.06.03-.09h0ZM10.21,13.49c.05-.06.09-.08.09-.05s.02.05.05.05.03-.04.02-.08c-.02-.08-.02-.08.04,0,.09.11.12.1.11-.03,0-.08-.03-.12-.08-.12-.04,0-.09-.03-.1-.07-.01-.04-.06-.07-.09-.07s-.1.03-.15.07c-.09.07-.09.07,0,.14.05.04.07.09.05.13-.03.04-.05.04-.09-.02-.05-.07-.06-.07-.08,0-.01.04,0,.09.05.12.11.06.1.06.2-.05h0ZM4.46,13.32c.08-.05.03-.15-.08-.14-.05,0-.06.01-.02.03.05.02.04.04-.02.09-.07.05-.07.06-.01.07.04,0,.1-.02.14-.04ZM10.44,13.01s.05-.09.03-.1-.03,0-.03.03c0,.06-.22.05-.33-.02-.03-.02-.05,0-.05.07,0,.08.03.1.16.1.09,0,.19-.03.22-.07h0ZM9.86,12.95c.03-.08-.07-.17-.13-.13-.05.03,0,.21.06.21.02,0,.06-.03.07-.08h0ZM9.14,12.88c.04-.16.04-.23-.02-.2-.03.02-.1,0-.17-.05-.11-.07-.12-.07-.09,0,.02.04.06.08.1.08s.06.02.06.03c-.02.1.01.25.05.25.02,0,.05-.05.07-.11h0ZM4.66,12.88c-.08-.08-.07-.15.02-.08.04.03.09.04.11.02.02-.02,0-.05-.02-.06s-.06-.05-.06-.09c0-.05-.02-.05-.1.03-.08.08-.09.11-.04.17.03.04.08.07.11.07.03,0,.03-.02,0-.06h0ZM5.77,12.83s-.01-.08-.06-.08c-.09,0-.14.08-.1.14.04.07.14.03.15-.07h0ZM6.8,12.79c.05-.06.06-.09.03-.07-.07.04-.08-.05-.01-.09.03-.02.03-.05.02-.08-.02-.03-.05-.02-.07.03-.02.04-.08.08-.13.08-.05,0-.08.04-.09.1,0,.07.01.09.06.07.04-.01.07,0,.07.02,0,.07.02.06.12-.06h0ZM10.89,12.74c.07-.03.12-.08.12-.12,0-.08-.04-.08-.13.01-.07.07-.08.07-.11-.02-.04-.1-.04-.1-.13-.02-.05.04-.1.09-.1.1,0,.01.15.08.22.1,0,0,.06-.02.13-.05h0ZM3.05,12.46s-.04-.06-.03-.09c.02-.03,0-.04-.04-.02-.1.04-.09.14,0,.2.1.05.15-.03.06-.09ZM5.66,12.49s0-.07.05-.07c.07,0,.07,0,0-.07-.08-.08-.14-.09-.1-.02.02.03,0,.07-.03.09-.03.02-.04.06-.03.09.05.08.12.06.09-.02h0ZM10.58,12.45c0-.08.15-.22.24-.22.07,0,.23-.23.23-.34,0-.07-.1-.04-.13.04-.04.11-.16.22-.22.22-.03,0-.08.07-.12.15-.04.08-.1.15-.13.15-.03,0-.05.02-.03.05.03.06.17,0,.17-.06h0ZM3.9,12.44c0-.06-.06-.09-.11-.06,0,0-.05-.02-.09-.05-.07-.06-.08-.05-.06.05.01.06.02.11.02.11,0,0,.06,0,.12.01.08,0,.12-.01.12-.06h0ZM11.01,12.42c.06-.1,0-.16-.11-.12q-.08.03-.05.13c.04.1.1.09.16-.02h0ZM6.88,12.28s.08-.03.14-.02c.09.02.12,0,.12-.06,0-.1-.13-.15-.21-.07-.06.05-.07.03-.07-.11,0-.13-.02-.17-.09-.2-.1-.03-.13-.12-.04-.12.03,0,.04-.01.03-.02-.04-.04-.18.03-.15.08.01.02,0,.04-.05.04-.1,0-.09.06.02.13.08.05.09.05.1,0,0-.03.03,0,.06.08.03.08.05.18.04.22-.02.08.06.12.1.04h0ZM8.92,12.13s.07-.1.05-.12c-.04-.04-.32.13-.32.2,0,.08.17.03.26-.08h0ZM6.49,12.07c.13.08.19.06.11-.03-.05-.05-.11-.08-.14-.07-.03.01-.08,0-.11-.03-.04-.04-.05-.03-.05.04,0,.12.05.18.1.11.02-.03.06-.04.1-.01h0ZM7.19,11.8c0-.05-.19-.23-.25-.23-.02,0-.03.02-.03.05s.03.05.08.05.06.01.05.03c-.04.04.05.16.12.16.02,0,.04-.02.04-.05h0ZM7.85,11.78c-.05-.06-.04-.08.02-.1.04-.02.06-.05.05-.07-.04-.07-.16.05-.16.15,0,.05.03.09.08.09.06,0,.07-.01.02-.07h0ZM11.08,11.69c.18-.23.12-.25-.12-.02-.16.15-.18.19-.1.19.05,0,.15-.07.22-.17h0ZM7.43,11.72c0-.07-.11-.15-.21-.15-.09,0-.09,0,.01.09.12.1.2.12.2.06ZM7.59,11.59c0-.09.04-.13.1-.13.05,0,.09-.03.1-.06.01-.03,0-.06-.04-.06-.04,0-.03-.03.02-.09.08-.09.08-.09-.02-.06-.05.01-.1.05-.1.09,0,.04-.04.05-.11.03-.06-.01-.09,0-.07.01s.01.07-.02.1c-.04.04-.03.1.01.2.07.16.09.16.11-.03h0ZM4.68,11.54c-.02-.15-.05-.18-.14-.15-.1.04-.09.13,0,.13.05,0,.07.03.05.07-.02.04,0,.07.04.07.04,0,.06-.04.05-.12h0ZM5.64,11.55c0-.09-.02-.11-.09-.1-.15.02-.17.08-.07.15.13.09.17.08.17-.05h0ZM3.47,11.5s.02-.07.05-.07.05-.04.05-.08c0-.07,0-.07-.04-.02-.02.04-.06.05-.09.03-.07-.04-.11.04-.07.13.04.09.11.1.11,0h0ZM11.11,11.28c.05.01.09-.02.1-.09.02-.1.02-.09.03.02,0,.15.1.18.1.02v-.11s.05.11.05.11c.03.06.08.1.13.1.05,0,.06-.01.02-.03-.03-.01-.05-.04-.04-.06.04-.06-.04-.13-.2-.16-.1-.02-.15-.01-.15.02s-.05.04-.12.02c-.07-.02-.12,0-.12.02s-.03.05-.07.05-.07-.03-.07-.07c0-.1-.07-.09-.08.02,0,.05.02.12.06.15.1.08.08.15-.03.12-.09-.02-.09-.02-.02.06.08.09.08.09.2-.06.07-.09.16-.15.2-.14h0ZM8.23,11.1s.04-.06.09-.07c.05-.02.09-.05.09-.07s-.04-.04-.09-.04-.09.02-.09.05-.04.08-.08.12c-.08.06-.08.06,0,.06.05,0,.08-.02.08-.04h0ZM8.64,10.82s.06.02.04.05,0,.05.02.05.05-.04.05-.1c0-.07-.03-.09-.08-.08-.09.01-.15.08-.15.15,0,.03.01.02.03-.01.01-.03.06-.06.09-.06h0ZM4.6,10.8c0-.07-.11-.13-.16-.09-.06.06-.02.15.07.15.05,0,.09-.03.09-.07ZM11.32,10.79c-.02-.05.01-.07.14-.07.12,0,.16.02.16.07,0,.06.02.06.1.02.08-.04.09-.06.03-.12-.04-.04-.09-.07-.12-.07s-.05-.04-.05-.09c0-.08.02-.09.18-.07l.18.02-.11-.09c-.13-.11-.32-.09-.4.04-.03.05-.08.09-.11.09s-.05.03-.03.07c.03.09-.08.1-.16.01-.05-.05-.07-.04-.1.01-.07.11-.06.13.06.11.06-.01.13.01.17.05.08.09.12.1.08,0h0ZM6.32,10.67s.02-.05.08-.05c.06,0,.08-.01.05-.03-.03-.01-.06-.06-.06-.1,0-.06-.01-.06-.07-.01-.06.05-.08.04-.1-.01-.01-.04-.06-.08-.1-.1-.05-.02-.06,0-.04.08.02.06.05.11.07.12.02,0,.04.05.04.08s.03.07.07.07.06-.02.04-.05h0ZM9.93,10.51s-.12-.07-.19-.07-.15-.02-.16-.05,0-.05.05-.05.07-.01.05-.03c-.02-.02-.09,0-.17.03-.18.08-.32.03-.24-.07.03-.04.05-.08.03-.1-.02-.02-.04,0-.06.05-.02.04-.07.08-.12.08-.18,0-.08.09.13.12.12.02.24.04.27.06.03.01.1.02.17.01s.14,0,.16.04c.02.03.05.05.08.05.03,0,.03-.03,0-.07h0ZM12.03,10.26s-.08-.05-.11-.04c-.03.01-.09,0-.12-.02-.05-.03-.05-.04,0-.04.03,0,.06-.02.06-.05s-.04-.05-.09-.05-.09.03-.09.07.04.08.09.1c.05.02.09.05.09.07s.05.04.12.03c.09,0,.1-.02.06-.07h0ZM10.96,9.98c0-.09-.22-.07-.25.02-.02.04,0,.1.02.13.03.03.05.03.05,0,0-.03.02-.06.05-.06s.04.02.02.05-.01.07,0,.11c.03.06.09-.08.11-.24h0ZM6.2,9.93s-.15-.2-.2-.2c-.02,0-.01.03.03.07.04.04.06.1.05.14-.02.05,0,.06.05.04.04-.02.08-.04.08-.06ZM12.13,9.92s0-.02-.09-.04c-.18-.04-.22-.03-.17.05.02.03.06.04.1.03.04-.01.1-.03.15-.03ZM11.48,9.75v-.17l-.18.03c-.17.03-.33.12-.21.12.03,0,.06.03.06.07,0,.07.08.1.25.12.06,0,.08-.03.08-.16ZM10.32,9.7s.02.02.01-.03c0-.07-.05-.09-.15-.1-.08,0-.16-.01-.19-.02-.13-.03-.13,0,0,.09.09.06.17.07.22.05.05-.03.09-.02.1.02h0ZM12.11,9.59c.08-.03.13-.03.15,0,.04.06.21.06.21,0,0-.03-.04-.05-.08-.05-.08,0-.08,0,0-.05.12-.07.05-.14-.09-.11-.08.02-.11,0-.11-.03,0-.05-.01-.05-.07,0-.06.05-.07.04-.07-.02,0-.04.03-.08.07-.08s.07-.04.07-.08c0-.05-.01-.06-.03-.03-.02.03-.09.07-.16.08-.09.02-.13.06-.13.12,0,.05-.02.1-.05.12-.03.02-.03.05,0,.1.06.08.13.08.3.02h0ZM6.63,9.52s-.01-.05-.03-.09c-.04-.09-.11-.1-.11,0,0,.04-.03.08-.06.09s0,.03.07.03.13,0,.13-.02h0ZM6.14,9.34s.07,0,.07-.03-.02-.04-.05-.03-.05,0-.05-.02.03-.05.06-.05c.03,0,.02-.03-.03-.07-.05-.04-.08-.07-.06-.07s.02-.02,0-.05c-.02-.03-.06-.03-.1.01-.06.05-.08.05-.09,0-.03-.08-.11-.07-.11.01,0,.04-.03.06-.07.04-.04-.02-.07,0-.07.05,0,.04.02.07.03.07s.1,0,.19.03c.12.03.15.06.13.11-.02.06-.02.06.03.02.03-.03.08-.04.12-.03h0ZM12.57,9.27s0-.11,0-.14.04-.07.1-.08c.08-.02.09-.04.05-.09-.08-.08-.08-.23,0-.23.04,0,.03-.02-.01-.05-.06-.04-.06-.05.01-.05.05,0,.08-.02.08-.05,0-.05-.13-.01-.23.06-.04.03-.12.04-.2.04-.1-.01-.15.01-.19.09-.04.08-.04.11,0,.13.03,0,.05.04.05.07s.04.08.08.11c.05.04.06.06.02.06-.08,0,.08.19.16.19.03,0,.06-.04.07-.08h0ZM6.33,8.9s-.08-.06-.12-.06c-.06,0-.06,0-.01.04.03.02.06.06.06.08,0,.02.01.07.03.11.02.05.03.05.06-.02.02-.05.01-.12-.01-.15h0ZM11.95,9.04s-.1-.11-.19-.11c-.04,0-.12.04-.18.09l-.11.09.23-.03c.13-.02.24-.04.25-.05h0ZM12.38,8.41c.02-.17-.08-.25-.17-.13-.03.04-.08.08-.12.1-.05.02-.05.04.03.06.06.02.11.05.11.07s.03.04.07.04.07-.06.09-.15h0ZM12.6,8.5c.03.05.06.05.14-.02.07-.06.09-.1.05-.15-.07-.08-.13-.08-.13,0,0,.04-.02.07-.05.07s-.05-.04-.05-.08c0-.07,0-.07-.05-.01-.03.04-.05.11-.05.16,0,.08,0,.08.05.02.04-.06.05-.06.09,0ZM6.97,7.49s-.05-.05-.03-.08c.01-.03-.03-.08-.08-.1s-.1-.07-.09-.11,0-.06-.03-.06-.05.03-.05.07-.02.07-.05.07c-.11,0-.04.09.09.12.08.02.14.05.14.07s.04.04.08.04c.05,0,.06-.01.03-.03h0ZM6.8,6.79s.05-.06.07-.04c.02.01.04,0,.04-.05s-.02-.07-.04-.07c-.11,0-.19.06-.19.15,0,.11.09.12.12.02h0ZM8.26,4.46s-.08-.05-.08-.07c.01-.11,0-.17-.04-.17-.05,0-.04.14,0,.22.02.03.07.06.12.06.07,0,.07,0,0-.04h0ZM10.5,40.95c.02-.07.32-.1.32-.03,0,.02-.04.04-.09.04s-.13.01-.17.03c-.06.02-.07.01-.06-.03h0ZM9.06,37.72c-.04-.07.07-.18.24-.23.06-.02.11-.05.11-.07s.02-.03.05-.01c.08.05-.03.15-.19.19-.07.02-.14.07-.15.11-.01.06-.02.07-.05.02h0ZM9.24,32.53s-.07-.04-.11-.02c-.05.02-.04-.01.04-.09.06-.07.1-.13.08-.15-.02-.02-.06,0-.09.05-.05.07-.08.08-.15.03-.09-.05-.09-.05.01-.05.12,0,.18-.15.09-.24-.04-.04-.03-.05.03-.02.1.04.14.13.16.36.02.18,0,.22-.05.13h0ZM11.86,32.48c-.1-.06-.1-.24,0-.24.05,0,.08.04.08.14,0,.08,0,.14,0,.14,0,0-.03-.02-.07-.05h0ZM11.83,32.06s-.02-.06,0-.07c.04-.04.22.03.22.08,0,.06-.18.06-.21,0ZM11.85,30.97c-.06-.04-.03-.06.06-.05.02,0,.03-.02.03-.04s.04-.05.08-.04c.05,0,.06.01.02.03-.03.01-.05.04-.04.06.04.06-.09.09-.17.04h0ZM12.27,29.43s-.08-.04-.08-.07.01-.04.03-.02.06,0,.1-.02c.05-.04.08-.04.11.01.08.12.04.14-.16.1ZM2.97,24.92s0-.08-.02-.1c-.07-.05-.05-.12.04-.12.07,0,.07,0,.01.05s-.06.05.01.05c.09,0,.09,0,.05.11-.02.04-.05.07-.08.07s-.03-.03-.02-.07ZM13.12,24.64c.02-.1.03-.1.09-.05.09.09.08.15-.02.15-.07,0-.08-.02-.07-.11h0ZM3.4,24.15c-.05-.02-.13-.03-.16-.02-.06.02-.06.01,0-.02.04-.03.05-.07.03-.1-.02-.03,0-.05.05-.05.05,0,.07.03.05.07-.02.05,0,.07.09.07.06,0,.12.02.12.05,0,.05-.03.06-.16,0h0ZM9.03,23.6s-.02-.06-.05-.04c-.03.02-.03-.01,0-.08.02-.06.07-.1.12-.09.04,0,.08,0,.08-.03,0-.09.07-.05.13.07.03.06.03.12.01.12s-.04-.02-.04-.04-.04-.04-.08-.03c-.05,0-.1.02-.11.02-.02,0-.02.05,0,.1.01.05.01.09,0,.09s-.03-.03-.03-.07h0ZM9.31,20.59s.02-.07.05-.07.04-.02.02-.05c-.02-.03,0-.03.04-.02.09.03.09.05,0,.14-.09.09-.12.08-.12,0h0ZM5.94,17.1l-.04-.14c-.03-.1.03-.09.13.02.07.08.07.09,0,.09-.04,0-.06.02-.04.05.02.03.02.05,0,.05s-.04-.03-.05-.07h0ZM9.93,8.86c0-.08.02-.12.06-.11.03.01.06.06.06.11s-.03.1-.06.11c-.04.01-.06-.03-.06-.11ZM10.11,8.73s-.07-.04-.15-.04h-.15s.14-.04.14-.04c.08-.02.15-.01.17.01s.07.03.13.02c.05-.01.11,0,.12.03.01.04-.02.06-.11.05-.08,0-.14-.02-.14-.04ZM10.46,8.46c-.01-.14.09-.2.16-.09.02.03.01.04-.02.02-.03-.02-.05,0-.05.06,0,.08.02.09.12.07.07-.02.12,0,.12.02,0,.03-.07.05-.15.05-.14,0-.15-.02-.16-.14h0ZM13.32,8.17s-.03-.04-.07-.02c-.04.02-.1-.01-.13-.07-.03-.05-.08-.09-.11-.09-.07,0-.12-.18-.06-.21.02-.01.04,0,.04.05,0,.09,0,.09.19,0,.14-.07.16-.07.19,0,.02.04.09.06.17.06.07,0,.1,0,.05,0-.09.03-.16.16-.08.16.03,0,.05.02.05.05s-.04.04-.09.02c-.07-.02-.09-.01-.07.04.02.04,0,.07-.02.07s-.05-.02-.05-.05h0ZM11.88,7.77c-.05-.01-.12-.06-.15-.11-.05-.09-.05-.09.07-.06.08.02.12.01.09-.02-.02-.03-.01-.06.01-.08.02-.01.06,0,.08.03.04.07.06.28.02.27-.01,0-.07-.01-.12-.03h0Z"/>
    </g>
  </g>
</svg>