<?xml version="1.0" encoding="UTF-8"?>
<svg id="Layer_2" data-name="Layer 2" xmlns="http://www.w3.org/2000/svg" viewBox="0 0 48 35.4">
  <g id="Layer_1-2" data-name="Layer 1">
    <g id="uuid-1b447380-b996-48db-a490-81b7e23ba5ff" data-name="Layer 1-2">
      <g>
        <path d="M45.75,14.11c.2.18.63.39.34.68-.18-.25-.39-.32-.61-.21.26.25.52.49.77.72.02-.02.05-.04.07-.06-.08-.15-.16-.31-.24-.46.67.19.55,1.35.73,1.96.07.67.83.95.88,1.68-.79.93.83,1.91.14,2.7-.34.37-.81.27-1.21.38-.48-.15.04-.61-.68-1.16-.02.98-.01,1.16-.77,1.85-.31.28-.61.52-.74.98-.58.93-1.66,1.62-2.37,2.49.24,0,.37-.16.51-.3.71-.74,1.81-.99,2.23-2.02.31-.42.41-1.07.93-1.27.83,1.71-1.96,3.46-2.99,4.57-5.17,5.59-12.65,8.52-20.19,8.73-6.48.36-12.75-2.23-17.3-6.82-1.78-2.01-4.51-3.47-5.25-6.18.22-.14.52-.29.58-.55-.29-.44.27-.81.08-1.25-.12-.28-.06-.59.08-.87.24-.75.86-1.21,1.34-1.77.19-.62.74-.96,1.06-1.47.34-.5.7-1,1.28-1.24.48-.45.76-1.12,1.39-1.44.88-.42,1.31-1.42,2.19-1.77.48-.18.48-.28.28-.76-1.05-1.42-2.11-2.85-3.27-4.21-.34-.49-.94-1.04-.45-1.66.46-.64.11-1.41-.12-2.1.16,0,.28-.01.41-.02-.01-.52.38-.92-.04-1.45.11.05.22.1.37.17.99-4.16,5.09,5.6,6.58,5.82.05.24-.04.55.28.71.04.02-.02.23-.03.4-.32-.09-.58-.16-.85-.24.27,1.76,2.09-.6,3.02-.64.87-.57,2.25.16,2.42-1.28-.53-.63-1.58-2.03-1.17-2.87.09.02.17.04.26.07.89-1.73-.17-2.08.33-2.67.08-.07-.02-.34-.04-.51.15-.07.3-.14.5-.23.24.05.21.51.57.46-.22.21-.16.38.06.54.23-.25-.03-.37-.07-.53.18-.41-.21-.59-.39-.86.75-.14,1.33.4,1.41,1.08.41.65.64,1.37.91,2.09.12.38.34.78.22,1.2-.19.54.19.95.39,1.39.06.14.76.25.89.14.69-.52,1.52-.18,2.26-.51.15-.1.48.05.76.09.12-.59,0-1.19.51-1.61.17-.25,0-.73-.19-1.03h.26c.17-.61.33-1.2.5-1.81.31.21.61.19.9-.07-.1-.32-.36-.65.05-1.04.27.94.55,1.74.92,2.61.31.71.03,2.58.89,2.73.12,0,.25.16.31.21-.04.19-.06.34-.09.49-.2.02-.41.03-.61.05,0,.04-.02.08-.03.12.1.05.24.18.31.15.4-.16.77.12,1.15.06.73-.08,1.31.47,2.04.3-.5-.65.91-.37,1.17-1.98.07.13.1.19.13.25.75-1.27.71-2.77,1.63-4.07.1.33.16.53.27.87.11-.54.39-.75.84-.83-.04.35-.07.73-.13,1.26.57-.73.55-1.61,1.18-2.29.32,1.43-2.41,4.82-1.02,5.57-.15.32-.29.62-.45.97.58.24,1.09.69,1.78.75-.67.24-1.25-.35-1.94-.23-.03.14-.06.29-.07.38.2.25.4.42.54.65,1.1.42,2.1.86,3.23,1.23-.08.18-.14.32-.23.52.19.1.44.22.71.36.15-.39-.25-.36-.29-.58.59-.15.7-.8,1.22-1.07,1.65-1.25,2.57-3.23,4.22-4.56.28.16.54.23.78.2-.31.34-.64.64-.68,1.07.22-.19.46-.38.69-.58.03.02.05.04.08.06-.08.19-.16.38-.25.6.12.09.24.18.36.26-.09.48-.77.73-.47,1.36.01.03-.03.07-.04.11l-.28,1.05c.73,1.22-.73,2.07-1.32,2.98.14,1.21,1.46,1.22,2.17,2.02.4.45,1.22.44,1.56.99h0ZM15.17,27.95c.06.02.12.05.18.07.13.39.63.33.94.54-.02.05-.03.1-.05.15-.74-.18-1.48-.36-2.21-.54.44.47,1.1.42,1.54.86.11.08.3.2.35.16.56-.21.95.63,1.72.22-.5-.32-1.38-.22-1.23-.96.58.08,1.16.17,1.81.26-.59-.73-.76-1.51-1.49-2.08-.27-.25-.35-.5-.18-.81-.29-.18-.43-.52-.43-1.02.08.16.13.25.18.34.08-1.23-.37-.89-.67-1.75.17.14.3.25.42.35-.61-2.65-.27-5.31.13-7.96.58-.87,1.1-1.8,1.36-2.82-4.73.89-8.79,3.79-12.35,6.9.67.73,1.44,1.27,1.98,2.02-.03.03-.06.06-.09.09-.67-.66-1.34-1.32-2-1.97-.89.56,1.49,1.89,1.73,2.59.06.07.15.18.22.17.54,0,.69.59,1.06.88.14.14.34.24.18.5,0,.02.23.19.35.28.14.11-.08.26.12.44.47.67,1.53.86,1.59,1.79-1.31-.1-2.09-2.22-3.42-2.17,1.26,1.19,2.61,2.15,4.04,3.03,0-.31-.26-.44-.47-.61.36.11.71.24,1.09.12.34.14.67.29,1.01.43.03-.03.05-.07.08-.1-.3-.38-.63-.73-.97-1.06,1.12.64,2.18,1.67,3.5,1.66h0ZM17.67,33.36c-.38-.3-.42-.29-.51.18.46-.25.89-.17,1.37-.13,0-.05,0-.1,0-.15-.29.03-.58.06-.86.09ZM37.26,29.79c.44-.29.91-.25.8-.98-.51.36-1,.71-1.48,1.05.02.03.04.05.05.08.12-.01.23-.02.35-.04-.04.07-.09.13-.17.27.3-.04.46-.11.46-.38h0ZM40.85,16.57c-3.33-1.79-6.75-3.48-10.51-4.11-.06.24.12.54-.28.55-.17-.21-.35-.43-.53-.64.27,1.23.62,2.42.78,3.66.34-.77-.26-1.66.05-2.41.21.27.44.6.36.81-.15.38.23.72,0,1.07.39,1.46-.69,2.81-.39,4.34.1-.04.15-.06.25-.11-.03.19-.05.36-.07.53-.06-.01-.12-.03-.18-.04.06,3.02-.95,6.02-2.81,8.41,1.52-.15,2.73-.88,4.22-.98.52.02,1-.15,1.28-.67.71-.62,1.82-.74,2.66-1.15,1.76-.81,2.94-2.26,4.5-3.33,1.37-1.34,3.16-2.4,4.06-4.13-.65-.26-3.05-2.68-3.38-1.8h0ZM24.03,17.9c.03.59.06,1.13.09,1.71,2.03-1.09,1.63-1.55.64-3.3-.35.59-.13,1.34-.73,1.59ZM27.78,20.2c.24-.63.49-1.26.32-2.07-.49.73-.41,1.4-.32,2.07ZM20.51,6.4c.41.25,1.33.11,1.9-.26-.31-.08-.59.11-.92-.03-.22-.1-.61.17-.98.29ZM9.74,6.55c-.06.67.44.95.89,1.26-.3-.42-.59-.84-.89-1.26ZM40.87,27.09c.23-.39.67-.47.75-.94-.43.16-.73.37-.75.94ZM19.65,6.75c.23-.03.45-.06.66-.08,0-.04,0-.09,0-.13-.21-.07-.42-.15-.67-.23v.45h0ZM16.09,33.19c.26.12.52.31.93.14-.34-.26-.65-.12-.93-.14ZM23.23,6.38c.2-.02.4-.05.66-.08-.26-.15-.46-.29-.66.08ZM6.52,23.43s.06-.08.09-.11c-.17-.14-.34-.29-.51-.43-.04.04-.07.09-.11.13l.53.42h0ZM45.54,20.05s.08-.07.12-.1c-.03-.21-.12-.35-.51-.38.18.22.29.35.39.48h0ZM36.65,9.3c.15.2.23.31.35.46.08-.11.13-.18.19-.28-.17-.06-.3-.1-.54-.18h0ZM6.07,23.6s-.03.04-.04.06c.12.09.25.18.37.26.02-.03.04-.06.06-.09-.13-.08-.26-.16-.39-.23ZM42,12.43s.02-.06.03-.09c-.12-.05-.24-.1-.36-.16-.01.04-.03.07-.04.1.12.05.25.09.37.14ZM33.63,7.67c.05.21.14.36.42.2-.18-.09-.3-.14-.42-.2h0ZM21.54,30.66s0,.05,0,.08c.14-.01.29-.02.43-.04,0-.02,0-.04,0-.06-.14,0-.29.01-.43.02ZM25.68,1.91s.08-.04.11-.06c-.06-.1-.12-.2-.18-.3-.03.01-.05.02-.08.03.05.11.09.22.14.33h0ZM19.67,33.56s0-.08,0-.12h-.44s0,.04,0,.06c.15.02.29.04.44.05h0ZM20.95,33.2s0,.04,0,.05h.44s0-.04,0-.05h-.44ZM4.75,21.93s.06-.05.09-.07c-.07-.07-.14-.13-.22-.2-.02.02-.03.03-.05.05.06.07.12.15.18.22h0ZM26.99,5.67c0,.05-.02.11-.02.16h.32s0-.08.01-.11c-.1-.02-.21-.03-.32-.05h0Z"/>
        <path d="M46.28,13.62c-.68-.67-1.47-1.74-2.5-1.69-.13.05-.34-.11-.49-.28.14-.02.28-.04.47-.07-.19-.18-.35-.33-.52-.48,1.02.15,4.48,2.57,4.4,3.73-.53-.49-.68-1.12-1.36-1.22h0s0,0,0,0Z"/>
        <path d="M19.67,2.41c-.31-.76-.62-1.51-.95-2.3.61.32,1.18,1.74.95,2.3Z"/>
        <path d="M27.11,4.73c-.05-.2-.09-.41-.14-.61.06,0,.11-.02.17-.03.01.21.03.42.04.63-.02,0-.05,0-.07.01Z"/>
        <path d="M8.32,1.87c.17.16.33.32.5.47l-.13.11c-.13-.19-.26-.38-.39-.57l.02-.02Z"/>
        <path d="M45.75,14.11c-.08-.1-.17-.2-.25-.31.14-.24.21,0,.28.05.1.08.15.19-.03.25h0Z"/>
        <path d="M36.54,8.71c-.17-.05-.34-.09-.51-.14,0-.02,0-.04,0-.05.18,0,.36.02.54.05,0,.05-.01.09-.02.14h0Z"/>
        <path d="M8.3,1.88c-.16-.15-.32-.31-.47-.46.03-.03.06-.06.09-.09.15.17.35.27.4.53l-.02.02Z"/>
        <path d="M44.22,12.54c.08.13.17.27.25.41-.23-.06-.31-.2-.25-.41h0s0,0,0,0Z"/>
        <path d="M42.96,10.85c-.11-.04-.22-.08-.34-.12.01-.04.02-.08.03-.13.12.03.25.06.37.09-.02.05-.05.11-.07.16h0Z"/>
        <path d="M46.28,13.61c.09.14.17.28.32.53-.25-.18-.47-.24-.32-.52,0,0,0,0,0,0Z"/>
        <path d="M34.31,8.09s-.02-.04-.03-.06c.1-.04.2-.08.3-.12.01.04.02.09.03.13-.1.01-.21.03-.31.04h0Z"/>
        <path d="M28.1,5.48c.17.02.34.03.5.05,0,.03,0,.06,0,.09h-.52s.01-.09.02-.14h0Z"/>
        <path d="M44.23,12.54c-.19.04-.32-.02-.37-.24.12.08.24.16.36.24,0,0,0,0,0,0h0Z"/>
        <path d="M11.56,7.06c.07.12.14.24.21.36-.02.01-.05.03-.07.04-.08-.12-.15-.23-.23-.35.03-.02.06-.03.09-.05h0Z"/>
        <path d="M15.01,27.91c-.06-.07-.12-.14-.22-.25.23-.05.41,0,.38.28-.05-.01-.1-.03-.15-.04h0Z"/>
        <path d="M15.17,27.95s0-.07,0-.1c.14.02.31-.04.34.15-.12.04-.23,0-.34-.05h0Z"/>
        <path d="M11.68,26.31c-.35.26.01.45.1.68-.09.02-.17.03-.24.04-.13-.14-.27-.28-.37-.39.18-.83-1.32-1.05-1.89-1.53,1.13-.13,1.62.69,2.4,1.19h0Z"/>
        <path d="M7.72,22.4c.19.16.38.32.57.48l-.09.1c-.19-.16-.38-.32-.57-.47.03-.04.06-.08.1-.11Z"/>
        <path d="M11.66,25.77c.15.1.29.19.44.29-.02.03-.04.07-.07.1-.15-.1-.3-.2-.44-.3.02-.03.05-.06.07-.08Z"/>
      </g>
    </g>
  </g>
</svg>