<?xml version="1.0" encoding="UTF-8"?>
<svg id="Layer_2" data-name="Layer 2" xmlns="http://www.w3.org/2000/svg" viewBox="0 0 48 38.67">
  <defs>
    <style>
      .cls-1 {
        fill: #231815;
      }

      .cls-2 {
        fill: #fff;
      }
    </style>
  </defs>
  <g id="Layer_1-2" data-name="Layer 1">
    <g>
      <path class="cls-2" d="M42.98,38.67c3.14-4.06,5.02-9.14,5.02-14.67C48,10.74,37.26,0,24,0S0,10.74,0,24c0,5.53,1.87,10.62,5.02,14.67h37.97Z"/>
      <path class="cls-1" d="M24,11c-7.18,0-13,5.82-13,13s5.82,13,13,13,13-5.82,13-13-5.82-13-13-13ZM20.11,18.37c-1.53,0-2.76-1.24-2.76-2.76s1.24-2.76,2.76-2.76,2.76,1.24,2.76,2.76-1.24,2.76-2.76,2.76Z"/>
      <path class="cls-2" d="M20.11,12.83c-1.53,0-2.76,1.24-2.76,2.76s1.24,2.76,2.76,2.76,2.76-1.24,2.76-2.76-1.24-2.76-2.76-2.76Z"/>
    </g>
  </g>
</svg>