<?xml version="1.0" encoding="UTF-8"?>
<svg id="Layer_2" data-name="Layer 2" xmlns="http://www.w3.org/2000/svg" viewBox="0 0 48 26.6">
  <g id="Layer_1-2" data-name="Layer 1">
    <g id="_ÎÓÈ_1" data-name=" ÎÓÈ 1">
      <g>
        <path d="M17.15,11.76c.63-.78,1.4-1.53,1.59-2.56.12-.62-.05-1.26-.43-1.76-.58-.77-1.45-1.23-2.24-1.74-1.57-1.03-3.15-2.09-4.92-2.76-1.89-.72-4.03-1.02-6-.43C2.17,3.39-.61,6.31.12,9.62c.36,1.63,1.59,2.94,3,3.76,1.87,1.09,4.12,1.44,6.26,1.26,1.09-.09,2.16-.3,3.21-.6.94-.27,1.87-.58,2.75-1.02,1.59-.81,3.05-2.18,3.26-4.04.05-.44,0-.88-.1-1.31-.04-.14-.32-.27-.43-.31-.23-.1-.52-.16-.78-.17-.24,0-.89-.02-.79.36.41,1.63-.61,3.23-1.87,4.17-.64.48-1.42.84-2.2,1.13-.44.16-.81.28-1.19.39-.47.13-.95.25-1.43.35-.23.05-.46.09-.69.12-.06,0-.12.02-.18.03-.16.02-.04,0,0,0-.15.02-.29.03-.44.04-.22.02-.44.03-.66.04-.07,0-.15,0-.22,0-.05,0-.18.02.03,0-.13.01-.27,0-.4-.01-.11,0-.22-.01-.33-.02-.07,0-.3,0-.02,0-.05,0-.1-.01-.14-.02-.12-.02-.24-.04-.36-.06-.05,0-.1-.02-.14-.03-.05,0-.1-.02-.14-.03.13.03.17.04.1.02-.18-.05-.35-.09-.53-.15-.15-.05.06.02.07.03-.05-.02-.11-.04-.16-.06-.09-.03-.18-.07-.27-.11-.09-.04-.18-.08-.26-.12-.03-.01-.08-.03-.1-.05.18.12.04.02-.01,0-.17-.09-.34-.18-.5-.29-.08-.05-.16-.1-.24-.16-.03-.02-.06-.04-.09-.07.12.09.01,0-.02-.01-.16-.12-.31-.25-.46-.38-.55-.5-.93-1.01-1.24-1.71-.58-1.31-.44-2.78.21-4.06.31-.61.77-1.19,1.27-1.67.55-.53,1.07-.9,1.74-1.22.17-.08.34-.16.51-.23.08-.03.16-.06.24-.09.04-.02.09-.03.13-.05.18-.06-.14.04.04-.01.17-.05.34-.09.52-.13.08-.02.16-.03.25-.05.05,0,.12-.03.17-.02-.03,0-.06,0-.1.01.04,0,.09,0,.13-.01.19-.02.38-.03.57-.03.22,0-.22,0,0,0,.04,0,.08,0,.13,0,.12,0,.25.02.37.03.08,0,.16.05-.09-.01.05.01.1.01.15.02.09.01.18.03.28.04.07.01.43.11.1.02.11.03.22.05.33.08.09.02.18.05.27.08.06.02.12.04.18.06.14.04-.05-.03-.06-.02.04-.04.53.2.59.22.2.08.39.17.58.26.04.02.08.04.12.05-.19-.1,0,0,.03.02.1.05.19.1.29.15.77.41,1.51.87,2.25,1.35.37.24.74.48,1.1.72.16.11.33.21.49.32.09.06.18.12.27.18.04.02.08.05.12.07.04.03.08.05.12.08.06.04.08.05.04.03-.07-.05.1.08.09.07.03.03.07.05.1.08.08.06.15.13.22.2.07.07.13.13.19.2.01.01.06.08,0,.01.03.04.06.08.09.12.08.13.16.27.21.41.02.06.04.12.06.18,0,.03.02.07.02.1.03.13,0-.08,0,.05.03.26,0,.53-.06.79-.03.12-.07.24-.12.36-.02.05-.05.11-.07.16-.02.04-.03.07-.05.11,0,.02-.06.12-.02.04-.24.42-.54.8-.86,1.16-.11.13-.22.25-.33.38-.25.31.43.55.63.6.25.07.53.11.79.09.16-.01.4-.02.51-.16h0Z"/>
        <path d="M5.88,7.96c.17-.09.35-.17.54-.23.09-.03.19-.05.28-.08.13-.03-.2.03,0,0,.06,0,.13-.02.19-.03.18-.02.37-.03.56-.03.06,0,.22,0,0,0,.04,0,.09,0,.13,0,.11,0,.22.02.33.03.43.05.85.14,1.26.24.07.02.15,0-.05-.01.04,0,.09.02.13.03.1.03.19.05.29.08.21.06.41.12.61.19.1.03.19.07.28.11.05.02.1.04.15.06.07.03.14.1-.07-.03.08.05.18.09.26.14.05.03.09.06.14.09.16.1-.13-.11-.03-.03.07.06.14.12.2.18.12.12-.05-.04-.05-.06,0,.03.08.09.1.12.03.04.06.08.09.12.09.12-.05-.04-.03-.05.01,0,.11.24.12.27.06.15,0-.04,0-.04.02.02.03.11.03.14,0,.05.01.1.02.14.02.12-.02-.03,0-.03,0,0-.02.22-.02.23,0,.05-.03.09-.03.14-.02.05,0,.04.02-.05-.01.03-.02.05-.03.08-.04.08-.08.15-.13.22-.02.03-.05.06-.07.09-.1.15.08-.07,0,0-.14.13-.27.25-.43.35-.03.02-.07.04-.1.06-.16.1.11-.05,0,0-.08.04-.16.08-.24.11-.19.08-.38.14-.58.19-.05.01-.11.03-.16.04.03,0,.18-.03.02,0-.09.01-.17.03-.26.04-.22.03-.43.04-.65.04-.04,0-.09,0-.13,0-.22,0,.15.01,0,0-.1,0-.2-.01-.3-.02-.21-.02-.42-.05-.62-.09-.1-.02-.2-.04-.29-.06-.04,0-.09-.02-.13-.03.23.05.11.03.05.01-.22-.06-.43-.13-.64-.2-.19-.07-.38-.14-.57-.22-.08-.04-.17-.07-.25-.11-.03-.01-.21-.12-.06-.03.14.09-.02-.01-.06-.03-.37-.18-.74-.38-1.08-.6-.03-.02-.07-.05-.1-.07.23.15.12.09.07.05-.02-.02-.21-.21-.23-.21.01,0,.16.19.05.05-.03-.03-.05-.06-.08-.1,0,0-.07-.1-.07-.1.07.13.09.14.04.06,0-.02-.02-.03-.02-.05,0-.02-.05-.19-.02-.05.03.14,0-.04,0-.06,0-.04,0-.07-.02-.11-.02-.14,0,.02,0,.04.03-.03.02-.2.03-.24.03-.13-.03-.04,0,0-.01-.02.07-.12.08-.14.05-.1.02.04-.03.02,0,0,.06-.05.06-.05.03-.03.12-.06.15-.09-.04.07-.16.08-.07.04.04-.02.08-.04.12-.06.08-.04.16-.07.24-.1.29-.11.59-.21.9-.29.02,0,.04,0,.06-.01.13-.03-.25.05-.09.02.14-.03.29-.06.43-.09.19-.04.39-.09.58-.14.1-.02.19-.05.29-.07.04,0,.08-.02.12-.03.18-.04-.15.03.01,0,.19-.03.37-.06.56-.06.46,0,.72-.48.53-.88-.23-.48-.73-.75-1.25-.75-.44,0-.87.12-1.29.22-.19.05-.38.09-.57.14-.08.02-.17.03-.25.06.21-.07.12-.02.05-.01-.09.02-.18.04-.27.05-.3.07-.6.17-.89.28-.3.11-.67.24-.91.46-.4.36-.53.89-.48,1.41.06.6.39,1.11.8,1.53.35.37.79.65,1.23.89.47.26.96.5,1.46.71.89.38,1.86.66,2.83.74,1,.08,2.06,0,2.98-.44.47-.22.87-.5,1.2-.9.32-.39.45-.89.43-1.39-.04-1.11-.92-2.07-1.83-2.58-.51-.29-1.06-.49-1.62-.65-.58-.16-1.16-.32-1.76-.42-1.1-.19-2.33-.19-3.35.33-.19.1-.34.2-.38.43-.04.21.06.46.18.62.16.21.39.39.64.47.21.07.5.13.7.03h0Z"/>
        <path d="M7.99,6.88c-.7.46-1.33,1.04-1.68,1.81-.31.68-.42,1.37-.29,2.11.02.11.22.13.3.13.18,0,.38-.03.55-.09.36-.12.76-.32.99-.65.67-.99,1.24-2.04,1.71-3.13.04-.1.09-.19,0-.29-.08-.09-.24-.1-.35-.1-.4.02-.86.2-1.17.45-.81.67-1.44,1.51-1.78,2.52-.14.43-.23.87-.24,1.32,0,.18-.01.4.08.56.23.38.76.28,1.11.16,1.15-.37,1.94-1.5,2.43-2.55.2-.44.38-.9.55-1.36.09-.25.19-.51.1-.77-.08-.23-.31-.36-.53-.43-.34-.1-.74-.02-1.07.09-.48.15-.91.42-1.28.76-.41.37-.7.84-.9,1.35-.17.44-.25.92-.18,1.39.02.17.07.33.18.46.24.29.62.32.98.26.76-.14,1.53-.6,1.91-1.28.13-.24.24-.5.34-.76.08-.21.16-.43.19-.65.05-.35,0-.79-.33-.99-.33-.19-.8-.08-1.12.03-.47.16-.88.43-1.24.76-.41.38-.72.88-.88,1.42-.07.24-.1.48-.1.73,0,.25,0,.54.26.68.24.14.64.04.87-.03.36-.12.69-.31.98-.56.23-.2.43-.46.58-.72.27-.48.42-1.02.39-1.57,0-.12-.04-.17-.16-.22-.14-.05-.33-.03-.46,0-.42.09-.8.28-1.11.57-.76.68-1.28,1.63-1.39,2.65-.03.31.44.26.62.22.38-.08.86-.26,1.11-.57.53-.64.94-1.34,1.18-2.14.1-.31-.5-.25-.62-.22-.38.08-.86.26-1.11.57-.26.31-.52.62-.78.93-.07.09-.22.25-.16.38.06.13.28.14.39.14.24-.01.49-.09.71-.19.21-.1.46-.22.62-.41.26-.31.52-.62.78-.93-.58.11-1.15.23-1.73.34-.1.31-.2.56-.36.85-.07.14-.16.27-.24.4-.05.07-.1.15-.15.22-.03.04-.05.07-.08.11.04-.05.04-.05-.01.02.58-.11,1.15-.23,1.73-.34.02-.22.06-.43.12-.64.06-.22.12-.36.21-.53.1-.19.21-.36.33-.53.12-.16-.09.1.04-.05.03-.04.07-.08.1-.12.08-.08.16-.16.25-.24-.58.11-1.15.23-1.73.34.02.36-.03.7-.15,1.04,0,0-.04.09-.02.04-.02.04-.04.08-.05.11-.04.07-.08.15-.13.22-.02.04-.05.07-.07.1-.11.16.05-.05-.02.03-.03.03-.06.06-.08.09-.04.04-.15.11,0,0,.15-.09.3-.18.45-.26-.02,0-.04.02-.05.02.24-.06.48-.13.71-.19.23-.02.18.1.17,0,0-.05-.03-.1-.04-.15,0-.08,0-.16,0-.24,0-.24.05-.47.13-.7.05-.14.12-.29.23-.45.03-.05.07-.1.1-.14-.09.11,0,0,.02-.02.03-.04.07-.07.1-.11.07-.06.06-.05-.03.02.03-.03.07-.05.1-.08-.31.11-.62.21-.93.32h.04s-.04,0-.06,0c.02.01.04.03.06.04-.04-.09.01.03.02.04.01.02.03.05.04.08.07.18.06.29.03.49-.08.44-.27.88-.51,1.25-.1.15.09-.07-.04.05.15-.13.07-.05.03-.03-.22.16.81-.49.97-.31-.03-.03-.09-.05-.12-.08-.04-.04-.13-.31-.14-.4-.04-.44.08-.96.26-1.31.05-.11.11-.21.18-.3.03-.04.06-.09.09-.13.06-.1-.11.11.03-.03.04-.05.09-.09.13-.14.11-.11,0,0-.02.01.02-.01.03-.03.05-.04-.13.1-.27.17-.43.21-.3.04-.38.06-.23.05-.09,0-.1,0-.03.01,0,0-.12-.08,0,0,0,0,.12.09.08.04.06.06.08.14.08.22,0,.24-.16.53-.24.75-.18.49-.35.9-.61,1.36-.12.22-.26.42-.41.62-.12.16.09-.1-.04.05-.04.05-.08.09-.12.14s-.09.09-.13.13c-.03.03-.06.06-.09.08.1-.1.23-.18.37-.23.17-.05.33-.11.5-.16-.02,0-.04,0-.06.01.13,0,.26-.01.4-.02-.1,0,.03,0,.02.02,0,.01-.01-.02-.03-.05-.02-.04-.03-.07-.04-.11,0,0-.02-.07-.01-.03-.02-.17,0-.37.03-.54.04-.38.13-.75.27-1.1.1-.28.29-.61.49-.9.05-.08.11-.15.16-.22-.04.05-.04.05,0,0,.03-.04.07-.08.1-.11.06-.07.13-.13.19-.2.03-.03.06-.06.09-.08.15-.14-.14.12.02-.02-.5.02-1.01.05-1.51.07-.47,1.1-1.04,2.14-1.71,3.13.61-.2,1.22-.4,1.84-.6-.04-.26-.05-.53-.01-.79.03-.27.12-.6.21-.81-.01.03,0,.02.02-.04.02-.03.03-.07.05-.1.03-.07.07-.13.11-.2s.08-.13.12-.19c.01-.02.14-.19.08-.11-.06.07.08-.09.09-.1.05-.06.11-.11.16-.16.07-.06.06-.05-.04.03.03-.02.06-.05.09-.07.05-.04.28-.19.03-.03.16-.1.79-.52.45-.75-.14-.09-.38-.06-.53-.03-.26.05-.52.15-.74.29h0Z"/>
        <path d="M29.62,11.82c-1.7-.43-3.56-.24-5.13.54-1.5.74-2.7,2.03-3.29,3.61-.61,1.66-.58,3.45.09,5.08.66,1.58,1.94,2.92,3.4,3.8,1.75,1.06,3.73,1.59,5.76,1.73,1.88.13,3.81-.06,5.56-.79,1.57-.66,2.94-1.85,3.66-3.41.73-1.55.65-3.3-.12-4.81-.76-1.48-2.06-2.66-3.47-3.52-1.67-1.01-3.55-1.7-5.47-2.03-.52-.09-1.04-.16-1.56-.21-.43-.04-.91.31-.78.78.14.52.65.81,1.16.85.21.02.43.05.64.07.24.03-.16-.03,0,0,.05,0,.09.01.14.02.13.02.26.04.39.07.42.08.84.17,1.25.28.21.06.41.12.62.18.11.04.23.07.34.11.05.02.09.03.13.05.24.08-.22-.08,0,0,.41.16.82.32,1.21.51.34.16.66.34.99.52-.3-.17-.03-.01.04.03.08.05.15.1.22.15.16.11.31.21.46.33.14.11.28.22.42.33.07.06.13.12.2.17.12.11-.05-.04-.06-.05.04.04.09.08.13.12.26.26.51.53.74.82.04.05.08.15.14.18-.13-.09-.09-.13-.02-.03.03.04.05.08.08.12.09.14.18.29.26.44.08.15.15.3.21.46.08.17-.05-.14,0-.03.01.04.03.09.05.13.03.09.06.18.08.27.04.16.08.33.11.49.01.07.02.15.03.22.03.19,0-.13,0,0,0,.06,0,.11,0,.17,0,.36-.03.72-.1,1.07,0,.04-.02.08-.03.11-.04.19.04-.12,0,0-.03.08-.05.17-.08.25-.06.17-.13.35-.21.51-.08.16-.16.32-.25.47-.05.08-.09.15-.14.22-.02.03-.04.07-.07.1-.11.17.1-.13-.02.03-.23.3-.48.58-.76.84-.12.11-.25.22-.39.33-.07.06-.14.11-.22.16-.12.09,0,0,.02-.02-.04.04-.1.07-.15.1-.35.22-.72.42-1.1.58-.18.08-.37.16-.56.21.03,0,.17-.05.02,0-.04.01-.09.03-.13.04-.11.03-.22.06-.32.09-.41.11-.83.18-1.26.24-.09.01-.18.02-.27.03-.05,0-.42.05-.16.02-.21.02-.43.02-.64.03-.42,0-.84,0-1.26-.03-.21-.01-.42-.03-.63-.05-.11-.01-.21-.02-.31-.04-.04,0-.19-.03-.05,0,.16.03-.09-.01-.11-.02-.43-.07-.85-.16-1.26-.27-.2-.05-.4-.12-.6-.18,0,0-.12-.03-.13-.05.04.02.09.03.13.05-.03-.01-.07-.02-.1-.04-.12-.05-.24-.09-.36-.14-.38-.16-.72-.38-1.09-.55.3.14,0,0-.08-.05-.07-.04-.14-.09-.2-.14-.17-.12-.33-.24-.49-.37-.06-.05-.13-.1-.19-.16-.04-.03-.08-.07-.11-.1-.11-.09.18.18.03.03-.14-.13-.27-.27-.4-.41-.12-.13-.23-.26-.33-.39-.06-.08-.12-.16-.18-.24-.04-.05-.07-.14.03.05-.03-.05-.07-.1-.1-.15-.2-.31-.38-.64-.52-.98-.02-.05-.05-.09-.06-.14,0,.02.07.18.02.04-.03-.09-.06-.17-.08-.26-.05-.18-.1-.36-.14-.55-.04-.18-.06-.35-.08-.53,0-.04-.01-.08-.01-.12,0,.19,0,.05,0,0,0-.11,0-.22,0-.33,0-.36.03-.72.09-1.07.02-.1.04-.2.06-.29.01-.07.02-.17.06-.23-.06.1-.03.09,0,.03.01-.05.03-.1.04-.14.03-.1.07-.21.11-.31.13-.34.28-.66.46-.97.05-.09.1-.17.16-.25.02-.03.04-.07.07-.1.08-.12,0,0-.02.02.1-.17.25-.32.38-.46.25-.27.52-.52.81-.74.04-.03.08-.06.12-.09.1-.07,0,.03-.03.02.02,0,.17-.11.2-.13.17-.1.34-.2.52-.29.16-.08.32-.15.49-.22.07-.03.15-.06.22-.08.01,0,.2-.07.06-.02-.13.04.07-.02.09-.03.35-.1.71-.18,1.08-.22.04,0,.08,0,.12-.01.02,0,.22-.03.06,0-.16.02.04,0,.06,0,.04,0,.08,0,.12,0,.2,0,.4,0,.59.01.08,0,.16.01.24.02.04,0,.08,0,.12.01.21.02-.19-.03-.05,0,.19.03.37.07.55.12.39.1,1.03-.03,1.05-.54.02-.52-.46-.91-.92-1.02h0Z"/>
        <path d="M31.05,15.57c-1.16-.17-2.33-.15-3.48.04-.96.16-2.06.46-2.52,1.4-.44.91.06,2.02.62,2.75.59.77,1.37,1.43,2.23,1.89,1.92,1.03,4.2,1.15,6.21.3.47-.2.91-.45,1.28-.8.39-.36.59-.85.64-1.38.1-.91-.33-1.86-.91-2.54-.69-.82-1.63-1.44-2.67-1.72-.56-.15-1.12-.24-1.7-.21-.62.03-1.73.21-1.44,1.1.15.46.79.74,1.25.7.43-.04.83-.31.67-.79-.05.16-.1.33-.16.5-.11.04-.14.05-.08.03.04,0,.07-.01.11-.02.12-.03-.23.02-.04,0,.04,0,.07,0,.11-.01.17-.02.33,0,.5-.01-.31.01-.04,0,.05.01.08,0,.16.02.25.04.04,0,.07.01.11.02.17.03-.11-.02-.11-.03,0-.01.24.07.27.08.08.03.16.05.23.09.04.02.09.03.13.05,0,0-.25-.12-.1-.04.15.08.29.16.43.25.03.02.06.05.09.06-.22-.12-.12-.09-.05-.03.07.05.13.1.19.16.06.05.11.1.16.15.03.03.05.05.08.08.13.13-.12-.14-.01-.01.11.13.21.25.3.39.02.03.04.06.06.09.08.12-.01-.03-.02-.05.04.08.09.16.12.25.08.17.14.35.18.53-.04-.16,0,.06.01.11.01.1.02.21.01.31,0,.04,0,.08,0,.12,0,.19.03-.08,0,.02-.03.09-.04.17-.07.26-.02.05-.13.24-.04.11-.06.09-.12.17-.2.25-.03.03-.06.06-.09.09-.14.14.08-.05-.02.02-.08.05-.16.11-.24.16-.17.1-.35.2-.53.28-.04.02-.08.04-.12.05.17-.05.03-.01-.02,0-.09.04-.19.07-.29.1-.19.06-.39.12-.59.16-.04,0-.09.02-.13.03,0,0-.23.04-.08.02.13-.02-.02,0-.05,0-.06,0-.11.01-.17.02-.2.02-.4.03-.61.03-.05,0-.09,0-.14,0-.23,0,.17.01.02,0-.1,0-.2-.02-.3-.03-.2-.02-.4-.06-.59-.1-.17-.04.07.02.09.02-.04-.01-.08-.02-.12-.03-.1-.03-.2-.06-.29-.09-.08-.03-.15-.05-.23-.09-.08-.03-.38-.19-.09-.03-.16-.09-.33-.16-.49-.26-.07-.04-.14-.08-.21-.13-.03-.02-.07-.05-.1-.07-.18-.12.18.14,0,0-.14-.11-.27-.21-.4-.33-.07-.06-.14-.12-.2-.19-.03-.03-.06-.06-.09-.09-.15-.15.13.16,0,0-.11-.13-.22-.26-.33-.4-.05-.07-.11-.15-.16-.23-.02-.03-.05-.07-.06-.11.08.19,0,0-.01-.03-.08-.16-.13-.32-.18-.49-.03-.11.01.17,0-.01,0-.04-.01-.08-.01-.12,0-.1,0-.19,0-.29,0,.15,0,.06,0,.02.02-.06.03-.11.05-.17.01-.04.03-.07.05-.11-.05.13,0,.02.03-.03.01-.02.19-.21.19-.2.02.03-.12.08-.02.02.05-.03.1-.06.15-.09.03-.02.07-.04.1-.05.04-.02.07-.03.11-.05-.03.01-.06.03-.09.04.06.01.22-.08.28-.09.21-.06.43-.11.65-.15.06-.01.12-.02.18-.03.09-.01.15-.03.03,0,.12-.03.25-.03.37-.05.26-.03.52-.04.79-.05.13,0,.25,0,.38,0,.05,0,.1,0,.15,0,.07,0,.05,0-.07,0,.04,0,.07,0,.11,0,.26.02.52.05.78.09.37.06,1.01-.09.97-.59-.05-.5-.59-.81-1.04-.88h0Z"/>
        <path d="M30.14,15.88c-.42.26-.78.54-1.09.93-.31.38-.54.78-.71,1.24-.33.85-.36,1.81-.11,2.68.1.34.36.64.69.78.28.12.65.13.88-.1.85-.82,1.47-1.83,1.8-2.96.07-.25.14-.51.17-.77.07-.6-.09-1.13-.57-1.52-.6-.49-1.48-.34-1.98.21-.83.92-1.33,2.17-1.33,3.42,0,.82.47,1.63,1.28,1.87.79.23,1.42-.29,1.82-.91.37-.58.69-1.19.9-1.85.11-.34.16-.7.16-1.06,0-.45-.13-.86-.3-1.26-.12-.28-.43-.49-.71-.58-.23-.07-.59-.08-.76.13-.5.59-.86,1.21-1.13,1.94-.24.66-.35,1.39-.34,2.1.01.59.21,1.12.69,1.48.41.3.95.35,1.41.16.67-.28,1.12-.99,1.45-1.61.38-.71.63-1.49.72-2.28.05-.43-.1-.88-.48-1.13-.14-.09-.3-.16-.46-.2-.19-.04-.51,0-.65.16-.82.94-1.39,2.08-1.53,3.33-.05.49.15.94.59,1.19.37.21.91.22,1.14-.21.57-1.03.85-2.2.82-3.38-.01-.4-.28-.77-.61-.96-.27-.16-.75-.24-.99.03-.7.79-1.08,1.77-1.03,2.83.03.5.44,1.03.96,1.09.49.06.92-.26.89-.78,0-.1,0-.19,0-.28,0-.03.01-.17,0-.04-.01.13,0-.02,0-.04.03-.19.07-.37.13-.55,0-.02.05-.16.01-.04-.04.11.01-.02.02-.04.04-.09.08-.17.13-.25.04-.07.09-.15.14-.22.03-.04.06-.09.09-.13.07-.1-.14.16,0,0-.54-.31-1.07-.62-1.61-.93,0,.12,0,.23,0,.35,0,.07,0,.14,0,.21,0,.17.02-.1,0,0-.03.24-.07.48-.13.72-.05.22-.11.46-.21.66.09-.19,0,.02-.02.05-.02.05-.05.11-.07.16-.05.12-.11.23-.17.34.58.33,1.15.66,1.73.99.03-.26.07-.52.14-.77.03-.13.07-.25.11-.38.01-.03.02-.06.03-.09.02-.06.01-.04-.02.06,0-.04.06-.14.08-.18.11-.24.23-.47.37-.69.06-.1.13-.2.2-.3.04-.05.08-.1.12-.16.04-.05.03-.03-.04.05.03-.03.06-.07.09-.1-.53-.39-1.06-.78-1.59-1.16-.04.35-.11.7-.21,1.03-.03.08-.05.17-.08.25-.01.04-.03.08-.05.12.04-.11.05-.12,0-.03-.07.16-.14.32-.23.48s-.17.31-.27.46c-.09.14-.19.31-.31.43.18-.17-.01,0-.05.03-.03.02-.06.05-.09.07-.08.05-.06.05.05-.03,0,0-.19.08-.19.09.14-.03.16-.04.07-.02-.07,0-.06,0,.02,0,.28.04.49.14.63.42.05.08.07.16.07.25,0-.04,0-.08,0-.12,0-.17,0-.34,0-.51,0-.1,0-.09,0,.04,0-.04,0-.09.01-.13.01-.09.02-.17.04-.25.03-.17.07-.34.12-.5.02-.08.05-.16.08-.25.02-.05.08-.32.03-.09.04-.16.14-.32.22-.47.08-.15.17-.3.26-.44.05-.07.1-.14.15-.21.03-.04.21-.26.06-.08-.49-.15-.98-.3-1.47-.45-.14-.33.04.11.02.13,0,0-.02-.2,0-.06,0,.05,0,.11.01.16s0,.11,0,.16c0,.17,0-.03,0-.04.03.09-.05.3-.07.38-.02.09-.05.17-.08.25,0,0-.08.21-.03.08.05-.13-.03.08-.04.08-.09.21-.2.41-.31.61-.1.18-.2.35-.31.53-.03.04-.05.08-.08.12,0,0-.01.02-.02.02-.06.08-.05.07.03-.03-.07.04-.15.15-.22.21-.13.12.17-.06,0,0,.03,0,.2-.02.07-.02.1,0,.17.01.26.05-.02,0-.03-.01-.05-.02.11.04.2.11.28.2,0,0,.15.25.08.1.13.26.06.17.04.1,0-.03-.04-.2-.01-.03.03.17,0-.05,0-.09,0-.08,0-.16,0-.23,0-.22-.03.19,0-.02,0-.04.01-.09.02-.13.03-.21.08-.42.15-.63.02-.05.03-.1.05-.15.02-.06.03-.19,0,0,.01-.08.07-.16.11-.24.1-.21.21-.4.34-.59.01-.01.15-.24.17-.24-.02,0-.12.13,0,0,.03-.03.06-.06.1-.09.02-.02.07-.05.09-.07-.07.1-.14.07-.05.03.08-.03.19-.04-.03-.02.02,0,.03,0,.05,0-.1,0-.2-.02-.29-.06-.23-.11-.43-.3-.5-.57,0-.04-.01-.09-.02-.13,0,.08,0,.08,0,0,0-.02,0-.04,0-.06,0,.04-.01.08-.02.12,0,.04-.01.08-.02.12-.04.21-.09.41-.16.61-.02.05-.03.1-.05.15,0,.02-.09.23-.04.1.05-.13-.03.06-.03.07-.03.06-.05.12-.08.17-.1.21-.21.42-.33.61-.12.19-.25.41-.41.57.02-.02.13-.15.02-.03-.04.05-.08.1-.13.14-.09.09-.18.18-.27.27l1.57.69c-.03-.09-.05-.18-.07-.27-.03-.12,0,.05,0,.08,0-.05-.01-.09-.02-.14-.02-.17-.02-.35-.01-.52,0-.16-.02.15,0,.04,0-.04,0-.07.01-.11.01-.09.03-.18.05-.27.04-.17.1-.33.15-.5-.01.04-.07.16-.02.06.02-.04.04-.08.06-.13.04-.07.07-.15.11-.22.09-.15.19-.29.29-.43.06-.09-.13.14-.02.03.03-.03.06-.07.09-.1.06-.06.12-.12.18-.17.07-.06.14-.12.21-.18.06-.04.3-.2.08-.07.21-.13.36-.25.42-.5.05-.23,0-.52-.12-.72-.14-.23-.33-.44-.59-.54-.2-.08-.49-.15-.69-.02h0Z"/>
        <path d="M15.14,11.96c1.17.42,2.32.87,3.47,1.36.56.24,1.13.49,1.68.75.27.13.54.25.82.38.13.06.67.24.6.43-.11.32.71.07.8.04.25-.09.5-.19.72-.34.13-.08.32-.19.37-.34.1-.31-.22-.47-.45-.58-.29-.14-.59-.28-.88-.42-.58-.27-1.16-.53-1.75-.78-1.19-.51-2.39-.98-3.6-1.42-.15-.05-.36,0-.5.03-.25.06-.51.16-.74.29-.08.04-.82.5-.52.6h0Z"/>
        <path d="M14.75,5.57c2.07-.44,3.91-1.43,5.81-2.31.47-.22.94-.42,1.43-.61.23-.09.45-.16.68-.24.22-.07-.19.06.03,0,.06-.02.13-.04.19-.06.13-.04.26-.07.39-.11.58-.15,1.17-.26,1.77-.33.27-.03.55-.06.83-.07-.24,0,.01,0,.05,0,.05,0,.1,0,.15,0,.18,0,.35,0,.53,0,.15,0,.29,0,.44.02.04,0,.08,0,.13.01.04,0,.08,0,.12.02.11.02.08.01-.07-.01.02.02.15.03.18.04.04.01.08.02.12.04.11.04.08.03-.08-.04.04.03.09.05.14.07.03.01.05.03.08.05.1.06.07.04-.08-.06.02.03.08.09.11.11-.11-.14-.14-.16-.07-.08.02.03.04.06.06.09.11.16-.08-.22-.02-.04.01.04.03.11.05.15-.09-.16-.03-.16-.02-.04,0,.03,0,.07,0,.1.01-.15.01-.18,0-.09,0,.02,0,.03-.01.05-.03.09-.02.06.04-.08-.01.03-.03.06-.05.09-.05.08-.03.05.06-.06-.16.18-.26.38-.24.63.02.23.16.5.33.65.34.29,1.04.51,1.4.11.22-.25.39-.52.44-.86.05-.34,0-.69-.12-1-.29-.72-.9-1.2-1.63-1.45C27.3,0,26.66,0,26.04,0c-.7.01-1.4.06-2.09.17-1.21.19-2.39.54-3.52,1.01-1.01.42-1.98.91-2.96,1.38-.55.26-1.11.51-1.68.72-.14.05-.29.11-.43.16-.07.02-.15.05-.22.07-.1.03.07-.02.07-.02-.05.02-.11.03-.16.05-.31.09-.63.17-.95.24-.48.1-.81.58-.61,1.06.19.47.74.84,1.26.73h0Z"/>
        <path d="M33.34,14.08c2.22-1.02,4.44-2.03,6.75-2.85,1.1-.39,2.22-.77,3.37-.99.55-.11,1.12-.17,1.69-.11.14.02.27.04.41.07.13.03.06.01.04,0,.07.02.13.04.2.06.22.06-.14-.07.03,0,.06.03.23.12-.03-.02.18.09-.23-.14-.05-.03.16.1-.25-.14,0,0-.04-.03-.07-.06-.11-.09.03.02.05.05.08.07-.09-.09-.1-.1-.04-.03.03.03.05.05.07.08.02.02.13.16.03.03.04.06.09.11.13.17.13.2.19.32.26.55.14.46.12.91-.1,1.34-.05.1.11.27.15.32.16.17.37.33.57.46.21.13.42.26.66.33.08.02.3.11.35,0,.49-.93.05-1.96-.59-2.69-.98-1.11-2.47-1.82-3.95-1.84-1.27-.02-2.51.38-3.71.76-1.26.41-2.49.88-3.71,1.39-1.38.58-2.74,1.2-4.1,1.82-.29.13.33.59.43.66.21.16.44.3.68.4.12.05.36.18.48.12h0Z"/>
      </g>
    </g>
  </g>
</svg>