<?xml version="1.0" encoding="UTF-8"?>
<svg id="Layer_2" data-name="Layer 2" xmlns="http://www.w3.org/2000/svg" viewBox="0 0 17 48">
  <g id="Layer_1-2" data-name="Layer 1">
    <g id="_ëÎÓÈ_1" data-name=" ëÎÓÈ 1">
      <path d="M12.12,47.8c-.06-.16-.23-.24-.18-.08.04.12-.02.15-.18.1-.07-.02-.11-.08-.1-.16,0-.08-.02-.11-.07-.07-.04.03-.07.11-.06.19.03.21-.05.31-.09.11-.02-.12-.06-.16-.11-.11-.04.04-.07.09-.06.12s0,.07-.04.08c-.06.02-.09-.14-.09-.41,0-.06,0-.12-.02-.13s.01-.06.05-.1c.04-.05.03-.11-.03-.18-.13-.15-.2-.33-.14-.35.03,0,.02-.07-.02-.14-.04-.07-.07-.21-.07-.33,0-.11-.04-.26-.09-.33-.07-.09-.08-.18-.03-.29.05-.12.03-.28-.06-.57-.08-.25-.11-.42-.06-.43.04-.01.02-.04-.04-.05-.09-.02-.1-.06-.05-.21.05-.17.04-.2-.1-.31-.1-.08-.13-.13-.08-.15.11-.03.13-.43.02-.43-.13,0-.23-.43-.12-.52.07-.05.07-.13,0-.27-.08-.17-.07-.19.06-.2q.15,0,0-.05c-.09-.02-.19-.06-.22-.09-.09-.07-.11-.39-.03-.37.04.01.05-.05.02-.14-.03-.09-.03-.2,0-.25.04-.07.03-.1-.04-.12-.05-.01-.1-.07-.12-.12-.02-.05,0-.09.05-.08.04.01.07-.01.06-.05-.01-.04-.05-.06-.09-.05s-.08-.02-.1-.08c-.02-.05,0-.11.04-.12s.06.01.05.06c-.01.04.01.07.05.06.12-.04.11-.18,0-.19-.06,0-.12-.03-.14-.07s.03-.05.09-.05c.09,0,.09-.05.04-.23-.08-.25-.2-.3-.19-.08,0,.09,0,.09-.05-.02-.03-.09-.02-.16.05-.18.05-.02.09-.07.07-.13s0-.11.02-.14c.09-.07,0-.4-.08-.35-.1.05-.34-.69-.27-.83.04-.07,0-.18-.11-.38-.15-.26-.15-.29-.04-.33.13-.04.11-.25-.03-.32-.05-.02-.09-.13-.1-.24-.02-.15.01-.2.12-.22.1-.02.16-.09.18-.22.04-.21-.01-.44-.09-.4-.22.11-.33-.01-.13-.14.12-.08.12-.09-.01-.16-.2-.11-.21-.21-.02-.21.16,0,.16,0,0-.06-.09-.03-.15-.1-.13-.15.02-.06-.01-.07-.08-.01-.1.07-.1.07-.01-.06.08-.12.08-.14-.04-.21-.08-.04-.12-.1-.11-.13.06-.11.14-.09.18.04.02.07.07.12.11.11.04-.01.05-.07.02-.13-.03-.06-.04-.16-.03-.22.02-.07,0-.09-.02-.05-.03.03-.1.05-.16.03-.08-.02-.1-.06-.06-.14.03-.06.01-.17-.03-.25-.06-.1-.05-.15.06-.2.1-.05.13-.12.1-.27-.02-.11-.02-.24,0-.29.07-.13-.04-.44-.18-.5-.15-.06-.21-.31-.08-.33.08-.01.08-.09.01-.32-.06-.2-.06-.31,0-.31.12-.01.07-.15-.1-.27-.16-.11-.16-.32-.01-.31.08,0,.09-.04.05-.14-.11-.26-.1-.3.07-.32l.16-.02-.2-.09c-.11-.05-.17-.1-.14-.11.04-.01.05-.14.02-.28s-.02-.43,0-.64c.04-.3.02-.4-.07-.47-.1-.08-.09-.11.07-.16.11-.04.13-.06.06-.06-.15,0-.19-.08-.09-.17.06-.05.05-.06-.01-.04-.07.02-.07-.03-.03-.17.04-.14.03-.2-.03-.22-.06-.02-.07-.06-.04-.15.03-.08.07-.1.12-.06.04.03.02-.08-.04-.26-.06-.19-.08-.32-.03-.33.07,0,.07-.14-.01-.47-.02-.08-.02-.16,0-.17.04-.01.02-.15-.05-.46-.03-.11-.03-.23-.01-.26s0-.1-.04-.15c-.06-.07-.1-.07-.18,0-.14.14-.17.15-.21.03-.02-.05-.08-.09-.14-.07-.06.02-.08.06-.04.09.12.1,0,.35-.21.47-.12.06-.22.16-.23.21,0,.05-.03.04-.05-.02-.02-.06-.07-.11-.11-.09-.04.01-.05.07-.03.14.03.1.02.1-.06.04-.05-.04-.09-.11-.08-.16s-.02-.01-.05.07c-.06.15-.07.15-.17.05-.06-.06-.1-.13-.08-.16s-.02-.04-.09-.02c-.1.03-.1.05,0,.11.09.06.09.08,0,.11-.06.02-.11.09-.12.15,0,.13-.18.21-.21.1-.01-.04-.09-.03-.18.03-.11.07-.16.07-.14,0,.01-.05,0-.08-.04-.07s-.07.07-.07.12c0,.06-.12.14-.28.2-.19.07-.27.07-.25,0,.02-.06,0-.07-.07-.02-.05.04-.12.05-.17.03s-.27.04-.5.14c-.48.21-.75.27-.72.16.01-.04-.01-.07-.04-.05-.04.01-.07.07-.07.13,0,.06-.06.13-.13.15-.09.03-.1.02-.05-.05.04-.05.04-.12,0-.15-.05-.04-.09-.03-.14.04-.08.12-.5.28-.82.31-.18.02-.22.03-.13.06.11.03.11.04,0,.08-.06.02-.12.02-.13-.01,0-.03-.18,0-.38.08-.2.07-.39.11-.42.08-.03-.03-.09-.02-.14.02-.05.04-.12.03-.16-.03-.04-.05-.11-.07-.16-.03s-.16.02-.26-.03-.2-.07-.22-.04c-.03.03-.13.05-.22.04-.1,0-.14-.03-.08-.05.06-.02.03-.05-.07-.05-.09,0-.19-.07-.21-.14-.02-.07-.08-.13-.14-.14-.07,0-.07-.04,0-.11.05-.06.06-.15.02-.21-.04-.06-.03-.19.02-.3.1-.2.1-.31.01-.21-.08.09-.1-.05-.03-.16.03-.05.12-.12.19-.16.1-.05.11-.11.03-.31-.08-.19-.08-.25,0-.28.06-.02.11-.09.11-.16,0-.07.05-.22.09-.33.08-.17.07-.2-.03-.23-.09-.02-.09-.04-.03-.06.05-.02.09-.13.09-.25s.04-.21.07-.21c.04,0,.08-.02.09-.06.01-.04-.02-.07-.07-.05-.05.02-.07,0-.04-.04.03-.04.07-.14.08-.23.02-.09.1-.2.18-.24.1-.06.12-.1.05-.11-.05-.01-.12,0-.15.04-.09.11-.09-.05,0-.36.05-.16.08-.33.07-.36-.03-.09.09-.11.16-.03.03.04.07.04.1,0s0-.08-.06-.1c-.14-.04-.09-.44.05-.43.08,0,.08-.02,0-.08-.07-.07-.07-.14-.02-.26.04-.09.05-.2.02-.25-.04-.06-.01-.1.09-.13.12-.04.13-.06.04-.08-.1-.03-.1-.04-.02-.11.07-.06.07-.1.01-.14-.11-.07-.08-.2.06-.31.06-.05.08-.15.05-.24-.03-.09-.03-.19,0-.23.03-.04.05-.01.05.05,0,.06.03.11.07.09.11-.03.11-.28,0-.28-.14,0-.14-.12,0-.17.07-.02.12-.09.1-.14-.02-.06-.01-.25,0-.43s.04-.37.03-.43,0-.13.01-.15.05-.23.08-.45.1-.42.14-.43c.06-.02.06-.07,0-.16-.07-.11-.07-.13.04-.12.09,0,.11-.02.06-.08-.04-.05-.05-.11-.02-.15s.03-.13,0-.22-.02-.17.03-.19c.04-.01.05-.04.02-.06-.03-.02,0-.14.06-.27.08-.16.1-.31.05-.44-.04-.11-.03-.27.02-.38.05-.1.07-.18.04-.17-.02,0-.02-.05.01-.12s.05-.2.03-.27c-.01-.08.01-.2.05-.27.04-.08.04-.17,0-.22s-.04-.09,0-.1.05-.06.04-.11c-.02-.05.01-.17.06-.27.05-.1.06-.19.03-.21-.03-.02-.01-.04.03-.05.07-.02.06-.04-.02-.09-.08-.05-.07-.09.06-.17.15-.09.15-.11.02-.18s-.13-.1-.01-.41c.07-.19.1-.3.06-.26-.04.05-.08.04-.1-.03-.02-.08,0-.11.1-.11.09,0,.14-.04.15-.11,0-.07-.02-.09-.08-.04-.05.04-.09.05-.1.02-.02-.07.08-.54.13-.58.02-.02,0-.16-.04-.3-.05-.17-.05-.27,0-.29.06-.02.06-.1,0-.26-.05-.12-.07-.24-.04-.24.03,0,.04-.19.03-.39-.03-.49.04-.95.18-1.15.09-.13.08-.17,0-.23-.08-.05-.09-.09-.05-.12.04-.03.06-.1.05-.16-.01-.06,0-.18.04-.26s.05-.19.04-.26c-.02-.13-.01-.57.02-.77.01-.08,0-.16-.03-.19s-.03-.08,0-.11c.03-.04.03-.09,0-.11-.03-.03-.04-.18-.02-.34.02-.16.03-.36.04-.44,0-.08.02-.25.03-.38.01-.12.02-.27.01-.32,0-.05.01-.25.04-.43s.03-.38.02-.44,0-.12.02-.16c.03-.03.04-.12.02-.18s0-.17.04-.24c.04-.07.05-.15.01-.2s-.04-.19-.01-.33c.03-.14.05-.34.04-.45,0-.11.01-.6.05-1.09.05-.71.09-.93.21-1.06.12-.14.19-.17.32-.14.26.05,1.03-.15,1.12-.28.05-.08.08-.09.1-.04.01.04.05.07.09.05s.05-.06.04-.11c-.02-.05.04-.11.12-.14.08-.03.22-.09.3-.15.1-.07.14-.08.12,0-.03.13.25.03.44-.16.09-.09.16-.12.17-.09.01.04.07.03.14-.01.06-.04.15-.05.19-.02.05.04.08.03.1-.05.03-.12.75-.38.78-.29,0,.03.05.02.08-.02.06-.07.24-.14,1.34-.55.3-.11.57-.24.6-.29.03-.06.11-.09.23-.08.11,0,.21-.02.24-.07.03-.05.13-.1.23-.13s.21-.12.26-.21c.08-.16.09-.16.22-.07.07.05.12.06.1.02-.01-.04.02-.09.08-.11.05-.02.11,0,.12.04.01.05.08.04.18-.02.09-.05.16-.07.17-.03.01.04.11.02.23-.03.3-.13.37-.11.46.15.09.26.04,1.21-.1,1.67-.05.15-.08.31-.07.33.03.08-.07.77-.13.9-.03.07-.05.14-.04.16s0,.13,0,.26c0,.16-.04.2-.09.15-.06-.05-.08-.04-.09.05,0,.07.02.11.05.1s.06.05.07.12c0,.16-.12.4-.15.29-.01-.04.01-.1.05-.13.05-.04.05-.05,0-.04-.13.03-.13.18,0,.27.1.06.11.09.05.13-.04.03-.06.1-.05.15.02.05,0,.1-.03.11s-.06.09-.06.17-.06.26-.13.4c-.08.16-.1.26-.04.27.07,0,.07.03.02.08-.04.04-.06.1-.04.15s0,.14-.05.2-.06.13-.03.14c.02.01,0,.1-.07.19-.08.12-.09.22-.03.33.06.11.05.18,0,.23-.05.04-.06.11-.03.15s.01.13-.05.2c-.06.07-.09.15-.05.18.04.04-.02.07-.18.11-.14.03-.24.07-.24.1s.09.03.18,0c.09-.03.17-.04.18-.01.02.07-.05.37-.13.54-.04.09-.06.19-.03.21.03.02,0,.12-.04.22-.05.1-.07.17-.05.17.02,0,0,.07-.07.16s-.08.2-.04.24c.08.07.02.58-.07.61-.04.01-.05.04-.03.07.05.07-.07.78-.14.8-.03.01-.05.06-.03.12.03.1-.02.64-.07.72-.02.02-.02.14-.02.24,0,.11-.02.21-.05.22s-.05.08-.02.15.02.16-.01.19c-.03.03-.04.11-.02.16.05.15-.09.37-.22.36-.06,0-.1.02-.09.06.01.04.07.05.12.03.13-.04.17.08.06.17-.05.04-.05.15-.01.27.04.11.04.23,0,.26s-.04.15,0,.28.04.24,0,.25-.05.07-.03.12,0,.25-.03.43c-.07.37-.06.33-.04.64,0,.13,0,.26-.03.29-.03.03-.03.11,0,.19.02.07,0,.22-.05.32-.05.1-.06.23-.02.27s.05.13.02.19-.04.17-.03.24c.02.31,0,.69-.05.7-.03,0-.03.08,0,.15s.01.25-.02.39-.05.32-.03.39c.02.08,0,.12-.06.12-.06,0-.09.03-.08.07.08.22.07.32-.02.35-.06.02-.08.09-.06.17.02.08.07.11.1.08s.06-.03.08,0c.01.04,0,.08-.04.09-.03.01-.03.18,0,.38.04.2.05.4.03.45-.02.05-.03.21-.02.35,0,.22.04.28.16.34.08.04.19.05.25.04s.14-.01.18,0c.05.02.31.04.6.03.28,0,.75.03,1.05.08s.55.07.58.04.08-.01.12.04c.04.05.15.07.26.03.1-.03.22-.04.25,0,.03.03.16.02.29-.02s.24-.04.27-.01c.02.03.15.04.27.02.24-.04,1.35-.05,1.55-.01.07.01.23.01.37,0,.48-.05,1.01-.03.99.03,0,.04.03.05.08.04.13-.04.52.25.45.34-.03.04-.03.09,0,.11.03.03.03.07,0,.11s-.08.04-.11,0c-.03-.03-.12-.01-.19.03-.09.06-.12.05-.11,0,.01-.05-.01-.08-.05-.07-.04.01-.04.07,0,.14.05.07.05.13,0,.14-.05.02-.04.11.02.25.06.12.08.23.04.24-.03.01-.03.04,0,.07.03.03.03.06,0,.08-.11.03-.19-.07-.11-.13.05-.04.05-.07-.02-.11-.06-.03-.12-.02-.17.04-.04.05-.05.08,0,.07.09-.03.19.36.12.5-.04.07-.06.08-.08.01-.02-.05-.07-.06-.11-.02s-.11.04-.14,0c-.03-.04-.07-.04-.09,0s.05.1.15.13l.19.06-.13.1c-.07.06-.1.13-.07.16.04.03.03.06,0,.08-.04.01-.06.05-.05.09.01.04.07.05.12.04.05-.02.09-.08.07-.13-.02-.05,0-.11.04-.12.12-.04.08.15-.05.27-.07.06-.11.16-.09.22.05.15-.08.33-.3.41-.13.05-.17.09-.13.15.04.04.11.05.18,0,.15-.1.15-.07-.01.24-.14.26-.38.42-.42.28-.04-.11-.19-.02-.23.14-.04.17.07.25.18.12.07-.08.07-.07-.03.49-.04.24-.1.39-.14.35-.03-.04-.04-.11-.01-.14.02-.03.06-.14.08-.24.04-.17.03-.18-.09-.09-.08.06-.13.06-.13,0,0-.05-.05-.09-.11-.09-.08,0-.08.02.02.12.15.14.13.19-.12.39-.18.14-.18.15-.02.14.09,0,.17.02.18.05.03.11-.14.34-.26.35-.07,0-.17.07-.22.14-.09.12-.08.13.02.09.13-.04.16.01.11.19-.03.1-.04.1-.06.03-.03-.1-.28-.21-.39-.18-.04.01,0,.05.1.09s.18.11.2.15c.1.24.12.27.18.26.04-.01.05-.07.04-.12-.02-.05,0-.11.03-.12s.06.04.06.11c0,.12,0,.12.09-.04.06-.09.1-.24.09-.34,0-.1.02-.18.05-.19.09-.03.11.34.03.52-.08.19-.29.43-.25.29.01-.05-.02-.07-.08-.05-.08.03-.08.06,0,.14.07.07.09.13.06.17-.03.03-.07.01-.09-.05s-.07-.08-.11-.05c-.04.03-.05.09-.03.13.03.05,0,.07-.07.07-.06,0-.11.02-.09.06s.06.05.1.04c.06-.02.06,0,0,.06-.06.08-.05.1.07.17.18.09.22.19.08.23-.06.02-.08.09-.05.2.03.09.02.18-.01.19s-.05.07-.03.14c.02.09,0,.08-.08-.02-.06-.08-.13-.12-.14-.09-.05.1.02.31.1.33.06.02.05.04-.03.06-.07.02-.13-.01-.16-.1-.02-.07-.07-.12-.11-.11-.04.01-.03.13,0,.26.06.19.05.24-.06.28-.07.02-.12.09-.1.14.02.06-.01.09-.09.09-.08,0-.1.01-.05.05.04.03.06.13.04.22-.02.11,0,.15.04.14.04-.01.08-.11.08-.21.01-.2.09-.27.21-.17.04.03.03.1-.02.15s-.12.23-.16.39c-.04.16-.1.33-.13.37-.04.05-.01.08.07.11.09.03.08.04-.06.05-.15.01-.19.06-.24.26-.03.13-.08.25-.11.26s-.05.08-.05.16c0,.09-.06.17-.18.22-.12.05-.17.11-.14.17.03.05,0,.08-.07.08-.13,0-.13.05.01.17.06.05.09.05.07,0-.01-.04.03-.14.09-.2.1-.1.12-.1.11,0,0,.08.03.11.08.09.05-.02.1-.07.1-.12,0-.06.02-.06.04,0,.04.11-.19.45-.28.43-.04,0-.1.03-.14.08-.06.07-.04.08.07.05.17-.05.2,0,.13.2-.06.17-.15.22-.15.07,0-.06-.05-.1-.14-.1-.12,0-.12.02-.03.08.09.06.09.11.01.25-.06.11-.08.26-.03.39.07.2.07.21.13.05.04-.11.07-.13.09-.07.04.14-.14.48-.26.47-.13,0-.1.09.04.17.09.05.08.11-.05.31-.11.18-.14.28-.08.36.09.12.04.47-.07.51-.12.04-.22-.12-.16-.24.04-.08.01-.08-.1-.02-.09.05-.18.09-.22.11-.03.01.08.07.24.13.33.12.4.19.23.24-.06.02-.08.06-.04.09.06.05.03.4-.04.36-.02-.01-.04-.13-.04-.26,0-.28-.07-.36-.19-.26-.05.04-.06.09-.03.12.03.03.01.06-.04.08-.1.03-.15.26-.07.3.02.01.05-.03.05-.1.01-.18.11-.19.12-.01,0,.14-.05.19-.24.22-.05,0-.11.06-.12.12-.04.14-.01.21.07.19.04-.01.05-.07.04-.12-.02-.08.03-.08.24-.02.24.07.27.1.26.28,0,.12-.05.2-.11.19-.1,0-.09.16.04.46.1.25.02.47-.18.48-.1,0-.17.04-.15.07s.1.05.21.03c.17-.03.18-.02.12.1-.04.07-.07.22-.06.33,0,.11-.05.23-.12.28-.07.05-.09.1-.05.11.06.01.08.11.08.3,0,.33-.05.44-.13.33-.06-.08-.26-.05-.23.03.04.1.22.28.2.2-.01-.05,0-.09.04-.1.07-.02.12.32.05.39-.03.03-.03.11,0,.18.03.08-.02.16-.12.23-.15.09-.15.1-.02.15.1.04.15.1.16.23.01.2-.1.29-.15.13-.02-.05-.07-.11-.12-.12-.06-.02-.07,0-.02.07.04.05.05.11,0,.12-.04.01-.02.15.04.33.13.37.19.79.14,1.07-.02.11-.02.24,0,.29.02.05-.02.09-.08.08-.06,0-.12.02-.13.06s.02.07.08.07c.07,0,.08.03.04.12-.05.11-.03.38.04.65.02.06-.05.16-.16.24-.11.07-.19.17-.19.22,0,.06.03.06.09.02.07-.06.09-.04.09.06,0,.09.01.11.05.06.04-.04.07-.04.08,0,.01.04-.02.1-.07.14s-.07.09-.04.12c.03.02.04.14.01.26-.02.12-.01.24.02.27.03.03,0,.06-.07.08-.36.07-.43.13-.36.33.03.11.1.2.16.2.06,0,.05.02-.02.05-.08.03-.09.07-.04.14.06.07.05.09-.03.08-.06-.01-.04,0,.05.05.16.06.15.08-.05.16-.13.05-.1.3.04.25.13-.04.18.09.1.31-.04.11-.03.18.02.2.18.04.11.43-.1.6-.07.05-.06.06.03.04.13-.03.24.18.14.29-.03.04-.02.12.02.18.05.08.05.12-.02.15-.05.02-.1.07-.11.12s-.03.03-.06-.05h0ZM12.39,43.07c-.02-.08-.04-.07-.1.02-.04.06-.05.18-.03.26.05.14.05.14.1-.02.03-.09.04-.2.03-.26ZM11.99,41.97s-.04-.1,0-.11c.04-.01.05-.05,0-.08s-.04-.1,0-.15c.06-.07.05-.08-.04-.05-.06.02-.11.09-.1.16,0,.1-.02.09-.12-.03-.17-.2-.25-.19-.12.02.08.13.07.16-.07.21-.12.04-.16.09-.13.17.03.09.04.09.07,0,.03-.12.39-.18.43-.07.01.04.05.06.09.05s.03-.06,0-.11h0ZM11.85,41.02c.13.05.33-.08.24-.16-.04-.03-.07-.01-.09.05-.02.08-.04.09-.06.03-.02-.05-.09-.06-.16-.04-.08.03-.12.08-.09.16.03.07.04.08.05.02,0-.07.04-.08.11-.05h0ZM11.41,40.23c-.13-.08-.21.01-.15.18.04.11.06.11.15,0,.08-.09.08-.14,0-.19ZM11.27,40.12s.09-.08.18-.08c.15-.01.15-.01,0-.07-.13-.05-.14-.08-.09-.14.04-.05.09-.06.12-.02.08.11.18-.13.11-.25-.04-.06-.02-.13.05-.17.09-.06.08-.06-.04-.03-.17.04-.26-.07-.09-.13.19-.06.04-.22-.17-.18-.12.02-.21.04-.21.05,0,0,.09.12.18.25.15.2.17.25.1.3-.12.1-.24-.03-.33-.36l-.12-.47c-.03-.12-.01-.16.1-.17.1,0,.12-.03.07-.09-.05-.07-.03-.09.1-.09.1,0,.14-.02.09-.04-.05-.02-.11-.09-.15-.15-.05-.1-.03-.12.11-.13.14,0,.15-.02.04-.06-.17-.06-.3-.23-.24-.31.03-.03.03-.08,0-.11s-.03-.06.01-.07c.04-.01.05-.09.02-.18s0-.19.04-.23c.05-.04.06-.11.03-.16-.04-.05-.04-.11-.02-.15.03-.03.04-.09.02-.14-.06-.12-.01-.34.08-.37.12-.04.17-.33.09-.44-.04-.05-.04-.09,0-.1s.08.02.09.06.06-.09.11-.31.05-.39.02-.4c-.11-.01-.09-.11.04-.2.11-.07.11-.1.03-.14-.13-.07-.22-.31-.11-.28.04.01.05-.02.01-.06s-.03-.13,0-.2.04-.15,0-.2c-.04-.05-.02-.1.04-.12.06-.02.09-.08.08-.13-.02-.05,0-.11.03-.12s.03-.07-.01-.12c-.06-.08-.05-.1.07-.09.08,0,.21,0,.29,0,.13-.01.13-.02,0-.03-.08,0-.15-.04-.17-.08s-.07-.04-.13-.01c-.05.03-.04-.02.04-.09.1-.11.1-.15.03-.15-.08,0-.07-.02.01-.05.06-.02.1-.1.09-.16-.09-.38-.08-.47.06-.68.09-.13.13-.26.1-.28-.08-.07.09-.37.22-.36.08,0,.08-.04,0-.17-.08-.13-.08-.18.02-.24.07-.04.11-.16.1-.28-.01-.12.02-.22.08-.24.06-.02.08-.06.04-.09-.08-.07-.08-.34,0-.37.04-.01.06.02.05.08s.02.03.07-.06c.08-.14.07-.16-.03-.19-.18-.04.03-.19.33-.23.22-.03.23-.04.11-.1-.07-.04-.15-.04-.18-.01-.12.14-.15-.06-.04-.28.07-.13.09-.21.06-.17s-.09.05-.12.02-.02-.08.03-.12.12-.03.16.02c.11.13.16.08.11-.11-.02-.09-.07-.14-.09-.11s-.06.03-.07,0c-.03-.08.1-.27.16-.24.03.01.04-.01.02-.06-.08-.21-.08-.33,0-.31.05.01.05-.02,0-.07-.04-.05-.04-.1,0-.11.04-.01.06-.04.05-.07-.06-.13-.05-.22.03-.25.05-.02.1-.13.11-.26.01-.12.05-.24.08-.24.03-.01.04-.07.02-.14-.04-.12.28-.84.39-.87.04-.01.04-.09.02-.17-.05-.17.06-.45.2-.49.08-.02.08-.04,0-.06-.09-.02-.05-.29.13-.7.02-.06.03-.1,0-.09-.07.02.35-1.17.5-1.44.08-.15.15-.34.15-.43,0-.09.03-.17.07-.19.04-.01.07.04.06.11,0,.11,0,.11.05.02.07-.13.18-.18.15-.07-.01.04.04.04.1,0,.13-.08.07-.19-.08-.14-.05.02-.12,0-.16-.03-.05-.04-.01-.07.12-.08.1-.01.2-.05.21-.09s-.04-.05-.12-.03c-.1.03-.14,0-.16-.11-.01-.08.02-.18.07-.23.08-.06.06-.09-.12-.18-.12-.06-.2-.08-.19-.04.01.04-.07.07-.25.08-.15,0-.34.04-.42.06-.08.03-.17.03-.21,0-.03-.03-.02-.07.02-.08.06-.02.06-.04,0-.07-.05-.03-.29-.02-.54.02s-.49.04-.54.02c-.06-.03-.04-.05.08-.05.1,0,.16-.03.14-.07-.01-.04-.12-.04-.24,0-.36.1-.81.21-1.11.26-.15.03-.3.05-.33.06s-.05-.02-.04-.07c.01-.05-.13-.03-.37.04-.21.07-.51.13-.66.13-.15,0-.37.03-.5.05-.12.02-.37.05-.55.07-.83.07-.9.05-.74-.22.05-.1.09-.2.08-.24-.04-.12-.15-.02-.21.18-.06.22-.19.24-.19.04,0-.12,0-.11-.04.01-.05.17-.15.22-.2.09-.04-.12-.24-.14-.25-.02,0,.05-.05.07-.11.06-.24-.06-.28-1.46-.05-1.44.06,0,.09-.04.07-.11-.02-.06,0-.1.05-.09.05.01.04-.02-.04-.08-.1-.09-.11-.14-.02-.29.05-.1.09-.22.08-.26-.01-.04.03-.09.09-.11.09-.03.08-.04-.05-.05-.24-.02-.29-.1-.14-.25.07-.07.11-.17.07-.21-.07-.09.02-.22.11-.15.04.03.1,0,.15-.1.05-.08.07-.17.04-.2-.03-.03-.03-.09,0-.13.04-.04.03-.11,0-.14-.06-.05-.08-.04-.11.04-.02.08-.04.08-.06.03-.02-.05-.07-.05-.12,0-.07.05-.09.05-.07-.02.01-.05.06-.11.11-.12.05-.02.09-.13.1-.25,0-.13-.01-.2-.04-.17-.06.07-.14-.14-.13-.32,0-.07.04-.13.07-.14s.05.02.04.07c-.01.05,0,.07.06.03.05-.03.05-.12.02-.2-.04-.08-.02-.14.02-.15.05,0,.08-.04.06-.09-.04-.15.05-.21.09-.07.05.17.16.16.17,0,0-.07-.05-.12-.14-.14-.22-.04-.3,0-.26.13.03.09.02.1-.05.04-.1-.08-.15-.72-.07-.91.06-.15.22-.21.26-.1.01.04.04.05.05.02.02-.03-.04-.1-.12-.14-.15-.09-.22-.39-.1-.43.04-.01.05.02.04.06-.03.12.12.05.2-.09.08-.16.07-.21-.06-.17-.05.02-.11,0-.12-.04-.01-.04.02-.07.08-.07.06,0,.09-.04.06-.1-.03-.07,0-.12.09-.15.07-.02.16-.08.2-.12.04-.05.08-.05.09,0,.01.04-.04.12-.11.17l-.13.1h.16c.11-.01.15-.05.13-.11-.02-.05.01-.11.06-.12.11-.03.16-.36.09-.58-.03-.09-.08-.15-.12-.14-.04.01-.04.07,0,.14.04.06.06.14.02.18-.04.04-.09-.05-.15-.24-.08-.24-.12-.3-.21-.27-.1.03-.1.02,0-.07.18-.16.22-.15.22.02,0,.15,0,.15.08.01.04-.08.11-.14.15-.13s.06-.01.05-.05c-.01-.04-.06-.08-.1-.09-.07-.02-.06-.27.02-.41.01-.02,0-.09-.01-.14-.06-.15-.02-.24.07-.16.15.13.04-.11-.13-.26l-.15-.14.07.22c.04.12.03.23,0,.24-.04.01-.04.05-.01.07.06.05-.01.44-.11.57-.09.11-.23.14-.23.04,0-.05.04-.1.09-.1s.08-.07.08-.15.02-.16.06-.17.03-.04,0-.07c-.04-.03-.09-.03-.11,0-.09.1-.08-.03,0-.15.04-.06.06-.23.02-.38-.06-.27,0-.44.17-.43.11,0,.1-.27,0-.3-.04-.01-.09.03-.11.09-.02.06-.04.08-.05.04-.04-.11.11-.3.21-.27.06.01.07-.02.03-.1-.03-.07-.06-.2-.05-.29,0-.14.02-.16.09-.1.07.06.08.05.05-.05-.02-.07,0-.11.04-.1.04.01.08-.02.1-.07s-.03-.1-.08-.12c-.07-.02-.12.01-.13.07-.01.05-.05.08-.08.06-.09-.05.12-.39.27-.44.16-.05.15-.11-.02-.17-.16-.05-.18-.38-.03-.37.07,0,.1-.06.08-.21-.01-.12.01-.24.05-.28s.05-.09.02-.13c-.03-.04,0-.13.07-.2s.09-.11.05-.1c-.08.02-.09-.04-.08-.33,0-.07-.02-.19-.05-.26-.04-.1-.03-.12.05-.08.12.06.28-.04.24-.16-.01-.05-.08-.09-.14-.09-.1,0-.11-.04-.04-.23.04-.12.12-.31.17-.42.05-.11.08-.22.07-.26-.01-.04,0-.08.03-.09s.06-.11.08-.23c.05-.39.09-.56.14-.58.03,0,.06-.1.06-.2,0-.13.05-.19.14-.19.07,0,.05-.02-.05-.05-.17-.04-.18-.06-.11-.17.04-.07.1-.11.14-.09.03.02.01.05-.04.06-.05.02-.03.04.06.05.2.02.26-.06.14-.17-.09-.09-.07-.47.04-.62.02-.03.04-.1.03-.16,0-.05,0-.21.03-.35.03-.14.03-.25,0-.24s-.02-.04,0-.11.03-.14,0-.16c-.06-.03.31-.41.45-.45.05-.01.09-.07.11-.12.02-.06,0-.07-.08,0-.06.05-.17.08-.25.08-.13,0-.14,0-.05-.12.05-.07.06-.15.02-.18-.04-.04-.03-.08.04-.1.06-.02.09-.05.06-.07-.03-.02-.02-.13.02-.26.04-.12.06-.26.05-.3s0-.08.04-.09c.04-.01.05-.07.04-.12-.02-.05,0-.11.04-.12s.05-.06.04-.12.02-.13.09-.18c.14-.1.13-.19-.01-.21-.08-.01-.08-.03-.02-.08.04-.04.05-.12.03-.2-.02-.07,0-.12.04-.11s.07-.01.06-.05c-.01-.04-.05-.06-.09-.05-.04.01-.04-.09.01-.23.04-.14.06-.26.04-.27-.02-.01-.19.07-.36.17-.26.15-.34.18-.4.12-.05-.04-.09-.04-.1.01-.01.04-.15.12-.31.17-.16.05-.31.11-.34.14s-.59.23-1.25.44c-1.29.41-1.37.44-2.18.88-.29.16-.76.36-1.04.44-.49.15-.51.17-.59.41-.05.14-.06.31-.02.37.04.06.05.13.01.16-.04.03-.01.1.07.2.08.1.11.18.07.22-.03.03-.03.08,0,.1.06.05,0,.27-.08.29-.04.01-.05.05-.03.08s.06.04.09.02.03.02,0,.09-.03.12,0,.12c.03,0,0,.03-.07.09-.15.12-.14.26.01.21.05-.02.11,0,.12.04s0,.07-.03.07c-.15.02-.18.08-.14.25.04.19-.04.35-.16.32-.04-.01-.02.04.05.1.11.11.11.13-.01.21l-.14.08.19.04c.1.02.15.05.1.07-.05.02-.06.07-.02.12.09.12.08.31-.03.34-.05.01-.07.07-.05.12.02.05.07.07.11.03.08-.07.14.02.09.12-.02.03-.02.13,0,.21.01.08,0,.18-.04.22s-.03.1.01.13c.04.03.1.03.13-.01.04-.04.04.02,0,.14-.03.12-.05.26-.03.32.02.06,0,.14-.05.17-.05.04-.07.24-.05.46s0,.42-.03.45c-.04.03-.03.14,0,.25.07.17.06.2-.09.21-.15,0-.15.03-.04.37.07.2.15.37.19.39.12.06.1.14-.04.19-.11.04-.12.07-.04.2.06.09.07.16.02.18-.04.01-.04.07,0,.12.05.07.05.09-.01.07-.06-.01-.08.05-.07.16l.04.36c.02.2-.09.28-.15.11-.03-.09-.05-.09-.09-.01-.04.08-.02.12.06.18.13.08.2.5.09.53-.04.01-.06-.02-.05-.06s-.03-.06-.09-.04c-.1.03-.1.04.05.17.14.12.15.14.06.17-.06.02-.09.05-.09.08s.02.12.02.21c0,.14.02.15.11.08.08-.06.1-.06.08.03-.02.06,0,.18.04.26.04.1.03.15-.04.18-.06.02-.09.08-.07.13.02.05,0,.11-.03.12-.04.01-.03.06.01.12.06.07.05.09-.03.07-.08-.02-.09,0-.02.08.05.06.08.17.08.25,0,.12-.02.13-.09.07-.06-.05-.05,0,.02.14.11.19.1.21-.04.22-.18,0-.17.11.02.16.12.03.12.04-.02.04-.16,0-.18.07-.09.27.02.04.02.16,0,.26-.02.1-.01.23.02.29.03.07,0,.16-.08.22-.12.1-.12.11,0,.07.11-.03.12-.02.06.06-.06.07-.05.1.02.12.06.02.09.07.06.15-.03.1-.04.11-.13.04-.09-.07-.11-.05-.18.11-.05.12-.12.19-.2.18-.07,0-.11.03-.09.07.02.06.1.05.27-.03.13-.06.19-.08.13-.04-.09.06-.09.11-.01.26.09.16.08.19-.05.23-.1.04-.11.05-.04.06.14,0,.25.1.23.18-.03.11-.14.11-.13,0,0-.08-.04-.08-.15-.02-.19.1-.18.18.01.24.12.03.11.04-.05.06-.12.01-.19.05-.2.12,0,.14.14.37.2.3.03-.03.06-.03.07,0,.03.1-.22.45-.37.51-.1.04-.09.05.02.04.11-.01.16.02.16.09,0,.06,0,.15.02.21.02.05-.02.11-.08.13-.07.02-.08.07-.04.12.04.05.04.1.01.11s-.01.13.05.27c.07.17.03.27-.14.31-.15.04-.24.1-.25.16,0,.06-.07.12-.15.15-.14.04-.14.04.02.11.16.06.15.06-.02.07-.21,0-.18.04.08.08.16.03.18.01.19-.16,0-.1.05-.2.09-.22.06-.02.07,0,.03.08-.03.06-.04.16-.02.23s.01.12-.02.11c-.09-.02-.33.18-.3.26.01.04.08.06.15.06.09,0,.09,0-.02.05-.08.03-.16.02-.17-.02-.01-.04-.04-.06-.05-.03-.06.11.14.24.31.19.11-.03.14-.02.07.02-.12.08-.09.24.04.25.06,0,.05.02-.02.05-.06.02-.12.01-.14-.03-.01-.05-.05-.04-.13.04-.06.06-.12.09-.15.08-.03-.01-.06.01-.07.06s0,.07.03.05c.03-.02.06,0,.07.03s0,.07-.03.07-.02.04.02.08c.06.08.09.07.23-.08.09-.09.17-.13.18-.09.01.04-.03.08-.09.1-.07.02-.08.07-.04.12.04.06.03.1-.04.12-.06.02-.08.07-.04.12.07.09-.18.29-.31.25-.04-.01-.08.02-.09.07-.01.05-.05.07-.09.07s-.08.02-.09.07c-.02.06.05.05.2-.04s.23-.1.25-.04c.01.04-.01.07-.05.06-.11-.03-.07.08.06.15.08.04.07.07-.04.1-.09.03-.13.09-.12.15.02.05,0,.11-.04.12s-.08,0-.08-.04c-.01-.03-.09-.02-.18.03-.09.05-.14.1-.11.11.05.03.09.02.37-.04.21-.05.23.07.03.13-.09.03-.2.13-.26.24-.11.21-.08.22.09.05.08-.08.14-.1.21-.07.07.03.07.07,0,.12-.06.05-.07.11-.02.17.06.08.05.09-.04.04-.06-.03-.18-.04-.25-.01-.12.04-.12.05,0,.08.19.04.28.36.15.52-.1.11-.11.11-.09-.06.02-.27-.08-.2-.11.09-.02.18,0,.24.06.24.13,0,.18.23.07.32-.05.04-.12.07-.15.06s-.02.06.03.16c.07.14.05.2-.06.31-.09.08-.12.16-.08.22.07.08-.18.67-.28.67-.03,0-.02.05.03.12.09.14.07.58-.03.55-.08-.02-.16.51-.1.67.03.08,0,.13-.09.16-.12.04-.12.05-.02.12.1.07.11.09.04.17-.25.28.43.13,2.87-.66,1.15-.37,1.97-.67,2.07-.74.12-.1.17-.11.19-.05.02.05.04.05.05,0,.03-.08.39-.32.84-.55.17-.09,1.1-.4,1.48-.5.11-.03.15,0,.15.06,0,.06.04.09.09.07.06-.02.12.03.14.11.04.12.06.12.12.03.04-.06.08-.1.09-.09.04.07.14.22.22.35.08.12.07.14-.01.12-.09-.02-.09-.01,0,.05.09.06.12.17.14.5.01.24.03.51.04.61.04.4.01.88-.05.9-.04.01-.1-.02-.14-.07-.06-.08-.08-.07-.1.01-.04.16,0,.23.09.15.14-.11.23.31.15.71-.04.21-.04.36,0,.37.05.01.07.06.05.14-.02.07-.04.08-.06.04-.01-.04-.07-.08-.12-.08-.05,0-.09.04-.07.08.02.05.05.07.07.04.02-.03.08.07.12.22.05.19.05.27-.03.26-.05,0-.09.04-.08.09.01.05.03.16.04.24s.03.21.05.3c.02.11,0,.16-.09.16-.07,0-.12.03-.11.07s.05.05.09.04.09.05.12.15c.03.09.08.16.12.15.04-.01.08.01.09.05.01.04-.02.06-.08.05-.08-.02-.08,0,0,.04.12.07.1.37-.02.34-.04-.01-.06.04-.03.12s.07.13.11.12c.04-.01.08.01.09.05.01.04-.03.07-.1.07-.07,0-.14.04-.16.1-.03.08-.05.09-.09.03-.08-.1-.19-.06-.15.07.02.07.1.08.23.04.15-.05.2-.03.23.08.02.08.01.14,0,.15s0,.11.04.23c.07.19.05.23-.11.31-.1.05-.19.15-.19.21,0,.09.01.09.07,0,.12-.18.37-.07.37.16,0,.17,0,.17-.09.06l-.09-.12.03.14c.02.08.05.17.07.22s-.01.1-.07.12c-.09.03-.12-.01-.15-.21-.03-.23-.04-.24-.14-.12-.12.14-.11.2,0,.24.05.01.05.07.01.15-.08.16-.05.29.05.21.04-.03.06-.09.03-.13-.02-.04-.01-.08.03-.09s.07,0,.08.03c0,.03.08.1.16.15.09.06.11.06.07,0-.04-.05-.04-.16,0-.25.07-.19.12-.09.1.19,0,.12-.06.21-.16.25-.15.05-.14.05.03.06.1,0,.15.02.1.03-.05.02-.05.09,0,.19.05.09.05.17.02.18-.04.01-.04.05,0,.07.04.03-.02.08-.12.12l-.19.06.18.06c.23.07.26.16.09.22-.09.03-.12.09-.09.17.02.07.02.16-.01.19-.08.1-.02.19.07.11.05-.04.08-.11.06-.15-.01-.05.01-.14.06-.21.08-.11.08-.11.09.09,0,.12.03.28.06.37.03.09.01.16-.06.19-.07.02-.07.04-.01.05.14.01.15.12.01.17-.12.04-.09.26.04.33.12.07.09.15-.05.15-.12,0-.15.04-.14.15,0,.08-.04.17-.1.19-.09.03-.09.04,0,.07.1.03.11.06.04.21-.06.14-.06.17.01.15.07-.02.08,0,.02.04-.06.05-.05.08.03.13.08.05.08.08,0,.1-.06.02-.08.08-.05.16.03.07.08.11.12.09s.08.01.1.07.07.13.11.16c.04.03.03.09-.02.14-.07.05-.09.04-.09-.04,0-.06-.02-.11-.05-.09-.07.02-.01.44.08.55.05.06.07.06.09-.03.01-.06.06-.09.1-.07.04.02.03.1-.03.17-.08.11-.08.13,0,.1.09-.03.11,0,.1.19,0,.12-.04.23-.08.24-.04.01-.03.05.03.09.06.04.09.09.07.12s.05.03.14,0,.18-.09.19-.13h0ZM12.22,39.04c.04-.09.03-.12-.02-.1-.1.03-.16-.19-.09-.33.04-.09.04-.12-.04-.12-.13,0-.15-.1-.03-.19.07-.05.09-.04.09.03,0,.06.02.12.04.13.06.03.15-.15.16-.31,0-.11-.02-.11-.19-.02-.26.14-.29.29-.16.72.12.37.16.41.25.2h0ZM11.82,38.79c-.06-.16-.11-.3-.12-.29s-.04.09-.07.2c-.05.16-.03.21.08.31.2.17.23.11.12-.21h0ZM12.44,37.39c-.06-.02-.1-.06-.09-.1.01-.04-.03-.11-.08-.15-.07-.06-.1-.05-.11.02,0,.05-.04.1-.07.12s-.07-.02-.06-.07c0-.24-.2-.29-.52-.12-.03.01-.03.08,0,.14.02.07.05.08.05.02.01-.17.24-.18.34-.02.05.08.12.14.16.13.04-.01.08.01.09.05.01.04-.01.06-.05.05-.04-.01-.08.02-.09.06-.01.05.09.05.27-.01.19-.06.25-.1.18-.12h0ZM12.9,34.45s.02-.08.06-.09.1-.1.13-.2c.04-.14.03-.18-.06-.2-.16-.04-.25,0-.13.06.13.07.17.18.05.15-.06-.01-.07,0-.02.04.04.04,0,.1-.09.16-.09.05-.13.12-.1.14.08.07.19.02.16-.06h0ZM12.65,33.82c-.07,0-.08-.03-.05-.12.04-.09.02-.11-.09-.07-.08.02-.13.09-.11.14.03.1.29.19.33.11.01-.03-.02-.05-.07-.05h0ZM12.14,33.89c-.05-.15-.19-.17-.32-.04-.14.13-.08.26.07.15.07-.05.13-.05.14-.01.01.04.05.06.09.05s.05-.08.03-.15h0ZM12.91,33.19c0-.19-.02-.2-.21-.07-.11.07-.12.09-.02.07.11-.03.12-.01.08.09-.04.1-.03.12.05.09.06-.02.1-.1.1-.18h0ZM12.6,32.09c.04-.11.02-.12-.17-.05-.21.07-.22.08-.06.13.2.07.17.08.24-.08ZM9.81,32.42c-.11-.15-.16-.14-.29.05-.09.13-.09.14.08.04.16-.1.18-.09.18.07,0,.14.01.15.06.07.03-.06.02-.16-.03-.23h0ZM14.07,29.13s-.04-.1,0-.11c.04-.01.05-.08.02-.16-.04-.13-.05-.13-.12,0-.07.12.04.4.13.37.02,0,0-.05-.03-.1h0ZM14.56,28.28c.07-.08.05-.11-.12-.18-.24-.1-.29-.1-.19.02.04.05.04.1,0,.11-.05.02-.03.05.04.1.13.09.17.08.28-.05ZM14.64,27.54s0-.09-.04-.13c-.08-.1-.24.02-.2.15.03.09.18.08.24-.02h0ZM15.23,24.86c.04-.07.04-.14,0-.16-.03-.02-.07.02-.09.09-.02.07-.05.13-.08.14-.03.01-.09.05-.14.09l-.18.14s.02.02.16-.05c.14-.07.28-.18.32-.25h0ZM15.8,24.77c.04-.09.01-.11-.12-.11-.26.01-.28.03-.14.14.15.13.19.12.26-.04ZM15.53,23.95c-.15-.17-.26-.23-.37-.2-.03.01,0,.06.09.11.12.07.14.1.08.15-.05.04-.04.05.04.03.09-.02.12.02.14.15.02.17.03.17.09.05.06-.11.05-.16-.07-.3ZM15.77,23.66c.12-.09.11-.18-.02-.19-.06,0-.05-.02.02-.05.06-.02.11-.07.09-.11-.01-.04-.05-.04-.08,0s-.12.02-.2-.03c-.08-.05-.11-.06-.07-.02s.03.1-.02.14c-.06.05-.07.14-.02.26.04.11.1.16.13.13.03-.03.11-.09.16-.13h0ZM1.67,25.06c.03-.13.04-.23.02-.23s-.09,0-.17,0c-.11,0-.11,0-.03.06.13.08.08.27-.09.32-.09.03-.09.04.01.07.17.05.19.04.25-.23h0ZM10.1,21.81s-.09-.08-.18-.1c-.09-.02-.17-.08-.19-.13s-.08-.07-.15-.04-.18.04-.24.03c-.16-.01-.15.3.02.38.24.12.79.01.74-.15ZM8.18,19.44s-.08-.06-.14-.03c-.07.03-.12,0-.12-.05,0-.08-.02-.08-.09.02-.12.19-.04.29.17.21.11-.04.19-.1.17-.15h0ZM8.44,17.64c-.08-.04-.15-.07-.16-.07,0,0,.04.11.1.23.1.2.11.21.16.07.04-.13.03-.16-.1-.23ZM9.09,17.54c.05-.08.07-.13.03-.11-.18.09-.23.05-.29-.21-.03-.15-.05-.31-.04-.35s-.01-.08-.05-.09c-.04-.01-.07.05-.07.12,0,.15-.12.24-.16.12-.04-.13-.13-.03-.16.17-.02.19-.02.2.12.11.09-.06.16-.06.18,0,.02.04.07.14.11.2s.08.15.09.17c.03.08.12.03.23-.13h0ZM8.35,16.7s-.05-.03-.08.01c-.04.05-.06.03-.05-.05l.02-.25c0-.1-.02-.1-.13-.02-.08.06-.2.12-.26.14-.06.02-.1.08-.09.12.01.05.07.05.11.01.06-.05.1-.03.12.04.02.06.06.08.09.05.03-.03.07,0,.1.08.04.12.06.13.12.03.04-.06.07-.14.05-.18h0ZM9,12.24s-.05-.04-.08,0c-.07.08-.1-.03-.04-.14.03-.06,0-.15-.1-.27-.12-.14-.16-.16-.2-.06-.07.16-.05.22.06.13.11-.09.19.12.11.28-.05.09-.03.12.06.14.16.04.23.02.2-.07ZM10.31,8.29c.04-.12.03-.43-.01-.42-.07.02-.15.26-.1.28.03.02.02.04-.02.05-.04.01-.06.07-.05.12.04.12.14.1.19-.04h0ZM8.87,34.23c-.06-.18-.05-.26.02-.28.13-.04.15.03.1.31l-.04.22-.08-.25h0Z"/>
    </g>
  </g>
</svg>