<?xml version="1.0" encoding="UTF-8"?>
<svg id="Layer_2" data-name="Layer 2" xmlns="http://www.w3.org/2000/svg" viewBox="0 0 48 28.56">
  <g id="Layer_1-2" data-name="Layer 1">
    <g id="_ëÎÓÈ_1" data-name=" ëÎÓÈ 1">
      <path d="M26.13,28.46c0-.07-.06-.13-.12-.13s-.12-.04-.12-.08.04-.08.08-.08c.12,0,.1-.22-.02-.27-.06-.02,0-.04.14-.05.23,0,.23-.01.08-.13-.09-.07-.23-.12-.32-.13-.16,0-.16-.01-.02-.12.09-.07.11-.12.05-.14-.05-.02-.1-.17-.1-.34,0-.28-.03-.3-.2-.26-.15.04-.19.01-.19-.11,0-.09-.07-.29-.16-.45-.09-.16-.17-.39-.18-.51s-.09-.35-.19-.5c-.1-.16-.16-.33-.15-.37.02-.05-.07-.13-.19-.19-.16-.07-.19-.12-.13-.19s.07-.14,0-.25c-.07-.14-.07-.15.04-.11.19.07.16-.02-.07-.2-.12-.1-.18-.21-.16-.31.02-.09-.01-.17-.09-.2-.07-.03-.11-.09-.08-.13.03-.05,0-.06-.06-.04-.07.03-.11-.03-.11-.16,0-.11.03-.19.07-.18s.09-.04.11-.1c.03-.08,0-.1-.1-.06-.22.08-.28,0-.21-.32.05-.24.04-.28-.05-.25-.08.03-.11-.01-.11-.12,0-.09.04-.14.08-.11.05.03.08.01.08-.04s-.08-.09-.17-.09c-.11,0-.15-.04-.12-.1.03-.06.07-.17.1-.25.03-.08.08-.14.12-.14s.07-.06.07-.13c0-.1-.05-.12-.2-.08-.12.03-.2.02-.2-.04,0-.05-.04-.07-.08-.04-.07.04-.12-.12-.09-.31.02-.09-.19-.07-.29.03-.06.06-.1.06-.14,0s-.1-.06-.23,0c-.13.07-.18.07-.21,0-.02-.05-.07-.07-.11-.05s-.07.01-.07-.03.1-.12.21-.17c.12-.05.2-.12.17-.14-.06-.06-.55.2-.55.3,0,.04-.04.08-.08.08s-.08-.05-.08-.12-.06-.12-.12-.12-.15.05-.17.12c-.07.18-.19.15-.27-.06-.07-.18-.07-.17-.08.04,0,.32-.25.26-.42-.1-.13-.27-.14-.27-.19-.09-.04.12-.02.21.05.25.08.05.08.09.02.16-.11.11-.45-.01-.69-.25l-.18-.18-.21.26c-.12.14-.24.23-.27.2s.02-.14.11-.24c.15-.16.16-.21.08-.48-.05-.16-.13-.29-.16-.29-.12,0-.16.24-.08.45.1.27.1.28-.04.23-.07-.03-.12,0-.12.05s-.04.07-.08.04-.06-.09-.03-.15c.03-.05,0-.05-.08.02-.08.06-.14.16-.14.22s-.04.11-.08.11-.08-.03-.08-.07c0-.09-.46-.26-.52-.19-.03.03-.05,0-.05-.05s-.08-.1-.17-.1c-.15,0-.17.03-.12.28.06.33-.08.4-.19.09-.1-.26-.28-.31-.47-.14-.13.12-.17.12-.25.04-.08-.08-.07-.12.04-.18.08-.04.11-.11.07-.15-.04-.04-.09-.02-.11.03-.04.12-.27.14-.27.02,0-.05.04-.06.08-.04s.08-.02.08-.1c0-.13-.02-.13-.16.04-.08.1-.2.18-.26.19-.06,0,0,.06.11.13.27.15.3.31.04.23-.1-.03-.2-.08-.22-.11-.08-.09-.33-.05-.41.07-.06.1-.09.1-.21-.04-.13-.15-.13-.15-.02.04l.12.2-.4-.03c-.23-.02-.4,0-.4.05,0,.12-.35.02-.47-.13-.06-.07-.1-.09-.1-.03,0,.1-.49.08-.77-.03-.13-.05-.15-.03-.11.11.03.13.01.18-.1.18-.08,0-.2.05-.26.11-.06.06-.19.1-.29.1-.1,0-.16.02-.14.05.07.12-.19.07-.29-.05-.08-.1-.08-.12.03-.12.17,0,.23-.1.14-.24-.06-.09-.09-.09-.2.02-.07.07-.13.17-.13.23,0,.07-.03.07-.12,0-.17-.14-.16-.33.02-.28.12.04.12.03-.02-.08-.21-.17-.25-.16-.26.08,0,.11.01.2.04.2s.06.08.07.17c.01.14-.02.16-.17.11-.19-.06-.3-.18-.3-.34,0-.06-.03-.1-.06-.09-.18.03-.28-.02-.24-.13.03-.07.01-.12-.03-.12s-.08.07-.08.16.03.16.06.16c.08,0,.36.5.32.54-.02.02-.11-.07-.21-.19-.11-.14-.2-.19-.23-.14-.07.11-.29.03-.32-.11-.01-.06.04-.1.12-.1.12,0,.12-.01.02-.08-.16-.1-.25-.03-.25.2,0,.1-.06.21-.13.24-.1.04-.11.08-.04.21.12.22.11.29-.04.17-.07-.06-.12-.16-.12-.23s-.02-.1-.05-.08c-.03.03-.12-.03-.21-.13l-.16-.18.03.22c.02.12,0,.22-.03.22s-.07.05-.07.12-.06.12-.13.12c-.11,0-.11-.02-.03-.12s.08-.12-.03-.12c-.07,0-.16-.06-.18-.13-.04-.11-.07-.11-.25.01-.2.13-.2.13-.14-.02.11-.27.09-.39-.07-.42-.12-.02-.14,0-.1.14.03.09.02.17-.01.18s-.16.02-.27.04-.25.04-.31.05-.1.06-.1.12-.04.11-.08.11-.08.08-.08.17c0,.12-.04.16-.13.12-.07-.03-.16-.05-.2-.05s-.06-.06-.05-.14c0-.1-.06-.15-.21-.17-.15-.02-.22.01-.22.09,0,.07-.1.14-.22.16-.3.06-.39-.01-.21-.15.14-.1.13-.11-.07-.11-.12,0-.23-.05-.25-.1-.05-.13-.39.16-.39.32,0,.06-.04.09-.08.06-.05-.03-.06-.09-.03-.14.04-.06-.02-.07-.17-.03-.2.05-.21.04-.13-.1.13-.25.1-.29-.09-.12-.1.09-.15.1-.11.04.05-.08-.03-.06-.23.05-.16.1-.36.18-.44.19-.29.03-.44,0-.39-.08.1-.17-.35-.08-.46.1-.12.18-.37.14-.25-.04.08-.14.1-.71.02-.71-.04,0-.09.07-.12.16-.03.09-.09.16-.13.16-.14,0-.08-.1.19-.35l.26-.24-.31.13c-.17.07-.33.13-.35.13s-.03.15-.03.34c0,.29-.02.32-.13.23-.07-.06-.11-.16-.08-.22.07-.19-.03-.27-.21-.18-.13.07-.2.06-.32-.05-.15-.13-.16-.13-.25.06-.07.15-.16.2-.33.2-.13,0-.24-.03-.24-.07s.05-.07.12-.07.12-.06.12-.13c0-.1-.03-.11-.15-.04-.16.09-.33.07-.67-.06-.15-.06-.24-.06-.3,0-.06.06-.08.04-.07-.08.02-.21.2-.3.36-.16.1.09.11.06.08-.2-.03-.23,0-.32.09-.38.12-.07.12-.08,0-.08-.2,0-.18-.14.03-.19.15-.04.16-.06.07-.18-.1-.12-.11-.12-.16,0-.04.13-.06.13-.16,0-.06-.07-.08-.19-.06-.26.03-.07,0-.2-.05-.29-.08-.14-.08-.18.06-.28.14-.11.15-.12.02-.12-.25,0-.46.15-.4.31.05.13.04.13-.1,0-.13-.12-.13-.15-.02-.26.07-.07.2-.13.28-.13.14,0,.14-.01-.01-.12-.14-.1-.14-.12-.02-.12.2,0,.17-.12-.05-.23-.16-.08-.16-.09-.03-.09.11,0,.14-.05.1-.14-.03-.07-.01-.16.04-.19.05-.03,0-.11-.14-.2-.13-.08-.26-.2-.29-.25-.03-.06-.12-.08-.19-.06-.1.04-.11.02-.05-.11.04-.08.06-.21.04-.27-.03-.09.03-.1.3-.07.18.02.34.02.34-.02,0-.1-.28-.17-.44-.11-.09.03-.13,0-.13-.08,0-.12.11-.16.38-.15.12,0,.04-.23-.12-.36-.09-.07-.1-.1-.02-.1.08,0,.09-.03.01-.12-.11-.13.03-.49.16-.41.04.02.13-.04.2-.14.18-.26.16-.34-.05-.15-.24.23-.31.21-.31-.08,0-.13,0-.27,0-.31,0-.16.24-.09.28.08.03.13.04.12.03-.06-.01-.21-.04-.24-.22-.22-.18.02-.18.01-.06-.07.08-.05.14-.13.14-.17s-.04-.06-.08-.03-.08.01-.08-.03.06-.12.14-.16c.13-.07.12-.08-.04-.09-.1,0-.18-.04-.18-.09s.05-.07.12-.05c.18.07.32-.15.17-.27-.07-.06-.12-.08-.12-.05s-.07.01-.16-.03c-.27-.15-.19-.26.16-.23.34.03.42-.07.25-.34-.07-.1-.08-.1-.09.04,0,.09-.03.12-.05.06-.03-.06-.12-.08-.24-.05-.13.03-.2.02-.2-.05,0-.05.05-.08.12-.05.16.06.15-.03-.02-.17-.13-.11-.13-.11.04-.08.1.02.21,0,.24-.05.03-.05.02-.06-.04-.03-.12.07-.12-.05,0-.31.06-.14.16-.21.28-.21.1,0,.19-.03.19-.07s-.13-.06-.29-.04c-.21.02-.27,0-.23-.08.03-.05.05-.17.04-.25-.02-.12.01-.14.15-.1.1.03.17.02.17-.03,0-.05-.07-.09-.16-.09-.26,0-.35-.31-.22-.69.06-.18.16-.33.23-.33s.13-.07.14-.15,0-.14-.04-.13c-.04,0-.15,0-.25,0-.22-.01-.25-.17-.03-.17.09,0,.18-.04.21-.08.03-.05.01-.08-.03-.08s-.06-.05-.04-.12c.03-.07,0-.12-.06-.12-.07,0-.11-.1-.12-.28,0-.23.02-.28.14-.28.08,0,.15-.05.16-.1s.02-.17.03-.25,0-.14-.05-.14-.07.07-.07.16-.03.18-.07.2c-.04.02-.07-.08-.06-.24,0-.15.05-.3.11-.32.06-.02.08-.1.05-.16-.03-.07,0-.13.06-.13.08,0,.08-.02-.01-.08-.1-.06-.1-.08,0-.08.09,0,.09-.03-.01-.14-.14-.16-.06-.51.12-.51.08,0,.08-.02,0-.07-.11-.07-.21-.83-.11-.83.03,0,.07-.1.08-.21.01-.16-.01-.2-.1-.17-.18.07-.11-.13.08-.25.15-.09.15-.1.02-.15-.21-.08-.17-.23.04-.17l.18.05-.18-.15c-.16-.13-.17-.16-.06-.25.1-.08.14-.07.24.05.11.15.12.14.12-.11,0-.27-.12-.43-.19-.25-.02.06-.04.02-.05-.08,0-.1.03-.18.07-.18.05,0,.05-.07.01-.18-.07-.2.18-.63.37-.63.06,0,.11-.07.11-.16,0-.11.05-.16.16-.16.09,0,.16-.04.16-.08s.05-.08.11-.08c.07,0,.1-.09.07-.31-.03-.29-.03-.3.09-.14.07.09.15.13.19.1s.01-.1-.05-.15c-.09-.06-.1-.09-.02-.12.06-.02.1-.09.1-.16s.04-.11.08-.11.08.03.08.07c0,.08.15.04.64-.15.23-.09.26-.14.22-.3-.03-.14-.01-.19.08-.19.07,0,.12.03.12.07s.07.06.16.03c.11-.03.15-.09.12-.23-.05-.27.09-.32.2-.08.05.11.13.2.18.2.14,0,.09-.14-.06-.2-.13-.05-.13-.06.02-.17.09-.06.27-.12.41-.12h.25s-.2-.13-.2-.13c-.11-.07-.14-.11-.06-.08s.14,0,.14-.03.07-.08.16-.08.18-.04.21-.08c.08-.13.79-.07.96.07.14.12.15.11.1-.08-.05-.18-.03-.21.14-.21.1,0,.23-.01.27-.02.15-.04.37.1.37.24,0,.09.03.08.08-.05.07-.17.16-.22.37-.19.05,0,.14-.05.19-.11.15-.18.46-.15.66.05.09.09.19.15.22.12.03-.03,0-.08-.07-.12-.22-.13-.03-.17.27-.04.19.08.28.05.26-.08-.04-.22.08-.28.16-.08.06.16.25.16.38,0,.08-.1.13-.1.22-.03.09.08.13.07.18,0,.07-.12.16-.11.31.01.08.07.14.05.24-.04.12-.12.14-.12.23,0,.08.11.11.11.21,0,.1-.11.15-.1.46.06.19.1.35.15.35.11s.04-.05.1-.02c.15.09.56.1.56.01,0-.05.11-.06.26-.03.15.03.42.07.61.09.43.04.53.1.48.29-.03.11,0,.15.12.15s.15-.04.12-.14c-.07-.23.06-.34.47-.36.32-.02.38-.05.35-.17-.03-.12,0-.13.18-.09.12.03.23.07.25.08.02.02.08-.03.15-.11.08-.1.13-.11.16-.04.02.05.09.08.16.05.07-.03.12,0,.12.07,0,.09.01.09.07,0,.11-.17.31-.05.36.21.06.32-.03.43-.14.17l-.09-.22-.15.26c-.08.15-.12.24-.08.2.04-.03.11-.03.16.02.11.09.66-.18.63-.32-.01-.05.02-.09.07-.09s.07-.06.06-.13c-.01-.07.04-.14.11-.16.16-.03.43.33.34.46-.03.05,0,.12.06.16.18.11.25.09.2-.07-.04-.12,0-.15.18-.14.16,0,.25-.05.3-.18.08-.19.2-.25.2-.1,0,.05.05.08.12.08s.12-.03.12-.08.05-.06.12-.03.14.19.17.36c.06.33.15.41.23.19.07-.18.06-.2-.07-.2-.08,0-.1-.05-.07-.13.04-.09.11-.12.28-.08.13.03.23.01.23-.03s.04-.08.09-.08.07.05.04.12c-.07.17.16.16.26-.02.04-.08.11-.11.15-.07.04.04.02.09-.03.11-.13.05-.13.43,0,.43.05,0,.03.05-.06.12-.15.12-.15.12.03.12.18,0,.23-.15.2-.59,0-.08.02-.14.07-.14s.08.04.08.09.06.07.13.04c.07-.03.21,0,.32.08.19.12.21.12.41-.1.13-.15.2-.18.17-.09-.02.08-.01.14.03.14s.11-.06.16-.14c.08-.13.08-.13.09,0,0,.08-.07.16-.16.19-.28.09-.18.17.26.19.25.01.45-.02.48-.07.09-.15.24,0,.24.23,0,.16.03.2.13.16.07-.03.14-.05.16-.05s.03-.05.03-.11c0-.16.21-.33.28-.22.03.05.09.07.13.04s.08,0,.08.08c0,.08-.05.11-.14.07-.09-.04-.12-.02-.07.05.03.05.13.08.22.05.09-.03.16-.02.16.02s.05.07.12.07.12-.03.12-.07.05-.04.12-.02c.09.03.12-.01.12-.16,0-.28.15-.35.3-.15.14.2.36.23.36.05,0-.07.05-.12.1-.12.15,0,.45.15.33.15-.19.01-.2.28-.02.47.23.25.3.24.25-.01-.02-.11-.07-.2-.11-.2s-.07-.04-.07-.09c0-.07.03-.07.11,0,.09.07.15.05.28-.11.14-.18.18-.19.26-.08.06.07.07.12.03.12s0,.05.09.12c.15.11.15.11,0,.1-.08,0-.17.04-.19.1-.03.08,0,.1.09.07.07-.03.15-.02.18.03.06.1.32-.15.32-.32,0-.16.23-.21.38-.07.06.06.22.11.36.13.42.03.56.07.59.16.02.04.14.06.28.04.21-.03.25-.01.2.1-.04.1,0,.13.11.13.11,0,.16-.05.16-.16,0-.21.14-.21.2,0,.08.24.19.12.14-.14-.04-.21-.04-.22.1-.08.11.11.17.12.25.05.06-.05.15-.07.2-.03.07.04.06.08-.02.13-.08.05-.08.07,0,.07.06,0,.1.08.1.18,0,.15.02.16.08.06.04-.07.06-.2.03-.3-.02-.1,0-.2.06-.24.07-.04.09-.02.05.07-.03.09-.01.14.07.14.07,0,.12-.04.12-.09,0-.06.04-.06.12.01.08.07.12.07.12.01,0-.05.04-.09.08-.09s.08.05.07.1c-.03.25,0,.31.15.23.41-.22,1.08-.28.95-.08-.04.06.21.24.33.24.03,0,.03-.09,0-.2-.03-.11-.02-.2.02-.2s.1.08.12.18c.04.14.07.16.14.09.07-.07.12-.07.21.02.13.13.27.15.27.04,0-.08.59-.33.77-.33.07,0,.1.06.07.16-.03.11,0,.16.09.16.07,0,.13.06.13.13,0,.08.05.12.14.09.12-.03.14.02.14.26,0,.16-.03.31-.07.34-.04.03-.02.1.05.16.1.1.09.13-.08.27-.16.12-.21.13-.26.05-.04-.06-.15-.09-.27-.07-.18.03-.2.02-.13-.11.05-.1.05-.15,0-.15-.05,0-.08.04-.08.08s-.07.08-.16.08-.18.03-.21.08-.17.07-.33.07c-.15,0-.26-.04-.23-.08s-.05-.05-.17-.03c-.23.04-.27-.02-.11-.18.08-.08.07-.1-.05-.1-.08,0-.12.03-.1.08.03.04,0,.1-.04.13s-.08.02-.08-.03-.13-.08-.28-.08-.28.03-.28.06-.1.04-.22.02c-.2-.04-.2-.05-.07-.15.18-.13.08-.31-.13-.25-.1.03-.15,0-.15-.09,0-.1-.03-.09-.13.05-.12.17-.34.27-.24.1.06-.09-.05-.11-.24-.03-.16.06-.17.2-.02.2.06,0,.13.05.15.11.03.08-.05.11-.3.1-.19,0-.36-.04-.39-.08-.03-.05-.11-.03-.18.03-.1.08-.13.08-.13,0,0-.06-.07-.09-.19-.06-.13.02-.22-.02-.29-.12-.09-.15-.2-.14-.22.03,0,.04-.02.1-.02.13,0,.03-.07,0-.13-.05-.08-.07-.12-.07-.12-.01,0,.05-.03.09-.07.09s-.05-.07-.03-.16c.03-.12,0-.16-.12-.16-.09,0-.18.05-.21.12-.05.14-.27.16-.31.03-.02-.07-.07-.07-.21,0-.11.06-.19.06-.22.02-.03-.04-.11-.05-.18-.03-.1.04-.12.02-.08-.08.03-.07,0-.15-.06-.17-.07-.03-.1,0-.07.11.03.13,0,.16-.21.16-.14,0-.27-.04-.3-.09-.03-.05-.1-.07-.17-.04-.07.03-.11,0-.11-.07,0-.08-.05-.1-.14-.07-.1.04-.12.02-.08-.08.07-.17-.08-.26-.37-.23-.17.02-.22-.01-.22-.12,0-.13-.01-.13-.16,0-.09.08-.14.18-.11.23.03.05.07.04.11-.02.04-.06.08-.02.12.12.07.3,0,.34-.28.18-.15-.09-.26-.11-.29-.06-.03.05-.08.08-.12.08-.1,0-.16-.29-.08-.41.04-.07.08-.04.1.09.03.15.04.14.03-.05,0-.16-.06-.25-.16-.27-.1-.02-.13.01-.1.1.03.07,0,.19-.04.27s-.09.1-.09.05c0-.06-.09-.1-.2-.1s-.23.05-.26.1c-.16.25-.33.32-.53.21-.26-.14-.54-.14-.59,0-.03.07-.15.1-.35.08-.25-.02-.33-.08-.45-.29-.16-.3-.17-.35-.07-.35.04,0,.1.07.13.16.03.09.1.16.17.16s.12.06.12.13.04.1.08.07c.06-.04.06-.09,0-.16-.18-.22-.16-.43.07-.53.12-.06.17-.12.12-.14-.05-.02-.18.02-.28.09-.24.17-.4.16-.34-.01.03-.09-.01-.07-.12.06-.12.15-.14.24-.08.35.11.2,0,.3-.13.12-.14-.2-.29-.18-.27.03.01.1-.03.19-.08.21-.06.02-.1-.03-.1-.11,0-.13-.01-.13-.12.01-.11.15-.12.15-.19-.04l-.07-.2-.05.21c-.05.2-.07.21-.62.2-.37,0-.57-.04-.57-.11,0-.05.05-.11.1-.14.07-.03.07-.04,0-.05-.05,0-.12.03-.15.08-.1.16-.26.08-.39-.21-.19-.4-.18-.56.02-.45.21.11.32-.05.12-.2-.13-.09-.13-.13-.04-.24.09-.11.09-.13-.02-.13-.13,0-.17.09-.14.31,0,.06-.02.1-.06.1-.09,0-.18.43-.11.49.03.02.1.13.16.23.09.16.09.21,0,.26-.18.11-.34.08-.28-.05.03-.07,0-.12-.07-.12-.07,0-.12.05-.12.11,0,.07-.09.11-.24.1-.14,0-.21-.04-.19-.09.06-.1.09-.28.05-.28-.02,0-.11.07-.2.17-.09.09-.2.14-.25.11-.05-.03-.13,0-.2.05-.1.08-.13.05-.21-.14-.07-.17-.11-.2-.14-.11-.07.17-.33.18-.49.02-.16-.16-.34-.49-.34-.63,0-.06-.06-.15-.14-.21-.12-.1-.13-.09-.09.06.05.18-.21.49-.3.36-.02-.04,0-.08.04-.1.05-.02.04-.09-.03-.19-.11-.16-.12-.16-.29,0-.14.13-.19.13-.29.05-.1-.08-.12-.08-.13,0,0,.09-.01.09-.07,0-.05-.08-.07-.02-.06.19,0,.23.03.28.09.2.05-.06.19-.16.31-.23.2-.1.24-.1.3,0,.15.24.09.34-.16.29-.14-.03-.26-.01-.3.04-.04.06-.01.08.07.04.11-.04.12-.02.04.14-.1.22-.4.33-.49.19-.04-.07-.11-.07-.27,0-.27.12-.29.12-.29-.03,0-.07-.07-.12-.18-.11-.1,0-.14.02-.08.05.14.06.13.27-.02.27-.07,0-.18-.09-.25-.2-.1-.16-.15-.18-.24-.1-.06.05-.09.14-.07.2.06.16-.33.27-.43.12-.05-.07-.15-.1-.23-.07-.07.03-.13.02-.13-.02s-.08,0-.19.1c-.24.21-.7.27-.82.1-.08-.11-.12-.11-.39.03-.23.12-.38.14-.63.09-.18-.03-.31-.03-.28.01s-.02.07-.09.07-.15-.06-.18-.13c-.04-.1-.06-.11-.13-.02-.05.08-.07.04-.04-.12.03-.18.02-.21-.07-.13-.06.05-.09.17-.06.28.04.16.02.18-.16.14-.11-.02-.21,0-.21.03s-.11.08-.24.09c-.17.01-.23-.01-.2-.09.02-.06,0-.13-.05-.16-.05-.03-.09-.02-.09.03s-.04.09-.08.09-.06-.08-.03-.19c.03-.14,0-.21-.09-.25s-.12-.02-.09.06c.02.06,0,.15-.04.2-.05.05-.02.12.1.21.1.07.16.15.13.18s-.11,0-.18-.08c-.18-.18-.39-.16-.57.04-.2.21-.44.35-.44.25,0-.04.05-.13.12-.2.07-.07.12-.18.12-.26,0-.08.04-.11.1-.07.07.04.08.01.04-.08-.03-.09,0-.16.07-.18.07-.03.12-.08.12-.12s-.05-.05-.12-.02c-.07.03-.12,0-.12-.04s-.06-.09-.13-.09c-.1,0-.12.05-.08.2.03.14,0,.21-.08.25-.07.03-.11.1-.08.17.07.18-.12.53-.29.53-.08,0-.15-.04-.15-.09s-.05-.14-.12-.21c-.07-.07-.12-.08-.12-.03s-.04.09-.08.09c-.05,0-.07-.16-.04-.38.03-.3.02-.36-.06-.28-.15.15-.22.11-.17-.09.04-.18.04-.18-.08-.02-.08.1-.1.18-.04.21.05.03.06.16.02.33-.03.15-.03.25,0,.21.09-.09.28.1.28.27,0,.19-.05.19-.22.02-.12-.12-.15-.11-.32.09-.13.15-.24.21-.36.18-.11-.03-.19,0-.22.09-.06.16-.26.33-.39.34-.05,0-.13-.08-.18-.18-.09-.18-.09-.18-.09.04,0,.12-.05.22-.11.22-.15,0-.43.35-.32.39.11.04.13.26.01.26-.05,0-.08-.04-.08-.1,0-.06-.05-.05-.14.04-.11.11-.12.16-.04.24.15.15.13.42-.02.36-.07-.03-.12-.02-.12.02s.06.09.13.12c.23.09.07.13-.19.05-.3-.09-.36-.05-.27.19.05.12.03.23-.05.33-.14.2-.14.29,0,.29.06,0,.11.08.11.18s.02.34.05.54c.03.2.01.4-.03.45s-.06.18-.04.28-.02.26-.08.35c-.1.14-.1.18,0,.28.15.15.16.46.02.41-.06-.02-.15.01-.21.07-.09.09-.08.11.02.11.07,0,.13.04.13.08s-.03.08-.07.08-.04.14-.01.32c.04.2.02.41-.05.57-.06.15-.07.27-.03.3.12.07.09.2-.05.2-.07,0-.12.04-.12.08s.04.08.09.08.07.07.03.16c-.03.1-.02.16.05.16.07,0,.07.04-.01.13-.1.12-.11.12-.15,0-.03-.08-.08-.1-.15-.06-.08.05-.06.11.07.25.12.13.16.24.12.38-.03.11-.02.2.02.2s.06.12.05.26c-.02.15-.03.3-.03.34s-.08-.01-.17-.11c-.15-.18-.16-.18-.22-.03-.03.08-.07.19-.1.23-.02.04.02.05.11.02.22-.08.5.23.36.41-.07.08-.08.14-.02.18.05.03.06.12.02.22-.06.15-.07.15-.12.02-.03-.08-.09-.12-.14-.09-.04.03,0,.1.1.17.15.11.16.14.05.2-.07.04-.11.13-.08.23.05.19.27.4.27.26,0-.05.04-.09.08-.09.05,0,.04.08-.01.2-.05.11-.14.2-.2.2s-.11.03-.11.08c0,.13.16.19.27.1.07-.06.1,0,.12.2.01.17-.01.26-.06.23-.05-.03-.08-.01-.08.04s.04.09.08.09.07.08.05.18c-.02.12-.11.21-.28.26-.18.05-.26.13-.26.25,0,.16,0,.16.11.02.06-.08.14-.14.17-.14s.03.06,0,.14c-.1.25-.13.66-.04.71.05.03.08.11.08.17s-.04.1-.09.07c-.05-.03-.04.03.02.13.09.15.09.19,0,.22-.07.03-.01.1.16.2.15.09.23.18.18.21-.1.07-.22.36-.12.31.04-.02.14.02.22.08.13.1.13.12.02.08-.08-.02-.16.01-.18.07-.02.07-.1.12-.17.12s-.11.03-.08.08.11.05.18.03c.1-.04.12-.02.08.09-.04.1-.02.13.05.11.06-.02.09-.08.08-.13-.01-.05.02-.07.06-.05.12.08.1.47-.04.65-.11.14-.13.15-.2.04-.04-.07-.08-.08-.08-.03,0,.05.05.14.12.19.16.13.16.3-.01.36-.07.03-.11.07-.09.1s.12,0,.21-.04c.16-.08.31,0,.2.11-.11.11-.08.39.05.44.07.03.17.09.21.15.05.05.16.12.26.15.15.05.17.03.13-.09-.05-.12-.03-.13.06-.05.07.05.25.09.4.09s.36.03.46.06c.13.04.2.01.27-.13.05-.1.12-.15.15-.1.08.12.42.21.42.11,0-.12.25-.16.48-.08.11.04.23.04.29-.01.13-.11.86-.07.86.05,0,.06.11.04.3-.06.35-.18.51-.2.51-.05,0,.07.03.06.08-.02.07-.1.09-.1.13.05.03.12.11.17.29.17h.25l-.18-.14c-.1-.08-.15-.16-.11-.18.14-.08.91-.07.97.01.03.06.1.06.21,0l.32-.16c.24-.12.27-.1.21.12-.04.16-.02.19.08.15.08-.03.11-.1.08-.2-.05-.16.15-.22.25-.07.08.12.2.1.16-.03-.02-.06.01-.13.08-.16.08-.03.13,0,.13.07,0,.08.06.1.18.07.36-.09.88-.09.88,0,0,.05.06,0,.13-.1.13-.18.13-.18.27-.03.11.13.17.14.3.07.15-.09.31-.12.64-.13.1,0,.13-.05.1-.13-.03-.07-.01-.12.03-.12.08,0,.11.11.08.31-.01.08.02.09.15.02.14-.07.17-.07.17.03,0,.07.04.13.09.13s.07-.07.04-.15c-.03-.11,0-.17.14-.2.33-.09.38-.06.34.17-.03.17-.02.19.05.1.05-.07.08-.18.08-.26,0-.19.22-.25.48-.12.22.11.42.1.42-.04,0-.04-.06-.07-.13-.07s-.11-.03-.08-.07c.05-.08.45.08.45.18,0,.04.04.04.09,0,.07-.04.08,0,.04.16-.03.12-.02.22.02.22.12,0,.18-.26.08-.38-.1-.12-.05-.36.09-.36.05,0,.08.05.08.11,0,.08.06.1.17.07.15-.04.16-.03.08.12-.13.24-.11.28.08.16.13-.08.18-.08.21,0,.05.15.27.03.27-.15,0-.08.04-.15.08-.15s.08.03.07.06c-.03.16.02.19.14.1.1-.09.14-.09.19,0,.05.08.08.08.12.01.03-.05.09-.07.13-.05s.08,0,.08-.04.03-.08.06-.07c.03,0,.13-.02.21-.05.11-.05.12-.09.05-.18s-.07-.11.02-.11c.07,0,.17.09.23.2.07.14.16.15.26.04.2-.21.2-.21.35.08.12.24.12.25-.12.27-.02,0-.1.07-.18.15-.15.16-.07.21.09.05.05-.05.2-.1.32-.1.13,0,.21-.05.2-.11-.01-.05.06-.1.15-.1.1,0,.19-.07.21-.16.07-.25.3-.21.25.04-.02.11,0,.23.03.25.04.02.07,0,.07-.03s.14-.06.33-.03c.27.04.33.02.33-.09,0-.09.03-.11.1-.07.06.03.17.05.25.04.08-.01.14.01.14.05s.09.06.2.04c.14-.03.2,0,.21.07,0,.07.03.06.09-.03.05-.08.11-.13.15-.1.04.02.09-.01.11-.08.04-.11.07-.11.25.01.19.12.24.1.21-.07-.02-.11.14-.06.18.06.07.18.23.15.18-.03-.03-.09,0-.18.05-.22.06-.04.08-.03.04.03-.08.13.03.11.28-.03.26-.15.33-.15.33,0,0,.09.05.11.22.07.14-.03.2-.02.16.03-.03.05,0,.13.06.18.09.07.12.05.17-.09.03-.11.07-.15.1-.08.02.06.09.1.16.1s.12.05.12.1c0,.06.05.02.09-.08.05-.1.15-.18.22-.18.11,0,.11.01,0,.08-.1.07-.09.09.06.13.1.03.18.08.18.11s.05.06.1.06c.22,0,.55.29.55.48s-.12.27-.18.11c-.03-.1-.31-.01-.31.1,0,.08.49.05.64-.04.06-.04.09,0,.09.11,0,.12-.04.15-.14.11-.09-.03-.12-.02-.08.04.03.05.03.23,0,.4-.05.28-.06.29-.13.12-.04-.1-.11-.16-.15-.13s-.06.09-.04.13-.04.11-.14.15c-.17.07-.17.08-.04.13.11.05.12.08.05.17-.07.08-.07.11,0,.11.11,0,.27-.29.2-.36-.03-.03,0-.03.08,0,.08.03.12.09.09.13s.02.07.09.07c.11,0,.12.02.03.12-.06.07-.08.14-.06.16s.11-.06.18-.18c.12-.18.12-.23.03-.29-.06-.04-.08-.07-.04-.07s.02-.06-.04-.14c-.1-.12-.09-.13.04-.08.12.05.14.02.1-.11-.06-.2,0-.21.21-.01.09.08.14.21.11.28-.03.07,0,.18.07.25.07.07.1.2.08.3-.03.1,0,.17.04.17.06,0,.07.06,0,.21-.08.2-.07.21.12.16.16-.04.2-.02.19.11,0,.09-.04.16-.08.16s-.04.04-.01.09c.03.05.02.07-.03.04-.05-.03-.11,0-.14.08-.03.07-.07.11-.1.09s0-.12.04-.2c.1-.19.03-.3-.12-.17-.08.06-.15.04-.27-.08-.09-.09-.17-.21-.17-.25,0-.12-.13-.1-.24.04-.06.07-.13.1-.16.08-.03-.02-.11.02-.16.08-.11.13-.05.16.26.13.1-.01.13.03.09.13-.03.1,0,.09.12-.06.14-.17.17-.18.18-.06,0,.08.02.19.03.25s-.01.16-.05.24c-.04.09-.03.15.03.18.08.03.08.06,0,.12-.12.09-.07.13.25.21.25.06.29-.03.1-.19-.17-.14-.15-.24.06-.32.25-.09.41-.02.36.17-.03.12-.02.14.07.07.06-.05.17-.07.26-.04.09.03.12.02.07-.02-.05-.04-.06-.15-.03-.27.03-.11.06-.17.07-.13s.06.02.13-.03c.08-.07.1-.16.07-.27-.05-.15-.04-.16.08-.06.17.14.27.06.13-.11-.09-.1-.08-.12.07-.12.1,0,.17.04.17.08s.06.08.14.08c.13,0,.13-.02-.02-.13-.13-.1-.14-.14-.05-.19.09-.05.09-.08,0-.1-.06-.02-.11-.12-.12-.23,0-.11-.04-.28-.07-.37-.04-.12,0-.23.13-.37.1-.11.17-.25.15-.31-.03-.08.04-.1.27-.06.23.04.28.03.23-.05-.12-.15-.2-.55-.11-.55.04,0,.09.04.11.1.06.17.23-.02.19-.2-.02-.1-.02-.13,0-.07.03.06.12.1.21.1s.14.04.11.08c-.03.05.01.08.09.08s.12-.02.09-.05c-.03-.03-.02-.1.03-.15.06-.07.03-.11-.12-.15-.2-.05-.29-.21-.12-.21.05,0,.08.04.08.08s.03.08.08.08.07-.15.06-.33c-.02-.34.03-.42.42-.63.18-.1.18-.09.13.1-.03.13,0,.28.08.41.07.11.11.26.08.33-.04.11.04.16.19.11.09-.03.11-.63.02-.63-.04,0-.08.05-.08.12s-.04.12-.08.12-.08-.13-.08-.28c0-.2.04-.28.13-.28.07,0,.1.04.08.08-.05.08,0,.11.37.19.19.04.57.54.41.54-.04,0-.08-.04-.1-.09-.02-.05-.09-.02-.17.06-.13.14-.13.15.06.14.11,0,.28-.07.38-.14.16-.11.17-.15.07-.23-.1-.08-.09-.08.04-.04.09.03.2.06.25.07.34.07.67.25.64.35-.02.06,0,.11.04.11s.1-.05.12-.1c.03-.08.11-.08.38-.01.31.08.36.08.54-.09.11-.1.2-.24.2-.31,0-.1.07-.12.32-.09.22.02.36,0,.44-.09.16-.16.39-.16.33,0-.03.07-.11.11-.18.1-.09-.02-.13.03-.11.14.04.21.11.27.15.14.02-.06.09-.1.15-.1s.13-.08.15-.18c.03-.16.04-.15.05.04.01.23.17.33.17.1,0-.08.05-.1.13-.07.11.04.12.02.04-.12-.06-.11-.07-.18,0-.18.05,0,.08.04.08.09,0,.06.04.06.13-.02.11-.09.14-.09.2.01.06.1.07.09.08-.03,0-.08.03-.14.07-.14s.05.1.03.22c-.03.16-.01.19.04.11.04-.06.12-.09.17-.06.06.03.09,0,.09-.11,0-.22.24-.22.43,0,.08.09.1.16.05.16s-.06.04-.03.08,0,.14-.05.2c-.07.09-.07.12,0,.12.05,0,.11-.05.14-.12.02-.07.1-.1.16-.07.18.07.38-.13.26-.27-.08-.09-.11-.1-.16,0-.05.08-.1.07-.21-.04-.14-.14-.14-.15.02-.24.22-.13.48-.15.37-.03-.05.06-.01.09.12.1.13,0,.2-.03.2-.12,0-.11.01-.11.08-.02.05.07.04.17,0,.26-.06.11-.05.13.04.1.06-.02.14,0,.17.04.03.05.02.09-.03.09s-.09.04-.09.09.05.07.11.05c.12-.05.21.1.21.32,0,.07-.04.1-.08.07-.05-.03-.08-.02-.08.02,0,.14.11.18.22.08.09-.08.13-.07.2.05.06.11.1.12.15.04.04-.07,0-.16-.13-.26-.11-.08-.2-.2-.2-.26s-.03-.12-.07-.14c-.1-.04-.19-.48-.1-.48.04,0,.09-.06.11-.14.02-.09.04-.07.05.07,0,.18.05.21.26.22.14,0,.31.06.39.11.12.09.12.09.04-.02-.06-.07-.08-.15-.05-.18.03-.03,0-.1-.05-.17-.18-.21.05-.22.28-.01.24.22.46.27.44.1-.03-.23.01-.31.16-.31.09,0,.18.03.2.07s.14.05.25.03c.18-.03.19-.05.08-.13-.11-.08-.09-.09.08-.1.11,0,.21.03.21.08,0,.15.55.15.64,0,.05-.08.09-.1.13-.05.03.05.02.11-.03.14-.11.07-.11.37,0,.37.05,0,.08-.06.08-.13s.04-.1.08-.08c.05.03.06,0,.03-.08-.03-.09-.01-.11.08-.08.07.03.2.02.27-.01.21-.09.43-.1.38-.02-.02.04-.1.07-.18.07-.08,0,0,.06.19.12.18.06.39.15.47.2.1.06.14.06.14,0,0-.12.21-.32.34-.32.08,0,.08-.02.01-.09-.07-.07-.07-.15,0-.28l.09-.19.15.18c.08.1.15.13.15.08,0-.16.23-.03.27.15.02.09.08.14.13.11.1-.06-.03-.37-.16-.37-.04,0-.08-.05-.08-.12,0-.07.05-.1.13-.07.07.03.18-.02.25-.1.13-.16.13-.17.03.25-.04.17,0,.53.07.53.04,0,.05-.11.03-.25-.02-.15,0-.25.06-.25s.07-.08.04-.2c-.06-.25.07-.27.2-.02.05.1.08.13.07.06-.03-.14.15-.36.25-.3.04.02.17-.03.3-.11l.24-.15-.4-.15.25-.1c.19-.08.21-.11.1-.14-.15-.04-.2-.18-.06-.18.05,0,.08-.06.08-.13,0-.09.05-.12.16-.09.17.04.23-.06.08-.14-.12-.07,0-.29.15-.29.12,0,.12-.02-.01-.11-.1-.08-.12-.13-.06-.17.05-.03.11-.03.14,0,.03.03.1,0,.16-.05.06-.05.21-.1.32-.12.28-.03.31-.08.16-.23-.14-.14-.3-.17-.3-.05,0,.05-.06.08-.14.08-.13,0-.13,0,0-.08.08-.05.12-.13.1-.19s.02-.13.08-.16c.17-.07.18-.79.01-.79-.09,0-.1-.04-.02-.21.07-.16.14-.2.27-.16.12.03.22-.01.3-.13.15-.21.08-.48-.12-.48-.1,0-.15-.06-.15-.16,0-.09.04-.16.09-.16s.13-.11.17-.25c.06-.17.13-.23.21-.2.09.04.11-.02.1-.26-.01-.17-.01-.36,0-.43.01-.11.02-.11.09,0,.13.2.16.05.07-.31-.05-.19-.15-.38-.23-.42-.12-.07-.13-.12-.06-.36.08-.25.11-.27.27-.21.24.09.43-.1.28-.29-.06-.07-.13-.11-.16-.09s-.11,0-.17-.04c-.09-.06-.06-.1.14-.17.23-.09.25-.11.12-.2-.13-.1-.12-.1.02-.11.15,0,.14-.02-.03-.21-.18-.19-.13-.3.05-.12.1.1.52-.03.52-.16,0-.15-.26-.18-.36-.04-.08.11-.11.12-.17.02-.2-.31-.03-.97.26-.97.07,0,.1-.04.07-.09-.03-.05-.16-.07-.31-.04-.2.04-.23.03-.15-.05.12-.12.14-.75.02-.68-.05.03-.08.01-.08-.03,0-.1.32-.22.62-.25.18-.01.05-.13-.14-.13-.08,0-.15-.02-.13-.04.01-.02-.05-.14-.13-.26l-.14-.22h.25c.15,0,.23-.03.2-.08-.03-.05-.08-.06-.13-.04s-.12.02-.17-.01c-.06-.04,0-.1.18-.15.29-.1.44-.36.21-.36-.07,0-.13.05-.13.11,0,.15-.37.24-.55.14-.13-.07-.12-.08.02-.08.11,0,.13-.03.07-.07-.05-.03-.12-.17-.14-.3-.02-.13-.08-.25-.13-.27-.06-.02-.06-.08,0-.18.06-.11.06-.16,0-.16-.05,0-.08-.05-.08-.12s-.07-.14-.15-.16c-.08-.03-.25-.13-.36-.24-.15-.14-.18-.21-.11-.28.07-.07.06-.09-.04-.09-.07,0-.15-.07-.17-.16-.02-.09-.09-.16-.14-.16-.07,0-.08.03,0,.11.07.08.06.13,0,.2-.11.11-.23.13-.22.03.02-.15-.02-.26-.1-.26-.05,0-.06.05-.03.1.05.08.03.08-.05,0-.06-.06-.18-.1-.26-.1-.09,0-.15-.06-.15-.17,0-.09-.03-.15-.08-.12-.04.03-.1.01-.12-.03-.03-.04-.33-.1-.68-.13l-.92-.08c-.16-.01-.36,0-.46.04-.22.08-.47-.05-.26-.13.08-.03.12-.09.09-.13s-.09-.05-.14-.02c-.14.09-.55.08-.55-.01,0-.05-.03-.03-.07.03-.08.13-.18.14-.25.02-.04-.06-.21-.07-.58-.02-.32.04-.54.04-.55,0-.02-.04-.08-.03-.14.02-.09.07-.11.07-.11,0,0-.07-.08-.08-.26-.04-.21.05-.25.03-.21-.07.08-.2-.14-.33-.29-.18-.11.11-.13.11-.17,0-.07-.19-.2-.14-.15.06l.05.18-.25-.18c-.14-.1-.34-.18-.44-.17-.17,0-.17.01-.04.07.14.06.14.07-.05.19-.19.12-.21.12-.3-.02-.11-.18-.42-.21-.42-.03,0,.07-.04.12-.09.12s-.07-.07-.05-.16c.05-.18-.06-.23-.13-.06-.02.06-.15.11-.29.12-.2.02-.25-.01-.26-.12,0-.12-.01-.12-.08-.03-.04.07-.06.15-.03.18.02.04,0,.07-.04.07s-.1-.06-.12-.14c-.03-.12-.04-.12-.05,0,0,.1-.08.13-.3.13-.19,0-.28-.04-.25-.11.05-.13-.17-.21-.25-.09-.04.06-.08.04-.12-.07-.05-.14-.06-.14-.07-.02,0,.21-.58.17-.58-.05,0-.06.03-.06.1,0,.15.15.2.12.18-.09-.01-.1-.02-.23-.03-.28s-.06-.08-.13-.06c-.42.13-.41.12-.28.21.1.06.09.09-.06.13-.1.03-.18.1-.18.16s-.03.11-.07.11c-.1,0-.26-.68-.21-.88.05-.18.19-.25.19-.08,0,.05.02.07.05.04s0-.11-.05-.18c-.12-.15-.06-.24.12-.18.09.04.11.11.07.28-.05.21-.04.21.27-.12.18-.19.38-.35.44-.36s.21-.02.33-.03c.16-.02.21,0,.18.08-.03.08.01.1.15.08.1-.02.14-.01.09.01-.06.03-.1.08-.1.12s.05.07.1.05c.11-.02.12.13.02.38-.05.11-.03.14.05.12.06-.02.11-.11.12-.19.03-.39.14-.77.21-.77.05,0,.06.07.03.15-.08.26.05.46.32.46.13,0,.27-.05.31-.1.09-.14.22-.13.22.01,0,.06.05.15.11.21.09.07.14.07.24-.03.07-.07.16-.12.19-.11.14.02.27-.01.26-.07-.03-.22.01-.28.13-.18.07.06.11.12.09.15-.02.03.06.16.17.3.19.23.2.24.14.04-.17-.57-.18-.75-.07-.7.06.02.11,0,.11-.03,0-.09.27-.11.35-.03.06.06-.09.37-.22.45-.06.04-.06.09.01.16.08.08.1.08.1,0,0-.07.04-.08.16-.02.1.06.18.06.21,0,.03-.05.09-.08.14-.08.05,0,.05.05-.02.12-.08.1-.08.12.04.12.08,0,.16-.07.18-.16.05-.2.19-.22.19-.02,0,.1.02.11.09.05s.05-.14-.08-.28c-.1-.1-.17-.26-.17-.35,0-.12.02-.13.05-.05.09.24.21.34.27.24.04-.07.09-.04.16.09.08.15.08.2-.01.25-.09.05-.09.09,0,.17.08.08.1.07.1-.04,0-.08.03-.12.07-.1s.07-.05.07-.16c0-.24.15-.45.34-.45.1,0,.11.02.03.07-.08.05-.08.09.02.17.07.06.13.07.13.03,0-.04.07.02.15.13.1.13.2.18.28.15.07-.03.13-.08.12-.11-.03-.19.02-.35.1-.3.05.03.07.1.04.17-.03.07.01.11.11.11.12,0,.14.05.11.22-.03.2-.02.21.08.08.06-.08.16-.14.21-.14.07,0,.05-.04-.03-.13-.16-.16-.17-.25-.02-.13.07.06.14.06.18.01s.16-.03.31.04c.28.14.32.15.25.03-.03-.05.03-.17.13-.26.15-.14.18-.14.13-.03-.04.1,0,.15.15.19.12.03.2.11.2.2,0,.08.04.17.08.2.05.03.08-.05.08-.18,0-.13.03-.19.06-.15.03.05.1.08.14.09.2.02.45.14.45.21,0,.04-.12.13-.26.19l-.26.11h.25c.21,0,.28-.05.41-.28.12-.22.17-.26.22-.17.04.07.12.1.2.07.09-.03.12-.01.09.06-.04.12.31.35.43.27.04-.02.07-.1.07-.16,0-.19.13-.13.14.07.02.21.18.55.28.55.03,0,.13-.07.21-.15.18-.18.51-.3.51-.18,0,.05-.05.09-.12.09-.16,0-.15.09,0,.29.09.12.14.13.17.05.06-.13.27.03.27.2s.21.36.36.3c.09-.03.13,0,.13.12,0,.09-.05.17-.1.17-.07,0-.06.03.02.08.07.04.09.08.04.09-.05,0,.03.04.16.07q.24.06.03.07c-.12,0-.24.07-.26.14-.07.18-.07.2.07.2.07,0,.12-.05.12-.12,0-.08.08-.12.2-.12s.2.05.2.12c0,.07-.04.12-.08.12-.05,0-.04.07.02.16.06.09.15.16.2.16s.09.09.08.21c0,.12.03.23.09.25s.1-.02.1-.09.03-.13.07-.13c.08,0,.06.38-.03.59-.03.08-.02.14.03.14.05,0,.09-.06.09-.13,0-.11.02-.11.13-.03.1.08.1.12.02.17-.08.05-.08.07,0,.07.06,0,.1.04.1.09s-.03.07-.07.05c-.04-.02-.06.04-.06.14,0,.24.12.54.2.54.11,0,.04.32-.11.49-.15.17-.07.24.09.08.06-.06.1-.03.13.12.02.11.01.19-.02.17-.03-.02-.15,0-.25.05-.19.08-.19.08,0,.05.21-.04.25.07.05.18-.11.06-.08.1.14.21.16.08.21.13.13.14-.08,0-.14.06-.14.13s-.03.11-.07.08c-.09-.05-.3.18-.23.25.03.03.01.1-.04.16-.07.09-.05.11.08.11.12,0,.16.04.12.12-.03.07-.12.12-.2.12-.17,0-.2.09-.07.21.06.06.06.15,0,.3-.06.16-.14.22-.31.22-.18,0-.2.02-.1.08.08.05.23.05.39,0,.27-.08.46.04.22.13-.08.03-.11.1-.08.2.04.12,0,.16-.14.16-.14,0-.15.02-.05.05.16.04.19.15.06.23-.05.03-.06.08-.04.12.02.04-.03.09-.13.11-.18.05-.14.22.05.22.07,0,.12.04.12.09s-.03.07-.07.04c-.13-.08-.18.22-.06.35.21.25.26.37.11.31-.07-.03-.17,0-.22.06-.07.09-.05.12.08.16.09.03.17.09.17.13,0,.12-.16.09-.16-.03,0-.07-.04-.06-.1.03-.05.07-.17.16-.25.21-.14.08-.14.09-.02.21.07.07.13.17.13.22s.04.09.08.09c.14,0,.09.23-.06.26-.13.02-.13.04,0,.16s.12.14-.07.17c-.11.02-.2,0-.2-.05s-.05-.02-.11.07c-.07.09-.16.13-.25.1-.07-.03-.13-.02-.13.03s.09.08.2.08c.13,0,.2.05.2.12s.05.1.12.08c.1-.04.1,0,.03.25-.05.16-.12.29-.16.29s-.05.04-.02.08.01.08-.04.08c-.06,0-.07.05,0,.16.12.22.1.29-.04.17-.11-.09-.16-.06-.13.11,0,.04-.03.12-.08.18-.05.06-.07.17-.05.24s0,.12-.04.12-.06.04-.03.08-.02.08-.11.08c-.19,0-.29.12-.21.25.04.06.08.06.12-.02.04-.06.1-.08.13-.04.04.04.01.1-.06.14-.35.21-.36.22-.25.36.06.07.08.16.05.19s-.08.01-.1-.04c-.02-.06-.09-.1-.15-.1-.08,0-.1.05-.05.18.09.25.05.6-.06.57-.05-.01-.09.02-.09.06s-.06.08-.13.08c-.11,0-.12.02-.02.13.09.11.09.15-.03.23-.19.14-.18.2.02.15.19-.05.22.1.04.27-.07.07-.1.16-.07.21.03.05.02.06-.04.03-.06-.04-.09,0-.09.11,0,.19-.08.21-.23.07-.08-.08-.1-.07-.1.04,0,.08-.06.14-.17.14-.1,0-.15.04-.11.09.03.05.1.07.17.04.08-.03.11.02.11.16,0,.11-.04.2-.09.2s-.07-.06-.04-.13c.03-.08.01-.12-.05-.1-.16.05-.18.49-.03.6.16.11.03.18-.28.16-.14-.01-.21-.07-.21-.17-.02-.29-.05-.32-.11-.07-.07.34.14.59.39.45.13-.07.2-.07.28.02.09.09.09.13-.01.22-.1.09-.13.09-.19,0-.06-.09-.09-.09-.17-.01s-.07.1.04.1c.16,0,.19.16.04.17-.06,0-.02.04.08.08s.18.11.18.16-.04.07-.09.03c-.05-.03-.21-.03-.37,0-.24.05-.27.07-.19.17.07.08.13.1.18.04.13-.13.3-.1.3.04,0,.07-.05.12-.1.1-.06-.01-.2.04-.32.12-.21.14-.23.14-.44,0-.21-.14-.22-.14-.17.02.05.15.01.16-.34.16-.21,0-.41-.04-.45-.08-.04-.06-.06-.05-.06.02,0,.06-.06.1-.12.1-.18,0-.15-.13.06-.28.11-.08.2-.1.23-.04.03.05.15,0,.29-.12.21-.18.22-.21.08-.2-.09,0-.26.05-.39.12s-.28.1-.34.07c-.07-.03-.12.02-.14.15-.02.15-.07.18-.22.17-.17-.02-.18,0-.08.11.1.11.09.13-.04.1-.16-.03-.26-.31-.11-.31.05,0,0-.07-.12-.16-.11-.09-.28-.16-.38-.16-.25,0-.21-.15.05-.19.21-.03.21-.03-.04-.05-.14,0-.28-.05-.31-.09-.03-.05-.09-.08-.15-.08-.07,0-.07.02,0,.07.06.04.13.21.15.39s.11.39.18.47c.12.14.11.14-.07.07-.11-.04-.43-.06-.71-.05-.3.02-.51,0-.51-.05,0-.14-.15-.09-.18.06-.03.11-.05.1-.13-.08-.11-.26-.21-.31-.14-.06.05.17-.07.23-.16.08-.03-.05-.09-.08-.15-.08-.06,0-.05.03.03.09.1.07.1.08-.03.04-.08-.03-.18-.05-.23-.05s-.05-.04-.02-.1c.04-.06.02-.08-.07-.04-.17.07-.26-.08-.13-.23.08-.1.07-.12-.03-.12-.08,0-.13.07-.13.17,0,.09-.03.15-.08.12-.04-.03-.1,0-.14.05-.04.07-.08.04-.13-.08-.07-.19-.44-.26-.38-.08.02.06.08.1.13.1.13,0,.12.16,0,.16-.06,0-.19-.04-.3-.1-.14-.07-.22-.08-.26-.01-.03.06-.08.04-.13-.05-.08-.15-.26-.1-.26.07,0,.07-.13.1-.39.11-.21,0-.46.03-.54.07-.11.05-.19.02-.26-.08-.06-.08-.12-.11-.15-.07-.05.08-.26.07-.48-.02-.08-.04-.2-.02-.28.05-.12.09-.13.09-.04,0,.06-.06.1-.18.1-.27,0-.13-.02-.14-.12-.06-.07.05-.16.07-.2.05-.05-.03-.08.03-.08.15,0,.18-.02.2-.22.14-.12-.03-.27-.05-.33-.03-.07.02-.08-.01-.05-.09.03-.08,0-.13-.08-.13-.07,0-.11.05-.09.11.02.06-.01.11-.08.11s-.13-.06-.13-.13c0-.09-.02-.1-.07-.03-.03.05-.15.11-.26.12-.11.01-.22.05-.25.09-.03.04-.15,0-.27-.07-.2-.13-.22-.13-.32,0-.08.11-.15.12-.3.06-.42-.16-.67-.19-.6-.09.04.07.02.08-.08.04-.08-.03-.17-.05-.2-.05s-.14-.07-.25-.16c-.13-.11-.17-.21-.13-.35.04-.15.03-.16-.03-.07-.05.07-.09.19-.09.28,0,.12-.02.14-.1.06-.13-.13-.23-.12-.23.02,0,.16-.09.15-.29,0-.11-.09-.13-.14-.06-.17.11-.05.14-.27.03-.27-.04,0-.12.05-.17.12-.08.1-.13.09-.29-.1-.15-.18-.21-.2-.3-.12-.08.08-.08.1.03.1.13,0,.17.09.15.31,0,.06.03.1.07.1.15,0,.44.34.34.4-.06.04-.04.11.08.23.16.18.16.18,0,.18-.09,0-.23.08-.32.17-.13.14-.19.15-.34.08-.16-.09-.17-.08-.15.1.03.22.39.33.39.11,0-.07.04-.13.08-.13.16,0,.08.22-.12.31-.11.05-.2.12-.19.16.03.16-.02.21-.09.1-.06-.09-.08-.06-.08.13,0,.17.07.31.21.43.12.1.19.21.16.23s-.12-.03-.2-.13c-.19-.22-.23-.22-.28-.01-.03.1-.12.17-.23.17-.14,0-.15.02-.05.05.16.04.2.19.05.19-.05,0-.07.07-.05.16.03.11,0,.16-.09.17-.07,0-.22.05-.33.11-.15.08-.17.12-.07.15.07.03.19,0,.27-.06.26-.18.44-.21.44-.1,0,.06-.08.13-.17.15-.16.04-.16.06-.05.22.14.2.1.49-.07.49-.06,0-.11.08-.11.17s-.03.15-.07.12c-.04-.02-.09.01-.12.08-.03.07-.12.12-.21.12-.18,0-.23-.13-.06-.19.06-.02.07-.07.04-.1-.03-.04-.12,0-.2.07-.2.2-.01.54.27.48.15-.03.2,0,.2.12,0,.24-.16.34-.45.3-.32-.05-.43.08-.27.33.08.12.11.37.1.75-.02.69-.01.65-.15.54-.06-.05-.1-.17-.07-.25.05-.2-.1-.21-.18-.02-.09.22-.1.41-.02.53.06.08.08.08.11,0,.02-.06.1-.1.18-.1.09,0,.05.08-.15.24-.16.13-.33.24-.38.24-.16,0-.35.24-.3.39.03.11.03.11-.03.03-.06-.08-.1-.08-.14-.02-.03.05-.09.07-.13.05s-.15,0-.24.04c-.13.07-.16.06-.16-.04l-.02-.02ZM27.68,26.38s-.04-.08-.08-.08-.08-.06-.08-.14c0-.1-.02-.11-.09-.05-.05.05-.07.15-.04.22.05.14.3.18.3.05h0ZM28.47,24.46c.15-.16.18-.24.1-.32-.08-.09-.11-.1-.2,0-.13.13-.25.54-.16.54.03,0,.15-.1.26-.21ZM26.32,24.04c-.02-.15-.07-.26-.11-.26-.09,0-.09.1.01.37.11.28.15.23.1-.11h0ZM28.76,21.73c.03-.13.02-.14-.12-.07-.09.05-.19.06-.24.03-.08-.05-.11.14-.03.22.09.09.35-.04.39-.19h0ZM7.83,21.55c-.06-.31-.07-.33-.17-.29-.09.04.04.56.14.56.04,0,.05-.12.03-.26ZM25.58,21.67c-.15-.05-.12-.18.05-.19.08,0,.1-.02.04-.05-.06-.02-.1-.1-.1-.18,0-.12-.01-.12-.09.01-.11.19-.02.57.11.49.07-.05.07-.07,0-.09h0ZM7.13,21.34c.11-.16.11-.18-.01-.13-.07.03-.13.09-.13.13s-.07.05-.16.03c-.18-.06-.23.08-.06.15.15.06.24.02.37-.18h0ZM27.78,21.12c-.03-.17-.06-.19-.19-.12-.24.13-.18.32.09.32.1,0,.13-.05.1-.2ZM29.77,20.98v-.25l-.14.18c-.17.21-.24.22-.24.05,0-.2-.12-.14-.13.07,0,.16.03.19.25.2.24,0,.26-.01.26-.24h0ZM9.59,20.95c0-.11-.04-.2-.09-.18-.05.02-.08.06-.08.09s0,.11,0,.18.04.12.08.12.08-.1.08-.21ZM10.14,20.96c0-.11-.05-.2-.08-.2s-.05-.03-.03-.07c.02-.04-.03-.07-.12-.06-.09,0-.16.04-.16.07v.19c0,.07.03.11.07.08.04-.02.09.01.12.08.08.2.21.14.2-.08h0ZM9.16,20.79c.06-.15-.08-.41-.19-.37-.04.02-.07.06-.05.09.03.09-.29.16-.35.07-.06-.1-.28-.1-.28,0,0,.04.13.1.29.13.16.03.31.09.33.13.07.11.2.08.25-.06h0ZM27.84,20.54c0-.06-.05-.11-.12-.11s-.12.05-.12.11-.02.18-.05.26c-.05.14-.05.14.12,0,.1-.08.18-.2.18-.26ZM14.92,20.71c.04-.11.07-.11.17-.03.07.06.15.08.18.05s-.02-.1-.1-.17c-.12-.08-.17-.09-.22-.02-.06.09-.1.02-.07-.13,0-.03-.03-.06-.08-.06s-.07.07-.03.16c.04.12.02.16-.1.16-.13,0-.13.01-.03.08.17.11.22.1.28-.05h0ZM6.11,20.47c-.15-.21-.26-.26-.26-.12,0,.13.27.41.34.36.04-.02,0-.13-.08-.24h0ZM12.55,20.6c-.06-.21-.27-.29-.27-.1,0,.17.07.26.21.26.06,0,.08-.07.06-.16h0ZM23.69,20.51c0-.1-.34-.48-.43-.48-.04,0-.04.05,0,.1.04.06.07.18.07.26s.05.15.1.14.1.02.1.07.04.06.08.04c.05-.03.08-.08.08-.13h0ZM24.91,20.35s-.07-.04-.16-.04c-.17,0-.19.04-.11.25.05.12.06.12.16-.01.06-.08.11-.16.11-.19h0ZM9.67,20.51c.12-.04.15-.07.07-.07-.07,0-.19-.03-.25-.05s-.14.01-.17.08c-.05.14.03.15.35.05h0ZM32.79,20.39c0-.24-.1-.26-.22-.05-.07.13-.05.16.06.19.08.02.15.04.15.05,0,0,.01-.08.01-.19ZM40.24,20.43s.05.04.02.09c-.03.06,0,.08.1.06.23-.04.21-.37-.03-.56-.3-.23-.38-.2-.14.06.13.14.17.24.11.26-.05.02-.13-.02-.18-.09-.05-.07-.14-.12-.21-.13s-.21-.03-.31-.06c-.15-.05-.17-.03-.13.08.03.07.08.11.12.09.04-.02.17.05.3.17.13.12.24.17.26.12.02-.05.07-.09.11-.09h0ZM42.43,20.35c0-.1-.21-.15-.32-.08-.15.09-.03.24.16.19.09-.02.16-.07.16-.11h0ZM43.54,20.37c.06-.04-.05-.14-.3-.27-.25-.13-.38-.17-.35-.1.02.06.13.13.24.16.11.03.2.1.2.16,0,.13.07.14.22.05h0ZM28.84,20.18c-.03-.11-.1-.16-.21-.14-.22.03-.27.2-.08.25.29.08.34.06.29-.11ZM35.17,20.11c0-.17-.11-.33-.21-.33-.14,0-.15.18-.02.31.12.12.23.13.23.02h0ZM22.71,20.02s-.04-.08-.08-.08-.08-.09-.08-.2c0-.22-.12-.27-.19-.08-.03.07-.01.12.03.12s.1.07.13.16c.05.17.2.23.2.08h0ZM33.66,20.03s0-.09-.08-.12c-.09-.03-.11-.12-.07-.29.03-.16.02-.25-.04-.25-.05,0-.09-.07-.09-.16,0-.12-.05-.15-.21-.13-.26.03-.43.27-.24.34.07.03.13.1.13.17,0,.08.05.11.16.08.11-.03.14,0,.11.07-.02.06,0,.11.05.11s.09.03.08.06c-.03.18.12.26.21.11h0ZM43.73,19.94s.06-.06.14-.03c.13.05.13.04.01-.09-.1-.1-.23-.13-.53-.11l-.4.03.35.07c.24.05.32.09.25.14-.08.05-.07.07.03.07.08,0,.14-.03.14-.08h0ZM23.09,19.82c0-.07-.05-.14-.12-.16-.16-.06-.2-.02-.13.15s.25.18.25.02h0ZM30.61,19.62c.2-.2.2-.25.04-.25-.07,0-.12.03-.12.07s-.08.09-.17.12c-.09.02-.15.08-.12.13.08.13.19.11.37-.08ZM34.31,19.48c-.14-.12-.17-.18-.09-.15.08.02.14,0,.14-.03,0-.12-.21-.09-.32.04-.13.15.13.44.35.39.13-.03.12-.06-.08-.24h0ZM35.34,19.6c0-.06.02-.19.05-.31.03-.14.02-.18-.03-.12-.12.12-.2.53-.1.53.05,0,.08-.05.08-.1h0ZM36.32,19.42c0-.11-.04-.22-.08-.25-.05-.03-.08-.01-.08.04s-.05.09-.12.09-.12.03-.12.08.05.06.12.03c.08-.03.12,0,.12.08,0,.07.04.13.08.13s.08-.09.08-.2h0ZM41.67,19.47c.02-.06-.02-.08-.09-.05-.07.03-.14-.01-.17-.08s-.1-.13-.17-.13c-.09,0-.07.05.06.2.18.21.31.23.36.06h0ZM23.02,19.34c.1.03.1.02-.02-.06-.09-.06-.19-.14-.22-.19-.1-.15-.16,0-.1.24.05.18.07.2.13.09.04-.07.13-.11.21-.09h0ZM39.27,19.04c-.03-.21-.05-.23-.16-.14s-.12.08-.08-.08c.04-.15.01-.18-.15-.18-.11,0-.19-.03-.19-.06.02-.14-.01-.26-.07-.26-.13,0-.06.41.08.46.1.03.13.09.09.21-.04.13-.03.16.08.12.07-.03.18,0,.23.07.16.18.2.15.16-.12h0ZM39.58,18.97c-.04-.13-.05-.32-.02-.42.03-.12.02-.16-.05-.12-.1.06-.13.64-.04.73.12.12.17.04.11-.19ZM43.65,18.8c0-.09.04-.16.1-.16.08,0,.08-.02,0-.1-.12-.12-.15-.09-.22.25-.04.19-.03.26.03.22.05-.03.09-.13.09-.21ZM39.92,18.64c-.06-.16-.08-.17-.18-.05-.09.11-.09.15,0,.26.14.17.26.03.18-.2h0ZM45.6,14.72s.03-.07.08-.04c.13.08.18-.1.07-.28-.16-.26-.29-.2-.28.12,0,.16.04.28.07.28s.07-.04.07-.09h0ZM45.77,14.01c0-.19-.07-.26-.21-.2-.14.05-.15.24-.01.3.18.07.22.06.22-.1h0ZM46.35,11.04c-.05-.05-.1-.18-.1-.28,0-.11-.05-.19-.12-.19-.22,0-.22.16,0,.37.22.2.4.29.21.11ZM46.53,10.78c-.03-.09-.01-.11.08-.07.07.03.13.01.13-.04,0-.12-.3-.12-.37,0-.03.05,0,.12.06.16.15.1.16.09.1-.05ZM46.63,8.58c-.03-.08,0-.12.11-.12.09,0,.16-.04.16-.08,0-.08-.35-.11-.43-.04-.07.07.03.36.12.36.04,0,.06-.05.03-.12h0ZM47.37,7.76c-.03-.07,0-.12.05-.12s.07-.02.04-.05-.11,0-.18.05c-.07.06-.12.08-.12.05s-.04-.03-.08,0c-.12.08-.01.2.18.2.11,0,.15-.04.12-.12h0ZM42.18,2.51s.09.06.11.12c.03.07.1.12.16.12.14,0,.24-.33.13-.44-.05-.05-.02-.12.06-.19.13-.1.12-.11-.06-.06-.11.03-.25.12-.31.2-.06.08-.16.13-.22.1-.13-.05-.16.11-.06.35.05.13.06.13.09-.03.02-.1.06-.18.09-.18h0ZM40.96,2.42c.1,0,.1-.3,0-.37-.07-.04-.12.07-.07.14,0,.01-.03.1-.08.19-.05.1-.07.2-.03.23.03.03.07,0,.08-.07s.06-.13.1-.13h0ZM44.31,2.5c-.11-.09-.29-.16-.41-.15-.14,0-.16.02-.07.05.08.02.12.08.09.13-.03.05-.02.07.04.03.05-.03.16-.02.24.03.24.14.32.09.11-.08ZM35.37,2.4c.03-.1.01-.2-.03-.21-.04-.02-.06-.07-.03-.11.03-.05.02-.06-.04-.03-.05.03-.07.09-.05.13.03.04.01.08-.03.08s-.06.07-.04.16c.06.22.16.21.22-.02h0ZM8.21,2.42s-.06-.08-.12-.08-.16-.09-.2-.21c-.04-.11-.11-.19-.16-.16-.05.03-.05.12.01.25.05.11.12.18.15.16.03-.02.09,0,.11.04.07.11.2.11.2,0h0ZM43.49,2.42c0-.12.18-.28.31-.28.06,0,.09-.04.08-.08-.01-.05-.06-.07-.1-.05-.05.02-.16.03-.26.03-.1,0-.16.04-.14.1.03.07-.04.09-.21.08-.24-.01-.24,0-.11.13.15.16.44.2.44.06h0ZM9.78,2.22c.03-.08,0-.12-.11-.12-.17,0-.27.11-.19.19.09.09.25.06.3-.07ZM34.74,2.15c.07.03.11-.01.11-.09s-.07-.13-.17-.13c-.09,0-.15-.04-.12-.08.03-.05,0-.08-.06-.08-.09,0-.12.2-.07.48,0,.02.05,0,.1-.05.05-.05.14-.07.2-.05h0ZM6.01,1.86c-.07-.04-.06-.09.03-.16.1-.09.13-.08.13,0,0,.09.01.09.07,0,.05-.08.15-.1.32-.06.2.04.26.02.3-.12.04-.13.08-.15.15-.08.07.07.06.11-.03.17-.1.07-.1.08.02.08.08,0,.14.06.14.12s.03.12.08.12c.13,0,.04-.43-.11-.53-.08-.06-.13-.17-.11-.24.01-.08-.02-.16-.07-.17-.06-.02-.08.04-.05.16.03.16,0,.2-.18.24-.14.03-.24,0-.29-.09-.07-.11-.11-.11-.42.06-.34.19-.34.19-.3.02.03-.12,0-.19-.11-.22-.08-.03-.15-.09-.15-.13s.06-.06.13-.03c.08.03.12.01.1-.05-.04-.12-.55-.19-.55-.07s.24.34.36.34c.07,0,.09.07.07.2-.03.17-.07.19-.23.15-.12-.03-.19-.01-.19.05,0,.05-.03.07-.08.05-.04-.03-.2.01-.34.09l-.26.13.2.11c.16.09.22.09.33-.01.15-.13.48-.16.48-.03,0,.05.13.08.28.08.17,0,.29.04.3.1,0,.06.03.03.05-.05s0-.18-.05-.21h0ZM10.74,1.87l-.03-.28-.12.25c-.07.14-.18.26-.25.28-.07.02,0,.03.15.03.28,0,.29-.01.25-.28h0ZM11.46,2.02c.19,0,.19-.01.07-.14-.11-.11-.16-.11-.25-.04-.09.08-.13.08-.16,0-.03-.07-.04-.06-.05.03,0,.07-.05.16-.11.18s-.01.03.1,0,.29-.04.4-.04h0ZM22.42,1.85s-.05-.08-.2-.08c-.14,0-.25.04-.25.08s.09.08.2.08.22-.04.25-.08ZM8.14,1.61s.06-.03.03-.08c-.03-.04-.11-.06-.19-.03-.11.04-.12.03-.04-.06.14-.15.13-.25-.02-.19-.09.03-.12,0-.12-.13,0-.14-.03-.17-.17-.12-.12.04-.15.03-.12-.03.03-.05.02-.09-.03-.09s-.09.09-.09.2-.04.2-.09.2c-.14,0,.28.39.51.48.15.05.2.05.22-.04.02-.06.06-.11.11-.11h0ZM8.87,1.78c-.06-.04-.09-.13-.06-.2.04-.1.09-.11.21-.05.23.12.28.11.23-.07-.03-.13-.01-.15.18-.09.12.03.32.05.44.02.33-.06.26-.24-.08-.19-.05,0-.12-.08-.14-.19-.05-.22-.21-.28-.21-.09,0,.12-.13.13-.32.01-.08-.05-.13-.04-.15.03-.05.15-.42.53-.42.43,0-.05.04-.11.08-.14.14-.08,0-.21-.17-.16-.11.04-.18,0-.23-.14-.04-.11-.13-.24-.2-.3-.11-.09-.13-.08-.13.06,0,.12.04.16.12.12.11-.04.16.12.14.52,0,.06.07.1.15.1.17,0,.22.24.05.26-.06,0,.03.04.18.07.41.09.46.09.33,0h0ZM11.9,1.69c-.04-.16-.27-.4-.27-.28,0,.04-.09-.02-.2-.13-.22-.21-.26-.15-.1.19.06.12.17.22.25.22s.14.04.14.08.05.08.11.08c.07,0,.1-.06.07-.16h0ZM13.48,1.53c0-.13-.02-.25-.03-.25s-.08.02-.15.05c-.15.06-.18.29-.03.26.06-.01.09.03.08.08-.01.06.01.1.06.1s.07-.11.07-.25h0ZM15.56,1.59c-.09-.1-.11-.17-.05-.23.14-.14.03-.39-.15-.34-.14.04-.14.06-.05.17.06.07.1.23.09.34-.02.16.02.21.13.21.14,0,.14-.01.02-.15h0ZM32.33,1.52c-.2-.19-.25-.19-.25,0,0,.2.06.25.25.2.11-.03.11-.09,0-.2h0ZM16.11,1.61c0-.07-.22-.33-.28-.33-.07,0,0,.3.07.34.12.08.21.08.21-.01ZM30.44,1.25c0-.09-.03-.13-.05-.07-.02.06-.09.1-.15.1-.15,0-.21.12-.15.28.05.12.06.12.2,0,.08-.08.15-.21.15-.31h0ZM20.14,1.53s0-.06-.08-.03c-.07.03-.13,0-.13-.04s.06-.09.14-.09c.11,0,.12-.02.04-.1-.15-.15-.12-.22.07-.17.09.02.16,0,.16-.05s-.09-.09-.2-.09-.2.04-.2.08-.11.14-.26.21c-.21.11-.27.11-.33.02-.05-.08-.07-.07-.07.06,0,.17.28.26.37.11.06-.09.2-.1.19-.02-.03.19.19.27.29.1h0ZM39.9,1.45c0-.07-.22-.33-.28-.33-.05,0,0,.2.07.31.07.12.22.14.22.03h0ZM15.39.6c-.07-.08-.07-.13-.01-.17.16-.1,0-.2-.2-.12-.11.04-.25.06-.31.03-.12-.05-.25.18-.16.31.03.05.14.07.24.05.11-.02.24.01.29.08.06.08.12.09.18.03s.05-.12-.02-.2h0ZM16.63.83c.07-.03.13-.14.13-.25,0-.23-.12-.26-.19-.05-.03.08-.07.19-.1.25-.05.11-.02.12.16.05ZM29.43,22.54c.04-.06.06-.2.05-.3-.03-.22.08-.24.2-.04.07.12.05.17-.12.3-.12.09-.18.11-.13.04ZM8.24,21.82c0-.13.02-.24.06-.24s.07.04.07.09c0,.06.06.04.15-.04.22-.2.32-.16.27.12-.03.18-.06.22-.11.14-.06-.09-.09-.08-.18.03-.16.21-.25.17-.26-.1h0ZM44.84,19.89s.07-.14.23-.25c.34-.23.46-.25.23-.03-.1.09-.21.16-.26.16s-.07.04-.04.08c.06.09-.06.11-.15.03h0ZM32.08,19.13c0-.08.27-.25.41-.25.06,0,.06.04-.02.11-.15.15-.39.23-.39.14h0ZM41.42,18.35c-.16-.11-.05-.26.12-.16.05.03.12,0,.16-.05s.09-.09.12-.06c.03.03-.02.13-.1.21-.13.14-.17.15-.3.05h0ZM2.18,17.01s.04-.08.09-.08.07-.05.04-.12c-.03-.07,0-.12.04-.12s.07.07.05.16c-.03.11,0,.17.13.19.11.02.08.04-.09.05-.15,0-.26-.03-.26-.07ZM14.54,1.95c.03-.08.1-.19.16-.25.08-.08.12-.08.19.04.07.13.1.13.17.02.07-.1.08-.1.08.02,0,.08-.09.18-.21.22-.32.12-.45.1-.38-.06ZM32.95,1.08s.08-.08.22-.08c.43.02.54.03.54.1,0,.1-.73.07-.76-.03h0ZM23,.73s-.01-.11.02-.16c.08-.14.34-.03.28.11-.05.12-.24.16-.3.05h0Z"/>
    </g>
  </g>
</svg>