<?xml version="1.0" encoding="UTF-8"?>
<svg id="Layer_2" data-name="Layer 2" xmlns="http://www.w3.org/2000/svg" viewBox="0 0 48 29.44">
  <g id="Layer_1-2" data-name="Layer 1">
    <g id="_ÎÓÈ_1" data-name=" ÎÓÈ 1">
      <g>
        <path d="M1.4,10.05c.76-.53,1.48-1.1,2.17-1.73.57-.52,1.13-1.1,1.68-1.61.68-.63,1.4-1.21,2.17-1.73.74-.51,1.43-.98,2.19-1.43.82-.48,1.49-.83,2.35-1.14.05-.02.1-.03.15-.05.23-.08-.09.02.06-.02.1-.03.2-.06.3-.09.11-.03.23-.06.34-.09.05-.01.1-.02.15-.04.17-.04-.09.01.1-.02.21-.04.42-.07.63-.1.05,0,.11-.01.16-.02.26-.03-.08,0,.06,0,.11,0,.21-.01.32-.02.73-.02,1.5.08,2.26.3.75.23,1.48.56,2.14.99,1.37.91,2.48,2.26,2.77,3.91.04.26.61.16.76.13.24-.05.71-.18.79-.46.47-1.67,1.55-3.12,2.89-4.16.18-.14.37-.27.56-.4.14-.1.35-.22.56-.35.19-.11.39-.21.59-.31.03-.01.17-.08.05-.02.04-.02.09-.04.13-.06.13-.06.26-.11.39-.16.11-.04.22-.08.33-.12.05-.02.09-.03.13-.05-.18.06.05-.01.07-.02.23-.07.46-.13.7-.19.07-.02.14-.03.21-.05-.03,0-.15.03,0,0,.12-.02.24-.04.36-.06.12-.02.24-.04.36-.05.05,0,.1-.01.15-.02s.1-.01.15-.02c.08,0,.1,0,.05,0-.1,0,.14,0,.12,0,.05,0,.1,0,.15,0,.12,0,.25-.01.37-.01.12,0,.25,0,.37,0,.06,0,.12,0,.18,0,.03,0,.22,0,.16,0,.49.02.98.08,1.47.16.94.16,1.87.45,2.74.85.88.41,1.69.94,2.41,1.59.82.74,1.52,1.59,2.27,2.39.77.84,1.6,1.62,2.59,2.2,1.07.63,2.23.99,3.47,1-.1-.15-.19-.31-.29-.46-1.66,1.31-2.72,3.1-3.48,5.04-.74,1.87-1.26,3.82-2.14,5.63-.82,1.7-2.05,3.25-3.44,4.49-.38.34-.77.66-1.17.97-.19.14-.38.29-.58.42-.11.08-.23.16-.34.23-.04.03-.08.05-.11.08-.02.01-.22.14-.15.09-.43.27-.87.53-1.32.77-.23.12-.46.24-.69.35-.11.05-.21.1-.32.15-.21.1.13-.06-.08.04-.08.03-.15.07-.23.1-.49.22-.98.41-1.49.59-.11.04-.22.08-.34.12-.07.02-.14.05-.2.07.16-.05,0,0-.04.01-.26.08-.53.16-.79.24-.25.07-.51.14-.77.2-.12.03-.23.06-.35.08-.07.02-.14.03-.21.05-.19.04.1-.02-.07.02-.55.11-1.09.2-1.65.27-.12.02-.24.03-.36.04-.07,0-.15.02-.22.02.02,0-.22.02-.12.01s-.14.01-.12.01c-.07,0-.15.01-.22.02-.15.01-.29.02-.44.03-.54.03-1.07.04-1.61.02-.54-.01-1.03-.04-1.61-.1-.54-.05-1.08-.13-1.61-.22-4.16-.7-8.16-2.56-11.34-5.33-1.57-1.37-2.94-2.96-4.01-4.76-1.26-2.13-2.13-4.45-2.89-6.79-.19-.57-.37-1.15-.56-1.73-.09-.28-.67-.17-.86-.11-.17.05-.78.25-.69.53.76,2.39,1.53,4.8,2.65,7.05,1,2.02,2.29,3.87,3.9,5.45,3.09,3.06,7.1,5.15,11.32,6.13,4.53,1.06,9.27.77,13.65-.78,3.95-1.39,7.74-3.87,10.06-7.41,1.13-1.72,1.78-3.66,2.46-5.59.66-1.9,1.38-3.83,2.73-5.36.33-.37.67-.69,1.06-1,.1-.08.22-.19.14-.33-.08-.14-.3-.13-.43-.13-2.05-.01-3.83-1.48-5.19-2.95-.77-.83-1.49-1.7-2.32-2.45-.77-.69-1.64-1.25-2.57-1.69-3.92-1.82-8.8-1.4-12.37,1.04-1.72,1.18-3.14,2.89-3.71,4.91.52-.11,1.03-.22,1.55-.32-.57-3.32-4.15-5.37-7.28-5.54-2.11-.11-4.16.51-6.02,1.47-.88.45-1.72.99-2.55,1.53-.82.55-1.64,1.11-2.39,1.75-.73.61-1.39,1.29-2.08,1.94-.74.71-1.57,1.39-2.43,1.98-.08.05-.2.18-.17.29.03.11.19.15.29.17.37.05.79-.08,1.1-.29h0Z"/>
        <path d="M.55,9.89c1.67,2.64,5.7,2.4,7.96.72.57-.42,1.05-.99,1.31-1.65l-1.54.35c.08,1.16.3,2.52,1.34,3.22.68.46,1.55.5,2.34.38.95-.14,1.88-.49,2.65-1.07.71-.54,1.24-1.26,1.74-1.98-.51.1-1.02.19-1.53.29-.57,1.32.31,2.74,1.51,3.34.8.4,1.72.43,2.58.25.94-.19,1.91-.58,2.59-1.28.57-.58.94-1.36.78-2.19-.04-.21-.72-.03-.83,0-.18.05-.37.11-.53.21-.07.04-.2.11-.19.21.1.82.22,1.66.58,2.41.33.68.85,1.24,1.54,1.54.75.34,1.58.39,2.38.23.91-.18,1.85-.59,2.25-1.48.18-.41.26-.85.33-1.29.1-.57.2-1.14.3-1.71-.52.14-1.04.28-1.55.42.11.82.26,1.67.74,2.37.43.62,1.08,1.07,1.82,1.23.96.21,2.06-.06,2.9-.53.61-.35,1.14-.9,1.38-1.56.35-.98.16-2.04-.04-3.03-.52.14-1.04.28-1.55.42.19.73.4,1.47.84,2.09.43.6,1.05,1.02,1.77,1.19.92.22,1.98-.04,2.8-.48.58-.31,1.07-.83,1.3-1.45.33-.91.14-1.89-.05-2.81-.04-.21-.72-.03-.83,0-.2.06-.68.16-.72.41-.23,1.42,1.06,2.55,2.31,2.89.88.24,1.86.09,2.71-.21.75-.27,1.46-.69,1.95-1.33.42-.56.63-1.29.45-1.97-.02-.09-.22-.08-.27-.08-3.23-.09-6.5-.14-9.67.59-1.58.36-3.11.87-4.67,1.29-.38.1-.76.2-1.14.29.13-.03-.06.01-.1.02-.1.02-.2.04-.29.06-.16.03-.33.06-.49.09-.08.01-.16.03-.23.04-.02,0-.16.02-.07.01.08-.01-.02,0-.03,0-.16.02-.31.04-.47.06-.14.02-.28.03-.42.04-.02,0-.14,0-.07,0,.07,0-.03,0-.04,0-.08,0-.16,0-.23,0-1.24.04-2.44-.11-3.68-.23-1.22-.12-2.42-.31-3.63-.52-1.31-.23-2.62-.49-3.93-.72-1.23-.22-2.48-.43-3.73-.5-3.12-.16-6.22.55-9.24,1.25-.36.08-.71.17-1.07.25-.14.03-.76.2-.72.41.04.21.76.01.83,0,.36-.08.71-.17,1.07-.25.09-.02.17-.04.26-.06-.13.03.05-.01.09-.02.19-.04.38-.09.57-.13.73-.16,1.46-.32,2.2-.45.18-.03.36-.06.55-.1.09-.02.18-.03.27-.05.04,0,.08-.01.12-.02.25-.04-.06,0,.08-.01.38-.06.75-.11,1.13-.15.72-.08,1.39-.12,2.12-.11,1.23,0,2.45.2,3.66.41,1.29.22,2.58.47,3.88.71,1.19.22,2.39.43,3.6.57,1.27.14,2.56.29,3.84.31,2.92.06,5.68-.92,8.46-1.7.38-.11.76-.21,1.14-.3.03,0,.23-.05.11-.03.09-.02.19-.04.28-.06.2-.04.4-.08.6-.12.41-.08.66-.11,1.07-.16.38-.05.76-.08,1.15-.11,1.55-.12,3.11-.1,4.67-.07.39,0,.77.02,1.16.03-.09-.03-.18-.06-.27-.08.14.53.05,1.05-.22,1.53-.13.23-.29.45-.49.63-.1.09-.2.18-.31.26-.05.04-.06.04-.14.09l-.08.04c-.06.04.07-.03-.04.02-.04.02-.07.03-.11.05,0,0,.12-.04.04-.02-.03,0-.15.05-.04.02.1-.03,0,0-.01,0-.14.04,0,0,.03,0-.03,0-.14.02,0,0-.03,0-.25.02-.14.02-.28.01-.55-.03-.83-.11-.56-.17-1.11-.53-1.48-.98-.39-.49-.61-1.11-.51-1.74-.52.14-1.04.28-1.55.42.26,1.22.51,2.71-.56,3.64-.1.08-.17.13-.26.19-.03.02-.05.03-.08.04.03-.01.09-.06-.02,0,0,0,.12-.05.04-.02-.08.03.08-.02.1-.03.14-.04-.1,0,.01,0,.09,0-.03,0-.04,0,.07,0-.09,0-.11,0-.14-.01-.28-.04-.42-.08-.57-.18-1.09-.58-1.42-1.07-.42-.61-.61-1.33-.8-2.03-.06-.21-.71-.03-.83,0-.18.05-.37.11-.53.21-.06.04-.21.11-.19.21.26,1.33.52,2.93-.63,3.94-.11.09-.21.17-.31.23-.03.02-.05.03-.08.04.03-.01.1-.04-.02,0-.17.07.22-.05.03-.01.03,0,.16-.06.02,0,.03-.01.08-.04.03,0-.06.04.04,0-.03,0-.03,0-.07,0-.1,0-.15,0-.31-.04-.46-.08-.59-.17-1.13-.6-1.46-1.11-.45-.69-.6-1.51-.7-2.31-.04-.28-1.5.09-1.55.42-.14.8-.23,1.63-.44,2.42-.09.33-.22.66-.44.92-.05.06-.11.12-.17.17-.03.02-.06.05-.08.07,0,0,.05-.03,0,0-.02.01-.11.07-.04.03.07-.04-.03.02-.05.02-.09,0,.09-.03.11-.04.16-.06-.2.04.1-.02-.04,0-.14.02.03,0-.04,0-.07,0-.11.01.12-.01-.05,0-.09,0-.14,0-.24-.01-.41-.04-.29-.05-.57-.15-.83-.29-.6-.31-1.02-.81-1.31-1.42-.34-.74-.45-1.55-.55-2.35l-1.55.42c.12.61-.06,1.2-.43,1.69-.18.25-.41.47-.67.64-.03.02-.09.06-.15.09-.04.02-.07.04-.11.06-.09.05.08-.04-.02,0-.05.02-.21.08-.08.04-.03.01-.08.04-.12.04.27-.03-.06,0-.03,0,0,0,.2-.03.03,0-.03,0-.14.01,0,0-.04,0-.08,0-.13.01.03,0,.11,0-.02,0-.16,0-.29,0-.45-.03-.3-.05-.59-.15-.86-.3-.53-.29-.97-.72-1.24-1.26-.28-.56-.36-1.22-.11-1.81.1-.23-.53-.12-.61-.11-.28.06-.74.14-.92.4-.38.54-.77,1.09-1.26,1.55-.23.21-.47.39-.73.54-.11.06-.06.03-.03.02-.04.02-.08.04-.12.06-.13.06.06-.02-.07.03-.15.05-.02,0,0,0-.03,0-.07.02-.1.03-.12.04.13-.02,0,0-.01,0-.15.03-.07.01.11-.02-.19.02-.08,0-.08,0-.16,0-.24,0-.14,0-.29-.03-.43-.07-.27-.07-.52-.21-.74-.38-.41-.32-.67-.77-.84-1.26-.2-.58-.27-1.19-.31-1.79-.02-.27-1.44.1-1.54.35-.19.48-.49.91-.87,1.26-.2.18-.4.33-.61.45-.05.03-.11.06-.16.09-.06.04,0,0,0,0-.04.02-.08.04-.12.05-.06.03-.12.05-.18.08.01,0,.11-.04.03-.01-.05.02-.1.03-.15.05.13-.05.03-.01-.04.01-.15.04.11-.02-.04.01-.04,0-.09.02-.13.02-.01,0-.12.02-.03,0,.08-.01-.02,0-.03,0-.04,0-.09,0-.13.01-.01,0-.12,0-.03,0-.03,0-.07,0-.1,0-.07,0-.13,0-.2,0-.13,0-.26-.01-.4-.03-.57-.08-1.13-.26-1.63-.54-.55-.31-1.02-.72-1.36-1.25-.13-.2-.65-.05-.83,0-.07.02-.82.25-.72.41h0Z"/>
        <path d="M7.92,17.9c.35-.15.66-.34.95-.59.2-.18.38-.38.57-.56.11-.11.12-.12.23-.2.02-.02.05-.03.07-.05-.06.04-.06.04.01,0,.02,0,.04-.02.05-.03-.09.04-.09.04-.01.01-.02,0-.28.08-.12.04-.1,0-.1.01-.02,0-.07,0-.08,0-.03,0t0,0s.07.02.1.04c.02.01.08.06.1.07.22.18.31.5.39.76.09.3.16.62.18.94.05.64-.04,1.27-.27,1.87-.11.29.51.23.64.21.29-.05.76-.16.9-.46.28-.57.71-1.08,1.21-1.46.12-.09.3-.21.38-.26,0,0,.13-.07.18-.1-.1.05,0,0,.03,0-.07.02-.23.11-.26.05,0,0,.22.08.27.12.13.09.24.21.33.34.28.37.37.86.42,1.31.07.56.06,1.14.01,1.7-.05.54-.13,1.09-.28,1.61-.08.26.41.23.54.22.3-.03.74-.13.94-.38.51-.64.92-1.36,1.4-2.02.26-.36.53-.71.85-1.02.04-.04.07-.07.11-.1.11-.11-.08.06.04-.04.06-.05.12-.09.18-.14.05-.04.1-.11,0,0,.01-.01.09-.05.11-.06-.03.01-.06.03-.09.04.03-.01.07-.03.1-.04.08-.03.07-.03-.05.01.04-.01.07-.02.11-.03.06-.02.2-.09.01,0,.04-.02.1-.02.14-.03.05,0,.09-.01.14-.02-.19.03,0,0,.03,0,.06,0,.11,0,.17,0,.18,0-.13-.01.06,0,.13.01.26.02.39.04-.08-.02.03,0,.05.01.04.01.09.02.13.04.1.03.2.06.3.11.15.07.32.19.45.31.22.22.33.49.43.8.12.37.19.76.28,1.14.1.45.19.9.32,1.33.1.35.23.7.48.98.15.17.64.06.81.01.22-.06.6-.17.69-.41.46-1.15.95-2.4,1.85-3.27.04-.03.07-.07.11-.1-.02.01-.08.06,0,0,.06-.04.11-.09.17-.13.03-.02.06-.04.1-.06-.13.09-.06.04-.03.02.03-.02.07-.03.1-.05.06-.04-.17.07-.01.01.1-.04-.21.06-.06.02.13-.03-.07.02-.08.02.02,0,.17-.02.04,0-.14,0,.03,0,.04,0,.03,0,.12.01-.01,0,.04,0,.09,0,.13.01.04,0,.09.01.13.02-.09-.02.05.01.07.02.67.17,1.24.64,1.69,1.15.49.56.89,1.29.95,2.05,0,.1.22.14.28.14.16.01.31,0,.47-.04.16-.04.34-.09.49-.17.09-.05.3-.15.31-.27.07-.56.13-1.13.23-1.69.1-.55.2-1.17.51-1.65.14-.23.37-.44.59-.59.01,0,.12-.08.06-.04-.06.03.03-.02.04-.02.04-.02.08-.04.11-.06-.12.07-.04.01,0,0,.03-.01.08-.04.12-.04-.18.03-.06.02-.02.01.17-.03-.01,0-.02,0,.02-.03.23,0,.06-.01.04,0,.09,0,.13,0-.03,0-.1,0,.02,0,.04,0,.09,0,.13.02-.02,0-.07-.02.02,0,.14.04.19.06.3.13.22.15.41.35.56.57.36.51.58,1.11.9,1.64.15.25.63.14.85.08.16-.05.77-.23.7-.49-.13-.49-.19-1-.21-1.5-.02-.51,0-1.05.17-1.54.07-.2.16-.38.3-.54.04-.05.09-.09.13-.14.06-.06,0,0,.06-.06.05-.03.09-.07.14-.1.1-.07.02-.01,0,0,.03-.02.07-.04.1-.05.13-.06-.1.03.03-.01-.02,0-.18.06-.04.01.02,0,.12-.02,0,0-.11.02-.02,0,0,0,0,0-.14,0-.05,0,.03,0,.06,0,.08,0-.09,0-.03,0,.03,0,.03,0,.06,0,.08.01-.01,0-.06-.01,0,0,.06.01.11.03.16.05.11.04.22.11.31.18.46.35.65.92.82,1.45.08.27.68.13.85.08.15-.04.78-.23.7-.49-.18-.56-.4-1.16-.87-1.55-.62-.52-1.49-.5-2.23-.32-.7.18-1.44.56-1.87,1.15-.37.51-.46,1.11-.49,1.72-.03.69.03,1.4.21,2.06l1.55-.42c-.33-.54-.56-1.14-.92-1.67-.18-.26-.37-.51-.64-.68-.31-.21-.67-.29-1.04-.31-1.08-.04-2.19.37-2.99,1.1-.52.48-.75,1.09-.91,1.76-.16.72-.24,1.46-.33,2.2.52-.11,1.03-.22,1.55-.33-.05-.76-.46-1.47-.93-2.05-.51-.63-1.2-1.17-2-1.38-.97-.25-2.04-.01-2.86.54-.64.43-1.1,1.07-1.48,1.72-.4.68-.71,1.41-1,2.15.5-.13,1-.27,1.5-.4-.08-.09-.14-.2-.2-.35-.07-.17-.13-.34-.18-.51-.12-.42-.21-.85-.3-1.28-.15-.71-.26-1.59-.82-2.11-.77-.72-2.06-.76-3.04-.56-.6.12-1.21.31-1.71.67-.38.27-.7.62-.99.98-.64.79-1.12,1.69-1.75,2.48.49-.05.99-.11,1.48-.16.17-.56.25-1.14.29-1.72.05-.64.07-1.3-.03-1.94-.09-.57-.29-1.13-.73-1.53-.86-.76-2.22-.19-3.04.35-.78.5-1.43,1.2-1.85,2.03.51-.08,1.03-.17,1.54-.25.26-.69.35-1.45.27-2.18-.08-.63-.26-1.55-.9-1.84-.36-.16-.78-.14-1.16-.08-.48.08-.94.26-1.34.52-.28.18-.5.42-.73.65-.1.1-.2.21-.31.3.02-.02-.11.08-.13.1-.06.04-.07.05-.01.01-.08.04-.07.04,0,0-.12.05-.68.29-.45.5.22.19.79.04,1.01-.06h0Z"/>
        <path d="M2.72,11.53c.8,1.28,1.64,2.53,2.48,3.8.42.64.85,1.29,1.26,1.93.41.64.81,1.3,1.29,1.9.52.65,1.13,1.22,1.75,1.76.65.57,1.32,1.08,2.09,1.49,1.58.85,3.36,1.33,5.12,1.62,1.87.31,3.76.41,5.65.42,2.04,0,4.06-.14,6.05-.58,2.07-.46,4.08-1.16,5.95-2.15,1.76-.93,3.47-2.1,4.79-3.61,1.3-1.48,2.24-3.21,3.16-4.95.81-1.52,2.02-2.8,2.99-4.21.21-.31.41-.62.59-.94.13-.24-.54-.16-.62-.14-.2.04-.41.09-.59.18-.11.06-.26.12-.32.23-.38.7-.86,1.35-1.34,1.98-.53.7-1.08,1.39-1.58,2.11-.48.7-.86,1.45-1.26,2.2-.45.83-.93,1.64-1.46,2.41-.55.8-1.18,1.54-1.89,2.2-.68.63-1.43,1.17-2.21,1.66-.83.52-1.53.9-2.42,1.29-.1.05-.21.09-.31.14-.04.02-.08.04-.13.05-.21.09.14-.05-.08.03-.22.09-.45.18-.68.26-.22.08-.43.15-.65.23-.05.02-.11.04-.16.05-.21.07.11-.03-.03,0-.12.04-.24.07-.37.11-.22.06-.45.12-.67.18-.11.03-.23.06-.34.08-.02,0-.25.06-.06.02-.07.02-.14.03-.2.04-.48.1-.97.19-1.45.26-.01,0-.24.03-.09.01-.05,0-.09.01-.14.02-.12.01-.23.03-.35.04-.26.03-.52.05-.78.07-.51.04-.89.05-1.37.06-1.77.02-3.56-.02-5.3-.24-1.74-.21-3.5-.58-5.11-1.28-1.55-.68-2.87-1.73-4.05-2.94-1.03-1.06-1.74-2.38-2.55-3.6-.86-1.31-1.74-2.61-2.58-3.93-.16-.24-.31-.48-.46-.73-.23-.37-1.67.22-1.55.42h0Z"/>
      </g>
    </g>
  </g>
</svg>