<?xml version="1.0" encoding="UTF-8"?>
<svg id="Layer_2" data-name="Layer 2" xmlns="http://www.w3.org/2000/svg" viewBox="0 0 46.13 48">
  <g id="Layer_1-2" data-name="Layer 1">
    <g id="_ÎÓÈ_1" data-name=" ÎÓÈ 1">
      <path d="M10.19,33.39c1.27-2.1,2.63-4.15,4.03-6.17-.13.19-.27.38-.4.57,6.19-8.86,13.3-17.1,18.89-26.37-3.38.74-6.76,1.47-10.14,2.2-.94,11.12-1.3,22.28-1.07,33.44.07,3.17.18,6.35.33,9.51.1.15.21.29.31.43.33.22.69.35,1.08.37.92.16,1.91.11,2.82-.06,1.99-.36,3.99-1.02,5.53-2.37-.67.62-1.45,1.06-2.34,1.34-.9.24-1.81.48-2.71.73.02,0,.05,0,.07-.01-.79.05-1.58.09-2.37.14-.26-.04-.52-.09-.78-.13-.21-.1-.42-.2-.63-.29.03.01.06.04.08.06-.1-.15-.21-.29-.31-.43.07.11.08.21.07.34.02-.18.04-.35.05-.53-.02.11-.05.2-.11.29.13-.19.27-.38.4-.57.51-.35,1.02-.7,1.53-1.04l3.88-1.23s-.03,0-.05.01c.79-.05,1.58-.09,2.37-.14.26.04.52.09.78.13.21.1.42.2.63.29-.11-.06-.19-.14-.27-.24.1.15.21.29.31.43-.65-.95-1.12-2.07-1.65-3.1-.59-1.14-1.17-2.29-1.75-3.44-1.22-2.44-2.42-4.88-3.63-7.32-2.44-4.93-4.9-9.86-7.63-14.65-1.42-2.49-2.91-4.94-4.53-7.3l-9.89,3.16c8.28,4.24,17.12,7.33,26.28,9,2.78.51,5.57.92,8.38,1.21.48-1.21.96-2.42,1.44-3.63-9.33,3.86-18.66,7.71-27.99,11.57-2.64,1.09-5.27,2.18-7.9,3.27-.93.38-2.13.87-2.83,1.65-.37.42-.73,1.1-.14,1.53.7.52,1.83.51,2.63.46,1.34-.09,2.73-.36,3.98-.87,9.33-3.86,18.66-7.71,27.99-11.57,2.63-1.09,5.27-2.18,7.9-3.27.98-.4,2.84-1.05,3.22-2.22.36-1.1-1.03-1.33-1.78-1.41-1.32-.13-2.64-.29-3.95-.48-.61-.09-1.22-.19-1.84-.28-.39-.07-.35-.06.11.02-.17-.03-.35-.06-.52-.09-.26-.05-.52-.09-.78-.14-2.57-.48-5.11-1.07-7.63-1.76-4.98-1.38-9.85-3.17-14.54-5.35.21.1.42.2.63.29-1.04-.49-2.07-.99-3.09-1.51-1.79-.91-4.13-.37-5.94.2-.95.3-1.99.68-2.8,1.28-.35.26-1.54,1.12-1.15,1.68,3.96,5.73,7.16,11.97,10.29,18.19,1.61,3.2,3.17,6.41,4.77,9.62.75,1.51,1.51,3.02,2.28,4.52.35.68.7,1.36,1.06,2.04.34.64.68,1.56,1.25,2.04.47.4,1.18.48,1.77.55,2.1.23,4.45-.48,6.31-1.38.92-.44,2.56-1.39,2.35-2.69-.16-.97-1.3-1.17-2.11-1.24-2.93-.26-6.26.91-8.46,2.83,3.25-.54,6.5-1.09,9.75-1.63-.56-11.14-.54-22.31.07-33.45.17-3.17.4-6.33.66-9.5.05-.64-1.59-.86-1.83-.88-1.03-.07-2.05.07-3.06.29-1.83.4-4.22,1.09-5.25,2.8-1.27,2.1-2.63,4.15-4.03,6.17.13-.19.27-.38.4-.57C12.8,17.55,5.69,25.79.1,35.06c-.39.64.45,1.11.89,1.26.95.32,2.32.19,3.27.01,2.01-.36,4.79-1.06,5.93-2.95h0Z"/>
    </g>
  </g>
</svg>