<?xml version="1.0" encoding="UTF-8"?>
<svg id="Layer_2" data-name="Layer 2" xmlns="http://www.w3.org/2000/svg" viewBox="0 0 34.53 48">
  <g id="Layer_1-2" data-name="Layer 1">
    <g id="_ÎÓÈ_1" data-name=" ÎÓÈ 1">
      <g>
        <path d="M6.31,5.57c-3.37,6.96-3.67,15.28-1.02,22.52,2.6,7.1,8.11,12.72,14.78,16.15,4.1,2.11,8.65,3.37,13.24,3.74.27.02.87.03,1.11-.18.22-.19.11-.44-.07-.62-.71-.69-1.95-.95-2.9-1.03-.3-.02-.6-.05-.9-.09.02,0,.53.06.2.02-.07,0-.15-.02-.22-.03-.17-.02-.34-.05-.5-.07-.3-.04-.59-.09-.89-.15-.13-.02-.26-.05-.39-.07-.07-.01-.15-.03-.22-.04-.43-.09.57.13.14.03-.58-.14-1.17-.28-1.74-.44-.14-.04-.29-.09-.43-.13.73.21.21.06.03,0-.3-.1-.6-.2-.9-.31-.28-.1-.56-.21-.84-.32-.07-.03-.58-.24-.22-.09.31.13.07.03,0,0-.09-.04-.17-.07-.26-.11-.57-.25-1.12-.51-1.67-.79-.24-.12-.49-.31-.74-.39.35.12.24.13.11.06-.06-.04-.13-.07-.19-.11-.16-.09-.32-.19-.48-.28-.51-.31-1.02-.63-1.51-.97-.25-.17-.49-.34-.73-.52-.12-.09-.24-.18-.36-.27-.06-.04-.12-.09-.18-.14-.04-.03-.29-.22-.12-.09.16.12-.03-.02-.07-.06-.06-.05-.12-.09-.17-.14-.12-.09-.23-.19-.35-.28-.24-.2-.48-.41-.72-.62-.91-.8-1.76-1.66-2.56-2.57-.41-.46-.79-.94-1.17-1.42-.14-.18-.06-.08-.03-.04-.04-.06-.09-.12-.13-.18-.09-.12-.18-.24-.26-.36-.18-.26-.36-.52-.54-.78-.7-1.06-1.32-2.17-1.87-3.31-1.28-2.7-2.1-5.59-2.49-8.54,0,.07.02.14.03.21-.54-4.25-.16-8.62,1.17-12.69.38-1.17.85-2.31,1.38-3.42.12-.25-.39-.6-.5-.68-.42-.29-.99-.49-1.48-.61-.51-.12-1.06-.24-1.59-.18-.28.03-.63.06-.77.35h0Z"/>
        <path d="M7.87.08C3.16,5.16.35,11.97.03,18.89c-.09,2.01.03,4.02.35,6.01.06.4.43.91.67,1.2.3.38.64.73,1.01,1.05.22.19,1.38,1.09,1.49.39.87-5.44,2.47-10.75,4.73-15.78-.03.06-.06.12-.08.19.81-1.78,1.69-3.53,2.66-5.23-1.04-1.03-2.08-2.07-3.11-3.11-.26,4.9.23,9.86,1.47,14.61.35,1.35.77,2.68,1.24,3.99.02-.16.04-.31.06-.47-.67.37-1.37.68-2.09.94.06-.02.13-.05.19-.07-2.19.76-4.71,1-6.9.58.88,1.04,1.76,2.08,2.64,3.12,1.12-3.59,2.25-7.17,3.37-10.76-1.06-.88-2.11-1.76-3.17-2.64.44,2.46.89,4.92,1.33,7.38.07.41.43.89.67,1.2.34.44.77.9,1.22,1.22.38.27,1.43.89,1.25-.06-.44-2.46-.89-4.92-1.33-7.38-.07-.4-.43-.9-.67-1.2-.3-.38-.64-.73-1.01-1.05-.28-.24-1.28-1.06-1.49-.39-1.13,3.59-2.25,7.17-3.37,10.76-.06.17.09.48.16.63.18.4.45.75.73,1.08.25.3.52.57.82.82.25.21.61.53.94.59,3.34.64,6.75.17,9.74-1.48.1-.14.12-.3.06-.47-1.6-4.48-2.54-9.19-2.7-13.93-.05-1.37-.03-2.73.04-4.1.04-.79-.79-1.65-1.29-2.15-.3-.3-.63-.62-1.01-.81-.15-.08-.68-.38-.81-.14C4.91,8.54,2.71,14.06,1.32,19.79c-.39,1.6-.71,3.21-.97,4.83,1.06.88,2.11,1.76,3.17,2.64-.32-2.02-.4-4.17-.24-6.33.17-2.19.58-4.35,1.23-6.45.36-1.18.8-2.34,1.31-3.46-.03.06-.06.12-.08.19,1.3-2.87,3.03-5.52,5.17-7.83.19-.21.01-.63-.08-.82-.21-.46-.57-.94-.92-1.3-.36-.38-.76-.78-1.22-1.02-.19-.1-.61-.36-.81-.14h0Z"/>
      </g>
    </g>
  </g>
</svg>