<?xml version="1.0" encoding="UTF-8"?>
<svg id="Layer_2" data-name="Layer 2" xmlns="http://www.w3.org/2000/svg" viewBox="0 0 38.86 48">
  <defs>
    <style>
      .cls-1 {
        fill: #231815;
      }

      .cls-2 {
        fill: #fff;
      }
    </style>
  </defs>
  <g id="Layer_1-2" data-name="Layer 1">
    <g>
      <path class="cls-2" d="M38.86,24C38.86,10.75,30.16,0,19.43,0S0,10.75,0,24s8.7,24,19.43,24,19.43-10.75,19.43-24Z"/>
      <path class="cls-1" d="M19.25,32.96c4.85,0,8.79-3.93,8.79-8.79s-3.93-8.79-8.79-8.79-8.79,3.93-8.79,8.79,3.93,8.79,8.79,8.79Z"/>
      <path class="cls-2" d="M15.53,21.12c.52,0,.95-.43.95-.95s-.43-.95-.95-.95-.95.43-.95.95.43.95.95.95Z"/>
    </g>
  </g>
</svg>