<?xml version="1.0" encoding="UTF-8"?>
<svg id="Layer_2" data-name="Layer 2" xmlns="http://www.w3.org/2000/svg" viewBox="0 0 36.33 48">
  <g id="Layer_1-2" data-name="Layer 1">
    <g id="_ëÎÓÈ_1" data-name=" ëÎÓÈ 1">
      <path d="M1.51,47.87c0-.07-.08-.09-.18-.05-.1.04-.18,0-.18-.07s.05-.14.12-.14.12-.08.12-.18c0-.28-.19-.22-.41.12-.11.17-.26.3-.33.3-.09,0-.08-.06.02-.18.2-.24-.04-.55-.44-.55-.24,0-.27-.04-.19-.26.08-.21.21-.27.68-.3.64-.04.93-.28.55-.45-.13-.06-.25-.2-.28-.3-.05-.23.19-.74.41-.88.11-.07.07-.11-.14-.11-.17,0-.23-.04-.15-.07.18-.07.21-.41.03-.41-.21,0-.14-.47.09-.6.14-.08.16-.13.05-.13-.11,0-.14-.08-.08-.22.05-.12.1-.32.12-.46.05-.37.06-.38.18-.18.08.13.12.14.12.03,0-.09-.08-.19-.18-.23-.14-.05-.15-.12-.06-.3.08-.15.09-.45,0-.87-.06-.35-.09-.66-.07-.69s.2.02.38.12c.18.09.37.18.42.21.05.02.09-.02.09-.09s-.12-.13-.26-.13c-.23,0-.24-.02-.09-.2.15-.18.13-.2-.17-.14-.33.06-.45-.06-.21-.21.08-.05.08-.15,0-.29-.1-.18-.05-.21.39-.21.28,0,.55.06.59.13.19.27.73.14,1.03-.27.17-.23.41-.4.56-.4.24,0,.24-.01.05-.2-.16-.16-.24-.17-.37-.06-.21.18-.33.07-.33-.3,0-.31-.18-.38-.28-.11-.04.09,0,.23.09.31.22.18.2.71-.03.79-.24.09-1.24-.05-1.24-.18,0-.05-.09-.09-.21-.08-.18.01-.21-.08-.19-.59.04-1.16.1-1.88.14-1.76.05.16.63.16.63,0,0-.07-.07-.09-.16-.06-.11.04-.16-.07-.16-.39,0-.38.02-.41.12-.18.06.14.16.26.21.26.11,0,.01-.34-.15-.55-.06-.07,0-.22.15-.34.3-.25.25-.47-.12-.56l-.27-.06.26-.28c.14-.16.28-.48.3-.72.02-.24.1-.47.18-.52.09-.06.03-.2-.19-.42-.3-.3-.31-.33-.07-.25.21.07.25.04.19-.11-.04-.11,0-.19.09-.19.23,0-.02-.21-.32-.27-.21-.04-.2-.07.12-.25.2-.11.32-.21.26-.21-.06,0-.04-.09.05-.19.1-.13.11-.18.02-.18-.07,0-.14-.06-.14-.12s.13-.09.3-.05c.18.05.3.02.3-.05,0-.07-.07-.1-.16-.07-.09.03-.24-.03-.33-.14-.14-.16-.14-.21.01-.3.1-.06.18-.22.19-.36.01-.19-.04-.23-.21-.18-.28.09-.3-.13-.02-.24.15-.06.17-.11.06-.22-.21-.21-.17-.34.07-.26.13.04.1-.01-.08-.15l-.29-.22.28-.1c.15-.06.39-.07.53-.03.25.07.25.07.02-.12-.13-.1-.28-.26-.35-.34-.07-.1-.08-.07-.03.09.08.24.07.24-.14.02-.16-.16-.18-.24-.07-.28.08-.03.15-.18.15-.32s.07-.33.15-.41c.11-.11.11-.15,0-.15s-.11-.09-.02-.31c.09-.24.07-.36-.08-.51-.18-.18-.18-.2.07-.3.23-.08.25-.16.18-.48-.08-.37-.07-.38.29-.32.28.04.34.02.26-.09-.07-.08-.08-.18-.03-.24s-.03-.07-.17-.03c-.2.05-.27,0-.32-.22-.03-.16,0-.31.08-.34.08-.03.02-.16-.15-.31-.16-.14-.24-.25-.18-.25s.18.07.25.14c.22.22.32.02.17-.32-.09-.21-.1-.3-.01-.3.14,0,.47-.3.47-.42,0-.04-.06-.04-.14,0s-.18,0-.24-.08c-.06-.1-.04-.2.04-.26.1-.06.08-.09-.06-.09-.11,0-.24-.07-.29-.14-.05-.08-.03-.11.04-.06.07.05.18-.08.26-.3.1-.3.09-.41-.05-.56-.14-.14-.15-.22-.04-.35.1-.12.1-.17,0-.17-.07,0-.14-.12-.13-.27,0-.27,0-.27.18-.04.18.23.18.23.36,0,.1-.13.21-.33.25-.45.04-.12.13-.21.2-.21.08,0,.07-.07-.02-.18-.08-.1-.11-.23-.07-.3.04-.07.01-.16-.06-.2-.1-.06-.09-.12.03-.19.12-.08.11-.11-.08-.11-.22,0-.23-.02-.03-.13.12-.07.21-.2.21-.29s.07-.19.15-.23c.11-.05.12-.09.01-.16-.08-.05-.13-.33-.12-.61s.04-.46.08-.41.16.06.29.02c.2-.07.19-.1-.1-.23-.18-.08-.29-.2-.25-.27.04-.07.03-.19-.02-.27-.14-.22-.16-.46-.04-.46.06,0,.12-.12.14-.27.02-.16.11-.26.21-.24.14.03.14,0,0-.18-.09-.12-.11-.18-.04-.13.09.05.14-.06.14-.31,0-.21.1-.45.21-.53.11-.08.15-.18.08-.22-.07-.04-.14,0-.17.08-.03.08-.04-.07-.03-.33.01-.27-.03-.55-.09-.64-.07-.1-.07-.15,0-.15.07,0,.09-.12.06-.26-.05-.17,0-.32.16-.42.16-.11.17-.16.06-.16-.13,0-.14-.03-.02-.15.08-.08.15-.33.15-.56,0-.25.08-.48.21-.58.2-.15.2-.16-.03-.17-.21,0-.2-.03.06-.13.21-.08.25-.15.15-.21-.12-.07-.11-.19.03-.53.11-.27.14-.47.07-.51-.12-.07-.04-.78.1-.93.04-.04.25-.12.47-.16.3-.06.39-.04.39.09,0,.1.09.21.19.25.29.11.38.09.17-.05-.16-.1-.15-.12.03-.12.12,0,.26.1.33.23.16.3.16.41,0,.31-.07-.04-.12-.02-.12.04s.08.15.18.18c.2.07.25.44.07.44-.06,0-.08.1-.05.23.03.13,0,.33-.06.46-.08.14-.08.3-.01.41.09.15.11.15.11,0,0-.09.04-.14.08-.09.04.04.01.16-.07.25-.09.11-.1.19-.02.22.07.02.16.27.2.55.07.44.04.54-.24.78-.33.29-.41.48-.19.48.07,0,.1-.05.06-.11-.14-.22.22-.28.38-.07.14.19.14.27-.02.51-.16.25-.16.28,0,.28.1,0,.18.05.18.12s-.05.12-.12.12c-.22,0-.13.33.11.4.22.06.28.35.09.53-.15.15-.09.31.1.24.12-.05.18,0,.19.14,0,.22.02.25.23,1.18.09.39.1.62.02.64-.07.02-.1.11-.07.19s-.01.24-.1.35c-.18.23-.78.45-.65.23.05-.07.03-.14-.03-.14-.1,0-.26.27-.26.44,0,.03.11.02.24-.02.22-.07.3.03.26.32,0,.04.1.05.23.02.23-.06.23-.07.03-.22-.24-.17-.21-.23.16-.35.23-.07.25-.03.24.43,0,.3.06.58.16.69.16.16.15.17-.09.09-.35-.11-.35.08,0,.24.33.15.46.46.15.34-.2-.08-.2-.07,0,.21.26.37.26.48,0,.49-.14,0-.11.05.09.11.17.05.25.1.17.11-.07,0-.11.17-.08.38.03.22,0,.37-.08.37-.07,0-.14-.06-.14-.14,0-.09-.06-.09-.18.02-.2.17-.25.42-.06.3.07-.04.23-.04.36,0q.24.08,0,.33c-.29.31-.22.45.07.16.14-.14.24-.17.33-.07s.06.18-.09.29c-.22.16-.16.52.07.38.06-.04.08-.14.03-.21-.05-.08,0-.07.12.02.23.19.17.38-.14.39-.13,0-.15.03-.05.07.08.03.15.11.15.17s.11.22.24.35c.3.3.31.52.03.94-.12.18-.15.28-.07.24.08-.05.18-.04.21.03.04.06-.05.15-.19.2-.24.07-.24.1-.06.2.11.06.17.17.13.23-.04.06-.01.12.06.12s.13.06.13.14.09.21.21.3c.17.13.18.16.03.18-.1,0-.26.03-.37.04-.1,0-.26-.04-.35-.11-.13-.09-.16-.08-.11.06.03.1.19.21.34.25.38.09.61.46.37.6-.14.09-.14.14-.02.29.12.15.1.22-.13.39-.18.14-.21.18-.07.14.12-.04.21-.02.21.05s.11.12.25.12.22.05.18.11c-.04.06,0,.14.08.17.08.03.04.07-.09.07-.13,0-.32.07-.42.14-.14.09-.08.11.21.05.3-.06.39-.04.39.1,0,.1.07.2.15.23.08.03.17.32.19.65.07,1,.17,1.63.27,1.63.05,0,.18.03.27.07.1.04.17,0,.17-.12,0-.1-.06-.17-.13-.16-.07.01-.15-.11-.17-.27-.04-.29-.04-.29.27-.09.26.17.32.18.32.03,0-.26-.13-.56-.25-.56-.06,0-.07.09-.03.2.05.14.03.17-.07.12-.35-.21.09-.77.49-.62.1.04.17-.05.18-.24,0-.16-.04-.29-.11-.28-.07.01-.15-.04-.18-.13-.03-.09.01-.13.12-.08.1.04.22,0,.27-.08.05-.08.04-.12-.02-.08-.06.04-.19.02-.29-.04-.14-.09-.12-.11.08-.11.14,0,.29-.08.33-.18.04-.11,0-.15-.09-.12-.09.04-.19-.05-.23-.19-.07-.26.08-.35.22-.13.17.27.28.1.16-.25-.09-.27-.09-.41.02-.54.08-.09.12-.22.08-.28-.03-.06.14-.08.38-.05.4.05.43.03.28-.15-.2-.23-.3-.26-.19-.05.04.08,0,.04-.11-.09-.1-.13-.25-.32-.32-.4-.11-.13-.05-.14.33-.08.45.08.46.07.2-.11-.14-.11-.35-.16-.44-.13-.1.04-.21.02-.25-.05-.04-.06.04-.14.17-.18.2-.05.23-.13.16-.44-.07-.37.3-1.96.46-1.96.05,0,.05-.1.02-.22-.03-.12.03-.29.13-.38.1-.09.19-.22.19-.3s-.05-.05-.12.05c-.09.15-.12.13-.12-.09,0-.15.06-.26.13-.24.08.02.15-.2.18-.51.02-.3.1-.56.16-.58.07-.02.09-.12.05-.21-.04-.09.02-.21.13-.25.15-.06.17-.11.06-.24-.11-.13-.1-.17.06-.17.11,0,.2-.06.2-.14,0-.09.06-.09.18.02.1.08.23.11.27.06.05-.05.02-.12-.06-.15-.08-.03-.12-.13-.08-.23.04-.11,0-.17-.13-.17-.11,0-.2.06-.2.13s-.05.1-.11.06c-.13-.08-.03-.68.12-.68.06,0,.11-.08.11-.18s.08-.22.18-.25.15-.12.12-.18c-.04-.06,0-.11.07-.11s.09-.07.04-.15c-.05-.08-.1-.36-.1-.61,0-.34.05-.47.21-.53.12-.04.19-.12.16-.18-.04-.06-.16-.07-.27-.03-.18.07-.18.06-.03-.12.11-.12.22-.15.29-.08.2.19.35.12.18-.08-.22-.26-.23-.67-.04-.96.09-.13.16-.39.16-.58s.04-.32.1-.28.09-.22.07-.57c-.01-.35.03-.7.1-.78.07-.08.07-.15.02-.15s-.03-.05.07-.11c.14-.09.15-.14.02-.3-.14-.16-.12-.19.13-.19.16,0,.37-.05.47-.12.14-.09.11-.12-.15-.12-.26,0-.33-.06-.33-.26s.05-.24.21-.18c.16.06.18.05.07-.06-.19-.19.05-.73.28-.64.19.07.23-.27.05-.38-.06-.04-.11-.24-.1-.45,0-.27.08-.4.25-.44.17-.05.19-.09.08-.16-.12-.07-.12-.23,0-.75.08-.36.11-.75.07-.86s-.02-.2.05-.2.16-.22.21-.48c.07-.43.11-.46.3-.34.17.11.27.1.41-.02.15-.12.19-.12.19,0,0,.08.08.12.17.08s.24.01.32.11c.08.1.27.18.43.18s.32.06.37.14c.06.09.12.08.19-.03.09-.14.13-.13.22.02.09.14.15.15.27.03.12-.12.11-.15-.06-.15-.11,0-.21-.06-.21-.12,0-.17-.76-.62-.94-.55-.08.03-.15,0-.15-.07s-.06-.09-.12-.05c-.07.04-.09.13-.05.19s-.04.11-.17.11-.27-.07-.3-.15c-.03-.08-.07-.09-.07-.02-.01.19-.74.05-.74-.14,0-.09.1-.23.23-.31.19-.12.21-.19.09-.49-.16-.41,0-.58.46-.49.18.04.3-.02.36-.16.07-.18.02-.2-.29-.14-.34.07-.37.05-.37-.3,0-.2.05-.34.11-.3.15.09.51-.06.43-.18-.04-.06-.14-.07-.23-.04-.13.05-.13-.05.03-.49.16-.43.25-.54.41-.48.24.08.3-.14.06-.24-.08-.04,0-.04.18,0,.21.04.4,0,.51-.11.15-.15.11-.17-.37-.16-.3,0-.57-.02-.6-.08-.03-.05,0-.1.07-.1s.1-.05.07-.11c-.04-.06.04-.15.18-.19.2-.07.22-.11.11-.25-.12-.14-.1-.21.09-.35.13-.1.19-.18.14-.18-.05,0-.04-.11.03-.25.09-.17.09-.24,0-.24-.08,0-.09-.07-.04-.15.05-.08.08-.28.06-.44-.05-.39.31-.64.68-.47.15.07.28.17.28.23s-.11.05-.23-.02c-.3-.16-.49-.16-.49,0,0,.07.1.12.22.12s.28.06.36.14c.1.1.23.1.5-.01.42-.18.71-.07.5.18-.1.12-.09.18,0,.25.1.06.1.12-.02.2-.12.08-.08.09.11.04.34-.09.35.07.03.3-.14.1-.24.31-.24.51,0,.28.05.34.3.34.19,0,.3.07.3.19,0,.1.15.32.33.49.2.18.25.27.12.22-.26-.09-.28.13-.03.6.16.31.16.34,0,.28-.1-.04-.18-.02-.18.05s.12.12.27.13c.2,0,.22.03.06.07-.24.06-.23.49.02.64.11.07.12.12.02.18-.21.13-.16.31.08.32.15,0,.16.03.05.08-.3.12-.68.56-.52.62.18.06.19.39.02.39-.15,0-.48.74-.4.88.09.15.29.1.29-.08,0-.23.3-.33.48-.16.11.11.12.09.06-.08-.05-.14-.17-.2-.31-.16-.12.03-.23.03-.23,0,0-.09.51-.52.62-.52.05,0,.08.37.07.81-.02.54-.16.85-.44.92-.22.06-.44.06-.48,0s-.18-.12-.3-.14c-.18-.03-.17.02.1.29.18.18.37.28.41.21.11-.17.5-.3.5-.16,0,.06-.09.17-.21.23-.2.12-.2.12.02.13.13,0,.3-.09.39-.21.15-.2.16-.19.08.03-.09.27-.51.66-.71.66-.07,0-.14.07-.15.16,0,.08-.05.3-.1.49-.07.28-.04.35.18.41.24.06.28.16.31.74,0,.12.12.31.24.42.17.15.18.21.06.21-.14,0-.14.02.01.12.1.06.29.09.42.05.2-.05.21-.04.06.06-.1.07-.27.1-.38.07-.24-.07-.41.15-.41.54,0,.23.08.3.37.34.34.05.35.04.13-.12-.26-.19-.38-.62-.15-.53.08.03.13.12.11.19-.02.07.05.14.14.14.29,0,.33.22.08.45-.13.12-.3.39-.37.58l-.13.36.36-.42c.25-.29.36-.36.37-.23,0,.11-.08.23-.19.28-.11.04-.16.15-.13.25.04.1,0,.21-.06.26-.09.05-.07.12.04.18.12.08.12.1.01.11-.24,0-.18.21.09.28.26.07.33.38.11.52-.09.06-.11,0-.05-.17.06-.2.04-.24-.1-.19-.27.1-.31.45-.07.7.23.24.28.21.56-.4.14-.29.14-.28.15.2,0,.28.04.59.08.7.04.11.01.19-.07.19s-.11-.05-.07-.12.01-.12-.06-.12-.1-.05-.06-.12.02-.12-.04-.12-.14.11-.18.24c-.04.13-.02.21.05.18s.07.02.04.12c-.07.17-.09.17-.22-.01-.08-.11-.21-.16-.29-.12-.08.05-.14.01-.14-.09,0-.29-.19-.33-.56-.12l-.35.19.35-.08c.23-.05.32-.03.27.05-.05.07.08.16.29.2.34.07.53.29.25.29-.07,0-.12.08-.12.18s.08.18.18.18.18.08.18.18c0,.21.26.24.44.06.09-.09.12-.05.11.14-.01.14-.11.31-.22.37-.25.14-.27.35-.02.35.11,0,.15.07.11.18-.05.13-.02.16.12.11.14-.05.23.02.32.25.16.43.18.41-.27.54l-.39.12.46-.04c.61-.06.58.07-.09.36-.3.13-.55.29-.55.34s.08.07.18.04c.1-.04.21-.02.24.04.11.18-.23.22-.49.05-.22-.14-.25-.13-.27.13-.02.18.05.31.19.34.49.13.9.44.81.6-.03.05.12.21.34.34s.33.24.24.25c-.12,0-.12.06.03.27.24.34.24.46,0,.46-.17,0-.17.02,0,.19.24.24.25.42.02.42-.19,0-.37-.54-.24-.76.05-.08-.02-.05-.14.07-.17.16-.19.25-.09.35.07.07.11.2.08.28s.1.2.28.28l.34.13h-.39c-.21.02-.42.09-.47.16-.06.09,0,.11.16.06.42-.13.41.14,0,.3-.39.15-.39.15-.09.21.17.03.37.1.44.17.17.14.34-.07.21-.28-.05-.09-.03-.11.05-.05.08.05.14.03.14-.04s.06-.13.13-.13.1.05.06.11-.02.15.05.19c.07.04.08.18.02.34-.05.15-.08.33-.05.41.03.08-.15.21-.39.28-.38.12-.41.17-.28.34.14.17.11.18-.24.11-.23-.05-.39-.03-.39.04,0,.07-.09.12-.21.12-.19,0-.19.01,0,.21.17.17.23.18.31.06.05-.09.26-.17.45-.18.28-.02.35.02.32.19-.02.12.02.21.1.21s.1-.05.06-.11c-.04-.06.05-.2.2-.3l.27-.19h-.33c-.18,0-.33-.06-.33-.13s.05-.09.12-.05c.07.04.16,0,.2-.12.04-.1.16-.18.27-.18.12,0,.14.03.05.07-.12.05-.11.11.03.24.1.1.14.25.09.32-.14.22-.15.48-.05.62.05.07.13.36.18.64.07.44.05.52-.14.53-.2,0-.2.02,0,.09.12.05.21.13.2.19-.01.06.05.15.14.21.12.07.09.1-.1.1-.15,0-.3.05-.33.11-.11.17.31.28.49.12.09-.07.24-.11.34-.07.23.09.46-.2.36-.45-.04-.11-.02-.2.06-.2s.14-.14.14-.3c0-.22.05-.28.18-.23.1.04.18.02.18-.05s-.1-.15-.23-.18-.25-.21-.29-.38c-.04-.21-.01-.31.07-.28.07.03.12.14.1.25-.04.23.17.27.25.05.04-.12.09-.12.24,0,.14.12.2.12.24.01.03-.1.12-.07.26.07.12.12.25.17.3.12s.02-.12-.07-.15c-.08-.03-.12-.11-.08-.17.04-.06.02-.11-.03-.1s-.23.01-.38,0c-.35-.02-.23-.25.14-.27.22-.01.23-.02.04-.07-.21-.05-.21-.07.03-.23.14-.1.25-.23.25-.29,0-.15-.39,0-.55.21-.07.09-.21.13-.33.09-.25-.1-.28-.3-.03-.3.29,0,.35-.24.12-.49-.21-.23-.22-.23-.45.02-.13.14-.27.22-.3.18-.08-.08.32-.55.47-.55.05,0,.18.09.29.2s.23.16.27.13c.04-.04.15,0,.24.1s.25.14.35.1c.17-.07.23.07.19.41-.02.17.07.18.41.03.13-.06.18-.11.1-.11-.23-.01-.1-.88.16-1.07.22-.16.22-.17-.02-.13-.17.03-.24-.02-.23-.17,0-.12-.03-.21-.09-.21-.14,0-.14.28,0,.43.07.07.05.21-.06.35-.17.23-.17.23-.17-.03,0-.15-.06-.27-.13-.27s-.1.1-.06.23.02.27-.05.31c-.13.08-.29-.38-.23-.67.02-.1-.04-.16-.14-.14-.14.03-.14,0-.02-.15.17-.2.09-.55-.12-.55-.07,0-.1.05-.06.12.04.06-.03.11-.16.1-.16-.01-.21-.09-.17-.24.03-.12,0-.3-.08-.39-.09-.11-.1-.2-.02-.25.07-.04.09-.16.05-.25-.04-.1,0-.18.08-.18.09,0,.12-.1.09-.24-.03-.13,0-.28.07-.32.08-.05.09-.02.04.06-.05.08-.02.14.05.14s.17-.11.2-.24c.05-.19.11-.21.28-.12.37.2.48.15.37-.16-.09-.22-.03-.35.33-.73.24-.25.38-.46.3-.46s-.16.07-.19.15c-.04.12-.1.11-.27-.03-.2-.17-.21-.16-.13.09.05.17.04.27-.04.27-.07,0-.13-.11-.13-.24s-.06-.24-.13-.24-.09.05-.05.12.02.12-.05.12c-.18,0-.16.45.02.52.11.04.12.09.02.2-.07.08-.22.11-.33.06-.15-.06-.17-.13-.08-.3.07-.12.12-.34.12-.47s.06-.25.13-.25c.08,0,.1-.11.05-.27-.08-.27-.08-.27.11-.03.11.13.19.2.19.14s.08-.05.17.03c.13.11.25.04.54-.28.39-.43.39-.56,0-.56-.13,0-.22-.09-.23-.21,0-.17-.05-.16-.24.09-.13.17-.22.41-.18.55.05.23.04.23-.1.03-.09-.12-.2-.17-.26-.12s-.06-.01-.02-.13c.04-.12.08-.25.08-.27s.08-.05.18-.05.23-.11.3-.23c.1-.19.08-.25-.12-.31-.25-.08-.34-.3-.12-.3.07,0,.12.05.12.12s.08.12.18.12.18-.11.18-.25.08-.33.18-.43c.16-.16.18-.16.18.06,0,.14-.06.28-.12.32-.14.09-.05.3.13.3.06,0,.12-.11.12-.25s.05-.22.12-.18c.16.1.15-.02,0-.31-.09-.16-.09-.23,0-.23.07,0,.13.06.13.13s.06.09.14.05c.13-.08.09.12-.1.64-.09.24.18.18.37-.09.09-.13.21-.2.26-.15s.05-.07,0-.28-.14-.38-.19-.4c-.06-.02-.1-.14-.1-.27,0-.29-.07-.29-.45,0-.17.13-.41.24-.53.24-.25,0-.31-.3-.08-.44.1-.06.07-.12-.09-.18-.18-.07-.13-.09.2-.1.44,0,.97-.29.82-.43-.04-.04-.18-.1-.3-.12-.12-.02-.2-.11-.18-.2.02-.09.07-.27.11-.4.05-.17.02-.21-.11-.13-.09.06-.07-.02.06-.16.13-.14.33-.26.45-.26s.25-.05.29-.11c.04-.07.22-.07.43,0,.2.06.37.07.37.02,0-.05.08.02.18.15.14.19.15.27.03.41-.12.15-.12.17.03.12.1-.03.17-.15.16-.26,0-.11.05-.2.14-.2s.18-.09.21-.21c.04-.16.06-.14.07.06.02.3.26.38.26.08,0-.14.07-.17.24-.11.14.05.24.02.24-.05,0-.12-.18-.18-.41-.14-.06.01-.07-.07-.03-.18.04-.11.02-.27-.05-.35-.14-.17-.03-.58.14-.48.06.04.08.13.04.21-.04.08.04.01.18-.14l.25-.29-.3-.3c-.16-.16-.36-.26-.44-.21-.09.05-.12,0-.1-.14.03-.16.17-.23.49-.25.25-.02.48.02.52.09.04.06-.04.12-.18.12s-.25.06-.25.13c0,.13.29.48.4.48.07,0,.23-.48.25-.72.02-.3-.89-.7-1.51-.66-.49.03-.56,0-.7-.29-.21-.45-.19-.54.09-.39.33.18.54.04.3-.2-.1-.1-.18-.27-.18-.37s.12-.02.28.22l.28.41-.35.12c-.27.09-.31.16-.2.27.1.1.21.11.37.02.13-.07.34-.09.47-.05.18.06.24.02.24-.17s-.06-.23-.21-.18c-.12.04-.08-.02.09-.12.18-.12.45-.16.67-.12.24.04.31.03.2-.05-.13-.09-.12-.15.04-.31.23-.23.04-.28-.2-.05-.09.08-.27.17-.4.19-.21.03-.21,0,.06-.21.26-.21.28-.26.12-.37-.1-.07-.18-.24-.18-.39,0-.17-.09-.29-.23-.32-.18-.04-.21,0-.14.18.22.53.22.65-.01.65-.18,0-.19-.02-.06-.11.1-.06.13-.17.07-.26-.07-.12-.12-.12-.23.02-.16.2-.44.28-.44.12,0-.06.11-.14.24-.17.14-.04.24-.16.24-.32,0-.17.08-.25.24-.25.14,0,.24-.08.24-.18s-.09-.18-.2-.18-.16-.04-.11-.09c.09-.09.16-.11.53-.14.16-.01.23-.13.25-.45.02-.25-.02-.4-.09-.36-.06.04-.09.17-.06.29.05.18-.03.22-.43.24-.7.03-.75-.13-.17-.62.26-.22.26-.22.2.03-.07.27.15.36.23.1.09-.27-.05-.55-.3-.62-.21-.06-.23-.09-.09-.25.17-.21.68-.25.79-.08.04.06.18.08.31.05.13-.03.21-.11.18-.16-.03-.05.02-.18.12-.27.14-.14.14-.21.03-.33-.12-.12-.1-.14.08-.08.12.04.25.08.27.08s.05.11.05.24.07.24.16.24c.11,0,.15-.11.13-.33-.02-.18,0-.24.02-.12.04.12.14.21.24.21.18,0,.19.41.02.68-.05.07-.05.17,0,.22.05.05.09.28.1.5,0,.3-.04.41-.18.42-.16,0-.16.02-.02.11.14.09.14.15.02.29-.08.1-.1.21-.05.24.15.09.08,1.17-.08,1.33-.17.17-.18.37-.01.27.07-.04.13.05.13.21.04.99.11,2.25.13,2.41.06.51,0,.59-.44.54-.31-.04-.42,0-.42.12,0,.11.08.15.24.11.17-.05.24,0,.24.13,0,.11.14.23.31.27.24.06.28.11.17.24-.1.12-.09.21.06.36.3.3.25.56-.09.43-.17-.06-.36-.06-.49.01-.22.12-.9.03-1.13-.16-.09-.07-.17-.07-.22.01-.1.16.04.4.17.31.05-.03.13.02.17.12.08.2.44.25.44.06,0-.07.13-.09.3-.05.19.05.3.02.3-.06,0-.07.08-.14.17-.14.12,0,.15.09.1.26-.05.17-.02.23.06.18.25-.15.43.35.44,1.25,0,.33-.05.55-.14.59-.09.03-.15-.05-.15-.19,0-.17-.08-.24-.29-.24s-.28.05-.22.19c.05.13.02.16-.09.09-.11-.07-.14-.04-.1.07.03.09-.02.25-.12.35-.16.16-.15.19.11.26.35.1.73.12.51.02-.08-.03-.15-.18-.15-.32,0-.18.03-.22.1-.11.05.09.18.12.28.09.1-.04.25.01.34.12.13.16.11.19-.13.2-.18,0-.21.03-.09.07.16.04.18.14.1.56-.05.28-.07.55-.04.59.03.05-.02.12-.1.15-.08.04-.03.05.12.02.16-.03.27,0,.26.09-.04.32.02.58.11.52.17-.11.1.83-.07.96-.16.13-.09.54.1.54.06,0,.09.11.08.25-.01.16-.08.23-.21.18-.14-.05-.13-.02.03.1.27.21.27.51,0,.62-.17.07-.18.1-.04.19.09.06.22.08.27.05.05-.03.1,0,.1.07s-.09.13-.2.13c-.16,0-.17.03-.05.18.11.14.12.22.01.35-.11.13-.09.2.05.32.12.1.14.19.07.23-.19.12-.22.68-.04.64.12-.02.11.07-.03.41-.23.54-.23.49.07.57.14.04.23.12.19.17-.04.06-.02.18.04.28.06.1.05.23-.02.33-.07.09-.09.16-.04.16s.02.09-.08.21c-.15.18-.14.19.06.12.22-.08.22-.07.03.22-.24.37-.25.44-.02.35.12-.05.18,0,.18.13,0,.11-.06.2-.13.2s-.1.05-.06.11c.04.06-.02.14-.12.18-.22.09-.17.59.07.66.49.13.51.15.36.32-.11.13-.1.25.05.54.17.32.1.48-.22.46-.27-.02-.39-.07-.35-.17.03-.08,0-.15-.08-.15s-.14.11-.14.25.07.24.15.22c.22-.04.59.14.52.25-.03.05.08.15.25.23l.3.14-.31.33c-.18.2-.26.37-.2.44.06.06.08.18.05.28-.04.09,0,.17.07.17s.14-.13.14-.3.05-.33.11-.36.1.19.09.51c-.01.46-.07.6-.29.71-.42.21-.49.34-.13.25.27-.07.31-.04.26.15-.04.16-.14.21-.32.17-.16-.03-.21-.02-.13.05.07.06.16.2.21.31.04.12.14.21.21.21s.11-.04.07-.09c-.03-.05.02-.19.1-.31.14-.2.17-.17.24.28.1.59.18,2.07.1,1.86-.06-.17-.4-.21-.4-.05,0,.05.14.23.3.38.24.22.27.33.18.51-.09.17-.08.25.07.3.23.09.13.27-.22.41l-.26.11h.27c.15.01.27.06.27.12,0,.15-.31.39-.4.3-.04-.04.03.13.16.39s.3.5.39.55c.1.06.05.13-.16.21-.17.07-.31.2-.31.3,0,.11.07.16.19.11.16-.06.16-.03-.02.17-.27.31-.27.35.03.37.17.01.24-.06.25-.25,0-.22.02-.23.12-.08.18.28.15.36-.18.51-.17.08-.3.2-.3.26,0,.08.06.07.15-.02.18-.18.46-.19.46-.03,0,.07-.08.09-.18.05-.12-.05-.18,0-.18.13,0,.11.08.2.18.2s.21.06.26.14c.06.1.02.12-.13.06-.12-.05-.29-.02-.38.05-.13.11-.19.07-.28-.15-.1-.26-.12-.26-.12-.04,0,.24-.25.51-.69.77-.13.07-.16.14-.09.14.08,0,.22.03.31.07.1.04.22-.05.3-.23.13-.28.64-.54.64-.32,0,.06-.09.13-.21.16s-.04.06.18.07c.46.02.55.14.6.76.03.44.01.46-.35.48l-.38.02.42.09c.23.05.38.1.32.11-.06,0-.04.09.04.19.11.13.11.18,0,.22-.1.03-.08.15.07.38.26.4.09.71-.28.49-.19-.12-.21-.08-.2.31.01.32,0,.34-.04.1-.05-.3-.08-.32-.25-.18-.17.14-.18.13-.09-.02.08-.14.07-.15-.06-.04-.13.12-.13.18,0,.33.12.15.12.19,0,.19-.08,0-.22-.09-.29-.19-.17-.23-.6-.1-.51.15.04.09.01.14-.05.1-.14-.09-.16-.51-.02-.59.21-.13.15-.89-.09-1.17-.14-.16-.28-.25-.33-.2-.09.09.19.69.39.84.07.05-.08.09-.32.09-.37,0-.44.04-.39.23.03.12-.03.32-.15.43s-.17.24-.12.29.13,0,.18-.08c.06-.09.16-.12.24-.08.09.06.12,0,.08-.22-.04-.23,0-.32.19-.37.22-.06.23-.05.06.14-.13.14-.15.27-.07.41.07.13.07.23-.01.28-.07.04-.1.12-.06.18s-.07.12-.24.16c-.2.04-.3,0-.3-.11,0-.09-.05-.16-.12-.16s-.09.07-.05.17c.08.22-.28.36-.4.15-.05-.09-.26-.2-.46-.24-.24-.05-.31-.05-.19.03.11.07.14.19.07.34-.09.2-.1.2-.15.02-.05-.21-.52-.18-.52.03,0,.06-.08.11-.18.11s-.15-.07-.12-.17c.05-.12-.02-.15-.24-.11-.23.04-.35-.02-.51-.26-.24-.37-.38-.34-.18.04.07.14.09.25.04.24-.23-.04-.3.02-.18.17.18.22-.36.21-.62-.01-.16-.13-.2-.12-.27.09-.04.14-.13.22-.19.18s-.08-.13-.04-.19c.08-.13-.28-.59-.46-.59-.06,0-.02.17.09.38s.14.34.06.3-.13-.03-.13.03-.08.14-.17.18c-.12.05-.15,0-.11-.17.06-.21.03-.22-.28-.11-.25.09-.36.09-.43-.02-.12-.2-.52-.03-.44.19.05.14,0,.15-.24.06-.4-.15-.69-.15-.6,0,.04.07,0,.09-.12.05-.1-.04-.19-.01-.19.06s-.06.14-.13.14c-.08,0-.08-.09.01-.26.14-.25.13-.25-.14-.06-.35.24-.48.25-.4.03.04-.09-.02-.2-.11-.23-.13-.05-.16,0-.12.17.04.16,0,.23-.14.23-.11,0-.2-.08-.2-.18,0-.3-.24-.21-.25.09,0,.15-.03.21-.07.14-.03-.07-.18-.11-.34-.08-.16.03-.32,0-.37-.08s-.14-.13-.2-.13-.09.04-.06.09-.05.09-.17.09c-.2,0-.21-.02-.05-.2.21-.23.24-.47.03-.26-.08.08-.27.15-.42.15s-.39.11-.52.24c-.13.13-.29.24-.35.24s-.14.07-.16.15c-.04.12-.09.12-.24,0-.16-.13-.22-.12-.38.03-.17.17-.19.16-.23-.09-.05-.32-.43-.32-.68,0-.09.11-.18.19-.21.18-.03-.02-.13,0-.22.04-.09.04-.46.01-.82-.05-.41-.07-.7-.08-.79,0-.08.06-.28.08-.46.04-.22-.06-.32-.03-.32.09,0,.13-.03.12-.12-.02-.1-.16-.12-.16-.12,0,0,.11-.04.13-.09.06-.1-.14-1.02-.19-.93-.05.03.05-.07.12-.22.16-.4.11-.6.09-.51-.05.04-.07-.04-.12-.18-.12-.16,0-.23.05-.17.14.06.1.02.1-.13.02-.23-.13-.79-.07-.79.09,0,.05-.11.12-.24.16-.13.04-.24.01-.24-.05s-.09-.11-.21-.11c-.18,0-.19-.02-.03-.12.13-.08.14-.12.03-.12-.09,0-.19.08-.23.18-.04.1-.16.18-.27.16-.11-.01-.33.03-.5.1-.34.14-.48.1-.48-.14,0-.09-.13-.16-.29-.16-.22,0-.28.05-.23.23.08.31-.21.3-.62-.02-.18-.14-.39-.23-.47-.19-.12.05-.12.06,0,.07.08,0,.15.09.15.19,0,.25-.1.23-.37-.09-.16-.18-.21-.21-.16-.07.06.17,0,.2-.36.16-.24-.02-.44,0-.44.05s-.31.09-.7.1c-.38,0-.78.04-.88.08-.1.04-.48.09-.85.13-.37.03-1.02.1-1.46.15s-.97.1-1.18.1-.39.03-.39.07-.43.06-.95.06c-.67,0-1.02-.06-1.17-.18-.2-.16-.22-.16-.14.03.04.12.03.21-.04.21s-.12-.05-.12-.12h-.01ZM5.64,47c0-.33-.02-.35-.18-.19-.1.1-.15.27-.11.37.12.32.29.21.29-.18h0ZM12.09,46.12c-.07-.07-.13-.23-.13-.35,0-.32-.2-.27-.64.14-.21.2-.32.36-.24.37.08,0,.15-.05.15-.12,0-.19.48-.14.56.05.04.1.15.14.25.11.13-.05.14-.11.05-.2h0ZM3.03,46.16c.04-.07.17-.12.3-.12.26,0,.57-.33.43-.46-.05-.05-.12-.02-.15.06-.03.08-.19.15-.35.15s-.29.05-.29.12-.09.12-.19.12-.16.05-.12.12c.04.07.12.12.18.12s.14-.05.18-.12h0ZM16.67,45.5c-.15-.13-.59-.18-.59-.07,0,.07.05.11.1.07.05-.03.18.05.27.18.15.21.18.21.21.05.02-.11.02-.21,0-.23h0ZM13.62,45.47s-.02-.16.06-.25c.1-.12.1-.2,0-.3-.1-.1-.17-.06-.25.16-.07.16-.12.25-.12.2,0-.05-.06-.06-.13-.02-.19.12-.02.3.27.3.14,0,.22-.04.18-.08h0ZM27.74,45.37c0-.2.19-.23.3-.06.05.07.18.07.37-.02.23-.1.34-.1.44,0,.08.08.27.14.42.14.25,0,.31-.11.27-.44,0-.04.06-.12.15-.18.12-.08.13-.13.02-.2-.08-.05-.12-.21-.07-.37.07-.26.08-.26.3-.07.21.18.23.18.23.01,0-.35-.38-.46-.61-.18-.15.19-.28.23-.54.16-.23-.06-.31-.14-.27-.26.04-.1.01-.18-.05-.18s-.15.08-.19.18-.12.15-.18.12c-.06-.04-.11,0-.11.06s.06.13.13.13c.09,0,.08.08,0,.24-.09.17-.09.24,0,.24.07,0,.18-.12.24-.27l.11-.27v.29c.01.28.02.28.32.09.27-.17.3-.18.3-.01,0,.1.05.18.12.18.11,0,.07.46-.05.58-.04.04-.16-.02-.28-.14-.12-.11-.34-.18-.5-.14-.16.03-.38,0-.5-.06-.29-.15-.51-.06-.67.28-.11.23-.09.28.09.29.12,0,.22-.06.22-.16h0ZM31.31,45.39c.08.03.14-.05.14-.18,0-.21-.03-.21-.26-.06-.14.09-.3.13-.35.08-.05-.05-.05,0,0,.13.05.14.12.18.2.1.07-.07.18-.09.26-.07h0ZM17.38,45.14c-.09-.24-.4-.24-.48-.01-.04.11,0,.15.1.11.09-.03.2,0,.25.07.12.19.23.05.14-.18ZM25.56,45.32c-.14-.09-.15-.17-.03-.43.21-.47.2-.49-.45-.51-.33-.01-.82-.13-1.09-.26-.27-.13-.53-.2-.56-.14-.09.14.27.4.42.31.07-.04.13,0,.13.1s-.04.2-.09.23c-.05.03,0,.02.09,0,.59-.18.73-.17.83.09.05.15.14.26.18.26.32-.03.37,0,.23.14-.23.23-.17.34.19.34.25,0,.29-.03.16-.11h0ZM24.52,44.7c-.08-.13-.42-.01-.42.15,0,.06.05.08.12.04s.12-.02.12.05-.09.13-.21.14c-.18,0-.18.02.03.1.18.07.27.04.33-.14.05-.13.06-.28.03-.34h0ZM25.97,44.92c-.07-.22-.05-.25.08-.12.09.08.24.15.35.15.15,0,.15-.04-.04-.17-.12-.09-.19-.22-.15-.29.04-.06,0-.15-.11-.18-.2-.08-.38.4-.26.71.11.29.22.21.13-.09h0ZM18.06,44.99s0-.15-.09-.24c-.19-.19-.67-.23-.67-.06,0,.06.11.08.24.05.17-.05.24,0,.24.13,0,.2.14.26.28.12h0ZM32.24,44.95c.06,0,.11-.12.1-.27-.01-.22-.02-.23-.07-.05-.04.15-.13.2-.29.16-.15-.04-.23,0-.23.12s.07.16.19.11c.11-.04.24-.07.3-.07ZM27.89,44.6c.19-.17.3-.5.16-.5-.21,0-.68.26-.62.36.04.06.01.15-.06.19s-.09.13-.05.19c.07.12.21.07.57-.24h0ZM33.08,44.25c.09-.31.08-.37-.07-.31-.1.04-.15.16-.11.28.05.15,0,.23-.18.28-.17.05-.22.13-.17.27.07.17.1.18.25.04.09-.09.22-.34.28-.55h0ZM23.18,44.69c-.06-.1,0-.12.18-.07.14.04.26.02.26-.03,0-.17-.35-.39-.48-.31-.17.1-.16.55,0,.55.07,0,.09-.06.04-.14h0ZM31.62,44.13c-.06-.16-.09-.35-.08-.43.02-.08-.08-.16-.21-.18-.18-.03-.2-.02-.07.07.09.06.13.17.09.23-.04.07-.01.3.06.51.09.26.17.34.23.24.05-.08.05-.28-.02-.44ZM18.44,44.39c.29-.11.23-.3-.08-.24-.15.03-.36.06-.46.06-.16,0-.16.02,0,.13.22.14.28.14.54.05h0ZM5.45,44.07c.12-.11.13-.22.04-.42-.14-.31-.22-.33-.41-.14-.09.09-.15.07-.21-.07-.05-.12,0-.22.11-.26.27-.1.22-.4-.05-.32-.33.09-.41.62-.12.78.13.07.28.09.35.05.08-.05.09.04.05.24-.09.34,0,.4.24.16h0ZM32.63,43.87c-.02-.22.02-.26.2-.2.21.07.22.03.14-.27-.09-.35-.55-.58-.48-.24.04.19.02.2-.41.2-.21,0-.23-.03-.12-.15.08-.08.15-.22.15-.31,0-.13-.04-.13-.19.02-.26.26-.17.62.15.59.27-.03.48.27.28.39-.2.12-.13.32.1.27.14-.03.2-.14.18-.32h0ZM4.39,43.77c-.02-.29-.07-.33-.39-.3-.4.04-.69.24-.6.39.08.14.58.09.69-.06.05-.07.12-.04.16.09.12.3.16.26.13-.12h0ZM33.95,43.9c.15-.18.14-.2-.1-.14-.17.04-.29,0-.33-.1-.04-.1.01-.17.11-.17s.18-.07.18-.16c0-.11-.12-.14-.37-.11-.41.06-.43.09-.19.34.1.1.15.26.11.36-.1.25.37.23.58-.02h0ZM6.54,43.69c0-.11.03-.17.09-.13s.11.02.11-.04-.15-.18-.32-.26c-.29-.13-.31-.13-.16.05.09.11.11.19.05.17-.23-.05-.41.01-.41.13,0,.07.08.12.18.12s.18.06.18.13.07.11.15.08c.08-.03.14-.14.14-.25h0ZM11.71,43.67c0-.1.04-.16.1-.13.05.03.1-.04.11-.17.01-.18-.03-.21-.25-.13-.32.12-.44.62-.15.62.1,0,.19-.09.19-.19h0ZM9.38,43.21c-.13-.14-.18-.14-.28,0-.09.12-.22.14-.51.06-.31-.09-.37-.08-.32.06.04.09.1.18.14.18s.2.02.35.04c.15.02.31.06.35.11.04.04.15,0,.25-.1.14-.14.15-.21.02-.34h0ZM12.52,43.19c-.04-.16-.02-.33.05-.37.07-.04.12-.14.12-.21s-.13-.01-.29.14c-.28.26-.28.29-.09.51.26.31.31.29.22-.07h0ZM34.99,43.42s.09-.23.28-.42c.19-.19.3-.38.24-.41-.06-.04-.21.03-.33.16-.33.35-.74.41-.83.13-.1-.32-.32-.29-.28.04.03.2.13.28.37.31.18.02.33.09.33.15s.06.11.14.11.11-.03.07-.07h0ZM10.5,43.07c-.1-.13-.05-.18.23-.24.2-.05.48-.05.62,0,.22.07.25.04.21-.26-.02-.2-.11-.33-.19-.32-.08.02-.15-.05-.15-.15,0-.12.07-.15.21-.11.18.06.18.05.03-.06-.11-.08-.23-.09-.3-.02s-.2-.03-.34-.26c-.13-.21-.26-.35-.3-.31-.04.04.05.21.19.39.32.4.32.48.02.78-.18.18-.34.22-.61.17-.46-.09-.47.05-.03.4.35.28.63.27.39-.01h0ZM7.56,42.72c.14.04.26.01.26-.05,0-.19-.38-.29-.55-.15-.08.07-.24.09-.35.05-.23-.09-.26.08-.05.3.12.12.18.11.28-.03.08-.11.23-.15.4-.11h0ZM8.98,42.89c.07-.01.03-.07-.08-.14-.21-.12-.59-.04-.59.12,0,.08.23.09.67.02ZM33.77,42.81c-.03-.09,0-.2.06-.23.07-.04.09-.12.05-.18-.04-.06-.01-.11.06-.11s.13-.11.13-.23.16-.35.37-.49.36-.35.36-.46c0-.18-.02-.18-.12-.02-.07.1-.12.13-.12.06,0-.07-.05-.04-.11.05-.08.12-.3.16-.73.15-.41-.02-.62.02-.62.12s.14.12.42.07c.33-.05.4-.03.35.11-.04.09-.14.17-.23.17-.13,0-.14.07-.05.3.13.33,0,.47-.29.36-.11-.04-.19-.02-.19.05,0,.3.16.48.44.48.21,0,.28-.05.24-.16h0ZM12.32,42.58c.12-.15.12-.18-.03-.18-.1,0-.22-.08-.25-.18-.11-.28-.32-.21-.32.1,0,.47.32.61.61.26h0ZM14.03,42.55c0-.13.03-.15.07-.06.09.21.28.19.28-.03s-.23-.23-.52-.01c-.26.2-.27.32-.03.32.1,0,.19-.09.19-.21h0ZM19.29,42.26c-.05-.08-.87.07-.99.19-.04.04.06.12.22.18.21.08.36.05.55-.09.14-.11.24-.23.21-.28ZM14.03,42.03c.07,0,.09-.05.05-.12-.05-.08-.15-.08-.28-.01-.11.06-.37.09-.57.06-.2-.03-.3-.02-.21.02.08.04.15.14.15.23,0,.26.27.28.51.04.12-.12.28-.22.35-.22h0ZM23.49,42.28c0-.14.08-.24.18-.24s.18-.02.18-.05.03-.12.06-.21c.04-.11-.04-.16-.24-.16s-.3.07-.3.21c0,.26-.2.4-.28.19-.03-.08-.09-.12-.14-.07-.13.12.16.59.36.59.1,0,.18-.11.18-.24h0ZM17.61,41.91c-.03-.39.21-.51.34-.17.04.1.13.16.2.12.2-.12.14-.26-.19-.41-.17-.08-.28-.2-.24-.26s.02-.12-.05-.12-.13.11-.13.24-.06.27-.13.32c-.09.05-.09.12,0,.21.07.07.09.2.06.29-.04.09,0,.17.06.17s.11-.16.1-.37h0ZM27.98,42.09c0-.1-.06-.18-.13-.18s-.1-.05-.06-.11c.1-.16-.12-.27-.35-.18-.11.04-.19.18-.19.32,0,.19.03.22.17.11.13-.11.18-.1.24.05.09.24.32.24.32,0h0ZM20.19,41.86c-.19-.2-.33-.26-.41-.18-.08.08-.06.16.05.22.13.08.12.12-.06.16-.13.03-.02.07.24.07h.47s-.29-.28-.29-.28h0ZM3.44,41.75c.19.19.21.19.25-.02.02-.12,0-.25-.07-.3-.22-.14-.25-.61-.06-.88.14-.2.15-.29.05-.32-.08-.03-.12-.1-.08-.16.12-.2-.1-.12-.26.1-.13.17-.16.18-.17.03,0-.1-.07-.05-.16.12-.21.4-.12.85.14.77.12-.04.07.04-.1.19-.25.21-.26.25-.09.25.13,0,.22.1.23.28l.02.27.05-.27c.05-.26.07-.26.26-.07h0ZM24.3,41.85c.04-.1.15-.18.24-.18s.17-.05.17-.12c0-.24-.29-.11-.59.27-.12.14-.12.21-.03.21.08,0,.17-.08.21-.18h0ZM25.51,41.73c.17-.17.16-.2-.03-.17-.04,0-.12-.06-.18-.15-.08-.13-.13-.13-.25,0-.11.11-.11.15,0,.15.08,0,.11.08.07.18s0,.18.07.18.23-.08.32-.18h0ZM28.25,41.58c-.07-.02-.11-.12-.07-.21.03-.09,0-.2-.07-.24-.08-.05-.13.06-.13.28,0,.35.25.6.35.34.03-.07-.01-.15-.08-.17h0ZM30.28,41.6c-.16-.2-.67-.23-.78-.05-.04.07.06.12.23.12s.34.06.38.12c.04.07.13.09.2.05.07-.05.07-.14-.02-.25h0ZM6.64,41.71c-.15-.03-.27-.12-.27-.21s-.09-.19-.2-.24c-.14-.05-.18-.02-.12.12.04.11.07.24.07.3s.18.1.39.09c.29-.01.32-.03.12-.07h0ZM22.65,41.55c-.1-.06-.21-.09-.26-.06-.05.03-.23,0-.4-.07-.18-.07-.31-.07-.31-.01,0,.15.23.23.73.24.3,0,.37-.02.25-.1h0ZM26.86,41.27c.08-.06.22-.09.3-.06.08.03.26-.05.39-.17.13-.12.33-.22.44-.22s.27-.08.35-.18c.12-.14.11-.22-.04-.37-.23-.23-.32-.23-.32-.01,0,.24-.24.37-.4.2-.07-.07-.27-.14-.44-.14h-.31l.27.19c.28.19.25.48-.03.37-.08-.03-.31.04-.5.17s-.39.2-.44.16c-.05-.03-.1,0-.1.06,0,.26.48.25.82-.01ZM29.6,41.24l.51-.15-.46-.09c-.26-.05-.52-.04-.61.03-.08.07-.27.1-.41.08-.21-.03-.25,0-.2.2.07.25.12.25,1.17-.06h0ZM22.59,40.98c-.04-.35-.24-.5-.37-.29-.04.07,0,.13.08.14.09,0,.02.05-.14.11l-.3.09.3.13c.44.19.47.18.44-.18ZM24.86,40.89c.15,0,.35.05.44.14.24.23.39.19.39-.11,0-.2-.04-.23-.14-.13-.1.1-.18.09-.32-.04-.1-.1-.27-.15-.38-.1-.11.05-.26.08-.34.09-.08,0-.21.15-.28.32-.09.21-.06.23.11.09.14-.12.37-.23.53-.24h0ZM34.36,40.83c.18-.34.17-.36-.07-.31-.14.03-.33.15-.41.27-.15.21-.11.27.28.39.02,0,.11-.15.21-.35h0ZM33.69,40.71c0-.06-.14-.14-.3-.18s-.3-.16-.3-.26-.05-.18-.12-.18c-.28,0-.11.47.21.59.44.16.52.16.52.03h0ZM5.59,40.51c-.13-.1-.18-.18-.11-.18s.13-.14.13-.3c0-.38-.12-.39-.28-.03-.07.15-.26.31-.42.35s-.25.09-.18.1c.55.09.72.14.77.19.03.03.12.06.19.05.07,0,.02-.08-.1-.18h0ZM30.96,40.45c.04-.07.12-.1.16-.07s.17,0,.26-.06c.13-.08.06-.11-.23-.09-.41.03-.84.34-.47.34.1,0,.22-.06.27-.12h0ZM34.52,40.17c.09-.06.25-.07.37-.02.19.07.19.07,0-.13-.19-.19-.22-.19-.4,0-.18.18-.22.18-.39.01-.24-.24-.15-.32.48-.43l.51-.08-.64-.02c-.51-.01-.64.02-.64.18,0,.14-.07.17-.26.11-.19-.06-.24-.04-.2.08.03.09.18.16.32.15.15,0,.24.05.21.13-.06.16.39.18.62.02h0ZM6.37,39.67c0-.1.05-.18.12-.18s.12-.05.12-.11-.14-.11-.31-.11c-.22,0-.29.05-.24.18.04.1.07.23.07.29s.05.11.12.11.12-.08.12-.18h0ZM32.05,39.56c.32-.17.59-.17,1.13,0,.18.05.27.03.27-.06,0-.08-.06-.11-.13-.07s-.21,0-.31-.07c-.16-.13-.13-.18.22-.32.39-.17.39-.18.12-.28-.29-.11-.93.18-.81.37.06.1-.22.24-.5.24-.09,0-.17-.05-.17-.12s.09-.12.19-.12.16-.05.12-.11c-.13-.21-.73.05-.78.35-.02.18,0,.25.09.2.07-.05.13-.02.13.05,0,.16.03.16.42-.04h0ZM3.09,39.24c.1-.19.09-.24-.03-.24-.18,0-.45.24-.45.39,0,.2.36.09.48-.15h0ZM35.19,39.17c.09-.23-.02-.45-.18-.35-.06.04-.08.12-.05.18s.01.11-.06.11-.13-.05-.13-.12-.07-.12-.16-.12-.25-.19-.36-.41c-.17-.36-.18-.44-.02-.56.1-.08.18-.2.18-.26,0-.14-.49,0-.71.21-.14.13-.12.17.09.24.31.1.33.25.04.43-.18.12-.18.12.06.06.19-.05.27-.02.27.11,0,.1-.07.21-.15.24-.25.1.17.32.47.25.14-.04.3,0,.34.07.12.19.27.16.36-.06h0ZM25.62,38.52c-.05-.07-.16-.13-.26-.13s-.15.05-.12.1-.07.08-.24.05l-.3-.06.27.3c.26.29.28.3.5.09.13-.12.2-.28.15-.35h0ZM30.53,39.01c0-.06.07-.14.15-.16s.02-.03-.13,0c-.16.03-.35,0-.42-.07-.12-.09-.41-.1-.84-.03-.05,0-.09.07-.09.14,0,.08.16.1.4.07.22-.03.48-.01.58.05.23.15.36.15.36,0h0ZM7.07,38.57c.03-.47-.02-.51-.3-.23-.16.16-.17.21-.02.3.09.06.13.11.07.11s-.07.06-.02.12c.14.23.24.12.27-.3h0ZM21.79,38.82c.1-.02.17-.07.15-.11s-.03-.15-.03-.23c0-.12-.02-.12-.1,0-.08.13-.64.13-1.1,0-.11-.03-.14.02-.14.26,0,.13.58.24.85.16.1-.03.26-.07.37-.08h0ZM2.61,38.57c0-.1.05-.18.12-.18s.12-.05.12-.12-.14-.12-.3-.12c-.19,0-.3.07-.3.19,0,.1.05.16.12.12.07-.04.09,0,.05.12-.04.1-.01.19.06.19s.14-.08.14-.18ZM27.2,38.63c.04-.06,0-.08-.1-.05-.09.04-.31,0-.49-.06-.29-.11-.43-.04-.26.14.11.11.78.09.85-.03ZM34.78,38.27c0-.2-.06-.37-.14-.37s-.11.03-.07.07c.04.04.02.21-.04.37-.09.23-.07.29.07.29.12,0,.18-.12.18-.37h0ZM10.71,37.98c-.12-.09-.21-.23-.21-.31s-.08-.12-.19-.08c-.1.04-.16.02-.12-.04.04-.06,0-.13-.09-.16-.12-.04-.12-.1.02-.26.23-.27.08-.4-.17-.15-.11.11-.25.2-.3.2s-.17.11-.24.24c-.07.14-.09.24-.03.23.24-.04.41.02.35.13-.04.06,0,.15.07.2.09.05.11.04.06-.05-.06-.09.03-.14.25-.13.19,0,.27.04.19.07-.25.1-.04.28.31.28.3,0,.31-.02.12-.16h0ZM4.22,37.83c.12-.12-.2-.39-.39-.32-.12.05-.15,0-.1-.12.05-.12-.03-.23-.22-.32-.25-.12-.29-.1-.29.1,0,.13-.04.32-.08.44-.06.16-.03.19.17.13.14-.04.29-.02.33.05.09.14.46.17.58.05h0ZM6.12,37.71c.14-.12-.12-.15-.69-.09-.35.04-.6.12-.56.18.06.1,1.12.02,1.25-.1ZM8.46,37.68c-.13-.08-.12-.12.04-.18.12-.05.23,0,.27.11.05.14.11.15.24.04.24-.2.21-.34-.06-.27-.15.04-.25,0-.27-.13-.04-.16-.08-.16-.33.03-.31.23-.26.5.09.5.16,0,.17-.02.04-.1h0ZM17.18,37.6c0-.1.06-.18.12-.18s.12.06.12.14.03.11.07.07c.04-.04,0-.19-.11-.34-.12-.17-.23-.18-.32-.02-.16.31-.17.51-.01.51.07,0,.12-.08.12-.18h0ZM11.05,37.54c-.11-.18.28-.29.46-.14.1.08.22.09.33.01.15-.1.15-.13.01-.22-.1-.06-.13-.17-.07-.26.07-.11.02-.14-.18-.08-.15.04-.41.02-.57-.04-.25-.09-.29-.07-.29.13,0,.13.06.24.14.24.1,0,.1.04,0,.16-.14.16-.07.32.13.32.06,0,.07-.05.03-.12h0ZM20.46,37.17c0-.2-.06-.36-.14-.36-.08,0-.11.13-.07.33.04.18.04.27,0,.19-.07-.15-.41-.08-.41.09,0,.11.38.22.52.15.05-.02.09-.21.09-.4ZM6.27,37.08c.12-.12.09-.15-.12-.15-.15,0-.27-.05-.27-.12s-.07-.12-.15-.12c-.11,0-.11.03,0,.15.21.21.18.34-.1.34-.19,0-.25-.09-.26-.39,0-.22,0-.44,0-.5,0-.06-.05-.08-.14-.05-.09.03-.17.17-.19.32-.02.14-.12.26-.22.26-.23,0-.18.51.06.58.1.03.14,0,.08-.08-.05-.07-.03-.14.04-.14s.13.08.13.17c0,.14.08.14.48.03.27-.08.55-.21.63-.29h0ZM29.63,37.43c-.12-.2.14-.26.3-.07.18.22.44.23.56.04.05-.08.03-.11-.04-.07-.15.09-.62-.42-.55-.62.03-.08-.01-.15-.08-.15s-.13.08-.13.18-.04.18-.09.18-.1.14-.11.3.03.3.1.3.08-.05.05-.11h0ZM12.61,37.2c.03-.05.09-.41.13-.81.04-.39.14-.86.24-1.05.16-.33.14-.48-.06-.48-.05,0-.06.09-.02.21.07.18.05.19-.13.05-.17-.14-.21-.14-.21,0-.05.82-.11,1.21-.28,1.66-.18.49-.18.52.04.52.13,0,.26-.04.29-.1h0ZM34.87,36.96c.06-.18-.29-.21-.39-.03-.04.07-.18.12-.32.12s-.21-.05-.17-.12c.04-.07.02-.12-.05-.12-.13,0-.18.27-.07.39.12.12.95-.08,1-.23h0ZM14.39,36.94c0-.07.07-.09.17-.05.09.04.2-.02.24-.13.04-.11.02-.16-.03-.13-.06.04-.13,0-.16-.09-.04-.11-.12-.1-.29.06-.15.13-.35.18-.53.14-.29-.06-.29-.06-.06.13.26.21.67.26.67.07h0ZM22.93,36.98c-.08-.03-.11-.16-.08-.28.07-.27-.15-.44-.29-.22-.19.31-.02.56.38.56.07,0,.06-.03-.02-.06h0ZM9.98,36.75c.33-.11.36-.3.04-.3-.13,0-.26.09-.31.2-.04.11-.11.17-.15.12-.04-.04,0-.16.07-.25s.12-.23.08-.29c-.04-.06.04-.14.17-.18.17-.04.25,0,.25.14,0,.13.03.15.07.05.09-.23-.19-.51-.49-.47-.17.03-.28.16-.34.39-.04.19-.12.44-.16.54-.09.2.23.23.75.06h0ZM18.52,36.58c.29-.12.29-.12.03-.13-.16,0-.27-.08-.27-.19,0-.1-.05-.18-.11-.18s-.1.19-.1.42.04.37.08.31c.04-.06.21-.17.37-.23h0ZM30.94,36.37l-.19-.3-.15.28c-.19.36-.14.44.23.37.29-.05.29-.07.11-.35ZM32.48,36.51c.08-.1.1-.18.05-.18s.01-.1.16-.22c.17-.14.23-.28.16-.38-.07-.12-.14-.1-.26.1-.09.14-.27.26-.41.27-.24,0-.24.01,0,.1.16.06.19.12.09.18-.17.1-.19.32-.04.32.06,0,.17-.08.26-.18h0ZM28.71,36.34c0-.16-.08-.23-.24-.22-.28.02-.3.1-.1.31s.34.18.34-.09ZM34.89,36.38s-.07-.15-.21-.28-.28-.2-.32-.13-.02.12.06.12c.2,0,.15.21-.07.3-.11.04-.25,0-.3-.08-.06-.09-.1-.1-.1-.02,0,.23.16.3.54.22.2-.04.39-.09.41-.12h0ZM4.19,35.96c0-.08-.29-.24-.44-.24-.03,0-.05.08-.05.17s-.06.19-.14.22-.1.11-.05.19c.07.11.16.09.39-.05.16-.11.3-.24.3-.29ZM20.58,36.27c.12-.15.09-.2-.18-.31-.36-.14-.58-.05-.31.12.09.06.13.16.08.24-.13.2.24.16.41-.05ZM7.83,36.21c0-.17.33-.16.39.02.06.19.57-.13.64-.41.03-.12.09-.32.13-.46.1-.34-.12-.3-.31.06-.1.18-.26.3-.41.3q-.25,0,0-.11l.24-.1h-.24c-.13-.01-.31.03-.39.08-.2.13-.35.76-.17.76.07,0,.14-.05.14-.12h0ZM6.73,36.03c.08-.1.21-.15.29-.1.09.05.09.02,0-.08-.11-.12-.18-.13-.32-.02-.22.18-.62.05-.46-.15.07-.09.05-.22-.05-.37-.2-.28-.1-.51.14-.31.17.14.18.13.22-.25,0-.07-.02-.11-.06-.09s-.17-.05-.3-.15c-.13-.1-.18-.12-.13-.03.06.1.01.16-.13.17-.36.02-.58-.03-.62-.15-.09-.23-.26-.1-.26.2,0,.38.29.51.55.25.24-.24.26-.24.26.02,0,.27-.17.39-.63.41-.29.02-.31.03-.09.07.16.03.24.11.19.18-.05.09.01.11.19.06.2-.05.29-.01.34.16.03.13.18.25.32.28.14.03.3.06.34.07.04,0,.14-.07.23-.16h0ZM21.79,35.84c.32,0,.61-.13.61-.26,0-.06-.11-.08-.24-.04-.3.09-.76-.04-.66-.19.04-.06.01-.11-.06-.11-.08,0-.1.12-.06.3.07.28.05.3-.37.24-.28-.04-.42-.01-.37.07.04.07.21.12.37.12s.3.07.3.15c0,.08.06.06.13-.06.07-.12.23-.21.35-.21h0ZM23.08,36.02c-.04-.11,0-.18.11-.18.1,0,.18-.08.18-.18,0-.26-.24-.23-.5.08-.24.28-.21.47.09.47.12,0,.16-.07.12-.18h0ZM28.77,35.85c.04-.06.16-.08.28-.04.18.07.18.05-.02-.16-.14-.15-.25-.18-.28-.1-.02.08-.16.11-.3.07-.14-.04-.3,0-.36.1-.08.12-.11.13-.11.02,0-.08-.06-.15-.14-.15-.09,0-.09.06.02.18.17.2.8.25.91.07h0ZM33.59,35.81c.08.08.23.15.34.15.14,0,.13-.04-.05-.14-.13-.08-.28-.2-.33-.27-.09-.14-.33.12-.33.35,0,.07.05.04.12-.06.09-.14.14-.15.27-.03h0ZM17.47,35.69c-.03-.05-.16-.15-.28-.21-.17-.09-.23-.07-.28.09-.04.16.02.21.28.21.18,0,.31-.04.28-.09ZM18.76,35.54c0-.18-.17-.49-.43-.76-.41-.44-.43-.44-.6-.22-.1.13-.14.28-.11.35.04.07.12.05.18-.05.08-.12.11-.12.11-.01,0,.08.06.15.13.15s.09-.05.05-.12c-.12-.18.05-.14.26.06.12.12.16.3.12.47-.04.16-.04.32,0,.36.16.16.28.07.28-.23h0ZM34.99,35.59c-.02-.33-.42-.48-.95-.35-.34.08-.36.1-.11.11.24.01.27.04.12.13-.13.09-.07.1.21.05.3-.06.41-.03.47.12.11.28.28.24.26-.06h0ZM24.22,35.6c-.3-.2.1-.38.66-.29.46.07.47.07.26-.14-.16-.16-.2-.34-.15-.7.04-.27.02-.43-.04-.37-.06.06-.12.3-.14.55-.03.42-.04.44-.38.34-.21-.06-.47-.05-.67.04-.32.13-.32.14-.05.18.32.06.37.27.06.28-.18,0-.18.02-.03.12.1.07.29.12.42.12.2,0,.21-.02.06-.12h0ZM29.93,35.61c0-.16-.31-.39-.41-.3-.17.17-.07.4.16.4.13,0,.24-.05.24-.11h0ZM4.03,35.29s-.27.02-.57.05l-.55.07.48.07c.27.04.52.01.57-.05.05-.07.07-.13.06-.13ZM7.63,35.3c.12.04.2.02.2-.06s-.08-.14-.18-.14-.18-.08-.18-.18c0-.3-.21-.21-.27.12-.06.33.03.51.15.3.04-.07.17-.09.28-.05h0ZM28.78,35.16c.57.03.67,0,.67-.19,0-.23-.14-.29-.29-.13-.05.05-.25.09-.44.09s-.35-.04-.35-.09.09-.09.19-.09.22-.11.26-.24c.03-.13.14-.24.23-.24.19,0,.2-.02.09-.3-.06-.15-.11-.16-.24-.06-.09.08-.17.22-.17.31s-.05.14-.12.1c-.07-.04-.09,0-.05.12.04.1.01.19-.06.19s-.14-.05-.14-.11c0-.23-.35-.23-.57.01-.22.25-.22.25.05.11.39-.21.53.17.16.43-.14.1-.23.24-.18.31.05.08.12.06.19-.07.08-.15.27-.18.77-.16h0ZM32.64,35.15s0-.21-.1-.36c-.13-.2-.14-.28-.04-.28.12,0,.12-.03,0-.14-.08-.08-.16-.12-.18-.09-.28.46-.44.82-.37.89.1.1.58.1.69,0h0ZM9.35,34.86c-.09-.23-.67-.5-.67-.31,0,.27.2.45.4.37.12-.05.2-.02.2.08,0,.09.03.13.06.09.04-.04.03-.14,0-.23ZM33.71,34.73c-.06-.38-.13-.4-.74-.17-.24.09-.36.19-.28.23.07.05.27.03.44-.03.33-.13.46-.07.37.16-.03.08.02.15.11.15.11,0,.15-.11.11-.35h0ZM13.41,34.62c-.1-.06-.13-.12-.07-.12s.01-.11-.11-.25c-.26-.29-.41-.31-.5-.06-.07.19.24.59.36.47.04-.04.11.02.15.14.06.15.12.17.21.07.1-.1.09-.16-.05-.25h0ZM15.07,34.68c.05-.18.02-.37-.07-.46-.11-.11-.13-.07-.06.19.07.26.04.33-.12.33-.11,0-.17.05-.13.12.13.21.3.13.38-.19h0ZM20.26,34.53c-.27-.06-.19-.26.11-.27.27,0,.27,0,.03-.2-.18-.14-.19-.18-.04-.13.11.04.3,0,.42-.1.12-.09.19-.17.14-.17-.04,0,0-.25.09-.56.18-.6.05-1.02-.31-1.03-.15,0-.15-.02-.02-.11.09-.06.15-.16.12-.24-.03-.08-.11-.09-.22-.02-.14.09-.15.17-.01.49.13.31.13.41,0,.48-.11.07-.12.12-.02.18.17.1.18.68.01.68-.07,0-.12-.05-.12-.12s-.14-.12-.3-.12c-.22,0-.3.07-.3.24,0,.15-.08.25-.21.25-.17,0-.16.04.06.14.28.14.37.34.14.34-.07,0,0,.16.15.35.23.28.3.31.36.15.04-.11,0-.21-.09-.23h0ZM34.95,34.69c-.03-.09-.18-.18-.33-.21-.24-.05-.26-.02-.15.21.13.28.59.28.48,0h0ZM23.47,34.66c.11.11.14.07.14-.14s.03-.25.16-.15c.18.15.32.07.32-.19,0-.09-.13-.16-.31-.16s-.28-.05-.24-.11.02-.15-.05-.18c-.07-.04-.09-.14-.06-.22.03-.08-.08-.31-.25-.5-.22-.26-.3-.3-.3-.15,0,.11-.05.2-.12.2s-.09.08-.05.18c.04.1.15.18.24.18s.17.06.17.13c0,.08-.08.09-.21.02-.27-.14-.52-.05-.52.17,0,.09-.08.17-.18.17-.11,0-.15.07-.11.18.04.1,0,.18-.07.18s-.11.05-.07.12c.12.19.55.14.55-.07,0-.1.08-.22.18-.25s.15-.12.12-.18c-.04-.06.06-.11.22-.11.2,0,.28.07.28.24,0,.27-.13.32-.24.09-.04-.08-.05-.03-.02.12.03.15,0,.27-.07.27s-.08.06-.04.13c.05.09.13.09.23,0,.1-.09.19-.08.29.02h0ZM30.17,34.38c0-.07.06-.09.14-.04.08.05.21-.01.3-.14.19-.26.77-.33.77-.09s.32.19.41-.04c.11-.29.09-.32-.17-.23-.13.04-.24.03-.24-.03,0-.13-.36-.12-.58.02-.25.15-.6-.03-.67-.35-.05-.27.03-.35.3-.32.12.02.7-.58.7-.71,0-.17-.39,0-.71.33-.16.16-.37.28-.47.28-.11,0-.15.07-.11.18.04.1.02.18-.05.18s-.12-.11-.12-.24-.07-.24-.16-.24c-.11,0-.15.1-.11.3.03.17.11.3.17.3s.1.09.08.21c-.02.14.04.21.18.2.12,0,.21.03.21.09s-.09.11-.2.11c-.16,0-.17.03-.05.18.18.21.37.24.37.05h0ZM4.92,33.99c0-.07-.09-.09-.2-.05-.12.05-.29-.03-.44-.2-.19-.22-.23-.23-.17-.05.04.12.03.32-.04.44-.11.2-.08.21.37.1.27-.07.48-.18.48-.24h0ZM16.01,34c-.32-.13-.43-.12-.35.02.04.07,0,.13-.08.13s-.05.05.08.11c.14.06.31.05.41-.03.13-.11.12-.15-.06-.22h0ZM33.7,33.89c.3-.28.33-.36.17-.36-.12,0-.28.09-.37.21s-.2.17-.25.12c-.05-.05-.03-.16.05-.24.23-.23.17-.34-.19-.34-.23,0-.28.03-.17.11.13.09.12.16-.09.36-.19.19-.21.26-.08.26.12,0,.15.07.1.2-.11.3.35.11.82-.32h0ZM5.61,33.71c.17-.12.29-.14.34-.06.14.22.33.13.27-.12-.04-.16,0-.24.12-.24.1,0,.21.11.25.24.08.31.28.32.28.01,0-.13-.09-.26-.19-.3-.11-.04-.16-.15-.13-.25.04-.11,0-.18-.11-.18-.1,0-.21-.13-.25-.29-.06-.24-.15-.29-.49-.29-.23,0-.41.05-.41.11s.08.11.18.11c.22,0,.24.2.03.29-.08.04-.03.04.12,0,.22-.05.26-.03.19.14-.06.16-.04.18.08.11s.14-.05.08.11c-.05.12-.08.23-.08.26s-.1.05-.22.05-.28.07-.37.15c-.11.11-.15.1-.15-.06,0-.11.06-.21.13-.21s.09-.05.05-.12c-.11-.18-.39-.15-.46.05-.07.17.22.68.38.68.05,0,.21-.08.35-.18h0ZM28.78,33.69c.14-.34.17-.75.05-.83-.06-.04-.23,0-.37.07-.2.11-.23.16-.1.24.09.06.21.07.26.04.05-.03.1-.01.1.05s-.14.18-.31.27c-.22.12-.26.19-.15.26.25.16.42.12.52-.11h0ZM16.93,33.67c0-.06-.11-.14-.24-.17-.13-.04-.24-.01-.24.05s-.18.08-.42.04c-.28-.05-.42-.03-.42.06,0,.08.26.14.67.14.37,0,.67-.05.67-.11h0ZM15.75,33.17c-.04-.17,0-.24.13-.24.24,0,.54-.51.34-.58-.08-.02-.14-.16-.14-.29,0-.18.06-.23.23-.19.42.11.56-.11.19-.31l-.34-.18.28-.09c.25-.08.26-.1.08-.2-.16-.09-.17-.17-.08-.35.07-.13.2-.2.29-.17.26.1.21-.54-.06-.69-.15-.08-.23-.08-.23,0,0,.07-.07.09-.17.06-.1-.04-.19.04-.23.18-.04.15-.02.22.06.17.08-.05.09.06.04.32-.05.22-.1.46-.11.53-.01.07-.09.26-.18.42-.13.23-.12.32,0,.48.14.17.13.18-.02.1-.11-.05-.09-.02.03.08.12.09.21.27.21.39,0,.21-.01.21-.23,0-.23-.21-.47-.08-.32.17.04.07.02.12-.06.12-.09,0-.1.07,0,.24.07.13.18.24.24.24s.08-.11.04-.24h0ZM7.31,32.99c.02-.25-.03-.3-.27-.3h-.29l.53.6s.02-.14.03-.3h0ZM20.58,33.04c0-.07-.05-.1-.11-.06-.06.04-.15-.04-.19-.18-.09-.28-.43-.28-.52,0-.05.16-.04.16.16,0,.16-.13.2-.14.13-.02-.06.1-.04.21.07.27.23.15.47.14.47-.02h0ZM22.12,32.98c.09-.24-.09-.44-.3-.31-.16.1-.07.5.11.5.06,0,.14-.09.18-.19ZM33.69,32.92c.14-.08.13-.1-.08-.11-.35,0-.65.12-.65.26,0,.12.39.04.73-.15ZM17.87,32.9c.14-.22.16-.45.04-.52-.06-.04-.07-.14-.04-.24.04-.1,0-.18-.07-.18s-.14.1-.14.23-.06.25-.14.28c-.09.03-.07.11.06.24.15.15.16.21.05.26-.11.05-.11.06,0,.07.08,0,.19-.06.24-.14h0ZM11.71,32.48s-.09-.24-.19-.46c-.17-.37-.66-.67-.66-.41,0,.06-.08.11-.18.11s-.18.05-.18.1.17.07.38.05c.31-.05.37-.02.31.13-.04.1-.03.22.01.27.05.05.09.13.1.19,0,.06.02.14.03.17.02.07.38-.06.38-.14h0ZM26.12,32.59c.18-.12.23-.4.11-.66-.15-.33-.41-.12-.41.33,0,.43.05.48.3.32ZM32.67,32.56c.09,0,.17-.06.17-.13s-.1-.1-.23-.06c-.35.11-.85-.13-.81-.38.02-.12,0-.15-.02-.06-.03.09-.15.13-.29.08-.13-.04-.23-.02-.23.05s.19.18.42.26c.23.08.42.2.42.27s.09.09.19.05c.11-.04.27-.07.37-.07h0ZM7.13,32.29c-.06-.22-.51-.3-.51-.09,0,.07-.08.09-.18.05-.12-.05-.16-.02-.12.1.04.11.23.17.47.16.32,0,.39-.05.35-.22h0ZM13.53,32.15c-.07-.07-.02-.21.1-.35.2-.22.2-.23-.12-.08-.37.17-.4.24-.18.45.11.11.11.15,0,.15-.08,0-.12.05-.08.12.05.08.14.07.24-.03.1-.09.12-.2.06-.26h0ZM22.64,32.44c0-.07.08-.12.18-.12s.18-.05.18-.12-.09-.08-.19-.04c-.15.06-.18,0-.15-.28.03-.3,0-.35-.2-.31-.37.06-.43.27-.21.65.2.34.39.45.39.22h0ZM32.48,31.78c0-.34-.19-.5-.29-.25-.04.1-.01.21.06.25s.09.16.06.25c-.04.1-.02.14.05.1.07-.04.12-.21.12-.36h0ZM18.17,31.68c-.14-.22-.21-.45-.16-.52.1-.14.42-.16.51-.03.04.05.13-.02.21-.15.13-.21.12-.24-.09-.24-.16,0-.22-.06-.17-.18.04-.1,0-.18-.07-.18s-.14.07-.14.15c0,.11-.03.11-.15,0-.18-.18-.34-.19-.34-.02,0,.07.12.18.27.23.26.11.26.11-.06.12-.28,0-.33.06-.33.32,0,.17.08.34.18.38.1.04.18.14.18.23,0,.13.13.24.34.29.02,0-.07-.17-.21-.39h0ZM6.05,31.77c-.05-.14-.01-.16.16-.11.19.06.19.05.04-.06-.26-.19-.49-.16-.41.04.04.11-.03.19-.22.23-.22.04-.19.06.11.07s.37-.02.32-.17h0ZM19.14,31.71c.19,0,.34-.05.34-.12s-.05-.12-.12-.12c-.23,0-.12-.18.19-.33.26-.12.3-.12.25.03-.04.1,0,.18.08.18s.04.06-.09.11c-.19.08-.2.11-.04.11.11,0,.29.04.39.08.27.1.25-.39-.02-.55-.19-.11-.18-.12.06-.13.32,0,.34-.11.09-.44-.16-.21-.18-.22-.18-.02,0,.22-.25.31-.25.09,0-.07-.06-.12-.13-.12s-.09.05-.05.12-.05.12-.19.12c-.21,0-.24.03-.13.17.11.13.06.2-.23.32-.2.08-.37.2-.37.26s-.08.11-.18.11c-.11,0-.15.07-.11.19.05.14.11.15.2.06.07-.07.28-.13.47-.13h0ZM21.36,31.6c.04-.06.14-.09.23-.05.16.06.36-.34.32-.65,0-.08.04-.15.11-.15s.13-.05.13-.1-.13-.08-.29-.05c-.22.04-.31,0-.39-.23-.05-.16-.09-.34-.07-.41.01-.07-.05-.02-.15.1-.11.14-.2.17-.25.09-.12-.19-.31-.16-.31.07,0,.11.12.3.27.43l.27.24-.36-.08c-.24-.05-.28,0-.13.17.22.24.22.25,0,.25s-.21.01.01.23c.26.26.48.31.6.13h0ZM29.81,31.59c0-.07-.05-.12-.12-.12s-.12-.05-.12-.12.09-.12.19-.12.15-.06.11-.13c-.12-.2-.47.19-.38.43.08.21.32.26.32.07h0ZM31.61,31.55c.11-.13.08-.18-.12-.23-.14-.04-.22-.12-.18-.19s-.03-.18-.17-.25c-.25-.13-.36.03-.12.18.07.04.1.21.07.37-.04.22,0,.3.17.3.12,0,.28-.07.36-.17h0ZM22.85,31.11c.4-.24.49-.41.29-.54-.06-.04-.14.02-.18.12-.04.1-.14.18-.23.18s-.23.11-.31.24c-.19.31-.07.31.43,0ZM33.45,31.21c0-.15-.72-.18-.78-.03-.04.1.07.14.36.13.23-.01.42-.06.42-.1ZM8.13,30.85c.07-.07.02-.11-.12-.11-.17,0-.19-.03-.08-.1.12-.07.1-.16-.09-.38-.19-.21-.21-.32-.11-.45.1-.12.1-.16,0-.16-.14,0-.19.19-.13.42.09.34.08.79-.02.79-.06,0-.11.06-.11.13,0,.14.47.04.66-.14h0ZM30.55,30.74c.16-.13.22-.24.14-.24-.17,0-.2-.47-.05-.71.06-.09.15-.16.21-.15.17.02.15-.46-.02-.6-.11-.09-.17-.07-.23.07-.04.11-.05.25,0,.31s.02.11-.04.11-.17.14-.25.3c-.1.21-.2.28-.35.22-.17-.06-.19-.03-.11.15.05.13.12.36.16.51.07.34.16.34.53.03h0ZM24.23,30.61c-.3-.24-.53-.21-.42.06.03.09.21.16.38.16h.32l-.28-.23h0ZM28.84,30.47s0-.23,0-.39c0-.18-.07-.3-.17-.3-.09,0-.16.09-.15.21.01.13-.06.21-.2.2-.12,0-.21.04-.21.11s.14.09.31.06c.24-.05.3-.02.24.12-.04.1,0,.16.06.13s.13-.08.12-.13h0ZM32.23,30.38c0-.13-.04-.25-.09-.25l-.37-.04c-.35-.04-.28.22.08.27.15.02.23.09.2.15s-.01.11.06.11.13-.11.13-.24h0ZM9.5,30.14c.01-.15-.06-.24-.18-.24-.11,0-.16.04-.12.08s.02.15-.06.24c-.11.13-.08.16.1.16.14,0,.24-.09.25-.24h0ZM15.78,29.98c-.05-.43-.05-.45-.19-.45-.07,0-.09.06-.05.14.05.07,0,.18-.08.24-.14.09-.14.11,0,.11.09,0,.14.08.1.18-.04.11,0,.15.09.12.09-.03.15-.18.13-.33h0ZM21.91,30.19s-.06-.19-.14-.33c-.14-.26-.13-.26.1-.05.13.12.3.21.38.21.23,0,.16-.38-.08-.44-.17-.05-.21-.16-.18-.52.05-.6-.25-.76-.43-.24-.09.25-.18.33-.31.28-.1-.04-.19-.02-.19.05s.13.15.29.19c.22.05.28.14.23.32-.08.29.03.61.2.61.07,0,.13-.03.13-.07h0ZM10.19,29.8c-.02-.12-.05-.28-.05-.36s-.06-.15-.13-.15c-.18,0-.15.58.03.65.08.03.16.07.17.07.01,0,0-.09-.02-.2ZM18.03,29.64c0-.17.12-.29.36-.38.2-.07.33-.18.3-.24-.04-.07-.16-.06-.3.01-.12.07-.33.12-.45.11-.2-.01-.2-.02,0-.07.22-.06.3-.28.1-.28-.06,0-.2-.03-.31-.08-.17-.07-.19,0-.14.46.03.29.07.57.07.62.02.22.37.07.37-.16h0ZM19.9,29.73c-.09-.23.41-.34.73-.17q.25.13.02-.13c-.15-.17-.37-.26-.65-.26-.52,0-.48-.3.04-.32.62-.03.78-.15.63-.48-.16-.36-.39-.39-.27-.04.07.23.04.25-.44.21l-.53-.04v.46c0,.28.08.56.21.7.25.28.35.3.26.07h0ZM6.1,29.64c-.12-.07-.18-.18-.14-.24s0-.12-.11-.12c-.19,0-.35.29-.23.41.04.04.21.07.39.07.28,0,.29-.02.1-.13ZM7.22,29.59c.11.07.12.02.07-.17-.05-.16-.03-.26.05-.26.07,0,.1-.06.06-.13-.05-.09-.13-.08-.25.02-.09.08-.18.09-.18.04,0-.06-.06.02-.12.18-.13.32-.02.63.13.38.05-.08.16-.11.24-.06h0ZM27.8,29.45c.11-.11.18-.26.15-.33-.06-.17-.32-.18-.34-.02,0,.07-.06.22-.13.33-.15.27.05.28.32.02ZM30.17,29.34c0-.17-.3-.33-.41-.21-.04.04-.07.17-.07.28,0,.15.07.19.24.15.13-.04.24-.13.24-.22h0ZM22.68,28.89s-.16-.15-.29-.22c-.19-.1-.24-.09-.24.07,0,.14.07.17.2.12.16-.06.17-.04.06.09-.1.12-.1.2,0,.31.11.12.16.1.23-.07.04-.12.05-.26.03-.31h0ZM6.02,29.06c.14-.14.23-.73.13-.79-.13-.08-.03-.8.12-.8.06,0,.11-.08.11-.18s.1-.18.22-.18.32-.08.46-.18c.23-.17.22-.17-.06-.1-.2.05-.27.03-.21-.07.05-.09,0-.14-.12-.14-.12,0-.17.04-.13.08.1.1-.28.4-.51.4-.13,0-.13-.05.03-.22.18-.21.18-.24.01-.38-.14-.12-.23-.12-.33-.02s-.09.14.07.14c.27,0,.26.2,0,.36-.18.1-.18.14-.05.23.14.09.14.16-.03.39-.14.21-.16.32-.06.44.17.2-.04.21-.24,0-.12-.12-.17-.12-.27.03-.16.26-.14.43.06.61.22.18.25,0,.04-.22-.11-.11-.1-.15.07-.15.12,0,.25.11.28.24.03.13.11.21.17.18.06-.04.11,0,.11.06s-.16.13-.37.13c-.37,0-.49.17-.21.28.16.07.59-.02.71-.14h0ZM33.08,29.05c0-.06-.14-.26-.3-.44l-.3-.33v.32c0,.23.05.3.18.25.12-.05.18,0,.18.13,0,.11.05.2.12.2s.12-.05.12-.12h0ZM19.24,28.89c0-.19-.18-.48-.28-.47-.04,0-.17,0-.29,0-.18,0-.18-.02.03-.11.13-.06.19-.11.12-.12-.07,0-.01-.07.12-.12.24-.1.23-.11-.03-.19-.32-.1-.33-.16-.09-.5.16-.24.16-.26-.09-.33-.46-.12-.55-.09-.49.17.06.25.21.32.31.15.03-.05.02,0,0,.09s-.07.3-.07.46c0,.17-.09.27-.22.27-.11,0-.24.05-.28.12s0,.12.12.12.19.05.19.12.14.12.3.12c.19,0,.3.07.3.18,0,.1.08.18.18.18s.18-.07.18-.15h0ZM24.19,28.84c.03-.08-.07-.2-.2-.28-.22-.12-.25-.1-.25.18,0,.23.06.31.2.28.11-.02.22-.1.25-.18ZM30.23,28.73l.36-.18-.46.07c-.32.05-.51.01-.65-.12-.21-.21-.66-.26-.66-.07,0,.07.11.18.24.25.18.1.24.09.25-.03,0-.09.05-.07.13.06.15.25.3.26.78.02h0ZM14.44,28.36c.27-.1.24-.29-.04-.29-.25,0-.41.16-.29.29q.09.09.33,0h0ZM21.46,27.78c-.03-.16-.16-.32-.3-.36-.15-.04-.21-.12-.15-.21.06-.09.04-.12-.04-.07-.07.05-.16.01-.19-.07-.04-.09-.07-.06-.07.07,0,.14-.07.19-.16.13-.08-.05-.04.03.09.17.13.14.31.34.4.44.25.29.49.23.42-.1h0ZM33.39,27.5c-.06-.09-.55.14-.6.29-.04.1-.02.15.03.12.05-.03.18,0,.27.05.13.08.19.04.25-.16.04-.15.06-.28.06-.3h0ZM19.79,27.86c.16-.11.2-.64.05-.64-.06,0-.12.11-.12.24s-.05.24-.12.24-.12.05-.12.12c0,.14.13.15.31.03h0ZM31.89,27.13c-.03-.15-.12-.27-.2-.27-.12,0-.15.51-.07,1.09,0,.03.08-.08.16-.24s.13-.43.11-.58ZM33.82,27.17c-.11-.06-.21-.1-.24-.08s-.08-.02-.12-.09c-.05-.08-.14-.08-.26-.01-.15.1-.15.11.02.12.25,0,.71.49.46.49-.14,0-.14.02.01.12.14.09.2.05.25-.15.05-.17,0-.31-.12-.38h0ZM28.39,27.25c.11-.18-.25-.52-.46-.44-.19.07-.19.09,0,.31.22.24.36.28.45.14ZM34.1,26.71c.05-.26.01-.32-.17-.31-.23.02-.26.25-.07.55.13.2.17.16.24-.25h0ZM20.15,26.58c-.12-.59-.35-.74-.26-.18.08.5-.06.58-.42.25-.21-.19-.21-.21-.01-.35.2-.14.2-.17-.02-.41-.27-.3-.44-.32-.44-.07,0,.1-.08.18-.18.18s-.18.06-.18.14.09.1.2.06c.14-.05.18-.02.13.1-.11.29.42.65.99.67.26,0,.28-.03.2-.39h0ZM22.22,26.85c.04-.06.11-.09.16-.06.05.03.09-.05.09-.19,0-.21-.02-.21-.13-.06-.12.16-.15.16-.28-.02-.11-.16-.13-.16-.08-.02.04.12-.05.23-.28.31l-.34.12.39.02c.22,0,.42-.04.46-.1h0ZM3.9,26.58c-.07-.12-.18-.21-.23-.21s-.07.05-.02.12c.04.07,0,.12-.12.12s-.19.04-.19.1.16.09.35.09c.3,0,.33-.03.21-.22h0ZM20.79,26.63c.09-.06.14-.28.13-.54-.04-.54-.22-.6-.22-.07,0,.34-.02.36-.21.21-.18-.15-.19-.14-.12.06.05.12.08.27.08.33,0,.14.13.14.34,0h0ZM16.66,25.89c.08,0,.15-.06.15-.14s-.08-.1-.19-.06c-.11.04-.22,0-.25-.11-.04-.1-.12-.18-.18-.18s-.08.05-.04.12c.04.07,0,.09-.12.05-.21-.08-.23-.04-.11.26.05.14.16.18.33.13.14-.04.32-.07.41-.07ZM5.52,25.56c0-.1-.14-.16-.36-.16-.2,0-.39-.06-.44-.14-.06-.09-.11-.09-.18.03-.15.25.06.41.55.42.28,0,.44-.05.44-.15h0ZM21.91,25.02c0-.13-.05-.23-.12-.23s-.12.05-.12.12-.07.12-.15.12-.15.13-.15.29c0,.27.02.28.27.11.15-.1.27-.28.27-.41ZM33.39,25.28c.04-.13.14-.24.21-.24.08,0,.07-.07-.02-.18-.08-.1-.11-.23-.07-.3s.02-.13-.05-.13-.13.16-.13.36-.05.39-.12.43c-.15.09-.16.3,0,.3.06,0,.15-.11.19-.24h0ZM31.88,25.22c.08.05.19.01.25-.08.17-.28.12-.39-.09-.21-.16.14-.21.14-.25,0-.04-.12-.1-.1-.22.06-.22.29-.22.47,0,.28.1-.08.24-.11.32-.06h0ZM20.48,24.63c.03-.23.05-.23.25-.03.18.18.21.19.21.02,0-.11.05-.19.12-.19s.08-.09.04-.19c-.05-.12-.1-.14-.15-.06s-.16.04-.3-.12c-.26-.31-.24-.33.42-.46.54-.11.45-.14-.46-.17-.44-.02-.49,0-.39.18.12.21.03.59-.14.59-.05,0-.07.12-.03.26.06.24.03.25-.33.18-.22-.04-.48-.08-.57-.08s-.14-.05-.1-.12.02-.12-.05-.12-.13.05-.13.12-.08.12-.18.12c-.17,0-.23-.13-.19-.44.02-.21-.4-.27-.58-.09-.13.14-.12.18.03.24.1.04.16.12.12.18-.04.06,0,.12.06.12s.2.02.28.03c.08,0,.14.11.14.23s.03.21.09.21.11-.08.11-.18c0-.12.12-.18.32-.18.27,0,.3.03.17.18-.09.12-.1.18-.02.18.07,0,.16-.05.21-.12.04-.07.16-.12.26-.12.14,0,.16.04.05.16-.22.27,0,.33.36.12.19-.11.36-.31.38-.44h0ZM16.88,24.92c-.04-.06,0-.13.07-.16.08-.02.14-.19.14-.37s.05-.33.11-.33.11-.05.11-.12c0-.15-.34-.03-.71.26-.16.12-.34.19-.39.15-.06-.04-.11.02-.11.12,0,.12.07.16.19.11.13-.05.21.01.26.18.04.14.15.26.24.26s.14-.05.11-.11h0ZM23.68,24.72c0-.06.08-.24.16-.4l.16-.29-.31.23c-.32.23-.45.71-.17.62.08-.03.15-.1.16-.16h0ZM29.08,24.25c.15-.4.1-.48-.51-.86-.62-.39-.74-.29-.22.2.38.35.55.91.33,1.04-.05.03-.09.12-.09.18,0,.2.35-.21.49-.56h0ZM30.05,24.44c0-.18-.37-.49-.58-.49-.11,0-.15.04-.1.09.05.05.14.09.2.09s.11.05.1.11c0,.06.06.15.15.21.21.13.22.13.22,0h0ZM13.6,24.31c-.04-.07-.02-.23.06-.36.09-.16.09-.25,0-.25-.07,0-.13.05-.13.11s-.12.09-.27.06c-.15-.03-.21-.02-.12.02.08.04.15.18.15.3s.08.23.19.23.16-.05.12-.12h0ZM9.6,24.12c-.04-.11-.07-.27-.07-.36s-.06-.17-.14-.17-.1.08-.07.18c.05.13-.01.19-.2.2-.21.01-.22.03-.06.07.12.03.21.11.21.17s.09.11.2.11c.13,0,.17-.07.12-.19h0ZM17.43,23.46c-.07-.05-.1-.18-.06-.29.04-.12.02-.2-.06-.2s-.14.1-.14.22-.07.28-.15.37c-.11.11-.1.15.07.15.12,0,.25.09.3.21.07.18.09.17.13-.08.02-.16-.02-.33-.09-.37h0ZM19,23.88c0-.1-.07-.19-.15-.19-.08,0,.03-.07.26-.13.31-.09.44-.08.51.04.07.11.1.08.1-.11,0-.15.04-.27.09-.27s.1-.14.11-.31c.01-.23-.03-.29-.16-.24-.1.04-.24.07-.31.07-.08,0-.07.06.02.17.2.24-.02.34-.41.19-.28-.1-.32-.09-.29.09.02.12,0,.28-.06.37-.12.19-.02.51.16.51.07,0,.13-.08.13-.18h0ZM14.02,23.15c0-.09-.13-.15-.3-.14-.33.02-.37.08-.17.29.16.16.47.07.47-.15h0ZM27.01,23.2c0-.2-.39-.45-.57-.38-.22.08-.2.28.02.28.1,0,.18.05.18.12s.08.12.18.12.18-.06.18-.14h0ZM22.88,23.06c0-.08-.14-.22-.31-.3-.27-.12-.3-.12-.27.06.02.11.14.2.25.19s.21.03.21.09.03.11.06.11.06-.07.06-.15ZM17.06,22.66c0-.14.07-.17.24-.11.14.05.24.02.24-.06,0-.19-.4-.32-.46-.15-.03.08-.12.14-.22.14-.1,0-.14.07-.1.18.09.24.29.23.29,0h0ZM18.5,22.72c.09.14.17.15.48.02.32-.13.37-.21.35-.56-.02-.35-.07-.4-.36-.39-.33,0-.46.25-.21.4.3.18.1.37-.36.35-.4-.02-.46,0-.33.14.11.12.18.12.24.02.07-.1.12-.09.2.03ZM26.74,22.52c-.26-.07-.28-.23-.02-.33.1-.04.16-.13.12-.2-.12-.18-.3-.15-.3.06,0,.1-.05.18-.12.18s-.12.08-.12.18c0,.12.11.18.33.17.21,0,.25-.04.12-.07h0ZM20.5,22.1c-.05-.09-.08-.28-.07-.42.05-.35-.12-.42-.38-.16-.21.21-.21.23.12.53.34.32.51.35.33.05ZM28.78,22.07c.23-.23.22-.36,0-.27-.11.04-.18,0-.18-.11s-.12-.18-.3-.18c-.17,0-.3.06-.3.13,0,.18.32.48.41.39.04-.04.07-.01.07.07,0,.19.1.18.31-.03h0ZM23.25,21.86c0-.06-.06-.11-.14-.11s-.1-.08-.07-.18c.1-.25-.25-.23-.39.02-.07.13-.07.25.02.35.14.16.57.1.57-.08h0ZM32.23,21.5c0-.07-.05-.09-.11-.05-.13.08-.74-.17-.74-.3,0-.05.07-.15.16-.22.12-.1.23-.07.42.11.32.3.39.3.39.02,0-.12.07-.28.15-.37.19-.19-.05-.19-.26,0-.13.12-.14.1-.08-.1.11-.35-.17-.55-.64-.46-.45.09-.51.28-.09.25.16-.01.3.03.3.1s-.06.12-.14.12c-.16,0-.3.32-.32.7,0,.15.08.21.28.21.16,0,.33.06.37.12.09.14.3.04.3-.14h0ZM19.7,21.4c.09-.14.1-.27.03-.31-.13-.08-.62.37-.52.47.14.14.34.07.48-.17h0ZM29.44,21.09c-.16-.2-.49-.25-.49-.08,0,.11.52.38.59.31.03-.02-.02-.13-.11-.23ZM14.68,20.96c.11-.04.19-.13.19-.21,0-.09-.05-.08-.15.01-.17.17-.39.2-.29.04.04-.06-.04-.08-.18-.05-.13.03-.24.11-.24.17,0,.12.37.14.66.03h0ZM17.04,20.7c.13-.13.12-.16-.07-.16-.23,0-.52.21-.52.39,0,.12.38-.02.59-.23h0ZM20.53,20.65c.04-.06-.04-.11-.17-.11s-.27-.07-.3-.16c-.05-.12.02-.15.24-.1.27.05.3.02.22-.2-.07-.21-.03-.26.18-.26s.24-.05.18-.24c-.06-.19-.02-.24.17-.24.34,0,.41-.17.13-.34-.2-.12-.24-.11-.25.07,0,.14-.07.09-.18-.15-.09-.2-.17-.3-.17-.23,0,.07-.12.13-.27.12-.42-.02-.41.28.01.43.35.12.36.15.16.28-.12.08-.38.19-.58.24s-.3.12-.22.15c.1.04.11.14.03.35-.1.28-.07.35.16.31.05,0,.09.06.09.16,0,.18.44.13.55-.06h0ZM29.62,20.53c-.04-.06.02-.15.12-.19.1-.04.16-.12.13-.18-.09-.14-.39-.01-.47.21-.09.23.03.44.18.34.06-.04.08-.12.05-.18h0ZM5.3,20.36c0-.06-.06-.13-.13-.16s-.13.02-.13.09-.09.13-.19.13-.16.05-.12.12c.08.14.57-.02.57-.18h0ZM17,19.56c.04-.13.15-.23.24-.23.16,0,.58-.49.5-.57-.02-.02-.23.04-.47.14-.35.14-.42.23-.37.43.05.19,0,.27-.19.32-.14.04-.26.11-.26.16,0,.19.48-.03.55-.26ZM32.6,19.69c0-.13-.06-.24-.14-.24s-.1-.09-.06-.19c.11-.29-.03-.43-.29-.29-.15.08-.25.08-.3,0-.04-.07.03-.12.17-.12s.28-.05.32-.12c.05-.08-.08-.1-.36-.05-.34.05-.43.03-.43-.12,0-.1.09-.19.19-.19.11,0,.15-.06.1-.14-.06-.09-.18-.03-.38.2-.21.25-.25.37-.15.43.08.05.11.16.05.25-.05.09-.05.12,0,.07.05-.05.17-.03.26.05.09.07.16.1.16.06s.11-.02.25.05c.14.07.23.21.19.3-.07.19.02.31.25.31.09,0,.16-.11.16-.24h0ZM18.73,19.51c-.04-.21,0-.3.12-.3.11,0,.15-.07.11-.18-.04-.1.04-.29.17-.42.16-.16.18-.24.08-.24-.16,0-.6.69-.74,1.18-.06.21-.03.27.12.27s.19-.08.15-.3h0ZM28.7,18.94c.14-.18.13-.21-.04-.21-.13,0-.17.06-.12.15.07.12.05.12-.07,0-.09-.08-.23-.11-.32-.08-.09.04-.17,0-.17-.07s-.09-.14-.19-.14c-.25,0-.16.27.1.31.11.02.3.09.42.15s.23.12.23.1c0-.01.08-.12.17-.23h0ZM22.01,18.87c-.11-.02-.18-.11-.14-.2s-.02-.19-.12-.23c-.12-.05-.16-.01-.12.11.04.1,0,.18-.1.18-.09,0-.03.07.14.16.17.09.36.13.42.09.07-.04.03-.09-.08-.11h0ZM22.92,18.72c.05-.2.01-.24-.23-.21-.16.02-.28.09-.26.16.02.06.07.1.12.08.05-.02.09.02.09.09,0,.22.21.13.28-.12ZM18.79,18.11c.2-.19.23-.28.12-.39s-.14-.11-.14,0c0,.08-.16.15-.37.15s-.37.05-.37.12.08.12.18.12.18.05.18.12c0,.18.1.15.39-.12h0ZM20.68,18.08c.03-.14-.06-.19-.33-.18-.26,0-.37.07-.37.21,0,.27.65.25.71-.02ZM6.61,18.04c0-.19-.27-.54-.42-.54-.09,0-.2-.09-.24-.19-.04-.1-.13-.16-.2-.11-.15.09.47.89.7.9.08,0,.15-.02.15-.06h0ZM7.48,17.43c.21-.26.09-.29-.41-.12-.32.11-.41.19-.32.28.16.16.53.07.73-.16h0ZM21.91,17.33c0-.25-.31-.44-.62-.38-.16.03-.36.06-.44.06-.12,0-.12.06,0,.25.13.21.17.22.29.06.07-.1.27-.18.42-.17.16,0,.22.04.14.07-.08.03-.15.14-.15.23,0,.1.07.14.18.1.1-.04.18-.14.18-.22h0ZM20.09,17.4c0-.13-.35-.5-.46-.49-.05,0-.19.08-.32.18-.23.17-.22.18.08.18.18,0,.35.05.39.12.09.15.3.16.3,0ZM29.62,16.86c-.05-.18-.14-.32-.2-.32s-.09.09-.05.19.07.31.07.45c0,.18.04.22.13.13.07-.07.09-.27.05-.45h0ZM32.48,17.08c0-.25-.23-.35-.43-.18-.23.19-.23.03,0-.2.1-.1.21-.12.25-.06.08.14.55.12.55-.02,0-.05-.08-.09-.18-.09s-.18-.05-.18-.12-.2-.12-.44-.12c-.41,0-.44.02-.38.31.04.2,0,.34-.11.38-.09.04-.17.12-.17.18s.08.09.18.05c.1-.04.3-.02.46.03.32.12.46.07.46-.17h0ZM17.54,16.9c0-.14.07-.25.15-.25.12,0,.12-.02,0-.07-.08-.03-.12-.12-.08-.2s-.06,0-.21.16c-.18.19-.39.29-.56.26-.15-.02-.27.02-.27.08,0,.14.16.2.62.24.28.02.35-.02.35-.22h0ZM19.29,16.64c-.04-.07,0-.17.09-.23.12-.08.1-.11-.11-.11-.26,0-.39.33-.2.52.12.12.3-.04.21-.18ZM31.51,16.6c0-.1-.07-.18-.14-.18s-.04-.07.08-.16c.26-.19.18-.39-.18-.48-.2-.05-.24-.02-.18.13.04.11.01.23-.07.28-.1.06-.07.16.09.33.28.3.41.33.41.09h0ZM30.05,16.47c.13-.16.12-.17-.07-.1-.15.06-.19.04-.13-.06.05-.08.26-.18.48-.24.33-.09.28-.1-.35-.1-.63,0-.76.04-.95.28-.18.24-.19.28-.02.28.1,0,.19-.05.19-.12,0-.18.33-.15.51.06.19.22.16.22.34,0h0ZM29.08,15.93c0-.07-.1-.12-.22-.12s-.28-.07-.37-.15c-.11-.11-.15-.1-.15.05,0,.11.07.22.15.26.27.11.58.09.58-.04h0ZM16.45,15.75c.3-.17.3-.17-.21-.18-.49,0-.69.15-.37.28.23.09.25.09.58-.1ZM20.52,15.47c.01-.16-.07-.33-.2-.4-.25-.14-.3,0-.07.25.12.13.12.15,0,.08-.24-.14-.41.04-.24.24.22.25.49.16.52-.16h0ZM29.54,15.54c.25-.25.16-.32-.21-.18-.24.09-.31.17-.21.23.2.13.26.12.43-.05h0ZM21.48,15.25c.22-.22.26-.66.06-.66-.07,0-.09.05-.05.12s0,.12-.11.12c-.13,0-.18.1-.16.3.03.36.02.36.27.11h0ZM32.28,15.29c.08-.08.13-.22.11-.29-.02-.08.01-.18.08-.22.09-.05.07-.14-.05-.25-.19-.19-.37-.24-.27-.07.03.06-.02.1-.12.1s-.18-.05-.18-.1.05-.1.12-.1c.19,0,.14-.21-.07-.29-.21-.08-.9.23-.9.4,0,.14.36.27.51.18.07-.04.11,0,.1.09-.05.33,0,.47.19.47.1,0,.18.05.18.12,0,.16.11.15.29-.03h0ZM21.31,14.02c0-.25-.03-.28-.17-.17-.09.08-.14.25-.11.38.08.32.28.18.28-.21ZM32.23,13.86c0-.07-.09-.12-.19-.12-.15,0-.16-.05-.06-.24.14-.26.01-.33-.21-.11-.1.1-.1.2,0,.37.15.24.45.31.45.11h0ZM21.55,13.32c.06.03.13.02.17-.04.04-.06-.07-.18-.23-.27-.18-.1-.3-.27-.3-.43,0-.15-.09-.3-.21-.34s-.29-.11-.38-.15c-.11-.05-.14-.02-.08.06.05.07.03.14-.04.14s-.13.06-.13.12c0,.07.13.09.31.05.28-.07.31-.05.27.21-.03.18-.15.31-.35.37-.33.09-.32.1.1.18.16.03.38.1.48.16.12.07.21.07.24,0,.02-.06.09-.09.14-.05h0ZM18.13,12.67c.02-.17-.02-.26-.14-.26-.1,0-.21-.09-.25-.2-.11-.28.04-.39.18-.14.07.12.21.18.35.14.19-.05.21-.09.09-.22-.08-.09-.19-.13-.25-.09s-.07-.05-.02-.19c.05-.15.03-.26-.05-.26-.07,0-.13.05-.13.12,0,.2-.32,0-.48-.29-.1-.19-.23-.26-.38-.22-.23.06-.33.52-.11.52.07,0,.11.04.09.09s0,.09.03.1c.11,0,.61.47.61.56,0,.05-.09.11-.21.14-.18.05-.17.07.06.14.15.05.27.17.27.27,0,.28.3.11.34-.18h0ZM19.42,12.87s-.03-.14-.14-.24c-.14-.11-.18-.12-.12-.02.11.18.07.19-.35.03-.4-.15-.63-.03-.35.18.21.15.82.18.95.04h0ZM33.08,12.16c0-.07-.06-.12-.13-.12s-.09-.05-.05-.12,0-.12-.12-.12-.19-.06-.19-.14-.03-.11-.07-.07c-.09.09.3.7.45.7.06,0,.11-.05.11-.12h0ZM19.82,12.03c.1-.1.06-.2-.17-.38-.26-.2-.33-.21-.41-.07-.08.12-.04.18.13.21.15.02.21.1.17.21-.08.21.1.23.29.04h0ZM21.55,11.93c0-.25-.16-.5-.32-.5-.21,0-.22.2-.02.43.18.2.33.23.33.07ZM32.04,11.55c.11.09.18.02.28-.24.08-.21.09-.39.02-.43-.06-.04-.11,0-.11.1s-.14.23-.31.31c-.19.09-.28.2-.22.29.07.11.1.11.14,0,.03-.1.1-.11.2-.03h0ZM17.79,10.46c.27-.14.32-.42.06-.32-.1.04-.2-.02-.23-.14-.03-.12-.06-.06-.07.13-.01.29-.05.33-.3.26-.16-.04-.33-.01-.37.06-.11.17.6.18.91,0h0ZM19.28,9.74c-.04-.16-.16-.24-.35-.24-.39,0-.49.22-.15.36.44.18.57.15.5-.12ZM20.82,9.55c0-.19-.32-.55-.5-.55-.07,0-.09.12-.03.27.07.23.06.25-.09.12-.1-.08-.22-.11-.27-.07-.1.1.67.52.81.44.05-.03.09-.13.09-.22h0ZM17.27,9.25c.09,0,.28-.14.41-.3.13-.17.3-.3.37-.3s.04.1-.08.23c-.2.22-.2.23.01.21.34-.03.53-.24.33-.36-.09-.05-.17-.17-.17-.26s-.07-.22-.17-.3c-.13-.11-.18-.09-.24.06-.05.14-.02.18.11.13.24-.09.24.09,0,.28-.15.12-.2.11-.27-.1-.09-.25-.09-.24-.23.04-.11.23-.1.28.03.22.09-.04.17,0,.17.06s-.13.15-.29.19-.33.17-.37.29c-.07.17-.05.18.07.06.08-.08.23-.15.32-.15h0ZM32.84,8.87c0-.13-.09-.23-.2-.23-.16,0-.17.03-.04.18.13.15.12.17-.04.11-.15-.06-.18-.01-.12.18.05.2.1.23.23.12.09-.08.17-.24.17-.37h0ZM18.97,8.11c-.12-.09-.21-.22-.21-.29s-.11-.14-.24-.14c-.16,0-.22.06-.17.18.04.1.14.18.22.18s.22.08.31.18c.08.1.19.15.23.11.04-.04-.02-.14-.14-.23h0ZM32.48,7.91c0-.07.12-.18.27-.23.26-.1.26-.11.02-.12-.14,0-.31-.07-.38-.14-.1-.1-.2-.1-.36,0-.12.07-.16.13-.09.13s.17.11.2.25c.07.25.33.34.33.12h0ZM19.73,6.82c0-.07-.08-.12-.18-.12-.22,0-.24-.32-.03-.4.32-.12-.04-.23-.48-.15-.41.08-.43.1-.22.21.13.07.34.23.46.35.24.25.45.3.45.1ZM20.94,6.63c0-.11-.06-.15-.14-.1-.09.06-.12.02-.07-.12.05-.13.02-.2-.11-.2-.1,0-.16.04-.14.09s.08.19.12.3c.09.26.33.28.33.02h0ZM19,5.74c0-.06-.09-.17-.21-.24-.15-.09-.16-.12-.04-.13.1,0,0-.16-.22-.38-.22-.21-.43-.34-.47-.29s.07.21.26.37.31.29.27.29-.01.11.06.24c.14.25.37.33.37.13ZM19.48,5.13c0-.07-.08-.09-.18-.05-.1.04-.31-.07-.48-.26-.17-.18-.31-.29-.31-.23s.12.23.26.38c.26.28.71.38.71.16ZM20.21,4.94c-.3-.32-.48-.39-.48-.17,0,.07.11.16.24.2.13.03.24.11.24.17s.06.11.14.11.01-.14-.14-.3h0ZM21.06,4.52c0-.07-.07-.13-.15-.13-.11,0-.1-.03.01-.07.14-.06.14-.08,0-.17-.14-.09-.14-.13.01-.22.14-.09.11-.14-.16-.24-.21-.08-.32-.19-.28-.29.09-.22-.1-.51-.21-.33-.05.07-.01.14.08.14.13,0,.13.02,0,.1-.12.08-.09.16.16.35.18.14.27.28.21.32-.16.1-.02.68.18.68.09,0,.17-.05.17-.12h0ZM18.99,4.14c-.26-.26-.59-.31-.61-.08,0,.12-.02.12-.07,0-.07-.18-.28-.2-.28-.03,0,.19.52.35.7.21.11-.09.15-.07.15.07,0,.12.07.17.17.13.14-.05.13-.11-.06-.3h0ZM19.36,3.67c.15-.29.03-.31-.42-.07-.22.11-.27.19-.16.23.31.12.46.08.59-.16h0ZM20.19,2.83c.13-.08.12-.12-.03-.18-.11-.04-.19-.16-.19-.27s-.05-.16-.12-.12c-.18.11-.15.67.03.67.08,0,.23-.05.31-.1h0ZM24.83,27.66c0-.16.37-.57.51-.57.04,0,.1.08.13.17.05.12,0,.15-.2.1-.22-.06-.24-.04-.11.12.16.2.09.34-.17.34-.09,0-.16-.07-.16-.16ZM26.22,24.43c.04-.07.02-.12-.05-.12s-.13-.11-.13-.24.05-.24.11-.24.15.11.19.24c.04.13.13.24.19.24s.11.05.11.12-.11.12-.25.12-.22-.05-.18-.12h0ZM28.11,14.85c0-.06.08-.14.18-.18s.18-.15.18-.25.05-.18.12-.18.12-.05.12-.12-.09-.08-.2-.04c-.15.06-.14,0,.06-.18.14-.14.24-.33.22-.41-.02-.09-.02-.11.01-.06s.15.09.27.09.25.09.29.19c.11.29.1.3-.24.22-.28-.07-.3-.05-.24.22.06.23,0,.33-.24.46-.17.09-.31.21-.31.27s-.05.1-.12.1-.12-.05-.12-.11h0ZM29.29,14.42c-.19-.14-.19-.17-.02-.24.11-.04.16-.02.12.05-.1.17.1.15.28-.02.11-.11.15-.09.15.12,0,.3-.2.34-.52.09h0ZM30.13,14.01c-.28-.31-.25-.46.1-.46.17,0,.3.04.3.1s-.08.1-.18.1-.18.06-.18.13.05.09.12.05.12,0,.12.12c0,.24-.04.24-.28-.03h0ZM29.67,13.17c-.15-.19-.15-.2.06-.04.19.15.24.15.33,0,.15-.23.14-.57,0-.66-.07-.04-.12,0-.12.08,0,.1-.04.11-.09.04-.05-.07-.24-.19-.42-.27-.36-.16-.48-.48-.12-.33.49.2,1.05.32,1.25.27.12-.03.29,0,.38.05.11.07.04.11-.23.11-.22,0-.38.04-.37.09s-.01.27-.06.48c-.09.44-.33.51-.59.18h0ZM21.76,10.5c-.23-.06-.28-.23-.09-.34.07-.04.2,0,.3.11.3.3.25.36-.21.24ZM21.68,9.47c-.27-.1-.28-.13-.1-.31.17-.17.22-.17.37-.02.26.26.09.46-.28.32h0Z"/>
    </g>
  </g>
</svg>