<?xml version="1.0" encoding="UTF-8"?>
<svg id="Layer_2" data-name="Layer 2" xmlns="http://www.w3.org/2000/svg" viewBox="0 0 48 17.31">
  <defs>
    <style>
      .cls-1 {
        fill: #bdbdbd;
      }
    </style>
  </defs>
  <g id="Layer_1-2" data-name="Layer 1">
    <path class="cls-1" d="M46.39,17.31c-.89,0-1.6-.71-1.6-1.6v-6.42l-11.24,6.65c-.43.26-.95.29-1.42.11-.46-.19-.81-.58-.94-1.07l-2.74-10.16-8.76,9.44c-.31.34-.76.52-1.22.51-.46-.01-.89-.22-1.19-.58l-5.35-6.45L2.72,16.85c-.63.62-1.64.61-2.26-.02-.62-.63-.61-1.64.02-2.26L10.95,4.23c.32-.31.76-.49,1.21-.46.45.02.86.23,1.15.58l5.29,6.39L28.08.51c.39-.43.99-.61,1.56-.46.57.14,1.01.58,1.16,1.14l2.94,10.92,11.84-7c.5-.29,1.11-.3,1.61-.01.5.28.81.82.81,1.39v9.22c0,.89-.71,1.6-1.6,1.6h0Z"/>
  </g>
</svg>