<?xml version="1.0" encoding="UTF-8"?>
<svg id="Layer_2" data-name="Layer 2" xmlns="http://www.w3.org/2000/svg" viewBox="0 0 48 41.72">
  <defs>
    <style>
      .cls-1 {
        fill: #bdbdbd;
      }
    </style>
  </defs>
  <g id="Layer_1-2" data-name="Layer 1">
    <g id="_ÎÓÈ_1" data-name=" ÎÓÈ 1">
      <path class="cls-1" d="M25.92,31.67c3.46,2.74,6.91,5.49,10.37,8.23.37.29.99.16,1.4.03.29-.09.99-.38.89-.79-1.26-5.04-2.51-10.07-3.77-15.11-.15.2-.31.41-.46.61,4.4-2.59,8.79-5.17,13.19-7.75.26-.15.77-.64.23-.83-3.9-1.4-7.98-2.3-12.11-2.68l.44.43c1.89-4.29,3.32-8.78,4.27-13.37C40.46,0,39.79-.01,39.52,0c-.53.04-1.04.23-1.42.61-3.62,3.67-7.58,7-11.81,9.95.68-.1,1.36-.2,2.04-.3-2.5-3.1-4.7-6.43-6.56-9.95-.21-.39-.81-.31-1.16-.24-.34.07-1.14.29-1.2.72-.66,4.89-1.33,9.77-1.99,14.66.64-.25,1.28-.51,1.91-.76-3.91-.6-7.77-1.48-11.55-2.63-.51-.15-1.07-.04-1.53.18-.29.14-.78.44-.52.8,2.27,3.19,4.53,6.37,6.79,9.56.53-.35,1.05-.71,1.58-1.06-4.8.25-9.52,1.63-13.67,4.07-.47.27-.69.74-.02.89,4.62,1,9.36,1.45,14.09,1.37-.23-.15-.47-.3-.7-.45-1.62,3.93-3.24,7.85-4.86,11.78-.15.37.51.45.7.45.51-.01,1-.17,1.41-.47,3.41-2.39,6.49-5.24,9.15-8.45l-2.27.33c1.01,3.45,2.02,6.9,3.03,10.35.12.41.88.3,1.16.24.44-.09,1-.28,1.2-.72,1.51-3.45,3.17-6.83,4.98-10.13.25-.45-.22-.61-.62-.61-.45.01-1.32.17-1.57.62-1.87,3.41-3.59,6.89-5.16,10.45.79-.16,1.57-.32,2.36-.48-1.01-3.45-2.02-6.9-3.03-10.35-.1-.35-.75-.32-1-.27-.45.07-.97.23-1.27.6-2.57,3.1-5.54,5.83-8.84,8.14.7,0,1.41-.01,2.11-.02,1.62-3.93,3.24-7.85,4.86-11.78.15-.37-.51-.45-.7-.45-4.56.08-9.11-.37-13.56-1.33,0,.3-.01.59-.02.89.46-.27.93-.53,1.41-.78.45-.23.74-.37,1.24-.59.49-.21.99-.42,1.49-.6.24-.09.49-.18.73-.26-.19.06.17-.05.18-.06.12-.04.25-.08.37-.11,1.95-.59,3.86-.93,5.86-1.03.39-.02,2.06-.38,1.58-1.06-2.27-3.19-4.53-6.37-6.79-9.56-.68.33-1.37.66-2.05.98,3.92,1.2,7.92,2.12,11.97,2.75.39.06.82-.02,1.19-.17.22-.09.69-.3.73-.59.66-4.89,1.33-9.77,1.99-14.66-.79.16-1.57.32-2.36.48,1.91,3.61,4.16,7.03,6.72,10.21.18.23.68.18.92.15.41-.06.78-.21,1.11-.44,4.35-3.04,8.39-6.48,12.12-10.26-.76.06-1.51.12-2.27.17-.95,4.6-2.38,9.08-4.27,13.37-.11.26.26.41.44.43,3.99.36,7.91,1.21,11.68,2.56.08-.28.15-.55.23-.83-4.4,2.59-8.79,5.17-13.19,7.75-.19.11-.53.33-.46.61,1.26,5.04,2.51,10.07,3.77,15.11.76-.25,1.52-.51,2.29-.76-3.46-2.74-6.91-5.49-10.37-8.23-.4-.32-1.12-.16-1.55.02-.2.09-1.06.55-.65.87h0Z"/>
    </g>
  </g>
</svg>