<?xml version="1.0" encoding="UTF-8"?>
<svg id="Layer_2" data-name="Layer 2" xmlns="http://www.w3.org/2000/svg" viewBox="0 0 31.72 48">
  <defs>
    <style>
      .cls-1 {
        fill: #bdbdbd;
      }
    </style>
  </defs>
  <g id="Layer_1-2" data-name="Layer 1">
    <g id="_ëÎÓÈ_1" data-name=" ëÎÓÈ 1">
      <g>
        <path class="cls-1" d="M3.1,47.43c-.06,0-.12.06-.16-.02l-.28-.06c-.09.07-.12.08-.12,0,0-.1-.04-.08-.11-.07-.06,0-.09-.05-.09-.13-.01-.18-.21.06-.22-.06-.02-.13-.37-.39-.26-.15.03.07-.13.02-.11-.07.06-.23-.35-.24-.3-.36.02-.05.06-.16.02-.2-.06-.05-.2.25-.21-.08,0-.15-.16.09-.2-.07-.03-.1-.04-.11-.13-.04-.13.1-.15-.5-.49-.55-.22-.03,0-.12-.36-.35-.13-.08-.03-.33.05-.1.03.09.21.09.23-.03.02-.14.03-.11,0-.14-.05-.04-.03.03-.07.06-.06.06-.05.03-.24-.23-.2-.27.58,0,.25-.34-.16-.17-.06-.46.03-.44.24.06.13.13.18.24.02.05.12.02.11-.04-.03-.24-.4-.53-.21-.68.06-.05.01-.14.03-.21.04-.14.16,0,.19-.01.06-.03-.11-.22-.04-.24.12-.03.08-.12.09-.2.01-.17.14-.09.12-.27-.04-.34.55-1.05.53-1.13-.03-.12-.04-.13.17-.19.15-.05-.07-.24.2-.25.11,0-.09-.09.06-.2.1-.08.06-.35.4-.49.07-.03.43-.3.26-.37-.07-.03.08-.2.13-.07.02.05.13.08.12-.05,0-.02-.06-.17,0-.12.1.08.26.03.36.15.03.04.24.22.28.2.09-.05-.14-.16-.16-.31,0-.02-.13-.07-.15-.09-.03-.06-.07-.18-.03-.23.26-.29.21-.23.43-.16-.03.08.01.14.05.2.04.08.24-.09-.06-.2.07-.12-.12-.09-.09-.15.09-.18.25.16.26-.13,0-.23.25.02.23-.14-.01-.07.01-.09.09-.08.13.03.04-.18.25-.13.12.03.16,0,.18.08.03.08.19.25.27.22.11-.04-.11-.13.06-.22.06.09.15.11.22.01-.18-.12-.17-.13-.2-.06-.04.09,0,.01-.18-.03-.24-.06.06-.43.32-.34.23.08.09-.04.09.19,0,.15.12-.01.24.1.04.04.1.07.13.02.06-.09-.23-.21-.32-.29.12-.09.23-.07.17-.23-.04-.1.26-.01.19.15-.06.14.09-.14.27.03.09.08.19,0,.19-.05-.01-.1.13-.29.2-.16.03.06-.07.08-.08.14,0,.05-.03.41.04.44.17.06.14.26.3.22.11-.02.25.1.16.18-.13.12.11.12.15.22.05.13.33.01.42-.14.21.1.2.14.26.03.11-.18.82-.21.56-.33-.08-.04-.16-.08-.23-.14-.03-.03-.04.04-.05.04-.13-.02-.2.1-.32.1-.11,0-.16.08-.18.18-.12-.15-.41-.06-.31-.24.06-.1.08-.1-.09-.22-.15-.1-.05-.11-.03-.3,0-.02-.05-.06-.06-.04-.06.15-.04.22-.13.21-.07,0-.21.01-.18-.1,0-.04.03-.08-.03-.09-.09-.02-.12-.11-.19-.15.09-.08.1-.08.16,0,.02.02.03.06.06.03.12-.09.28-.01.4-.11.05-.04.17.19.16.34,0,.06.12.05.11-.07,0-.14,0-.15.18-.07.02-.25-.29-.26.07-.33.14-.03.03.11.18.25.17.16.22.26.28.2.1-.1-.21-.01-.18-.32.1.04.14.14.28.08.19-.09-.37-.25-.09-.38-.04,0,.15,0,.19.13.04.14.35.17.5.15.32-.04.03.17.14.24,0,0,.02,0,.03,0,.07-.04.18.05.21-.05.03-.1-.44-.39-.59-.46-.21-.1-.13-.21-.17-.33-.05-.14.96-.17.98-.15.21.23.24-.14.36-.03.18.17.31-.02.36.11.09.21.2-.06.31,0-.1.12.26.22.04-.13-.01-.02,0-.04.01-.04.36.22.15.25.28.41.04.05.03.07-.13.16-.1.06-.14-.1-.19-.19-.1-.18-.24.29-.17.33.04.02.11-.09.19-.04.08.06.18.08.27.04.09-.03.47.07.34-.07-.14-.15-.3-.28-.15-.25.15.03.26.11.31.26.01.04.03.08.08.09.42.05.09-.22.1-.34,0-.06-.13-.07-.13-.16,0-.06.08-.11.03-.17-.05-.07.09-.02.17.02.12.05.32.81.34.59.01-.19.45.01.34-.21,0,.07-.01-.15.17.16.05.09.01.05-.12.09-.07.02.05.15.13.15.32.03.38-.04.52.08.05.04.08-.04.24.09-.12.11-.16.19.08.26.09.03.11-.11.05-.15-.35-.26-.13-.42-.06-.34.08.11.17.07.25.05-.18-.3-.57-.16-.33-.42.04-.05.18.04.2.06.04.02.12-.18.19,0,.05.14-.09.11-.02.17.06.05.1.14.19.16.05.02.02.05,0,.07-.05.09-.26.06-.12.15.15.1-.05.24.23.31.16.04.29.08.19.22-.08.11-.13.28-.02.33.04.02.03-.05.04-.19.01-.12.13-.03.22.01.08.04.04-.19-.13-.31-.38-.27-.38-.45-.26-.4.14.05.09-.14.23-.06.22.13.24.18.36.15.11-.03-.16-.19.03-.21.16-.02.19.02.13-.1-.02-.05,0-.07.05-.06.25.03.19.32.31.36.15.05.18.04.19.12.03.17.22.16.23.07.01-.19.06-.04-.17-.24-.05-.05.12-.09.17-.09.05.08.1.18.16.11.02-.02.03-.07.04-.07.12,0,.24-.06.35.05.05.05.18-.06.12-.13-.12-.16-.09-.11-.08-.18.01-.01-.08,0,.13.06.09.02.12-.12.22-.07.06.03.26-.04.28-.13.04-.15.04-.15.21-.13.18.03,0-.22.25-.22.21,0,.06-.28.19-.18.09.06.28-.03.31-.06.1-.1-.04-.15-.05-.18,0-.02.04-.04.07-.03.26.1.13-.03.29-.23.06-.07-.11-.25.06-.2.04.01.06.13.12,0,.03-.06.1-.1.16-.14.3-.22.17-.4.34-.36.46.13.35.59.68.33.12-.09-.07.15.08.17.1.01.09-.34-.01-.3-.07.03-.1-.13-.18-.04-.05.05-.07,0-.06-.02.09-.12-.06-.24-.14-.22-.12.03,0-.06-.21-.13-.04-.01-.03-.1.04-.1.23.01.17-.11.15-.32-.02-.19.47-.01.24-.2-.15-.12.52-.15.33-.56-.04-.08.18.03.1-.16-.05-.13.19.05.22,0,.03-.07.13-.08.08-.13-.08-.09-.17-.06-.13-.14.02-.04.01-.1.1-.08.3.06-.32-.54,0-.41.16.07.15-.14.05-.23-.02-.02.02-.08.07-.06.05.02.09.05.14.08.05.02.16-.07.15-.12,0-.02-.17-.09-.04-.18.3-.22-.34-.56.31-.61.06,0,.06-.09.03-.12-.13-.14.14-.13,0-.34-.04-.06-.09-.14-.09-.22.1.02.21.16.19.07-.06-.27-.14-.42.08-.29.05.03.06-.06.04-.07-.16-.08-.15-.25-.19-.39-.03-.1.06-.09.09-.13.02.03.14.18.18.08.09-.23-.01-.24-.18-.13-.06-.06.02-.14-.01-.21-.05-.09.09.02.15-.24.03-.14-.19-.09-.14-.19.12-.22.09-.25-.05-.37-.1-.09-2.19.12-2.31.15-.21.05-1.28-.22-1.3-.22-.49.24-4.91-1.3-5.74-2.7-.11-.18-.23.01-.33-.23-.03-.07-.19-.16-.07-.17.19-.03.18-.05.21.02.12.25.3.17.18.05-.27-.29-.3-.31-.35-.27-.15.14-.29,0-.8-.52-.25-.26.21-.26-.06-.5.28-.09-.17-.26-.13-.15.02.07.09.1.14.15-.12.13.03.22-.1.2-.23-.04-.11-.05-.37-.3-.14-.14.04-.21-.07-.3-.29-.24-.16-.43-.33-.51-.21-.1-.45-.54-.41-.62.1-.23-.24-.22-.31-.57,0-.04.01-.1.09-.06.29.13-.38-.6-.32-.78.07-.18-.13-.14-.14-.49,0-.27-.15-.45,0-.43.12.02-.21-.24-.01-.3-.16-.41.14-.19.09-.4,0-.02-.11-.45-.04-.46.12-.02.38,0,.41.18.01.07.07.01.08-.02.07-.42-.87-.03-.19-.95.05-.07-.13,0-.12-.22,0-.13.13-.3.24-.22.05.04.18-.09.07-.14-.2-.07.06-.69.13-.65.33.18.17.04.35-.14.08.08.16.2.19.09.03-.1.18-.04.21-.02.03.04-.05.12.04.15.05.02.1.03.12.09.02.07.08,0,.08-.02-.08-.59-.62-.4-.45-1.01.03-.12-.05-.08.17-.1.09,0,.05.13.08.17.05.07.11.14.1.25,0,.04.06.1.1.15.07.08.04-.03.24-.12.32.19.15-.14,0,.01-.06-.36-.33-.3-.29-.72,0-.08.12-.05.11-.03-.03.12.05.06.09.07.1.03.19.07.27.15.11.12.2-.12.08-.15-.09-.02-.05-.04-.08-.18-.05-.24.21-.15.16-.32-.04-.13-.12-.15.04-.3.13-.12.17,0,.12.08-.07.11.08.16.02.23-.1.11.02.19.04.28,0,0,.04.01.06,0,.15-.01-.01-.22-.01-.25,0-.05.02-.1-.01-.15-.09-.11.05-.21.15-.13.19.15-.24-.38.24-.34.02,0,.01.07.06.04.05-.03.03-.23.17-.11.15.13.09.13-.02.19-.13.07.04.1-.09.23-.12.13-.16.31-.04.44.07.08.33.04.27-.04-.03-.04-.1-.1-.18-.18-.12-.12.01-.16.07-.25.11-.17.31-.02.28-.18-.03-.16.09-.17.12-.16.17.14.29.29.38.23.2-.14.3-.01.3-.06.02-.16-.4-.05-.32-.15.14-.15-.08-.24-.05-.29.02-.03.12.01.14.02.18.1.17-.14.33.05.14.17.63.06.12-.25-.09-.06.08-.1.23-.23.01-.01.04,0,.03.03-.09.36.06.14.07.06.01-.08.17-.09.16-.03-.09.31-.16.24-.03.24.12,0,.25-.21.35-.04.12.19.13.08.39.02.11-.03.05-.05.09-.19.02-.09-.1-.06-.23-.05-.09,0-.1.05-.07.12.01.03,0,.04-.03.04-.48-.06-.17-.26-.27-.32-.06-.04-.1.03-.16.05-.04,0-.06-.08-.03-.09.13-.05.29-.12.33,0,.03.09.05.13.32.09.16-.02-.02-.2,0-.23.05-.05.1.02.14.03.22.06.04.3.25.34.25.06.66.2.44.34-.02,0-.14.06-.05.13.12.1.2,0,.29-.03.12-.04.06-.16.03-.27-.01-.05,1,.08.74.21-.14.07.4.39.46.34.07-.06-.31-.43-.1-.35.15.06.24-.06.41.27.18.34.47.27.28.36-.09.04.47.32.32.2-.14-.11-.18-.3-.32-.41-.02-.02-.02-.06,0-.08-.02,0,.14.11.17.12.16.05.09-.07.13-.14.05-.08,1.23.48.37.31-.09-.02-.09.1-.04.12.05.02.12.04.09.1-.07.18.45.42.53.4-.08-.19-.17-.1-.24-.21.1-.04.16-.08.2.01.12.25.3.03.23-.04-.04-.04-.19-.2-.21-.29.32.03.38.38.58.3.02,0,.44.24.3.29-.21.06.06.17-.15.35-.22-.23-.02-.31-.38-.54-.07-.04-.02.13-.16.15-.07.01-.05.06-.02.08.82.58.65.06.89.5.07.13.02-.03.33.27.15.14.24,0,.3.13.1.23.54.62.72.56.22-.08,0,.12.14.27.51.53.47.51.54.39.06-.09.18.1.15.25-.16.06.06.11.3.31,0,0,.04,0,.06-.01h0c.1.05.22.29.08.26-.1-.02.02.09.24.31.05.05.14-.05.2.02.12.15.3.22.43.34-.14.21.26.19,0,.44-.1.1.21.24.13.04-.05-.11.2.07.19-.09-.01-.22,0-.08-.34-.39.04-.11-.08-.18-.07-.29,0,0-.03-.03-.04-.03-.1.02-.27-.23-.17-.22.28,0,.12.27.45.07.04-.02-.14-.23-.08-.23.16,0,.19.15.25.25.04.06.04.06-.06.08-.11.02.02.17-.09.12-.31-.14-.04.29.27.25.18-.02.17,0,.21.1-.2-.02-.07.11.11.17.12.04-.13.06-.02.21.06.08.07-.1.16,0,.07.07.14.14.26.1.05-.01.09.09.05.11-.1.07-.13.05.06.31.01.01.3.36.31.37.12.11-.06.16.01.26.03.04.12-.17.22.05-.09,0-.1-.02-.11.01-.03.12-.08.26.02.28.26.05.45.67.15.51-.09-.05.08-.08.04-.13-.35-.45-.28-.39-.36-.46-.04-.04.05-.12-.05-.19-.19-.13.04-.19,0-.27-.06-.13-.32-.2-.26-.12.26.35-.07.54-.39.34-.1-.06-.07.08-.06.1.04.09.16.08.24.13.13.08.12.24.23.09.01-.01.03-.04.03-.04.1.06.25.05.29.2.04.14.15.05.07.19-.11.19-.3-.13-.4-.14.02.09.02.25.06.21.07-.05.14.05.2-.01.07.09.14.18.26.21.24.06.04.34-.05.27-.15-.13-.19-.2-.27-.18-.07.02,0,.06,0,.09-.04.12.01.19.09.27.15.14.36-.02.58-.06.16-.03-.19-.26-.11-.46.27.24.07.47.43.36,1.39-.41,2.58-2.17,2.19-3.57-1.99-7.14-12.76-7.89-18.36-15.78-1.09-1.53-1.04-1.55-.1-2.18.83-.55,3.1-2.79,3.27-2.32,1.29,3.79,14.11,9.82,15.79,11.64.1.1-.07.1.01.17.01.01.04.02.06.01.09-.02.16.03.22.09,1.14,1.13,1.16,1.09,1.03,1.15,0,.02.93.87.63.76-.17-.06.26.23.36.36.03.04-.1.06-.02.11.04.03.1.03.12.09.05.14.09.12.19.24.86,1.08.4,1.03.74,1.21.05.03.03.09,0,.14-.04-.03-.08-.06-.12-.09-.05-.03-.05.24.12.08.51.47.18.52.36.56.1.03.41.63.21.56-.5-.18.17.12.31.58.03.09-.06.18,0,.27.04.07.12.11.15.2.03.1-.1.08-.11.1,0,0,0,0-.08.3-.26-.24-.21-.21-.27-.23-.03.13-.05.16.06.34.04.07.13-.04.21-.12.09.05.15.06.13-.04-.01-.1.07-.17.1-.11.04.08.18.5.13.57-.16.19.12.18.15.47.01.15.09.3.03.46-.02.04.02.08.04.11.05.1.01.2-.1.08-.16-.17-.2.02-.3-.08-.06-.06-.07-.2-.2-.09-.02.02-.09.12-.08.01.02-.16,0-.11-.13-.17-.03-.01-.05,0-.02.02.08.07,0,.12-.02.18-.06.17.08.37.14.38.08,0,.04-.33.05-.37.3.33.72.11.68.45-.06.03-.07.07-.03.12.13.17-.04.38-.08.24-.04-.13-.17-.14-.26-.19-.04-.02.01,0-.02.02-.14.12.45.19.33.53-.15.46.04.75-.2.67-.19-.07.07.21.02.37-.01.04-.06.02-.07,0-.14-.18-.52-.37-.53-.54,0-.05.09-.07.07-.14-.1-.33-.06-.02-.21.11-.05.04.1.1.2.19-.03.03-.02.11-.1.09-.27-.09-.2.61.09.11.04-.07.05,0,.08.02.04.03.12.01.14.04.1.19.35.29.29.44-.08.21-.15.23-.05.36.07.09-.06.12-.14.14-.05-.26-.01-.16-.25-.11-.06.01-.13-.04-.17.03-.06.09.06.11.09.17.02.06.08.22.13.18.12-.08-.11-.29,0-.28.05,0,.13.12.21,0,.06.15.14.12.1.2-.03.07-.23.02-.24.15,0,.07-.08.13-.01.2.02.02.05.05,0,.07-.1.05-.09-.11-.15-.04-.04.06,0,.05.12.22.01.01-.01.07-.04.04-.08-.08-.49-.51-.42-.34.09.19.21.14.04.4-.05.07.01.08.05.07.27-.09.23-.08.11.18-.13.29,0,.22-.24.42-.1.09-.1.1-.27.51-.04.1-.22.04-.15.18.04.09-.1.02-.14.17-.13.51-.33.28-.32.21,0-.03.08-.23-.02-.21-.08.02-.04.05-.1.17-.02.04-.1.06-.07.11.01.03.08.03.11.05.14.1,0,.33-.13.35-.14.02-.19.13-.23.3-.03.13-.27-.05-.26.2.01.15-.14.24-.2.19-.12-.09-.18.04-.22-.05-.01-.02.05-.2-.12-.25-.04-.01-.04.09-.08.06-.02,0-.04-.04-.03-.08.06-.19-.14-.37-.18-.32-.11.14-.14.31,0,.37.11.04.08.07.26.28.19.22-.35.22-.14.34.05.03-.03.07-.08.07-.5,0-.23.09-.52.08.04-.04.1-.07,0-.13-.11-.06-.14-.36-.37-.19-.07.05-.03.17.14.11.08-.03.07-.01.06.04,0,.05,0,.03.19.17-.02.12-.02.18-.06.19-.29.09-.05-.43-.35-.17-.01.01,0,.08,0,.08.09.04.1.13.15.19.03.04-.18.1-.23-.04-.04-.12-.22.03-.24.03-.15.06-.13-.11-.2-.09-.05,0-.21.06-.16.12.03.04.09.04.2.07.16.04.13.22.06.21-.18-.05-.19.05-.33.06-.07,0-.06-.08-.05-.1.02-.03.11-.03.11-.09-.01-.1-.08.06-.28-.13-.23-.22-.23-.23-.25-.22-.03.01.02.17.07.22.43.4.23.43-.39.67-.21.08-.2-.06-.29-.09-.02,0-.04.02-.02.04.08.09-.06.14-.04.22.05.15-.29-.13-.18.25.84,2.91-1.13,9.02-4.33,11.78-.85.73-3.38,2.27-4.11,2.25-.09,0-.25.02-.25.12,0,.03-5.8.43-6.74.17-.09-.03-.15.11-.26.08-.38-.12-3.43-.22-4.97,3.09-.53,1.13-.4,1.23-.58,1.29,0,0-.02.04-.01.05.08.15-.13.4-.15.39-.04-.02-.05-.09-.07-.13.24-.29-.09-.16.01,0-.23,0-.22.03-.21-.07.01-.18-.16-.05-.17-.24,0-.03,0-.08-.05-.05-.21.13-.24-.38-.32-.28-.04.05-.02.05.13.2h0ZM19.93,33.56c.19-.21-.02-.16-.01-.12,0,.09.06.13-.03.14-.08.02-.01.15.01.15.04,0,.09-.1.03-.18h0ZM20.66,31.38c.02-.16-.53-.53,0,0-.11.06-.07.16-.05.25.02.1.14-.13.05-.25h0ZM3.24,40.73c.23-.08.1-.04.19.05.02.02.15,0,.13-.06-.02-.07-.13-.06-.18-.03-.25-.22-.09.02-.18.07-.1.06.08.16.1.15.02,0,.04-.08-.06-.18h0ZM8.7,40.81c.27.1.15-.17,0-.22.02.08.04.15,0,.23-.06-.1-.25-.11-.26-.08-.01.08.19.11.26.07ZM8.4,24.28c.05-.09-.08-.16-.09-.14-.06.12.09.12.1.13-.05.06-.12.12.06.23.06.04.1-.05.08-.08-.05-.05-.1-.1-.15-.15h0ZM10.15,39.78c-.1-.08-.17.09-.27.04-.05-.03-.02.19.11.1.33-.26.11-.02.36-.03.11,0-.07-.14-.2-.1ZM8.98,24.14c-.07.24.45.16-.01,0,.02-.04.09-.09.04-.13-.18-.12-.2-.31-.24-.27-.1.09.15.33.22.4h0ZM5.84,39.33c.11-.03.1,0,.11,0,.1-.05-.44-.33-.28-.16.17.18.23.15.03.2-.24.06-.06.21-.02.19.08-.05.19-.09.16-.22h0ZM8.58,23.39c-.15.2.11.16.02.05-.07-.09.06-.17-.02-.28-.08-.11-.07-.2-.19-.26,0,.11.09.18.07.29-.02.1.06.14.12.2ZM8.19,20.91c.19-.09,0-.22,0-.14,0,.05-.02.1.01.14-.04.1-.11.2-.04.31-.12.39,0,.33.01.29.01-.06,0-.12.03-.18.02-.04-.02-.08-.05-.11.07-.09.12,0,.27-.21-.17-.05-.09.02-.23-.1h0ZM1.32,43.41c.31-.31-.44-.34,0,0-.1.04-.21-.13-.21.02,0,.14.03.15.1.11.02,0,.58.28.1-.13h0ZM15.65,39.46c-.1.09-.23.04-.08.18.06.06.18.19.21.11.03-.09-.21-.06-.05-.16.04-.02-.08-.12-.1-.14.07-.09.14-.04.18-.1.04-.07-.16-.02-.25-.23-.08-.18-.11.22.08.34h0ZM3.31,47.11c.06.09.3.24.36.16.06-.09-.67-.82-.54-.6.02.04.02.1.09.11.06,0,.03.1.09.1.07,0,.1.06.15.1-.09,0-.11.08-.14.14-.04-.02-.22.02-.16.1.13.16.09.19.14.17.18-.1-.07-.16.01-.28h0ZM9.25,41.97c-.42-.2-.44-.25-.37.02,0,.03.24.29.35,0,.03-.07.12.08.19-.03.03-.06-.04-.08-.1-.09-.04,0-.03.01-.07.11h0ZM1.97,41.5c-.17-.06-.27-.16-.28-.04,0,.02,0,.18.01.18.04,0,.08-.1.1-.1.05,0,.05.03.11.36.01.07.02.08.23.18.1.05.16-.25-.04-.23-.04-.18-.2-.13-.13-.36.57.4.5.25.48.24-.29-.12-.36-.42-.48-.23h0ZM18.16,38.32s0,.12.09.09c.06-.02.12-.01.18,0,.06.02.07-.1.05-.1-.1-.01-.17-.07-.19-.17-.2-.04-.18-.38-.33-.36-.09,0,.03.08-.02.15-.01.01-.14.1-.04.21.06.06.2-.13.22.02.04.25.08.2-.04.09-.1-.09-.21.34.08.08h0ZM11.64,38.43c.11-.08.22.21.16-.11-.03-.17-.38-.09-.15.11-.15,0-.37-.2-.31-.03.09.26.21.01.17.19.12.06.13.17.15.28.04.2-.2.12-.23.14-.03-.21-.04-.35-.19-.31-.09-.05.02-.25-.12-.18-.09.04-.07.07-.13-.02-.12-.16,0-.18-.06-.25-.29-.38-.41-.07-.33-.02.05.03.11.06.16.1.05.03.06.19-.06.18-.29-.01-.22-.03-.29-.02.06.11.13.13.15.19.04.12.07.13.26.14.1.08.1.11.34.19.15.04-.05-.18.01-.23.05-.04.72.7.62.49-.08-.16-.18-.17.07-.22.04,0,.03.04.03,0,0-.09.06-.19,0-.27-.09-.12-.12-.26-.24-.36h0ZM20,35.29c.2.35.19.39.31.38.32-.03.26.29.4.17.15-.14-.06-.29-.24-.4-.2-.12-.09-.01-.22,0-.21.03.14-.29-.05-.35-.09-.03-.13-.13-.21-.03-.02.02-.04.06,0,.06.25,0,.21.11.02.17-.28-.28-.22.15,0,0h0ZM31.16,21.12c.07-.13-.13-.27.13-.18,0-.08-.6-.66-.49-.38.1.27-.06.25.06.35.1.09.15.16.02.11-.19-.07-.04.39.14.26.08-.07.04-.1.11-.03.04.05.14.02.04-.13h0ZM9.56,37.97c.04-.13-.18-.26-.26-.31-.04-.03-.2.14-.12.19.07.04.03-.1.1-.06.27.16.32.18.26.26-.11.14-.26-.02-.35-.01-.09,0,0,.19.37.11.2-.05.11.14.18.26.04.08-.06.11-.13.13-.23-.19-.24.3,0-.01.17.18.22.03.42.13.09.05.23.08.2-.03-.03-.13.13-.07-.02-.18-.05-.04-.05.04-.07.06-.18.23-.1-.39-.59-.55h0ZM30.25,23.84c.24-.3-.17-.17.01,0-.06.03-.15.03-.15.12,0,.03-.02.04-.04.03-.08,0-.11.08-.19.1-.18.05-.15.24-.13.36.01.13-.11-.01-.15.07-.05.11-.08.2.02.24.15.06.08-.2.22-.14.07.03,0-.08.03-.12.13-.13-.11-.24.02-.25.31-.04.39.73.5.39.04-.1-.16-.15-.04-.28.01-.01.05-.03.07,0,.04.06-.06.23.11.05.13-.13-.14-.17-.25-.14-.2.06-.26-.32-.06-.24.02,0,.12.07.05-.02-.06-.07.01-.14-.02-.21h0ZM16.89,22.33c-.72-.82-3.11-2.27-3.99-1.56-1.64,1.33,2.44,4.63,5.87,4.27.3-.03-1.21-2.05-1.88-2.71h0ZM7.97,38.35c-.07-.08-.28-.21-.29-.1-.01.11.09.03.07.14-.03.19-.05.33.14.24.07-.03.14-.05.12.03-.01.08.04-.05.2.1.11.1.34.31.34.23,0-.07-.1-.05-.18-.15-.11-.15.01-.23-.12-.25-.21-.03-.23-.17-.29-.23h0ZM7.24,38.41c-.19-.06-.6.06-.39.24.29.24.29-.1.43-.07.02,0,.04-.05-.04-.17ZM9.55,41.32c.02.11.17.07.4.34.08.09.32.02.28-.09-.08-.23-.08-.16-.19-.18-.16-.02-.1-.02,0,.11.01.01,0,.07-.03.05-.46-.24-.33-.3-.46-.24ZM16.82,38.69c-.08-.06-.15-.16-.22-.08-.26.28.13.55.07.38-.07-.23.35-.06.15-.3h0ZM19.59,34.75c-.06-.03-.09-.09-.18-.07-.07.01-.11.01-.11.09,0,.17-.17.12-.17.22,0,.11.18,0,.26.04.02,0,.03,0,.02-.03-.03-.11.02-.13.12-.1.03.01.19-.04.05-.14h0ZM6.84,39.81c.02-.1.06-.15,0-.21-.17-.18.02-.2-.09-.21-.1-.01-.26.03-.25.12,0,.09.1.03.12.04.23.07-.11.21-.07.25.05.06.24.02.28.01ZM4.63,42.73c-.17.22.19,0,.09.2-.02.03.13.16.22.1.07-.05.02-.08.07-.25.02-.07-.09-.02-.21-.08-.1-.05-.1-.04-.17.03h0ZM20.49,32.85c.04.06.09.07.06-.05,0,0-.11-.13-.21-.34-.08-.16-.13.12-.25.25-.01.02,0,.06,0,.09,0,.02.33-.16.39.05h0ZM30.72,19.47c.23.07.37-.19.26-.24-.27-.12-.13-.22-.27-.2-.14.02.16.3,0,.36-.05.02,0,.05,0,.08ZM18.06,36.65s-.05,0-.08,0c-.09.04.05.21-.12.14-.21-.09-.08.24.1.13.32-.2.13,0,.3.04.2.03-.04-.16-.2-.31h0ZM4.55,39.37c.06-.19-.42-.3-.45-.21-.04.14.12.1.13.24,0,.08.04.1.08.01.07-.18.15.03.23-.04h0ZM12.68,39.16c.07-.1-.05-.27-.07-.26-.12.07-.31-.16-.35,0-.05.18.13.04.25.19.08.11.15.07.18.06h0ZM19.02,36c.18-.1-.14-.17-.05-.4.04-.09-.14-.22-.15-.03,0,.21-.08.14.11.42.02.03.05.03.08.01h0ZM4.77,39.88c-.21.1.27.54.19.15-.04-.18.08-.14.06-.17-.04-.05-.23-.16-.24.02h0ZM10.99,41.37c-.26-.19-.21-.06-.11.24.02.06.05-.03.25.06.1.04.19-.03.03-.06-.15-.03-.07-.16-.17-.24h0ZM9.93,25.96c-.06-.07-.14-.05-.18.04-.01.03,0,.06,0,.09-.02.14-.25-.08-.18.03.09.15.4.2.4.18,0-.04-.03-.05-.08-.13-.05-.08.18-.03.03-.21h0ZM1.58,45.16c.23.21.06-.11.16-.15-.03-.08-.04-.18-.15-.2-.12-.02-.07,0-.1.08-.09.21.13.23.09.27h0ZM29.08,26.12c.03.12-.08.06-.21.19-.08.08-.04-.02-.15-.07-.02.09-.09.21.07.21.23-.01.07-.16.3-.15.3.02-.05-.37-.01-.18h0ZM10.71,16.98c.16.13.07-.03.11-.07.09-.11.43.19.16-.27-.04-.07-.18.04-.2.13-.03.18-.18.04-.08.2ZM3.36,44.8c-.08-.03-.01.08,0,.11,0,.05.06.05.08.08.01.02-.01.06,0,.09,0,.07.12-.06.31.04.06.03.14-.1-.37-.31ZM5.85,41.99c-.38-.1-.32-.24-.42-.15-.05.04.09.02.05.14-.02.08.11.17.12.15.08-.13.27.1.25-.14h0ZM8.25,41.33c.07.09.44.26.41.17-.04-.13-.2-.06-.13-.19.01-.03-.4-.17-.28.02ZM22.58,21.88c-.02-.17-.25-.06-.37-.13-.1-.05-.05.3.04.22.15-.13.23-.04.34-.1ZM6.15,41.91c.05-.05.09-.04.07-.08-.06-.15-.29-.02-.35,0-.07.02.1.31.27.08h0ZM11.87,40.42c.15,0,.3.16.26.04-.06-.18-.17-.17-.22-.33-.03-.08-.15.03-.04.29h0ZM18.59,41.16c0-.05.03-.05-.29-.21-.13-.07-.09.41.29.21ZM16.21,38.88c-.07-.07-.13-.16-.14-.08-.02.14-.04.25,0,.25.23.04.33.13.28.05-.04-.08-.03-.19-.15-.22h0ZM.85,45.6c.06-.11-.1-.04-.15-.23-.03-.1-.14-.16-.17-.14-.07.06.22.55.32.36h0ZM10.25,40.66c-.1-.12-.25.04-.27.07-.05.09-.06.02-.17-.01.03.15.1.21.23.12.22-.15.23-.06.21-.17h0ZM9.4,40.83c.18-.02-.07-.08,0-.24,0-.01-.02-.05-.03-.05-.11,0-.07.2-.25.22-.02,0,0,.08,0,.08.1,0,.2-.01.27-.02h0ZM31.14,22.64c.07.15.2-.13-.01-.22-.04-.02-.11-.01-.12-.08,0-.03-.02-.04-.04-.02-.15.12.17.3.18.32h0ZM17.48,38.21c-.11.09-.29-.02-.21.17.05.14.16-.04.19-.03.17.07.15-.25.02-.15h0ZM7.29,40.69c-.06-.02,0,.11.06.26.04.1.45-.11-.06-.26ZM17.31,37.3c.1.06.14,0,.27.1.02.02.17.04.17-.04,0-.09-.09-.02-.14-.05-.1-.05-.36-.17-.31-.01h0ZM2.73,39.91s-.09.11-.07.12c.21.13.22.15.29.09.11-.09-.17-.26-.22-.22h0ZM31.35,21.57c.12.12.14,0,.13-.16-.01-.15-.35-.12-.13.16ZM14.53,39.07c.27.22.3.26.33.2.1-.16-.18-.11-.26-.3-.02-.06-.18-.08-.07.09h0ZM3.89,39.6c.27.27.27-.18,0-.17-.06,0-.05.12,0,.17ZM17.23,41.43c.1.02.56.47.24-.04-.11.09-.23-.2-.24.04ZM5.46,38.79c.2.1.45-.16,0-.18-.13,0,0,.17,0,.18ZM30.48,22.89c-.07.12-.1.15.08.28.03.02.04-.02.05-.04.01-.1-.13-.23-.03-.19.1.04.06-.04-.03-.11-.06-.06-.06,0-.08.06h0ZM14.13,38.58c-.27-.21,0,.03-.21.19,0,0,.03.05.04.04.3-.13.34-.02.18-.23h0ZM15.34,38.96c.09-.11,0-.18-.06-.17-.12.03.03.13-.08.16-.33.08-.06.25.14,0h0ZM4.74,39.43s.17.13.26.11c.02,0,.04,0,.02-.2,0-.05-.24.05-.27.09h0ZM10.07,42.45c.1-.3-.07-.26-.07-.23,0,.03-.15.21-.13.22.08.05.14.08.2.01h0ZM11.71,39.55c-.17-.12-.1.13-.06.15.37.25.33.13.31.12-.15-.05-.16-.16-.25-.28ZM16.97,37.77c-.11-.1-.19-.07-.2-.06-.09.1.45.54.2.06ZM18.48,23.28s-.49-.47.02.17c.09.11.24.09-.02-.17ZM3.03,40.43c.22.17.17-.32.04-.22-.12.09-.13.14-.04.22ZM19.55,40.08c-.02-.05-.16-.02-.13.08.04.14.09.24.18.18.11-.07.02-.14-.06-.26h0ZM2.35,42.15c-.05.18.12.11.16.18.06.1,0,.18.1.13.16-.08-.23-.41-.26-.31h0ZM9.18,39.86c.14.09.4.04.32,0-.09-.03-.13-.19-.32-.11-.06.02-.06.05,0,.11ZM25.87,27.9c-.1.02-.03.03-.18,0-.1-.02.06.25.14.26.15.02.06-.24.03-.25h0ZM19.19,37.57c.21.29.52.03.03-.07-.08-.02-.04.05-.03.07ZM7.46,41.61c-.13-.11-.3.09-.22.1.37.08.29,0,.22-.1ZM20.94,34.83c.05.11.22-.01-.2-.27-.01,0-.07.03-.05.06.11.16.2.1.25.21ZM15.74,38.24c.18.12.18.14.25.06.05-.06-.01-.09-.24-.23-.05-.03-.08.09,0,.17h0ZM19.92,34.14c-.06-.11-.17.06-.16.11.03.1.2.12.23.05.02-.04-.01-.06-.07-.16ZM.78,44.64c-.3-.23.06.4.2.18.05-.08-.14.03-.16-.12,0-.03-.03-.05-.04-.06h0ZM14.41,38.41c-.14-.14-.35.2-.13.14.19-.05.22-.05.13-.14ZM15.63,38.31c-.23-.19-.19.33-.07.23.11-.1-.04-.15.09-.18l-.02-.05h0ZM9.14,38.7c.13-.06-.29-.3-.33-.19-.03.07.1.11.19.11.07,0,.05.09.15.08h0ZM11.98,41.67c.12-.13-.08-.17-.18-.18-.08-.01.05.31.18.18ZM9.85,40.44c.24.21.25.08.22.05-.07-.06-.16-.09-.19-.18,0-.02-.2-.05-.03.13h0ZM19.33,35.26s.02-.05-.01-.06c-.21-.05-.21-.06-.26-.02-.04.03-.02.15.05.14.08-.02.15-.04.22-.06h0ZM29.31,25.25c.3-.29-.19-.29-.09-.03.02.06.05.06.09.03ZM21.13,38.8c-.12.14.05.14.1.27.02.07.14-.06.08-.08-.21-.08-.05-.29-.18-.19ZM3.62,47.65c.01-.12-.12-.24-.21-.23-.04,0-.02.21.21.23ZM10.03,38.92c.13.05.23.13.31.24.01.01.06-.01.04-.04-.48-.46-.36-.21-.35-.2h0ZM11.55,40.29s-.08-.07-.13-.06c-.08.02-.03.08-.04.12-.04.21.25.02.17-.06h0ZM12.78,42.27c.06-.17-.22-.21-.2-.07,0,.06.17.09.2.07ZM11.27,40.95c.34.34-.05-.35-.09-.15-.02.09.1.13.09.15ZM1.98,42.18c0-.07-.22-.34-.2-.06,0,.13.11.08.2.06ZM8.21,40.68c-.08-.09-.18-.06-.12.08.04.11.33.17.12-.08ZM5.04,39.09c-.29-.16-.54.07-.01.05.03,0,.02-.03.01-.05ZM3.64,41.11c-.24-.17-.29-.11-.13.1.03.04.17.06.13-.1ZM9.75,17.79c.04-.09-.11-.06-.12-.04-.11.26,0,.32.12.04ZM5.52,42.35c-.08-.07-.16-.17-.15.05,0,.09.31.15.15-.05ZM13.14,16.21c.06-.11-.15-.17-.21-.03-.04.08.15.09.21.03ZM16.92,39.29c.14.11.11.01.09,0-.07-.05-.04-.13-.05-.2-.01-.06-.27-.07-.04.19h0ZM19.7,35.34s-.09-.05-.08.03c.03.39.28.11.08-.03ZM29.79,16.33c.07.05.32.02.26-.02-.25-.17-.22-.17-.26.02ZM9.76,39.18c0-.14-.05-.02-.33-.06.13.18.31.08.33.06ZM29.42,15.43s-.19-.46-.24-.33c0,.03.15.29.24.33ZM10.75,40.71c-.07.03.04.15.15.14.06,0,.04-.23-.15-.14ZM7.48,39.53c.03-.08-.2-.11-.25-.05-.06.07.13.13.25.05ZM7.17,39.86c-.1.19.21.06.24,0,0-.02-.13-.11-.24,0ZM26.93,27.06c-.05.05-.02.14.13.11.09-.02.12-.29-.13-.11ZM30.65,22.55c.05.04.17.01.13-.08-.1-.24-.21.01-.13.08ZM6.65,41.48c-.15.17-.19.22.19.08.13-.05-.15-.12-.19-.08ZM4.52,39.57s-.06.06-.04.07c.22.15.55.09.04-.07ZM30.48,23.37s-.1-.11-.11-.06c-.05.21-.06.23,0,.21.14-.04.2-.03.1-.16h0ZM20.25,39.6c-.16-.13-.29.07,0,.13.06.01,0-.11,0-.13ZM20.99,39.08c.06-.12-.2-.24-.17-.11.02.08.11.16.17.11ZM2.77,41.37c.03-.05.02-.09.01-.09-.22-.12-.21-.1-.23-.08-.04.05,0,.06.22.17ZM2.65,42.18s.56.1.04-.1c-.07-.03-.04.08-.04.1ZM8.32,20.5c.19-.12-.09-.4-.06-.02,0,.07.05.03.06.02ZM19.64,36.45c-.09-.07-.1-.05-.08-.02.04.08-.06.2.04.21.05,0,.15-.05.04-.19h0ZM6.94,42.38c-.01-.09-.3-.15-.22-.03.07.12.12.07.22.03ZM21.29,33.86c.14-.05-.31-.23-.21-.06.05.09.1.1.21.06ZM1.23,43.95c.09-.03-.06-.17-.19-.13-.07.02,0,.16.19.13ZM6.29,41.19s.08.07.11.04c.14-.16-.25-.3-.11-.04ZM11.97,41.98c0-.09-.13-.08-.15-.03-.03.06.18.31.15.03ZM8.3,22.47c.03-.1-.12-.42-.11-.25,0,.04-.02.23.11.25ZM5.86,39.83s0-.07-.1-.07c-.04,0-.09-.1-.13.07,0,.01,0,.03.01.04.08-.07.14.04.22-.04h0ZM20.39,34.53c.15.12.13-.08-.01-.17-.05-.03-.1.07.01.17ZM8.77,18.8c-.16.21.08.15.11.03.01-.05-.04-.08-.11-.03ZM7.26,40.19c-.05-.19-.42.03-.02.03,0,0,.01-.01.02-.03ZM22.45,37.25c0-.16-.29-.12-.22-.08.07.04.17.14.22.08ZM7.37,42.15c.07.02.14.04.12-.1,0-.06-.2-.09-.12.1ZM11.2,42.12c.14.13.19.13.03-.12-.03-.05-.15-.03-.03.12ZM1.41,45.89c.04-.15.06-.09-.14-.22-.02.07.06.08.07.14,0,.11.05.08.08.08h0ZM31.07,21.59s0,.03,0,.03c.06.01.06.07.09.11.12.15.12-.24-.09-.14h0ZM.78,43.34c-.11,0-.1.12-.05.16.06.06.13-.08.05-.16ZM25.16,28.05c.19.07.22-.14.17-.13-.11.02-.21.03-.17.13ZM9.51,17.71c0-.12-.07,0-.17-.06-.12-.06.15.31.17.06ZM18.78,39.96c.08.07.23-.01.15-.08-.09-.08-.22.01-.15.08ZM1.37,43.03c.16.14.14-.11.02-.15-.04-.02-.11,0-.02.15ZM3.8,40.96c-.03-.17-.28-.2-.17-.04.03.04.09.07.17.04ZM3.2,41.73c.16.16.25.04-.05-.11-.08-.04.03.12.05.11ZM25.05,28.26c.02.06.04.11.06.15.03.06.28-.22-.06-.15ZM5.15,43.29c.07.07.13.04.14-.04.01-.1-.2-.09-.14.04ZM19.87,39.15c-.1,0,0,.31.06.18.02-.05-.02-.15-.06-.18ZM17.18,37.64s-.19.07-.01.15c.13.05.1-.07.01-.15ZM16.52,37.69s.01.09.05.08c.16-.07.22-.22-.05-.08ZM18.63,40.2c.18.13.14.03.02-.12-.01-.01-.13-.04-.02.12ZM5.35,39.55c-.21-.17-.16.06-.06.08.1.01.12-.04.06-.08ZM18.52,40.79c-.1-.07-.19.02-.02.11.02,0,.06-.02.02-.11ZM7.95,40.9c.11-.19-.31-.05-.1,0,.04.01.08.03.1,0ZM8.38,23.4c.08-.05-.03-.17-.14-.09-.08.06.1.12.14.09ZM8.8,41.65c.2-.32-.11-.25-.05-.02,0,.02.03.02.05.02ZM1.07,45.92c.12.14.2-.05-.05-.09-.02,0-.07.03.05.09ZM5.09,42.45c.12.09.1,0,.02-.13-.01-.03-.13-.04-.02.13ZM.64,45.1c.09.16.3.03.06-.06-.02,0-.09,0-.06.06ZM5.66,42.88c-.11-.27-.33-.06-.03,0,.04,0,0,.03.03,0ZM12.76,38.68c.15.13.4.03.03-.05-.02,0-.03.03-.03.05ZM2.57,40.18c-.08-.08-.15.08-.08.12.09.05.13-.03.08-.12ZM12.59,38.78c-.01-.14-.24-.13-.16-.03.03.04.09.06.16.03ZM10.57,42.09c.05.03.16-.1.07-.14-.08-.04-.19.07-.07.14ZM3.18,41.05c-.06.01-.09.13-.02.2.04.04.07.02.06,0-.06-.06.02-.13-.04-.2h0ZM20.58,30.85c.03-.36-.1-.25-.06-.01,0,.03.03.02.06.01ZM11.18,38.28s-.04-.14-.13-.11c-.07.03-.04.19.13.11ZM9.19,39.66c-.03-.17-.23-.12-.19-.06.05.06.11.09.19.06ZM27.82,26.72c.07.06.12.11.14.06.04-.1-.37-.29-.14-.06ZM11.5,41.56c-.05.08.15.11.16.12.11.05-.11-.21-.16-.12ZM11.37,41.35s-.09,0-.09.02c-.01.08.24.32.09-.02ZM13.24,41.63c.28.08.19-.08.02-.08-.01,0-.04.03-.02.08ZM9.08,39.07c-.3-.22-.21-.05-.04.05.08.05.05-.03.04-.05ZM10.87,40.4c-.14-.01-.04.16.05.16.02,0,.02-.11-.05-.16ZM3.88,44.6c.15.13.07-.14-.05-.1-.04.01.02.06.05.1ZM4.15,43.55c.11.06.08-.14,0-.11-.07.03-.02.08,0,.11ZM11.71,42.1c.05-.14-.16-.1-.13-.03.03.05.08.06.13.03ZM.9,44.09c.14.1.17-.23,0-.05,0,0,0,.03,0,.05ZM11.83,42.39c.13.13.26,0,.08-.04-.12-.03-.1-.01-.08.04ZM2.83,40.82c0-.07-.05-.05-.14-.03-.11.02.15.16.14.03ZM1.02,44.51c-.13-.07-.2-.02.02.1.03.01.06,0-.02-.1ZM7.9,39.11c0-.1-.17-.08-.2-.03-.03.06.14.04.2.03ZM2.73,46.81s.09.1.11.04c.03-.11-.23-.19-.11-.04ZM2.94,47c.16.16.12.05.02-.11,0-.02-.08,0-.02.11ZM28.86,25.65c.14.24.09-.26-.06-.02l.06.02ZM16.54,39.41c-.05-.24-.21-.11-.14-.05.02.02.09.05.14.05ZM15.84,38.67c.14.11.19-.06.05-.08-.09-.01-.07.04-.05.08ZM6.15,42.5c0-.07-.14-.06-.19.06.03.01.16,0,.19-.06ZM25.51,27.74c-.06-.11-.2-.05-.14.04.01.02.12-.02.14-.04ZM16.42,38.2c.04-.08-.11-.2-.09-.03,0,.07.07.04.09.03ZM17.32,38.99c.12.09.13.08.02-.1-.03-.05-.13,0-.02.1ZM25.15,27.87c.07-.21-.24,0-.11.02.04,0,.08.01.11-.02ZM20.56,39.45c-.11-.09-.11.02-.06.07.05.06.11-.01.06-.07ZM4.36,40.29c.07,0,.11,0,.07-.06-.07-.12-.13.01-.07.06ZM4.63,40.45c-.06-.06-.11-.13-.14-.07-.02.06.07.08.14.07ZM20,34.02c.08-.07.02-.29-.04-.03,0,.03.02.03.04.03ZM5.82,40.23c.26.1.12-.06.03-.07-.03,0-.03.04-.03.07ZM9.18,42.99c.25.05.01-.16-.01-.02,0,0,0,.01.01.02ZM8.07,41.44c.03-.09-.14-.26-.03,0,0,0,.02,0,.03,0ZM12,16.47c.05.06.13,0,.1-.04-.05-.07-.13-.01-.1.04ZM29.67,25.12c.03-.09-.03-.09-.06-.06-.05.04,0,.1.06.06ZM5.38,38.43c.13.04.15-.03.01-.06-.06-.02-.03.03-.01.06ZM8.09,23.17s.04-.02.03-.04c-.07-.12-.26-.17-.03.04ZM4.6,41.91c.04-.08-.13-.27-.04,0,0,0,.02.01.04,0ZM8.09,40.25c-.03-.16-.21-.09-.13-.04.02.01.09.05.13.04ZM29.3,26.03c-.02-.16-.25-.04-.11,0,.04,0,.07,0,.11,0ZM8.62,24.05c.02-.09-.04-.1-.06-.07-.04.04,0,.11.06.07ZM9.75,40.15c.04-.06-.04-.13-.09-.1-.01,0-.07.11.09.1ZM8.63,38.79s.16.06.14,0c-.01-.04-.13-.07-.14,0ZM8.17,38.28c.05-.04.01-.12-.03-.09-.08.04-.02.12.03.09ZM8.15,18.87c-.06,0-.1.21-.01.12.05-.04.05-.11.01-.12ZM29.35,14.89s.01-.14-.06-.09c-.06.04.01.13.06.09ZM9.61,25.43s.08,0,.09-.01c0-.04-.12-.2-.09.01ZM9.38,38.92c.16.07.05-.17-.02-.07-.02.03,0,.05.02.07ZM29.97,15.86c.03-.08-.02-.09-.05-.08-.06.02,0,.1.05.08ZM8.79,37.56c.03-.06-.05-.09-.08-.05-.02.03-.01.08.08.05ZM3.46,45.97c.08-.06.03-.18-.02-.13-.02.02-.05.14.02.13ZM13.05,40.53s.01-.14-.09-.08c-.05.03.02.12.09.08ZM3.64,46.74c-.12-.08-.18.02-.02.06.07.02.04-.01.02-.06ZM3.34,46.54c-.12-.11-.1.04-.08.04.08.02.14.02.08-.04ZM19.59,35.25c.04-.08-.02-.11-.05-.09-.07.03-.03.13.05.09ZM.44,44.39c0-.13-.17-.1-.12-.05.08.09.07.06.12.05ZM14.89,39.87c.05-.04.05-.16,0-.14-.08.03-.07.14,0,.14ZM19.92,35.63c.08.02.09-.03.07-.06-.03-.04-.1,0-.07.06ZM9.2,25.32c.02-.06-.24-.14-.08,0,.02.02.05.03.08,0ZM14.7,16.29c.05-.14-.2-.09-.13-.06.04.02.09.04.13.06ZM17.47,39.65c.03-.17-.07-.16-.05,0,0,.02.03,0,.05,0ZM19.51,36.13c.07-.03-.03-.09-.05-.09-.06.02-.02.13.05.09ZM26.12,27.95c.05-.11-.19-.1-.04.02,0,0,.03-.01.04-.02ZM19.13,40.53c-.12-.27-.15,0-.03,0,0,0,.01,0,.03,0ZM18.21,38.56c-.05-.06-.1.02-.08.05.03.06.13.02.08-.05ZM12.21,16.34s.03-.06-.05-.09c-.03.12.02.11.05.09Z"/>
        <path class="cls-1" d="M16.17,16.1c-.5-.06-.42-.1-.49.03-.03.07-.03.12-.09.07-.19-.17-.05-.23-.17-.27-.12-.04-.3-.14-.45-.06-.11.06-.35-.25-.25-.22.09.03.16-.02.25-.02.19,0,.09.1.4.16.18.03.81.13.8.31h0Z"/>
        <path class="cls-1" d="M18.79,17.45s.01.04.04.03c.09-.03.16.03,0,.09-.14.05-.44-.17-.49-.24-.04-.05.12-.08.05-.1-.06-.02-.46-.32-.53-.31.21.29-.02.21-.15-.13-.05-.15,1.06.5,1.07.66h0Z"/>
        <path class="cls-1" d="M14.7,38.01c.03-.06-.16-.14.04-.19.07-.02.09.12.41.11.35,0-.59.34-.45.08h0Z"/>
        <path class="cls-1" d="M13.57,37.85c-.14-.21-.14-.05-.45-.18-.03-.01-.08-.16.03-.16.07,0,.15-.02.17.08,0,.02.06.04.07.04.2-.12.37.38.18.22h0Z"/>
        <path class="cls-1" d="M19.94,18.73c.53.51.04.23,0,.17-.13-.27-.32-.25-.34-.35-.04-.22.29.11.33.18Z"/>
        <path class="cls-1" d="M20.02,18.47c-.13-.12-.23-.27-.4-.34-.03-.01-.03-.07,0-.08.15-.06,1.41,1.39.41.42h0Z"/>
        <path class="cls-1" d="M18.69,17.79c-.13.09-.18-.07-.42-.19-.02-.01,0-.09.03-.09.21-.03.19.16.39.21.01,0,.02.05,0,.08h0Z"/>
        <path class="cls-1" d="M12.28,37.38c.14.13-.14.11-.21.22-.01.02-.12.05-.08-.2.01-.08.22-.08.29-.02h0Z"/>
        <path class="cls-1" d="M11.55,37.63c-.13.1-.38-.12-.34-.17.04-.06.29-.05.34.18h0s0,0,0,0Z"/>
        <path class="cls-1" d="M14.28,15.57s.07.07.02.09c-.19.07-.79-.02-.02-.09Z"/>
        <path class="cls-1" d="M17.43,16.66c-.07.01-.23-.05-.31-.1-.14-.09.2-.15.31.1Z"/>
        <path class="cls-1" d="M15.33,37.91c-.56-.15.21-.28-.01,0h.01Z"/>
        <path class="cls-1" d="M21.49,19.99s.05.02.15.14c.39.47-.22-.08-.15-.14Z"/>
        <path class="cls-1" d="M18.54,17.98c.17.05.25.06.23.11-.09.15-.4-.16-.23-.11Z"/>
        <path class="cls-1" d="M15.91,16.45c-.41-.14,0-.26.02-.11,0,.04,0,.08-.02.11Z"/>
        <path class="cls-1" d="M15.49,37.64c-.09.03-.15-.06-.13-.1.04-.1.22-.05.13.1Z"/>
        <path class="cls-1" d="M9.4,17c-.06-.08-.08-.07.09-.18.07-.04.05.09.03.09-.04.01-.15.08-.12.08h0Z"/>
        <path class="cls-1" d="M19.86,32.18c.1.2-.21.17-.12.05.05-.06.09-.08.12-.05Z"/>
        <path class="cls-1" d="M15.12,37.48c-.08.04-.16-.07-.12-.13.05-.07.18.06.12.13Z"/>
        <path class="cls-1" d="M8.47,18.47c-.01-.08-.06-.28.03-.22.14.08,0,.22-.03.22Z"/>
        <path class="cls-1" d="M20.64,20.01s.05,0,.1-.01c.27-.04-.05.28-.1.01Z"/>
        <path class="cls-1" d="M7.36,37.58c.02-.08.09,0,.14.02.07.04.07.04.01.12.05,0-.18-.03-.15-.14Z"/>
        <path class="cls-1" d="M9.94,37.02c-.11.07-.35-.06,0-.04.02,0,0,.03,0,.04Z"/>
        <path class="cls-1" d="M16.7,16.34c-.09.06-.2-.09-.12-.1.06-.01.15,0,.12.1Z"/>
        <path class="cls-1" d="M21.1,19.6c-.13-.14-.02-.13.09.02.04.06.04.09-.09-.02Z"/>
        <path class="cls-1" d="M16.17,16.08c.06-.02.21.03.24.11-.04,0-.24,0-.24-.11Z"/>
        <path class="cls-1" d="M14.37,37.58s0-.09.01-.11c.04-.05.34,0-.01.11Z"/>
        <path class="cls-1" d="M15.93,37.35s-.04-.07-.03-.07c.24-.21.1.17.03.07Z"/>
        <path class="cls-1" d="M19.44,33.21s-.03-.1,0-.1c.16-.05.08.15,0,.1Z"/>
        <path class="cls-1" d="M20.88,19.23c-.04-.05.14.2-.11-.05-.02-.02-.02-.08.11.05Z"/>
        <path class="cls-1" d="M20.46,19.07c.09.16-.08,0-.1-.06.04,0,0-.01.1.06Z"/>
        <path class="cls-1" d="M6.71,37.89c-.07-.09-.02-.08.07-.08,0,.14,0,.13-.07.08Z"/>
        <path class="cls-1" d="M21.12,20.2s.09-.02.1,0c.06.12-.09.12-.1,0Z"/>
        <path class="cls-1" d="M10.69,37.7c-.05,0-.12-.2-.04-.14.1.07.06.1.04.14Z"/>
        <path class="cls-1" d="M16.94,16.65c-.05-.07.04-.13.08-.06.02.03-.02.11-.08.06Z"/>
        <path class="cls-1" d="M13.23,37.86c.02.1-.02.1-.07.08-.05-.03-.05-.19.07-.08Z"/>
        <path class="cls-1" d="M14.57,15.47c-.05.05-.12,0-.1-.04.01-.03.1-.08.1.04Z"/>
        <path class="cls-1" d="M15.03,37.53c.07.09.02.11-.06.09-.05-.01-.04-.17.06-.09Z"/>
        <path class="cls-1" d="M9.39,17c.18.17-.13.16-.03.04.03-.04.06-.04.03-.04Z"/>
        <path class="cls-1" d="M6.38,38.56c.07.03.03.11,0,.11-.25-.03-.1-.15,0-.11Z"/>
        <path class="cls-1" d="M11.02,38.74s.01.04-.01.07c-.16.19-.65-.4.01-.07Z"/>
      </g>
    </g>
  </g>
</svg>