<?xml version="1.0" encoding="UTF-8"?>
<svg id="Layer_2" data-name="Layer 2" xmlns="http://www.w3.org/2000/svg" viewBox="0 0 48 27.18">
  <defs>
    <style>
      .cls-1 {
        fill: #bdbdbd;
      }
    </style>
  </defs>
  <g id="Layer_1-2" data-name="Layer 1">
    <g id="_ëÎÓÈ_1" data-name=" ëÎÓÈ 1">
      <g>
        <path class="cls-1" d="M7.05,27.14s-.05-.04-.11-.02-.14-.02-.17-.1c-.05-.14-.06-.14-.18.01-.11.14-.12.14-.07.01.03-.08,0-.2-.06-.26-.15-.15-.24-.15-.18,0,.04.1.02.11-.12.03-.09-.05-.24-.1-.33-.12-.09-.02-.3-.16-.48-.32s-.35-.29-.4-.29-.06-.04-.04-.08c.03-.04,0-.08-.08-.08-.08,0-.13-.07-.13-.2,0-.11-.03-.19-.06-.19-.14.04-.42-.12-.42-.22s-.1-.15-.27-.12c-.04,0-.05-.04-.02-.11.03-.08-.02-.13-.17-.14-.13-.01-.25-.1-.3-.21-.05-.11-.15-.18-.25-.18-.1,0-.2-.06-.22-.13-.03-.07-.08-.11-.12-.08s-.12-.05-.17-.16-.13-.2-.16-.2c-.06,0-.65-.5-.87-.74-.07-.08-.16-.14-.19-.14-.11,0-.63-.55-.63-.67,0-.06-.11-.16-.24-.22-.13-.06-.22-.13-.2-.17.02-.04,0-.07-.07-.07-.17,0-.45-.34-.32-.38.06-.02.1-.12.1-.22,0-.38.17-.69.37-.69.13,0,.19-.04.19-.15,0-.16.27-.33.51-.32.08,0,.25.1.37.22.13.12.29.25.38.3.08.05.19.17.24.27.05.1.11.14.12.09.04-.11.63.4.63.55,0,.05.04.1.1.1.3.02.47.05.52.1.03.03,0,.05-.05.05-.08,0-.08.03,0,.12.05.06.08.15.05.2-.05.09.2.19.37.15.07-.01.1.03.08.13-.02.12.01.14.14.11.12-.03.17,0,.17.09,0,.12.01.12.08.01.06-.09.08-.09.08-.01,0,.06.04.08.1.05.06-.04.08-.01.04.08-.05.13.06.18.33.14.06,0,.1.04.1.1s.11.16.24.22c.31.13.38.23.12.18-.12-.02-.2,0-.2.05,0,.05.04.1.1.1s.14.02.18.02c.14.02.41.2.3.2-.06,0-.1.04-.1.08,0,.05.09.06.2.03.13-.03.2-.02.2.04,0,.05.13.15.28.21.16.06.28.17.28.24s.03.1.07.08c.04-.02.11.05.16.17.05.12.12.19.14.16.07-.07.26.2.26.39,0,.09.03.13.06.07.12-.17.32-.19.37-.03.02.09.11.16.21.16.09,0,.17.04.17.09s.07.06.16.04c.11-.03.18,0,.24.11.11.21.11.23-.06.27-.11.03-.1.04.04.05.17,0,.27.17.1.17-.04,0-.14.11-.22.24s-.18.23-.22.22c-.08-.03-.45.29-.45.38,0,.03.03.04.07.01.04-.03.1,0,.13.04.06.1.04.1-.46.12-.21,0-.38-.01-.38-.05h0Z"/>
        <path class="cls-1" d="M46.1,14.42c-.1-.04-.2-.16-.23-.25-.19-.6-.16-3.89.04-5.35.04-.33.06-.63.03-.67-.03-.04,0-.12.04-.18.05-.06.1-.26.12-.46.05-.45.17-1.01.29-1.31.05-.13.1-.47.12-.76.02-.29.08-.64.13-.78.12-.27.14-.37.19-.76.02-.16.11-.5.2-.76.09-.26.16-.56.16-.66s.07-.26.17-.35c.13-.13.15-.19.07-.28-.06-.07-.06-.12-.01-.12.19,0,.28.27.29.84,0,.33.03.61.06.61.11,0,.22.47.14.56-.06.06-.06.09,0,.09.05,0,.1.06.1.13s-.03.11-.06.09-.07.16-.08.4c0,.24-.06.49-.1.55s-.06.16-.03.23c.03.07.01.13-.04.13-.07,0-.07.04,0,.16.06.11.06.17,0,.21-.05.03-.06.12-.03.21.03.09,0,.24-.07.34-.07.1-.1.27-.08.4.04.19.01.22-.15.22-.12,0-.15.03-.09.06.11.07.12.72.01.79-.04.02-.04.1,0,.18.08.16,0,.52-.11.48-.1-.03-.11.26,0,.41.06.09.05.1-.06.06-.08-.03-.14-.02-.14.03s.05.08.12.08c.15,0,.15.08,0,.29-.1.14-.1.19,0,.39.09.17.09.24.02.29-.06.04-.08.18-.04.43.04.31.03.38-.11.45-.17.09-.22.24-.07.24.05,0,.07-.03.04-.07-.02-.04.03-.09.12-.11.1-.03.16,0,.16.07,0,.06-.04.11-.09.11-.05,0-.07.08-.04.2.03.11.01.22-.03.25-.04.03-.08,0-.08-.04,0-.07-.03-.07-.12,0-.18.15-.15.62.04.78.19.16.21.26.04.26-.07,0-.12-.04-.12-.08s-.03-.08-.07-.08-.05.09-.03.2.08.18.13.16c.09-.03.29.31.29.5,0,.05.04.12.1.14.08.03.08.04,0,.05-.05,0-.08.06-.05.13.03.09-.01.12-.16.12-.12,0-.21.04-.21.08s.07.08.16.08c.19,0,.21.13.03.22-.07.04-.12.1-.12.12.02.17-.02.19-.25.17-.15-.01-.28.02-.3.08-.03.07-.09.08-.21.02h0ZM46.88,13.33c0-.12.01-.12.08-.02.06.09.08.09.08.01,0-.1-.19-.34-.27-.34-.02,0-.04.11-.03.24,0,.25.14.35.14.1h0Z"/>
        <path class="cls-1" d="M39.72,15.5c-.14-.26-.24-.82-.3-1.7-.08-1.19-.09-3.89-.02-4.48.03-.27.08-.76.1-1.09s.06-.72.09-.87c.05-.34.43-3.15.52-3.9.16-1.3.26-1.73.42-1.73.1,0,.42.34.54.56.07.13.07.21.01.27s-.04.11.05.18c.15.11.22.97.08,1.14-.12.15-.22.12-.17-.04.04-.12.03-.12-.04-.02-.06.09-.05.16.05.27.1.11.11.16.04.19-.06.02-.1.09-.1.15,0,.07.04.1.09.06.06-.04.08-.01.04.08-.03.08-.05.16-.06.19,0,.03-.04,0-.08-.07-.05-.08-.07.03-.06.37,0,.27-.01.53-.04.58s0,.12.06.16c.16.09.23,1.02.08.96-.08-.03-.1.05-.09.34,0,.21-.02.46-.05.57-.04.12-.03.17.01.14.04-.03.07.04.06.15-.01.11.02.2.07.2.05,0,.04.03-.03.08-.08.05-.09.08-.02.08.07,0,.07.06-.03.2-.07.11-.1.2-.06.2s.07.17.05.38c-.04.57-.07.7-.2.7s-.26.37-.16.44c.04.03.06.14.05.26-.01.12,0,.22.05.22s.05.03.03.07c-.03.04,0,.09.06.11.06.02.04.04-.04.05-.17,0-.19.17-.03.17.06,0,.13.06.16.13.07.18.06.19-.09.2-.08,0-.19.03-.26.07-.1.06-.1.09-.01.2.06.07.07.13.03.13s-.06.11-.04.24.07.24.11.24.05.04.03.08c-.03.04-.08.06-.13.04s-.07.05-.07.16.03.21.07.21c.1,0,.17.31.07.34-.05.02-.03.12.06.25.12.19.13.23.03.3-.07.04-.07.07-.02.07s.09.08.09.18c0,.1,0,.31.01.46.02.41-.02.6-.18.82-.09.13-.15.16-.18.09-.02-.06-.1-.1-.16-.1s-.1.04-.09.1c.01.06-.04.1-.12.09-.08,0-.12.02-.1.06.02.04,0,.09-.04.11s-.12-.02-.16-.1h0Z"/>
        <path class="cls-1" d="M35.14,14.42c-.01-.14-.06-.28-.11-.31s-.06-.09-.03-.14,0-.17-.07-.27c-.14-.2-.17-.55-.04-.55.04,0,.03-.08-.04-.19s-.1-.21-.07-.24c.03-.03.01-.05-.04-.05s-.09-.07-.09-.16-.03-.17-.07-.2-.07-.18-.08-.35-.05-.47-.09-.67c-.04-.2-.1-.54-.13-.76s-.06-.49-.07-.6c-.08-.6-.16-1.85-.16-2.7,0-.94.1-3.29.16-3.78.02-.13.07-.58.12-.98.05-.41.12-.85.16-.98.04-.13.05-.25.03-.28-.04-.04.19-.9.31-1.12.06-.12.11-.12.27-.05.11.05.2.13.2.17s-.05.03-.11-.02c-.09-.07-.13-.07-.17,0-.06.1.09.23.26.23.06,0,.1.05.1.1,0,.07.03.06.08-.02.06-.1.1-.09.23.07.09.11.14.26.12.36-.02.1-.05.28-.07.42-.02.13-.07.25-.12.27s-.06.06-.04.1c.03.04.01.12-.03.17s-.08.15-.08.22c0,.07-.02.29-.05.49s-.01.47.03.6c.05.17.07.19.08.08,0-.13.02-.14.08-.04.1.16.16.72.2,1.88.02.75,0,.94-.07.91-.16-.06-.21.04-.07.15.16.12.23.85.1,1.1-.06.1-.06.15,0,.12.14-.09.18.09.06.22-.07.07-.1.18-.07.26.03.07,0,.16-.05.2-.07.04-.06.09.04.2.07.07.11.16.09.19s-.01.1.04.15c.06.07.06.15,0,.26-.14.26-.11.5.05.44.11-.04.12-.01.09.12-.02.09-.01.18.02.19s.07.26.09.55c.01.29.06.55.11.58.06.04.02.12-.1.22-.11.09-.17.19-.14.22s.09,0,.13-.06c.13-.2.18-.08.27.64l.04.28-.14-.31c-.15-.33-.26-.32-.26.04,0,.16.04.23.13.23.08,0,.11.04.09.11-.02.06,0,.15.05.2.13.13-.04.12-.18-.01-.09-.08-.1-.08-.05,0,.04.06.02.14-.03.17-.06.04,0,.08.15.11.14.03.25.09.25.14s-.03.07-.08.04c-.13-.08-.26.26-.17.43.12.22.11.57-.02.52-.06-.02-.1.04-.11.18,0,.12-.05.23-.1.25-.05.02-.09.06-.09.1,0,.09-.26.4-.33.4-.03,0-.07-.06-.09-.14-.03-.13-.04-.13-.05,0-.02.25-.22.15-.24-.12h0Z"/>
        <path class="cls-1" d="M30.13,16.55s0-.12,0-.19c0-.07-.04-.15-.11-.18-.09-.03-.11-.11-.07-.25.03-.13.02-.2-.04-.2-.05,0-.09-.04-.09-.1s-.07-.33-.16-.62c-.21-.69-.61-2.88-.73-3.94-.05-.46-.51-4.26-.53-4.5-.03-.24-.11-.53-.18-.64-.08-.13-.1-.21-.04-.23.06-.02.07-.14.02-.37-.04-.19-.1-.52-.15-.74-.04-.22-.12-.58-.18-.8-.05-.22-.1-.63-.1-.91,0-.28-.03-.5-.06-.5-.07,0-.08-.61-.01-.86.03-.1.09-.16.13-.13.05.03.07,0,.03-.08-.05-.12-.04-.12.15,0,.11.07.2.18.2.23s.13.13.29.16c.26.05.28.07.24.26-.03.13-.01.24.05.28.07.05.06.06-.04.03-.11-.04-.14-.02-.1.08.03.07.05.18.05.24s.04.11.08.11.08-.06.08-.14c0-.12.01-.12.07-.02.04.06.06.15.03.18-.02.04,0,.12.06.19s.11.27.12.45c0,.19.08.38.16.45.08.07.11.09.08.03-.03-.06-.02-.16.02-.24.06-.11.08-.07.08.16,0,.16-.02.29-.05.29-.16-.02-.22.03-.23.17,0,.09.02.16.06.16s.08.05.08.12.04.12.09.12c.06,0,.06.03,0,.11-.06.08-.07.13-.01.17.05.03.08,0,.08-.05s.02-.07.05-.05.06.24.07.47c.01.23.05.44.09.46.04.03.07.16.07.29,0,.15.04.23.1.22.06-.01.1.02.1.06s-.13.08-.29.08c-.17,0-.27.03-.24.08.03.04.08.06.13.04s.07,0,.07.04.03.07.07.04c.12-.07.31.03.35.2.03.1-.01.16-.11.19-.23.06-.19.3.05.3s.24.01.07.33c-.11.22-.11.27,0,.5.07.15.1.39.08.56-.03.22,0,.29.06.25.06-.04.07,0,.04.11-.03.1,0,.21.07.29.14.14.17.62.04.62-.04,0-.08-.04-.08-.08s-.04-.08-.08-.08c-.13,0-.09.23.05.31.08.04.11.11.07.17-.05.08-.08.08-.13,0-.04-.06-.09-.08-.12-.06-.03.03.02.12.11.21.23.23.3.5.14.5-.07,0-.11.04-.08.08.03.04.12.08.21.08.19,0,.2.06.01.27-.14.15-.13.16.04.11.21-.05.34.14.19.28-.07.07-.12.05-.2-.07-.06-.09-.14-.13-.18-.09-.04.04-.02.09.04.13s.09.1.06.15c-.03.05-.01.11.03.13s.08,0,.09-.06.04-.01.09.1l.09.2.05-.2c.05-.19.06-.19.11.07.09.46.07.52-.14.47-.17-.03-.19-.02-.12.1.06.12.05.14-.1.11-.1-.02-.13-.01-.08.01s.1.12.1.2c0,.18.09.2.22.06.05-.05.11-.08.13-.06.07.07.11,1.12.04,1.12-.04,0-.07.03-.07.08s.05.06.1.04c.06-.02.14.07.2.22.1.27.04.38-.23.39-.13,0-.18.33-.07.41.08.05,0,.4-.09.4-.03,0-.03.12.02.28.07.23.06.32-.05.48-.16.24-.29.27-.29.06,0-.13,0-.13-.09,0-.08.14-.23.19-.24.08h.01Z"/>
        <path class="cls-1" d="M24.79,17.94c-.03-.15-.11-.3-.17-.32-.1-.04-.1-.07-.02-.17.06-.07.07-.12.02-.12s-.15-.14-.24-.3c-.09-.17-.24-.43-.32-.58s-.18-.38-.21-.5-.07-.27-.1-.34c-.03-.09,0-.13.09-.13.07,0,.11-.04.08-.08-.03-.04-.08-.06-.12-.04-.04.02-.09.01-.11-.03-.02-.04.07-.1.22-.13.24-.06.25-.06.06-.1-.25-.05-.51-.38-.54-.69-.01-.14-.04-.33-.07-.42-.02-.1,0-.19.06-.22.07-.03.06-.08-.05-.16-.1-.08-.14-.19-.11-.32.02-.11,0-.21-.03-.23-.04-.01-.14-.39-.23-.83s-.19-.89-.21-1.01c-.02-.11-.05-.54-.06-.94,0-.41-.04-.74-.07-.74s-.06-.06-.06-.14c-.01-.32-.07-1.03-.08-1.03-.03,0-.07-.39-.11-1.12-.03-.52-.08-.82-.15-.87-.07-.05-.08-.09-.01-.11.06-.03.08-.42.06-1.27-.03-1.22,0-1.54.14-1.45.04.03.05.08.03.12s0,.07.05.07.07-.05.05-.11c-.05-.12.09-.29.23-.29.05,0,.12.09.14.19.04.15.09.18.23.14.12-.03.11-.07-.02-.1-.18-.05-.18-.06.07-.06.21,0,.26.02.22.11-.03.07,0,.12.07.12.17,0,.41.39.3.49-.06.06-.05.17.04.38.08.19.13.61.15,1.16.01.48.04.9.07.94s0,.09-.06.12c-.08.03-.08.06,0,.12.06.04.1.09.09.11-.03.07.09,1,.16,1.16.04.09.03.22-.02.29-.06.1-.04.22.07.48.11.25.13.35.06.38-.07.02-.07.06.02.15.07.07.12.28.13.48,0,.2.02.38.03.42,0,.03.04.22.08.42.04.2.12.5.19.67.1.26.11.32.01.38-.1.06-.1.08,0,.15.09.06.09.1.03.18-.06.07-.06.15-.02.22.04.06.05.14.03.18-.02.04.01.06.08.06.08,0,.1.05.08.12-.03.07,0,.12.05.12.08,0,.08.03,0,.11-.07.08-.07.13,0,.17.05.03.07.08.04.12s0,.17.05.3c.05.13.11.3.12.38s.07.2.12.26.06.13.03.17c-.03.03-.08.01-.1-.04-.02-.06-.07-.08-.11-.06-.09.05.06.22.27.3.16.06.18.18.06.26-.05.03-.03.1.04.17.07.07.12.25.12.4,0,.19.04.28.12.28.12,0,.14.09.14.5,0,.12.03.22.07.22s.07.04.07.09-.04.06-.08.04-.08-.01-.08.04.04.09.08.09c.13,0,.32.45.27.63-.03.1-.1.16-.17.15-.07-.01-.13.05-.15.17-.04.24-.11.33-.11.13,0-.08-.05-.13-.13-.11-.07.01-.12.06-.11.1.02.13-.19.2-.34.12-.18-.1-.19-.04-.02.12.12.12.12.13,0,.13-.07,0-.15-.05-.17-.12-.07-.18-.21-.14-.15.04.03.09.01.16-.03.16s-.11-.12-.13-.28h0Z"/>
        <path class="cls-1" d="M21.17,19.55c-.07-.15-.11-.31-.09-.35.02-.04,0-.12-.03-.19-.06-.09-.09-.1-.14-.01-.05.07-.1.04-.17-.12-.06-.12-.14-.29-.17-.36-.04-.08-.07-.19-.07-.24s-.1-.18-.23-.29c-.16-.13-.22-.23-.19-.34.02-.09,0-.16-.04-.16s-.11-.14-.14-.32-.08-.32-.11-.32c-.05,0-.15-.21-.5-1.01-.06-.13-.1-.27-.09-.31,0-.04-.04-.16-.11-.26-.07-.11-.11-.19-.09-.19s-.07-.2-.19-.45c-.13-.25-.21-.5-.19-.56.03-.07,0-.12-.09-.12s-.13-.07-.13-.16c0-.09.04-.16.09-.16s.03-.06-.04-.12c-.07-.07-.1-.18-.08-.24.03-.07,0-.12-.04-.12s-.09-.06-.09-.14-.06-.27-.14-.42-.19-.44-.26-.64c-.06-.2-.16-.45-.22-.56-.06-.11-.1-.24-.1-.29s-.09-.29-.19-.52-.27-.76-.37-1.16c-.1-.4-.28-.98-.41-1.3-.14-.37-.23-.75-.24-1.05-.02-.89-.06-.83.45-.8.27.02.48.07.53.14.07.09.07.09.04-.02-.06-.19.08-.26.18-.09.04.08.11.11.14.08s-.03-.13-.13-.22c-.13-.1-.16-.15-.08-.15.07,0,.16.03.22.06.13.08.28.5.23.64-.02.06.01.13.08.16.08.03.11.11.08.21-.03.1.01.2.09.27.11.09.12.1.02.11-.07,0-.09.03-.04.06.11.08.28.48.28.66,0,.08.07.17.16.2.19.06.2.12.07.4-.08.18-.07.23.08.36.1.08.17.19.17.24s.03.09.08.09.06.05.03.12c-.03.07-.01.12.03.12s.1.1.14.22c.03.12.1.25.15.28.07.04.05.1-.06.18-.14.11-.14.12.07.17.14.03.2.09.17.16-.02.06,0,.11.06.11.06,0,.05.03-.02.08-.1.06-.09.1.06.24.1.09.22.33.27.53.05.2.12.38.16.4s.05.09.02.16c-.03.06,0,.12.04.12s.09.06.09.14.05.23.11.35.1.33.09.48c-.01.15.03.43.1.62.06.19.09.43.07.52-.04.14-.03.15.03.06.07-.1.09-.1.11,0,.02.07.08.25.13.4.06.16.12.38.14.5.02.12.09.22.15.22.06,0,.09.05.06.12-.03.07,0,.12.04.12s.09.07.09.16.06.25.13.36c.07.11.11.25.08.32s-.01.14.02.16c.04.02.09.17.12.32.03.17.1.28.17.28.06,0,.12.04.12.08s-.04.08-.09.08-.06.03-.04.07c.03.04,0,.09-.06.11-.06.02-.04.06.06.1.19.07.52.36.52.45,0,.03-.06.04-.13.01-.09-.03-.12-.02-.08.04.03.05.11.09.17.09s.13.04.16.08,0,.07-.05.06c-.06-.01-.12.06-.13.16-.02.12-.08.18-.18.18-.09,0-.16.04-.16.09,0,.1-.21.32-.3.32-.03,0-.13.01-.22.03-.13.03-.14.06-.06.14.12.12.13.23.02.23-.04,0-.14-.13-.21-.28h0Z"/>
        <path class="cls-1" d="M17.03,22.23c-.16-.1-.24-.19-.18-.21.16-.06.03-.18-.19-.18-.11,0-.18-.03-.15-.08.03-.04-.03-.12-.12-.18-.09-.06-.16-.14-.17-.18,0-.04-.15-.24-.32-.43-.18-.19-.32-.37-.32-.4,0-.03-.13-.19-.29-.36-.16-.17-.26-.34-.23-.39s.02-.07-.03-.04c-.05.03-.14-.04-.22-.15-.07-.11-.19-.2-.26-.2-.09,0-.11-.05-.07-.17.05-.14.03-.16-.12-.12-.15.05-.17.02-.17-.2,0-.14-.03-.23-.08-.2-.04.03-.18-.11-.3-.3-.12-.19-.29-.43-.38-.53s-.16-.21-.17-.24c-.02-.18-.15-.34-.26-.34-.08,0-.1-.03-.05-.06.17-.13.09-.36-.29-.74-.22-.22-.39-.46-.39-.52s-.04-.12-.08-.12c-.08,0-.4-.29-.4-.36v-.16c0-.06-.07-.14-.16-.17-.09-.03-.16-.11-.16-.19,0-.07-.07-.23-.16-.34s-.16-.26-.16-.34-.06-.14-.12-.14-.12-.05-.12-.11-.03-.13-.07-.14c-.08-.03-.46-.66-.58-.97-.05-.12-.12-.22-.16-.22s-.11-.14-.16-.3c-.05-.17-.14-.35-.19-.42-.1-.12-.14-1.21-.05-1.21.03,0,.1-.1.16-.22.1-.21.12-.26.15-.46,0-.04.06-.14.12-.22.09-.12.14-.13.36-.04.14.05.25.14.25.2s.04.1.08.1.07.04.06.1c-.01.06.08.11.24.13.17.02.27.08.31.18.03.09.08.16.12.16s.07.06.07.13.05.19.12.26.23.34.36.61.34.65.46.84c.11.2.32.56.45.8.13.24.26.46.29.48.03.02.14.2.25.4.11.2.32.58.46.84.15.27.31.58.35.7.05.12.12.22.15.22s.09.1.12.23.12.3.21.38c.09.08.16.21.16.29s.03.15.07.15c.16,0,.32.25.28.45-.03.17-.01.2.11.16.11-.03.25.1.57.55.23.32.42.62.42.66s.1.19.23.32c.12.14.21.29.19.35-.02.06,0,.08.05.05.11-.07.29.16.22.27-.03.05,0,.08.05.06.06-.01.14.09.18.24.04.14.12.26.18.26s.08.05.06.12c-.03.07-.01.12.03.12s.1.15.13.32c.03.18.1.34.15.36.17.07.15.45-.02.58-.09.06-.16.16-.16.23s-.05.12-.12.12-.12-.03-.12-.06-.09-.07-.2-.07c-.19-.01-.19,0-.06.1.22.17.1.13-.22-.06h0Z"/>
        <path class="cls-1" d="M13.19,25.08c-.06-.02-.1-.09-.1-.15s-.05-.09-.11-.07-.15-.05-.22-.16c-.06-.11-.14-.2-.19-.2s-.16-.08-.25-.19c-.09-.1-.23-.21-.31-.24s-.16-.14-.19-.26c-.04-.15-.1-.2-.25-.2s-.19-.04-.17-.14c.02-.1-.02-.13-.12-.12-.08.01-.14-.01-.14-.06s-.09-.08-.21-.08c-.18,0-.2-.03-.16-.2.04-.15.02-.2-.07-.2-.07,0-.16-.09-.2-.21-.04-.11-.12-.18-.16-.16-.04.03-.08.01-.08-.04s.06-.09.13-.09c.15,0,.1-.08-.07-.12-.25-.05-.44-.17-.59-.35-.09-.11-.26-.29-.38-.4-.17-.16-.2-.23-.13-.31.07-.08.06-.11-.04-.11-.07,0-.13.04-.13.08s-.15-.07-.33-.25c-.24-.25-.3-.35-.22-.4.09-.06.09-.08,0-.13-.06-.04-.08-.12-.06-.19s-.02-.17-.09-.23c-.11-.09-.13-.09-.07,0,.04.07.02.14-.04.18-.16.1-.28.09-.17-.02.12-.12.04-.31-.12-.31-.1,0-.11-.07-.08-.32.02-.18.01-.32-.02-.32s-.12-.06-.19-.13c-.1-.1-.13-.1-.13-.02,0,.06-.05.02-.11-.09s-.09-.24-.06-.28c.03-.04.02-.06-.01-.03-.03.03-.15-.04-.25-.15s-.22-.18-.26-.16-.12,0-.17-.07c-.08-.09-.06-.12.09-.15.16-.03.16-.04-.04-.05-.12,0-.2-.04-.18-.09.03-.04-.03-.12-.13-.17-.18-.09-.18-.1-.02-.16.15-.06.15-.06-.02-.07-.1,0-.22-.08-.27-.17s-.11-.15-.14-.12c-.07.07-.26-.12-.26-.25,0-.14-.2-.36-.27-.29-.03.03-.05-.03-.05-.12s-.04-.17-.09-.17c-.1,0-.32-.21-.28-.25.02-.02,0-.17-.04-.33-.06-.26-.05-.3.08-.3.08,0,.2.05.27.12.09.09.13.1.15.02.05-.14-.03-.38-.12-.38-.04,0-.06.05-.03.12.05.13-.07.17-.15.04-.03-.04-.1-.06-.17-.03-.07.03-.12,0-.12-.09s.05-.12.14-.11c.1.02.14-.03.14-.18,0-.11-.04-.23-.08-.26-.04-.03-.06-.08-.03-.11.09-.09.34-.1.44-.02.06.05.15.05.24,0,.08-.05.11-.09.06-.09s.04-.06.18-.12c.25-.11.27-.1.52.15.29.29.63.73.63.83,0,.04.07.11.16.16.09.06.16.15.16.22s.03.12.07.12.12.11.17.24.13.24.17.24.07.05.07.11.08.19.18.3c.28.3.62.83.62.97,0,.07.07.2.15.28s.17.22.2.3.11.14.18.14c.1,0,.3.24.65.8.04.07.13.16.18.19.06.04.1.11.1.17s.03.12.06.14c.08.03.74.84.74.9,0,.02.14.18.3.35.34.34.99,1.11,1.09,1.28.09.16.93.94,1.15,1.07.11.07.22.18.24.26.03.08.09.14.14.14s.23.11.39.24c.21.17.28.29.25.4-.02.09-.09.16-.15.16-.06,0-.09.05-.06.12.03.09.01.11-.1.07-.1-.04-.12-.03-.09.04.04.06,0,.09-.13.09-.1,0-.23.04-.29.1-.07.07-.12.07-.19,0-.13-.13-.25-.12-.2.02.05.12,0,.14-.17.07h0Z"/>
      </g>
    </g>
  </g>
</svg>