<?xml version="1.0" encoding="UTF-8"?>
<svg id="Layer_2" data-name="Layer 2" xmlns="http://www.w3.org/2000/svg" viewBox="0 0 48 42.75">
  <defs>
    <style>
      .cls-1 {
        fill: #bdbdbd;
      }
    </style>
  </defs>
  <g id="Layer_1-2" data-name="Layer 1">
    <g id="_ÎÓÈ_1" data-name=" ÎÓÈ 1">
      <path class="cls-1" d="M4.82,23.35c-.28-.64-.41-1.33-.26-2.02.07-.34.18-.69.34-.98.15-.27.33-.47.46-.58-1.28.19-2.57.39-3.85.58,5.66,5.17,10.01,11.62,12.67,18.81.47-.45.93-.91,1.4-1.36-.54.23.74-.14.98-.13-.19-.03-.2-.03-.05,0-.08-.02-.15-.05-.22-.08-.35-.16-.62-.35-.9-.6-.63-.56-1.14-1.25-1.54-1.98-1.09-1.97-1.87-4.16-2.77-6.23-1.95-4.47-3.9-8.94-5.84-13.41-1.44.48-2.89.96-4.33,1.43,6.34,5.65,11.16,12.86,13.9,20.9,1.35-.53,2.69-1.07,4.04-1.6-5.43-2.12-9.27-7.43-9.91-13.19-.15-1.36-.22-2.95.22-4.27.04-.12.15-.28.18-.39.04-.05.08-.1.12-.15-.48.43-1.07.63-1.76.61h-.16c.19.02.22.03.1,0,.16.08.34.13.5.22.63.34,1.17.89,1.63,1.44,2.22,2.65,4.08,5.63,5.59,8.74,1.75,3.58,3.02,7.39,3.79,11.3.06-.19.12-.38.18-.57-.03.04-.05.08-.08.12.45-.39,1-.61,1.64-.67h.65s-.09-.02-.14-.03c.04,0,.08.02.12.03-.09-.03-.18-.06-.27-.11.13.07-.12-.08-.15-.1-.48-.4-.62-.99-.55-1.6.16-1.5,1.09-2.99,1.74-4.33,1.36-2.83,2.83-5.61,4.4-8.33,3.15-5.44,6.69-10.65,10.58-15.59,2.23-2.83,4.57-5.55,7.02-8.19-1.15.38-2.31.76-3.46,1.13-.33-.07.06.04.12.07-.17-.09,0,0,.03.03.1.08.31.31.32.33.26.41.33.96.35,1.43.04,1.02-.29,2.08-.71,2.99-1.35,2.96-2.89,5.84-4.48,8.67-3.15,5.58-6.72,10.92-10.65,15.99-.97,1.25-1.93,2.53-3.15,3.55-.16.13-.32.26-.49.39-.04.03-.49.34-.26.19-.14.09-.28.17-.43.25-.09.05-.17.09-.26.14.21-.1.2-.11-.03,0,.43-.18.17-.05.04-.02-.26.06-.24.06.05,0-.25.03-.25.03,0,0-.05,0-.35-.03-.07,0-.24-.03-.35-.05-.54-.12.09.32.17.65.26.97,6.5-9.07,13.39-17.87,20.65-26.35,2.05-2.4,4.13-4.77,6.24-7.12-1.43.12-2.86.24-4.29.36-3.77,11.08-9.64,21.38-17.24,30.28-2.13,2.5-4.39,4.89-6.78,7.14-.21.2-.57.5-.47.85.09.34.56.46.84.5.95.15,2.44-.16,3.16-.85,8.83-8.31,16.05-18.2,21.18-29.19,1.43-3.06,2.68-6.19,3.76-9.38.27-.81-1.2-.82-1.6-.78-.95.08-2.03.41-2.69,1.14-7.46,8.31-14.56,16.94-21.29,25.85-1.9,2.52-3.76,5.06-5.6,7.62-.27.38-.24.81.26.97,3.12,1.03,6.59-.24,9.03-2.25,2.18-1.79,3.84-4.17,5.51-6.42,3.49-4.7,6.65-9.64,9.51-14.74,1.4-2.5,2.72-5.05,3.96-7.64.78-1.62,1.62-3.94.65-5.66-.76-1.36-2.35-1.59-3.77-1.23-1.74.43-2.93,2.2-4.07,3.49-1.84,2.08-3.61,4.21-5.31,6.4-3.45,4.43-6.61,9.08-9.46,13.91-1.43,2.41-2.78,4.87-4.05,7.36-.65,1.27-1.27,2.54-1.87,3.82-.59,1.26-1.29,2.6-1.13,4.03.37,3.31,5.62,2.74,7.22.85.23-.27.36-.52.32-.89-.04-.32-.13-.64-.2-.96-.16-.71-.33-1.41-.52-2.11-.34-1.26-.74-2.5-1.19-3.73-.95-2.59-2.12-5.09-3.51-7.47-.69-1.18-1.42-2.33-2.21-3.44-.75-1.06-1.51-2.18-2.42-3.12-.9-.94-2.09-1.67-3.41-1.81-1.8-.18-4.17.49-5.14,2.14-.61,1.04-.63,2.34-.66,3.52-.02,1.14.09,2.28.31,3.39.9,4.41,3.66,8.51,7.44,10.96.98.64,2.03,1.19,3.12,1.61.78.31,1.9.08,2.65-.24.43-.18,1.62-.71,1.4-1.36-2.8-8.19-7.74-15.61-14.2-21.37-.64-.58-1.94-.26-2.64-.03-.43.14-1.99.75-1.69,1.46,1.69,3.89,3.39,7.77,5.08,11.66.86,1.98,1.73,3.96,2.59,5.94.67,1.54,1.37,3.1,2.59,4.3,1.71,1.68,4.12,1.75,6.26.86.38-.16,1.63-.73,1.4-1.36-2.71-7.34-7.19-14-12.96-19.28-.43-.39-1.22-.32-1.74-.25-.71.1-1.55.35-2.11.83-1.51,1.3-2.33,3.37-1.49,5.29.36.81,1.84.55,2.5.36.43-.12,2.33-.77,1.98-1.56h0Z"/>
    </g>
  </g>
</svg>