<?xml version="1.0" encoding="UTF-8"?>
<svg id="Layer_2" data-name="Layer 2" xmlns="http://www.w3.org/2000/svg" viewBox="0 0 48 47.51">
  <defs>
    <style>
      .cls-1 {
        fill: #bdbdbd;
      }
    </style>
  </defs>
  <g id="Layer_1-2" data-name="Layer 1">
    <g id="_ëÎÓÈ_1" data-name=" ëÎÓÈ 1">
      <g>
        <path class="cls-1" d="M15.87,24.79c.02.22.23.32.08.33-.07,0-.13.08-.2.03-.02-.01-.08.07-.07.1.01.06.09.01.13.07-.39.23-.18-.09-.47.1-.13.09.03.15.04.18.07.26.31-.02.34,0,.01,0,.45-.11.48-.05.04.08.13.11.17.17.03.05.06.03.08,0,.07-.07.19.01.22.12.05.16.21.08.15.17-.09.14-.24-.15-.27-.15-.02,0-.04.07-.06.08-.07,0-.12.02-.14.09-.07-.04-.12.01-.16.06-.08.07-.24-.02-.13.19.15.31.44.31.21.44-.09.05.05.08.03.14,0,.03-.06-.02-.15.1-.06.08-.15-.05-.2.02-.02.03,0,.11-.06.1-.15-.02,0-.29-.12-.35-.18-.09-.21-.33-.4-.43-.25-.14-.07-.31-.37-.44-.02,0-.06.01-.03.05.09.1.18.15.09.21-.02.02-.05.03-.03.06.03.04,0,.09,0,.13,0,.05.06.1,0,.14-.05.03-.1,0-.15-.05-.11-.11-.16,0-.2-.03-.14-.18-.11-.15-.09-.2.09-.26-.12-.1-.33-.38.04-.16-.07-.05-.22-.2-.34-.37-.17,0-.3.04-.06.02-.27-.19-.29-.33-.04-.23-.64-.69-.33-.71.4-.03.08-.18.17-.31.03-.05-.17-.27-.31-.3-.03,0-.18.12-.07-.08.05-.09-.08-.23-.16-.25.02-.21-.14-.39-.18-.37-.04.02.02.06.01.09-.06.13.04.26.18.28-.02.08-.09.19.02.33.04.05-.03.05-.05.04-.03-.02-.06-.07-.19-.1-.03,0-.08.02-.1-.02-.01-.03.03-.05.06-.08.1-.11-.17-.23-.17-.3,0-.28-.47-.63-.03-.64.13,0,.03-.27-.1-.33.02-.25-.07-.19-.17-.44,0-.02-.12-.36-.18-.32-.17.11.03.16-.04.28-.08.15.12-.04.13.32,0,.16.2.2.27.14-.13.4.04.34-.23.33.02.02-.01-.04,0-.08.09-.2-.31-.03-.2-.18.1-.13,0-.12-.08-.39-.03-.12-.11.02-.16.03-.11.03-.14-.13-.08-.21.03-.04.12-.03.09-.1-.02-.04-.02-.09-.02-.13-.01-.18-.25-.07-.2-.16.06-.1.02-.22.06-.32.04-.11-.19,0-.22,0-.18-.05.16-.09.1-.17-.14-.16.03-.11.04-.15,0-.04-.02-.08-.06-.08-.16-.02-.04-.01-.17-.19-.09-.11-.21.14-.24,0-.05-.23-.09-.25-.01-.36.06-.09-.03-.2-.11-.28-.42-.4-.8-2.95-.84-4.46-.03-1.1.11-.56-.82-1.12-.7-.42-1.14-.46-1.21-.72.06.01.12.03.18.04.09.02-.13-.23-.17-.04-.27.02-.74-.49-1.01-.6-.3-.13-.33-.32-.42-.33-.13-.01-.12-.11-.12-.2.35.08-.08-.26-.02-.02-.09,0-.15-.07-.21-.12-.07-.06-.19-.03-.23-.12-.05-.1-.13-.16-.14-.22.27,0,.18-.07-.05-.2.02-.24-.34-.19,0,0-.14.22-.05.03-.26,0-.16-.02-.24-.24-.2-.27.22-.19-.23,0-.84-.75-.04-.05-.12-.19-.02-.21.12-.02-.06-.27-.05.02-.07-.03-.11-.12-.21-.12-.04,0-.06-.04-.06-.08,0-.37-.63-.44-.78-1.13.27.1-.1-.35-.1-.22,0,.1.11.06.11.23-.38-.07-2.15-3.22-1.82-3.05.11.06.04.15.18.13-.02.12-.06.15.02.18.02,0,.06.07.07.07.08-.01-.34-.82-.39-.87-.03.09-.03.14-.08.1-.03-.02-.11,0-.09-.07.07-.21-.23-.09-.22-.53,0-.12-.1-.16-.12-.26,0-.02-.31-1.2-.36-1.24-.06-.05.08-.13-.04-.27-.01-.02-.24-.78-.16-1-.02.02.19.11.13,0-.05-.08-.04-.47.19-.05.05.1-.12.16.03.26.12.08-.12-1.07-.13-1.09-.05-.09-.04.16-.07.16-.07,0-.16-.11-.11-.22.09-.17-.09-.06-.1-.26.21.09.31.36.27-.11,0-.02-.05-.05-.06-.04-.06.12-.13.01-.21.16-.06-.03-.06-.12-.13-.13-.11-.02-.02-.45.01-.57.05-.19.08-.03.13-.15,0,0,4.68-.26,4.69-.22.02.05-.05.05-.25.34-.08.12-.05.08.11.22.09.08.09.08.21,0,.07-.05-.02.03.13.4.02.06-.02.1,0,.16.02.06.05.17,0,.2-.02-.03-.1-.24-.09-.31.02-.07-.13-.05-.1-.17,0-.03.06-.07.02-.09-.05-.02-.09-.1-.17-.06-.03.02-.05.03-.08-.01-.03-.05-.04-.05-.1,0-.07.06-.06-.07-.25,0-.08-.09-.11-.01-.25,0-.12.01-.03.17-.09.29-.02.04.08.04.05.1-.02.03-.04.07.01.09.26.1.1-.19.28-.1.05.02.09-.05.15,0,.05.04.09-.05.14-.06.24-.07.14,0,.28.07.12.05-.04.1,0,.23,0,.02.02.03.04.02.07-.02.06.05.08.08.05.04-.05.07-.15.11-.09.04,0-.09-.1-.2-.07-.07-.14.11-.21-.02-.06-.1-.03.1-.1.19,0,0,0,.02.02.02.09,0,.09.13.17.12.06-.01.31.05.31.16-.02.26-.12.19,0,.41.02.04.04,0,.05-.02.04-.08.13-.03.19-.08.03-.02.03.16.15.11.05-.02.02.17.17.21.04.01-.06,0-.09.17,0,.04-.14.03-.15.04-.15.02-.19.2-.14.2.24,0,.16.16.36.2.26.04-.11.28-.15.26-.11-.06-.14.11-.24.04-.07-.05-.07.02-.05.05.07.09.25,0,.29.16,0,.02-.04.05,0,.09.07.06.1.07.19,0,.02-.02.09-.01.07-.05-.02-.04-.07-.05,0-.08.09-.03.07-.11.15-.05.16.11.1.25.24.42.14.17-.37.16-.03.3.08.03.03.09.01.1-.09.02-.09.14-.09.14-.04.02-.01-.02-.08-.08-.06-.05-.11,0-.12.04-.02.07.11.18-.04.16-.07.15-.23.03-.28.12-.18.28.13.23.28.39.02.01.11-.06.06-.08-.14-.06-.24-.21.08-.07.1.04-.05-.18-.04-.23,0-.02.06-.1.09-.04.2.4.48.43.44.3-.05-.14.01-.1.06-.2.11-.24.34.69.7,1.06.2.21.18.2.11.23-.18.06.31.04.3.45,0,.16.22-.05.22.13,0,.14-.05.16-.13.14-.14-.04-.15.03-.14.05.14.42.13.37.21.42.21.14.37.19.3.36-.02.05.13.12.11.03-.01-.04.04-.05.05-.03.06.1.18.12.26.18.05.04.09-.12.18-.03.1.09.13.24.34.29.02,0,.05.03.06.06.08.21.59.57.68.76-.19.02.25.36,0,0,.17-.03.3.14.33.14.09,0,.15-.01.2.03.21.17.16-.03.4.11.26.15,0-.44,1.24-3.05.8-1.68,3.12-4.73,4.75-5.19.23-.06.35-.33.78-.3.12,0,.18-.13.29-.13.11,0,.2-.03.28-.08.15-.08.17,0,.28.02.02,0,.07,0,.02-.05-.06-.04-.04-.05.15-.11.14-.04.11.16.39.07.19-.06.22,0,.32-.09-.12-.07-.29.12-.38.01-.04-.04,0-.1.04-.09.12.04.71-.33.76-.07-.06-.01-.33.1-.22.1.14,0,.22.02.21-.11.07,0,.09-.25.26-.17.09.04,0-.02.71-.15.47-.08.59.04.64.04.07.01.12-.08.2-.06.04,0,.09,0,.14,0,.22.03.23-.1.31-.01.08.09.14.06.19.1-.06.05-.27.08-.15.16.09.06.23.04.31,0,.1-.06.23-.14.27-.12.07.04.64.11.65.12.07.04.06.14.17.15.7.06.43.3.6.34.28.06.37.04.34.23-.01.07.09.12.12.06.14-.24.1.33.35.13.09-.07.17.03.11.1-.07.07-.03.06.05.2.05.08.53,0,.33.16-.05.04.03.06.05.08.04.03.05-.01.09-.05.04.3,1.94,1.96,1.63,2.21-.06.04-.1.03,0,.2.03.05.22.03.27.2.02.08.09.16.06.26,0,.03.03.08.04.13,0,.04-.11.08.11.29.28.27.15,1.22.27,1.31-.08.13.13.15.06.26-.14.23.09.3.05.44-.03.13.04.27-.07.39-.1.1.12.34,0,.43-.12.09.07.55-.13.76-.03.03,0,.12-.04.15-.1.08.07.42-.09.61-.11.13-.12.3-.2.44-.06.1.1.04-.02.33-.19.46-.31.7-.32.75-.01.34-.37.26-.3.42.06.15-.16.46-.35.57-.23.14-.05.19-.21.25-.19.07.09.14-.07.28-.1.09-.23.31-.41.35-.05,0-.31.22-.3.28.02.3-.37.21-.5.54-.05.14-.1.11-.28.32-.11.13-.15.08-.18.11-.07.08-.12.18-.24.21-.1.03-.15.12-.21.2-.05.06-1.64.87-1.9.95-.22.07-.18.13-.39.17-.04,0-.08.14-.18.09-.19-.11-.17.14-.54.19-.25.03-.41.22-.59.2-.06,0-.09.03-.14.07-.36.31-3.78.69-4.8.34-.1.02-.39-.08-.31.14.07.21-.04.15.09.81.3,1.55.62,1.8.83,2.29.04.1-.05.19.03.19.14,0,.03,0,.8,1.42.07.13-.05.17-.07.21,0,.02.01.07.03.06.27-.19.55.6.25.29-.04-.05-.06-.03-.09-.03,0,.07,0,.05.01.07.02.12-.08.03-.12.04-.04.01.05.15.09.14.09-.03.16.09.26.03.04-.02.08-.1.13-.03.63.88.44.81.08.38-.04-.04-.1.03-.09.05.07.2.48.42.86,1.09.2.36.3.17.39.33,0,.2.35.41.23.46-.08.03.03.14.09.1.07-.05.15.03.16.04.36.47,1.15,1.06.98,1.15.11.12.08.08.17.04.05-.02.1.02.07.07-.05.08.07.21.15.15.13-.1.34.27.15-.11-.06-.11.12.04.15-.12.02-.1.24-1.07.34-1.1,0,.56.03.13.22.1.09-.01-.08-.05-.05-.16.08-.31-.07.05-.18.07.09-2.3,5.51-8.16,2.18-4.01-.13.16.23.04.26-.08,0-.02.17.04.12-.13-.03-.13.03-.18.16-.14.07.02.14-.08.13-.11-.03-.08-.07.04-.13,0-.05-.05,0-.09.14-.27.09-.12.15.12.33-.16.12.06.16-.18.35-.31.14-.11.08-.16.09-.17.17-.09.04-.17.2-.33.26-.25.3-.35.44-.33.17.03.14-.15.25-.16.08-.01.26-.16.2-.22-.04-.04-.06-.03.07-.15.07-.07.12.06.17,0,.12-.12.39-.21.3-.3-.04-.04-.02-.05,0-.05.13-.07.29-.3.44-.35.26-.09.3-.23.37-.18.09.06.23-.04.22-.08,0-.05-.05,0-.09,0-.2,0,.51-.42.46-.28-.04.12.17,0,.07-.04-.07-.02.52-.41.76-.49.16-.06.04.12.12.08.15-.07.29-.14.44-.21.05-.02,0-.07.02-.09.13-.1.25-.22.43-.16.31.09.16-.17.29-.1.13.07.04-.13.15-.13.23.01.33-.18.49-.08.04.03.08.02.06-.05,0-.04.11-.08.14-.04.06.08.13.05.2.03-.03-.07.02-.09.07-.12.09-.06.14-.14.23-.03.04.05.13,0,.14,0,.12-.18.25-.06.41-.05.07,0-.04-.14.11-.14.2,0,.67-.15.73,0,0,.02.03.02.04,0,.03-.12.12-.13.21-.13.05,0,.22-.12-.31-.07-1.95.17-3.32.95-3.45.95-.3,0-.44.28-.84.34.01.02-.1-.22,2.05-.95,2.81-.96,2.97-.09,3.66-.64.11-.09.07.05.2.05.16,0,.34-.04.26.08.1.04.07-.02.1-.06.19-.24.29.15.37-.08.02-.06.07-.04.11-.04h0c.02.14.19.09.32.13.38.15.3-.41.67.14.03-.04-.08.07-.17.02-.1-.05-.23,0-.34-.08-.04-.03-.15.07-.21.11-.16.1-.16-.16-.83,0-.05.01-.04.16.26.03.21-.09.34.22.4.13.1-.14.19.24.31.3.03.02-.03.1.02.14.08.07.19.07.27,0,.02-.02.03-.07.07-.01.08.12.19.09.51.12.02,0,.05.06,0,.09-.07.04-.52-.04-.43.07.06.08.1.04.25.03.09-.01-.04.16.1.19.06.01.16,0,.13.05-.14.22-.11.18-.16.2.03.03.36.19.59.09.07-.03.03-.09.05-.11.25-.16.31.02.47-.03.02,0,.11.06.03.11-.15.11,0,.02-.36.16-.15.06.34.13.53.19.2.06-.06.03-.04.19,0,.06-.05.13-.02.21-.09,0-.18,0-.26-.05-.02,0-.24.02.32.14.05.01,0-.03,0-.04-.06-.07-.11-.07.18-.11.08-.01-.13-.1,0-.11.03,0,.07,0,.08,0,.07.08.18.02.25.09.03.04.06.1.01.11-.59.2-.36.35-1.05.07-.13-.05.19-.15.05-.17-.28-.04-.2.12-.4.11-.38-.02-.51.1-.43.1.11,0,.23.03.33,0,.13-.04.23,0,.34.02.12.01-.11.05-.05.17.09.18.2-.03.5-.01.21.01.08.17.21.21.41.15.29.18.42.15.04,0,.06.01.06.04,0,.12.14.13.18.23.02.06.19.03.37.21,1.53,1.48-.24-.33-.24-.37-.01-.1-.18.02-.2-.13-.02-.13-.13-.25-.23-.2-.19.11-.17-.11-.13-.13.3-.19.83-.11.5.01.16.03.24.02.26.14,0,.07.13.02.52.32.79.61,2.29,3.24,2.02,4.11.29.11.14,1.04.15,1.23,0,.11.21.15.23.15.13.05.08.25,0,.21-.38-.2-.35.93-.2.53.04-.1.13-.03.09.03-.05.07.03.12-.05.11-.08,0-.16.03-.19.16-.01.06-.09.06-.12.11-.03.06.05.09.05.14,0,.57-.3.92-.18.96.1.03.24-.21.24.02,0,.21-.31,0-.36.19-.04.15-.13.28-.15.43-.03.22-.2.21-.23.51,0,.1.08.03.16.02.12-.01-.03.23-.1.16-.11-.11-.2.05-.24.08-.04.04-.08-.02-.13,0-.02.01-.03.05-.01.06.14.07-.04.16.08.18.07.01.17.16.11.23-.16.15-.22-.09-.36.09-.08.1-.21,0-.16-.07.07-.1.01-.19-.01-.28,0-.03-.12-.03-.12,0,.03.16-.12.04-.2.14-.07.08.07.03.07.13,0,.02-.02.06-.03.06-.19,0-.39.08-.58,0-.07-.03-.45.32-.09.29.07,0,.23-.17.35-.2.25-.07-.35.39-.12.39.13,0,.14-.16.26-.07.15-.12.12,0,.28-.24.11-.16.28,0,.2.12-.27.37.02.32-.03.39-.06.07-.23.25-.19.14.09-.29-.13-.14-.16-.08-.15.33-.6.17-.52.58.02.1-.32.18-.43.02-.11-.17-.59-.15-.49,0,.05.08-.05.06-.08.08-.18.11.04.15.05.14.05,0,.1-.07.15-.03.09.07.05-.08.41.03.03,0,.04.03,0,.05-.41.25-.31.28-.46.27-.18-.01-.15.12-.23.1-.05-.01.04-.08-.02-.08-.03,0-.05,0-.08,0,0-.2.38-.06.01-.27-.09-.05.02-.12-.06-.14-.87-.25.28-.34.06-.38-.32-.06-.57.07-.54.11.05.07-.02.13,0,.2,0,.05.17.18.22.19.08,0-.04.08-.08.11-.08.08.12.12,0,.16-.15.05-.03-.19-.55,0,.03.07.1.05.15.09.06.05.12,0,.18,0,.07.09.16-.04.23.01.13.09.21-.14.29.07.05.14-.22,0-.25.06-.02.04.04.05.06.08.03.04.01.09-.05.08-.09-.02-.06-.08-.25-.04-.1.02-.15,0-.16.06,0,.06.05.04.1.06.06.02-.03.08-.06.23,0,.05-.11.11-.27,0-.1-.07.12-.17-.01-.17-.09,0-.22-.01-.18.08.06.15-.21.21-.22-.02-.02,0-.42-.1-.3.04.12.13.02.14-.13.23-.18.1.37-.08.34.2,0,.05-.06.02-.08,0-.11-.06-.69.12-.78.31-.02.05-.05.04-.08.02-.05-.02-.09.02-.13.03-.03,0-.08-.03-.07-.06.04-.08,0-.09-.06-.09-.14,0-.08-.11-.13-.14-.34-.22-.84.03-.91.08.03-.03-.55.05-.1.11-.02-.02.02.02-.06.05-.11.05.05.05.05.12.01.15,0,.11.23.12.02,0,.03.02,0,.03-.08.02-.23-.04-.23.15,0,.12-.25.03-.28,0-.1-.09-.21.07-.24-.04-.03-.1-.17-.25-.23-.24-.41.07-.3.03-.25.09.11.14-.17.06-.18.15-.01.17-.13.14-.08.21.02.03.14.01.11.08-.03.07-.34.08-.3-.06.02-.07-.08-.06-.1-.05-.15.09-.3,0-.3.12,0,.41-.15.03-.37.24-.04.03-.04.08-.07,0-.03-.08-.14-.1-.09-.18.06-.09-.13-.15-.22-.09-.03.02-.09.01-.13.01-.14-.17-.72.07,0,0-.07.22-.1-.05-.19.2-.04-.02-.08-.04-.11-.07-.01-.01.08-.04.04-.06-.21-.08-.09.1-.54-.15-.28-.15,1.05.06.79-.08-.2-.11-.36-.11-.49-.07-.12.04-.19-.07-.49-.03-.08.01-.08.02-.21-.01-.08-.02-.13.06-.21.05-.23-.04-1.2-.05-1.43-.05-.92,0-2.53-.42-1.48-.03.33.12.26-.15.37.19.03,0-.3-.1-.55-.1-.19,0,.56.28-.08.17-.07-.01-.16.05.22.17-.02.1.14.31-.12.32-.1,0-.1-.01-.16.07.11.06.33-.14.27.09-.03.14.12.14.12.11.07-.28,0-.41.23-.16.07.08.03-.11.12-.12-.02-.02-.01.03.11.1.07.05.04.03-.19.19-.02.01.04.1.13.09.11-.02.22,0,.32.04.03.01.08.02.11.01.2-.06.34.09.43.08.09,0,.05-.17.18-.11.02.01.07.02.07.02.08-.16.36.1.45-.06.03.08.12.06.17.1.29.19.92-.01.83.13-.05.08.02.06.05.08.26.09-.58.03-.58.05-.05.16-.11.07-.31.18-.14.08.92.13.97.05.09-.13.21.08.65-.05.03,0,.1.07.11.09.12.13-.4,0-.76.1-.28.08-.26-.09-.45-.03-.07.02-.13.06-.21,0-.02-.01-.07.01-.1.03-.21.09-.12-.08-.5,0-.18.04-.57-.14-.43-.2.05-.02.22.12.44.05.04-.01.2-.15.17-.2-.02-.04-.14-.03-.18,0-.1.07-.22.01-.32.07-.03.02-.07-.02-.08-.06-.07-.17-.17-.02-.22-.07-.08-.07-.42-.19-.5-.02-.06.12-.22-.01-.24-.07-.05-.12-.2-.15-.16-.1.23.34-.65-.18-.52.25.05.18.21.06.45.12.51.13.28-.05.52.1.07.04.14.05.2-.02.09-.1.25.08.16.1-.1.02-.24.02-.19.05.14.09-.1.03-.1.16,0,.06-.02.08-.08.01-.04-.04.08-.07-.12-.14-.45-.15-.22.24-.37.14-.1-.07-.35-.03-.26-.15.08-.11-.18,0-.3-.09,0,0-.02,0-.02.01-.04.13-.15.07-.23.08-.35.05,1.03.39,1.17.28.04-.04.26.07.3.05.13-.05.23-.1.2,0-.01.04.03.03.05.05.05.03.04.1-.01.07-.1-.04-.19-.05-.29.01-.03.02-.06.01-.07,0-.17-.17-.3,0-.72-.06-.08-.01-.12-.09-.18-.09,0,0-.29,0-.29,0-.17.1-.37-.05-.33.14,0,.05.02.09,0,.13-.04.07.04.12.02.18-.11.37,0,.2,0,.39,0,.03.04,0,.04-.02.02-.33.04-.17.14.15,0,.02-.16.11-.04.12.09,0,.09.05.09.12,0,.03.19.24.06.3-.02,0,.07.25.18.26.08,0,.06.09.06.16-.02.16.13.08.08.19-.03.07.03.1.1.13.18.07,0,.17.09.18.16,0,.18.22.2.38.03.24.17.14.25.41.05.16.3.05.14.17,0,0,0,.03.01.04.1.07.19.14.17.28,0,.05.11.08.16.14.02.03,0,.09.06.11.1.04.04.15.08.21-.35.15.12.25.15-.06,0-.07.08.07.09.13.03.28.08.24.31.34.06.03-.07.07.03.13.06.04.16,0,.12.09-.06.15.19.04.12.2,0,.01,0,.04,0,.04.11.02.16.1.22.18.07.09.05-.07.15-.03.32.13,3,3.45,7.93,3.92,3.44.33,5.73-.61,5.89-.53.11.05.19.02.29,0,.09-.03.03-.05,0-.07-.05-.04.01-.1.04-.08.11.07.25.09.36-.09-.08-.16.17-.16.25-.12.12.05.17-.15.39-.1.1.02.17-.04.25-.06.03,0,.06-.13.03-.14-.06-.02-.19.07-.16-.06.02-.07.01-.14.12-.15.08,0,.15-.06.24-.05.15.02.18-.17.24-.18.22-.06.12-.14.36-.14.31,0,.1-.27.3-.33.21-.06.2-.25.36-.22.03,0,.06.06.09.02,0-.01,0-.05-.02-.08-.04-.09.09-.02.31-.26.18-.19.4.13.33.17-.09.05.02.13-.04.19.11.03.1-.16.24-.07.09.06,0,.1-.07.19-.05.07-.01.14.09.11.04-.01.05-.04.08.01.02.03-.04.04-.11.11-.03.02,0,.07.04.06.03,0,.22-.13.18.05-.03.12.14.29.1.4-.02.06.09.07.1.14.02.11-.07.06-.05.1.03.06.01.15.08.19.11.05.14.14.16.24.02.12.1.21.24.57.03.07-.03.15.02.23-.06.12,0,.21.06.3.14.18-.05.25.06.32.12.08.14.31.13.45-.03.29.25.22.07.42-.14.15-.04.21-.19.39-.92,1.09-1.91,1.6-1.96,1.49-.03-.08-.08-.05-.13-.03-.17.05.02.12-.1.19-.27.16-.23.19-.26.18-.11-.04-.27.07-.38.21-.06.07-.08-.05-.2,0-.38.18-.33.15-.46.09-.06-.03-.15,0-.12.07.09.15-.26.3-.44.33-.02,0-.04-.02-.05-.01-.13.12-.31.09-.45.17-.11.07-.09-.07-.18-.05-.09.02-.02-.09,0-.14.07,0,.29-.07.31-.14,0,0-.18.04-.25.04-.02-.22-.15-.05-.07-.02.09.03.09-.02.02.13-.2,0-.19,0-.17.09.01.07,0,.14-.06.12-.05-.01,0-.15-.1-.15-.1,0-.22.01-.21.12.01.24-.72.37-.56.27.15-.1.04-.18.18-.18.23.01.23,0,.28-.1.05-.09-.1,0-.12-.06-.02-.05.02-.09.06-.11.04-.02,0-.05-.01-.04-.56.15-.35.3-.44.32-.5.12-.33-.22-.53.06-.09.12-.34,0-.43-.03-.02,0,.05-.12-.18-.08-.79.14-.81.04-.74.27.04.12-.17.05-.3.02-.09-.02.02-.1.01-.11-.04-.07-.01,0-.36-.03-.19-.01-.16.11-.25.15-.13-.3-.42-.31-.56-.23-.19.1-.17-.19-.28-.03-.14.2-.2-.08-.37.04-.15.1-.23-.2-.46.07-.21.25-.41-.02-.61.05-.2.07-.21-.32-.42-.1-.12.12-.11-.23-.25-.05-.08.09-.25.06-.29,0-.12-.18-.3.13-.64-.08,0,0-.29.02-.44-.07-.09-.05-.14.03-.22.07-.11.05-.02-.07-.07-.09-3.51-.85-6.36-1.98-9.74-5.43-.08-.09-.94-1.04-.95-1.06-.25-.25-.07-.34-.39-.54-.17-.11-.9-1.22-1-1.39-1.99-3.48-1.27-3.09-1.83-4.2-.21-.41-.04-.82.03-.43.18.99.33.6.25.49-.15-.19-.14-.64-.26-.81,0-.01,0-.04,0-.05.12-.13-.02-.07-.11-.85,0-.08-.08-.49-.15-.46-.02,0-.02.11-.03.16-.02.06-.13,0-.13-.02.04-.22-.1-.42-.08-.64,0-.1-.07-.16-.17-.19-.13-.05.16-.03.07-.28h0s.02,0,.02,0c.13-.4-.08-.43-.13-.48,0-.26-.33-.29-.36-.3-.06-.03-.09-.14-.03-.14.17,0,.29.19.28.02,0-.05.03-.08.08-.04.03.02.07.12.12.05.05-.06-.07-.12-.15-.2-.21-.23-.37-.13-.57-.09-.06.01,0,.03.08.09.07.06.02.15-.08.11-.09-.03-.1-.13-.18-.04-.06.07.12.09.17.22.06.17-.33-.19-.4-.08.1.03.09.13.12.2.09.23.12.09.19.23-.27.11-.11-.22-.35-.2-.14,0-.13-.08-.11-.09.12-.06.03-.05.03-.22,0-.12-.13.05-.15-.06-.04-.2-.24-.07-.34-.17.02.02,0-.06.08-.05.07,0,.24-.11.11-.16-.12-.04-.1-.17-.2-.15,0-.18-.05-.15.36-.13.04,0,.2-.06.16-.09-.03-.03-.15-.07-.2-.18-.16-.3-.47-.29-.56-.43-.05-.08-.52-.45-.53-.46-.08-.04-.09-.22-.16-.2-.25.09-.74-.8-1.07-.97-.06-.03-.04-.19,0-.17.09.03.21,0,.26.11.07-.05.14.02.21.01.27-.05.58.3.51.39-.17.23.21.14.23.14.07,0,.13.1.2.07.13-.06.16.25.29.15.01-.01-.05-.09-.15-.07.07-.18.19-.03.29-.24.1-.21.41.44.13.26-.02-.01-.07-.01-.07,0,.06.15-.32.08.04.53-.47-.09-.48-.1-.48-.06,0,.03.11.12.16.12.14,0,.05.19.24.21.1.01,0-.07.05-.11.04-.03.06-.06.06-.11.12-.02.24-.06.37-.05.36,0,.17.21.36.28-.05.07-.13.15-.05.16.14.01.13-.14.04-.15,0-.09-.04-.13-.11-.17,0-.04.03-.07.07-.05.23.1.24-.04.26.06.02.18.04.02.34.2.13.08.05-.15.24-.08.25.09.01.14,0,.24-.04.26-.31-.24-.42-.11-.07.09.2.29-.01.26-.08-.01-.2.08-.15.14.08.1-.14,0-.06.17.03.05-.11.09-.01.16.05.04.16.12.18.06.02-.05-.09-.08.03-.15.01,0,.05-.01.05,0,.03.08.14.1.15.19.02.13-.01.06-.1.03-.14-.05.08.19.09.04.37-.11-.03.03.18.18.27.19.15-.04.3.04.12.07.06-.56.11-.69.01-.04-.03-.09-.08-.05-.08.07-.15-.03-.11-.09.02-.03.17.04.16-.07-.01-.1-.06-.08-.01-.14.16-.19-.03-.11-.33-.4-.31-.3-.25.2-.44.06-.07-.05-.07-.16-.19-.11-.09.03-.16,0-.19-.1.26-.02.03-.08.02-.07-.02.07.02.1-.12.06-.13-.03.03-.15.02-.19,0-.03-.17-.23-.2-.13-.05.15-.13.12-.09-.1.05-.3.11,0,.43.04-.07.14.08.11.13.08-1.29-1.34-1.15-.89-2.95-2.99-.08-.09-.02-.24-.26-.22.04-.24-.52-.66-.56-.89-.13-.07-.95-1.53-1.08-1.63.05-.13.03-.19-.11-.22,0-.07-.03-.12-.06-.17-.05-.09-.09.15.06.17-.07.28,1.44,2.37,1.39,2.45,0,.02-.05-.03-.07-.04-.13-.1.01.18-.13.05-.04-.04-.08-.02-.08,0,0,.09.11.16.15.07.32.14.13-.03.5.22h0ZM6.54,7.57c0-.25-.24-.14,0,0,0,.1.09.16.12.15.06-.01-.06-.14-.12-.15h0ZM7.1,7.56c.14.22.2.04,0,0,.01-.07-.11-.28-.14-.2-.02.08.07.16.14.19h0ZM19.44,26.11c-.19-.09-.09.19,0,.13.06-.03.02-.08,0-.13.09,0,.18,0,.14-.05-.03-.04-.06-.06-.11-.04-.04.02-.02.06-.02.09h0ZM39.85,26.27c.05.21.3-.17,0,0-.01-.12-.18-.05-.21.11,0,.04.08.02.1-.07.02-.05.07-.05.11-.05ZM33.12,30.91c.02.06.06.07.1.05.09-.05.05.08-.03.09-.18.02-.13.05.05.05.14,0,.1-.26-.11-.19h0ZM26.73,21.12c.02-.09.05-.16-.01-.15-.05,0-.12.04-.03.13.06.05.06,0,.01.09-.09.19.4,0,.03-.06h0ZM5.56,5.87c-.26-.02.07.32.04.18-.05-.25-.08-.18.11-.12.16.05-.13-.19-.14-.05ZM2.43,8.12c-.05-.22-.19-.15,0,0-.08.16.1.24.12.21.02-.04-.03-.17-.13-.2ZM25.15,19.25c-.07,0-.26.08-.25.15,0,.05.25,0,.25-.15.29,0,.03-.14,0,0ZM39.47,18.86c0,.09,0,.22.12.22.07,0-.05-.19-.13-.21.01-.15-.21-.27-.21-.17,0,.14.08.19.22.17h0ZM6.65,6.15c.04.35.33.1.25.28-.02.05.05.08.07.06.03-.03.02-.1-.05-.12,0-.13.02-.23-.11-.27,0-.1-.2-.14-.27-.09-.11.07.08.06.11.15h0ZM2.98,7.73c-.06-.18-.31-.05,0,0,.03.08.24.18.26.12.06-.24-.04-.22-.26-.11h0ZM3.74,4.11c.06,0,.11,0,.09-.06-.08-.33-.1-.3-.18-.26-.19.1.15.06.1.33-.22.12.2.3.13.17-.02-.05-.03-.11-.1-.11-.03,0-.04-.03-.04-.06ZM21.97,22.27c-.1,0-.17.12-.16.17,0,.07.07-.03.15.05.04.04.05.02.15-.13.02-.03-.11-.02-.14-.09.1-.02.14-.13.1-.2-.02-.03-.12.05-.09.2h0ZM16.75,24.58c.02-.27-.42-.29-.08-.01.02.01.05,0,.08,0,.04.08.04.18.11.24.35.32.29.11.23.08-.2-.11-.08-.34-.34-.31ZM6,12.07c-.03-.06-.15-.18-.19-.15-.02.01.08.18.2.15-.06.12-.07.15.01.17.2.04.22.12.41.26.12.09.03-.17-.42-.42h0ZM38.31,20.18c.01.12.05.22.16.28-.02.12.04.21.1.3.13.2-.03.03.16.4.05.09.13.27.06.31-.2.12-.17-.32-.22-.46.03-.09-.14-.21-.14-.19-.01.05-.22.24-.11.31.18.12-.02.2.21.42.08.08.03.08-.14.23-.08.07.18.35.18.19,0-.18.43.04.24.06-.35.04-.21.38-.18.25.1-.39.2.42.2.44.03.08-.06.15-.03.24.09.25-.09.04-.17.12-.14.13-.09.05-.18.49-.02.1.03.06.2.08.05,0,.01.08,0,.09-.07.02-.25.02-.22.1.04.11.29-.02.22.23-.04.14-.15.09-.16.1-.04.05.32.31.21.34-.02,0-.75.47-.51.41.06-.01.09.04.1.07.03.09-.11.07-.13.1-.06.08-.21.32-.12.38.1.07.17-.07.2-.03.11.16-.23.17-.29.21.06.05.15.02.09.21-.02.06-.06.13,0,.2-.04,0-.29.41-.37.29-.05-.08.21-.13.12-.22-.06-.06-.33.23-.29.29.11.15-.24.09-.2.26,0,.06-.09.11-.07.16.02.03.04-.02.1-.05.05-.02.12,0,.09.07-.03.09-.07.06-.21.07-.02,0-.05.04-.01.05.17.02.22,0,.23.08.02.18-.59.12-.6.14-.13.21-.57.39-.46.44s-.08.11-.2.12c-.23,0-.26.01-.21.12.02.05.02.03-.31.22-.07.04.03.1.05.11.2.16-.23-.06-.35.14-.01.02-.15,0-.3,0-.13,0-.05.11-.15.16-.27.15-.29-.03-.53,0-.12.02.11.1.23.12-.03.09-.22.04-.33.21-.02.02-.19.13-.26.05-.05-.06-.09-.07-.44.04-.4.13-.5.02-.59.02-.06,0-.04.07-.07.1-.12.1-.27-.02-.26.17,0,0-.03.03-.03.03-.14-.16-.4-.02-.29-.18.05-.08-.09-.07-.04-.11.04-.03.11-.03.13-.09.02-.06.06-.08.12-.09.74-.09,1.09-.34,1.21-.32.13.02.1.08.23-.06.09-.09.19-.15.31-.06.11,0,.22.02.32.05.16.06.32-.11.25-.16-.1-.07-.22-.1-.16-.21.04-.06-.1-.05-.1-.08-.01-.07.14-.02.2-.08.12-.11-.34-.06-.4-.04-.24.07-.3-.09-.22-.14.41-.24.63.02.58-.14-.03-.1.09-.09.14-.06.07.05.14.03.21.03.07,0,.02-.05.01-.07,0-.04,0-.02.16-.03.09,0-.11-.11-.15.01-.03-.02-.1-.08-.08-.09.45-.29.5.03.56-.12.03-.07.18-.1.06-.17-.12-.08,0-.12.02-.13.09-.05.21.08.16-.07,0-.02.19-.28.38-.26.07,0-.05-.07.04-.13.07-.04.16-.04.22-.11.02-.02.06-.03.1-.04.15-.01-.06-.08.03-.18.17-.2.2-.22.27-.18.03.02.06-.04.01-.07-.06-.04-.09-.08-.03-.12.13-.08.14-.19.29-.45.03-.06.49-.15.25.21-.08.13-.16-.11-.3.02-.11.1.11.08.15.23,0,.04.02.02.11-.02-.02.04,0,.1-.06.11-.15,0-.32.25-.24.37-.13.29-.29.15-.22.24.03.04.04.05.25-.03.16-.06.02-.14.25-.22.02,0,0-.06-.01-.06-.24-.1.09-.03.05-.15-.04-.11.15-.03.08-.28,0-.01-.03-.02-.04-.02.06-.22.08.01.21-.17.16-.24.43-.2.2-.41.02-.02.05-.04.07-.07.03-.05-.12-.12-.04-.13.41-.06.11-.26.16-.35.12-.21-.4.04-.3-.24.03-.08-.09-.11,0-.23.04-.05.03-.21.11-.2.02,0,.02.03.03.2-.14.03.02.54,0,0,.21-.02.19.01.17-.09-.02-.15.21.03.22-.24.02-.74.31-.52,0-.74-.09-.07,0-.1-.02-.14-.42-.69-.22.33-.47.04-.04-.05.05-.1-.02-.17-.12-.12.03-.12-.18-.68-.05-.14-.16-.36,0-.34.07.01.1.07.12.02.02-.06,0-.05-.08-.22-.06-.13-.21-.06-.16-.17.05-.09-.05-.06-.12-.07-.18-.01-.08-.22-.01-.2.13.05.02-.15.2-.04.02-.06-.08-.35-.08-.04-.13-.06-.15-.19-.32-.12-.08.04-.07-.11-.07-.14-.01-.13-.12,0-.22-.15-.63-.9-2.13-1.15-2.98-1-1.57.27-1.41.58-1.65.43-.13.1-.35-.03-.36.11-.03.33-.38-.27-.74-.1-.05.02.01.11.07.11.96-.01-.22.45-.27.34-.02-.03-.17.06-.12.16-.18.1-.42.21-.28.05-.1-.04-.13,0-.2.09-.28.4-.47-.11-.49.27-.12.1-.29.01-.42.09-.02.01-.05,0-.08-.01-.05,0-.14.12-.04.13.09,0,.13.1.21.12-.05.14-.21.17-.31.26-.02.01-.15-.1-.18.08-.03.2-.36.35-.58.38-.19.03-.08.23-.09.24-.03.06-.17.2-.22.15-.29-.3-.67.31-.55.31.19,0,.11-.07.2.06.06.1-.13,0-.19.17-.19.03-.21-.12-.29,0-.06.07-.16.07-.19.14-.03.07.07.15.08.08.03-.15.29-.13.39-.22.04,0,.07.05.04.07-.23.2-.23.4-.42.38-.03,0-.04.02-.02.03.08.04.04.08,0,.12-.39.54-.44.67-.6.67-.02,0-.1.07-.08.12.01.04.05-.02.08-.04.21-.12-.17.28-.25.57-.12.4-.33.44-.26.53.08.11-.03.25-.05.27-.18.12-.14.41-.14.43-.1.49-.24.34-.21.57.03.22-.05.39-.13.24-.1.08-.13.28-.02.4.08.09-.04.15.01.23.08.14-.14.18-.18.26-.03.05.31.29,1.02.35.12.01,0,.13-.06.1-.22-.12-.71-.1-.56-.04,1.66.59.15-.1.44.27.09.12.23-.02.38.1.09.07.13-.09.2-.09.35,0,.32,0,.35.02-.08.05-.39-.01-.34.06.12.17-.17.04-.32.09.1.16,2.07.35,2.25.22.14-.09.12.1.25.08.08-.01.16-.04.23,0,.36-.14.33-.02.41-.09.19-.17.47.08.54-.05.07-.13,0,.02.17.03.09,0,.19-.02.27.02.24.13.1-.21.54-.04.29-.12.26.35.36.09.09-.23.03.03.39-.02.1-.01-.13-.06-.12-.11.02-.08.09-.1.14-.1.28.02.2-.06.3.03.12.11-.25.14-.13.16.38.07.11.27-.19.16-.09-.03-.36-.06-.31.02.16.26-.26-.05-.56.15-.02.02-.16.04-.16-.03,0-.08-.21-.1-.26.03-.04.09-.1-.02-.19-.06-.11-.05-.12.14-.29.04-.06-.04-.11.12-.49.09-.1-.24-.44,0-.46-.09,0-.03.08-.02.05-.07-.09-.13-.11.06-.28.05-.08,0-.15.12-.22.09-.14-.08-.03.15-.07.21-.04.05.05.09.05.14-.05,0-.09.02-.13.04-.07.04-.25,0-.19-.09.02-.04.09-.06.07-.1-.03-.06,0-.1.01-.15.04-.1-.36-.32-.49-.26-.02,0-.05,0-.08-.02-.13-.06-.32.07-.25.15.02.02.07.05.03.09-.06.06-.07.1.03.12.08.01.08.24.23.28.04,0,.02.16.15.14.19-.04.28.13.37-.02.08-.13.24-.04.23-.18.34-.12.65.01.72,0-.13.12-.55.02-.65.08.06.06.24-.01.17.11.29.09,0-.06.74-.09.07,0,.02-.08-.02-.07-.37.06-.2-.08-.27-.17-.03-.04-.01-.07.03-.07.11.02.14-.07.21-.12.02.21.8.06,1.03.16.12.05.31-.22.5-.11.04.02.11.01.16.02.09,0,.02.1.17.11.07,0,.11,0,.07.05-.1.12.07.07.13.11.05.03.12.07.18.06.13-.02.46.12.22.12-.02,0-.29,0-.2.06.08.06.13-.02.2.04.18.15-.68.08-.68.17,0,.1.18.02.26.09.06.05-.02.09-.03.08-.23-.11-.58-.11-.38-.18.02,0,.08-.02.02-.04-.2-.04-.22-.03-.33.1-.03-.15-.24-.11-.17-.06.11.07.49.17.34.22-.05.02-.15.02,0,.08.25.11.2-.11.31-.05.15.08.06-.05.28.01.03,0,.29.07.31.04.08-.09-.16-.02-.22-.13-.05-.09.11,0,.16-.03-.02-.12.04-.07.09-.04.09.05.11-.08.2-.02.16.1.17-.18.31-.08.16.12.11,0,.41.01.26.01.2-.1.38-.13.15-.03.3-.04.26-.12-.07-.13.11-.05.12-.15,0-.07.02-.14-.04-.13-.15,0-.16.1-.18.19-.02.09-.14.06-.17.02-.08-.11-.23-.03-.32-.12,0,0-.04,0-.05,0-.29.21-.24-.01-.43.07-.05.02-.21.06-.22,0,0-.1.25-.04.41-.16-.04-.02-.46,0-.26-.13.11-.07-.04-.05-.13-.08.12-.07.28,0,.44-.08.04-.02.13.1.22.01.1-.1.24-.03.43-.11.04-.02.1.02.16.03,0,.1.22.04.07.12-.02.01-.02.04,0,.04.2,0,.17.12.27.17.12.07.06.14-.04.18-.04.01,0,.05.04.07.03.02-.01-.07.27-.04.29.03.11.09.29-.02.02-.01.29.12-.05-.13-.05-.04.1-.11.15-.06.12.1.47-.17.67-.12.02,0,.02-.06,0-.07-.08-.06-.07-.01-.12-.1.25-.14.43.33.63,0-.08-.03-.02-.01-.15.02-.15.05-.08-.1-.19-.21-.11-.1-.02-.12-.15-.03-.05.04-.49.1-.61.08-.13-.02-.07.12-.12.14-.16.06-.3.13-.34-.02-.04-.17-.06.09-.19.01-.12-.07-.25-.06-.38-.06.02-.08.06-.12.12-.1.14.04,0-.02.38-.02-.02-.02,0,.05.04.05.71-.07.9-.21.78-.21-.24,0-.15.07-.29.04-.12-.02.15-.39.54-.11.01,0,.06,0,.05-.03-.07-.17-.09-.17.01-.18.23-.03-.13-.24.31-.22.11,0,.44-.06.39-.16-.07-.13.34-.16.4-.25.09-.14.24-.16.37-.2.06-.02.07.03.12.07.12-.16.26-.06.33-.26.02-.06-.09-.09-.1-.11-.03-.04.12-.22.26-.11.02.01.1-.06.04-.08-.14-.05.13-.18.16-.23.03-.05.26-.28.28-.29,0,.1.07.05.14-.02.02-.02-.08-.02-.09-.02.02-.24.33-.59.33-.62.01-.09-.09-.13-.12-.21.02,0,.36.02.38-.26.01-.14.05-.05.3-.57.04-.08.12.03.14-.02.02-.06-.03-.06-.07-.09-.04-.03,0-.11.07-.1.1.01.14-.06.2-.16.12-.22.02-.13-.03-.21-.03-.04-.14-.14-.06-.17.13-.12.34-.32.23-.45-.05-.06-.16.11-.16.01,0-.06-.03-.13.01-.19.04-.07.04-.14.04-.21,0-.33.13-.21.07-.33-.04-.08-.04-.26.08-.27.15-.01-.24-.16-.09-.3.21-.2.08-.54.1-.66.02-.16-.19-.14-.12-.24.05-.06.05-.06-.16-.41-.08-.13.06-.11-.06-.28-.01-.02-.45-.89-.59-.95.08-.2-.07-.08-.31-.51-.03-.04-.06-.09-.13-.09,0-.11-.08-.15-.17-.16-.05,0-.05.15.18.16,0,.17.27.43.44.6h0ZM6.93,13.11c.17.26.19-.03,0,0,.02-.18-.13-.1.06-.18.05-.02.03-.07,0-.08-.25-.09-.47.02-.35.06.11.04.19.13.28.19ZM35.13,29.89c.07.03.36.07.39.03.07-.1.16-.07.2-.12-.2-.11-.66.1-.87.16-.04,0-.04.1.02.08.16-.05.26-.06.25-.15h0ZM25.2,22.66c.03-.3-.26-.03,0,0,.02.16.22.03.24.04.05,0,.1.12.15.07.04-.04.11-.14.06-.15-.21-.04-.3-.08-.45.05h0ZM25.7,18.82c-.21.06-.1-.14-.17-.15-.09,0-.23.53-.05.39.26-.21.21-.15.22-.25.22-.1.25-.04.31-.07-.05-.06-.15-.1-.28-.07-.04,0-.03.09-.03.15h0ZM24.37,20.4c.07-.05.23-.15.21-.2-.04-.08.03-.2-.08-.25-.01,0-.03-.03-.04-.02-.1.06-.21.12-.15.14.2.07.09.19.07.33-.11,0-.2.21-.1.15.06-.03.1-.08.09-.15h0ZM6.39,6.52c-.01.07-.12.04-.1.1.04.11.16.1.3.07.15-.03-.12-.12-.21-.16.01-.09.02-.17.14-.13.02,0,.02-.05,0-.07-.07-.09-.15.06-.21-.04-.03-.05-.31.04-.2.15.08.08.19.04.27.08h0ZM23.56,1.97c.05.11.23.18.25.15.05-.08-.5-.2-.29-.33.03-.02-.07-.12-.16-.07-.2.11-.2-.09-.35-.07-.14.02.41.3.54.32h0ZM22.56,21.23c.18,0,.28.03.32-.12.02-.05,0-.08-.07-.07-.03,0-.04-.04-.03-.06.29-.52-.2.05-.22.25-.2.07-.17.32-.12.21.02-.05.06-.09.11-.11.07-.03,0-.07,0-.11h0ZM.63,2.98s-.06.04-.06.05c.05.11.02.27.16.3-.05.1-.12.22-.16.1-.12-.4-.2.18,0,.17.16,0,.11-.06.28.42.14.38-.13-1.11-.22-1.06h0ZM36,27.53c.31.03.05-.27-.15-.13-.06.04-.05.08-.3.08-.19,0-.35.2-.27.21.09,0,.16.04.23.12.02.03.08,0,.08-.06,0-.18.22-.02.41-.21h0ZM38.86,19.14c-.11.18-.05.17.11.4.05.07.13-.02.14.01.02.1.21.15.08.2-.07.03,0,.05.09.24.05.09,0,.21.1.31.09.08.08.22.17.31.08.07-.06.18.09.26.04.02.44.3.23.25-.09-.02-.1.04-.07.1.25.46.26,1.61.38,1.61.19,0,.12-.85.05-.95-.14-1.11-.41-.91-.54-1.23-.04-.09.12,0,.14,0,.05-.23-.34-.17-.27-.42.1-.36-.3-.23-.31-.49.39.27-.17-.56-.38-.59.04-.16-.16-.51-.44-.55,0-.19-.43-.45-.48-.41-.27.18.1.1.18.37.02.06.23.04.31.04,0,.04.08.09-.01.12-.11.04,0,.07.21.37.02.03.06.04.09.02.06-.04.1.02.14.04h0ZM18.84,26.49c.08.26.23.04.23.3,0,.05-.01.09-.07.1-.11.02.14.27.35.35.07.03.32-.16.45.17-.13.03-.26-.14-.32-.07-.05.06.44.42.46.41.24-.05-.17-.21.02-.28.14-.05-1.31-1.03-1.31-1.27,0-.02-.02-.01-.2-.08-.13-.22-.4-.43-.49-.44.02.02-.03-.22-.25-.22-.11,0,.05-.05,0-.1-.3-.33.12.32-.47-.25-.01-.01-.04.01-.03.02.16.37.23.26.55.69.34.46.53.36.58.5.09.23.48.53.49.47.05-.19-.2-.22-.19-.3,0,0,.02-.01.02,0,.06.04.12,0,.19.02h0ZM14.12,25.12c.22.4.36,0,.15,0-.05,0-.11,0-.16,0,.14-.18.37.04.05-.46-.05-.09-.08.05-.24-.03-.16-.09-.04.37.19.49h0ZM4.52,2.79c.02.08.16.1.16.06.01-.12-.03-.08-.16-.06.02-.08-.03-.19.08-.24.05-.02-.08-.09-.1-.11-.11-.08.11-.02.05-.33,0-.01-.04-.03-.04-.03-.07.06-.13,0-.2,0-.2.02-.16.5.04.41.07-.03.05.07.02.07-.33.02-.37.25.14.22h0ZM38.63,26.61c.16-.23.19-.35.38-.35.12,0,.12-.03.1-.1-.05-.15.07-.13.1-.26.03-.13-.19-.05-.11-.15.05-.06,0-.15.06-.2.06-.05.07-.12.1-.19.03-.06.17-.03.13.06-.03.07-.11.1-.09.19-.06.01-.1.05-.11.1-.02.08.11.04.1-.11.03,0,.08.02.1-.02.05-.09.08-.24.15-.14.02.02.05.13.07.06.06-.18.03-.01-.09-.26,0-.02.01-.08.05-.03.1.1.13.04.08-.04-.04-.06.11-.05.04-.12-.25-.24.02-.14.15-.34.11-.16-.18-.12-.12-.27.03-.08.25-.07.12-.26-.07-.1.05-.1-.04-.21-.05-.06-.01-.11-.03-.12.1-.12.02-.22.1-.4.03-.07-.05-.13-.05-.14.15-.18.06-.78,0-1.05,0-.02-.12-.07-.07-.1.06-.04.07-.07,0-.12-.01,0-.02-.03-.01-.04.07-.12-.43-1.19-.44-1.2-.1-.04-.01-.11-.05-.16-.09-.11,0-.02-.2-.08.02-.03-.01-.1.06-.08.18.04-.53-1.04-.85-1.37-.87-.89-.78-.23-.65-.15.08.04.02-.08.05-.08.44,0,.26.16.38.24.21.14,0,.19.28.3.13.05-.02.11.09.19.06.05.24.2.16.23,0,0-.03,0-.1.03.01.02.05.07.08.06.17-.06.38.27.22.36-.03.02.01.19.09.14.12-.08.13.1.19.13,0,.08-.12.25-.09.28.1.08.1.36.19.37.19.03,0,.07.07.28.11.29-.02.37.09.47.18.17.08.65.15.99.09.4-.11.16-.09,1,0,.15-.16.23-.07.41.03.05-.02.1-.04.15-.14.33-.14.72-.24.83-.07.07-.18.11-.11.24,0,.02-.6.95-.59,1.18,0,.13-.13.05-.36.35-.57.72-1.32,1.15-1.14,1.18.35.06.08.12.08.19-.27.02-.3.24.06.1.04-.02.03-.01-.06-.1.31,0,.24-.11.48-.21.1-.04,0-.06-.01-.08-.03-.04-.03-.08,0-.09.52-.08.54-.24.45-.22-.04,0-.25.09-.19,0,.15-.22.4-.2.35-.3-.07-.14.11-.03.17-.18.05-.12.19-.34.24-.22.02.06.06-.03.04-.07-.07-.15-.13-.03.04-.18.02-.02,0-.09.13-.02.14.08.37-.11.3-.12-.06,0-.13,0-.18-.03-.07-.04-.48.39-.11-.14h0ZM18.01,6.09c0,.08-.12.05-.13.05-.24.03.21.2-.27.29.03.07.08.06.03.09-.08.03-.22-.02-.22.1,0,.09.07.22-.07.23-.03,0-.07-.04-.09,0-.03.05,0,.08.02.13-.08.03-.07.15-.17.15-.13,0-.19.08-.15.1.13.06.05.13-.07.34-.04.07-.13.02-.12.06.05.11-.08.32-.21.32-.08,0-.15.03-.11.1.08.16-.11.12-.03.16.16.08-.22.39-.28.68-.01.05-.08,0-.08.03-.01.2-.24.17-.12.23.1.05,0,.2-.08.22-.3.06-.12.15-.06.22.09.13-.24.01-.07.17.14.13-.22.05-.14.19.02.05-.07.25,0,.33-.07.38-.06.36-.12.4-.12.07.07.13-.07.36-.2.32,0,.44.15.39.17-.06.05.07.53.08,4.1.13,8.15-3.68,4.96-5.92-.71-.5-2.99.14-3.02.49h0ZM27.05,30.44c.32-.02.18-.03.13-.07-.28-.26.79-.12.81-.06.03.09-.33.14-.2.18.11.04.28.11.24,0-.06-.16.37.07.71.06.06,0,.11,0,.16.03.21.1.3-.14.46.03.13.13.15-.09.39-.08.36,0,.36.09.5,0,.11-.07.16.08.47.05-.03-.16.21.02.12-.13-.08-.14-.16.05-.21-.18-.05-.21-1-.08-.81.03.07.04.02-.07.25.04.03.01.14.17-.37.04-.04-.01-.01-.04,0-.07.02-.07-.13-.11-.16-.1-.22.07-.16-.12-.23-.09-.1.05-.21-.04-.32.02-.27.14-.73.04-.77.06-.07-.05-.13-.1-.16-.1-.02,0-.76.14-.96-.05-.19-.18-.3.06-.46-.03-.1-.06-.43.04-.39.05.06.03.02.1.06.13.28.19.33.1.42-.01.08-.1.41.07.3.07s-.18-.03-.25.07c-.07.11.09.09.28.1h0ZM29.52,30.88c0-.07-.18-.07-.24-.03-.13.07-.21-.08-.31-.04-.31.1-.47-.11-.63.04-.12.11-.13-.07-.28-.07-.86,0-1-.11-1.09-.02.28.15-.02.02-.29.03-.14,0,.06.19.2.13.24-.1,2.6.25,2.64-.03ZM3.65,1.51c-.02-.16-.21-.3-.23-.06,0,.06-.08.09-.1.02-.02-.05,0-.14-.12-.08-.09.05-.13-.06-.26-.03-.14.03-.04.32.07.13.09.07.07.38.32.28.2-.08.2.07.26.12.12.09.17-.17.23,0,.06.18.01-.03.35.14.07.04.25-.05.14-.14-.08-.07-.02-.05.06-.1.06-.05.01-.09-.01-.1-.23-.07-.28.18-.38.1-.19-.18-.44.06-.33-.26h0ZM18.38,26.85c.01-.08-.14-.14-.2-.13-.08.01-.08-.01-.3-.32-.07-.09-.35-.22-.37-.36,0-.07-.54-.51-.62-.57-.06-.04-.1.05-.07.07.12.09.18.26.34.31.08.03.02.14.1.18.11.06,1.27,1.26,1.56,1.42.08.05.14-.09.08-.14-.09-.08-.21,0-.26-.12-.12-.32-.39-.11-.26-.33h0ZM15.09,24.36c.1,0,.25,0,.23-.08-.03-.12-.13-.06-.14-.05-.23,0-.01-.3-.1-.25-.12.08-.16-.18-.21,0-.03.14-.12,0-.19.07-.1.1-.16-.06-.34-.09-.11-.02.07-.33-.09-.25-.32.17.22.37,0,.41-.41.07.19.25.27.16.19-.23.27-.13.24-.1-.06.07-.13.03-.09.16.03.07-.17.03-.1.16.09.16.17-.09.24-.1.1-.01.18-.09.3-.05h0ZM15.06,25.2c.07-.05-.03-.09.05-.11.05-.01.04.14.11.17.11.05-.05-.15.05-.17.07-.02.01.06.18.13.14.06.07-.08.15-.15.12-.1-.22-.11-.26-.13-.19-.1-.22.06-.3-.01-.21-.18.03-.42-.21-.37-.03,0-.08.15-.28.14-.14,0,.09.13.09.35,0,.04.1.02.14,0,.13-.03.25.1.18.13-.06.02-.14,0-.09.07.1.13.15.19.22.05.02-.04,0-.06-.02-.1h0ZM31.82,30.83c.14,0-.03.17.11.16.05,0,.11-.03.16-.03.05,0,.11.04.16.01.14-.08.25-.01.4-.06.12-.03-.02-.23.08-.23.05,0,.53-.08.58-.11.32-.17-.38.01-.69-.05-.02,0-.13.03-.09.09.03.03.13.11.03.17-.19.11-.15.06-.24.03-.08-.03.06-.04.12-.14.06-.1-.19-.04-.26.08-.08.13-.21-.11-.53,0-.09.03-.29-.06-.43.04.13.09.44.02.61.03h0ZM14.93,25.74c-.02-.08-.18-.26-.23-.33-.18-.22-.14-.21-.29.02-.07.1.06.11.12.24.09.19.11.25.24.27.15.02.03-.06.16-.2h0ZM28.23,16.95c-.1,0-.09,0-.09.05,0,.11,0,.11-.1.13-.04,0-.09.03-.1-.04-.02-.08-.19.14-.2.17-.09.15-.33-.01-.32.3,0,.07.15.04.19-.02.23-.4.93-.31.77-.43-.07-.05.14-.19-.15-.17h0ZM16.75,25.31c-.02-.19-1.01-1.27-1.02-1.25-.06.12.27.35.61.93.04.07.12.07.17.14.1.16.14.24.24.19h0ZM30.63,30.92s.09.08.27.07c.21-.02.26.08.28.02.09-.25-1.03-.18-1.08-.16-.31.16.38.22.53.07h0ZM1.11,5.21c.06-.04.17.21.17.22.15.29-.29-1.22-.36-1.2-.08.02.34.88.12.85-.02,0-.13-.05-.11,0,.04.13.04.31.17.37.05-.16-.06-.19.02-.24ZM3.73.8c-.12-.19-.11-.19-.14-.18-.23.13-.23.03-.27.07-.09.11-.28.05-.27.13,0,.04.03,0,.17,0,.21,0,.11.15.22.23.05.03.22-.03.24-.05.05-.05-.02-.15.05-.2h0ZM36.46,29c.09.02.29-.06.24-.11-.14-.14-.26.06-.34-.06-.09-.16-.17.03-.44.03-.05,0-.21.04-.19.11.03.16.49.09.31,0-.08-.05.07-.03.14-.03.04,0-.07.1.07.09.06,0,.11-.06.2-.02h0ZM1.77,4.47c-.03-.27-.05.03-.14-.06-.11-.11.2-.32.1-.35-.17-.04-.17.27-.36.18-.17-.08-.1.24.05.31.11.05.08-.17.13-.07.02.04.22.16.22-.02h0ZM25.81,32.42c-.13.26.16.27.18.26.13-.1.29.12.31-.09.02-.25-.44-.26-.48-.17h0ZM4.56,5.62c-.05-.09.05-.13.08-.13.06.01-.05.11.09.1.17-.01-.1-.26-.16-.45,0-.03-.12-.04-.01.15.05.09-.19.05-.24-.06-.02-.05-.17.04-.12.11.14.23.15.05.29.31.02.03.06.06.07-.03h0ZM21.52,23.2c-.09-.19-.44.93-.23.58.05-.09.05-.05.08.01.04.08,0,0,.15-.04.07-.02.1-.24.03-.34-.05-.08-.08-.14-.03-.21h0ZM16.06,23.83c-.03.19.23.14.25.28.03.23.45.25.1.03-.16-.1.07-.15-.08-.27-.18-.14-.05-.23-.11-.25-.31-.14-.15.11-.16.21h0ZM6.43,8.12c-.04-.15-.34-.53-.28-.31.03.09-.04.09-.14.09-.11,0-.18.15-.07.21.09.05.04.11.14.07.12-.05.05-.14.13-.1.12.05.2.08.22.04h0ZM18.88,29.11c-.14.03,0-.11-.1-.14-.14-.03-.19.03-.19-.07,0-.07-.05-.11-.11-.14-.05.05-.11.03-.17.01-.02,0-.02.08,0,.1.05.06.13.08.19.15.13.17.25.03.24.11,0,.07.15.22.18.21.06-.02,0-.06,0-.09,0-.07.1-.06.06-.13-.03-.05-.06-.03-.09-.02h0ZM13.36,24.61c-.14.1.1.11.02.24-.02.03,0,.05.02.07.09.08.06.21.12.23.12.04.2.17.24.17.22,0-.38-.71-.4-.72h0ZM4.6,3.1c-.07.1.1,0,.03.24-.02.06-.06.05-.09.1.04.02.38.03.07.19-.05.03-.01.14.04.1.14-.1.11.04.2.05.25.02-.05-.2-.07-.4-.01-.25.04-.21-.19-.27h0ZM5.07,5.19c.06-.02.05-.14.16-.23.06-.05-.09-.08-.11-.09-.12-.06.04-.12-.02-.18-.08-.08-.07.05-.23.08-.07.01-.11.1-.05.13.19.11.15.25.25.3h0ZM38.25,22.46c.19.1.03-.21.02-.23-.03-.05-.02-.05-.07,0-.15.18-.14-.07-.2-.05-.04,0-.06.04-.05.08.05.17-.32-.09-.22.09.1.17.23-.03.3.11.14.31.04-.07.22-.01h0ZM26.89,29.19c-.13-.03-.2.07-.19.09.09.1.21.15.24.08.07-.14.01.14.27.09.15-.03.09-.33-.09-.24-.07.04-.1,0-.24-.02h0ZM15.7,23.89s-.02-.05-.05-.08c-.07-.08-.1-.14-.12-.26-.01-.1-.11,0-.22-.17,0,0-.06-.08-.07-.08-.27-.16.42.94.46.6h0ZM.77,1.14c-.21.04.1.11.1.16,0,.03-.01.07-.03.07-.08.03-.1.12-.17.16-.07.04,0,.05.02.06.02.01.02.14.08.09.14-.15.07-.21.31-.33.08-.04-.03-.22-.15-.2-.05,0-.11,0-.16-.01h0ZM31.2,15.65c-.08-.05-.26-.04-.31.12-.03.1-.17.12-.13.19.07.14-.17-.03-.2.02-.02.03-.04,0-.01.01.03.02.16.14.2.13.4-.12.17-.23.32-.34.03-.02.12-.09.13-.12h0ZM7.92,8.27c-.06-.07-.09,0-.14,0-.05.02-.18,0-.06.15.23.28.11.15.27.24.03.01.08-.02.08-.05-.03-.24.06-.1-.15-.34h0ZM27.47,20.13c.25.01,0,.07.06.18.02.04.02.14.03.16,0,.05.14.02.08-.12-.02-.04-.03,0,.02-.15.03-.1-.03-.12-.06-.22-.07-.25-.59.41-.35.23.07-.05.13-.1.21-.08h0ZM36.45,27.1s-.03.05-.06.02c-.08-.09-.42.05-.42.09,0,.07.06.04.1.04.12,0,.21.14.3.1.27-.14.14-.35.08-.25ZM29.56,16.5c.11.01.42-.07.42-.18,0-.21.25-.09.19-.2-.23-.38-.21.04-.34.08-.04.01.05.17-.09.2-.06.01-.11.06-.18.03-.02,0-.1.07,0,.07ZM13.89,22.98c-.23.04-.31,0-.44,0-.13,0,.07.28.08.29.06-.04.04-.06.1-.14.03-.05.05.03.07.04.11.07.5-.24.2-.19ZM26.06,18.31c.08.11.14-.01.25.01.09.02-.18.22,0,.21.15,0,.21-.26.21-.28,0-.1.03.08.12,0,.04-.03-.06-.15-.19-.06-.29.18-.51-.03-.4.13h0ZM1.99,5.92s-.07,0-.05.17c.01.09.09,0,.21.13.08.09.29-.11.12-.31-.04-.04-.05,0-.06.03-.05.18-.08-.05-.22-.02ZM2.95,6.08c-.18.02-.09.06,0,.12.05.03-.02.08.01.12.03.03.03.09.09.09.08,0,.11.05.1.12,0,.09.07.1.12.13.14.08-.15-.51-.32-.58ZM34.75,30.1c-.11-.09-.27.02-.44-.03-.05-.01-.19.12-.02.17.16.05.57-.06.46-.14h0ZM26.11,25.22c-.02-.07-.07-.14.05-.17.08-.02.13-.18.1-.19-.08-.03-.53.3-.42.36.12.07.27.1.27,0ZM40.15,20.75c-.04.13.21.85.25.85.18-.02-.21-.82-.25-.85ZM4.83,4.16c.06,0,.11-.03.16-.02.07,0,.11,0,.13-.06.05-.17-.49-.29-.46-.19.08.21.23.09.23.2,0,.04-.21.06-.05.08ZM40.33,23c.02-.2-.3-.15-.19.06,0,0,.06,0,.07,0,.08.28-.08.06-.03.43.02.13.17-.13.12-.31-.02-.06.02-.14.03-.18h0ZM1.15,2.67c.09-.31-.46-.21-.3-.07.05.04.07.13.13.11.06-.02.08-.01.09.04.08.25.13.02.12,0-.02-.02-.07-.03-.04-.08ZM12.78,22.78c-.11.12.1.25.17.5.03.08.19.1.16.06-.17-.23-.11-.55-.33-.55h0ZM13.68,24.07s.01-.1-.06-.06c-.15.07-.4-.45-.37-.26.03.22.44.77.43.32h0ZM12.64,22.07c.02-.39-.39-.02-.3.02.17.08.12.23.2.22.01,0,.03-.02.03-.03-.02-.1.06-.17.07-.21h0ZM37.84,28.21s.03.07.07.07c.04,0,.07-.03.1.01.12.16-.29-.01-.31,0-.28.25.14.11.15.11.58.02.15-.39,0-.19h0ZM18.94,29.63s-.02.08-.12.13c-.09.04.06.13.14.17.06.03.12-.02.23-.1.04-.03-.21-.2-.25-.19h0ZM27.28,20.83c-.07-.17-.25-.22-.4-.04-.07.09.02.05.09.18.03.05.12-.01.07-.07-.1-.11-.05-.15.06-.06.08.07.2.04.17-.02ZM4.77,6.1c-.12.06-.16.07-.09.15.54.58.31-.02.09-.15ZM25.56,26.1c.11-.04.03.02.14-.18.04-.08.06.09.09.04.28-.45-.37-.26-.23.14h0ZM4.33.6c-.16.03-.1-.01-.28.28-.03.05.15.14.18.01.02-.09,0-.2.1-.19.07.01.15.06.17.01.02-.04-.02-.12-.17-.12h0ZM22.02.66c-.11,0-.09.02-.13.11-.02.03-.01.04.07.04.12,0,.22.07.34.08.06,0,.14-.18-.28-.23h0ZM36.95,16.62c-.1,0-.13.04-.21.04-.1,0-.27-.09-.4,0-.26.19,1.14-.02.61-.03ZM7.42,7.77c-.13.06-.08.1.02.23.03.04.03.1.06.15.04.07.18-.04.17-.12-.07-.01-.04-.09-.07-.11-.17-.13-.12-.19-.18-.14h0ZM1.1.97c-.04-.13-.19-.06-.23-.18,0-.02-.06-.02-.07,0-.05.08-.15.1-.21.16-.03.04.02.1.06.07.02-.02.05-.06.05-.06.1.06.22-.01.31.05.04.03.06-.01.09-.04h0ZM34.55,30.42c.12.13.77.06.57-.06-.17-.1-.6.03-.57.06ZM31.18,29.81c0-.11-.06-.17-.13-.13-.09.05-.19.03-.28.06-.13.05.37.28.42.07ZM29.07,16.63c-.07-.16-.06-.13-.28,0,.03.08-.03.08-.08.09-.09.02-.03.15.04.13.11-.03.3-.2.32-.23ZM25.64,24.29c0-.31-.2-.05-.27.2-.05.19.3-.06.27-.2ZM17.16,27.83s.01.19.12.2c.12,0,.17.15.19.05,0-.04.19-.19.06-.2-.3-.04-.1.07-.37-.05ZM24.5,24.34c-.11.17-.2.05-.21.14,0,.04.14.02.21.08.26.17.14-.43,0-.22h0ZM19.92,28.17c-.08-.17-.32-.33-.35-.28-.02.04.16.08.02.15-.07.03.23.27.32.13ZM25.67,19.92s-.06-.03-.06-.03c-.3.44-.38.43-.38.48-.03.21.44-.28.44-.45h0ZM3.73,2.47s-.49-.13-.31.05c.25.28.52-.09.31-.05ZM28.61,21.83c.28,0,.4-.23.34-.28-.07-.06-.2.03-.22.09-.05.11-.24.14-.12.19ZM1.22,3.38c-.04-.12-.25-.3-.28-.18-.06.22.2.36.28.18ZM33.09,15.13c.09.02.32-.11.22-.16-.24-.1-.28-.14-.34-.06-.03.05.03.03.1.1.08.09-.26.09.02.11h0ZM31.99,31.33c.38-.05.12-.09.02-.24-.06-.08-.12.01-.15.08-.06.11.06.14.13.16h0ZM25.14,19.55c-.34-.16-.42-.01-.41.02,0,.03.1.11.12.1.1-.08.19.02.29-.11h0ZM3,2.08c0,.07.09,0,.13.03.15.09.24.31.24,0,0-.14-.37-.1-.37-.03h0ZM36.89,18.1c.25.12.12-.07-.11-.12-.28-.06-.3-.13-.41-.09-.03.01,0,.09.18.1.19,0,.03.04.34.11h0ZM20.78,25.31s-.04-.02-.05-.01c-.07.33-.22.45-.09.49.27.08.06.02.14-.48ZM28.33,18.05c.14-.02.13,0,.11-.09-.02-.08,0-.04.13-.05,0-.04-.04-.11-.05-.11-.2.02-.43.19-.19.25h0ZM30.16,29.68c-.1.03-.28.13-.18.16.61.14.26-.15.18-.16ZM6.9,7.12c0-.06-.09-.24-.17-.19-.28.17-.12.11.06.23.03.02.11-.01.11-.05ZM1.53,3.7c-.11-.18-.39,0-.39,0,.06.23.07.14.06.15.02-.06.03-.24.15-.04,0,0,.17-.12.17-.12ZM31.23,31.14c-.25.2.65.17.46.09-.25-.1-.13.04-.41-.08-.01,0-.03,0-.05,0h0ZM29.37,18.71c-.3,0-.13.04-.13.06,0,.19.33.03.34-.04,0-.05-.19-.02-.21-.02ZM2.43,4.01c-.03-.08-.14-.16-.18-.04-.15,0-.17.09-.1.15.07.06.12-.16.17-.02.01.03,0,.05.02.08.03.04.1-.12.09-.17ZM23.42.82c-.2.06.25.22.28.19.06-.05-.02-.2-.28-.19ZM6.33,8.62s-.05,0-.07,0c-.08.02.04.17.08.14.14-.1.35.05.3-.06-.06-.13-.05-.06-.32-.08h0ZM1.7,2.31c.36-.06.32-.27-.09-.12-.05.02-.05.08.09.12ZM1.59,1.76s-.02.06-.02.07c.12.06.21.2.29.24.05-.12-.04-.35-.28-.3h0ZM15.87,26.06c.56-.05-.18-.34-.1,0,.01.05.12,0,.1,0ZM8.48,10.22c0,.09,0,.07.15.14.08.04.01.17.11.15.28-.07-.26-.35-.27-.29h0ZM23.97,1.62c.06-.04-.11-.22-.26-.19-.04,0-.12.09-.02.13.02,0,.27.07.28.07ZM9.18,10.65c-.05,0-.06.12-.01.14.16.08.25,0,.31,0,.06,0-.19-.15-.29-.14h0ZM24.03,25.58c.08.05.13-.06.1-.1-.05-.08-.1.04-.19,0-.25-.1-.2.18-.03.11.04-.02.08-.04.12-.02h0ZM5.94,6.66c0,.17.11.22.22.18.09-.03.05-.17-.01-.14-.19.08-.13-.19-.21-.04h0ZM1.88,6.7c0-.11-.23-.55-.22-.32,0,.1.12.19.13.34,0,.02.03.02.08-.01h0ZM22.33,34.03c-.03-.06.02-.04-.17-.12-.16-.06-.09.37.17.12ZM40.27,24.54c-.08-.06-.22-.18-.23-.09-.01.06-.04.24.02.21.06-.03.26-.09.22-.12h0ZM15.98,23.52c-.04-.29-.49-.19-.07.05.05.03.06-.04.07-.05ZM3.43,9.33c.21.36.15.28.28.35.18.11-.42-.59-.28-.35ZM.83,4.56c-.03-.28.04-.24-.08-.35-.18-.15.07.58.08.35ZM4.5,3.99s.07,0,.07-.06c-.01-.19-.31-.63-.07.06ZM36.98,20.54c-.06-.15-.23-.3-.26-.29-.03,0,0,.18.05.19.12.02.15.16.21.1h0ZM28.53,20.93c.03-.05-.04-.11.07-.17.08-.04.39-.45-.18.02-.05.05.07.14.11.14ZM11.84,21.69c-.13-.28-.36-.05-.16.05.06.03.14-.02.16-.05ZM40.12,24.16c.02.31.11.11.11.1.02-.37-.09-.37-.11-.1ZM2.08,3.73c.07.14.05.09.13.07.07-.02.09.03.11-.03.04-.14-.28-.12-.24-.04h0ZM1.8,5.56c-.06-.09-.08-.27-.21-.24-.08.02.11.31.21.24ZM44.64,46.32s.24-.1.29-.16c0-.01,0-.07-.02-.05-.15.12-.35.04-.27.21ZM24.07,1.67c-.1.2.35.29.24.19-.23-.2-.21-.19-.24-.19ZM45.03,46.07c.04.12.13-.03.21-.05.05-.01.1-.02.12-.08-.06-.07-.11,0-.16.02-.02,0-.22.02-.18.1h0ZM5.2,6.33c-.15-.35-.28-.49-.14-.14.03.08.08.2.14.14ZM4.22,3.45c.35-.03.07-.29-.07-.07-.03.05.05.07.07.07ZM3.53,2.95c0-.1-.34.06-.25.11.12.07.24.02.25-.11ZM32.41,19.69c-.49,0-.3.08.25.05.18-.01-.25-.08-.25-.05ZM37.94,20.7c.07.11.12.25.16.13,0-.02.13-.1.05-.13-.2-.07-.17-.06-.21,0h0ZM24.39,2.49c-.08.07.02.26.19.27.04,0,.01-.1-.01-.11-.18-.05-.13-.15-.17-.16ZM14.81,22.65s.1-.08.06-.12c-.25-.25-.25,0-.06.12ZM5.58,6.98s.17-.13-.01-.18c-.11-.03-.31-.23.01.18ZM2.8,2.26c-.13.09.14.15.13.27,0,0,.01.01.02.02.07-.21-.08-.33-.15-.29ZM23.22.7c-.06-.12-.51-.1-.39-.07.38.11.35.11.39.07ZM40.04,24.73c-.2.15.04.26,0,.2-.05-.12.31-.11,0-.2ZM25.95,32.01c-.11-.14-.39-.03-.32,0,.02,0,.14.14.32,0ZM21.28.24c-.23-.21-.39.12-.17.07.03,0,.14-.04.17-.07ZM20.78,25.15s.04,0,.04-.01c.08-.17.18-.11.19-.2,0-.06-.26-.05-.23.21h0ZM37.6,18.01c-.08-.08-.15,0-.14.02.06.07.47.31.14-.02ZM19,25.51c-.03-.11-.09-.06-.08-.08.03-.09-.02-.09-.16-.08-.11.01.18.24.24.16h0ZM18.75,25.96c-.08.09.2.3.24.22.02-.04-.09-.16-.24-.22ZM31.49,31.02c.08.02.21.02.17-.05-.07-.11-.59.1-.17.05ZM40.61,22.26c.02-.07-.06-.34-.12-.31-.09.03.09.21.08.37,0,.02.03.06.04-.06ZM38.04,21.61c-.04-.34-.27-.33-.2-.25.02.02.06.04.06.05-.04.11.07.15.1.22,0,.02.03,0,.04-.02h0ZM41.21,47.02c-.2,0-.19,0-.1.1.08.09.3-.09.1-.1ZM22.55,36.78s.02-.06-.01-.06c-.46-.07-.25.16.01.06ZM13.42,22.67c.07.04,0-.1.12-.15.02,0-.03-.08-.05-.07-.24.16-.21.16-.07.21h0ZM21.22.63c.06-.04.28.08.28-.01,0-.08-.35-.11-.28.01ZM18.23,24.69c-.06-.13-.16.04-.2.07-.01,0,.05.08.06.07.16-.1.13-.1.14-.14h0ZM21.72,25.21c.08-.01.08-.15.06-.26-.03-.14-.14.27-.06.26ZM22.51,2.08c-.3.07-.03.15.08.09.02-.01.04-.05-.08-.09ZM3.94,2.1c-.1-.08-.13.06-.23.01-.08.2.31.04.23-.01ZM20.09,28.37c0-.22-.23-.09-.15,0,.07.08.14.11.15,0ZM3.91,2.8s-.06-.07-.09-.04c-.21.15.1.33.09.04ZM14.97,22.89c-.06.03.06.27.14.24.04-.01,0-.04-.01-.12,0-.08-.09-.08-.13-.12h0ZM34.07,30.24c-.14.05-.2.07-.18.11.03.08.23-.03.27-.04.05,0-.07-.06-.09-.08ZM39.68,26.91c0-.2-.25.04-.15.08.13.06.17-.02.15-.08ZM16.14,20.54c-.04-.21-.37-.64-.04,0,.01.03.03,0,.04,0ZM27.32,18.61s-.05-.08-.17.03c-.14.13.28.1.17-.03ZM26.91,18.95c-.23.05-.15.06-.21.16-.07.12.4-.2.21-.16ZM17.02,27.64c-.03-.15-.31-.19-.19-.04.03.04.17.12.19.04ZM37.62,20.76c-.07.1.14.3.16.29.03-.02-.13-.27-.16-.29ZM19.32,28.19c-.19,0-.05.15.03.14.05,0,.14-.11-.03-.14ZM19.85,26.38c.05,0,.15-.06.11-.11-.14-.16-.25.12-.11.11ZM4.3,4.38c0-.31-.22-.05-.07.07.06.05.06,0,.07-.07ZM40.16,19.99c.04-.16-.21-.2-.17-.1.04.09.15.16.17.1ZM1.11,1.86s.01-.05-.16-.05c-.09,0,.1.3.16.05ZM15.37,25.84c-.18.24.28.12.15.06-.05-.02-.1-.04-.15-.06ZM25.39,23.02c.05,0,.12-.11.11-.17,0-.04-.12-.05-.13,0-.01.06-.05.17.01.16h0ZM5.38,4.77c-.07-.21-.07-.29-.19-.14.11.03.15.25.19.14ZM1.96,7.21c-.1-.25-.19-.19-.19-.14,0,.07.12.18.19.14ZM9.76,10.98c-.06-.11-.26-.13-.23-.09.09.12.14.21.23.09ZM21.3,35.88c.02-.18-.27-.46-.04,0,0,.02.03.02.04,0ZM4.25,5.03c-.19-.5-.18-.09-.06.03.04.04.05-.01.06-.03ZM40.53,21.03c-.03.1.17.46.14.3-.02-.09-.08-.28-.14-.3ZM17.16,24.72c-.21-.39-.24-.1-.09.01.04.03.08,0,.09-.01ZM22.61.99c-.05-.1-.08-.03-.1-.17-.01-.07-.09.06-.08.09.04.08.11.14.18.08h0ZM39.86,19.54c-.14.1.12.24.13.17.02-.07-.09-.18-.13-.17ZM25.13,20.56c-.05-.11-.22.1-.2.14.02.06.18-.08.2-.14ZM17.49,24.55s-.03-.03-.11-.09c-.09-.06-.13.09-.11.09.22.06.17.05.22,0ZM2.35,7.55c-.03-.08-.1-.28-.16-.23-.08.07.11.15.12.24,0,.01.04,0,.05-.01h0ZM20.65.61s-.05.04,0,.04c.46,0,.63-.06,0-.04ZM5.16,2.91c-.02-.17-.25-.11-.1.06.05.06.08-.02.1-.06ZM38.18,24.1c-.06.07,0,.13-.1.16-.12.04.34.06.1-.16ZM3.74,5.1c-.06-.18-.06-.22-.11-.18-.11.07.06.27.11.18ZM2.15,7.56c-.15-.38-.23-.08-.03.04.02,0,.02-.02.03-.04ZM22.33,25.12c.13,0,.14-.07.11-.12-.02-.04-.31.1-.11.12ZM21.52,25.19s-.18.06-.12.09c.26.11.16-.08.12-.09ZM39.82,25.93c0-.06-.12-.04-.15-.02-.05.03-.04.11-.02.11.05.01.15-.04.17-.09h0ZM16.04,26.6c-.02.08.22.08.18.01-.03-.04-.18-.15-.18-.01ZM13.87,23.39c.08,0,.09-.09.16-.05.04-.11-.26-.13-.16.05ZM19.03,27.64c.14.13.15.16.18.13.11-.09-.31-.24-.18-.13ZM12.42,23.11s.12-.03.07-.08c-.17-.15-.22-.14-.07.08ZM4.02,3.35c0-.08-.26-.14-.14.07,0,.02.13,0,.14-.07ZM18.84,30.14c-.03-.33-.18-.07-.08.01.07.06.07.02.08-.01ZM26.49,30.66c.02-.05-.02-.04-.28-.08-.02,0,0,.06,0,.07.27.06.24.04.27,0h0ZM22.97,22.23s.04.04.05.03c.28-.39.05-.24-.05-.03ZM15.08,21.98c-.08-.16-.3-.05-.19.02.07.04.14.04.19-.02ZM.84,1.9c0-.18-.25-.05-.11.04.07.04.11.04.11-.04ZM3.23,8.97c-.16-.34-.3-.15-.02.01,0,0,.01,0,.02-.01ZM22.93,1.08s-.1.04-.05.06c.34.09.2-.19.05-.06ZM26.83,20.58c-.33.2-.16.19-.15.17.05-.09.29-.14.15-.17ZM30.69,20.4c-.3.04-.03.16.07.05.04-.04-.02-.04-.07-.05ZM2.45,6.36s-.06.02-.04.04c.24.24.22-.04.04-.04ZM39.4,19.26c-.14-.33-.23-.08-.03.03.01,0,.02-.02.03-.03ZM9.65,9.89c0-.13-.24-.14-.19-.06.03.05.15.12.19.06ZM28.64,19.26c.02-.12-.21-.02-.2.05.01.04.15,0,.2-.05ZM5.85,6.21c-.03.11-.16.05-.12.12.09.17.2-.06.12-.12ZM3.86,9.08c.08.1.34.06.08-.06-.02,0-.08.04-.08.06ZM37.04,20.05c-.14.14.18.18.11.07-.02-.04-.06-.06-.11-.07ZM37.72,20.22c-.06.12.14.28.12.21s-.07-.23-.12-.21ZM4.49,10.87c-.06.06.23.29.17.18-.03-.07-.09-.18-.17-.18ZM29.97,20.64s-.01.14.09.11c.15-.04.18-.06-.09-.11ZM9.04,11.06c-.07-.08-.3-.03-.19.05.04.03.17,0,.19-.05ZM24.86,20.82s-.2-.13-.14.07c.02.08.14-.04.14-.07ZM3.14,2.37c0-.14-.08-.13-.1-.07-.02.07.08.23.1.07ZM24.17,2.4s-.05-.14-.14-.15c-.17,0,.11.15.14.15ZM1.34,3.07c-.19.01-.05.13.06.09.02,0,.06-.08-.06-.09ZM23.03,21.63c-.2.16-.06.29-.03.22.07-.21.06-.2.03-.22ZM.56,3.7c-.08.18.13.29.09.13-.03-.12-.03-.17-.09-.13ZM20.36,27.95c0-.09-.06-.12-.08-.1-.07.08.02.27.08.1ZM5.32,4.17c-.1-.3-.21-.29-.04,0,.01.03.03,0,.04,0ZM39.1,27.12c-.16-.07-.26.07-.2.08.07.01.19-.06.2-.08ZM5.69,4.2s-.36-.21-.13.04c.01.01.13-.02.13-.04ZM18.56,25.08c-.06.06,0,.13.06.14.09.02.04-.14-.06-.14ZM40.55,24.52s-.07.02-.08.06c0,.07.06.06.09.08.06.03.08-.13-.02-.13ZM17.23,24.25c-.05-.12-.2-.13-.17-.07.04.09.13.14.17.07ZM14.78,23.58c.13.28.18.13.14.08-.11-.12-.1-.12-.14-.08ZM13.59,23.51c.18.11.16-.17.08-.13-.05.03-.07.08-.08.13ZM2.16,7.18c-.16-.27-.19,0-.06.05.03.01.02,0,.06-.05ZM24.67,23.27c-.15-.01-.15.34-.08.21.1-.2.1-.18.08-.21ZM4.56,6.32c-.08.05.13.28.11.14,0-.05-.06-.13-.11-.14ZM9.9,9.44c-.14.08.19.14.12.05-.03-.04-.07-.05-.12-.05ZM3.63,9.82c-.06-.17-.27-.21-.03.02.02.01.02,0,.03-.02ZM16.47,23.22s-.07-.14-.12-.07c-.03.04.03.14.12.07ZM29.36,16.44c0-.11-.09-.11-.1,0,0,.08.1.09.1,0ZM17.11,23.33c-.05-.12-.22-.08-.16-.02.05.05.12.05.16.02ZM1.82.83s-.03-.07-.07-.05c-.28.12.02.12.07.05ZM17.45,23.78c-.06.02.03.2.07.16.08-.08.03-.1-.07-.16ZM21.16,24s-.09.12-.05.18c.09-.06.1-.17.05-.18ZM23.95,20.4c-.01.06.07-.03.17.03.02.01.02-.06,0-.06-.05-.03-.17-.03-.18.03ZM3.9,4.94c-.03-.15-.13-.11-.13-.09.03.13.11.15.13.09ZM20.25,30.58c0-.24-.1.03-.06.06.05.04.06-.05.06-.06ZM.46,3.04c0-.05-.08-.11-.1,0,0,.07.1.08.1,0ZM3.08,3.01c-.03-.1-.15-.06-.14,0,.02.09.16.06.14,0ZM28.1,21.48c-.06-.02-.13.1-.08.12.04,0,.15-.03.08-.12ZM29.63,17.28c.18-.04.15-.16-.03-.05-.06.03.01.05.03.05ZM1.99,3.22s-.09.09-.06.11c.19.12.13-.18.06-.11ZM20.2,29.56s.09-.05.06-.15c-.03-.09-.16.1-.06.15ZM40.21,25.64c.08-.02.09-.18.04-.16-.09.03-.08.14-.04.16ZM7.37,6.86c-.07-.25-.28-.13-.03.04,0,0,.02-.03.03-.04ZM3.47,4.51c-.1.1.13.18.09.11-.07-.13-.06-.11-.09-.11ZM24.21,21.66s-.04-.11-.14.09c-.02.04.13,0,.14-.09ZM38.15,21.88c0-.09-.07-.18-.1-.13-.03.07.03.22.1.13ZM37.98,22.05c0-.09-.06-.16-.08-.14-.02.01-.03.28.08.14ZM27.41,8c.14-.07-.06-.21-.1-.06,0,.03.06.07.1.06ZM28.97,17.58c-.11-.1-.25.07-.16.08.07,0,.12-.02.16-.08ZM2.73,6.81c-.12.04-.07.1.03.09.07,0,.06-.09-.03-.09ZM14.61,22.15c-.02-.09-.16-.11-.14-.07.05.1.09.17.14.07ZM19.59,26.72c-.05.04.09.14.13.14.07,0-.04-.13-.13-.14ZM20.07,26.58c.08.02.07-.07.04-.08-.08-.03-.17,0-.04.08ZM14.3,23.08s.01-.19-.1-.07l.1.07ZM15.71,23.07c-.04-.16-.18-.07-.07.04.04.04.06-.03.07-.04ZM39.93,26.5c-.08-.11-.13.03-.13.05.02.06.13,0,.13-.05ZM29.86,19.86c.16-.01.05-.11,0-.09-.11.06-.13.06,0,.09ZM16.74,27.37c-.01-.06-.18-.12-.14-.05.02.04.12.09.14.05ZM8.59,9.11s-.06.01-.04.05c.1.2.18-.03.04-.05ZM37.74,21.97s.03.17.05.17c.03,0,.03-.15-.05-.17ZM26.26,19.34s.07-.04.07-.06c-.05-.17-.21.06-.07.06ZM19.97.36s-.22-.12-.17-.03c.04.06.12.07.17.03ZM20.21.33c.19-.01.2-.05-.07-.05-.02,0-.06.03.07.05ZM30.88,16.8c-.11-.06-.23.11-.16.08.16-.06.15-.06.16-.08ZM29.72,19.93c-.05-.03-.11-.02-.16.06.06.04.16-.04.16-.06ZM7.07,7.16c.09.09.11.12.12.07.02-.14-.15-.1-.12-.07ZM12.89,21.89c-.12.04,0,.13.06.07.02-.02-.02-.04-.06-.07ZM27.86,20.12c.09,0,.13-.09.09-.1-.05-.02-.12.01-.09.1ZM21.51,26.08c-.12.07.04.19.05.08,0-.04-.02-.06-.05-.08ZM9.49,10.36c-.04-.06-.1-.06-.12-.03-.03.03.06.13.12.03ZM39.3,23.82s-.03-.05-.06-.03c-.12.12,0,.18.06.03ZM.15,1.26s.06-.01.06-.02c0-.04-.03-.06-.07-.07-.06-.01-.08.1.01.09h0ZM40.01,20.42c.02-.09-.09-.2-.09-.14,0,.06.05.18.09.14ZM37.01,20.32c-.06.11.2.18.12.09-.1-.1-.09-.09-.12-.09ZM2.22,7.83c.08-.04.03-.12-.04-.14-.02.06-.04.14.04.14ZM1.73,1.44s.11-.22.04-.14c-.04.04-.06.1-.04.14ZM4.46,4.61c-.08-.16-.06-.13-.09-.16-.07.13.03.22.09.16ZM32.74,29.07c.15-.03.04-.11-.01-.07-.07.06-.02.06.01.07ZM22.67,1.46c-.03-.09,0-.08-.14-.02.14.07.11.07.14.02ZM17.69,1.51c.07,0,.11-.08.01-.09-.03,0-.1.04-.01.09ZM35.79,29.17c.29,0-.01-.08-.08-.01.02,0,.08.03.08.01ZM15.15,25.53c-.23-.06-.15.12-.05.06.02-.01.03-.04.05-.06ZM1.58,5.07c-.04.05.05.14.11.13.05-.01-.04-.13-.11-.13ZM21.6,36.54c-.08-.15-.15-.13-.05.02,0,.01.04.01.05-.02ZM9.13,8.87c0-.1-.09-.09-.09-.05-.01.04.04.15.09.05ZM18.18,25.45s.14-.05.02-.1c-.02,0-.12,0-.02.1ZM6.81,10.99c-.24-.2-.12,0-.05.02.03,0,.03,0,.05-.02ZM4.46,3.08c-.12.06.05.22.06.07,0-.04-.01-.07-.06-.07ZM39.85,25.4c0,.17.11.05.05-.06-.03-.06-.04.03-.05.06ZM20.19,29.98c-.09.1.06.16.07.1,0-.04-.03-.09-.07-.1ZM34.73,15.67c-.03-.07-.19.08-.08.07.1,0,.08-.04.08-.07ZM25.14,24.41s-.02-.04-.03,0c-.15.28.06.13.03,0ZM7.23,11.38c-.06-.08-.24-.1-.15-.01.04.03.1.04.15.01ZM26.71,30.72c.07,0,.12,0,.11-.03-.03-.1-.29.02-.11.03ZM12.72,22.51c-.07.11.06.19.11.11-.05-.02-.08-.07-.11-.11ZM26.44,20.99c.22-.23.01-.12-.02-.06-.01.02,0,.04.02.06ZM23.89,24.7c0,.1,0,.15.06.06.05-.09-.04-.16-.06-.06ZM2.7,8.52c0-.08-.09-.15-.1-.08,0,.07.02.12.1.08ZM3.19,2.79c.11-.04-.01-.16-.03-.13-.02.04-.02.12.03.13ZM29.91,17.03c-.05-.02-.07.12,0,.12.07,0,.07-.1,0-.12ZM21.5,15.24s0,.01.07-.02c-.13-.07-.28,0-.07.02ZM4.79,2.58c-.02-.13-.07-.07-.04.04.01.05.04.02.04-.04ZM25.93,31c-.15,0-.08.04.04.04.02,0,.07-.03-.04-.04ZM40.81,22.57c-.09-.2-.09-.06-.04,0,.01.02.03,0,.04,0ZM32.87,30.83c-.04-.06-.08-.04-.09-.01-.02.06.08.08.09.01ZM1.37,2.92c-.05-.11-.26.15,0,.02,0,0,0-.01,0-.02ZM1.2,2.21c-.1.16.09.1.06.05-.01-.02-.04-.04-.06-.05ZM24.19,2.17s-.05-.08-.09-.07c-.07,0,.03.11.09.07ZM33.62,30.44c-.17.02-.12.09.06.03l-.06-.03ZM4.23,5.66s-.03-.07-.07-.1c-.04.05.03.18.07.1ZM22.61,21.51s0-.03,0-.03c-.09,0-.11.22,0,.03ZM40.61,24.4s-.08-.07-.09,0c0,.06.08.08.09,0ZM23.84,1.93c-.1.02.05.14.08.08.01-.02-.04-.07-.08-.08ZM1.56,6.04s-.08.08,0,.09c.06.01.07-.07,0-.09ZM2.85,8.36c-.18-.18-.13.03-.03.02,0,0,.01-.01.03-.02ZM20.96,34.96s-.04.02.02.1c.05.07.07-.09-.02-.1ZM31.66,29.98s-.04-.06-.07-.05c-.11.05.05.13.07.05ZM5.28,6.48c-.05.05.02.19.05.13.02-.06,0-.12-.05-.13ZM26.05,3.14c-.04.07.08.18.08.09,0-.04-.04-.08-.08-.09ZM26.89,17.96c-.05,0-.12.08-.03.08.09,0,.09-.02.03-.08ZM2.9,8.79s-.04.01.02.12c0,.02.11.02-.02-.12ZM33.13,29.56c.17-.01.09-.04.07-.04-.04,0-.17,0-.07.04ZM2.9,5.9c-.08-.04-.15.04-.1.06.03,0,.1-.03.1-.06ZM3.39,3.28c0-.06-.11-.06-.1-.01.02.11.09.02.1.01ZM38.25,20.43c-.04-.15-.13.07-.03.06.03,0,.02-.03.03-.06ZM22.43,38.15c-.08.12.21.15.02,0,0,0-.01,0-.02,0ZM23.14,39.29s0,.11.06.13c.02,0,.06-.08-.06-.13ZM23.63,39.95s.02.13.06.13c.04,0,0-.13-.06-.13ZM46.1,40.25c-.07-.08-.13.15-.07.11.04-.03.07-.06.07-.11ZM3.4,3.41c-.13,0,0,.13.04.03.01-.04-.03-.02-.04-.03ZM46.29,40.73s.12-.03.12-.05c0-.04-.11.01-.12.05h0ZM8.46,8.17s0,.11.03.13c.02.01.07-.04-.03-.13ZM45.04,40.99c-.26-.11-.09.09-.02.02,0,0,0-.01.02-.02ZM35.66,29.05c-.03-.06-.18-.08-.12,0,.02.03.07.04.12,0ZM19.21,25.75c0-.05-.07-.09-.09-.05-.01.03,0,.1.09.05ZM27.53,21.73c.06.08.17-.05.08-.06-.04,0-.06.03-.08.06ZM36.54,28.68c.07.01.12-.06.12-.07-.01-.05-.18.03-.12.07ZM2.53,7.84c-.08-.12-.11-.07-.04.02.02.03.03.02.04-.02ZM2.75,1.19c-.02-.08-.1-.03-.09.01.01.08.1.05.09-.01ZM3.41,6.81s-.06-.09-.08-.04c-.01.04,0,.1.08.04ZM17.66,28.21c-.13-.12-.15-.01-.03.03,0,0,.02-.02.03-.03ZM22.83,23.66c0-.06-.07-.06-.08-.03-.01.03.02.1.08.03ZM17.6.94s-.04-.04-.06-.04c-.02,0-.05.03-.05.05,0,.04.11.04.11-.01h0ZM29.57,16.22c.08,0,.14-.08.08-.09-.03,0-.13.05-.08.09ZM6.31,7.15s-.05.01.02.11c.03.05.07-.08-.02-.11ZM5.93,5.77c0-.08-.09-.15-.09-.1,0,.04.05.15.09.1ZM26.11,23.4c.16-.09,0-.22-.02,0,0,0,.01,0,.02,0ZM19.42,27.9c0-.1-.15-.1-.12-.05.02.04.08.08.12.05ZM35.77,16.24c.14-.02.1-.04.08-.05-.1-.02-.19,0-.08.05ZM22.52.43c.1,0,.09-.05-.03-.04-.05,0-.08.03.03.04ZM13.28,23.31c-.08-.12-.12-.07-.03.03l.03-.03ZM3.89,9.9s-.02-.1-.05-.12c-.04-.02-.01.12.05.12ZM46.9,45.06s0-.02-.11.04c-.07.04.1.07.11-.04ZM39.77,19.33c-.06.09.09.14.07.1-.03-.09-.04-.08-.07-.1ZM22.17,23.24c.03-.07.08-.17,0-.15-.03.01-.07.1,0,.15ZM8.55,9.65c-.05,0-.09.03,0,.09.02,0,.11-.06,0-.09ZM16.3,22.12c0-.1-.17-.18-.04.01.01.02.03,0,.04-.01ZM13.27,22.14c-.02-.07-.18-.08-.12,0,.02.03.08.04.12,0ZM6.45,5.72c-.06-.01-.1.08-.02.08.04,0,.07-.02.02-.08ZM26.44,17.49s.14-.06.09-.08c-.03-.01-.13.04-.09.08Z"/>
        <path class="cls-1" d="M35.74,31.19s.21.17.3.17c.08-.07.2,0,.28-.09,0-.01.06-.02.1,0,.05.03-.1.06-.16.11-.05.04.1.06.03.08-.07.03-.26-.08-.29.11-.02.09-.09.06-.15.1.19.13.17-.12.28-.05.04.02.31.02.2.07-.13.07.03.05.03.1,0,.08-.04,0-.32.17-.1.06-.7-.18-.47-.22.3-.05-.22-.2-.48-.05-.22.13-.38.09-.41.12-.28.34-.87.1-.89.1-.05,0-.09.06-.15.03-.12-.07.03.07-.28.13-.05,0-.26.04-.25.1,0,.06.22-.05.28.11.32.07.13.17-.1.04-.18-.1-.18.05-.36.04-.36-.03-.26.03-.73.05-.39.01-.32.16-.39.03-.11-.18-.36-.02-.47-.01-.06,0,.04.11,0,.14-.1.05-.12-.05-.16-.19-.06-.2-.41-.14-.28-.24.09-.07.36.15.48.03.06-.06.42-.01.38-.13-.03-.07.03-.07.06-.05.02,0,.17.31.46.16.19-.09.24.06.32.12.07.05.17-.04.13-.07-.24-.17-.27-.14-.17-.19.07-.03-.06,0-.15-.1-.07-.09.29-.08-.01-.21-.09-.04-.11.13-.44.1-.12,0,.04-.05,0-.11,0-.01,0-.04,0-.04.54-.18.39.06.67.04.07,0,.14-.03.21-.03.03,0,.19.15.26.13.05-.02.07,0,.11.03.16.15.29.05.46.03.07,0,.15,0,.22,0,.08-.02.05-.13.12-.17.12-.07-.05-.11-.18-.16-.04-.01,0-.06.01-.06.13,0,.25.07.42,0,.21-.09.14.17.28.12.21-.08.45.08.62-.04.05-.04-.06-.06-.08-.04-.11.08-.34-.14-.16-.12.11.01.09-.02.17-.17-.04.04.58-.04.6-.02h0ZM32.91,31.9c-.05-.06-.21-.01-.14.01.06.02.1.03.14-.01Z"/>
        <path class="cls-1" d="M41.7,25.25c.12.09.08-.11.21-.19.09-.05-.04-.51.03-.64,0-.02-.03-.06-.04-.09-.05-.1.06-.2.09-.15.07.12.02-.01.28.1.04.02.11-.05.14-.11-.05-.1.04-.14.08-.2.13-.15.17.1.28-.03.05-.06-.03-.12,0-.17.07-.09-.19-.19.08-.18.12,0-.01.06.02.48,0,.06-.11.24.06.19.13-.03.16.25-.06.18-.11-.04-.09.17-.1.19-.08.28-.04.26-.02.34.04.2-.21.46-.22.48-.07.11-.21-.1-.2.18,0,.03.06-.01.06,0,.11.27-.04.27-.1.24-.04-.02.02-.06,0-.09-.07-.15-.13.31-.3.1-.04-.05-.03-.08.11-.31.07-.12-.08-.16.04-.21.08-.03.25,0,.26-.15,0-.2-.08-.08-.14-.23.08-.07-.03-.21.11-.26.02,0,.04-.05.04-.06-.04-.17.15-.27.06-.32-.09-.06-.03.17-.12.12-.07-.04-.14,0-.2,0-.25,0,0,.09-.02.38-.04.36-.11.19-.26.45-.15.26-.39-.11-.19-.04h0ZM42.57,24.74c-.07.04-.12.12-.17.19,0,0,.03.04.05.05.05.04.05.02.18-.21,0-.01-.04-.02-.06-.03ZM42.7,24.59c0-.22-.18,0-.09.08.07.05.08-.06.09-.08Z"/>
        <path class="cls-1" d="M42.21,20.41c.19-.06.13.23.22.1.11-.16.16.11.21.28.01.05-.14.07-.05.14.11.09.07.09.22.57.04.12-.11.11-.15.14-.08.05-.03.11.02.07.07-.05.14.02.12.08-.02.1-.14-.04-.15.09,0,.1-.01.2.07.28.04.04-.02.08,0,.12.02.06.06.04.07.02.05-.09,0-.1.09-.11.03,0,.12.27-.03.39-.03.02.05.03-.06.12-.04-.06-.02,0-.04-.23-.01-.19-.13.28.06.33.02,0,.05.06.01.09-.09.09-.08-.08-.21-.02-.33.16-.06-.27-.11-.34-.06-.09,0-.12.05-.22.1-.19-.15-.13-.08-.28.05-.11-.08-.14,0-.2.09-.07.11-.32.01-.28-.16.06-.12-.13-.07-.21.04-.07-.05-.11-.03-.18,0-.04-.02-.06-.06-.08-.06-.03-.09-.09-.1-.15-.04-.14.14-.12.05-.2-.21-.17-.02-.34-.06-.3h0ZM42.56,21.08s-.07.04-.05.06c.16.14.19,0,.05-.06ZM42.69,21.39c.02-.09-.17-.11-.05.03.03.03.04,0,.05-.03Z"/>
        <path class="cls-1" d="M37.14,31.07c-.03.05-.26.01-.11.1.07.04-.06.13-.14.15-.08.02-.13-.21-.45-.21-.09,0-.45.16-.56.02.06-.03.09.01.26-.07.15-.07-.03-.1.37-.12.18,0,.21,0,.21-.06,0-.06-.11.04-.09-.04.02-.17-.05-.08-.08-.14-.04-.08.6.04.42.07-.39.06.09.12.14.16.02.01,0,0,.26-.06.09-.02-.15-.16-.16-.17-.02-.02,0-.08.04-.07.09.02.14.06.18.02.03-.03-.08-.2-.21-.11-.02.01-.29,0,.25-.18.06-.02.04.05.04.13,0,.15.25.13.1.19-.07.03.02.07-.01.11-.06.07.19,0,.22.1.02.06-.06.04-.27.07-.05,0-.06.08.01.12.06.03.02-.09.12-.03.04.02.02.1.07.09.02,0,.38.02.37.06,0,.02-.07.07-.17.04-.43-.1-.46.14-.6-.01-.2-.22-.12-.14.06-.2-.06-.04-.22-.06-.27.05h0Z"/>
        <path class="cls-1" d="M40.23,18.23c-.16.43-.57-.94-1.93-1.54-.21-.09.04-.12-.03-.27-.07-.15.27.02.27.16,0,0,.01.02.02.02.19,0,.21.19.42.28.16.06.02.19.17.25.2.08.33.26.52.34.05.02.07.08.09.13.09.23.35.28.47.64Z"/>
        <path class="cls-1" d="M16.01,27.49c.09-.05.59.23.18.41-.04.02-.05-.03-.2-.24-.04-.06-.05-.1-.25,0-.04.02.08.1-.03.15-.07.03-.12.07-.17.02-.28-.29-.27-.3-.25-.33.03-.03.08,0,.09.01.22.13.23-.12.24-.14.06-.08-.21-.35-.23-.38-.08-.12-.16.05-.18-.09-.01-.1-.02-.1-.13-.1-.05,0-.22-.15-.05-.2.12-.04.07-.13.14-.1.19.08.2.07.19.2,0,.23.19.12.26.25.09.17.26.2.26.31,0,.02.07.24.09.25.01,0,.03-.01.05-.02h0ZM15.57,27.73s.08-.05.05-.07c-.18-.12-.11.07-.05.07Z"/>
        <path class="cls-1" d="M18.05,27.47c-.07-.03,0-.1-.12-.2-.41-.35-.38-.36-.47-.21-.08.13-.22-.1-.35-.09-.02,0-.08-.17-.09-.19-.04-.12.34-.03.24-.11-.23-.19-.23-.33-.34-.22-.08.08-.11-.11-.33-.13-.06,0-.04-.08-.02-.1.1-.1.15-.04.2-.06.23-.1.37.17.45.26.44.43,1.41,1.25.83,1.05h0Z"/>
        <path class="cls-1" d="M40.24,17.01c-.07-.07-.18-.03-.26-.07-.14-.07.18-.25.04-.26-.18-.02-.25-.27-.33-.11-.04.09-.21-.05-.25-.12-.02-.04.27-.15-.1-.28-.1-.03-.12-.22,0-.2.14.02-.04.15.1.16.05,0,.1.03.15.05.06.02.16-.02.19.06.05.11.91.85,1.04,1.13.04.09-.02.14-.08.07-.08-.09-.2.03-.29-.12.06-.12-.24-.09-.23-.32.25.01.11-.05.05-.08-.05-.03-.05.03-.05.09h0Z"/>
        <path class="cls-1" d="M42.21,20.4c-.26,0-.08,0-.39-.78-.03-.08-.15-.26-.14-.38,0-.09.2-.08.16-.17-.07-.19-.12,0-.27-.06-.03-.01-.07-.09-.01-.09.11,0,.12-.13.15-.16.2.09.1-.02.38.63.12.29.18.28.02.3-.1.01.09.33.1,0,.05.03.16.17.08.22-.13.07-.03.07-.1.29-.02.07.04.14.02.21h0s0,0,0,0Z"/>
        <path class="cls-1" d="M41.47,27.55c.11.08.04-.09.33.07.12.07-.46.19-.24.25.07.02-.1.22-.17.25-.2.07.02.06-.18.14-.06.02-.01.07,0,.08.04.16-.12.08-.22.22-.06.08-.32.06-.29-.02.15-.34.31-.45.35-.64.02-.11.11-.09.2-.09.15,0,.06-.29.22-.26h0Z"/>
        <path class="cls-1" d="M28.05,16.18c0,.13-.81.39-1.47.95-1.88,1.58-2.24,1.21,1.02-.8.42-.26.49-.1.45-.15h0Z"/>
        <path class="cls-1" d="M35.98,32.11c.06-.02.11-.08.17-.07.1.02.18-.02.25-.08.02-.02.04.03.03.05-.12.22-.55.18-.02.18.12,0-.05-.1.27-.14.12-.02-.13.28-.34.26-.07,0-.34.26-.66.14-.07-.02-.1-.03-.09.06.01.1-.27-.12-.22.04.03.09-.65-.1-.36-.13.2-.02.42,0,.56-.15.12-.14.55.06.4-.16h0Z"/>
        <path class="cls-1" d="M42.39,26.2s-.11.41-.19.49c-.26.26-.18.49-.26.44-.06-.04-.16-.06-.09-.15.06-.09-.08-.09-.1-.1-.23-.06.03-.15-.02-.25-.07-.15.35-.21.48-.49.05-.11.24-.05.18.06h0Z"/>
        <path class="cls-1" d="M39.19,29.13c0-.17.2-.07.16-.17-.07-.16.04-.12.1-.24.05-.12.09-.04.25-.12s.46.31.26.3c-.28-.01-.66.47-.83.42-.13-.04-.19.03-.26.09-.28-.03.05-.14.06-.22-.02.01.27.01.27-.05h0Z"/>
        <path class="cls-1" d="M27.72,31.49c-.02.05-.08.1-.01.17.03.04.03.11.09.12.03.1.15.15.15.28,0,.04.24.16-.06.15-.18,0-.08.12-.2.09-.08-.02-.18,0-.24-.09-.02-.02-.07-.02-.02-.07.13-.14.2-.19.16-.23-.05-.05-.09.02-.11.04-.04.03-.07-.08,0-.14.19-.15.07-.05-.16-.11-.05-.01.02-.07-.02-.08-.51-.22.48-.08.42-.13h0Z"/>
        <path class="cls-1" d="M38.32,30.17c-.02-.14.16-.17.14-.2-.06-.08-.2.1-.32.11-.03,0-.05.05-.05.09,0,.16-.15-.09-.43.04-.03.01-.05-.07-.02-.07.11,0,.2-.1.31-.04,0,0,.04-.03.06-.04s-.16-.19-.34-.16c-.04,0-.1-.05-.1-.07,0-.06.18-.04.22-.01.12.07.29-.08.23.04-.04.07.11.06.2.04.07-.01-.04-.09.07-.11.07-.01.11.07.18.04.3-.09.55.06.24.14-.06.02-.08.1-.14.11-.04,0-.17.06-.18.1.02-.01-.06-.01-.05,0h0Z"/>
        <path class="cls-1" d="M39.33,29.7c-.05-.1.09-.07.08-.13-.02.01.1.04.15.01.02-.01.06,0,.04.04-.04.11.12.1.17.11.12.01-.03.14.11.13.06,0,.08,0,.06.05-.02.06-.04.1.04.12.03,0-.12.2-.28.11-.01,0-.04,0-.05,0-.12.08-.15-.05-.22-.09-.07-.03.49-.13.16-.15-.21-.02-.33-.06-.53.11-.1.08-.5.16.27-.3h0Z"/>
        <path class="cls-1" d="M41.21,20.12c-.08-.01-.21-.19-.21-.28,0-.1-.19-.32-.22-.49-.02-.11-.25-.16-.18-.3.01-.03-.06-.13-.12-.24-.05-.09.17-.1.26.13.01.04.09.24.07.27-.04.06.22.14.24.24.02.14.11.25.16.37.03.08.02.16.07.23.02.03-.02.07-.06.07h0Z"/>
        <path class="cls-1" d="M40.62,27.75c-.19-.05-.25.22-.54.09-.13-.06.06-.08.1-.15.07-.13.21-.2.3-.3.03-.04.1.03.08.06-.07.09-.15.15-.13.17.01,0,.04.02.04.02.06-.07.18-.03.24-.12.11-.15.37-.07.43.04.07.12-.14.03-.28.11-.14.08-.14.08-.24.08h0Z"/>
        <path class="cls-1" d="M41.02,17.63c.16.11.4.53.39.57-.01.03-.03.24-.11.17-.22-.2-.43-.04-.23-.25-.33-.1-.22-.48-.05-.49h0ZM41.06,17.77s-.1.06-.09.08c.08.12.21-.08.09-.08Z"/>
        <path class="cls-1" d="M37.16,14.86c.12.17.33.04.45.2.14.2.3.07.32.21,0,.02-.02.07-.03.06-.11-.07-.25-.06-.34-.16-.07-.08-.27.09-.34-.04-.07-.13-.43,0-.35-.1.06-.08.37-.07.13-.11-.15-.03-.03-.08.02-.08.09,0,.17.05.15.02h0Z"/>
        <path class="cls-1" d="M34.17,32.24c.23,0,.24-.08.33-.03.07.04.18-.03.11-.13-.08-.12.54.08.5.13-.02.03-.04.09-.1.06-.2-.09-.49.07-.52.07-.08.02-.17-.06-.26-.03-.22.06,0,.1-.4.1-.1,0-.29-.1.22-.13.05,0,.06-.11.12-.04h0Z"/>
        <path class="cls-1" d="M30.61,32.35c.13-.04,0,.1.21.16.21.06.28-.05.3.03.04.15-.68.06-.83.04-.05,0,.1-.13,0-.14-.08,0-.3-.06-.33-.1.18-.11.52.05.67.01h0Z"/>
        <path class="cls-1" d="M19.99,31.26c-.12.08-.31-.06-.22-.11.07-.04.02-.12-.06-.11-.17.02,0,.13-.25.15-.09-.01.14-.53.21-.5.07.03.12.07.2.07-.02-.02.01.06,0,.1-.08.13.09.42.12.39h0Z"/>
        <path class="cls-1" d="M18.18,29.69c-.14,0-.07.11-.08.12-.1.08-.01.19-.22.12-.17-.06-.27-.08-.22-.17,0-.02-.1-.16.05-.15.09,0,.08.02.21.15.06.05.12-.05.07-.07-.13-.04-.14-.18-.23-.25-.05-.04-.02-.08.06-.1.06-.01.14.17.31.26.03.01.04.06.06.09h0Z"/>
        <path class="cls-1" d="M34.42,32.96c-.16-.09-.55.07-.4.1.42.09-.2.17-.21,0-.01-.2-.49-.17.04-.27.02.05.05.05.1.02.1-.08.29-.17.18,0-.1.15.23-.03.42.15-.02,0-.12.02-.13.01h0Z"/>
        <path class="cls-1" d="M39.58,16.95c-.09.14-.12-.06-.27-.14-.17-.09-.1-.26-.32-.25-.14,0-.08-.16-.23-.21-.08-.02-.21-.16-.15-.21.03-.03,1.02.63.97.81h0Z"/>
        <path class="cls-1" d="M32.05,33.02c-.09.1-.21.08-.46.05-.04,0,.02-.06-.02-.08-.13-.06-.41-.07-.32-.23.03-.05.08-.15.16-.11.23.13.37.07.46.12-.07.04-.35.04-.17.08.13.03-.01.03-.02.11,0,.09.37.04.37.05h0Z"/>
        <path class="cls-1" d="M33.65,30.67c.21,0,.25-.02.29.07.03.06.05-.03.47-.03.11,0,.09,0,.09.14,0,.07,0,.1-.07.1-.38,0-.25-.12-.36-.12-.19,0-.17-.01-.19-.05-.05-.08-.11-.03-.11.05,0,.06.04.1,0,.11-.1.02.04-.14-.23-.16.01.02.13-.12.11-.1h0Z"/>
        <path class="cls-1" d="M32.18,32.59c-.02-.15.32.05.65.01.2-.02.14-.1.39-.07.11.02-.13.12-.15.21,0,.05-.88-.04-.89-.15h0Z"/>
        <path class="cls-1" d="M42.97,23.08c-.03.38-.31.4-.2.19.03-.06-.06-.06-.07-.03-.03.14-.14.15-.19.11-.04-.03-.04-.04.12-.37.04-.07.08,0,.11.04.12.19.16-.22.23.05h0Z"/>
        <path class="cls-1" d="M17.13,28.58c-.09-.04-.2-.06-.26-.17-.02-.03-.05-.05-.09-.05-.15-.02-.04-.2-.23-.22-.08,0-.12-.1-.11-.13.03-.09.11.05.19,0,.2-.13.1-.08.28-.03h0c-.01.07-.17.06-.09.15.28.34.36.4.31.45h0Z"/>
        <path class="cls-1" d="M17.14,28.58c.14-.01.07.12.23.11.12,0,.13.16.1.27-.02.08.06.18.1.15.19-.15.25.21.18.16-.22-.17-.36-.03-.34-.16.02-.15-.16-.2-.18-.2-.16-.01.03-.06-.05-.12-.06-.05-.08-.18-.05-.21h0Z"/>
        <path class="cls-1" d="M38.43,31.02c-.1.02-.23-.1-.22-.15.01-.04.21.08.26-.04.1-.22.55.08.37.09-.13.01-.23.06-.15.12.15.12-.19.18-.14.02.03-.09,0-.07-.12-.04h0Z"/>
        <path class="cls-1" d="M41.6,21.86c0-.07.04-.14-.02-.18-.05-.03-.06-.05-.03-.1.18-.36-.32-.22,0-.61.01-.02.06-.02.07.04.02.08-.14.11.02.19.03.02.1.16.07.23-.07.14-.01.26.04.5.02.09-.21.2-.13-.06h0Z"/>
        <path class="cls-1" d="M41.44,26.5c-.02-.21-.05-.19-.03-.21.07-.03.05-.12.1-.15.08-.05.16-.09.15-.2.1-.11.24-.1.21-.04-.12.24-.16.24-.15.37.01.14.03.09-.09.14-.02,0-.2.08-.19.1h0Z"/>
        <path class="cls-1" d="M41.99,25.57c-.01.21-.21.02-.27.11-.13.18-.28.19-.31.41,0,.07-.33.02.15-.45.21,0,.22-.23.37-.18.04.01.06.05.05.11h0Z"/>
        <path class="cls-1" d="M41.09,18.97c-.02-.13-.1-.14-.12-.18.22-.1.33.3.38.4.07.14-.08.14,0,.31.01.02-.06.02-.06,0-.02-.17-.32-.4-.21-.54h0Z"/>
        <path class="cls-1" d="M40.06,28.03c.32,0,.04.07-.02.28-.04.15-.33.16-.29.07.09-.21.15-.21.02-.25-.17-.05.26-.12.3-.1Z"/>
        <path class="cls-1" d="M42.33,23.95c-.02.3-.09.17-.38.13-.11-.02-.02-.14.05-.27.03-.05.08,0,.11.06.08.17.18-.33.23.09h0Z"/>
        <path class="cls-1" d="M39.06,29.49c-.06.12.1.12.09.17,0,.05-.27-.01-.28-.01-.13-.02-.11.06-.26,0-.13-.06.19-.12.25-.25-.03.03.27-.05.2.09h0Z"/>
        <path class="cls-1" d="M40.7,26.82s-.02-.06,0-.1c.08-.13.29-.03.3.06.01.12-.21.13-.35.31,0,.01-.06,0-.06-.02.02-.15-.06-.08.11-.24h0Z"/>
        <path class="cls-1" d="M38.94,30.59c-.05,0-.05-.16.01-.19.1-.04.23.02.3-.13.03-.05.58.05-.31.32Z"/>
        <path class="cls-1" d="M40.58,18.02c.06.03.09.09.09.12.01.25.18.07.27.4.07.26-.69-.46-.35-.52Z"/>
        <path class="cls-1" d="M24.74,18.56c-.03.1-.43.49-.46.39-.01-.05.31-.61.46-.39Z"/>
        <path class="cls-1" d="M35.32,15.23c.25-.27.28-.01.3-.19.01-.16.45,0,.27.04-.05.01-.12-.02-.15.04-.08.2-.4.12-.42.1h0Z"/>
        <path class="cls-1" d="M40.11,17.61s-.03-.1-.07-.11c-.14-.03-.21-.32-.14-.28.41.25.22.25.32.33.32.25-.09.22-.11.05h0Z"/>
        <path class="cls-1" d="M30.72,33.56c-.33-.26-.06-.06.02-.25.09-.22.09.02.29.11.1.04-.28.12-.31.14h0Z"/>
        <path class="cls-1" d="M14.92,27.01s.12-.04.12,0c0,.12.11.15.19.2.11.08-.03.2-.09.14-.19-.17-.55-.39-.21-.35h0Z"/>
        <path class="cls-1" d="M36.85,15.83c-.02-.11.34.04.43.08.11.05-.4.1-.42.09-.06-.04-.64-.1-.16-.1,0-.03.17.06.14-.07Z"/>
        <path class="cls-1" d="M42,22.08c.09-.04.04-.17.14-.2.02,0,.05-.05.06,0,.27.77-.29.24-.2.2h0Z"/>
        <path class="cls-1" d="M41.72,18.76c-.21.03-.06.12-.3,0-.06-.03,0-.16.03-.28.02-.06.25.03.27.29h0s0,0,0,0Z"/>
        <path class="cls-1" d="M32.33,32.97c.09,0,.04.14.17.08.09-.05-.01.1.16.17.02,0-.02.06-.03.05-.12-.06-.22,0-.23-.02,0-.19-.71-.26-.06-.28h0Z"/>
        <path class="cls-1" d="M38.44,15.92c-.04.08-.03.14-.14.11-.21-.07-.07-.04,0-.11-.02-.01-.49-.05-.41-.14.01-.02.63-.01.55.14h0Z"/>
        <path class="cls-1" d="M38.86,30.06c-.03.44,0,.05-.53.32-.02,0-.06,0-.04-.05.03-.05.09-.09.08-.17-.09.09.5-.09.49-.11h0Z"/>
        <path class="cls-1" d="M41.35,20.69c.05-.17.03-.13-.09-.22-.11-.08.05-.26.31.31.08.16-.3.16-.22-.08Z"/>
        <path class="cls-1" d="M38.92,29.18c-.31,0-.33.3-.46.22-.08-.06-.02-.16,0-.16.15,0,.39-.16.51-.26.02-.02.08.03.06.06,0,.02-.16.19-.1.14Z"/>
        <path class="cls-1" d="M42.12,22.71c-.07,0-.13,0-.13-.08-.01-.23.2-.12.22-.21.03-.11.26.31-.09.3h0Z"/>
        <path class="cls-1" d="M41.31,27.12s-.11.06-.17.03c-.07-.03-.05-.35.27-.31.09.01-.09.16-.1.28Z"/>
        <path class="cls-1" d="M37.56,31.59s-.53-.08.11-.21c.07-.02.22.19-.11.21Z"/>
        <path class="cls-1" d="M26.91,31.93c-.04-.07-.11-.03-.17-.06-.04-.02-.05-.07,0-.1.06-.04,0-.12.05-.12.13,0,.31.09.28.22-.03.09-.18.04-.15.06h0Z"/>
        <path class="cls-1" d="M35.78,14.81c.07-.06.17-.06.25-.1.09.08.19-.06.29,0,.07.04.2-.07.21.03,0,.07-.18.11-.25.08-.24-.1-.43.12-.48-.02h0Z"/>
        <path class="cls-1" d="M17.73,22.99c-.07-.06.07-.15.11-.08.15.27.31.38.34.57-.12,0-.2-.27-.45-.48h0Z"/>
        <path class="cls-1" d="M28.88,33.35c-.05-.15,0-.16-.08-.17-.09-.01-.13-.07-.12-.09.02-.07.33-.03.28.13.15.2.28.02.34.14.05.11-.46-.05-.42-.01h0Z"/>
        <path class="cls-1" d="M28.86,31.39c-.07-.13.2-.04.21-.04.07,0,.22-.06.27.04.05.1-.15-.06-.18.02-.04.1-.35.22-.3-.02h0Z"/>
        <path class="cls-1" d="M5.37,2.17s-.15.09-.22.08c-.15-.03-.05-.17-.03-.26,0-.04-.03-.1.03-.11.04,0,.06.04.07.07.02.09.08.11.15.22h0Z"/>
        <path class="cls-1" d="M7.7,7.28c-.06-.1.09-.11.13-.07.13.13.05.23.23.36.05.04-.08.18-.35-.29h0Z"/>
        <path class="cls-1" d="M41.66,20.02c.18.08.21.3.19.31-.14.06-.44-.15-.21-.28.02,0,.03-.05.02-.04h0Z"/>
        <path class="cls-1" d="M41.72,24c0,.1-.06.34-.15.29-.11-.05-.05-.09,0-.34.02-.11.16-.07.16.04Z"/>
        <path class="cls-1" d="M18.49,30.44c-.09.02-.17-.06-.26,0-.02.01-.05-.02-.04-.05.05-.12.23-.18.25-.13.02.06.36.19.05.19h0Z"/>
        <path class="cls-1" d="M41.15,26.46c-.07.28-.41.11-.26-.08.08-.09.19-.01.26.08Z"/>
        <path class="cls-1" d="M41.85,22.53c-.08.09-.08.22-.14.32-.02.02-.08.01-.09-.02-.11-.39.3-.37.23-.3Z"/>
        <path class="cls-1" d="M40.37,29.6c-.04.06-.1.11-.16.08-.14-.06-.53.03-.38-.1.02-.02.49-.04.54.02h0Z"/>
        <path class="cls-1" d="M35.13,31.15v.06s-.5.06-.48-.06c.04-.17.49,0,.48,0Z"/>
        <path class="cls-1" d="M29.45,31.74s-.01-.14.09-.09c.04.02,0,.07.02.09.03.02.07.02.1.04.19.09-.95.08-.22-.04h0Z"/>
        <path class="cls-1" d="M19.65,29.38c0,.06-.2.11-.19.01,0-.05.11-.07.05-.17-.03-.05-.09-.09-.03-.16.08-.1.07.08.17.32h0Z"/>
        <path class="cls-1" d="M41.44,26.49c0,.07.02.1.09.06.03-.02.07.03.06.07-.02.08-.12.14-.13.13-.05-.12-.29-.06-.21-.14.09-.09.2-.09.18-.11h0Z"/>
        <path class="cls-1" d="M18.39,23.84s-.25-.32-.21-.36c.13.04.51.41.21.36Z"/>
        <path class="cls-1" d="M14.66,26.87c-.16-.06-.17-.19-.14-.18.7.08.17.2.14.18Z"/>
        <path class="cls-1" d="M29.2,31.81c.02.15.06.09.13.13.04.02,0,.08-.02.07-.14-.06-.3,0-.32-.09-.02-.14.22-.1.2-.12h0Z"/>
        <path class="cls-1" d="M.24,2.68c-.11-.03-.26-.3-.02-.27.19.02-.01.31.02.27Z"/>
        <path class="cls-1" d="M14.58,26.53c.02.14-.1,0-.17.05-.08-.05-.16-.3-.08-.24.05.03.07.12.17.1.07-.01.07,0,.07.09h0Z"/>
        <path class="cls-1" d="M17.22,29.16c-.08.11-.2.09-.23.04-.13-.19.17-.23.23-.04Z"/>
        <path class="cls-1" d="M37.86,16.58c.14-.06-.08-.14.03-.12.04,0,.24-.12.18,0-.02.04.02.04.03.05.12.09-.23.17-.24.07h0Z"/>
        <path class="cls-1" d="M41.47,24.93c.08.03-.02.32-.17.38-.02-.1.08-.41.17-.38Z"/>
        <path class="cls-1" d="M11.99,23.14c-.11.02-.17-.01-.1-.11.04-.06-.09-.24.04-.17.08.04.15.27.06.29h0Z"/>
        <path class="cls-1" d="M39.31,29.39c.06-.02.1-.03.12.05,0,.03.08.01.06.06-.06.14-.53,0-.18-.11Z"/>
        <path class="cls-1" d="M42.08,20.97c-.05.15-.05.21-.13.19-.07-.02-.11-.1-.03-.22.04-.05.06-.03.16.02h0Z"/>
        <path class="cls-1" d="M33.13,31.56c0-.09.12-.03.45-.08.03,0,.03,0,.06.03-.04.04-.52.13-.51.04Z"/>
        <path class="cls-1" d="M36.81,31.51s-.49-.02-.36-.13c.13-.11.09.05.16.03.08-.02.17.04.2.1h0Z"/>
        <path class="cls-1" d="M38.36,31.43c-.01.09-.29-.05-.28-.09,0-.02.18-.16.28.09Z"/>
        <path class="cls-1" d="M41.77,22.22c-.01.07,0,.16-.11.15-.12-.01.02-.13-.02-.2s.12-.11.14.05h0Z"/>
        <path class="cls-1" d="M17.45,29.79c.26,0,.11.44.03.29-.05-.09.02-.15-.05-.25,0,0,.01-.03.02-.04h0Z"/>
        <path class="cls-1" d="M37.96,16.26c-.41-.06-.31-.26-.17-.18.23.13.25.11.22.15-.02.02-.07.03-.05.02Z"/>
        <path class="cls-1" d="M40.47,29.33c-.11-.08-.14.05-.28.02-.08-.02-.02-.05,0-.05.14,0,.23-.26.35,0,.02.04-.02.05-.06.04Z"/>
        <path class="cls-1" d="M40.77,28.74s0,.08-.16.12c-.26.07-.08-.16-.03-.15.1.02.17-.02.19.03h0Z"/>
        <path class="cls-1" d="M40.55,28.06c-.04.07-.05.15-.12.18-.08.03-.05-.06-.06-.08-.02-.03-.09-.05-.06-.1.02-.03.16-.06.24,0h0Z"/>
        <path class="cls-1" d="M41.72,23.56c-.01.13,0,.16-.08.22-.04-.08.03-.1-.02-.16-.08-.11.07-.35.1-.06Z"/>
        <path class="cls-1" d="M32,33.3c.54-.16.38.05.32.05-.43,0-.29-.08-.32-.05Z"/>
        <path class="cls-1" d="M31.1,32.83c-.04.06-.14.12-.21.07-.09-.07-.15.01-.24-.07.04-.03.38-.04.45,0h0Z"/>
        <path class="cls-1" d="M13.97,25.9c-.17.02-.24-.28-.03-.16.24.15.11.15.03.16Z"/>
        <path class="cls-1" d="M14.17,26.14c-.09.03-.17-.04-.2-.12-.03-.07.07-.09.09-.08.06.04.12.15.11.19h0Z"/>
        <path class="cls-1" d="M41.17,26.03c0,.12-.18.23-.17.13.04-.35.16-.18.17-.13Z"/>
        <path class="cls-1" d="M26.84,31.38c.09.05.2.1.15.15-.06.06-.05.06-.22,0-.05-.02.1-.18.07-.15h0Z"/>
        <path class="cls-1" d="M16.8,28.76c-.03.08-.1-.11-.28-.09-.07,0-.02-.11.02-.1.11.02.25.07.25.19h0Z"/>
        <path class="cls-1" d="M18.12,29.35h-.28c.04-.05.04-.16.12-.15.08,0,.14.07.16.15h0Z"/>
        <path class="cls-1" d="M18.88,24.21c-.08.09-.27-.17-.25-.2.02-.03.24.17.25.2Z"/>
        <path class="cls-1" d="M31.21,33.16c-.13.24-.34-.13-.19-.08.02,0,.17.05.19.08Z"/>
        <path class="cls-1" d="M33.05,33.19c-.25.02-.12-.12-.02-.1.25.06.32.1.02.1Z"/>
        <path class="cls-1" d="M30.28,33.35c-.14-.06.02-.05-.08-.11-.08-.05.09-.11.13-.09.08.05-.04.11,0,.17.01.01-.03.03-.06.03h0Z"/>
        <path class="cls-1" d="M41.18,47.38s.01-.02.01-.02c.09.03.17-.04.26-.03.21.04-.26.19-.28.05Z"/>
        <path class="cls-1" d="M41.66,20.02c-.21-.03-.17-.35-.08-.24.15.18.04.28.08.24Z"/>
        <path class="cls-1" d="M38.52,17.35c-.09.05-.36-.11-.26-.13.12-.02.26.07.26.13Z"/>
        <path class="cls-1" d="M17.57,27.59c-.4-.04-.09-.19,0-.1.05.06.16.09,0,.1Z"/>
        <path class="cls-1" d="M24.05,19.63c-.24.02.13-.36.16-.28.01.03-.04.06-.13.19-.01.02-.04.11-.02.09h0Z"/>
        <path class="cls-1" d="M18.3,27.56s.04-.08.05-.06c.06.09.17.15.21.26.01-.02,0,.08-.26-.2h0Z"/>
        <path class="cls-1" d="M39.48,47.28c.18.04-.01.12-.08.12-.12.01-.18-.11.08-.12Z"/>
        <path class="cls-1" d="M.35,2.17c.03-.15.13-.04.1,0-.07.1.1.15.03.18-.08.03-.16-.05-.13-.17h0Z"/>
        <path class="cls-1" d="M28.87,31.71c-.06.02-.18-.07-.18-.08.08-.11.44.05.18.08Z"/>
        <path class="cls-1" d="M31.66,31.89c-.05.07-.1.11-.18.07-.22-.13.09-.1.18-.07Z"/>
        <path class="cls-1" d="M20.25,32.95c0-.14.11-.03.12,0,.05.29-.11.23-.12,0Z"/>
        <path class="cls-1" d="M28.3,32.03c-.22.03-.23-.23.1-.05.07.04-.02.05-.1.05Z"/>
        <path class="cls-1" d="M36.97,15.44c-.11.04-.43-.07-.31-.08.11,0,.24-.05.31.08Z"/>
        <path class="cls-1" d="M38.86,15.8c.34-.04.23.37,0,0h0Z"/>
        <path class="cls-1" d="M38.67,15.72s-.03-.1-.03-.15c-.03.03.13-.05.07.08,0,.02.14.07.14.14.01-.02.02.04-.19-.08h0Z"/>
        <path class="cls-1" d="M34.8,14.54c.3-.23.37-.02.18-.01-.2.01-.2,0-.18.01Z"/>
        <path class="cls-1" d="M8.16,7.72c.06,0,.15,0,.13.07-.03.09-.42-.05-.13-.07Z"/>
        <path class="cls-1" d="M17.77,27.35c-.21.09-.24-.2-.11-.13.07.04.1.08.11.13Z"/>
        <path class="cls-1" d="M18.17,30.14s-.05.01-.08,0c-.12-.03-.03-.14.02-.13.18.04.13.14.06.13h0Z"/>
        <path class="cls-1" d="M39.22,30.68c-.07.23-.25.07-.17,0,.05-.04.13-.04.17,0Z"/>
        <path class="cls-1" d="M30.31,31.84c-.07.02-.31-.33.04-.11.03.02,0,.09-.04.11Z"/>
        <path class="cls-1" d="M30.01,31.98c.06-.09-.01-.1.27-.04.12.03-.33.14-.27.04Z"/>
        <path class="cls-1" d="M29.75,32.04c-.2-.04.04-.18.14-.06.06.08-.11.06-.14.06Z"/>
        <path class="cls-1" d="M29.39,32.17s.06.14,0,.12c-.08-.02-.22-.06-.14-.09.02,0,.22-.23.14-.04Z"/>
        <path class="cls-1" d="M33.52,33.01c.36.19-.28.11-.11.03.03-.01.07-.02.11-.03Z"/>
        <path class="cls-1" d="M20.43,33.35c.21.35.04.4-.03.16,0-.03.02-.14.03-.16Z"/>
        <path class="cls-1" d="M40.27,18.48c-.21-.11.12-.16.11-.05,0,.05-.06.05-.11.05Z"/>
        <path class="cls-1" d="M40.86,47.27c-.1.07-.15.05-.27,0-.06-.03.25-.12.27,0Z"/>
        <path class="cls-1" d="M35.94,47.39c.15.07-.12.18-.14.07,0-.05.04-.05.14-.07Z"/>
        <path class="cls-1" d="M33.72,47.15c.06-.19.29,0,.15.01-.02,0-.12,0-.15-.01Z"/>
        <path class="cls-1" d="M40.32,19.41c-.08.11-.19.01-.13-.07.04-.06.17.03.13.07Z"/>
        <path class="cls-1" d="M32.01,33.29c-.32.08-.2-.12-.15-.1.18.1.13.11.15.1Z"/>
        <path class="cls-1" d="M34.86,32.7c.16.02.02.15-.08.09-.03-.02-.05-.08.08-.09Z"/>
        <path class="cls-1" d="M28.27,31.59c-.37.14-.2-.17,0,0h0Z"/>
        <path class="cls-1" d="M27.73,31.49c-.04-.11-.15-.02-.24-.07-.09-.05.26-.08.27.01,0,.06-.06.04-.04.06Z"/>
        <path class="cls-1" d="M39.49,30.84c-.02.06.02.11.02.17,0,.01-.06.04-.07.02-.1-.17.06-.23.05-.19h0Z"/>
        <path class="cls-1" d="M40.48,17.9c-.09.2-.28-.11-.14-.07.03,0,.11.03.14.07Z"/>
        <path class="cls-1" d="M16.03,28.19c.29.09-.13.17-.08.03,0-.02.06-.03.08-.03Z"/>
        <path class="cls-1" d="M17.14,27.15c.35.16.04.31-.03.02,0,0,.01,0,.03-.02Z"/>
        <path class="cls-1" d="M16.86,26.83c.14.07.1.07.06.15-.04.1-.14,0-.11-.06.02-.05.07-.1.05-.08h0Z"/>
        <path class="cls-1" d="M16.86,26.82c-.11-.05-.18-.07-.11-.11.05-.03.1-.07.14-.02.05.06-.07.16-.03.13Z"/>
        <path class="cls-1" d="M41.2,25.71c-.11-.16.15-.23.11-.12-.02.05-.06.09-.11.12Z"/>
        <path class="cls-1" d="M37.16,14.87c.03-.08.17-.05.26-.09.01,0,.05.04.06.05.03.05-.06.03-.32.03h0s0,0,0,0Z"/>
        <path class="cls-1" d="M19.42,24.76c.33.21.08.28-.02.04,0-.02.01-.03.02-.04Z"/>
        <path class="cls-1" d="M41.45,24.84c-.14,0,.03-.17.08-.12.03.03.02.12-.08.12Z"/>
        <path class="cls-1" d="M35.94,15.19c.1.05-.03.16-.14.07-.02-.01,0-.06.14-.07Z"/>
        <path class="cls-1" d="M38.16,15.41c-.16-.03-.06-.08.03-.1.06,0,.12.1-.03.1Z"/>
        <path class="cls-1" d="M37.63,16.75c-.1.09-.22-.05-.16-.07.07-.01.14.02.16.07Z"/>
        <path class="cls-1" d="M36.61,16.18c-.3.09-.22-.06-.13-.06.15,0,.13.08.13.06Z"/>
        <path class="cls-1" d="M42.6,23.48c.07.03-.04.04-.06.17-.03.16-.12-.23.06-.17Z"/>
        <path class="cls-1" d="M42.43,20.2c.1.02.02.17-.03.14-.07-.05-.03-.15.03-.14Z"/>
        <path class="cls-1" d="M4.44,1.35c-.07.01-.14.03-.11-.03.07-.18.06-.23.11.03Z"/>
        <path class="cls-1" d="M30.11,33.47c-.12.05-.27-.05-.19-.05.22,0,.2,0,.19.05Z"/>
        <path class="cls-1" d="M29.78,33.43s-.17.12-.21.06c.07-.02.13-.12.21-.06Z"/>
        <path class="cls-1" d="M28.43,33.53s-.01-.06.07-.09c.09-.03.02.2-.07.09Z"/>
        <path class="cls-1" d="M38.64,15.57c-.17.01-.26-.07-.24-.09.06-.09.23.1.24.09Z"/>
        <path class="cls-1" d="M19.2,24.64c-.07-.07-.11-.1-.06-.12.08-.03.3.25.06.12Z"/>
        <path class="cls-1" d="M30,31.67c-.16.2-.18-.1-.06-.05.02,0,.04.03.06.05Z"/>
        <path class="cls-1" d="M28.27,31.6c.25,0,.16.19.12.14-.12-.15-.1-.15-.12-.14Z"/>
        <path class="cls-1" d="M28.44,31.43c-.06,0-.12,0-.08-.05.04-.05.38.02.08.05Z"/>
        <path class="cls-1" d="M19.45,31.18s.07.08-.03.09c-.11,0-.15-.19.03-.09Z"/>
        <path class="cls-1" d="M25.04,18.25c0,.18-.21.07-.08-.04.06-.05.08-.02.08.04Z"/>
        <path class="cls-1" d="M18.26,29.31c.03-.07.07-.08.15-.07.08.02-.07.16-.15.07Z"/>
        <path class="cls-1" d="M40.72,29.18c-.06-.09.09-.14.15-.09.02.02-.03.1-.15.09Z"/>
        <path class="cls-1" d="M39.13,17.83c-.11.15-.27-.13-.02-.04,0,0,.01.03.02.04Z"/>
        <path class="cls-1" d="M40.46,28.33c.06-.04.08.18-.1.1.03-.08,0-.06.1-.1Z"/>
        <path class="cls-1" d="M41.97,26.08c.1.03.09.19.04.17-.07-.02-.11-.11-.04-.17Z"/>
        <path class="cls-1" d="M16.58,26.88c-.02.08-.15-.03-.13-.07.02-.04.12-.02.13.07Z"/>
        <path class="cls-1" d="M41.54,19.65c-.12.09-.11-.1-.07-.1.03,0,.07.06.07.1Z"/>
        <path class="cls-1" d="M40.15,27.02c-.07.12-.06.12-.09.12-.06,0,.05-.19.09-.12Z"/>
        <path class="cls-1" d="M13.77,26.13s-.05.04-.06.03c-.11-.18-.04-.21.06-.03Z"/>
        <path class="cls-1" d="M41.21,22.8v-.07c.23-.02-.1.27,0,.07Z"/>
        <path class="cls-1" d="M16.57,28.89c-.15-.06-.03-.14,0-.13.1.03.03.1,0,.13Z"/>
        <path class="cls-1" d="M12.45,24.18c-.04-.05-.03-.08,0-.1.18-.1.09,0,0,.1Z"/>
        <path class="cls-1" d="M19.8,29.6s0,.08-.03.07c-.22-.07-.05-.13.03-.07Z"/>
        <path class="cls-1" d="M38.31,30.17c-.03.2-.34,0,0,0h0Z"/>
        <path class="cls-1" d="M28.87,33.35c.14.3-.18.09,0,0h0Z"/>
        <path class="cls-1" d="M39.14,18.16c.07-.18.29,0,.18,0-.17,0-.19-.02-.18,0Z"/>
        <path class="cls-1" d="M6.2,4.83c-.13-.02-.07-.16.02-.09.06.05.02.07-.02.09Z"/>
        <path class="cls-1" d="M36.14,30.68c-.14.05-.05-.12.06-.06.02.01.05.09-.06.06Z"/>
        <path class="cls-1" d="M30.11,32.5c-.05.06-.05.03-.13.06-.11.04-.03-.16.13-.06Z"/>
        <path class="cls-1" d="M30.33,32.27c-.28-.05,0-.08.09-.06.03,0,.05.05-.09.06Z"/>
        <path class="cls-1" d="M35.13,31.16c.02-.15.21-.13.12-.04-.06.06-.14.01-.12.04Z"/>
        <path class="cls-1" d="M28.03,31.28c.09.02.05.15-.02.13-.09-.02-.05-.13.02-.13Z"/>
        <path class="cls-1" d="M38.85,31.46c-.23.21-.24-.07-.03-.03.01,0,.02.02.03.03Z"/>
        <path class="cls-1" d="M29.51,31.42c-.1-.12.1-.12.12-.07,0,.02-.03.03-.12.07Z"/>
        <path class="cls-1" d="M37.09,31.9c-.13.1-.17-.11-.09-.05.03.03.05.01.09.05Z"/>
        <path class="cls-1" d="M32.17,31.92c-.17-.03-.05-.05.04-.05.05,0,.05.04-.04.05Z"/>
        <path class="cls-1" d="M20.32,32.67c-.07.12-.07-.07-.06-.09.01-.03.04-.04.06.09Z"/>
        <path class="cls-1" d="M34.11,30.67c-.16-.06.08-.1.08-.07.01.05-.04.06-.08.07Z"/>
        <path class="cls-1" d="M20.37,33.13c.07.02.06.1.06.22-.06.05-.07-.2-.06-.22Z"/>
        <path class="cls-1" d="M39.62,30.44c0,.08-.29.07-.03-.03.01,0,.02.02.03.03Z"/>
        <path class="cls-1" d="M36.13,30.22c.14,0,.1.13,0,.06-.05-.04-.03-.04,0-.06Z"/>
        <path class="cls-1" d="M15.9,25.37c-.05-.03-.02-.14,0-.12.06.05.09.09,0,.12Z"/>
        <path class="cls-1" d="M41.59,24.41c0,.06-.1.04-.09-.02,0-.02.09-.05.09.02Z"/>
        <path class="cls-1" d="M12.92,24.39c.01-.07.1-.03.09.02-.02.07-.09.04-.09-.02Z"/>
        <path class="cls-1" d="M41.91,20.76c-.11.1-.17-.1-.09-.05.04.03.05.01.09.05Z"/>
        <path class="cls-1" d="M39.66,29.34c.12.06-.07.11-.08.07-.01-.05.04-.05.08-.07Z"/>
        <path class="cls-1" d="M17.49,29.37c.06.05.02.16-.02.12-.04-.04-.1-.03.02-.12Z"/>
        <path class="cls-1" d="M40.53,29.1c0-.09.17-.09.11-.03-.03.04-.07.06-.11.03Z"/>
        <path class="cls-1" d="M17.47,28.53c.1.02.14.17-.02.05-.02-.02-.02-.04.02-.05Z"/>
        <path class="cls-1" d="M24.49,19.14c-.29.15-.11-.14,0,0h0Z"/>
        <path class="cls-1" d="M18.43,28.04s-.07.12-.08.04c-.01-.07,0-.11.08-.04Z"/>
        <path class="cls-1" d="M4.9.77c.1.02.04.16-.07.1-.06-.04.06-.03.08-.1h0Z"/>
        <path class="cls-1" d="M4.9.76c-.21-.13.05-.12.02-.07-.03.08-.04.08-.02.07Z"/>
        <path class="cls-1" d="M37.24,16.33c-.04.08-.08.06-.12.04.06-.09.14-.07.12-.04Z"/>
        <path class="cls-1" d="M40.6,27.2c0,.06-.07.09-.09.01-.02-.05.07-.08.09-.01Z"/>
        <path class="cls-1" d="M35.06,47.25c-.02.05-.09.03-.08-.02,0-.03.04-.06.08.02Z"/>
        <path class="cls-1" d="M40.84,47.51c-.17-.03-.04-.06.04-.06.05,0,.05.05-.04.06Z"/>
        <path class="cls-1" d="M18.33,26.31c-.02-.05-.11-.04-.11-.11,0-.05.03-.11-.02-.16-.03-.03.01-.05.03-.04.18.06.53.4.09.3h0Z"/>
        <path class="cls-1" d="M6.82,6.08c-.02.11-.03.11-.17.11,0-.06-.02-.03.17-.11Z"/>
        <path class="cls-1" d="M29.48,28.74c.08-.02.01-.03,0-.12-.01-.11.15-.11.24-.06.13.08.45-.14.7.01.23.13-.75,0-.44.24.13.1-.92.05-.5-.06h0Z"/>
        <path class="cls-1" d="M33.09,28.07c.3.03.27-.08.42-.03.05.02.3.13.23.17-.18.1-.25.09-.1.15.09.03,0,.06-.03.05-.09-.02-.17.1-.26.03-.17-.13-.11-.21-.21-.24-.35-.11-.28-.1-.06-.13h0Z"/>
        <path class="cls-1" d="M31.61,28.52c0,.07-.03.05-.49.07-1.51.06.58-.26.49-.07Z"/>
        <path class="cls-1" d="M33.79,28.01s.1-.09.17-.07c.29.1.24-.08.52.03.2.08-.68.21-.69.03h0Z"/>
        <path class="cls-1" d="M31.89,29.56c.17,0,.12.16.23.1.06-.04.22-.05.21.02,0,.07-.12-.01-.31.09-.09.05-.13-.02-.19-.05-.02-.01,0-.07,0-.12-.02-.05.05-.03.07-.04h0Z"/>
        <path class="cls-1" d="M34.09,29.19c-.02-.29.14-.09.37-.15.06-.02.15.15-.37.15Z"/>
        <path class="cls-1" d="M26.84,28.41c.05.02.15-.05.16.07-.07.09-.12-.02-.19-.01-.31.04-.37-.24.03-.06h0Z"/>
        <path class="cls-1" d="M28.8,28.63c-.33-.03.01-.2.19-.06.09.07-.07.06-.19.06Z"/>
        <path class="cls-1" d="M28.51,28.93s.08.06.07.07c-.02.01-.06.02-.07.01-.13-.06-.27-.02-.4-.05-.06-.01-.07-.09.41-.03h0Z"/>
        <path class="cls-1" d="M29.48,21.45c.13-.22.1-.22.34-.23,0,.05-.16.19-.34.23Z"/>
        <path class="cls-1" d="M37.46,25.05c-.12-.05.05-.15.15-.23.09-.06-.05.27-.15.23Z"/>
        <path class="cls-1" d="M30.28,28.79c-.05,0-.01-.08,0-.07.96.11.03.08,0,.07Z"/>
        <path class="cls-1" d="M28.47,28.64c-.34-.02-.17-.17-.05-.1.05.03.11-.02.15.04.04.06,0,.05-.1.06Z"/>
        <path class="cls-1" d="M32.14,28.29c.37.06.2.14.15.1-.07-.05-.16.03-.23-.04-.06-.05,0-.05.08-.07Z"/>
        <path class="cls-1" d="M27.71,28.75c-.04.09-.4-.05-.26-.06.11,0,.22-.03.26.06Z"/>
        <path class="cls-1" d="M31.93,28.59c.08-.15.34.04.02.04-.03,0-.03-.02-.02-.04Z"/>
        <path class="cls-1" d="M29.12,28.95c.33.02-.08.14-.16.03.04-.04.1-.02.16-.03Z"/>
        <path class="cls-1" d="M27.42,28.47c.15.01.17.06-.07.04-.02,0-.07-.03.07-.04Z"/>
        <path class="cls-1" d="M27.18,28.85c-.44.03-.05-.19,0,0h0Z"/>
        <path class="cls-1" d="M27.17,28.86c.43-.05.09.14,0,0h0Z"/>
        <path class="cls-1" d="M29.81,21.23c0-.13-.02-.13.08-.11.2.03.1.02-.08.11Z"/>
        <path class="cls-1" d="M28.42,28.8c-.08,0-.08-.06.07-.05.04,0,.09.05-.07.05Z"/>
        <path class="cls-1" d="M37.92,23.27c-.02.06-.12.03-.08-.04.02-.03.09-.03.08.04Z"/>
        <path class="cls-1" d="M39.8,23.86c-.07.04-.05.14-.13.1-.12-.06.13-.68.13-.1Z"/>
        <path class="cls-1" d="M39.85,23.31c-.06-.01-.16-.01-.1-.12.05-.1.09.13.1.12Z"/>
        <path class="cls-1" d="M39.18,22.45c0,.08-.19.02-.14-.14.02-.09.14,0,.14.14Z"/>
        <path class="cls-1" d="M29.02,30.29s.1.11,0,.1c-.1,0-.02-.07,0-.1Z"/>
        <path class="cls-1" d="M33.94,29.46c.14,0,.08.19-.03.05-.02-.02-.02-.02.03-.05Z"/>
        <path class="cls-1" d="M39.96,21.36c.04-.11.14.06.09.11-.03.03-.09.02-.09-.11Z"/>
        <path class="cls-1" d="M18.1,25.86s-.06.11-.09.06c-.08-.13-.47-.43-.28-.39.12.02.38.29.36.33h0Z"/>
        <path class="cls-1" d="M19.29,27.09c-.11.01-.15-.15-.08-.13.05.01.12.09.08.13Z"/>
        <path class="cls-1" d="M35.84,27.42c.15.01.15,0,.17.12-.16.02-.15-.02-.17-.12Z"/>
      </g>
    </g>
  </g>
</svg>