<?xml version="1.0" encoding="UTF-8"?>
<svg id="Layer_2" data-name="Layer 2" xmlns="http://www.w3.org/2000/svg" viewBox="0 0 48 41.61">
  <defs>
    <style>
      .cls-1 {
        fill: #bdbdbd;
      }
    </style>
  </defs>
  <g id="Layer_1-2" data-name="Layer 1">
    <g id="_ÎÓÈ_1" data-name=" ÎÓÈ 1">
      <path class="cls-1" d="M21.85,41.61c-.65,0-1.29-.07-1.88-.16-8.64-1.26-16.47-7.18-19.97-15.08l2.26-1c3.16,7.14,10.25,12.49,18.07,13.64.97.14,2.09.24,3.01-.11,1.11-.42,1.81-1.44,2.15-2.68-1.25-.15-2.34-.38-3.14-.58-4.75-1.17-7.97-2.89-10.14-5.42-2.58-3.01-3.56-8.14-.73-11.52l.42-.5.65.06c7.27.73,13.74,6.37,15.37,13.4.17.73.27,1.49.29,2.24h.1c2.82,0,5.98-.65,7.88-3.09,1.97-2.54,1.71-5.63.37-8.6-5.1.53-10.52-1.93-13.8-6.32-.91-.73-1.28-1.88-.99-3.13.38-1.66,1.8-3.03,3.38-3.27,2.43-.37,4.56,1.05,6.32,2.49,2.58,2.11,4.89,4.7,6.48,7.46,4.27-1.18,7.51-5.16,7.39-9.27-.03-1.01-.3-2.04-.77-2.99-.02,0-.04,0-.06.01-3.37.68-7.02.13-10.04-1.49l-.42-.22-.16-.45c-.6-1.68.02-3.66,1.48-4.71l.22-.16.27-.05c2.68-.49,5.56.32,7.89,2.21.65.53,1.23,1.12,1.74,1.76,0-.01.01-.02.02-.03-.03-.04-.07-.09-.1-.1.09.04.34.02.48-.14l-1.82-1.67c.65-.71,1.69-.84,2.59-.32.89.52,1.62,1.72,1.23,2.92-.15.46-.46,1-1.06,1.47.59,1.24.92,2.56.96,3.88.15,5.06-3.66,9.95-8.75,11.59,1.51,3.67,1.55,7.47-.91,10.64-2.57,3.31-6.63,4.11-10.15,4.05-.47,2.15-1.68,4.02-3.77,4.81-.78.29-1.59.4-2.36.4h0ZM12.99,20.82c-1.49,2.37-.68,5.73,1.09,7.81,1.82,2.12,4.63,3.59,8.85,4.63.61.15,1.6.36,2.79.51-.03-.52-.1-1.03-.21-1.52-1.35-5.81-6.55-10.52-12.52-11.42ZM25.91,11.93c-.13,0-.26.01-.4.03-.66.1-1.21.79-1.34,1.38-.11.49.09.63.17.68l.18.12.13.17c2.51,3.45,6.55,5.53,10.5,5.53h.09c-1.49-2.3-3.47-4.4-5.33-5.91-1.22-1-2.64-1.99-4-1.99h0ZM36.13,3.81c2.1,1.01,4.51,1.41,6.84,1.16-.24-.24-.49-.48-.76-.69-1.68-1.36-3.71-1.99-5.59-1.75-.33.33-.51.82-.48,1.28h0Z"/>
    </g>
  </g>
</svg>