<?xml version="1.0" encoding="UTF-8"?>
<svg id="Layer_2" data-name="Layer 2" xmlns="http://www.w3.org/2000/svg" viewBox="0 0 38.5 48">
  <defs>
    <style>
      .cls-1 {
        fill: #bdbdbd;
      }
    </style>
  </defs>
  <g id="Layer_1-2" data-name="Layer 1">
    <path class="cls-1" d="M3.99,48c-.5,0-1.01-.1-1.5-.3-2.05-.83-3.02-3.17-2.19-5.22L14.96,6.55C16.81,1.99,21.33-.59,26.19.12c4.87.7,8.45,4.47,8.93,9.36l3.36,34.12c.21,2.19-1.39,4.16-3.58,4.37-2.22.21-4.16-1.39-4.37-3.58l-3.36-34.12c-.18-1.76-1.55-2.14-2.13-2.22-.59-.08-2-.11-2.67,1.54L7.69,45.5c-.64,1.55-2.13,2.5-3.71,2.5h.02Z"/>
  </g>
</svg>