<?xml version="1.0" encoding="UTF-8"?>
<svg id="Layer_2" data-name="Layer 2" xmlns="http://www.w3.org/2000/svg" viewBox="0 0 48 39.27">
  <defs>
    <style>
      .cls-1 {
        fill: #bdbdbd;
      }
    </style>
  </defs>
  <g id="Layer_1-2" data-name="Layer 1">
    <g id="_ÎÓÈ_1" data-name=" ÎÓÈ 1">
      <path class="cls-1" d="M16.85,38.37c.63-4.94,1.36-9.87,2.17-14.78.82-4.94,1.73-9.86,2.74-14.76.56-2.75,1.16-5.49,1.78-8.23-.86.17-1.71.33-2.57.5,1.4,4.59,2.88,9.16,4.44,13.7,1.57,4.54,3.23,9.05,4.97,13.52.98,2.52,1.99,5.02,3.02,7.52.77-.33,1.54-.65,2.3-.98-4.35-2.76-8.71-5.52-13.06-8.28l-13-8.25c-2.45-1.55-4.89-3.1-7.34-4.65-.4.45-.79.91-1.19,1.36,5.97-.65,11.93-1.41,17.87-2.28,5.94-.88,11.86-1.87,17.76-2.98,3.39-.64,6.77-1.31,10.14-2.01-.33-.35-.65-.71-.98-1.06-4.86,3.44-9.54,7.13-14,11.08-4.41,3.9-8.6,8.05-12.55,12.42-2.25,2.48-4.42,5.03-6.51,7.64-.38.48.33.78.7.79.62,0,1.3-.21,1.69-.71,3.62-4.52,7.45-8.82,11.55-12.92,4.12-4.13,8.47-8.03,13.01-11.69,2.59-2.08,5.02-3.92,7.7-5.81.26-.19.69-.56.39-.91-.32-.36-.97-.24-1.37-.16-5.85,1.23-11.41,2.28-17.41,3.3-5.85.99-11.73,1.87-17.61,2.64-3.35.44-6.7.83-10.05,1.2-.44.05-1,.24-1.29.6-.23.29-.23.56.1.76,4.35,2.76,8.71,5.52,13.06,8.28,4.33,2.75,8.67,5.5,13,8.25,2.45,1.55,4.89,3.1,7.34,4.65.4.25,1.14.1,1.53-.08.27-.13.94-.49.77-.89-1.84-4.44-3.59-8.91-5.26-13.42-1.67-4.5-3.25-9.04-4.74-13.6-.84-2.56-1.65-5.14-2.43-7.72-.15-.48-.92-.43-1.29-.35-.45.09-1.17.34-1.28.85-1.1,4.86-2.12,9.74-3.04,14.64-.93,4.92-1.76,9.85-2.5,14.8-.41,2.77-.8,5.55-1.16,8.33-.07.57.72.63,1.12.58.44-.06,1.38-.32,1.46-.89h0Z"/>
    </g>
  </g>
</svg>