<?xml version="1.0" encoding="UTF-8"?>
<svg id="Layer_2" data-name="Layer 2" xmlns="http://www.w3.org/2000/svg" viewBox="0 0 47.29 48">
  <defs>
    <style>
      .cls-1 {
        fill: #bdbdbd;
      }
    </style>
  </defs>
  <g id="Layer_1-2" data-name="Layer 1">
    <g id="_ÎÓÈ_1" data-name=" ÎÓÈ 1">
      <g>
        <path class="cls-1" d="M2.84,7.14c.13-.13.27-.26.4-.39l1.34-.47h-.05c.28.03.57.04.85.06.12.02.28.12.36.21-.11-.11-.03.08,0,.02-.01-.03-.02-.05-.03-.08-.01-.06-.02-.05-.01.03,0,0-.16.34-.03.16-.18.18-.36.36-.54.54-.29.04-.58.09-.87.13-.87-.06-1.12.01-.74.2-.01-.02-.1-.08.04.04.13.12.24.27.34.4.22.31.42.63.64.94.43.64.88,1.27,1.32,1.9.9,1.26,1.82,2.5,2.76,3.73,1.91,2.47,3.93,4.87,6.05,7.16,4.23,4.57,8.9,8.75,13.99,12.36,2.86,2.03,5.86,3.86,8.98,5.47.76.39,1.84.21,2.52-.28.58-.42.95-1.08.26-1.57-6.2-4.45-12.41-8.91-18.61-13.37-2.75-1.98-5.56-3.91-8.24-5.99-2.28-1.77-4.47-3.7-6.29-5.95-1.97-2.44-3.38-5.24-3.73-8.39-1.05.47-2.1.93-3.16,1.4,4.95,3.45,9.72,7.16,14.27,11.13,4.6,4,8.99,8.25,13.15,12.72,2.33,2.5,4.58,5.08,6.75,7.72.9-.6,1.79-1.19,2.69-1.79-1.48-.52-2.64-.98-4.07-1.62-1.41-.64-2.8-1.34-4.16-2.09-2.67-1.48-5.21-3.18-7.61-5.07-4.72-3.72-8.89-8.3-12.2-13.35-1.86-2.84-3.44-5.84-4.72-8.98-1.05.47-2.1.93-3.16,1.4,6.68,2.72,12,7.95,17.37,12.6,6.08,5.26,12.17,10.52,18.25,15.79,1.72,1.49,3.45,2.98,5.17,4.47.56.48,1.45,1.1,1.56,1.89,0,.06,0,.08.02.13.03.22-.09.04.01.05,0,0-.12.2,0,.03.07-.08.06-.08-.03.02.05-.04.1-.08.15-.12.03-.02.38-.18.12-.07.27-.12.61-.19.9-.17.17,0,.24.07.39.1.14.03.1.11,0-.09-.15-.27-.72-.38-.98-.39-.44-.03-.99.07-1.39.26-.63.31-1.31.86-.9,1.59.52.93,1.97.86,2.84.64,1-.26,2.07-.94,2.39-1.97.58-1.82-1.73-3.3-2.87-4.28-3.32-2.87-6.64-5.74-9.96-8.62-3.3-2.85-6.59-5.7-9.89-8.55-3.15-2.72-6.26-5.49-9.46-8.14-3.34-2.77-6.87-5.38-10.91-7.02-.68-.28-1.45-.26-2.12.06-.42.2-1.28.74-1.03,1.34,2.37,5.8,5.73,11.18,9.87,15.88,4.16,4.72,9.11,8.78,14.55,11.93,3.1,1.8,6.37,3.28,9.75,4.47.65.23,1.64-.02,2.19-.41.41-.3.92-.87.5-1.38-3.9-4.73-8.04-9.25-12.42-13.53-4.42-4.32-9.07-8.4-13.92-12.24-2.71-2.15-5.49-4.21-8.33-6.19C2.24,2.93-.14,3.67,0,4.97c.66,5.95,4.98,10.56,9.43,14.17,2.61,2.12,5.38,4.04,8.11,6,3.14,2.26,6.29,4.51,9.43,6.77,3.55,2.55,7.11,5.1,10.66,7.65.92-.62,1.85-1.23,2.78-1.85-6.32-3.26-12.12-7.44-17.33-12.27-5.25-4.87-9.92-10.35-14.06-16.19-.57-.81-1.13-1.63-1.69-2.45-.29-.42-.6-.82-1.04-1.09-.68-.43-1.53-.45-2.3-.27-1.07.25-2.47,1.31-1.6,2.49.86,1.16,3.15.6,3.77-.56.38-.73-.34-1.2-1.01-1.23-.78-.03-1.92.26-2.32,1.02h0Z"/>
        <path class="cls-1" d="M7.67,42.3c3.81-9.57,9.15-18.49,15.73-26.41,1.65-1.98,3.37-3.91,5.17-5.76.87-.9,1.77-1.78,2.67-2.64.45-.43.91-.86,1.37-1.28.17-.16.34-.32.53-.46.1-.08.2-.15.3-.23.14-.1.14-.1-.01,0,.05-.04.11-.07.16-.1.2-.12.41-.24.62-.35-.39.21.18-.08.3-.12.04-.02.08-.03.12-.05.19-.07.16-.06-.11.04,0-.04.35-.06.35-.1,0,.02-.44.09-.01.01.33-.06-.35-.02,0,0,.37.02-.32-.07.04,0,.07.01.37.11.08,0,.08.03.42.21.29.12.38.28.57.64.62,1.12.07.6-.2,1.23-.45,1.77-.3.64-.64,1.27-.97,1.9-.61,1.16-1.24,2.3-1.88,3.44-5.32,9.47-11.63,18.4-18.77,26.58-1.77,2.02-3.58,4-5.45,5.93-.19.2-.35.37-.54.54-.02.02-.04.04-.06.05-.15.11-.17.13-.06.06.09-.24.89-.27,1.18-.24-.03,0-.06-.01-.09-.02.17.05.19.05.07,0,.02-.02.13.11,0,0-.19-.16-.24-.22-.32-.41-.34-.78-.33-1.67-.14-2.49.26-1.11.77-2.21,1.18-3.27.48-1.22.98-2.44,1.5-3.64,1.04-2.41,2.16-4.79,3.37-7.12,4.76-9.22,10.82-17.78,17.89-25.38.82-.88,1.66-1.76,2.51-2.61-1.02.15-2.03.29-3.05.44,1.92,1.57,1.47,4.15.65,6.19-1.02,2.53-2.79,4.74-4.33,6.97-3.39,4.89-6.94,9.7-11.05,14.01-1.99,2.09-4.13,4.04-6.41,5.8-1.19.92-2.22,1.74-3.49,2.41.22-.11-.15.06-.22.09.03-.01.27-.1.07-.03s.05-.02.08-.02c.03,0,.15,0,.17-.02.06-.04.11.1-.01-.02-.1-.1-.2-.09-.29-.17-.35-.3-.48-.76-.48-1.23,0-1.16.64-2.23,1.23-3.17.87-1.39,1.76-2.76,2.66-4.13,1.79-2.7,3.65-5.36,5.57-7.98,3.86-5.26,7.98-10.33,12.34-15.19.54-.6,1.08-1.19,1.62-1.79l-3.05.82c-.11-.06.14.14.15.17.04.08.09.31.09.44,0,.07-.03.22-.08.34.05-.14-.02.03-.02.03-.11.13-.08.11.1-.05.11-.11.23-.19.37-.24-.4.14-1.49.77-.97,1.31.53.55,1.75.18,2.32-.03.82-.29,1.7-.93,1.8-1.86.09-.77-.24-1.38-.93-1.72-.92-.45-2.42.12-3.05.82-4.64,5.06-9.02,10.36-13.13,15.86-2.07,2.78-4.07,5.6-5.99,8.48-.94,1.41-1.87,2.84-2.78,4.27-.74,1.17-1.57,2.39-1.75,3.79-.19,1.4.37,2.59,1.81,2.97,1.98.53,4.06-.48,5.67-1.55,2.65-1.77,5.14-3.77,7.44-5.98,4.59-4.39,8.5-9.4,12.16-14.57.91-1.29,1.81-2.59,2.71-3.9.8-1.17,1.64-2.33,2.31-3.59,1.14-2.11,2.36-5.06,1.18-7.4-.29-.57-.68-1.07-1.17-1.47-.74-.6-2.43-.18-3.05.44-7.84,7.87-14.57,16.81-19.87,26.58-2.63,4.85-4.93,9.87-6.85,15.04-.58,1.56-1.29,4.44.69,5.38,1.54.73,3.64-.1,4.78-1.18,1.06-1.01,2.05-2.11,3.05-3.19,7.78-8.39,14.65-17.61,20.45-27.47,1.46-2.49,2.86-5.01,4.18-7.58.59-1.14,1.38-2.58.73-3.87-.53-1.05-1.6-1.4-2.71-1.44-2.59-.1-5.09,1.28-6.94,2.98-2.05,1.88-4.01,3.84-5.9,5.88-7.41,8-13.49,17.22-17.93,27.17-.55,1.24-1.08,2.49-1.58,3.75-.29.72,1.16.7,1.5.65.7-.11,1.73-.4,2.03-1.14h0Z"/>
      </g>
    </g>
  </g>
</svg>