<?xml version="1.0" encoding="UTF-8"?>
<svg id="Layer_2" data-name="Layer 2" xmlns="http://www.w3.org/2000/svg" viewBox="0 0 33.69 48">
  <defs>
    <style>
      .cls-1 {
        fill: #bdbdbd;
      }
    </style>
  </defs>
  <g id="Layer_1-2" data-name="Layer 1">
    <g id="_ÎÓÈ_1" data-name=" ÎÓÈ 1">
      <g>
        <path class="cls-1" d="M18.23,19.63c.52-2.63,1.04-5.33.63-8.02-.3-1.97-1.19-3.88-2.59-5.31-1.49-1.53-3.48-2.48-5.59-2.81-2.21-.34-4.6-.15-6.63.84-1.89.92-3.37,2.48-3.85,4.57-.42,1.81-.14,3.74.29,5.53.28,1.17.61,2.33.93,3.49.36,1.33.71,2.65,1.07,3.98.71,2.64,1.42,5.28,2.13,7.91,1.43,5.31,2.86,10.61,4.29,15.92.18.66.35,1.31.53,1.97.08.31.59.33.84.3.4-.06.76-.21,1.02-.52,1.82-2.15,3.62-4.31,5.37-6.52,1.74-2.19,3.43-4.42,5.04-6.71,1.58-2.24,3.08-4.53,4.46-6.89,1.35-2.31,2.58-4.7,3.66-7.15,1.03-2.35,1.9-4.77,2.56-7.25.64-2.43,1.07-4.92,1.23-7.43.07-1.13.21-2.41-.28-3.47-.51-1.13-1.61-1.76-2.81-1.95-2.77-.44-5.51.77-7.35,2.82-1.82,2.03-3.24,4.48-4.31,6.98-1.04,2.43-1.72,5.01-1.94,7.65-.05.63-.08,1.26-.08,1.89,0,.43.5.49.84.44.25-.04.52-.11.73-.25.13-.09.36-.24.36-.42,0-5.24,1.84-10.31,4.87-14.56.17-.25.35-.49.54-.73.09-.11.18-.23.27-.33.05-.06.09-.11.14-.17.06-.07.06-.07.02-.02.03-.04.06-.07.1-.11.19-.22.4-.43.61-.63.1-.09.2-.18.3-.27.05-.04.09-.08.14-.12.02-.02.27-.21.12-.1.24-.18.5-.35.77-.5.03-.02.26-.13.06-.03.07-.04.14-.07.21-.1.06-.03.37-.21.43-.18-.04.01-.08.03-.12.04.04-.01.09-.03.13-.04.07-.02.13-.04.2-.06.11-.03.29-.11.4-.1-.04,0-.08.02-.12.02.05,0,.09-.02.14-.02.05,0,.09-.01.14-.02.16-.02.32-.04.48-.05.24-.02-.2,0,.03,0h.21c.14,0,.27.01.41.02.22.01-.17-.03.05,0,.07.01.13.02.2.03.15.03.3.06.44.11.02,0,.22.08.06.02.06.02.12.05.17.07.11.05.22.1.33.17.05.03.1.06.15.1.01,0,.1.07.02.01.13.1.25.21.36.33.71.78.74,1.94.7,2.93-.2,4.95-1.46,9.8-3.34,14.36-1.98,4.8-4.65,9.32-7.58,13.6-3.09,4.51-6.5,8.79-10.01,12.98-.43.51-.87,1.03-1.3,1.54.62-.08,1.24-.15,1.86-.23-1.39-5.16-2.78-10.31-4.16-15.47-1.39-5.16-2.78-10.31-4.16-15.47-.5-1.87-1.07-3.76-1.09-5.72,0-.76.11-1.69.38-2.48.03-.09.07-.19.1-.28.02-.06.05-.11.07-.17-.05.11.03-.07.04-.07.1-.2.21-.39.33-.58.11-.17.24-.34.37-.5.01-.02.15-.17.04-.05.03-.03.06-.06.09-.1.09-.1.18-.19.28-.28.1-.09.2-.18.31-.27.04-.03.07-.06.11-.09.18-.14-.14.1.05-.04.2-.14.39-.26.6-.38.05-.03.21-.15.01,0,.03-.02.08-.04.12-.06.1-.05.2-.09.3-.14.11-.05.22-.09.34-.14.02,0,.16-.05.15-.06-.15.05-.17.06-.06.02.04-.01.08-.03.13-.04.21-.07.43-.12.65-.17.06-.01.11-.02.17-.04.15-.03-.25.04-.03,0,.13-.02.27-.05.4-.06.24-.03.48-.06.72-.07.06,0,.12,0,.17-.01-.25,0-.01,0,.03,0,.14,0,.28,0,.42,0,.23,0,.46.01.69.03.12,0,.23.02.34.03.23.02-.17-.03.06,0,.07.01.14.02.2.03.49.08.98.19,1.46.33.05.02.11.03.16.05.03.01.17.06.04.01.1.04.21.07.31.11.23.09.46.19.68.3.43.21.91.5,1.25.75,1.58,1.16,2.68,2.82,3.23,4.68.68,2.34.42,4.8,0,7.16-.11.63-.23,1.25-.36,1.88-.15.76,1.79.45,1.93-.23h0Z"/>
        <path class="cls-1" d="M10.99,5.33c-.65-1.09-2.24-1.17-3.36-.96-1.49.28-2.79,1.12-3.56,2.44-1.51,2.58-1.61,5.69-1.12,8.57.51,3.01,1.59,5.9,2.41,8.83.86,3.07,1.58,6.18,2.16,9.32.57,3.14,1,6.31,1.27,9.48.03.39.06.78.09,1.17.02.25.56.24.69.23.35-.03.75-.14,1.03-.37,2.05-1.71,4.01-3.54,5.86-5.46,1.77-1.85,3.44-3.8,4.98-5.84,1.49-1.97,2.86-4.04,4.09-6.18,1.21-2.12,2.3-4.3,3.22-6.56.45-1.09.9-2.2,1.23-3.33.17-.58.14-1.21-.45-1.53-.65-.35-1.56-.2-2.19.1-.3.14-.61.35-.73.68-.13.39.62.37.81.34.36-.06.97-.21,1.11-.61.04-.12-.08.09,0,0-.08.1-.2.16-.32.21.02,0-.48.11-.28.08-.05,0-.1,0-.14.01.09,0,.07,0-.06,0,.01.01.13.02.15.02-.17-.03-.02,0,.01.02.08.02.03.01,0,0,.05.03.1.07.13.12.31.4-.02,1.06-.16,1.47-.37,1.07-.77,2.12-1.2,3.16-.87,2.07-1.87,4.09-3,6.04-2.39,4.13-5.29,7.95-8.55,11.41-1.89,2.01-3.88,3.87-6.03,5.66.57-.05,1.15-.1,1.72-.14-.23-3.04-.59-6.06-1.09-9.07-.5-3.01-1.14-6.01-1.91-8.96-.38-1.48-.8-2.94-1.25-4.4-.42-1.38-.86-2.76-1.21-4.17-.69-2.72-1.09-5.59-.3-8.34.19-.64.43-1.28.75-1.88.03-.05.12-.2.18-.3.08-.13.17-.26.27-.38.08-.11.17-.21.26-.31.02-.02.05-.05.07-.07-.02.02-.08.07.02-.02.06-.05.12-.11.18-.16.05-.04.11-.08.17-.13.07-.06-.02.01-.03.02.03-.02.06-.04.09-.06.05-.03.16-.12.22-.12,0,0-.15.06-.06.03.04-.01.07-.03.11-.05.02-.01.06-.02.08-.03,0,0-.21.06-.11.04.05-.01.16-.02.2-.05,0,0-.22.04-.11.02.03,0,.06-.01.09-.02.03,0,.06,0,.09-.01.06,0,.13-.05.03,0-.08.04-.06,0,0,0,.04,0,.08,0,.12,0,.06,0,.12,0,.18,0,.16,0-.13-.02.03,0,.08.01.16.02.24.03.06.01.11.02.17.04-.12-.03,0,0,.05.02.12.04.24.09.35.15-.08-.04.03.02.05.04.04.03.08.06.12.1.04.04.08.08.12.12.01.02.09.12.06.07.2.34.75.26,1.08.16.23-.07.46-.15.65-.31.08-.07.28-.25.2-.37h0Z"/>
      </g>
    </g>
  </g>
</svg>