<?xml version="1.0" encoding="UTF-8"?>
<svg id="Layer_2" data-name="Layer 2" xmlns="http://www.w3.org/2000/svg" viewBox="0 0 48 15.1">
  <defs>
    <style>
      .cls-1 {
        fill: #bdbdbd;
      }
    </style>
  </defs>
  <g id="Layer_1-2" data-name="Layer 1">
    <path class="cls-1" d="M7.7,15.09C3.83,15.09,1,11.57.01,5.42c-.1-.6.31-1.17.91-1.26.6-.1,1.17.31,1.26.91.41,2.55,1.83,8.41,6.17,7.77.57-.08,1.13-.48,1.62-1.09-.7-.84-1.3-1.84-1.78-2.98-1.34-3.2-1.31-6.68.07-8.08.68-.69,1.63-.87,2.6-.49,2.19.87,3.33,3.81,2.9,7.47-.15,1.27-.49,2.57-1.02,3.72,1.1.88,2.49,1.43,4.19,1.43,1.87,0,3.31-.58,4.3-1.73-.05-.06-.1-.12-.15-.18-1.77-2.09-2.88-4.87-2.88-7.24C18.23.96,19.68,0,20.92,0,23.42,0,24.92,3.38,24.92,6.64c0,1.49-.3,2.9-.85,4.11,1.37,1.11,3.36,2.08,6.13,2.08,1.87,0,3.32-.44,4.3-1.3-2.21-2.66-3.58-6.23-3.58-8.51,0-.81.16-1.48.49-1.98C31.82.37,32.5,0,33.31,0,36.07,0,38.21,4.15,38.21,7.72c0,1.46-.3,2.67-.83,3.65,1.03.89,2.18,1.46,3.36,1.46,1.58,0,2.8-.45,3.65-1.32,1.46-1.52,1.41-3.92,1.41-3.95-.02-.61.45-1.12,1.06-1.15.6-.02,1.12.45,1.15,1.06,0,.14.11,3.35-2.02,5.56-1.28,1.32-3.04,2-5.24,2-1.73,0-3.32-.77-4.71-1.94-1.55,1.38-3.73,1.94-5.83,1.94-3.26,0-5.65-1.11-7.33-2.42-1.05,1.17-2.87,2.42-5.91,2.42-2.01,0-3.84-.61-5.36-1.75-.77.92-1.74,1.57-2.9,1.74-.34.05-.67.08-.99.08h0ZM9.89,2.21h0c-.3.15-.74,1.7-.19,4.01.27,1.14.74,2.32,1.43,3.35.22-.66.38-1.38.47-2.15.3-2.56-.33-4.69-1.53-5.17-.1-.04-.15-.04-.17-.04h0ZM33.31,2.21s-.07,0-.07,0c-.17.18-.39,1.54.64,4.07.45,1.12,1.09,2.26,1.84,3.28.21-.66.26-1.31.26-1.85,0-2.93-1.67-5.51-2.68-5.51h0ZM20.92,2.21c-.27,0-.49.64-.49,1.47,0,1.29.52,3.39,1.95,5.31.22-.72.33-1.51.33-2.34,0-2.57-1.07-4.44-1.79-4.44Z"/>
  </g>
</svg>