<?xml version="1.0" encoding="UTF-8"?>
<svg id="Layer_2" data-name="Layer 2" xmlns="http://www.w3.org/2000/svg" viewBox="0 0 48 8.47">
  <defs>
    <style>
      .cls-1 {
        fill: #bdbdbd;
      }
    </style>
  </defs>
  <g id="Layer_1-2" data-name="Layer 1">
    <path class="cls-1" d="M47.74,5.11c-1.65-3.1-5.22-5.11-9.08-5.11-2.82,0-5.45,1.05-7.31,2.81-1.87-1.76-4.51-2.81-7.31-2.81s-5.45,1.05-7.31,2.81c-1.87-1.76-4.5-2.81-7.3-2.81C5.43,0,1.82,2.09.22,5.34c-.53,1.07-.09,2.37.98,2.9.31.15.63.22.95.22.8,0,1.56-.44,1.94-1.21.86-1.75,3-2.92,5.32-2.92s4.36,1.1,5.27,2.81c.14.26.33.49.55.66.17.17.37.32.59.43.31.15.63.22.96.22.8,0,1.56-.44,1.94-1.21.86-1.75,3-2.92,5.32-2.92s4.36,1.1,5.27,2.81c.14.26.33.49.55.66.17.17.37.32.59.43.31.15.63.22.95.22.8,0,1.56-.44,1.94-1.21.86-1.75,3-2.92,5.32-2.92s4.36,1.1,5.27,2.81c.56,1.05,1.87,1.45,2.92.9,1.05-.56,1.45-1.87.9-2.92h0Z"/>
  </g>
</svg>