<?xml version="1.0" encoding="UTF-8"?>
<svg id="Layer_2" data-name="Layer 2" xmlns="http://www.w3.org/2000/svg" viewBox="0 0 44.26 48">
  <defs>
    <style>
      .cls-1 {
        fill: #bdbdbd;
      }
    </style>
  </defs>
  <g id="Layer_1-2" data-name="Layer 1">
    <g id="_ÎÓÈ_1" data-name=" ÎÓÈ 1">
      <g>
        <path class="cls-1" d="M9.55,6.74c-.9,3.77-1.8,7.54-2.7,11.31-.9,3.77-1.79,7.54-2.68,11.32-.51,2.14-1.01,4.27-1.51,6.41,1.22-.09,2.45-.18,3.67-.27.01-.29.03-.59.04-.88.04-.89-.91-1.29-1.68-1.21-.48.05-.98.19-1.36.5-.29.24-.61.57-.63.97l-.04.88c-.04.89.91,1.29,1.68,1.21.89-.09,1.77-.56,1.99-1.47.89-3.77,1.78-7.55,2.67-11.32s1.79-7.54,2.69-11.31c.51-2.14,1.02-4.27,1.53-6.41.08-.34-.18-.74-.44-.92-.33-.24-.84-.33-1.24-.29-.89.09-1.77.56-1.99,1.47h0Z"/>
        <path class="cls-1" d="M18.33,1.33c-1.88,4.98-3.63,10.01-5.25,15.09-1.62,5.07-3.1,10.19-4.45,15.34-.76,2.89-1.47,5.79-2.14,8.69-.07.31.14.59.39.74.33.19.84.23,1.21.18.47-.06.97-.2,1.37-.48.29-.21.58-.46.67-.83,1.2-5.19,2.53-10.34,3.99-15.46,1.47-5.12,3.07-10.2,4.8-15.23.97-2.82,1.99-5.63,3.04-8.43.11-.29-.18-.61-.39-.74-.33-.19-.84-.23-1.21-.18-.47.06-.97.2-1.37.48-.32.22-.53.46-.67.83h0Z"/>
        <path class="cls-1" d="M22.4,2.87c-1.7,3.88-2.92,7.95-3.96,12.05-1.02,4.02-1.86,8.08-2.85,12.11-.55,2.26-1.15,4.51-1.85,6.73.03-.11.07-.22.11-.34-.93,2.94-2.03,5.83-3.42,8.59-.16.31-.14.69.07.98.22.3.67.47,1.02.5.86.07,1.94-.27,2.36-1.09,2.05-4.07,3.48-8.42,4.65-12.81,1.15-4.31,2.05-8.68,3.1-13.02.59-2.46,1.23-4.9,1.99-7.32l-.11.34c.67-2.15,1.44-4.27,2.35-6.33.14-.32.16-.68-.07-.98-.22-.3-.67-.47-1.02-.5-.48-.04-.99.03-1.43.25-.37.19-.76.45-.93.84h0Z"/>
        <path class="cls-1" d="M25.21,5.4c-1.36,5.22-2.72,10.45-4.08,15.67-1.36,5.22-2.72,10.45-4.08,15.67-.76,2.93-1.52,5.86-2.28,8.78-.18.7,1.13.58,1.49.52.47-.08.96-.21,1.38-.44.25-.14.64-.34.72-.64,1.36-5.22,2.72-10.45,4.08-15.67,1.36-5.22,2.72-10.45,4.08-15.67.76-2.93,1.52-5.86,2.28-8.78.18-.7-1.13-.58-1.49-.52-.47.08-.96.21-1.38.44-.25.14-.64.34-.72.64h0Z"/>
        <path class="cls-1" d="M29.58,4.84c-1.21,4.97-2.41,9.94-3.62,14.91-1.2,4.95-2.4,9.91-3.6,14.86-.68,2.8-1.36,5.59-2.03,8.38-.08.32.16.63.41.79.33.21.84.26,1.22.21.79-.1,1.81-.49,2.02-1.36,1.21-4.97,2.41-9.94,3.62-14.91,1.2-4.95,2.4-9.91,3.6-14.86.68-2.8,1.36-5.59,2.03-8.38.08-.32-.16-.63-.41-.79-.33-.21-.84-.26-1.22-.21-.79.1-1.81.49-2.02,1.36h0Z"/>
        <path class="cls-1" d="M34.84,6.09c-1.45,5.42-2.9,10.83-4.36,16.25-1.45,5.4-2.9,10.8-4.34,16.2-.82,3.04-1.63,6.08-2.45,9.12-.06.22.06.27.28.32.35.07.81,0,1.14-.07.47-.1.95-.22,1.38-.42.12-.06.23-.12.35-.17.16-.08.3-.19.41-.33,1.45-5.42,2.9-10.83,4.36-16.25,1.45-5.4,2.9-10.8,4.34-16.2l2.45-9.12c.06-.22-.06-.27-.28-.32-.35-.07-.81,0-1.14.07-.47.1-.95.22-1.38.42-.12.06-.23.12-.35.17-.16.08-.3.19-.41.33h0Z"/>
        <path class="cls-1" d="M37.17,11.4c-1.14,1.29-1.63,3.01-1.89,4.68-.29,1.86-.47,3.73-.74,5.6-.59,3.98-1.35,7.94-2.28,11.86-.52,2.21-1.1,4.41-1.73,6.59-.08.28.13.51.36.63.33.16.84.17,1.19.11.47-.07.97-.2,1.37-.46.28-.18.59-.4.69-.75,1.04-3.61,1.94-7.26,2.69-10.95.75-3.67,1.35-7.36,1.8-11.08.21-1.73.37-3.51,1.13-5.1-.04.09-.08.17-.13.26.24-.48.53-.93.89-1.34.18-.2.18-.52,0-.72-.21-.23-.68-.3-.97-.3-.88,0-1.8.3-2.39.98h0Z"/>
        <path class="cls-1" d="M40.73,14.34c-1.46,2.98-1.89,6.31-2.45,9.54-.59,3.42-1.19,6.83-1.78,10.25-.34,1.94-.68,3.89-1.01,5.83-.14.83,1.02.99,1.6.92.47-.06.97-.2,1.37-.48.29-.2.6-.47.67-.83,1.13-6.48,2.2-12.98,3.39-19.45.3-1.65.67-3.3,1.29-4.86-.04.1-.08.2-.12.29.14-.35.29-.69.45-1.02.14-.28.19-.57-.03-.84s-.68-.38-.99-.39c-.48-.02-.99.06-1.42.27-.35.17-.78.4-.95.76h0Z"/>
        <path class="cls-1" d="M3.91,9.69h-.03c.47-.08.95-.17,1.42-.27h-.03l.74.17s-.02,0-.02,0c.08.06.16.12.24.18,0,0-.01-.01-.02-.02.04.08.09.16.13.24-.01-.03-.02-.05-.02-.09,0,.09,0,.18,0,.27,0-.04.01-.07.03-.11-.04.09-.08.18-.12.28.12-.22-.03-.09-.47.41-.29.13-.59.25-.88.37.01,0,.02,0,.03,0-.32.04-.63.08-.95.12-.21-.04-.41-.08-.62-.12-.08-.06-.16-.12-.24-.18.03.02.06.06.08.09l-.13-.24c.04.08.05.16.05.25v-.27c-.02.47-.19.95-.29,1.41-.11.51-.22,1.03-.34,1.54-.22,1.05-.44,2.09-.66,3.14-.42,2.06-.82,4.13-1.2,6.2-.22,1.19-.42,2.37-.62,3.56-.14.81,1.03.91,1.58.83.47-.07.97-.2,1.37-.47.27-.19.62-.44.68-.79.45-2.68.94-5.35,1.47-8.02.26-1.3.52-2.6.8-3.89.14-.66.28-1.33.43-1.99.07-.33.15-.66.22-.99.07-.29.16-.6.19-.9.04-.49-.11-.88-.56-1.12-.5-.28-1.24-.2-1.76-.06-.46.12-.9.33-1.27.65-.28.25-.55.67-.43,1.07.1.34.45.5.76.58.64.15,1.29-.03,1.89-.24.33-.12.78-.42.96-.73.14-.23.2-.56-.01-.78-.61-.61-1.71-.31-2.4-.07h0Z"/>
      </g>
    </g>
  </g>
</svg>