<?xml version="1.0" encoding="UTF-8"?>
<svg id="Layer_2" data-name="Layer 2" xmlns="http://www.w3.org/2000/svg" viewBox="0 0 48 19.54">
  <defs>
    <style>
      .cls-1 {
        fill: #bdbdbd;
      }
    </style>
  </defs>
  <g id="Layer_1-2" data-name="Layer 1">
    <path class="cls-1" d="M46.2,0c-.99,0-1.8.81-1.8,1.8,0,7.79-5.16,14.14-11.51,14.14-2.3,0-4.53-.87-6.42-2.42.36-.48.71-.99,1.03-1.53,0,0,0-.01.01-.02.66-1.1,1.04-2.53,1.04-4.14,0-3.63-1.95-6.37-4.55-6.37s-4.55,2.74-4.55,6.37c0,1.61.38,3.04,1.04,4.15,0,0,0,.01,0,.02.32.53.66,1.05,1.03,1.53-1.88,1.55-4.11,2.42-6.42,2.42C8.77,15.95,3.6,9.6,3.6,1.81,3.6.81,2.8,0,1.8,0S0,.81,0,1.8c0,9.78,6.78,17.74,15.12,17.74,3.23,0,6.33-1.22,8.88-3.4,2.55,2.17,5.65,3.4,8.88,3.4,8.33,0,15.12-7.96,15.12-17.74,0-.99-.81-1.8-1.8-1.8h0ZM23.97,5.06c.27.09.97,1.07.97,2.77,0,1.07-.28,1.86-.54,2.31-.04.08-.09.15-.14.23-.09.13-.18.21-.23.23-.27-.09-.97-1.07-.97-2.77s.71-2.68.92-2.77h0Z"/>
  </g>
</svg>