<?xml version="1.0" encoding="UTF-8"?>
<svg id="Layer_2" data-name="Layer 2" xmlns="http://www.w3.org/2000/svg" viewBox="0 0 48 40.87">
  <defs>
    <style>
      .cls-1 {
        fill: #bdbdbd;
      }
    </style>
  </defs>
  <g id="Layer_1-2" data-name="Layer 1">
    <g id="_ÎÓÈ_1" data-name=" ÎÓÈ 1">
      <path class="cls-1" d="M23.57,21.04c2.92,1.5,6.7.79,9.03-1.48,1.76-1.71,2.17-4.39,1.27-6.63-.92-2.31-2.86-4.03-5.3-4.56-3.12-.67-6.46.2-9.02,2.05-2.5,1.8-4.09,4.49-4.76,7.48-.31,1.4-.41,2.84-.37,4.28.02.74-.06,1.76.4,2.37.36.47.78.89,1.22,1.28,4.31,3.81,10.92,4.23,15.84,1.36,4.41-2.58,7.02-8.07,5.83-13.11-1.23-5.17-6.47-8.73-11.64-8.88-3.39-.1-6.58,1.1-9.4,2.93-2.54,1.65-4.8,3.78-6.48,6.31-1.56,2.34-2.45,5.08-2.23,7.9.21,2.68,1.63,5.19,3.56,7.02,4.63,4.39,11.38,5.12,17.47,4.47,5.56-.59,11.99-2.81,14.17-8.5,1.08-2.81,1.13-5.79,1.11-8.76-.02-3.12-.13-6.35-1.92-9.04-1.64-2.46-4.36-3.96-7.01-5.1-2.77-1.19-5.74-1.94-8.74-2.26-6.13-.65-12.68.61-17.77,4.2C4.43,7.47,1.06,12.32.2,17.7c-.79,4.91.79,9.86,4.03,13.59,3.24,3.73,7.74,6.21,12.39,7.73,4.94,1.61,10.35,2.25,15.51,1.59,5.39-.68,11.03-2.89,13.88-7.8,1.53-2.62,2.01-5.73,1.98-8.72-.02-2.95-.35-5.94-1.07-8.8-.73-2.89-1.96-5.73-3.84-8.06-1.77-2.2-4.18-3.88-6.84-4.83-2.69-.96-5.71-1.08-8.45-.23-.57.18-1.75.7-1.75,1.48.01,1.64,1.1,3.02,2.74,3.35,1.01.2,2.2.01,2.93-.79.58-.63.47-1.63-.49-1.82-.11-.02-.22-.04-.33-.08.13.07.12.06-.06-.04-.15-.11-.12-.06-.28-.24-.2-.24-.34-.53-.34-.77-.58.49-1.16.99-1.75,1.48.28-.09.57-.16.85-.23.55-.13-.31.03.04,0,.15-.01.29-.04.43-.06.29-.03.58-.05.87-.06-.4.01-.09,0,0,0,.2.01.41.02.61.04.26.02.52.06.78.09.56.08-.33-.09.22.04.11.03.23.05.34.08.63.16,1.25.36,1.84.62-.07-.03-.21-.1.09.04.13.07.27.13.4.2.24.12.47.25.71.39.57.33,1.11.7,1.63,1.11.84.66,1.66,1.54,2.34,2.46,3.09,4.15,4.12,9.75,4.19,14.83.04,2.54-.22,5.2-1.36,7.5-.57,1.16-.98,1.73-1.86,2.61-.19.19-.39.37-.58.55.28-.25.01-.01-.06.05-.1.08-.21.17-.32.25-.21.16-.43.31-.66.46-.09.06-.18.12-.27.17-.05.03-.58.33-.33.2.28-.15-.19.09-.2.1-.09.05-.19.1-.29.15-.25.12-.49.23-.74.34-.24.1-.51.25-.76.31.49-.11.13-.04,0,0-.18.06-.37.12-.56.18-.48.15-.97.28-1.46.39-.28.06-.55.12-.83.17.55-.11-.01,0-.11.01-.17.03-.34.05-.51.08-1.13.16-2.27.23-3.42.26-.55.02.27,0-.07,0h-.43c-.28,0-.57-.01-.85-.02-.55-.02-1.1-.06-1.64-.1-1.09-.09-2.17-.24-3.25-.43.41.07-.13-.03-.17-.04-.11-.02-.22-.04-.33-.07-.27-.06-.54-.12-.81-.18-.57-.13-1.13-.28-1.69-.44-1.09-.31-2.16-.68-3.21-1.1-.89-.36-1.7-.73-2.73-1.28-.95-.51-1.86-1.07-2.73-1.69-.9-.64-1.55-1.16-2.26-1.84-.76-.73-1.47-1.51-2.1-2.35-.58-.77-1.2-1.77-1.54-2.47-1.91-3.98-1.93-8.54-.23-12.48.97-2.26,2.15-3.98,3.83-5.67.19-.19.37-.37.57-.55.11-.1.22-.2.32-.29.41-.38-.16.13.1-.09.47-.39.96-.76,1.47-1.11.24-.16.49-.32.73-.48.1-.06.2-.12.3-.18.48-.29-.23.12.07-.04.6-.31,1.2-.61,1.82-.88.3-.13.6-.24.9-.36-.38.15-.07.02.01,0,.18-.06.37-.12.55-.18.62-.19,1.25-.36,1.88-.5.19-.04.38-.08.57-.12.08-.02.42-.06.01,0,.32-.05.64-.1.97-.14.68-.09,1.36-.15,2.05-.17.29-.01.59-.02.88-.02-.41,0,.23,0,.25,0,.13,0,.26,0,.39.01.72.02,1.44.08,2.16.16,1.38.16,2.24.32,3.6.68,2.49.66,4.74,1.52,6.87,2.94,1,.66,1.84,1.41,2.56,2.39.77,1.06,1.2,2.28,1.45,3.56.25,1.32.31,2.66.32,4.01.01,1.32.02,2.64-.06,3.96-.08,1.3-.24,2.6-.59,3.85-.16.56-.37,1.08-.63,1.6-.15.29-.31.57-.48.84-.07.1-.13.2-.2.31.15-.22-.12.15-.15.2-.18.22-.36.43-.56.63-.1.1-.2.2-.3.29-.07.06-.34.3-.07.08-.46.38-.95.7-1.45,1.02-.28.18.43-.22-.06.03-.1.05-.2.11-.3.16-.25.13-.52.25-.78.36-.27.12-.54.22-.81.32.44-.17.14-.05.04-.02-.22.07-.44.14-.67.21-.51.15-1.02.28-1.54.39-.17.04-.35.07-.52.1.07-.01.45-.07.04,0-.35.05-.7.11-1.05.15-.58.07-1.16.12-1.74.17-.31.02-.63.04-.94.05-.21,0-.42.01-.63.02-.06,0-.64,0-.31,0-2.71-.01-5.21-.32-7.64-1.42-2.18-.99-3.98-2.49-5.25-4.52-1.19-1.88-1.59-4.19-1.14-6.41.23-1.14.64-2.14,1.23-3.18.64-1.13,1.24-1.91,2.14-2.88.41-.44.84-.86,1.28-1.26-.04.04.43-.37.24-.21-.18.15.29-.24.25-.2.3-.24.6-.47.91-.7.49-.36.99-.69,1.5-1,.01,0,.58-.33.23-.14.12-.07.23-.13.35-.19.36-.18.72-.36,1.09-.51.12-.05.25-.1.37-.15.6-.24-.41.1.21-.07.29-.08.57-.17.87-.24.16-.04.33-.07.49-.11-.43.08-.13.02-.04.01.33-.03.66-.07.99-.09.38-.02.04,0-.03,0,.17,0,.33,0,.5.02.28.02.55.04.82.08.11.01.22.03.33.05-.36-.06,0,0,.09.03.3.07.59.15.88.24.55.17.98.35,1.3.51.49.25.97.53,1.43.84.86.6,1.57,1.27,2.26,2.19,1.24,1.64,1.88,3.75,1.77,5.76-.05.97-.3,2.2-.57,2.92-.19.5-.41.99-.67,1.46-.12.21-.24.42-.37.63-.07.11-.15.22-.22.34-.2.32.09-.09-.12.17-.33.42-.69.82-1.08,1.19-.08.07-.16.15-.24.22.31-.29-.08.07-.13.1-.23.18-.47.36-.72.52-.11.07-.23.14-.34.21.36-.23.12-.07.04-.02-.24.12-.48.24-.73.35-.02.01-.52.22-.18.08.33-.14-.16.05-.19.06-.28.09-.57.16-.86.23-.15.03-.46.17,0,0-.12.04-.28.04-.4.06-.24.03-.48.05-.73.07-.16,0-.33.01-.49.02.07,0,.42.01.04,0-.33-.01-.65-.03-.97-.07-.11-.01-.22-.03-.32-.04-.05,0-.58-.1-.17-.02-.24-.05-.48-.1-.71-.16-.55-.15-1.09-.32-1.61-.55.24.1-.01,0-.05-.03-.15-.07-.29-.14-.43-.22-.24-.13-.47-.26-.7-.41-.2-.13-.41-.27-.6-.41-.11-.08-.22-.16-.32-.24,0,0-.34-.29-.2-.17-.2-.18-.39-.37-.57-.56-.15-.16-.47-.41-.53-.61.03.09.03-.2.03-.2,0-.19-.04-.4-.05-.58-.01-.27-.02-.54-.02-.81-.01-2.64.53-5.17,1.96-7.41.16-.25.52-.68.86-1.02.37-.37.61-.58,1.25-.99.1-.06.2-.12.3-.18-.41.25.09-.04.15-.07.23-.12.47-.21.71-.32.31-.15-.5.15.03,0,.11-.03.22-.07.33-.1.16-.04.33-.07.5-.12-.49.15-.02,0,.11-.01.14-.02.28-.03.42-.04.11,0,.49,0,.06-.01.28,0,.56.04.84.06.06,0,.35.06.03,0,.14.03.28.06.41.1.14.04.27.08.41.12.09.03.45.19.17.06.96.46,1.4.86,2.01,1.71.33.46.43.66.6,1.08.19.47.32.95.39,1.45.01.12.03.23.04.35-.01-.22,0,.07,0,.13,0,.21-.01.42-.04.63-.03.23-.09.45-.14.68-.1.41.07-.14-.03.09-.06.15-.13.3-.21.44-.04.08-.1.16-.14.24-.2.38.21-.2-.08.12-.07.08-.14.16-.21.24,0,0-.38.34-.17.17.17-.14-.65.4-.15.13-.14.08-.29.14-.44.21-.17.09-.19.19.08-.02-.09.07-.28.07-.39.11-.31.1.52-.05,0,0-.11,0-.22.02-.32.03-.51.06.4.05-.12,0-.11-.01-.21-.02-.32-.03-.48-.05.29.13-.16-.04-.1-.04-.21-.07-.31-.1-.47-.15.25.14-.2-.09-.9-.47-2.15-.31-2.96.3-.58.44-1.21,1.47-.27,1.96h0v-.02Z"/>
    </g>
  </g>
</svg>