<?xml version="1.0" encoding="UTF-8"?>
<svg id="Layer_2" data-name="Layer 2" xmlns="http://www.w3.org/2000/svg" viewBox="0 0 48 37.25">
  <defs>
    <style>
      .cls-1 {
        fill: #bdbdbd;
      }
    </style>
  </defs>
  <g id="Layer_1-2" data-name="Layer 1">
    <g id="_ÎÓÈ_1" data-name=" ÎÓÈ 1">
      <g>
        <path class="cls-1" d="M31.18,13.63c-2.94-2.51-5.89-5.02-8.83-7.53-.34.21-.69.42-1.03.63,1.17-.2,2.36-.33,3.6-.38,1.22-.05,2.44-.02,3.65.08.61.05,1.22.12,1.83.21.69.1,1.34.08,2.01-.15.31-.11.65-.26.86-.53.18-.22.2-.49.21-.77.01-.56.06-1.11.18-1.66.26-1.21.8-2.34,1.55-3.33-.6.14-1.2.27-1.8.41,2.06,2.67,3.64,5.69,4.64,8.91.05.16.4.12.51.11,2.6-.33,5.23-.23,7.8.29-.02-.09-.05-.18-.07-.27-2.35,2.37-4.87,4.57-7.54,6.57-.06.04-.09.1-.09.17,1.12,2.57,2.05,5.22,2.78,7.93.59-.18,1.18-.37,1.76-.55-3.12-1.35-5.98-3.26-8.41-5.63-.16-.15-.65-.02-.81.01-.29.07-.64.16-.87.37-1.45,1.31-2.89,2.62-4.34,3.93l1.73-.32c-.3-2.82-.17-5.65.73-8.36.1-.3-.6-.18-.72-.16-.24.05-.47.11-.69.21-.11.05-.33.14-.37.27-.91,2.76-1.05,5.65-.75,8.52.02.2.65.09.74.08.33-.06.73-.16.99-.4,1.45-1.31,2.89-2.62,4.34-3.93-.56.13-1.12.25-1.68.38,2.43,2.37,5.29,4.28,8.41,5.63.32.14.74.02,1.05-.08.15-.05.78-.23.72-.47-.73-2.71-1.65-5.36-2.78-7.93-.03.06-.06.11-.09.17,2.67-2,5.2-4.19,7.54-6.57.12-.12.11-.23-.07-.27-2.79-.56-5.68-.66-8.5-.3.17.04.34.07.51.11-1.01-3.22-2.59-6.24-4.64-8.91-.17-.22-.64-.1-.86-.05-.32.07-.73.18-.95.46-.62.82-1.1,1.74-1.39,2.73-.15.5-.25,1.02-.31,1.54-.02.23-.04.47-.05.7,0,.11,0,.23,0,.34,0,.07-.01.14-.04.21-.02.06-.08.13-.09.18,0,.02.56-.22.61-.23.01,0,.19,0,.1-.02-.08-.02-.12,0-.21-.02-.31-.04-.62-.09-.93-.13-.58-.07-1.17-.13-1.75-.17-1.2-.08-2.4-.09-3.59-.04-1.37.06-2.74.21-4.1.44-.12.02-1.34.36-1.03.63,2.94,2.51,5.89,5.02,8.83,7.53.09.08.36.06.46.05.23-.02.49-.08.71-.16.12-.05.78-.3.55-.5h0Z"/>
        <path class="cls-1" d="M29.03,12.45c-5.39.06-10.74.91-15.82,2.7-2.54.89-4.99,2.03-7.34,3.36-1.16.65-2.29,1.37-3.32,2.21-.52.42-1.01.88-1.47,1.37-.41.44-.81.91-1,1.48-.22.65,0,1.31.66,1.57.37.15.77.17,1.16.19.38.02.76.02,1.14,0,1.71-.1,3.36-.57,4.87-1.38.22-.12.52-.43.23-.63-.31-.22-.83-.08-1.14.04-2.42.93-4.2,3.27-4.13,5.9,0,.13.26.22.35.23,2.88.35,5.92-.73,7.83-2.94.25-.29-.15-.47-.38-.49-.42-.04-.85.11-1.18.35-.97.7-1.85,1.52-2.63,2.42-.39.45-.75.93-1.08,1.42-.31.47-.72,1.02-.62,1.62.17.97,1.53,1.19,2.32,1.17,1.23-.02,2.52-.41,3.63-.92,1.25-.57,2.36-1.36,3.3-2.37-.56,0-1.12,0-1.68-.01-.74,1.12-1.9,1.86-2.73,2.91-.76.96-1.28,2.29-.61,3.44.32.54.81.93,1.43,1.07.82.19,1.73-.07,2.42-.52,1.08-.7,2-1.76,2.77-2.78,1.51-2,2.57-4.28,3.72-6.49.58-1.12,1.19-2.23,1.89-3.28.78-1.17,1.63-2.29,2.55-3.36,2.07-2.44,4.42-4.64,6.87-6.69.1-.08.22-.23.19-.37-.04-.14-.22-.21-.35-.23-.42-.08-.96.07-1.28.34-4.09,3.43-8.04,7.31-10.68,12-1.17,2.08-2.14,4.27-3.39,6.31-.61,1-1.28,1.96-2.06,2.82-.36.4-.78.81-1.23,1.17-.13.11-.13.12-.32.21.05-.03.12-.03-.02,0,.03,0,.27-.11.1-.03.03,0,.06,0,.09,0-.08,0-.09,0-.04,0,.09.04-.1-.02-.1-.02.11.03-.09-.04-.09-.04-.06-.03-.13-.06-.18-.1-.45-.31-.74-.88-.77-1.43-.04-.61.25-1.23.59-1.72.83-1.18,2.13-1.95,2.93-3.18.23-.34-.2-.5-.48-.5-.45,0-.89.16-1.2.49-.65.69-1.33,1.17-2.15,1.6-.15.08-.05.03-.02.01-.06.03-.13.06-.19.09-.1.05-.2.09-.31.13-.12.05-.23.09-.35.13-.05.02-.11.04-.16.06.16-.05-.02,0-.08.02-.21.06-.43.12-.64.17-.18.04-.04,0,0,0-.05.01-.11.02-.16.03-.14.02-.27.05-.41.06-.04,0-.08,0-.12.01.21-.02.06,0,0,0-.04,0-.27-.01-.19,0,.12.01-.1-.02-.09-.02-.04,0-.09-.01-.13-.02-.04,0-.08-.02-.13-.03.11.03-.05-.02-.08-.03-.25-.1-.48-.25-.54-.55-.09-.44.32-.92.55-1.26.28-.41.58-.81.89-1.18.73-.87,1.58-1.64,2.5-2.31-.52-.05-1.04-.09-1.56-.13-.18.2-.31.34-.52.53-.1.09-.2.17-.3.26-.05.04-.1.08-.16.12,0,0-.2.14-.09.07-.22.15-.45.29-.68.41-.02,0-.21.11-.11.06.1-.05-.09.04-.11.05-.13.06-.27.12-.4.17-.06.02-.12.05-.19.07-.17.06.08-.02-.03.01-.13.04-.25.08-.38.11-.06.02-.13.03-.19.05-.03,0-.29.05-.07.02-.13.02-.26.05-.39.06s-.26.03-.4.04c.17-.02-.02,0-.05,0-.07,0-.13,0-.2,0-.15,0-.29,0-.44,0-.19,0-.15,0-.32-.03.12.08.23.15.35.23-.03-1.03.3-2.07.86-2.92.3-.45.59-.78.98-1.1.11-.09.21-.17.33-.25.07-.05-.07.04.05-.03.06-.04.13-.08.19-.12.05-.03.11-.06.16-.09.07-.04.14-.07.03-.02.14-.07.27-.12.42-.18-.3-.2-.61-.39-.91-.59-.08.04-.16.09-.24.13.04-.02.12-.06-.04.02-.14.06-.28.13-.42.18-.14.06-.28.11-.42.16-.18.06-.06.02-.02,0-.12.04-.23.07-.35.11-.13.04-.26.07-.4.1-.07.02-.15.03-.22.05.16-.04,0,0-.02,0-.33.06-.66.11-.99.13.12,0-.03,0-.04,0-.09,0-.18,0-.27,0-.15,0-.3,0-.46,0-.11,0-.3-.01-.35-.02-.05,0-.26-.02-.37-.06-.42-.14-.4-.69-.25-1.07.18-.46.56-.84.89-1.19.4-.42.85-.81,1.3-1.17.9-.71,1.88-1.32,2.93-1.91.53-.3,1.07-.59,1.62-.87.13-.07.27-.14.41-.21-.02.01.24-.12.14-.07-.1.05.17-.08.14-.07.29-.14.57-.27.86-.4,1.1-.5,2.21-.96,3.35-1.37.28-.1.56-.2.84-.29-.16.05-.02,0,.01,0,.08-.03.17-.06.25-.08.15-.05.31-.1.46-.15.58-.18,1.16-.35,1.74-.5.57-.15,1.14-.29,1.72-.42.29-.06.58-.13.86-.19-.17.03-.02,0,.02,0,.09-.02.17-.03.26-.05.16-.03.32-.06.48-.09,1.34-.24,2.68-.42,4.03-.55,1.35-.12,2.63-.19,4.06-.2.4,0,.96-.13,1.2-.49.24-.35-.2-.5-.48-.5h0Z"/>
      </g>
    </g>
  </g>
</svg>