<?xml version="1.0" encoding="UTF-8"?>
<svg id="Layer_2" data-name="Layer 2" xmlns="http://www.w3.org/2000/svg" viewBox="0 0 48 47.18">
  <defs>
    <style>
      .cls-1 {
        fill: #bdbdbd;
      }
    </style>
  </defs>
  <g id="Layer_1-2" data-name="Layer 1">
    <g id="_ÎÓÈ_1" data-name=" ÎÓÈ 1">
      <g>
        <g>
          <path class="cls-1" d="M45.19,9.8c-.2-.09-.45,0-.69.08.24.07.45.05.69-.08Z"/>
          <path class="cls-1" d="M44.49,9.88s0,0,0,0c0,0,0,0,0,0,0,0,0,0,0,0h0Z"/>
          <path class="cls-1" d="M3.29,35.75c.06-.03.12-.06.18-.09-.06.02-.13.05-.18.09Z"/>
          <path class="cls-1" d="M33.3,14.25l.07.26c-.54.24-.28-.21-.75.06-.04.43-.84.32-.94.59,0-.03-.26.07-.29-.05,0,.22-.23.15-.36.27-.03.08.07.04.13.08l-.32.22c-.16,0-.25-.1-.11-.18-.95.33-5.46,2.08-6.41,2.61.19.09.45-.14.67.03-.21.24-.41.12-.46.31-.25-.29-.61.17-.96-.08v.22s-.17-.06-.17-.06c-1.07.7-.22.21-1.27.61-.58.29-.75.67-1.12.72.05-.02.23.04.1.16-.1-.16-.36.3-.5.16-.14.09-.64.28-.37.43-.13-.08-.59.07-.37-.15-.15.06-.31.09-.39.18l.22-.02c-.48.25-.83.19-1.06.54h.22c-.29.15-.53.28-.74.1l.27-.2c-.49.22-.78.36-1.13.66l.15-.06c-.42.45-3.07,1.82-3.43,2.32l.3.08-.35.33s-.05-.65.02-.61c-.88.4-5.42,2.54-6.29,2.78-.37.05-.18-.25-.19-.28-.37.24-.09.26-.44.39-.11,0-.04-.15,0-.19-.14.09-.31.09-.28.17.21-.02.23.23.37.34l-.45.17-.04-.15c-.1.04-.08.48-.55.6-.75.26-1.52.65-2.27.94-.02-.09.11-.2.24-.32-.1.04-.24.12-.36.11.24.07-.27.23-.1.23-.39.57-1.22.56-1.59,1,.09.32,1.24,5.61,1.39,5.96-.15.06-.3.11-.36.1.07.07.38-.02.51-.13l-.06-.2c.32-.22.13.08.47-.08.09.15-.22.32-.49.46.26-.09.56-.09.59-.3.26-.04.06.2.37.15.18-.13.38-.4.66-.41v.03c.64-.08.77-.61,1.36-.68l-.03.08c.22.01.53-.27.9-.31-.11,0-.24-.07-.05-.17.42-.07.64-.28.97-.28l.2-.27c1.33-.55,6.45-3.03,7.77-3.64l-.04.05c1.99-.96,6.14-2.75,8.13-3.87.39.01.82-.22,1.17-.32-.21.02-.2-.12-.05-.17,1.03-.43.02-.13,1.03-.65,1.13-.66,5.78-2.49,6.9-2.83.47-.47,1.26-.61,1.75-1l-.03.08c.56-.35,4.05-1.62,4.71-2h-.11c.55-.39.57-.11,1.08-.25-.17-.22.29-.59.48-.7l.02.06c.28-.17.87-.69,1.35-.93l.04.15c.35-.33,1.15-.6,1.44-.75.7-.24,1.85-.46,2.68-1.03l.76.13.07-.08s-1.11-5.12-2.74-5.6l-.04-.14-.23.12c-.31.06-.38.27-.42.13l.4-.15c-.3.08-.13-.07-.06-.2-.12.04-.25.07-.36.07-.03.08.07.04.12.05-.13.12-.29.34-.51.36-.3.11-.12-.21-.46-.08-1.84.68-3.66,1.28-5.46,2.1-.07-.04-.02-.06.03-.11-.52.3-1.02.49-1.49.77-.16,0-.24-.07-.31-.11.13.08-2.7,1.32-2.76,1.31h0Z"/>
        </g>
        <g>
          <path class="cls-1" d="M32.09,0c-.21.07-.33.3-.45.52.22-.11.36-.27.45-.52Z"/>
          <path class="cls-1" d="M31.64.52h0s0,0,0,0c0,0,0,0,0,0Z"/>
          <path class="cls-1" d="M17.54,47.11c.02-.06.05-.12.08-.19-.03.06-.07.12-.08.19Z"/>
          <path class="cls-1" d="M26.18,11.11l.23.15c-.25.53-.35.02-.53.54.25.36-.43.79-.33,1.05-.03-.02-.15.22-.25.15.15.16-.08.27-.1.44.03.08.08-.01.15-.03l-.1.38c-.13.11-.25.09-.2-.07-.13.22-.36.65-.66,1.19-.29.54-.64,1.2-.99,1.85-.68,1.31-1.35,2.64-1.53,3.16.2-.06.25-.41.53-.42,0,.32-.23.36-.15.54-.38-.06-.35.53-.78.57l.15.16-.18.07c-.35,1.23-.03.31-.56,1.3-.25.6-.12,1-.37,1.28.03-.05.2-.12.18.05-.18-.05-.07.46-.28.45-.05.16-.3.63,0,.57-.15.03-.4.44-.38.13-.08.14-.17.27-.17.39l.15-.16c-.2.5-.5.69-.45,1.1l.17-.14c-.12.3-.22.55-.5.56l.07-.33c-.22.49-.35.79-.42,1.25l.07-.14c-.02.62-1.11,3.4-1.06,4l.28-.14-.05.48s-.47-.46-.39-.48c-.4.88-2.42,5.49-2.92,6.24-.25.28-.3-.07-.33-.09-.12.43.1.26-.07.59-.08.08-.13-.08-.13-.15-.05.16-.17.27-.1.32.15-.15.33.03.5.01l-.22.42-.13-.08c-.05.09.25.42-.02.81-.4.69-.72,1.49-1.1,2.19-.08-.05-.05-.22-.03-.4-.05.09-.1.25-.2.31.23-.11-.05.35.08.24.08.68-.55,1.22-.55,1.79.28.18,4.59,3.45,4.94,3.62-.08.14-.15.28-.2.32.1,0,.28-.26.31-.44l-.18-.12c.1-.38.15-.03.3-.38.16.06.04.39-.08.67.14-.24.37-.44.25-.62.18-.2.18.12.38-.13.05-.22.03-.56.23-.75l.03.02c.43-.48.18-.97.58-1.41l.03.08c.18-.14.23-.55.48-.83-.08.08-.23.11-.15-.1.28-.33.3-.63.55-.85l-.03-.34c.65-1.29,2.88-6.55,3.48-7.87v.06c.87-2.03,2.82-6.12,3.59-8.28.3-.25.47-.7.67-1.02-.15.16-.23.04-.15-.1.5-1-.07-.12.35-1.17.21-.62.89-2.04,1.6-3.42.36-.69.72-1.37,1.03-1.94.31-.57.58-1.03.74-1.28.05-.67.56-1.29.69-1.9l.02.08c.21-.63,2.03-3.89,2.28-4.62l-.08.08c.15-.67.35-.47.65-.91-.28-.05-.17-.64-.1-.85l.05.03c.1-.32.2-1.1.4-1.61l.13.08c.05-.48.46-1.23.59-1.53.37-.65,1.08-1.6,1.31-2.6l.65-.42v-.1s-1.07-.75-2.34-1.41c-1.26-.65-2.72-1.21-3.48-.84l-.13-.08-.08.24c-.19.25-.09.45-.22.37l.19-.38c-.16.26-.15.04-.18-.11-.06.11-.13.22-.21.29.03.08.07-.02.12-.05-.02.17.01.44-.13.6-.14.28-.23-.08-.39.25-.9,1.72-1.84,3.35-2.65,5.14-.08.01-.05-.03-.05-.1-.19.56-.44,1.03-.61,1.55-.12.11-.23.1-.3.12.15-.03-1.17,2.75-1.23,2.78h0Z"/>
        </g>
        <g>
          <path class="cls-1" d="M14.19,3.19c-.11.18-.04.4,0,.61.09-.21.09-.4,0-.61Z"/>
          <path class="cls-1" d="M14.2,3.81s0,0,0,0c0,0,0,0,0,0,0,0,0,0,0,0h0Z"/>
          <path class="cls-1" d="M35.6,40.35s-.05-.11-.07-.16c.02.06.04.11.07.16Z"/>
          <path class="cls-1" d="M17.41,13.73l.26-.06c.18.48-.24.25,0,.67.42.04.24.75.48.83-.03,0,.04.23-.08.26.22,0,.13.21.23.32.07.03.04-.06.09-.12l.19.29c-.02.15-.12.22-.19.09.24.84,1.51,4.83,1.94,5.68.1-.17-.1-.4.09-.59.22.18.08.36.26.41-.31.22.11.54-.17.85h.22s-.08.15-.08.15c.58.95.19.2.48,1.12.23.51.59.66.6.99-.01-.04.06-.2.16-.09-.16.09.26.32.11.45.07.12.21.56.39.33-.09.12,0,.52-.18.33.04.13.05.27.14.35v-.19c.2.43.11.73.43.94l.03-.2c.11.26.21.47.02.66l-.17-.24c.17.43.28.69.54,1.01l-.04-.13c.4.38,1.49,2.72,1.94,3.04l.11-.26.29.31s-.65.04-.6-.02c.31.78,1.97,4.81,2.12,5.57.01.33-.26.16-.29.17.2.33.25.08.34.39,0,.09-.15.04-.19,0,.07.12.05.27.14.25,0-.19.25-.2.37-.33l.13.4-.15.04c.03.09.46.08.53.49.18.67.49,1.35.7,2.01-.09.02-.19-.1-.29-.21.03.09.1.21.07.32.09-.21.2.24.22.09.52.35.44,1.08.82,1.41.32-.08,5.61-1.07,5.98-1.21.04.13.08.26.07.32.07-.07.02-.34-.08-.45l-.2.05c-.19-.29.09-.12-.04-.42.15-.08.29.19.4.43-.06-.23-.03-.5-.24-.52-.01-.23.2-.05.18-.33-.11-.16-.36-.34-.34-.58h.03c-.02-.57-.53-.68-.54-1.2l.07.03c.03-.2-.21-.47-.22-.8,0,.1-.09.21-.17.04-.02-.37-.21-.57-.18-.86l-.24-.18c-.41-1.18-2.35-5.72-2.82-6.88l.04.04c-.75-1.76-2.11-5.44-3.01-7.21.05-.34-.14-.72-.2-1.04,0,.19-.13.17-.18.04-.32-.92-.13-.02-.54-.92-.54-1.01-1.89-5.12-2.11-6.11-.42-.42-.48-1.11-.81-1.56l.07.03c-.28-.5-1.2-3.59-1.51-4.17v.1c-.34-.49-.07-.51-.15-.96-.23.15-.55-.26-.64-.43h.06c-.14-.26-.59-.78-.79-1.21l.15-.04c-.29-.31-.48-1.02-.59-1.28-.17-.62-.27-1.64-.75-2.38l.2-.67-.07-.06s-5.12.96-5.75,2.4l-.15.04.1.2c.03.28.23.33.08.37l-.11-.35c.05.27-.09.12-.2.05.03.11.05.22.04.32.07.03.04-.06.06-.11.1.12.3.26.3.45.08.26-.22.1-.12.41.49,1.63.9,3.24,1.54,4.84-.04.06-.06.01-.1-.02.24.46.38.9.61,1.32-.02.15-.09.21-.13.27.09-.12,1.04,2.39,1.02,2.45h0Z"/>
        </g>
        <g>
          <path class="cls-1" d="M0,15.68c.09.2.32.31.55.42-.12-.21-.29-.34-.55-.42Z"/>
          <path class="cls-1" d="M.55,16.1h0s0,0,0,0c0,0,0,0,0,0h0Z"/>
          <path class="cls-1" d="M47.91,25.58c-.06-.02-.13-.04-.19-.06.06.03.13.05.19.06Z"/>
          <path class="cls-1" d="M11.59,20.61l.13-.24c.55.2.05.35.58.47.33-.28.83.34,1.07.22-.01.03.23.13.17.23.15-.17.27.05.45.06.08-.03-.02-.07-.04-.15l.38.06c.12.11.11.24-.05.21.91.41,5.35,2.23,6.39,2.5-.08-.19-.42-.21-.46-.48.31-.03.38.19.54.1-.02.38.56.3.63.72l.15-.17.09.17c1.25.22.3,0,1.33.42.61.19,1,.02,1.3.24-.05-.02-.14-.19.04-.18-.04.18.46.03.47.23.16.03.65.24.56-.06.04.15.47.36.17.36.15.06.28.15.4.14l-.17-.13c.52.15.72.43,1.13.34l-.15-.16c.31.09.56.17.6.44l-.33-.04c.5.18.81.27,1.27.3l-.15-.06c.61-.04,3.46.78,4.05.67l-.16-.26h.48s-.41.51-.43.44c.91.31,5.64,1.87,6.43,2.3.3.22-.04.31-.06.33.43.08.24-.13.59.02.08.07-.07.13-.13.14.16.03.28.15.32.07-.17-.13,0-.33-.03-.5l.44.18-.07.13c.1.04.39-.29.8-.06.72.33,1.54.57,2.27.88-.04.08-.22.07-.39.07.1.04.26.07.33.17-.13-.21.35.01.23-.1.67-.14,1.26.42,1.83.37.15-.29,2.95-4.92,3.09-5.29.15.06.29.12.33.17,0-.1-.29-.25-.46-.26l-.1.19c-.38-.06-.04-.15-.4-.26.04-.17.37-.08.66,0-.25-.11-.46-.32-.63-.18-.22-.15.1-.19-.17-.36-.22-.03-.55.03-.75-.15v-.03c-.5-.38-.95-.08-1.42-.43l.08-.03c-.15-.16-.56-.17-.86-.39.08.07.12.21-.08.16-.35-.24-.65-.24-.89-.46l-.33.06c-1.33-.52-6.72-2.22-8.08-2.69h.06c-2.08-.67-6.3-2.22-8.5-2.78-.27-.27-.74-.4-1.07-.57.17.13.06.22-.08.16-1.04-.4-.11.08-1.19-.24-1.27-.3-5.86-2.15-6.9-2.68-.66.02-1.32-.42-1.94-.48l.08-.03c-.64-.14-4.02-1.6-4.76-1.78l.08.07c-.67-.08-.49-.3-.95-.56-.03.28-.61.23-.82.18l.03-.05c-.32-.07-1.09-.1-1.61-.24l.07-.13c-.48,0-1.24-.35-1.55-.45-.67-.31-1.64-.94-2.63-1.09l-.45-.62h-.1S-.37,14.21.48,15.68l-.07.13.25.07c.26.17.46.06.39.19l-.39-.16c.28.15.05.15-.09.19.12.06.23.12.31.2.08-.03-.02-.07-.05-.12.17,0,.44-.04.61.09.29.12-.06.23.28.37,1.79.77,3.5,1.58,5.37,2.22.02.07-.03.05-.09.06.58.14,1.07.34,1.6.47.12.11.12.21.15.29-.04-.15,2.85.89,2.88.94h0Z"/>
        </g>
      </g>
    </g>
  </g>
</svg>