<?xml version="1.0" encoding="UTF-8"?>
<svg id="Layer_2" data-name="Layer 2" xmlns="http://www.w3.org/2000/svg" viewBox="0 0 45.64 48">
  <defs>
    <style>
      .cls-1 {
        fill: #bdbdbd;
      }
    </style>
  </defs>
  <g id="Layer_1-2" data-name="Layer 1">
    <g id="_ÎÓÈ_1" data-name=" ÎÓÈ 1">
      <g>
        <path class="cls-1" d="M18.51,1.04c.19.31.44.59.67.87.35.42.7.83,1.05,1.25.82.97,1.64,1.94,2.35,2.99.18.26.35.53.5.8.07.12.13.25.2.37.02.04.08.1.09.15.78-.34,1.55-.68,2.33-1.02h0c.27.02.54.04.81.06,0,0,0,0,0,0l.09.1c-.09-.1-.16-.21-.24-.32-.05-.06-.18-.2-.18-.28-.64.32-1.29.64-1.93.96h0c-.4,0-.81,0-1.21,0,0,0,0,0,.01,0,.14.14.68.07.81.06.42-.04.86-.15,1.26-.29.31-.11.67-.23.91-.46.05-.05.09-.1.14-.15.06-.1.04-.17-.06-.23-.05-.05-.13-.05-.2-.07-.33-.07-.7,0-1.02.06-.48.08-.96.24-1.39.45-.19.09-.56.25-.55.51,0,.04.05.09.07.12.05.08.11.16.16.23.05.07.1.14.15.2.04.05.08.11.12.14.19.15.61.09.82.07.56-.06,1.12-.21,1.63-.44.18-.08.74-.3.7-.59,0-.04-.05-.08-.07-.11-.07-.1-.12-.22-.18-.33-.13-.24-.28-.48-.43-.71-.34-.51-.71-1.01-1.08-1.49-.75-.95-1.54-1.86-2.32-2.79-.27-.32-.55-.64-.78-1C21.63,0,21.37,0,21.19,0c-.38,0-.81.08-1.18.18-.38.11-.77.22-1.11.43-.09.06-.49.28-.39.43h0Z"/>
        <path class="cls-1" d="M19.1,9.87c.99,1.83,2.3,3.49,3.85,4.88.17.15.64.12.82.11.42-.03.87-.13,1.26-.28.3-.12.68-.25.9-.49.12-.14.23-.28.06-.44-.78-.7-1.5-1.46-2.14-2.29.03.04.06.08.09.12-.61-.78-1.15-1.61-1.62-2.47-.11-.2-.37-.22-.57-.23-.38-.02-.82.05-1.18.16-.38.11-.78.23-1.1.46-.11.08-.47.31-.38.49h0Z"/>
        <path class="cls-1" d="M12.38,3.63c-.04-.06-.08-.12-.12-.19.04.07.08.13.11.2-.02-.03-.05-.08-.05-.12v.23s0,0,0,0c-.04.08-.07.16-.11.23,0,0,0,0,0,0-.07.08-.14.15-.21.23h0c-.1.07-.2.14-.29.21,0,0,0,0,0,0-.12.06-.24.12-.36.18,0,0,0,0,0,0-.14.05-.28.1-.42.14h0c-.15.03-.29.06-.44.09h0c-.14,0-.27.01-.41.02h0c-.12-.01-.24-.02-.36-.04,0,0,0,0,.01,0-.1-.03-.2-.06-.3-.09.02,0,.05.02.07.04-.07-.05-.14-.1-.21-.15.17.12.31.26.46.4.23.21.45.44.68.66.48.47.95.94,1.43,1.4.2.19.42.4.67.53.3.16.75.15,1.06.11.4-.05.88-.19,1.22-.41.23-.15.57-.38.61-.68.04-.27-.09-.44-.33-.57-.02,0-.03-.02-.05-.03.07.05.14.1.21.15-.24-.17-.44-.38-.65-.58-.32-.31-.63-.62-.95-.93-.3-.3-.61-.6-.92-.89-.22-.21-.46-.44-.74-.58-.19-.09-.48-.14-.68-.14-.51,0-1.01.12-1.46.35-.17.09-.34.18-.48.31-.13.12-.28.29-.32.47-.01.06-.02.19,0,.25.05.18.18.34.28.49.15.22.65.27.87.28.41.01.89-.08,1.27-.25.31-.14.69-.32.87-.63.04-.08.07-.16.11-.23.04-.16,0-.3-.11-.43h0Z"/>
        <path class="cls-1" d="M14.27,13.17c.84,1.41,1.91,2.68,3.17,3.74.19.16.62.13.83.12.42-.03.87-.13,1.26-.28.23-.09,1.41-.57.95-.96-.81-.68-1.55-1.45-2.19-2.3.03.04.06.08.1.13-.32-.42-.61-.86-.88-1.32-.12-.2-.35-.23-.57-.25-.38-.03-.82.05-1.18.15-.38.11-.78.23-1.1.46-.11.08-.48.32-.37.5h0Z"/>
        <path class="cls-1" d="M8.33,16.03c1.77,1.26,3.34,2.8,4.63,4.55.13.18.68.16.84.16.41-.02.88-.12,1.26-.27.3-.12.68-.27.89-.53.04-.06.08-.12.13-.19.05-.13.02-.23-.08-.32-1.29-1.75-2.86-3.29-4.63-4.55-.23-.16-.58-.17-.84-.16-.41.02-.88.12-1.26.27-.3.12-.68.27-.89.53-.11.14-.24.36-.04.5h0Z"/>
        <path class="cls-1" d="M.15,10.76c.8,1.02,1.6,2.03,2.4,3.05.2.26.4.52.61.78.41.51,1.06.64,1.68.57.63-.07,1.43-.37,1.77-.96.11-.2.17-.43.12-.66-.06-.23-.21-.39-.41-.5-.58-.34-1.43-.19-2.01.07-.31.14-.68.38-.85.69-.13.23-.17.55.03.76.22.24.57.34.89.36.43.02.87-.06,1.27-.24,0,0,.02,0,.02-.01-.29.08-.57.15-.86.23h.02c-.26-.02-.52-.03-.78-.05,0,0,.01,0,.02,0-.1-.04-.2-.08-.3-.12,0,0,.01,0,.02.01-.07-.06-.15-.12-.22-.18.01,0,.02.02.03.04l-.12-.23s.02.05.02.08c0-.09,0-.18,0-.26,0,.03,0,.05-.01.08.03-.09.07-.18.1-.27,0,0,0,.02-.01.02.07-.09.13-.17.2-.26l-.02.02c.1-.08.19-.16.29-.23l-.02.02.36-.2s-.02,0-.03,0c.29-.08.57-.15.86-.23-.01,0-.03,0-.05,0,.14,0,.27,0,.41,0-.01,0-.03,0-.04,0,.12.02.24.04.37.06-.01,0-.03,0-.04-.01.1.04.2.08.3.12-.05-.02-.08-.04-.12-.07.07.06.15.12.22.18-.14-.13-.26-.3-.38-.45-.13-.16-.26-.33-.39-.49-.26-.34-.53-.67-.79-1.01-.53-.67-1.06-1.34-1.59-2.02-.19-.25-.61-.34-.89-.36-.41-.03-.9.06-1.27.24-.48.23-1.3.83-.82,1.44h0Z"/>
        <path class="cls-1" d="M2.98,21.65c1.23,1.22,2.46,2.43,3.7,3.65.1.05.21.07.33.07.16.02.32.01.48,0,.42-.04.86-.15,1.26-.29.31-.11.68-.23.91-.46.05-.05.09-.1.13-.15.06-.1.04-.18-.06-.23-1.23-1.22-2.46-2.43-3.7-3.65-.1-.05-.21-.07-.33-.07-.16-.02-.32-.01-.48,0-.42.04-.86.15-1.26.29-.31.11-.68.23-.91.46l-.13.15c-.06.1-.04.18.06.23h0Z"/>
        <path class="cls-1" d="M.71,28.55c.17.14.34.28.5.43-.08-.07-.15-.14-.23-.21,1.09.98,1.98,2.15,2.64,3.46-.04-.09-.09-.18-.13-.26.07.15.14.29.21.44.04.16.12.28.25.37.11.12.26.21.42.25.37.12.86.11,1.22,0,.38-.12.8-.29,1.06-.61.18-.22.41-.57.27-.87-.42-.93-.93-1.82-1.55-2.62-.63-.81-1.37-1.53-2.17-2.18-.27-.21-.78-.25-1.09-.22-.4.03-.89.19-1.22.44-.25.2-.55.48-.57.83,0,.1.01.2.02.29.06.2.18.36.36.47h0Z"/>
        <path class="cls-1" d="M7.63,31.16c1.7,1.85,3.4,3.7,5.09,5.54.25.28.55.43.92.48.4.05.91-.03,1.28-.22.33-.17.69-.42.83-.78.11-.29.16-.66-.07-.92-1.7-1.85-3.4-3.7-5.09-5.54-.25-.28-.55-.43-.92-.48-.4-.05-.91.03-1.28.22-.33.17-.69.42-.83.78-.11.29-.16.66.07.92h0Z"/>
        <path class="cls-1" d="M13.01,42.57c1.86,1.69,3.72,3.38,5.58,5.07.26.23.54.33.89.36.41.03.9-.06,1.27-.24.31-.15.69-.36.85-.69.11-.23.19-.56-.03-.76l-5.58-5.07c-.26-.23-.54-.33-.89-.36-.41-.03-.9.06-1.27.24-.31.15-.69.36-.85.69-.11.23-.19.56.03.76h0Z"/>
        <path class="cls-1" d="M16.54,36.5c1.17,1.16,2.33,2.32,3.5,3.47.23.23.57.3.88.32.41.02.9-.07,1.27-.25.31-.15.69-.34.86-.66.12-.22.19-.51-.02-.71-1.17-1.16-2.33-2.32-3.5-3.47-.23-.23-.57-.3-.88-.32-.41-.02-.9.07-1.27.25-.31.15-.69.34-.86.66-.12.22-.19.51.02.71h0Z"/>
        <path class="cls-1" d="M17.21,27.56c.74.85,1.48,1.7,2.22,2.55.25.29.55.45.93.5.4.06.92-.02,1.28-.22.33-.18.69-.43.82-.8.11-.3.15-.68-.08-.95-.74-.85-1.48-1.7-2.22-2.55-.25-.29-.55-.45-.93-.5-.4-.06-.92.02-1.28.22-.33.18-.69.43-.82.8-.11.3-.15.68.08.95h0Z"/>
        <path class="cls-1" d="M20.45,21.66c1.03,1.41,2.28,2.64,3.69,3.67.26.19.54.24.86.24.41,0,.89-.09,1.26-.26.31-.13.69-.31.87-.6.11-.17.23-.46,0-.62-1.41-1.02-2.66-2.26-3.69-3.67-.15-.21-.65-.24-.86-.24-.41,0-.89.09-1.26.26-.31.13-.69.31-.87.6-.04.07-.08.15-.12.22-.04.15,0,.28.11.39h0Z"/>
        <path class="cls-1" d="M25.69,20.25c.95.89,1.9,1.78,2.85,2.66.1.14.23.23.39.29.16.09.34.14.53.16.4.05.91-.04,1.27-.23.32-.17.69-.4.83-.75.11-.26.18-.65-.06-.87-.95-.89-1.9-1.78-2.85-2.66-.1-.14-.23-.23-.39-.29-.16-.09-.34-.14-.53-.16-.4-.05-.91.04-1.27.23-.32.17-.69.4-.83.75-.11.26-.18.65.06.87h0Z"/>
        <path class="cls-1" d="M29.45,13.6c.87.78,1.74,1.56,2.6,2.34.32.29.62.56,1.06.66.45.1.92.08,1.37-.04.27-.07.6-.21.83-.38.19-.14.39-.31.51-.52.18-.33.23-.74-.02-1.05-.54-.68-1.65-.47-2.33-.19-.31.13-.68.39-.85.7-.13.23-.16.57.03.78.53.58,1.54.4,2.17.13,0,0,.02,0,.03-.01-.14.05-.28.1-.42.15,0,0,.02,0,.02,0-.28.03-.57.06-.85.09,0,0,.02,0,.02,0-.12-.02-.24-.04-.37-.06,0,0,.01,0,.02,0-.1-.04-.2-.08-.3-.13,0,0,.01,0,.02.01-.07-.06-.15-.12-.22-.18.02.02.03.03.05.06-.04-.08-.08-.16-.13-.24.02.04.02.07.03.11,0-.09,0-.18-.01-.27,0,.04,0,.07-.02.11.03-.09.07-.18.1-.27,0,.02-.02.03-.03.05.07-.09.13-.17.2-.26,0,0-.01.01-.02.02.1-.08.19-.16.29-.24,0,0-.01.01-.02.02.12-.07.24-.13.36-.2,0,0-.02,0-.03.01.14-.05.28-.1.42-.15-.02,0-.03,0-.05.01.15-.03.29-.05.44-.08-.02,0-.03,0-.05,0,.14,0,.27,0,.41,0-.02,0-.03,0-.05,0,.12.02.24.04.37.06-.03,0-.07-.01-.1-.03.1.04.2.08.3.13-.08-.04-.16-.08-.23-.14.07.06.15.12.22.18-.48-.4-.93-.83-1.4-1.25-.47-.42-.94-.85-1.41-1.27-.26-.24-.54-.34-.9-.37-.41-.03-.9.06-1.27.24-.32.15-.69.37-.85.7-.11.23-.19.58.03.78h0Z"/>
        <path class="cls-1" d="M29.48,4.43c.85.95,1.69,1.9,2.54,2.85.42.47.84.94,1.26,1.41.21.24.42.47.63.71.13.14.28.28.45.37.49.27,1.16.23,1.69.09.29-.08.6-.19.86-.36.19-.13.42-.29.53-.5.15-.29.17-.56-.03-.83-.25-.34-.79-.39-1.17-.37-.44.02-.87.13-1.26.34-.08.04-.13.07-.2.11-.22.13-.36.29-.52.48-.16.2-.15.51.01.69.19.22.61.3.88.31.43,0,.88-.07,1.27-.25.34-.16.62-.35.86-.65,0,0,.01-.01.02-.02l-.5.46s.01,0,.02-.01c-.41.14-.82.28-1.22.42,0,0,.01,0,.02,0-.26,0-.51-.02-.77-.03,0,0,.01,0,.02,0-.1-.03-.2-.07-.3-.1h.02c-.07-.04-.14-.09-.22-.15.02.02.03.04.05.06-.04-.07-.08-.14-.12-.21.01.03.02.05.02.08,0-.08,0-.16,0-.24,0,.02,0,.04,0,.05.04-.08.07-.16.11-.25,0,0,0,.01-.01.02.07-.08.14-.16.21-.24,0,0-.01.01-.02.02l.29-.22s-.02,0-.02.01c.26-.11.52-.22.78-.33l.35-.07c.26,0,.51.02.77.03-.03,0-.06,0-.09-.02.1.03.2.07.3.1-.03-.01-.06-.03-.09-.05l.22.16c-.22-.17-.4-.42-.58-.63-.19-.21-.38-.42-.56-.63-.38-.43-.77-.86-1.15-1.29-.77-.87-1.55-1.74-2.32-2.6-.2-.23-.6-.29-.88-.31-.41-.02-.9.08-1.27.25-.31.14-.69.34-.86.65-.13.23-.18.48.01.69h0Z"/>
        <path class="cls-1" d="M38.69,17.69c1.28,1.64,2.55,3.28,3.83,4.92.22.28.58.44.93.48.4.06.92-.03,1.28-.22.33-.17.69-.42.82-.78.12-.3.14-.65-.07-.92-1.28-1.64-2.55-3.28-3.83-4.92-.22-.28-.58-.44-.93-.48-.4-.06-.92.03-1.28.22-.33.17-.69.42-.82.78-.12.3-.14.65.07.92h0Z"/>
        <path class="cls-1" d="M35.59,22.76c.87,1.09,1.74,2.18,2.61,3.27.16.2.64.22.85.22.41,0,.89-.1,1.26-.26.39-.17,1.32-.63.9-1.16-.87-1.09-1.74-2.18-2.61-3.27-.16-.2-.64-.22-.85-.22-.41,0-.89.1-1.26.26-.39.17-1.32.63-.9,1.16h0Z"/>
        <path class="cls-1" d="M31.95,29.05c.87,1,1.73,1.99,2.6,2.99.25.29.5.62.81.85.75.58,1.96.42,2.69-.13.52-.4.84-1.11.43-1.7-.58-.84-2.02-.63-2.7-.07-.26.21-.53.51-.56.86-.03.31.13.64.39.81.32.21.72.29,1.1.25.43-.04.88-.17,1.21-.45,0,0,.01-.01.02-.02-.12.07-.24.14-.36.22,0,0,.01,0,.02,0-.29.08-.57.15-.86.23h.02c-.14,0-.28,0-.42-.01,0,0,.01,0,.02,0-.12-.03-.25-.06-.37-.09,0,0,.01,0,.02,0-.1-.05-.21-.11-.31-.16,0,0,.01,0,.02.01-.08-.07-.16-.15-.23-.22.02.02.03.04.04.06-.05-.09-.09-.19-.14-.28.01.04.02.07.02.11,0-.1-.01-.21-.02-.31,0,.02,0,.04,0,.05.03-.1.06-.21.09-.31,0,.02-.01.03-.02.05.06-.1.13-.19.19-.29,0,0-.01.01-.02.02.09-.09.19-.17.28-.26,0,0-.01.01-.02.02.12-.07.24-.14.36-.22,0,0-.02,0-.03.01.14-.05.28-.1.42-.15-.02,0-.03,0-.05.01.15-.03.29-.05.44-.08-.02,0-.03,0-.05,0,.14,0,.28,0,.42,0-.02,0-.03,0-.05,0,.12.03.25.06.37.09-.03,0-.06-.02-.09-.03l.31.16c-.06-.03-.11-.07-.16-.12.08.07.16.15.23.22-.27-.26-.5-.57-.75-.85-.26-.31-.53-.61-.79-.91-.52-.6-1.05-1.2-1.57-1.8-.24-.28-.56-.42-.92-.47-.4-.05-.91.03-1.27.22-.33.17-.69.41-.83.77-.12.29-.16.64.07.9h0Z"/>
        <path class="cls-1" d="M25.54,33.11c1.09,1.72,2.27,3.37,3.56,4.95.22.27.58.4.91.43.4.05.91-.04,1.27-.23.32-.17.69-.4.84-.74.12-.28.15-.6-.06-.86-1.28-1.58-2.47-3.23-3.56-4.95-.17-.27-.62-.4-.91-.43-.4-.05-.91.04-1.27.23-.59.3-1.21.92-.78,1.6h0Z"/>
        <path class="cls-1" d="M27.89,44.27c1.03,1.12,2.06,2.23,3.09,3.34.21.23.59.3.88.31.41.02.9-.08,1.27-.25.31-.14.69-.34.86-.65.12-.23.19-.49-.01-.7-1.03-1.12-2.06-2.23-3.09-3.34-.21-.23-.59-.3-.88-.31-.41-.02-.9.08-1.27.25-.31.14-.69.34-.86.65-.12.23-.19.49.01.7h0Z"/>
      </g>
    </g>
  </g>
</svg>