<?xml version="1.0" encoding="UTF-8"?>
<svg id="Layer_2" data-name="Layer 2" xmlns="http://www.w3.org/2000/svg" viewBox="0 0 33 48">
  <defs>
    <style>
      .cls-1 {
        fill: #bdbdbd;
      }
    </style>
  </defs>
  <g id="Layer_1-2" data-name="Layer 1">
    <g id="_ÎÓÈ_1" data-name=" ÎÓÈ 1">
      <path class="cls-1" d="M1.26,6.39c.77-1.33,1.75-2.54,2.93-3.52.26-.22.49-.39.75-.56.02-.02.22-.15.14-.09.07-.04.14-.09.21-.13.05-.03.09-.06.14-.08-.02,0-.07.04,0,0,.09-.05.19-.11.28-.16.54-.29,1.25-.56,1.89-.74,1.58-.44,3.31-.4,4.68.61,1.12.82,1.87,2.09,2.29,3.39.96,2.96.11,6.15-1.89,8.48-.46.53-.97,1.04-1.54,1.44-.19.14-.47.28-.77.37-.38.12-.77.18-1.17.16-1.47-.06-2.77-1.28-3.07-2.7-.15-.7-.02-1.42.37-2.02.14-.22.35-.44.53-.58,0,0,.09-.07.04-.03-.06.05.1-.07.02-.01-.08.05.15-.09.07-.05-.08.05.18-.1.07-.04.08-.04.17-.09.26-.13.64-.3,1.41-.56,2.11-.78.9-.29,1.82-.52,2.76-.55.84-.03,1.71.1,2.47.47.65.32,1.23.77,1.7,1.31,1.02,1.16,1.52,2.72,1.06,4.22-.24.77-.64,1.5-1.03,2.2-.36.65-.73,1.29-1.14,1.91s-.86,1.22-1.35,1.77c-.23.26-.47.51-.73.74-.23.2-.46.39-.64.51,0,0-.11.07-.04.03.07-.05-.05.03-.07.04-.08.04,0,0,.02,0-.03.02-.06.04-.09.05-.07.04-.01,0,0,0-.04.02-.08.04-.13.06-.07.03-.09.04-.18.08-.27.11-.56.19-.85.23-.32.05-.64.07-.96.05-.15,0-.41.01-.52-.11-.1-.12-.14-.34-.15-.49-.03-.33.11-.66.29-.92.09-.12.19-.23.3-.34.1-.1.06-.04.02-.03-.03.01-.14.06-.06.04.19-.04.39-.15.57-.21.22-.08.44-.15.66-.21.44-.13.89-.24,1.34-.34,1.78-.37,3.63-.41,5.43-.16.65.09,1.4.21,1.84.75.57.69.1,1.55-.22,2.23-.66,1.38-1.5,2.68-2.51,3.82-.48.55-1,1.06-1.56,1.52-.23.19-.53.42-.71.55-.14.1-.28.2-.43.29.08-.05-.11.07-.13.08-.08.05-.16.1-.24.14.1-.06-.11.06-.14.08-.08.04-.16.09-.24.13.04-.02-.1.05-.12.06-.08.04-.16.08-.25.12-.29.14-.6.26-.9.38.08-.01.15-.03.23-.04-.41-.31-.52-.9-.41-1.38.03-.12.07-.23.13-.34.06-.11.16-.19.22-.3.07-.12-.21.15-.17.11-.03.04.04-.02.06-.03.14-.05.28-.11.42-.16,1.23-.45,2.5-.87,3.8-1.08,1.26-.2,2.58-.19,3.81.23,1.12.39,2.61,1.23,2.57,2.59-.02.68-.42,1.3-.82,1.82-.37.48-.77.94-1.22,1.35-.21.19-.42.37-.65.54-.22.17-.35.25-.57.39-.14.08-.38.21-.6.32-.25.12-.5.22-.76.31-.54.19-1.11.33-1.68.41-.29.04-.59.07-.89.09-.12,0-.29.04-.41.01-.14-.04-.22-.21-.27-.34-.21-.49-.13-1.12.18-1.55.03-.04.11-.1.12-.14,0,.03-.21.16-.29.18.12-.02.25-.09.36-.12.34-.09.68-.16,1.03-.23,1.46-.3,3.01-.54,4.46-.07,1.08.35,2.05,1.1,2.65,2.05,1.42,2.24.35,5.23-1.49,6.89-.2.18-.35.3-.54.42.09-.06-.02,0-.03.02.12-.07-.1.05-.1.05.09-.05-.13.07-.12.06-.08.04-.06.03-.14.06-.47.2-1,.36-1.51.37-.94.03-1.95-.39-2.57-1.11-.3-.35-.49-.79-.49-1.25,0-.25.06-.5.17-.72.05-.1.12-.19.18-.28.06-.08.05-.04.04-.05.04.04-.46.21-.24.15.49-.13.95-.22,1.46-.24.52-.02,1.04,0,1.56.05,4.54.49,8.51,3.68,10.74,7.55.3.53.57,1.07.82,1.63.05.11.64-.25.7-.28.08-.05.63-.36.57-.5-1.2-2.76-3.15-5.18-5.63-6.89-2.23-1.54-4.94-2.51-7.67-2.37-.71.04-1.39.16-2.04.47-.71.35-1.59.87-1.85,1.68-.39,1.24.6,2.27,1.68,2.7,1.32.51,2.68.11,3.89-.51,1.49-.77,2.81-1.87,3.65-3.33.82-1.43,1.22-3.21.54-4.77-.57-1.32-1.79-2.31-3.16-2.71-.91-.27-1.87-.27-2.8-.16-.9.11-1.82.28-2.7.52-.46.12-.9.32-1.31.56-.42.25-.87.54-1.16.95-.37.5-.49,1.27-.18,1.83.1.18.16.24.37.24.19,0,.38-.01.57-.03.38-.03.75-.08,1.12-.15.75-.14,1.49-.37,2.19-.68,1.59-.69,3.07-1.67,4.28-2.91,1.01-1.03,2.51-2.74,1.45-4.21-.46-.64-1.23-1.06-1.95-1.35-.75-.3-1.54-.45-2.34-.48-1.66-.05-3.31.39-4.87.92-.84.28-1.69.56-2.45,1.03-.68.42-1.35.94-1.41,1.79-.02.3.03.62.19.88.06.09.18.27.3.29.15.03.41-.14.55-.2.77-.31,1.5-.69,2.22-1.12,1.37-.81,2.64-1.82,3.74-2.98,1.06-1.12,1.96-2.4,2.68-3.77.18-.35.36-.71.52-1.08.17-.39.34-.82.26-1.26-.12-.65-.72-1-1.31-1.17-.82-.24-1.73-.28-2.58-.31-.93-.03-1.86.02-2.78.14-.91.13-1.81.32-2.69.6-.94.3-1.85.66-2.64,1.26-.55.41-1.13.98-1.19,1.7-.01.16,0,.33.06.49.02.07.06.19.11.24.06.06.12.06.21.07.34.04.67.05,1.01.02,1.55-.14,2.99-1.01,4.16-1.97,1.16-.95,2.09-2.16,2.89-3.42.41-.65.79-1.32,1.15-2,.39-.75.8-1.52.94-2.37.24-1.5-.41-2.96-1.47-4.01-1.18-1.17-2.74-1.65-4.38-1.5-.94.08-1.87.33-2.76.63-.78.26-1.56.53-2.3.88-1.29.59-2.88,1.53-3.21,3.03-.32,1.47.58,2.97,1.89,3.63,1.62.81,3.44-.07,4.81-1,2.63-1.78,4.59-4.7,4.69-7.93.08-2.73-1.31-6.05-4.13-6.89-1.63-.49-3.4-.04-4.92.6-1.57.66-3.04,1.59-4.31,2.72C1.75,4.56.78,5.76,0,7.08c-.08.14.5-.13.52-.14.24-.13.59-.31.73-.55h0Z"/>
    </g>
  </g>
</svg>