<?xml version="1.0" encoding="UTF-8"?>
<svg id="Layer_2" data-name="Layer 2" xmlns="http://www.w3.org/2000/svg" viewBox="0 0 48 42.64">
  <defs>
    <style>
      .cls-1 {
        fill: #bdbdbd;
      }
    </style>
  </defs>
  <g id="Layer_1-2" data-name="Layer 1">
    <g id="_ÎÓÈ_1" data-name=" ÎÓÈ 1">
      <path class="cls-1" d="M18,42.64l1.56-4.72c2.71-8.22,6.55-16.01,11.4-23.2-6.82.87-12.71,6.04-18.18,11.34l-1.5-1.4,12.16-14.57c1.83-2.19,2.63-3.92,2.43-5.26-4.06,1.59-7.86,3.93-11.13,6.84-1.96,3.26-4.43,6.23-7.3,8.74l-4.9,4.29,3.35-5.59c1.98-3.31,4.45-6.29,7.3-8.84,1.2-2.05,2.19-4.21,2.94-6.45C10.91,6.41,5.9,9.45,1.21,12.88l-1.21-1.66C5.42,7.26,11.25,3.8,17.33.94l1.98-.94-.55,2.12c-.45,1.74-1.04,3.45-1.76,5.11,2.8-1.95,5.87-3.53,9.13-4.7l.82-.29.42.76c1.85,3.35-1.32,7.15-2.36,8.4l-4.54,5.44c3.8-2.57,7.91-4.31,12.48-4.31h2.03s-1.14,1.62-1.14,1.62c-4.36,6.16-7.94,12.8-10.68,19.79,5.49-5.49,11.72-10.16,18.58-13.93l2.56-1.4-1.11,2.7c-1.78,4.31-2.94,8.81-3.47,13.42,2.57-2.96,4.72-6.24,6.43-9.77l1.85.89c-2.23,4.62-5.2,8.83-8.82,12.49l-1.91,1.93.15-2.71c.28-4.9,1.23-9.7,2.84-14.32-7.11,4.24-13.48,9.5-18.96,15.69l-3.3,3.72h0Z"/>
    </g>
  </g>
</svg>