<?xml version="1.0" encoding="UTF-8"?>
<svg id="Layer_2" data-name="Layer 2" xmlns="http://www.w3.org/2000/svg" viewBox="0 0 48 36.89">
  <defs>
    <style>
      .cls-1 {
        fill: #bdbdbd;
      }
    </style>
  </defs>
  <g id="Layer_1-2" data-name="Layer 1">
    <g id="_ÎÓÈ_1" data-name=" ÎÓÈ 1">
      <path class="cls-1" d="M2.15,28.21c0-.74.02-1.48.02-2.23,0-.54-1.09-.25-1.2.14-.41,1.44-.77,2.91-.91,4.41-.14,1.41-.09,2.89.42,4.23.29.75.72,1.43,1.27,2.01.25.26,1.1.08,1.15-.31.56-3.9,1.42-7.75,2.57-11.51.32-1.06.67-2.11,1.04-3.16-.4.08-.8.15-1.2.23,1.21,2.37,1.61,5.1,1.14,7.72-.14.75-.34,1.49-.62,2.2.4-.05.8-.09,1.2-.14.53-3.17,1.16-6.32,1.88-9.45.18-.78.35-1.55.55-2.32.04-.13.07-.26.13-.38.03-.05.06-.1.09-.15.06-.09.06-.03,0-.03,0,0-.13.02-.13.02,0,0,.07.02.09.02.12.05.23.13.33.22.48.45.7,1.05.91,1.66.25.72.45,1.45.59,2.19.33,1.67.4,3.37.2,5.06.4-.05.8-.09,1.2-.14.07-3.49.96-6.95,2.58-10.04.46-.88.98-1.72,1.55-2.54-.39.05-.77.09-1.16.14,1.38,3.18,1.83,6.71,1.28,10.13-.08.49,1.12.29,1.2-.14.63-3.64,1.63-7.22,3-10.66.39-.97.81-1.94,1.25-2.88-.39.05-.77.09-1.16.14,1.29,3.13,1.77,6.56,1.38,9.92-.03.27.33.31.52.28.26-.03.58-.16.67-.42.99-2.75,1.98-5.5,2.97-8.25.23-.65.44-1.32.71-1.95.09-.2.19-.4.32-.58.06-.08.13-.15.21-.22-.06.06.09-.08,0,0,.08-.07,0-.01-.05,0-.08.04.05.01,0,0,.13.04-.03-.02.1.03.09.04.16.1.23.17.16.17.26.37.35.59.22.58.31,1.23.39,1.84.21,1.56.15,3.14-.15,4.69.4-.05.8-.09,1.2-.14.16-2.48.68-4.94,1.56-7.27.42-1.13.91-2.28,1.55-3.31.02-.04.06-.08.08-.13.05-.1.1-.03-.02-.01.04,0-.24.03-.26.04-.03.01.03.01.06.04.14.1.24.28.31.44.23.53.24,1.16.29,1.72.13,1.51.09,3.03-.09,4.54.4-.05.8-.09,1.2-.14,0-3.28.95-6.52,2.72-9.29-.31.11-.61.21-.92.32,1.11.32,1.75,1.48,1.92,2.56.23,1.48-.39,2.98-.93,4.33.4-.05.8-.09,1.2-.14.89-3.11,1.78-6.23,2.67-9.34.26-.89.51-1.78.76-2.68-.4.08-.8.15-1.2.23,1.12,2.26,1.67,4.79,1.55,7.31.4-.08.8-.15,1.2-.23-.34-2.31.22-4.7,1.54-6.62-.37.07-.74.14-1.11.22,1.15.98,1.99,2.25,2.43,3.69.13.44,1.33.12,1.2-.32-.45-1.49-1.33-2.84-2.52-3.85-.3-.26-.9-.09-1.11.22-1.39,2.03-1.98,4.55-1.61,6.99.04.23.46.21.6.18.18-.04.58-.17.59-.41.13-2.59-.4-5.17-1.55-7.5-.2-.41-1.09-.16-1.2.23-.89,3.11-1.78,6.23-2.67,9.34-.26.89-.51,1.78-.76,2.68-.08.27.36.3.52.28.27-.03.57-.16.67-.42.58-1.45,1.21-3.04.91-4.64-.24-1.28-1.09-2.42-2.37-2.79-.29-.08-.76.06-.92.32-1.8,2.82-2.79,6.13-2.8,9.48,0,.52,1.15.29,1.2-.14.18-1.48.21-2.97.11-4.46-.07-.96-.07-2.82-1.43-2.86-.38-.01-.8.14-1.08.4-.25.23-.4.55-.55.84-.32.6-.62,1.22-.89,1.85-.54,1.26-.99,2.57-1.33,3.9-.37,1.49-.61,3-.7,4.53-.03.52,1.12.28,1.2-.14.29-1.5.36-3.05.18-4.57-.08-.68-.17-1.4-.4-2.06-.19-.53-.51-1.04-1.07-1.22-.65-.2-1.42.05-1.88.54-.44.47-.65,1.07-.86,1.66-.54,1.5-1.08,3.01-1.62,4.51-.61,1.69-1.22,3.38-1.82,5.07.4-.05.8-.09,1.2-.14.4-3.42-.07-6.92-1.38-10.11-.16-.39-1.01-.18-1.16.14-1.6,3.4-2.85,6.97-3.71,10.63-.24,1.02-.45,2.06-.63,3.09.4-.05.8-.09,1.2-.14.56-3.47.12-7.08-1.28-10.31-.18-.42-.97-.14-1.16.14-2.04,2.9-3.41,6.27-3.95,9.78-.15.99-.24,1.99-.26,2.99-.01.52,1.15.29,1.2-.14.19-1.63.15-3.29-.14-4.91-.14-.8-.34-1.59-.6-2.36-.23-.68-.46-1.39-.98-1.91-.57-.58-1.4-.71-2.11-.29-.7.41-.8,1.25-.98,1.97-.41,1.69-.79,3.39-1.14,5.1-.4,1.94-.77,3.89-1.09,5.84-.05.27.34.3.52.28.27-.03.57-.16.67-.42.97-2.53,1.07-5.38.32-7.97-.21-.73-.5-1.45-.84-2.13-.22-.42-1.06-.15-1.2.23-1.31,3.71-2.34,7.52-3.06,11.39-.2,1.09-.39,2.18-.54,3.28.38-.1.77-.21,1.15-.31-2.02-2.11-1.84-5.23-1.29-7.89.17-.81.38-1.61.6-2.41-.4.05-.8.09-1.2.14,0,.74-.02,1.48-.02,2.23,0,.27.31.31.52.28.18-.02.67-.16.67-.42h0Z"/>
    </g>
  </g>
</svg>