<?xml version="1.0" encoding="UTF-8"?>
<svg id="Layer_2" data-name="Layer 2" xmlns="http://www.w3.org/2000/svg" viewBox="0 0 48 29.77">
  <defs>
    <style>
      .cls-1 {
        fill: #bdbdbd;
      }
    </style>
  </defs>
  <g id="Layer_1-2" data-name="Layer 1">
    <path class="cls-1" d="M41.88,11.57c-3.04-1.14-6.29-.61-8.75,1.13-.7-2.93-2.8-5.47-5.84-6.61-3.04-1.14-6.29-.61-8.75,1.13-.7-2.93-2.8-5.47-5.84-6.61C7.85-1.23,2.43,1.23.61,6.09c-1.83,4.86.63,10.28,5.49,12.12,3.04,1.14,6.29.61,8.75-1.13.7,2.93,2.8,5.47,5.84,6.61,3.04,1.14,6.29.61,8.75-1.13.7,2.93,2.8,5.47,5.84,6.61,4.86,1.83,10.28-.63,12.12-5.49,1.83-4.86-.63-10.28-5.49-12.12h-.02Z"/>
  </g>
</svg>