<svg width="28" height="26" viewBox="0 0 28 26" fill="none" xmlns="http://www.w3.org/2000/svg">
<g filter="url(#filter0_d_29781_64616)">
<mask id="path-1-inside-1_29781_64616" fill="white">
<path d="M13.0049 8.71938C13.6027 8.68427 14.2164 8.7122 14.8105 8.82094C15.2065 8.89336 15.5937 9.00224 15.9619 9.152C16.5145 9.37687 17.0249 9.6951 17.4561 10.1247C17.8076 10.473 18.0932 10.8819 18.3135 11.3278C18.3503 11.4022 18.3848 11.4779 18.418 11.5543C18.4842 11.7069 18.5428 11.8632 18.5947 12.0221C18.6207 12.1016 18.6456 12.1816 18.668 12.2623C18.8023 12.7467 18.8729 13.2523 18.8809 13.7545C18.8826 13.8732 18.8809 13.9922 18.876 14.111C18.8512 14.706 18.7402 15.2986 18.5283 15.8483C18.4435 16.0682 18.3428 16.2814 18.2246 16.485C18.1432 16.6252 18.0519 16.7598 17.9541 16.8893C17.9479 16.8975 17.9418 16.9056 17.9355 16.9137C17.8778 16.989 17.8168 17.0616 17.7539 17.1325C17.7406 17.1475 17.7274 17.1626 17.7139 17.1774C17.6527 17.2443 17.589 17.3085 17.5234 17.3707C17.5079 17.3855 17.4923 17.4002 17.4766 17.4147C17.4125 17.4735 17.3471 17.5306 17.2793 17.5846L17.1631 17.6735C17.1302 17.6975 17.0971 17.7209 17.0635 17.7438C17.0493 17.7534 17.0348 17.7627 17.0205 17.7721C16.9905 17.7919 16.9602 17.811 16.9297 17.8297C16.9114 17.841 16.8935 17.853 16.875 17.8639C16.8397 17.8847 16.8036 17.904 16.7676 17.9235C16.7564 17.9295 16.7456 17.9361 16.7344 17.942C16.6913 17.9647 16.6475 17.9859 16.6035 18.0065C16.5957 18.0101 16.5879 18.0136 16.5801 18.0172C16.5401 18.0356 16.4996 18.0524 16.459 18.069C16.4462 18.0742 16.4338 18.0805 16.4209 18.0856C16.3164 18.1266 16.2101 18.163 16.1016 18.192L15.8125 18.2565C15.6942 18.2797 15.575 18.3005 15.457 18.3239C15.285 18.3578 15.1152 18.3978 14.9521 18.4586C14.8304 18.5041 14.7092 18.5667 14.5996 18.6452C14.7142 18.6628 14.9055 18.7148 14.8711 18.8707C14.8217 19.0916 14.4551 20.3952 14.4551 20.3952C14.4537 20.4027 14.3976 20.6881 13.8477 20.6227C13.2925 20.5566 10.9787 20.0979 10.9561 20.0934C10.9561 20.0934 10.6038 20.0122 10.6035 19.8063C10.6035 19.6002 10.7021 18.2233 10.7021 18.2233C10.7022 18.2169 10.7067 18.041 10.9697 18.0914C10.9808 18.0936 10.9976 18.0947 11.0186 18.0983C10.9794 18.0177 10.934 17.9398 10.8818 17.8678L10.7832 17.7457C10.5083 17.4362 10.1483 17.2197 9.83105 16.9606C9.70402 16.8545 9.58498 16.7394 9.47363 16.6178C9.45494 16.5974 9.4372 16.5761 9.41895 16.5553C9.3812 16.5123 9.34347 16.4692 9.30762 16.4245C9.29528 16.4091 9.2836 16.3932 9.27148 16.3776C9.23266 16.3277 9.19472 16.277 9.1582 16.2252C9.14525 16.2069 9.13278 16.1882 9.12012 16.1696C9.08502 16.1181 9.05142 16.0655 9.01855 16.0123C9.00886 15.9967 8.99875 15.9813 8.98926 15.9655C8.95304 15.9052 8.91816 15.844 8.88477 15.7819C8.87574 15.7651 8.86722 15.748 8.8584 15.7311C8.83434 15.6849 8.81061 15.6385 8.78809 15.5914C8.77169 15.5572 8.75582 15.5227 8.74023 15.4879C8.72025 15.4434 8.70126 15.3984 8.68262 15.3532C8.66914 15.3205 8.65633 15.2875 8.64355 15.2545C8.62566 15.2083 8.60832 15.1618 8.5918 15.1149C8.58023 15.0821 8.56851 15.0493 8.55762 15.0163C8.54292 14.9716 8.5291 14.9266 8.51562 14.8815C8.50543 14.8474 8.49485 14.8133 8.48535 14.7789C8.47044 14.7249 8.45751 14.6704 8.44434 14.6159C8.43835 14.5911 8.43141 14.5665 8.42578 14.5416C8.41251 14.483 8.40093 14.424 8.38965 14.3649C8.38474 14.3392 8.37953 14.3135 8.375 14.2877C8.36468 14.229 8.35603 14.17 8.34766 14.111C8.34373 14.0833 8.33846 14.0557 8.33496 14.028C8.31397 13.8613 8.30141 13.6936 8.2959 13.526L8.29297 13.2653C8.29754 13.0115 8.32042 12.7568 8.36035 12.5055C8.36537 12.474 8.36942 12.4422 8.375 12.4108C8.38033 12.3807 8.38673 12.3509 8.39258 12.3209C8.40004 12.2828 8.40771 12.2446 8.41602 12.2067C8.4243 12.1688 8.43325 12.1311 8.44238 12.0934C8.44903 12.066 8.4558 12.0386 8.46289 12.0114C8.47395 11.9688 8.48589 11.9266 8.49805 11.8844C8.50596 11.857 8.51409 11.8296 8.52246 11.8024C8.57726 11.624 8.6419 11.4493 8.7168 11.2799C8.72505 11.2613 8.73369 11.2428 8.74219 11.2243C8.76011 11.1852 8.77883 11.1465 8.79785 11.1081C8.81438 11.0746 8.83127 11.0414 8.84863 11.0084C8.86446 10.9784 8.87996 10.9482 8.89648 10.9186C8.9127 10.8895 8.93037 10.8613 8.94727 10.8327C9.10801 10.56 9.29801 10.3059 9.52051 10.0807C9.55023 10.0504 9.5817 10.022 9.6123 9.99282C9.63552 9.97071 9.65793 9.94784 9.68164 9.92641C9.70771 9.90283 9.73507 9.88082 9.76172 9.85805C9.7948 9.8298 9.82739 9.80109 9.86133 9.77407C9.88554 9.75478 9.91092 9.73707 9.93555 9.7184C9.97082 9.69167 10.0059 9.66479 10.042 9.6393C10.064 9.62377 10.0861 9.60848 10.1084 9.5934C10.1487 9.56612 10.1892 9.53914 10.2305 9.51332C10.2519 9.4999 10.2732 9.48631 10.2949 9.47328C10.3481 9.4413 10.4025 9.41116 10.457 9.38149C10.4652 9.37703 10.4732 9.37222 10.4814 9.36782C10.5358 9.33869 10.5909 9.31075 10.6465 9.28383C10.6644 9.27514 10.6821 9.26593 10.7002 9.25746C10.8317 9.19586 10.9665 9.14054 11.1035 9.09047C11.149 9.07384 11.1952 9.05901 11.2412 9.0436C11.2654 9.03549 11.2892 9.02598 11.3135 9.01821C11.3485 9.00702 11.3837 8.99649 11.4189 8.98598C11.4676 8.97147 11.5164 8.95725 11.5654 8.94399C11.5807 8.93987 11.5961 8.93627 11.6113 8.93227C11.6551 8.92082 11.6991 8.91053 11.7432 8.90004C11.8603 8.87214 11.9782 8.84722 12.0967 8.82582C12.1133 8.82283 12.1299 8.81991 12.1465 8.81703C12.4318 8.76768 12.7198 8.73564 13.0049 8.71938Z"/>
</mask>
<path d="M13.0049 8.71938C13.6027 8.68427 14.2164 8.7122 14.8105 8.82094C15.2065 8.89336 15.5937 9.00224 15.9619 9.152C16.5145 9.37687 17.0249 9.6951 17.4561 10.1247C17.8076 10.473 18.0932 10.8819 18.3135 11.3278C18.3503 11.4022 18.3848 11.4779 18.418 11.5543C18.4842 11.7069 18.5428 11.8632 18.5947 12.0221C18.6207 12.1016 18.6456 12.1816 18.668 12.2623C18.8023 12.7467 18.8729 13.2523 18.8809 13.7545C18.8826 13.8732 18.8809 13.9922 18.876 14.111C18.8512 14.706 18.7402 15.2986 18.5283 15.8483C18.4435 16.0682 18.3428 16.2814 18.2246 16.485C18.1432 16.6252 18.0519 16.7598 17.9541 16.8893C17.9479 16.8975 17.9418 16.9056 17.9355 16.9137C17.8778 16.989 17.8168 17.0616 17.7539 17.1325C17.7406 17.1475 17.7274 17.1626 17.7139 17.1774C17.6527 17.2443 17.589 17.3085 17.5234 17.3707C17.5079 17.3855 17.4923 17.4002 17.4766 17.4147C17.4125 17.4735 17.3471 17.5306 17.2793 17.5846L17.1631 17.6735C17.1302 17.6975 17.0971 17.7209 17.0635 17.7438C17.0493 17.7534 17.0348 17.7627 17.0205 17.7721C16.9905 17.7919 16.9602 17.811 16.9297 17.8297C16.9114 17.841 16.8935 17.853 16.875 17.8639C16.8397 17.8847 16.8036 17.904 16.7676 17.9235C16.7564 17.9295 16.7456 17.9361 16.7344 17.942C16.6913 17.9647 16.6475 17.9859 16.6035 18.0065C16.5957 18.0101 16.5879 18.0136 16.5801 18.0172C16.5401 18.0356 16.4996 18.0524 16.459 18.069C16.4462 18.0742 16.4338 18.0805 16.4209 18.0856C16.3164 18.1266 16.2101 18.163 16.1016 18.192L15.8125 18.2565C15.6942 18.2797 15.575 18.3005 15.457 18.3239C15.285 18.3578 15.1152 18.3978 14.9521 18.4586C14.8304 18.5041 14.7092 18.5667 14.5996 18.6452C14.7142 18.6628 14.9055 18.7148 14.8711 18.8707C14.8217 19.0916 14.4551 20.3952 14.4551 20.3952C14.4537 20.4027 14.3976 20.6881 13.8477 20.6227C13.2925 20.5566 10.9787 20.0979 10.9561 20.0934C10.9561 20.0934 10.6038 20.0122 10.6035 19.8063C10.6035 19.6002 10.7021 18.2233 10.7021 18.2233C10.7022 18.2169 10.7067 18.041 10.9697 18.0914C10.9808 18.0936 10.9976 18.0947 11.0186 18.0983C10.9794 18.0177 10.934 17.9398 10.8818 17.8678L10.7832 17.7457C10.5083 17.4362 10.1483 17.2197 9.83105 16.9606C9.70402 16.8545 9.58498 16.7394 9.47363 16.6178C9.45494 16.5974 9.4372 16.5761 9.41895 16.5553C9.3812 16.5123 9.34347 16.4692 9.30762 16.4245C9.29528 16.4091 9.2836 16.3932 9.27148 16.3776C9.23266 16.3277 9.19472 16.277 9.1582 16.2252C9.14525 16.2069 9.13278 16.1882 9.12012 16.1696C9.08502 16.1181 9.05142 16.0655 9.01855 16.0123C9.00886 15.9967 8.99875 15.9813 8.98926 15.9655C8.95304 15.9052 8.91816 15.844 8.88477 15.7819C8.87574 15.7651 8.86722 15.748 8.8584 15.7311C8.83434 15.6849 8.81061 15.6385 8.78809 15.5914C8.77169 15.5572 8.75582 15.5227 8.74023 15.4879C8.72025 15.4434 8.70126 15.3984 8.68262 15.3532C8.66914 15.3205 8.65633 15.2875 8.64355 15.2545C8.62566 15.2083 8.60832 15.1618 8.5918 15.1149C8.58023 15.0821 8.56851 15.0493 8.55762 15.0163C8.54292 14.9716 8.5291 14.9266 8.51562 14.8815C8.50543 14.8474 8.49485 14.8133 8.48535 14.7789C8.47044 14.7249 8.45751 14.6704 8.44434 14.6159C8.43835 14.5911 8.43141 14.5665 8.42578 14.5416C8.41251 14.483 8.40093 14.424 8.38965 14.3649C8.38474 14.3392 8.37953 14.3135 8.375 14.2877C8.36468 14.229 8.35603 14.17 8.34766 14.111C8.34373 14.0833 8.33846 14.0557 8.33496 14.028C8.31397 13.8613 8.30141 13.6936 8.2959 13.526L8.29297 13.2653C8.29754 13.0115 8.32042 12.7568 8.36035 12.5055C8.36537 12.474 8.36942 12.4422 8.375 12.4108C8.38033 12.3807 8.38673 12.3509 8.39258 12.3209C8.40004 12.2828 8.40771 12.2446 8.41602 12.2067C8.4243 12.1688 8.43325 12.1311 8.44238 12.0934C8.44903 12.066 8.4558 12.0386 8.46289 12.0114C8.47395 11.9688 8.48589 11.9266 8.49805 11.8844C8.50596 11.857 8.51409 11.8296 8.52246 11.8024C8.57726 11.624 8.6419 11.4493 8.7168 11.2799C8.72505 11.2613 8.73369 11.2428 8.74219 11.2243C8.76011 11.1852 8.77883 11.1465 8.79785 11.1081C8.81438 11.0746 8.83127 11.0414 8.84863 11.0084C8.86446 10.9784 8.87996 10.9482 8.89648 10.9186C8.9127 10.8895 8.93037 10.8613 8.94727 10.8327C9.10801 10.56 9.29801 10.3059 9.52051 10.0807C9.55023 10.0504 9.5817 10.022 9.6123 9.99282C9.63552 9.97071 9.65793 9.94784 9.68164 9.92641C9.70771 9.90283 9.73507 9.88082 9.76172 9.85805C9.7948 9.8298 9.82739 9.80109 9.86133 9.77407C9.88554 9.75478 9.91092 9.73707 9.93555 9.7184C9.97082 9.69167 10.0059 9.66479 10.042 9.6393C10.064 9.62377 10.0861 9.60848 10.1084 9.5934C10.1487 9.56612 10.1892 9.53914 10.2305 9.51332C10.2519 9.4999 10.2732 9.48631 10.2949 9.47328C10.3481 9.4413 10.4025 9.41116 10.457 9.38149C10.4652 9.37703 10.4732 9.37222 10.4814 9.36782C10.5358 9.33869 10.5909 9.31075 10.6465 9.28383C10.6644 9.27514 10.6821 9.26593 10.7002 9.25746C10.8317 9.19586 10.9665 9.14054 11.1035 9.09047C11.149 9.07384 11.1952 9.05901 11.2412 9.0436C11.2654 9.03549 11.2892 9.02598 11.3135 9.01821C11.3485 9.00702 11.3837 8.99649 11.4189 8.98598C11.4676 8.97147 11.5164 8.95725 11.5654 8.94399C11.5807 8.93987 11.5961 8.93627 11.6113 8.93227C11.6551 8.92082 11.6991 8.91053 11.7432 8.90004C11.8603 8.87214 11.9782 8.84722 12.0967 8.82582C12.1133 8.82283 12.1299 8.81991 12.1465 8.81703C12.4318 8.76768 12.7198 8.73564 13.0049 8.71938Z" fill="#FF7300"/>
<path d="M13.0049 8.71938L13.0618 9.71776L13.0635 9.71766L13.0049 8.71938ZM14.8105 8.82094L14.6305 9.8046L14.6306 9.80462L14.8105 8.82094ZM15.9619 9.152L16.3388 8.22575L16.3387 8.22568L15.9619 9.152ZM17.4561 10.1247L16.7503 10.8331L16.7522 10.835L17.4561 10.1247ZM18.3135 11.3278L19.21 10.8849L19.21 10.8848L18.3135 11.3278ZM18.418 11.5543L17.5007 11.9526L17.5007 11.9526L18.418 11.5543ZM18.5947 12.0221L19.5453 11.7117L19.5453 11.7116L18.5947 12.0221ZM18.668 12.2623L17.7043 12.5296L17.7044 12.5296L18.668 12.2623ZM18.8809 13.7545L19.8808 13.7397L19.8807 13.7387L18.8809 13.7545ZM18.876 14.111L17.8769 14.0692L17.8768 14.0693L18.876 14.111ZM18.5283 15.8483L19.4614 16.208L19.4614 16.208L18.5283 15.8483ZM18.2246 16.485L19.0894 16.9871L19.0894 16.9871L18.2246 16.485ZM17.9541 16.8893L18.7522 17.4918L18.7522 17.4918L17.9541 16.8893ZM17.9355 16.9137L17.1421 16.3051L17.1421 16.3051L17.9355 16.9137ZM17.7539 17.1325L18.5019 17.7961L18.5019 17.7961L17.7539 17.1325ZM17.7139 17.1774L16.9761 16.5024L16.9761 16.5024L17.7139 17.1774ZM17.5234 17.3707L16.8348 16.6457L16.8348 16.6457L17.5234 17.3707ZM17.4766 17.4147L18.1529 18.1513L18.1529 18.1513L17.4766 17.4147ZM17.2793 17.5846L17.8867 18.379L17.8946 18.373L17.9023 18.3668L17.2793 17.5846ZM17.1631 17.6735L17.7539 18.4803L17.7623 18.4742L17.7705 18.4678L17.1631 17.6735ZM17.0635 17.7438L17.626 18.5706L17.626 18.5706L17.0635 17.7438ZM17.0205 17.7721L16.4703 16.9371L16.4703 16.9371L17.0205 17.7721ZM16.9297 17.8297L17.4534 18.6816L17.4534 18.6816L16.9297 17.8297ZM16.875 17.8639L16.3676 17.0022L16.3676 17.0022L16.875 17.8639ZM16.7676 17.9235L17.2427 18.8034L17.2427 18.8034L16.7676 17.9235ZM16.7344 17.942L16.2695 17.0567L16.2695 17.0567L16.7344 17.942ZM16.6035 18.0065L17.0278 18.912L17.0278 18.912L16.6035 18.0065ZM16.5801 18.0172L16.1632 17.1083L16.1632 17.1083L16.5801 18.0172ZM16.459 18.069L16.8372 18.9947L16.8372 18.9947L16.459 18.069ZM16.4209 18.0856L16.0552 17.1548L16.0552 17.1548L16.4209 18.0856ZM16.1016 18.192L16.3192 19.1681L16.3397 19.1635L16.36 19.1581L16.1016 18.192ZM15.8125 18.2565L16.0049 19.2378L16.0176 19.2353L16.0301 19.2325L15.8125 18.2565ZM15.457 18.3239L15.6506 19.305L15.6518 19.3047L15.457 18.3239ZM14.9521 18.4586L14.6028 17.5217L14.6026 17.5217L14.9521 18.4586ZM14.5996 18.6452L14.0176 17.832L12.0221 19.2603L14.4475 19.6335L14.5996 18.6452ZM14.8711 18.8707L15.847 19.089L15.8476 19.0863L14.8711 18.8707ZM14.4551 20.3952L13.4924 20.1244L13.4795 20.1704L13.471 20.2174L14.4551 20.3952ZM13.8477 20.6227L13.7295 21.6157L13.7296 21.6157L13.8477 20.6227ZM10.9561 20.0934L10.7315 21.0679L10.7463 21.0713L10.7613 21.0743L10.9561 20.0934ZM10.6035 19.8063H9.60351L9.60352 19.8077L10.6035 19.8063ZM10.7021 18.2233L11.6996 18.2947L11.7017 18.2658L11.7021 18.2367L10.7021 18.2233ZM10.9697 18.0914L11.1585 17.1094L11.1582 17.1094L10.9697 18.0914ZM11.0186 18.0983L10.8503 19.084L12.7684 19.4115L11.918 17.6613L11.0186 18.0983ZM10.8818 17.8678L11.6916 17.281L11.6762 17.2598L11.6597 17.2393L10.8818 17.8678ZM10.7832 17.7457L11.561 17.1173L11.5464 17.0991L11.5309 17.0817L10.7832 17.7457ZM9.83105 16.9606L9.19012 17.7283L9.19848 17.7351L9.83105 16.9606ZM9.47363 16.6178L10.2112 15.9426L10.2111 15.9425L9.47363 16.6178ZM9.41895 16.5553L8.66695 17.2145L8.66703 17.2146L9.41895 16.5553ZM9.30762 16.4245L10.0878 15.7989L10.0877 15.7988L9.30762 16.4245ZM9.27148 16.3776L8.48209 16.9915L8.48218 16.9916L9.27148 16.3776ZM9.1582 16.2252L9.97541 15.6489L9.97532 15.6488L9.1582 16.2252ZM9.12012 16.1696L8.29365 16.7326L8.29373 16.7327L9.12012 16.1696ZM9.01855 16.0123L9.86911 15.4865L9.86902 15.4863L9.01855 16.0123ZM8.98926 15.9655L8.13204 16.4804L8.13212 16.4806L8.98926 15.9655ZM8.88477 15.7819L9.76566 15.3086L9.76559 15.3084L8.88477 15.7819ZM8.8584 15.7311L7.97156 16.1932L7.97163 16.1933L8.8584 15.7311ZM8.78809 15.5914L9.69018 15.1599L9.69012 15.1598L8.78809 15.5914ZM8.74023 15.4879L7.82787 15.8973L7.82793 15.8975L8.74023 15.4879ZM8.68262 15.3532L9.60715 14.9721L9.60709 14.9719L8.68262 15.3532ZM8.64355 15.2545L7.7109 15.6153L7.71095 15.6154L8.64355 15.2545ZM8.5918 15.1149L9.53493 14.7825L9.53489 14.7824L8.5918 15.1149ZM8.55762 15.0163L7.60775 15.3289L7.60779 15.329L8.55762 15.0163ZM8.51562 14.8815L9.47382 14.5954L9.47379 14.5953L8.51562 14.8815ZM8.48535 14.7789L7.52141 15.0451L7.52144 15.0452L8.48535 14.7789ZM8.44434 14.6159L9.41636 14.381L9.41634 14.3809L8.44434 14.6159ZM8.42578 14.5416L7.45044 14.7624L7.45046 14.7624L8.42578 14.5416ZM8.38965 14.3649L9.37192 14.1774L9.3719 14.1773L8.38965 14.3649ZM8.375 14.2877L7.39009 14.4608L7.3901 14.4609L8.375 14.2877ZM8.34766 14.111L9.33776 13.9707L9.33776 13.9706L8.34766 14.111ZM8.33496 14.028L7.3428 14.1529L7.34281 14.153L8.33496 14.028ZM8.2959 13.526L7.29596 13.5373L7.29608 13.5481L7.29644 13.5589L8.2959 13.526ZM8.29297 13.2653L7.29313 13.2473L7.29287 13.2619L7.29303 13.2765L8.29297 13.2653ZM8.36035 12.5055L7.37275 12.3485L7.37274 12.3486L8.36035 12.5055ZM8.375 12.4108L9.35961 12.5855L9.35962 12.5855L8.375 12.4108ZM8.39258 12.3209L7.41115 12.1291L7.41114 12.1292L8.39258 12.3209ZM8.41602 12.2067L9.39292 12.4204L9.39293 12.4203L8.41602 12.2067ZM8.44238 12.0934L7.47055 11.8577L7.47054 11.8578L8.44238 12.0934ZM8.46289 12.0114L9.43067 12.2632L9.43068 12.2631L8.46289 12.0114ZM8.49805 11.8844L7.5372 11.6073L7.53719 11.6074L8.49805 11.8844ZM8.52246 11.8024L9.47837 12.0961L9.47838 12.096L8.52246 11.8024ZM8.7168 11.2799L7.80222 10.8755L7.8022 10.8756L8.7168 11.2799ZM8.74219 11.2243L9.65117 11.6411L9.65119 11.641L8.74219 11.2243ZM8.79785 11.1081L7.90141 10.6649L7.90139 10.6649L8.79785 11.1081ZM8.84863 11.0084L9.73333 11.4746L9.73336 11.4746L8.84863 11.0084ZM8.89648 10.9186L8.0232 10.4314L8.02317 10.4314L8.89648 10.9186ZM8.94727 10.8327L9.80867 11.3406L9.80869 11.3405L8.94727 10.8327ZM9.52051 10.0807L10.2319 10.7835L10.2349 10.7804L9.52051 10.0807ZM9.6123 9.99282L8.92268 9.26865L8.92259 9.26873L9.6123 9.99282ZM9.68164 9.92641L10.3522 10.6682L10.3523 10.6681L9.68164 9.92641ZM9.76172 9.85805L9.11225 9.09766L9.11217 9.09773L9.76172 9.85805ZM9.86133 9.77407L10.4843 10.5563L10.4844 10.5562L9.86133 9.77407ZM9.93555 9.7184L9.3315 8.92146L9.33141 8.92152L9.93555 9.7184ZM10.042 9.6393L10.6189 10.4561L10.6189 10.4561L10.042 9.6393ZM10.1084 9.5934L9.54809 8.76512L9.54802 8.76516L10.1084 9.5934ZM10.2305 9.51332L10.761 10.361L10.761 10.361L10.2305 9.51332ZM10.2949 9.47328L9.77985 8.61614L9.7798 8.61617L10.2949 9.47328ZM10.457 9.38149L10.9347 10.26L10.9347 10.26L10.457 9.38149ZM10.4814 9.36782L10.0094 8.48626L10.0093 8.48628L10.4814 9.36782ZM10.6465 9.28383L11.0822 10.1839L11.0822 10.1839L10.6465 9.28383ZM10.7002 9.25746L10.276 8.35189L10.276 8.3519L10.7002 9.25746ZM11.1035 9.09047L10.7603 8.15122L10.7603 8.15123L11.1035 9.09047ZM11.2412 9.0436L11.5588 9.99181L11.5589 9.9918L11.2412 9.0436ZM11.3135 9.01821L11.009 8.06568L11.009 8.0657L11.3135 9.01821ZM11.4189 8.98598L11.7048 9.94426L11.7048 9.94424L11.4189 8.98598ZM11.5654 8.94399L11.3046 7.9786L11.3046 7.97861L11.5654 8.94399ZM11.6113 8.93227L11.8645 9.89968L11.8646 9.89967L11.6113 8.93227ZM11.7432 8.90004L11.5114 7.92727L11.5113 7.92729L11.7432 8.90004ZM12.0967 8.82582L12.2744 9.80991L12.2744 9.80991L12.0967 8.82582ZM12.1465 8.81703L11.9761 7.83166L11.976 7.83167L12.1465 8.81703ZM13.0049 8.71938L13.0635 9.71766C13.5921 9.68662 14.1249 9.71207 14.6305 9.8046L14.8105 8.82094L14.9906 7.83728C14.3079 7.71234 13.6132 7.68193 12.9463 7.7211L13.0049 8.71938ZM14.8105 8.82094L14.6306 9.80462C14.9661 9.86597 15.2866 9.95687 15.5852 10.0783L15.9619 9.152L16.3387 8.22568C15.9008 8.0476 15.4469 7.92075 14.9905 7.83726L14.8105 8.82094ZM15.9619 9.152L15.585 10.0782C16.0313 10.2599 16.4251 10.5092 16.7503 10.8331L17.4561 10.1247L18.1618 9.41619C17.6246 8.88103 16.9978 8.49389 16.3388 8.22575L15.9619 9.152ZM17.4561 10.1247L16.7522 10.835C17.018 11.0983 17.2409 11.4145 17.4169 11.7707L18.3135 11.3278L19.21 10.8848C18.9454 10.3493 18.5972 9.84764 18.1599 9.4143L17.4561 10.1247ZM18.3135 11.3278L17.4169 11.7707C17.4447 11.8269 17.4723 11.8872 17.5007 11.9526L18.418 11.5543L19.3352 11.1561C19.2973 11.0687 19.2558 10.9775 19.21 10.8849L18.3135 11.3278ZM18.418 11.5543L17.5007 11.9526C17.5534 12.074 17.6011 12.2008 17.6441 12.3326L18.5947 12.0221L19.5453 11.7116C19.4845 11.5256 19.415 11.3397 19.3352 11.156L18.418 11.5543ZM18.5947 12.0221L17.6441 12.3325C17.6674 12.4037 17.6873 12.4683 17.7043 12.5296L18.668 12.2623L19.6316 11.9951C19.6038 11.8949 19.574 11.7995 19.5453 11.7117L18.5947 12.0221ZM18.668 12.2623L17.7044 12.5296C17.8152 12.9292 17.8743 13.3501 17.881 13.7704L18.8809 13.7545L19.8807 13.7387C19.8715 13.1545 19.7895 12.5643 19.6316 11.995L18.668 12.2623ZM18.8809 13.7545L17.881 13.7693C17.8824 13.8688 17.881 13.9688 17.8769 14.0692L18.876 14.111L19.8751 14.1528C19.8808 14.0155 19.8828 13.8777 19.8807 13.7397L18.8809 13.7545ZM18.876 14.111L17.8768 14.0693C17.856 14.57 17.763 15.0534 17.5953 15.4886L18.5283 15.8483L19.4614 16.208C19.7174 15.5439 19.8464 14.842 19.8751 14.1526L18.876 14.111ZM18.5283 15.8483L17.5953 15.4885C17.528 15.663 17.4496 15.8282 17.3598 15.9829L18.2246 16.485L19.0894 16.9871C19.236 16.7347 19.359 16.4735 19.4614 16.208L18.5283 15.8483ZM18.2246 16.485L17.3598 15.9829C17.3018 16.0828 17.2337 16.1839 17.156 16.2868L17.9541 16.8893L18.7522 17.4918C18.87 17.3357 18.9846 17.1676 19.0894 16.9871L18.2246 16.485ZM17.9541 16.8893L17.156 16.2868C17.1506 16.294 17.1461 16.2999 17.1421 16.3051L17.9355 16.9137L18.729 17.5223C18.7374 17.5113 18.7453 17.5009 18.7522 17.4918L17.9541 16.8893ZM17.9355 16.9137L17.1421 16.3051C17.1022 16.3571 17.0572 16.411 17.0059 16.4688L17.7539 17.1325L18.5019 17.7961C18.5764 17.7122 18.6534 17.621 18.729 17.5223L17.9355 16.9137ZM17.7539 17.1325L17.0059 16.4688C16.9851 16.4923 16.9827 16.4951 16.9761 16.5024L17.7139 17.1774L18.4517 17.8524C18.4721 17.8301 18.4961 17.8027 18.5019 17.7961L17.7539 17.1325ZM17.7139 17.1774L16.9761 16.5024C16.9329 16.5496 16.8859 16.5971 16.8348 16.6457L17.5234 17.3707L18.2121 18.0958C18.292 18.0199 18.3725 17.939 18.4517 17.8524L17.7139 17.1774ZM17.5234 17.3707L16.8348 16.6457C16.82 16.6597 16.8095 16.6696 16.8003 16.6781L17.4766 17.4147L18.1529 18.1513C18.1752 18.1308 18.1958 18.1113 18.2121 18.0958L17.5234 17.3707ZM17.4766 17.4147L16.8003 16.6781C16.748 16.726 16.7009 16.7669 16.6563 16.8024L17.2793 17.5846L17.9023 18.3668C17.9933 18.2943 18.0769 18.2211 18.1529 18.1513L17.4766 17.4147ZM17.2793 17.5846L16.6718 16.7903L16.5556 16.8791L17.1631 17.6735L17.7705 18.4678L17.8867 18.379L17.2793 17.5846ZM17.1631 17.6735L16.5723 16.8666C16.5489 16.8838 16.5251 16.9006 16.5009 16.917L17.0635 17.7438L17.626 18.5706C17.669 18.5413 17.7116 18.5113 17.7539 18.4803L17.1631 17.6735ZM17.0635 17.7438L16.5009 16.917C16.5015 16.9167 16.5003 16.9174 16.4948 16.9211C16.4917 16.9231 16.4894 16.9246 16.4848 16.9276C16.4808 16.9302 16.4758 16.9335 16.4703 16.9371L17.0205 17.7721L17.5707 18.6071C17.5762 18.6035 17.5777 18.6026 17.5893 18.595C17.5981 18.5892 17.6113 18.5806 17.626 18.5706L17.0635 17.7438ZM17.0205 17.7721L16.4703 16.9371C16.4515 16.9495 16.4305 16.9627 16.4059 16.9779L16.9297 17.8297L17.4534 18.6816C17.4899 18.6592 17.5295 18.6343 17.5707 18.6071L17.0205 17.7721ZM16.9297 17.8297L16.4059 16.9779C16.3957 16.9841 16.3868 16.9898 16.3802 16.994C16.3769 16.9961 16.3738 16.998 16.3714 16.9996C16.3687 17.0013 16.3671 17.0023 16.3653 17.0035C16.3576 17.0084 16.3609 17.0062 16.3676 17.0022L16.875 17.8639L17.3824 18.7256C17.4076 18.7108 17.4291 18.6971 17.4396 18.6904C17.4472 18.6856 17.4477 18.6852 17.4518 18.6826C17.4544 18.681 17.4545 18.681 17.4534 18.6816L16.9297 17.8297ZM16.875 17.8639L16.3676 17.0022C16.3518 17.0115 16.3343 17.021 16.2924 17.0436L16.7676 17.9235L17.2427 18.8034C17.2729 18.7871 17.3276 18.7579 17.3824 18.7256L16.875 17.8639ZM16.7676 17.9235L16.2924 17.0436C16.2818 17.0493 16.2728 17.0544 16.2667 17.0578C16.2613 17.0609 16.2554 17.0643 16.2544 17.0649C16.252 17.0662 16.2531 17.0655 16.2552 17.0644C16.2576 17.0631 16.2626 17.0603 16.2695 17.0567L16.7344 17.942L17.1993 18.8274C17.2117 18.8209 17.2224 18.815 17.2302 18.8106C17.2379 18.8064 17.2445 18.8026 17.2476 18.8008C17.25 18.7994 17.2501 18.7994 17.2514 18.7986C17.2521 18.7982 17.2522 18.7982 17.2518 18.7984C17.2512 18.7987 17.2478 18.8007 17.2427 18.8034L16.7676 17.9235ZM16.7344 17.942L16.2695 17.0567C16.2448 17.0696 16.2159 17.0838 16.1792 17.101L16.6035 18.0065L17.0278 18.912C17.0791 18.888 17.1377 18.8597 17.1993 18.8274L16.7344 17.942ZM16.6035 18.0065L16.1793 17.1009C16.1802 17.1005 16.1801 17.1006 16.1771 17.1019C16.1753 17.1027 16.1744 17.1031 16.1716 17.1044C16.1694 17.1054 16.1664 17.1068 16.1632 17.1083L16.5801 18.0172L16.997 18.9262C16.9995 18.925 17 18.9248 17.0065 18.9218C17.0113 18.9196 17.019 18.9161 17.0278 18.912L16.6035 18.0065ZM16.5801 18.0172L16.1632 17.1083C16.1435 17.1173 16.1194 17.1275 16.0808 17.1433L16.459 18.069L16.8372 18.9947C16.8799 18.9773 16.9367 18.9538 16.997 18.9262L16.5801 18.0172ZM16.459 18.069L16.0808 17.1433C16.0651 17.1497 16.052 17.1554 16.0433 17.1593C16.0389 17.1612 16.0351 17.1629 16.0324 17.1641C16.0302 17.1652 16.0272 17.1665 16.0267 17.1667C16.0239 17.168 16.0265 17.1668 16.0306 17.165C16.035 17.1631 16.0437 17.1594 16.0552 17.1548L16.4209 18.0856L16.7865 19.0163C16.8045 19.0093 16.8196 19.0029 16.8304 18.9981C16.8408 18.9936 16.8497 18.9896 16.8532 18.988C16.8586 18.9855 16.857 18.9863 16.8555 18.9869C16.8532 18.9879 16.8465 18.9909 16.8372 18.9947L16.459 18.069ZM16.4209 18.0856L16.0552 17.1548C15.9782 17.1851 15.9082 17.2086 15.8431 17.226L16.1016 18.192L16.36 19.1581C16.5121 19.1174 16.6546 19.0682 16.7866 19.0163L16.4209 18.0856ZM16.1016 18.192L15.8839 17.216L15.5949 17.2805L15.8125 18.2565L16.0301 19.2325L16.3192 19.1681L16.1016 18.192ZM15.8125 18.2565L15.6201 17.2752C15.5857 17.2819 15.3257 17.3304 15.2623 17.343L15.457 18.3239L15.6518 19.3047C15.8243 19.2705 15.8028 19.2774 16.0049 19.2378L15.8125 18.2565ZM15.457 18.3239L15.2634 17.3428C15.0718 17.3806 14.8407 17.433 14.6028 17.5217L14.9521 18.4586L15.3015 19.3956C15.3898 19.3627 15.4982 19.335 15.6506 19.305L15.457 18.3239ZM14.9521 18.4586L14.6026 17.5217C14.4046 17.5956 14.2041 17.6985 14.0176 17.832L14.5996 18.6452L15.1817 19.4583C15.2142 19.435 15.2562 19.4125 15.3017 19.3955L14.9521 18.4586ZM14.5996 18.6452L14.4475 19.6335C14.4468 19.6334 14.435 19.6317 14.4147 19.6258C14.3982 19.6209 14.3451 19.6046 14.2768 19.5636C14.2106 19.5239 14.0803 19.431 13.983 19.2539C13.8732 19.0543 13.8545 18.8369 13.8946 18.6552L14.8711 18.8707L15.8476 19.0863C15.9049 18.8267 15.8751 18.5443 15.7356 18.2905C15.6085 18.0592 15.4297 17.923 15.3057 17.8486C15.0757 17.7106 14.8405 17.6705 14.7517 17.6568L14.5996 18.6452ZM14.8711 18.8707L13.8952 18.6525C13.8775 18.7316 13.7831 19.0794 13.6808 19.449C13.6322 19.6246 13.5851 19.7936 13.5501 19.9187C13.5326 19.9812 13.5182 20.0327 13.5081 20.0686C13.5031 20.0865 13.4991 20.1005 13.4965 20.11C13.4951 20.1148 13.4941 20.1184 13.4934 20.1208C13.4931 20.122 13.4928 20.1229 13.4927 20.1235C13.4926 20.1238 13.4925 20.1241 13.4925 20.1242C13.4925 20.1243 13.4924 20.1243 13.4924 20.1244C13.4924 20.1244 13.4924 20.1244 13.4924 20.1244C13.4924 20.1244 13.4924 20.1244 14.4551 20.3952C15.4177 20.6659 15.4177 20.6659 15.4177 20.6659C15.4177 20.6659 15.4177 20.6659 15.4177 20.6658C15.4178 20.6658 15.4178 20.6657 15.4178 20.6656C15.4179 20.6655 15.4179 20.6652 15.418 20.6649C15.4182 20.6642 15.4185 20.6633 15.4188 20.662C15.4195 20.6595 15.4206 20.6558 15.4219 20.6509C15.4247 20.6412 15.4287 20.627 15.4338 20.6088C15.4439 20.5725 15.4585 20.5205 15.4762 20.4574C15.5115 20.3312 15.5591 20.1604 15.6083 19.9825C15.7017 19.6451 15.8153 19.2308 15.847 19.089L14.8711 18.8707ZM14.4551 20.3952L13.471 20.2174C13.4971 20.0731 13.5675 19.8827 13.7455 19.7451C13.9323 19.6007 14.0709 19.6422 13.9657 19.6297L13.8477 20.6227L13.7296 21.6157C14.1743 21.6686 14.6159 21.6001 14.9686 21.3275C15.3125 21.0617 15.4117 20.7248 15.4392 20.5729L14.4551 20.3952ZM13.8477 20.6227L13.9658 19.6297C13.4608 19.5696 11.2033 19.123 11.1508 19.1126L10.9561 20.0934L10.7613 21.0743C10.7739 21.0767 11.3611 21.1932 12.0157 21.3174C12.65 21.4378 13.4089 21.5775 13.7295 21.6157L13.8477 20.6227ZM10.9561 20.0934C11.1806 19.1189 11.1809 19.119 11.1812 19.1191C11.1813 19.1191 11.1815 19.1191 11.1817 19.1192C11.182 19.1193 11.1824 19.1193 11.1827 19.1194C11.1834 19.1196 11.184 19.1197 11.1847 19.1199C11.1859 19.1202 11.1872 19.1205 11.1883 19.1208C11.1906 19.1213 11.1927 19.1218 11.1946 19.1223C11.1983 19.1232 11.2013 19.124 11.2036 19.1246C11.208 19.1258 11.2107 19.1267 11.2126 19.1273C11.2128 19.1274 11.2235 19.1306 11.243 19.1408C11.2556 19.1474 11.3244 19.1832 11.4005 19.2674C11.4859 19.3618 11.6032 19.5464 11.6035 19.8049L10.6035 19.8063L9.60352 19.8077C9.6045 20.5302 10.2006 20.8527 10.3168 20.9134C10.4244 20.9696 10.5231 21.006 10.5895 21.0277C10.6243 21.0392 10.6546 21.048 10.6783 21.0544C10.6902 21.0577 10.7007 21.0604 10.7096 21.0626C10.7141 21.0637 10.7181 21.0647 10.7218 21.0656C10.7236 21.066 10.7253 21.0664 10.7269 21.0668C10.7277 21.067 10.7285 21.0672 10.7293 21.0673C10.7297 21.0674 10.73 21.0675 10.7304 21.0676C10.7306 21.0676 10.7308 21.0677 10.7309 21.0677C10.7312 21.0678 10.7315 21.0679 10.9561 20.0934ZM10.6035 19.8063H11.6035C11.6035 19.8069 11.6039 19.7844 11.6067 19.7261C11.6091 19.6741 11.6127 19.6076 11.6172 19.5304C11.6262 19.3763 11.6384 19.188 11.6506 19.004C11.6629 18.8204 11.6751 18.643 11.6843 18.5114C11.6889 18.4456 11.6927 18.3913 11.6954 18.3535C11.6967 18.3347 11.6978 18.3199 11.6985 18.3099C11.6989 18.3049 11.6991 18.3011 11.6993 18.2985C11.6994 18.2972 11.6995 18.2963 11.6995 18.2956C11.6995 18.2953 11.6996 18.2951 11.6996 18.2949C11.6996 18.2949 11.6996 18.2948 11.6996 18.2948C11.6996 18.2948 11.6996 18.2947 11.6996 18.2947C11.6996 18.2947 11.6996 18.2947 10.7021 18.2233C9.7047 18.1518 9.7047 18.1518 9.7047 18.1519C9.7047 18.1519 9.7047 18.1519 9.7047 18.1519C9.70469 18.152 9.70469 18.152 9.70468 18.1521C9.70467 18.1523 9.70465 18.1526 9.70463 18.1529C9.70458 18.1536 9.7045 18.1546 9.70441 18.156C9.70422 18.1586 9.70394 18.1626 9.70357 18.1677C9.70284 18.178 9.70177 18.193 9.70041 18.2122C9.6977 18.2505 9.69382 18.3054 9.68917 18.3719C9.67988 18.5049 9.66747 18.6846 9.65505 18.871C9.63199 19.217 9.60352 19.6602 9.60352 19.8063H10.6035ZM10.7021 18.2233L11.7021 18.2367C11.7011 18.309 11.6935 18.5643 11.4865 18.7984C11.3684 18.932 11.2174 19.0199 11.063 19.0591C10.9215 19.095 10.817 19.0804 10.7813 19.0735L10.9697 18.0914L11.1582 17.1094C10.8086 17.0423 10.3318 17.085 9.98818 17.4737C9.71319 17.7847 9.70329 18.1312 9.70224 18.2099L10.7021 18.2233ZM10.9697 18.0914L10.781 19.0735C10.8111 19.0793 10.8358 19.0827 10.8469 19.0841C10.8579 19.0856 10.8695 19.087 10.87 19.087C10.8763 19.0878 10.8653 19.0866 10.8503 19.084L11.0186 18.0983L11.1868 17.1125C11.1509 17.1064 11.121 17.1028 11.1109 17.1016C11.1075 17.1012 11.1075 17.1012 11.1067 17.1011C11.1063 17.1011 11.1082 17.1013 11.1112 17.1017C11.1142 17.1021 11.1199 17.1029 11.1272 17.104C11.1345 17.1051 11.1453 17.1069 11.1585 17.1094L10.9697 18.0914ZM11.0186 18.0983L11.918 17.6613C11.8571 17.536 11.7827 17.4067 11.6916 17.281L10.8818 17.8678L10.0721 18.4546C10.0853 18.4729 10.1017 18.4994 10.1191 18.5353L11.0186 18.0983ZM10.8818 17.8678L11.6597 17.2393L11.561 17.1173L10.7832 17.7457L10.0054 18.3742L10.104 18.4963L10.8818 17.8678ZM10.7832 17.7457L11.5309 17.0817C11.3294 16.8548 11.1105 16.6774 10.9298 16.5394C10.7189 16.3784 10.6097 16.3054 10.4636 16.1861L9.83105 16.9606L9.19848 17.7351C9.36974 17.875 9.59908 18.0397 9.71623 18.1291C9.86349 18.2415 9.96208 18.3271 10.0355 18.4098L10.7832 17.7457ZM9.83105 16.9606L10.472 16.193C10.3821 16.1179 10.2951 16.0342 10.2112 15.9426L9.47363 16.6178L8.73606 17.2931C8.87484 17.4447 9.02594 17.5911 9.19015 17.7282L9.83105 16.9606ZM9.47363 16.6178L10.2111 15.9425C10.2116 15.9429 10.2099 15.9411 10.2026 15.9327C10.1981 15.9275 10.196 15.9251 10.1896 15.9177C10.1845 15.9117 10.178 15.9042 10.1709 15.8961L9.41895 16.5553L8.66703 17.2146C8.67324 17.2217 8.67579 17.2247 8.68967 17.2408C8.70048 17.2533 8.717 17.2723 8.73613 17.2932L9.47363 16.6178ZM9.41895 16.5553L10.1709 15.8961C10.1311 15.8507 10.1077 15.8238 10.0878 15.7989L9.30762 16.4245L8.52743 17.05C8.5792 17.1146 8.63131 17.1738 8.66695 17.2145L9.41895 16.5553ZM9.30762 16.4245L10.0877 15.7988C10.0899 15.8015 10.0902 15.802 10.0851 15.7953C10.0839 15.7937 10.0827 15.7922 10.081 15.79C10.0795 15.788 10.0776 15.7855 10.0757 15.7829C10.0717 15.7778 10.0666 15.771 10.0608 15.7636L9.27148 16.3776L8.48218 16.9916C8.48405 16.994 8.48484 16.9951 8.49386 17.0069C8.5007 17.0159 8.51304 17.0321 8.52751 17.0501L9.30762 16.4245ZM9.27148 16.3776L10.0609 15.7637C10.0293 15.7231 10.001 15.6852 9.97541 15.6489L9.1582 16.2252L8.341 16.8016C8.38843 16.8688 8.43602 16.9322 8.48209 16.9915L9.27148 16.3776ZM9.1582 16.2252L9.97532 15.6488C9.96855 15.6392 9.96714 15.6367 9.9465 15.6065L9.12012 16.1696L8.29373 16.7327C8.29843 16.7396 8.32194 16.7746 8.34108 16.8017L9.1582 16.2252ZM9.12012 16.1696L9.94659 15.6066C9.92221 15.5708 9.89687 15.5314 9.86911 15.4865L9.01855 16.0123L8.168 16.5382C8.20597 16.5997 8.24783 16.6653 8.29365 16.7326L9.12012 16.1696ZM9.01855 16.0123L9.86902 15.4863C9.86433 15.4787 9.86007 15.472 9.85678 15.4667C9.85422 15.4627 9.84996 15.456 9.84888 15.4543C9.84456 15.4474 9.84485 15.4478 9.84639 15.4504L8.98926 15.9655L8.13212 16.4806C8.14316 16.4989 8.15325 16.5149 8.15879 16.5237C8.16606 16.5352 8.16676 16.5362 8.16808 16.5384L9.01855 16.0123ZM8.98926 15.9655L9.84648 15.4505C9.81803 15.4032 9.79109 15.3559 9.76566 15.3086L8.88477 15.7819L8.00387 16.2552C8.04523 16.3322 8.08806 16.4072 8.13204 16.4804L8.98926 15.9655ZM8.88477 15.7819L9.76559 15.3084C9.76568 15.3086 9.76539 15.3081 9.76457 15.3065C9.76371 15.3049 9.76257 15.3027 9.76082 15.2992C9.75995 15.2975 9.75904 15.2958 9.75794 15.2936C9.7569 15.2916 9.75565 15.2892 9.75438 15.2867C9.75183 15.2817 9.74865 15.2756 9.74516 15.2689L8.8584 15.7311L7.97163 16.1933C7.97434 16.1985 7.97589 16.2016 7.98219 16.2138C7.98722 16.2236 7.99498 16.2386 8.00394 16.2553L8.88477 15.7819ZM8.8584 15.7311L9.74524 15.269C9.72308 15.2265 9.70543 15.1918 9.69018 15.1599L8.78809 15.5914L7.88599 16.023C7.91579 16.0853 7.9456 16.1433 7.97156 16.1932L8.8584 15.7311ZM8.78809 15.5914L9.69012 15.1598C9.67814 15.1347 9.66577 15.1079 9.65254 15.0784L8.74023 15.4879L7.82793 15.8975C7.84587 15.9374 7.86524 15.9796 7.88605 16.0231L8.78809 15.5914ZM8.74023 15.4879L9.65259 15.0785C9.63853 15.0472 9.62389 15.0127 9.60715 14.9721L8.68262 15.3532L7.75809 15.7343C7.77863 15.7841 7.80197 15.8396 7.82787 15.8973L8.74023 15.4879ZM8.68262 15.3532L9.60709 14.9719C9.59826 14.9505 9.589 14.9268 9.57616 14.8936L8.64355 15.2545L7.71095 15.6154C7.72366 15.6483 7.74002 15.6905 7.75814 15.7344L8.68262 15.3532ZM8.64355 15.2545L9.57621 14.8938C9.56122 14.855 9.5475 14.8181 9.53493 14.7825L8.5918 15.1149L7.64866 15.4473C7.66915 15.5054 7.6901 15.5615 7.7109 15.6153L8.64355 15.2545ZM8.5918 15.1149L9.53489 14.7824C9.52107 14.7432 9.51415 14.7238 9.50745 14.7035L8.55762 15.0163L7.60779 15.329C7.62287 15.3748 7.6394 15.421 7.6487 15.4474L8.5918 15.1149ZM8.55762 15.0163L9.50748 14.7036C9.4968 14.6712 9.48592 14.6359 9.47382 14.5954L8.51562 14.8815L7.55743 15.1676C7.57228 15.2173 7.58903 15.272 7.60775 15.3289L8.55762 15.0163ZM8.51562 14.8815L9.47379 14.5953C9.4593 14.5468 9.45507 14.5337 9.44926 14.5127L8.48535 14.7789L7.52144 15.0452C7.53462 15.0929 7.55156 15.1479 7.55746 15.1677L8.51562 14.8815ZM8.48535 14.7789L9.44929 14.5128C9.43973 14.4782 9.43124 14.4426 9.41636 14.381L8.44434 14.6159L7.47231 14.8507C7.48378 14.8982 7.50116 14.9717 7.52141 15.0451L8.48535 14.7789ZM8.44434 14.6159L9.41634 14.3809C9.41341 14.3688 9.41065 14.3579 9.40849 14.3494C9.4066 14.342 9.40417 14.3327 9.40321 14.3289C9.40027 14.3176 9.40037 14.3176 9.4011 14.3209L8.42578 14.5416L7.45046 14.7624C7.45683 14.7906 7.4632 14.8153 7.46664 14.8286C7.47113 14.846 7.47166 14.848 7.47233 14.8508L8.44434 14.6159ZM8.42578 14.5416L9.40112 14.3209C9.39178 14.2797 9.38281 14.2345 9.37192 14.1774L8.38965 14.3649L7.40738 14.5524C7.41906 14.6135 7.43324 14.6864 7.45044 14.7624L8.42578 14.5416ZM8.38965 14.3649L9.3719 14.1773C9.36402 14.136 9.36281 14.1312 9.3599 14.1146L8.375 14.2877L7.3901 14.4609C7.39625 14.4959 7.40546 14.5423 7.40739 14.5524L8.38965 14.3649ZM8.375 14.2877L9.35991 14.1147C9.35261 14.0731 9.34586 14.0278 9.33776 13.9707L8.34766 14.111L7.35755 14.2513C7.36619 14.3123 7.37675 14.3849 7.39009 14.4608L8.375 14.2877ZM8.34766 14.111L9.33776 13.9706C9.33568 13.956 9.33365 13.9429 9.33206 13.9329C9.33063 13.9239 9.3289 13.9134 9.3282 13.9091C9.32607 13.896 9.32644 13.8976 9.32712 13.903L8.33496 14.028L7.34281 14.153C7.34698 14.1862 7.35173 14.2154 7.3541 14.2299C7.35564 14.2394 7.35618 14.2427 7.35696 14.2475C7.35757 14.2513 7.35767 14.2521 7.35756 14.2513L8.34766 14.111ZM8.33496 14.028L9.32712 13.903C9.31033 13.7697 9.29996 13.6329 9.29536 13.4931L8.2959 13.526L7.29644 13.5589C7.30287 13.7543 7.3176 13.9529 7.3428 14.1529L8.33496 14.028ZM8.2959 13.526L9.29584 13.5148L9.29291 13.254L8.29297 13.2653L7.29303 13.2765L7.29596 13.5373L8.2959 13.526ZM8.29297 13.2653L9.29281 13.2833C9.29652 13.0773 9.31514 12.869 9.34796 12.6625L8.36035 12.5055L7.37274 12.3486C7.32571 12.6446 7.29857 12.9457 7.29313 13.2473L8.29297 13.2653ZM8.36035 12.5055L9.34795 12.6625C9.35159 12.6396 9.35525 12.6142 9.35671 12.6044C9.35769 12.5978 9.35835 12.5934 9.35888 12.5901C9.35939 12.5868 9.35962 12.5855 9.35961 12.5855L8.375 12.4108L7.39039 12.236C7.38496 12.2666 7.38083 12.2942 7.37822 12.3118C7.375 12.3336 7.37413 12.3398 7.37275 12.3485L8.36035 12.5055ZM8.375 12.4108L9.35962 12.5855C9.36323 12.5651 9.36321 12.568 9.37402 12.5127L8.39258 12.3209L7.41114 12.1292C7.41024 12.1337 7.39743 12.1963 7.39038 12.2361L8.375 12.4108ZM8.39258 12.3209L9.37401 12.5127C9.38084 12.4778 9.3869 12.4479 9.39292 12.4204L8.41602 12.2067L7.43911 11.993C7.42852 12.0414 7.41923 12.0877 7.41115 12.1291L8.39258 12.3209ZM8.41602 12.2067L9.39293 12.4203C9.39884 12.3933 9.40574 12.364 9.41422 12.329L8.44238 12.0934L7.47054 11.8578C7.46076 11.8981 7.44977 11.9443 7.4391 11.993L8.41602 12.2067ZM8.44238 12.0934L9.41421 12.3291C9.42021 12.3044 9.42553 12.2829 9.43067 12.2632L8.46289 12.0114L7.49511 11.7596C7.48606 11.7943 7.47785 11.8276 7.47055 11.8577L8.44238 12.0934ZM8.46289 12.0114L9.43068 12.2631C9.43845 12.2333 9.44755 12.2009 9.4589 12.1615L8.49805 11.8844L7.53719 11.6074C7.52423 11.6523 7.50946 11.7044 7.4951 11.7596L8.46289 12.0114ZM8.49805 11.8844L9.45889 12.1615C9.46528 12.1393 9.47177 12.1175 9.47837 12.0961L8.52246 11.8024L7.56655 11.5087C7.5564 11.5418 7.54663 11.5746 7.5372 11.6073L8.49805 11.8844ZM8.52246 11.8024L9.47838 12.096C9.52217 11.9534 9.57322 11.8159 9.6314 11.6843L8.7168 11.2799L7.8022 10.8756C7.71059 11.0828 7.63234 11.2945 7.56654 11.5088L8.52246 11.8024ZM8.7168 11.2799L9.63138 11.6843C9.63596 11.674 9.63844 11.6688 9.65117 11.6411L8.74219 11.2243L7.8332 10.8074C7.82894 10.8167 7.81414 10.8486 7.80222 10.8755L8.7168 11.2799ZM8.74219 11.2243L9.65119 11.641C9.66342 11.6144 9.67741 11.5854 9.69432 11.5512L8.79785 11.1081L7.90139 10.6649C7.88025 10.7077 7.85679 10.756 7.83318 10.8075L8.74219 11.2243ZM8.79785 11.1081L9.69429 11.5512C9.70753 11.5244 9.7205 11.499 9.73333 11.4746L8.84863 11.0084L7.96393 10.5423C7.94204 10.5838 7.92123 10.6248 7.90141 10.6649L8.79785 11.1081ZM8.84863 11.0084L9.73336 11.4746C9.75569 11.4322 9.76103 11.4215 9.7698 11.4058L8.89648 10.9186L8.02317 10.4314C7.99889 10.475 7.97323 10.5246 7.96391 10.5423L8.84863 11.0084ZM8.89648 10.9186L9.76977 11.4058C9.76977 11.4058 9.77041 11.4047 9.77202 11.4019C9.77368 11.3991 9.77591 11.3953 9.77925 11.3897C9.78338 11.3828 9.78573 11.379 9.79153 11.3693C9.79633 11.3613 9.8023 11.3514 9.80867 11.3406L8.94727 10.8327L8.08586 10.3247C8.0798 10.335 8.07677 10.3399 8.06399 10.3612C8.0539 10.378 8.03904 10.403 8.0232 10.4314L8.89648 10.9186ZM8.94727 10.8327L9.80869 11.3405C9.93253 11.1305 10.0737 10.9437 10.2319 10.7835L9.52051 10.0807L8.80908 9.37795C8.52237 9.6682 8.28349 9.98954 8.08584 10.3248L8.94727 10.8327ZM9.52051 10.0807L10.2349 10.7804C10.2491 10.766 10.2447 10.7715 10.302 10.7169L9.6123 9.99282L8.92259 9.26873C8.91874 9.2724 8.85137 9.33476 8.80609 9.38099L9.52051 10.0807ZM9.6123 9.99282L10.3019 10.717C10.3117 10.7077 10.3205 10.6991 10.3274 10.6925C10.3308 10.6891 10.3341 10.6859 10.3368 10.6832C10.3397 10.6804 10.342 10.6782 10.3442 10.6761C10.3535 10.667 10.3544 10.6663 10.3522 10.6682L9.68164 9.92641L9.01104 9.18459C8.98518 9.20797 8.96305 9.22938 8.94942 9.24265C8.93175 9.25984 8.92912 9.26251 8.92268 9.26865L9.6123 9.99282ZM9.68164 9.92641L10.3523 10.6681C10.352 10.6685 10.3545 10.6661 10.3652 10.6572C10.3713 10.6521 10.3753 10.6487 10.3841 10.6413C10.3916 10.635 10.4011 10.6271 10.4113 10.6184L9.76172 9.85805L9.11217 9.09773C9.10235 9.10612 9.09871 9.10903 9.07772 9.12668C9.06153 9.14031 9.03737 9.16078 9.01095 9.18467L9.68164 9.92641ZM9.76172 9.85805L10.4112 10.6184C10.4596 10.5771 10.4683 10.5691 10.4843 10.5563L9.86133 9.77407L9.23831 8.99185C9.18653 9.0331 9.12998 9.08252 9.11225 9.09766L9.76172 9.85805ZM9.86133 9.77407L10.4844 10.5562C10.4811 10.5589 10.481 10.5588 10.4914 10.5511C10.4938 10.5493 10.4963 10.5475 10.4996 10.5451C10.5027 10.5428 10.5065 10.54 10.5104 10.5371C10.5183 10.5313 10.5285 10.5238 10.5397 10.5153L9.93555 9.7184L9.33141 8.92152C9.3264 8.92532 9.32411 8.92693 9.30518 8.94087C9.29068 8.95156 9.26576 8.96999 9.23823 8.99192L9.86133 9.77407ZM9.93555 9.7184L10.5396 10.5153C10.5815 10.4836 10.6 10.4694 10.6189 10.4561L10.042 9.6393L9.46513 8.82246C9.41178 8.86013 9.36016 8.89973 9.3315 8.92146L9.93555 9.7184ZM10.042 9.6393L10.6189 10.4561C10.6352 10.4446 10.6518 10.4331 10.6688 10.4216L10.1084 9.5934L9.54802 8.76516C9.52039 8.78386 9.49273 8.80296 9.46506 8.82251L10.042 9.6393ZM10.1084 9.5934L10.6687 10.4217C10.7061 10.3964 10.735 10.3773 10.761 10.361L10.2305 9.51332L9.69999 8.66563C9.64348 8.70099 9.59134 8.73586 9.54809 8.76512L10.1084 9.5934ZM10.2305 9.51332L10.761 10.361C10.7915 10.3419 10.7987 10.3372 10.81 10.3304L10.2949 9.47328L9.7798 8.61617C9.7478 8.6354 9.71233 8.6579 9.69993 8.66566L10.2305 9.51332ZM10.2949 9.47328L10.81 10.3304C10.8446 10.3096 10.8841 10.2876 10.9347 10.26L10.457 9.38149L9.97939 8.50293C9.92083 8.53477 9.85165 8.57299 9.77985 8.61614L10.2949 9.47328ZM10.457 9.38149L10.9347 10.26C10.943 10.2555 10.95 10.2516 10.9548 10.2489C10.9592 10.2464 10.9637 10.2439 10.9646 10.2433C10.9665 10.2422 10.9657 10.2427 10.9642 10.2435C10.9625 10.2445 10.9587 10.2466 10.9536 10.2494L10.4814 9.36782L10.0093 8.48628C10.0001 8.49125 9.99216 8.49562 9.98638 8.49886C9.98082 8.50198 9.97596 8.50475 9.97382 8.50597C9.97075 8.50772 9.97113 8.50751 9.97146 8.50732C9.97222 8.50689 9.97515 8.50524 9.97936 8.50295L10.457 9.38149ZM10.4814 9.36782L10.9535 10.2494C10.995 10.2272 11.0379 10.2054 11.0822 10.1839L10.6465 9.28383L10.2107 8.38376C10.1439 8.41613 10.0767 8.45023 10.0094 8.48626L10.4814 9.36782ZM10.6465 9.28383L11.0822 10.1839C11.091 10.1797 11.0988 10.1758 11.1048 10.1728C11.1098 10.1704 11.117 10.1668 11.1193 10.1656C11.1273 10.1616 11.1271 10.1618 11.1244 10.163L10.7002 9.25746L10.276 8.3519C10.2553 8.3616 10.2372 8.37061 10.2273 8.37553C10.2144 8.38196 10.213 8.38266 10.2107 8.38377L10.6465 9.28383ZM10.7002 9.25746L11.1244 10.163C11.2266 10.1152 11.3341 10.0709 11.4468 10.0297L11.1035 9.09047L10.7603 8.15123C10.599 8.21018 10.4369 8.27653 10.276 8.35189L10.7002 9.25746ZM11.1035 9.09047L11.4467 10.0297C11.4753 10.0193 11.4971 10.0125 11.5588 9.99181L11.2412 9.0436L10.9236 8.09538C10.8933 8.10553 10.8228 8.12839 10.7603 8.15122L11.1035 9.09047ZM11.2412 9.0436L11.5589 9.9918C11.5738 9.9868 11.5868 9.98219 11.5966 9.9787C11.6055 9.97552 11.6151 9.972 11.6189 9.97062C11.6308 9.96629 11.6264 9.96802 11.618 9.97072L11.3135 9.01821L11.009 8.0657C10.9762 8.07617 10.9478 8.08655 10.9357 8.09094C10.9183 8.09727 10.9207 8.09636 10.9235 8.0954L11.2412 9.0436ZM11.3135 9.01821L11.6179 9.97073C11.6423 9.96295 11.6685 9.95509 11.7048 9.94426L11.4189 8.98598L11.1331 8.0277C11.0989 8.03789 11.0547 8.05109 11.009 8.06568L11.3135 9.01821ZM11.4189 8.98598L11.7048 9.94424C11.75 9.93075 11.7894 9.91933 11.8263 9.90936L11.5654 8.94399L11.3046 7.97861C11.2433 7.99516 11.1851 8.01218 11.133 8.02772L11.4189 8.98598ZM11.5654 8.94399L11.8262 9.90938C11.8239 9.91 11.8236 9.91006 11.8309 9.90822C11.8335 9.90758 11.8392 9.90617 11.8441 9.90492C11.8496 9.90353 11.8567 9.90174 11.8645 9.89968L11.6113 8.93227L11.3581 7.96485C11.3584 7.96479 11.3578 7.96495 11.3556 7.9655C11.3529 7.96618 11.3509 7.96667 11.3458 7.96795C11.3378 7.96994 11.3222 7.97386 11.3046 7.9786L11.5654 8.94399ZM11.6113 8.93227L11.8646 9.89967C11.8947 9.89179 11.9243 9.88489 11.975 9.8728L11.7432 8.90004L11.5113 7.92729C11.474 7.93618 11.4155 7.94984 11.3581 7.96487L11.6113 8.93227ZM11.7432 8.90004L11.9749 9.87281C12.0755 9.84886 12.1753 9.8278 12.2744 9.80991L12.0967 8.82582L11.919 7.84173C11.7811 7.86664 11.6451 7.89542 11.5114 7.92727L11.7432 8.90004ZM12.0967 8.82582L12.2744 9.80991C12.288 9.80745 12.3021 9.80497 12.3169 9.8024L12.1465 8.81703L11.976 7.83167C11.9576 7.83485 11.9385 7.83821 11.919 7.84174L12.0967 8.82582ZM12.1465 8.81703L12.3169 9.80241C12.5628 9.75987 12.8128 9.73196 13.0618 9.71775L13.0049 8.71938L12.9479 7.721C12.6268 7.73932 12.3009 7.77549 11.9761 7.83166L12.1465 8.81703Z" fill="#EDFF4A" mask="url(#path-1-inside-1_29781_64616)"/>
<path d="M11.3271 18.4545C11.4584 18.1032 11.2958 17.7009 11.0519 17.4263C10.808 17.1516 10.4891 16.96 10.2076 16.7301C9.28208 15.9573 8.82554 14.6864 8.84431 13.4538C8.86307 12.4128 9.21328 11.359 9.93248 10.6309C10.733 9.81344 11.9024 9.48772 13.0219 9.42386C14.4353 9.34083 15.9487 9.65377 16.9681 10.6692C17.7998 11.4931 18.2126 12.7002 18.2314 13.8881C18.2439 14.7311 18.0688 15.5869 17.6498 16.3086C17.2307 17.0303 16.5553 17.6115 15.7673 17.8222C15.4296 17.9116 15.0732 17.9372 14.748 18.0585C14.4228 18.1799 14.1038 18.4417 14.0538 18.7994" fill="#FFC200"/>
<path d="M12.7447 19.6919C11.9671 17.6181 10.9014 14.4397 10.1742 12.3134C10.1526 12.2382 10.167 12.1631 10.203 12.103C10.4406 11.7648 10.6998 11.4793 11.0238 11.2389C12.1903 10.2997 13.4431 11.036 14.0696 12.2307L13.6303 12.2006C13.9039 11.8325 14.2064 11.5094 14.5664 11.2314C16.1864 9.93149 17.1441 11.299 17.3529 13.0121C17.1513 13.6583 16.5824 14.2294 16.2512 14.8305C15.2144 16.4234 14.0624 18.1816 12.9823 19.7294C13.8967 18.0689 14.9552 16.2506 15.9272 14.6126C16.2656 14.049 16.5896 13.478 16.9281 12.922L16.8921 13.0948C16.82 12.6815 16.7192 12.2683 16.5536 11.9076C15.956 10.4725 14.624 11.7799 14.0407 12.5463C13.9327 12.7041 13.6951 12.689 13.6015 12.5162C12.7735 10.9233 11.5495 11.021 10.5558 12.381L10.5846 12.1706C11.2254 14.3346 12.1615 17.5354 12.7303 19.6919H12.7447Z" fill="white"/>
<path d="M10.3984 18.4507C10.3984 18.4507 10.3984 18.247 10.6951 18.304C10.9917 18.3611 14.6222 18.9069 14.6222 18.9069C14.6222 18.9069 15.0672 18.9232 15.0126 19.1676C14.9579 19.4121 14.5519 20.8542 14.5519 20.8542C14.5519 20.8542 14.4973 21.1801 13.8805 21.1067C13.2637 21.0334 10.6794 20.5201 10.6794 20.5201C10.6794 20.5201 10.2891 20.4305 10.2891 20.2024C10.2891 19.9742 10.3984 18.4507 10.3984 18.4507Z" fill="#FF7300"/>
<path d="M14.417 1.64258C14.6821 1.51205 14.9999 1.4715 15.3105 1.51855C15.6247 1.56619 15.9163 1.7031 16.1299 1.90625C16.3381 2.10433 16.5115 2.41246 16.4561 2.77539L16.457 2.77637L16.0615 5.51855L16.0605 5.51758C16.0092 5.88427 15.7556 6.13092 15.4922 6.26074C15.2271 6.39139 14.9094 6.43184 14.5986 6.38477C14.2844 6.33713 13.993 6.20031 13.7793 5.99707C13.571 5.7989 13.3975 5.49107 13.4531 5.12793H13.4512L13.8477 2.38477C13.8994 2.01881 14.1539 1.77224 14.417 1.64258Z" fill="#FFC200" stroke="#EDFF4A"/>
<path d="M4.72559 5.41504C5.02055 5.34473 5.37814 5.38018 5.65039 5.6377L7.70996 7.58398L7.71094 7.58496C7.97623 7.83681 8.0392 8.18363 8.00391 8.47754C7.96823 8.77385 7.83144 9.06727 7.62402 9.30957C7.4142 9.5546 7.13991 9.73456 6.8457 9.80469C6.55046 9.87496 6.19315 9.83831 5.9209 9.58008L3.8623 7.63477L3.86133 7.63379C3.59594 7.38187 3.53203 7.03518 3.56738 6.74121C3.60307 6.44481 3.74072 6.15152 3.94824 5.90918C4.15797 5.66432 4.43156 5.48522 4.72559 5.41504Z" fill="#FFC200" stroke="#EDFF4A"/>
<path d="M20.0771 16.1729C20.3236 16.0639 20.692 16.0056 21.0029 16.2432L22.8896 17.6865C23.1934 17.919 23.2427 18.2835 23.2178 18.5449C23.1913 18.8227 23.0774 19.1099 22.9033 19.3604C22.7276 19.6132 22.494 19.8197 22.2363 19.9336C21.9899 20.0425 21.6215 20.101 21.3105 19.8633L19.4238 18.4209V18.4199C19.1201 18.1874 19.0708 17.8229 19.0957 17.5615C19.1222 17.2837 19.2361 16.9965 19.4102 16.7461C19.5859 16.4933 19.8195 16.2868 20.0771 16.1729Z" fill="#FFC200" stroke="#EDFF4A"/>
<path d="M22.8965 8.10156C23.2424 7.9394 23.5954 8.03243 23.8457 8.19434C24.0973 8.35708 24.2972 8.61506 24.4199 8.91211C24.5424 9.20852 24.5826 9.53055 24.5273 9.82227C24.4733 10.1073 24.3097 10.4265 23.9697 10.5791L23.9707 10.5801L21.4482 11.7266C21.1023 11.8888 20.7503 11.7957 20.5 11.6338C20.2484 11.471 20.0475 11.2141 19.9248 10.917C19.8024 10.6206 19.7622 10.2985 19.8174 10.0068C19.8714 9.722 20.0345 9.40176 20.374 9.24902L22.8965 8.10254V8.10156Z" fill="#FFC200" stroke="#EDFF4A"/>
<path d="M5.50684 13.9229C5.86 13.77 6.20634 13.8909 6.4375 14.0557C6.67524 14.2251 6.86521 14.4832 6.98145 14.7764C7.09811 15.0708 7.13558 15.388 7.08203 15.6738C7.03002 15.9509 6.87175 16.2748 6.53027 16.4248L6.52539 16.4268L4.09961 17.4639L4.09863 17.4629C3.74559 17.6155 3.39906 17.4948 3.16797 17.3301C2.93035 17.1606 2.74022 16.9024 2.62402 16.6094C2.50738 16.315 2.47085 15.9977 2.52441 15.7119C2.57642 15.4348 2.73384 15.111 3.0752 14.9609L3.08008 14.959L5.50684 13.9219V13.9229Z" fill="#FFC200" stroke="#EDFF4A"/>
</g>
<defs>
<filter id="filter0_d_29781_64616" x="0" y="1" width="27.0508" height="24.1172" filterUnits="userSpaceOnUse" color-interpolation-filters="sRGB">
<feFlood flood-opacity="0" result="BackgroundImageFix"/>
<feColorMatrix in="SourceAlpha" type="matrix" values="0 0 0 0 0 0 0 0 0 0 0 0 0 0 0 0 0 0 127 0" result="hardAlpha"/>
<feOffset dy="2"/>
<feGaussianBlur stdDeviation="1"/>
<feComposite in2="hardAlpha" operator="out"/>
<feColorMatrix type="matrix" values="0 0 0 0 0.543229 0 0 0 0 0.515966 0 0 0 0 0.515966 0 0 0 0.25 0"/>
<feBlend mode="normal" in2="BackgroundImageFix" result="effect1_dropShadow_29781_64616"/>
<feBlend mode="normal" in="SourceGraphic" in2="effect1_dropShadow_29781_64616" result="shape"/>
</filter>
</defs>
</svg>
