<?xml version="1.0" encoding="UTF-8"?>
<svg id="Layer_2" data-name="Layer 2" xmlns="http://www.w3.org/2000/svg" viewBox="0 0 48 34.06">
  <g id="Layer_1-2" data-name="Layer 1">
    <g id="_ëÎÓÈ_1" data-name=" ëÎÓÈ 1">
      <path d="M23.03,33.9c-.1-.15-.14-.17-.22-.1-.08.07-.13.02-.26-.25-.09-.18-.19-.33-.22-.33s-.06-.06-.06-.14-.07-.21-.16-.31c-.33-.33-.35-.39-.27-.55.05-.09.05-.15.01-.15-.04,0-.08.04-.1.09-.02.05-.04.04-.04-.04,0-.07-.04-.12-.08-.12s-.07-.05-.07-.11-.05-.11-.11-.11-.18-.06-.26-.14c-.13-.12-.14-.14-.03-.14.15,0,.16-.11,0-.17-.07-.03-.1-.07-.07-.09.06-.06-.17-.23-.3-.24-.05,0-.07.03-.05.07.02.04,0,.07-.03.07s-.11-.08-.15-.18c-.04-.1-.11-.18-.16-.18-.15,0-.86-.73-.77-.79.05-.03-.02-.07-.16-.1-.13-.03-.3-.12-.38-.21-.24-.27-.92-.44-.98-.25-.02.07-.06.07-.15,0-.14-.11-.16-.01-.03.12.06.06.06.09,0,.09-.04,0-.09.07-.1.16-.01.09-.06.15-.11.14-.05,0-.1.05-.13.12-.03.08-.08.14-.11.14-.08,0-.22.31-.24.54-.1.97-.17,1.6-.17,1.75,0,.3-.15.54-.4.66-.18.09-.26.1-.32.04s-.08-.06-.08,0c0,.15-.11.09-.19-.11-.11-.27-.13-.95-.02-.95.06,0,.07-.07.03-.23-.03-.13-.06-.3-.07-.38,0-.08-.05-.22-.1-.3-.06-.1-.06-.16-.01-.16.04,0,.07-.05.07-.11s-.04-.11-.08-.11-.03-.04.04-.09c.1-.08.12-.18.1-.65-.02-.31,0-.57.03-.59.11-.07.06-.17-.08-.17-.08,0-.14-.05-.14-.1s-.08-.12-.17-.14c-.09-.02-.19-.11-.21-.19-.05-.18-.19-.18-.38-.02-.14.13-.55.2-.68.12-.04-.03-.04-.1.01-.19.06-.11.06-.16,0-.2-.06-.04-.07-.07,0-.1.05-.03.06-.11.04-.19-.04-.11,0-.14.16-.14h.2s-.22-.06-.22-.06c-.12-.03-.31-.11-.44-.17-.18-.09-.22-.15-.19-.29.03-.17-.03-.22-.22-.19-.03,0-.05-.1-.04-.22.01-.19,0-.23-.12-.21-.1.02-.12,0-.09-.09.03-.08,0-.11-.1-.11-.12,0-.14.03-.1.15.03.1.02.14-.03.1-.05-.03-.07-.1-.06-.17.03-.18-.07-.3-.27-.3-.1,0-.17-.03-.17-.06s-.22-.07-.48-.07c-.42,0-1.24-.21-1.77-.44-.08-.03-.45-.15-.82-.25s-.74-.22-.81-.26c-.07-.04-.19-.08-.25-.1-.2-.04-.87-.29-.92-.35-.03-.03-.11-.05-.18-.05s-.13-.03-.13-.07-.03-.07-.07-.07c-.07,0-.72-.31-1.04-.48-.35-.2-.99-.46-1.32-.53-.2-.05-.36-.11-.36-.15s-.04-.05-.09-.03c-.17.07-1.2-.21-1.2-.32,0-.04-.04-.06-.09-.05-.31.04-.41-.01-.42-.2,0-.11-.02-.16-.04-.11-.06.14-.24.1-.24-.05,0-.08-.07-.16-.16-.18-.09-.03-.24-.08-.33-.13-.13-.07-.18-.06-.24.02-.06.08-.07.07-.05-.04.02-.11-.02-.14-.14-.14-.09,0-.16-.02-.16-.05s-.05-.06-.1-.06-.18-.07-.27-.16c-.21-.2-.39-.32-.64-.42-.11-.04-.2-.13-.2-.19,0-.07-.04-.09-.1-.07-.14.05-.21-.07-.12-.22.04-.07.07-.1.08-.06,0,.04.05,0,.1-.07.14-.19.69-.23.93-.07.1.07.24.1.3.07s.14,0,.17.04c.05.09.26.15.55.16.09,0,.16.03.16.06s.11.07.25.1.27.08.29.11c.02.03.08.06.14.06.08,0,.69.37.82.5.02.02.15.1.29.17.14.07.39.23.56.34.36.24,1.05.56,1.19.56.05,0,.11.03.12.06.02.05.79.25,1.24.33.2.03.89.25,1.14.36.12.05.35.11.52.14s.4.1.52.15c.11.06.27.12.34.13.07.02.26.07.41.11s.53.11.82.15.55.1.56.13c.01.03.1.04.21,0,.1-.03.4-.03.66,0s.57.04.69.02.38,0,.59.03c.24.04.38.04.38,0,0-.04.09-.05.22-.03.13.03.31,0,.46-.08.27-.13.29-.19.18-.72-.03-.17-.04-.3,0-.3s.04-.09.02-.2-.04-.28-.05-.38c-.03-.27-.18-.71-.38-1.09-.1-.19-.16-.34-.13-.34s.01-.05-.04-.1-.06-.14-.04-.18c.03-.04-.03-.17-.13-.27-.16-.17-.29-.41-.33-.62,0-.04-.04-.1-.08-.14s-.08-.24-.11-.44c-.03-.21-.08-.36-.13-.36-.04,0-.07-.05-.06-.13.02-.09-.05-.2-.17-.3-.14-.11-.2-.22-.2-.37,0-.12-.02-.2-.05-.19s-.11-.04-.18-.12c-.12-.14-.12-.15,0-.11.08.03.12.01.12-.06,0-.06-.05-.1-.11-.1s-.11-.03-.11-.07-.05-.07-.12-.07c-.08,0-.1-.04-.08-.15.03-.12.02-.13-.06-.06-.08.07-.1.05-.1-.11,0-.1-.06-.26-.14-.34s-.12-.2-.1-.26c.03-.08.01-.09-.05-.05-.07.04-.08.02-.04-.09.03-.11,0-.17-.1-.23-.08-.04-.15-.13-.15-.18s-.04-.1-.08-.1-.06-.06-.04-.14c.02-.09-.01-.18-.1-.24-.07-.05-.12-.12-.09-.14s0-.1-.05-.17c-.07-.08-.07-.1-.01-.07.12.07.11-.01,0-.14-.05-.05-.12-.08-.14-.06s-.07-.02-.09-.09-.09-.18-.14-.23c-.05-.05-.09-.14-.09-.19s-.06-.12-.14-.14c-.08-.03-.14-.09-.14-.15,0-.08.03-.09.14-.03.21.11.27.09.09-.04-.09-.06-.15-.16-.12-.22.02-.06,0-.1-.08-.1-.14,0-.55-.81-.48-.93.02-.04-.04-.07-.14-.07s-.18-.02-.17-.05c.02-.08-.14-.45-.19-.45-.02,0-.02.03,0,.07s.02.07-.02.07-.1-.1-.14-.22c-.05-.12-.05-.2-.02-.17.11.07.07-.09-.04-.18-.06-.05-.09-.11-.07-.14.02-.03-.04-.07-.12-.1s-.13-.06-.11-.09.01-.1-.03-.15c-.07-.08-.06-.11.01-.16.07-.04.05-.07-.06-.11-.14-.05-.15-.06-.05-.17.14-.15.14-.22,0-.22-.06,0-.13-.04-.16-.08-.03-.06-.01-.07.07-.04.07.03.12.01.12-.03s-.08-.06-.18-.04c-.12.02-.18,0-.18-.06,0-.05.03-.1.07-.1s.07-.04.07-.08-.05-.06-.1-.04c-.11.04-.18-.09-.18-.32,0-.08-.02-.13-.05-.13-.11.02-.3-.1-.3-.2,0-.06-.08-.1-.2-.11-.13,0-.15-.02-.07-.04.08-.02.11-.07.09-.14-.02-.06-.04-.14-.04-.19,0-.05-.05-.02-.11.06-.09.12-.1.12-.1.02,0-.07-.04-.12-.08-.12-.05,0-.06-.07-.03-.18.03-.13.02-.18-.06-.18-.13,0-.2-.18-.14-.33.04-.09.02-.11-.09-.07-.12.04-.11.03.02-.09.13-.11.14-.14.05-.18-.15-.06-.14-.26.02-.22.07.02.05,0-.05-.05-.33-.17-.34-.28-.06-.62.22-.27.56-.32.56-.08,0,.08.03.14.07.14.1,0,1.21,1.13,1.4,1.44.09.15.2.29.25.31.04.03.06.08.03.11-.02.04,0,.07.03.07.07,0,.18.16.78,1.11.22.34.27.41.69.83.18.18.32.37.32.41s.07.12.14.18c.09.06.13.14.1.22-.03.09-.02.11.08.07.1-.04.11-.02.07.11-.03.1-.02.15.03.15.04,0,.06-.04.03-.08-.04-.06-.01-.07.07-.04.07.03.14.05.16.05s0,.05-.05.1c-.07.08-.07.13.03.22.06.06.14.1.18.07.03-.02.08.02.1.1s.1.14.17.14c.08,0,.14.05.14.14,0,.08-.02.13-.06.1-.04-.02-.07,0-.07.03s.03.09.07.12.07.01.07-.03c0-.11.14-.09.26.03.1.1.09.11-.05.17-.14.05-.14.07-.04.1.07.03.14.05.16.05.09,0,.56.45.76.73.1.13.14.15.19.07.07-.11.33-.05.26.06-.06.09.22.39.31.33.04-.02.09-.01.12.03.03.04.01.07-.03.07-.13,0-.08.13.05.16.07.01.16-.02.2-.07.06-.07.09-.06.17.06.05.08.06.13.02.11s-.09-.01-.11.03c-.05.07.37.41.47.38.03-.01.06.02.06.06s.05.06.11.04c.06-.02.11,0,.11.03s.04.05.09.02c.06-.04.06-.01,0,.07-.07.09-.08.12-.01.12.05,0,.07.05.05.1-.03.07.04.14.17.2.14.06.2.13.17.21-.05.15.21.47.42.52.12.03.16.08.14.17-.04.14.29.52.45.52.05,0,.1.03.1.07,0,.08.26.36.34.36.09,0,.38.27.38.34,0,.04.06.09.12.11.2.06.54.28.68.44.12.14.13.12.09-.48-.02-.4,0-.68.04-.77.06-.11.06-.18-.01-.26-.07-.08-.07-.12-.02-.14.04-.01.06-.1.05-.2-.02-.12,0-.18.1-.2.12-.03.12-.03,0-.04-.13,0-.16-.09-.08-.18.07-.07.02-.71-.06-.8-.08-.09.06-.53.16-.53.04,0,.05-.03.02-.08-.03-.04-.09-.06-.15-.04-.06.02-.1,0-.1-.07s.03-.1.08-.1c.09,0,.05-.89-.06-1.25-.07-.24-.07-.71,0-.93.03-.08,0-.28-.06-.45-.07-.21-.08-.3-.02-.3.05,0,.03-.04-.03-.09-.06-.05-.14-.25-.16-.45-.03-.2-.08-.4-.12-.44s-.06-.18-.05-.29c.01-.12-.03-.25-.11-.33-.07-.07-.11-.17-.09-.23s0-.13-.06-.18c-.05-.05-.08-.13-.06-.18.02-.06,0-.1-.04-.1s-.08-.06-.08-.13-.04-.17-.09-.22c-.07-.07-.07-.09,0-.09.05,0,.09-.05.09-.11s-.04-.1-.09-.08c-.14.05-.36-.51-.26-.64.07-.08.06-.09-.05-.05-.11.04-.12.02-.08-.17.02-.12.01-.24-.02-.28s-.08-.16-.1-.27-.07-.25-.11-.3c-.06-.07-.05-.1.01-.13.07-.03.06-.06-.03-.14-.07-.05-.18-.34-.26-.63-.08-.29-.18-.62-.22-.73-.06-.15-.06-.2.01-.2.1,0,.08-.48-.03-.54-.03-.02-.06,0-.06.04s-.03.08-.06.08c-.09,0-.08-.36.02-.36.04,0,0-.07-.1-.14-.14-.1-.18-.2-.17-.36,0-.12-.01-.22-.05-.22s-.04-.05-.02-.11c.03-.07,0-.11-.07-.11-.06,0-.13-.05-.15-.11-.02-.06-.01-.11.03-.11s.07-.07.07-.16c0-.14,0-.15-.09-.03-.08.11-.09.09-.1-.13,0-.14-.01-.33-.02-.42,0-.09-.08-.24-.16-.33-.08-.09-.16-.24-.16-.33s-.03-.17-.06-.17-.05-.07-.05-.14c0-.08.05-.14.12-.14.08,0,.1-.04.07-.11-.02-.06-.04-.16-.04-.22s-.04-.09-.09-.08c-.05.01-.08-.05-.07-.14.01-.1-.03-.17-.12-.19-.14-.04-.2-.34-.07-.34.04,0,.07-.03.07-.07s-.05-.07-.1-.07c-.17,0-.19-.2-.04-.38.08-.1.14-.2.14-.24s-.03-.01-.07.05c-.06.08-.07.07-.05-.07.02-.17.04-.18.61-.19.58,0,.6,0,.76.21.16.21.46.75.91,1.62.19.37.22.39.47.39s.27,0,.6.64c.18.35.35.76.38.91s.09.31.15.37c.06.06.11.15.11.2s.07.23.16.4c.11.22.2.3.3.29.1-.01.16.05.22.23.05.14.14.26.21.27.09.02.1.04.04.08-.07.04-.05.13.08.37.1.17.16.35.15.39-.01.04.04.14.12.21.08.07.14.2.14.29s.06.22.14.31c.08.08.14.18.14.22,0,.08.29.6.37.65.03.02.06.08.07.14.01.06.08.17.15.25.07.08.12.18.12.24s.03.09.07.09.07.05.07.11.03.11.08.11.07.04.05.08.05.16.13.26.16.2.15.22.1.22.23.44c.3.48.35.56.82,1.47.21.39.59,1.12.62,1.18.46.87.76,1.34.93,1.5.14.13.2.23.16.32-.03.08-.01.12.05.1.06-.01.1.04.09.14,0,.09.03.15.07.14.04,0,.07.04.07.11,0,.08.04.12.12.12.08,0,.14.05.15.12,0,.07.01.16.02.21s.03.11.06.14.05.11.05.18.03.13.07.13.07.05.07.11.07.16.15.23c.08.07.19.22.24.34s.14.28.2.35c.1.13.11.13.27-.02.1-.1.13-.16.07-.16s-.04-.06.07-.17c.09-.1.14-.21.12-.25-.03-.04,0-.08.06-.08s.15-.05.2-.12c.09-.11.08-.11-.03-.07-.17.06-.16-.07.01-.16.08-.04.17-.18.21-.31.04-.13.16-.29.26-.37.1-.07.18-.18.18-.24s.06-.2.12-.33c.07-.13.13-.31.14-.4.02-.24.17-.58.25-.58.03,0,.06-.07.06-.14s.03-.14.06-.14.06-.08.06-.19.04-.22.1-.25c.07-.05.07-.06-.05-.07-.11,0-.12-.02-.05-.07.05-.03.08-.1.05-.14-.03-.04-.02-.08.01-.08.09,0,.22-.32.2-.47-.01-.07,0-.17.05-.22s.05-.12.02-.16.01-.13.09-.2.21-.32.31-.55c.09-.24.2-.46.24-.49.05-.04.05-.07-.01-.1-.12-.05-.11-.17.04-.3.18-.16.29-.39.34-.65.02-.12.05-.26.06-.31,0-.05.05-.12.1-.15.05-.04.1-.19.13-.34.03-.15.07-.25.11-.23.03.02.05-.03.02-.1-.05-.2.03-.48.2-.65.11-.11.12-.14.03-.14s-.09-.02-.02-.14c.05-.08.15-.17.22-.2.13-.06.13-.07.02-.18-.11-.11-.11-.12,0-.12.12,0,.15-.18.04-.25-.08-.05-.1-.32-.02-.32.09,0,.24-.46.16-.49-.1-.03-.09-.44,0-.44.04,0,.06.05.04.11-.02.06-.01.11.03.11.09,0,.09-.27,0-.32-.09-.06-.09-.32,0-.32.04,0,.05.07.02.15-.03.11-.01.14.04.1.11-.07.11-.45,0-.49-.07-.03-.07-.05,0-.13.11-.11.12-.24.02-.17-.04.02-.07.01-.07-.03s.03-.08.08-.08c.05,0,.06-.06.03-.15-.03-.09-.02-.14.02-.11.09.05.18-.15.11-.25-.05-.08.25-1.06.37-1.16.04-.04.17-.12.28-.18.2-.1.38-.47.25-.52-.04-.01-.04-.11,0-.25.04-.12.05-.36.03-.51s-.02-.43.01-.61c.04-.28.09-.36.31-.5.14-.09.34-.24.43-.33.12-.11.18-.14.22-.08.04.06.1.06.24.01.11-.04.2-.05.23,0,.06.1-.09,1.23-.17,1.28-.04.02-.09.24-.11.49-.03.25-.09.57-.14.71s-.09.38-.08.52c.02.31-.09.66-.19.6-.04-.03-.04.02,0,.11.04.08.12.15.17.15s.02.05-.07.11c-.13.09-.14.13-.07.29.05.1.11.18.14.18s.05.03.05.07-.05.07-.12.07c-.09,0-.11.06-.09.25.03.27,0,.3-.14.16-.1-.1-.11-.02-.01.16.06.12.05.14-.07.14-.19,0-.19.08,0,.2.12.07.13.11.06.2-.05.06-.07.18-.05.28.04.2-.07.32-.17.17-.05-.07-.06-.06-.06.06,0,.09.04.16.09.16.05,0,.04.04-.04.1-.13.1-.18.23-.05.15.04-.02.07,0,.07.07s-.07.14-.15.17c-.12.04-.13.07-.05.1.12.05.1.48-.02.48-.03,0-.06.03-.06.08s.03.06.07.03c.04-.03.07.05.07.17,0,.12-.03.22-.07.22-.05,0-.06.09-.03.25.03.15.02.25-.03.25-.12,0-.17.23-.07.3.07.05.07.06,0,.06-.07,0-.09.06-.06.22.04.19.02.22-.12.22h-.16s.16.07.16.07c.11.05.15.11.14.25-.01.1-.04.2-.06.23-.02.02-.02.09,0,.15.03.07.01.09-.03.07-.05-.03-.09.07-.1.28-.02.28,0,.32.1.29.1-.03.12,0,.08.14-.03.1-.01.17.04.17.04,0,.08.03.08.07s-.05.07-.1.07c-.14,0-.19.41-.06.51.05.05.08.13.06.19-.02.06,0,.15.04.2.06.07.05.08-.05.06-.1-.03-.14,0-.14.12,0,.12,0,.14.09.07.11-.09.14,0,.11.31,0,.07.04.12.1.12.09,0,.1.02.02.1-.07.07-.13.08-.24.03-.12-.06-.12-.05.02.07.09.08.16.21.16.3s.05.2.12.25c.07.05.1.12.06.18-.04.07-.07.07-.12,0-.05-.08-.06-.07-.06.02,0,.07.03.14.07.17.11.07.06,1.4-.05,1.36-.11-.04-.19.18-.09.25.06.04.06.09,0,.21-.07.13-.1.14-.15.06-.05-.08-.06-.07-.04.04.01.08.06.14.11.12.05-.01.08.01.08.05s.08.07.18.07.18.03.18.07-.03.07-.07.07-.07.03-.07.07.04.07.08.07c.11,0,.24.17.46.6.21.4.44.62.6.59.06-.01.15.02.2.07.11.11.23.13.23.03,0-.04.05-.07.11-.07s.11.03.11.07.1.07.22.07.22-.04.22-.08c0-.05.07-.06.17-.04.1.03.29-.02.48-.11.17-.08.4-.15.51-.15.11,0,.2-.04.2-.09s.1-.14.23-.21c.93-.49,2.48-1.58,3.03-2.15.13-.13.68-.59.92-.77.04-.03.3-.24.58-.47s.79-.62,1.13-.87.62-.48.62-.52.06-.06.14-.06.14-.03.14-.07c0-.06.66-.56,1.01-.76.08-.04.21-.15.3-.23s.2-.15.24-.15.12-.05.17-.11c.09-.11.62-.46,1.07-.71.14-.08.31-.2.39-.27.08-.07.16-.13.19-.13s.24-.13.46-.29.44-.29.49-.29c.04,0,.2-.1.36-.21.15-.12.29-.2.31-.19s.04.11.06.21c.02.14,0,.19-.07.19-.06,0-.11.05-.11.1s-.04.13-.09.16c-.05.03-.12.14-.17.24s-.15.32-.23.49c-.08.17-.15.35-.15.4s-.05.11-.11.13c-.06.02-.11.09-.11.15s-.03.11-.07.11-.08.07-.09.16c-.01.09-.06.15-.11.14-.05-.01-.09.01-.09.05,0,.13-.77.86-.9.86-.11,0-.11.01-.03.07s.06.11-.12.3c-.12.13-.23.26-.23.3s-.03.04-.07.02c-.07-.04-.08,0-.1.25,0,.07-.07.1-.16.09-.12-.02-.15,0-.12.11.02.08-.02.15-.13.2-.09.04-.16.12-.16.18,0,.07-.06.1-.2.08-.18-.02-.23.04-.2.22,0,.03-.02.05-.06.05-.13,0-.43.31-.4.41.02.05,0,.09-.06.09s-.16.07-.23.17-.22.19-.33.22c-.11.03-.2.09-.2.14,0,.15-.31.45-.52.5-.13.03-.19.1-.19.19,0,.1-.03.13-.12.09-.09-.04-.11-.02-.07.08.04.11.03.11-.05.05-.07-.06-.12-.06-.15-.01-.03.04-.1.07-.16.07-.18,0-.88.44-.88.56,0,.06-.04.08-.12.06-.08-.03-.1-.01-.08.06.05.13-.26.42-.47.44-.09.01-.18.02-.2.03s.01.04.07.08c.08.06.06.07-.08.03-.12-.03-.22,0-.25.05-.03.05-.16.15-.29.22-.13.07-.32.21-.43.31-.11.1-.28.2-.39.22-.11.02-.2.08-.2.14,0,.06-.08.1-.18.1-.1,0-.23.05-.29.11s-.2.13-.32.15-.21.08-.21.13-.1.12-.22.17c-.12.04-.22.12-.22.19s-.05.11-.12.11-.27.13-.46.29-.38.29-.42.29-.08.03-.08.07-.07.14-.16.24c-.33.35-.63.72-.63.78,0,.12-.21.06-.25-.07-.02-.07-.09-.13-.15-.13-.09,0-.09.01,0,.12.06.07.11.19.11.27s.03.16.07.16.05.1.04.22c-.02.15,0,.22.08.22.14,0,.13.14,0,.19-.14.05-.13.15,0,.41.06.11.08.24.05.29s-.05.16-.06.26c0,.1-.05.4-.1.66-.08.41-.08.5,0,.6.08.09.08.12,0,.15-.14.05-.11.14.05.18.08.02.14.1.14.18,0,.08.03.17.07.19.04.03.05.08.03.12-.03.05-.06.05-.1-.01-.04-.06-.07-.05-.1.03-.03.08,0,.13.1.16.17.05.18.07.04.21-.06.06-.11.14-.11.18s.05.06.11.03.11,0,.11.05c0,.06.03.05.08-.02.07-.1.07-.1.05,0-.02.06-.1.12-.18.13-.17.03-.21.13-.07.17.06.02.05.07-.04.15-.07.07-.12.16-.12.21,0,.06.02.06.04,0,.05-.13.22-.11.27.03.03.08.01.1-.06.07-.12-.05-.15.06-.04.13.04.03.05.07.03.11-.06.1.14.08.25-.02.08-.07.1-.07.13,0,.02.05.06.08.08.06.03-.02.04.06.02.17-.02.16,0,.21.12.24.09.02.15.1.15.19,0,.08.03.14.06.11.04-.02.08,0,.1.07.02.06.09.11.14.11s.12.09.15.21c.03.15.08.2.15.17.09-.03.09-.05.01-.1-.05-.03-.07-.08-.04-.12.03-.03.12.02.2.12s.16.17.18.16c.02-.01.08.06.13.16.08.15.08.17,0,.14-.06-.02-.1,0-.1.04s.03.08.07.08.07.03.07.08-.06.06-.13.03c-.09-.03-.13,0-.13.07,0,.06.03.11.06.11s.06.06.06.12c0,.11-.01.11-.07.02-.05-.07-.07-.08-.07-.02,0,.05-.09.09-.21.09s-.29.07-.39.14c-.1.08-.19.11-.21.07s-.14-.08-.29-.09c-.26-.02-.47-.19-.48-.39,0-.05-.05-.09-.11-.09s-.13-.05-.15-.11c-.02-.06-.07-.11-.1-.11-.11,0-.42-.3-.38-.37.02-.03,0-.06-.03-.06s-.08.04-.1.09c-.02.05-.06.07-.09.04s-.02-.1.03-.16c.07-.09.01-.12-.37-.21-.29-.07-.44-.14-.43-.19.01-.07-.05-.08-.23-.04-.15.03-.27.02-.3-.03-.03-.04-.12-.1-.2-.14-.08-.03-.15-.11-.15-.19,0-.07-.05-.14-.1-.16-.06-.02-.08,0-.05.04.03.04-.03.07-.13.06-.2-.01-.22-.05-.09-.18.07-.07.04-.09-.12-.09-.17,0-.2.02-.16.15.03.11.01.14-.07.11-.06-.02-.12-.04-.14-.04s-.03-.04-.03-.1c0-.16-.37-.2-.53-.06-.07.07-.15.11-.16.1-.08-.06-.46.08-.46.17,0,.06-.04.1-.1.1s-.13.08-.18.18c-.05.1-.11.18-.15.18s-.07.13-.07.29-.04.35-.09.43c-.08.12-.07.16.04.22.07.04.11.1.09.13-.02.03.03.12.11.19.19.17.18.28-.04.56-.1.13-.18.27-.18.32s-.03.08-.08.08-.06.03-.03.07,0,.09-.03.11c-.11.07-.09.18.03.18.07,0,.1.06.1.16,0,.12-.02.13-.04.04-.05-.17-.16-.16-.16.02,0,.1.05.14.15.14.12,0,.13.02.07.09-.05.06-.05.12-.01.16.03.04.07.13.09.21.01.08.05.16.08.19.09.07-.09.36-.18.3-.05-.03-.07,0-.04.1.02.08.02.15-.01.15s-.1.1-.17.23c-.07.15-.12.19-.12.11,0-.07-.04-.12-.08-.12s-.06.03-.04.06c.02.03,0,.1-.03.16-.05.08-.08.08-.17.01-.09-.07-.12-.07-.18.04-.07.12-.08.12-.18-.01-.06-.08-.18-.24-.27-.35-.23-.29-.31-.43-.21-.37.13.08.09-.02-.06-.19-.18-.19-.19-.32-.02-.19.11.09.12.09.03-.03-.05-.07-.13-.11-.16-.08-.03.02-.06.01-.06-.03s-.08-.1-.17-.14c-.09-.04-.22-.19-.29-.33-.08-.16-.17-.26-.26-.26-.07,0-.16-.03-.18-.08-.03-.04-.13-.11-.24-.15-.11-.04-.15-.09-.1-.11.05-.02.09-.07.09-.1s-.03-.05-.06-.03c-.03.02-.15-.06-.26-.17-.11-.12-.25-.21-.3-.21s-.08-.03-.06-.07c.03-.04-.03-.07-.13-.07s-.2-.03-.22-.07c-.02-.04-.12-.05-.21-.03-.1.02-.21,0-.27-.06-.06-.06-.26-.12-.46-.14s-.43-.07-.53-.09c-.13-.04-.16-.03-.13.05.03.07,0,.1-.1.1-.07,0-.14-.03-.14-.07s-.04-.03-.09,0-.21.06-.36.04c-.22-.02-.26,0-.22.08.03.07,0,.11-.06.11-.07,0-.1.09-.09.3,0,.17.02.32.03.34.06.1.04.47-.02.51-.05.03-.05.08,0,.14.06.07.05.13-.02.23-.08.11-.08.17,0,.39.08.18.08.27.03.3s-.06.06,0,.1c.11.07.1.38-.01.42-.07.03-.07.04,0,.04.05,0,.09.04.09.08s-.03.06-.07.03c-.04-.02-.08-.01-.11.02-.02.04,0,.08.07.11s.11.11.11.19.03.14.08.14.06.03.03.07c-.02.04.02.08.08.1.09.02.07.04-.05.04-.14,0-.16.02-.07.08.06.04.08.07.04.07s.02.07.12.15c.23.18.24.28.04.45-.12.11-.13.14-.05.19.08.05.08.06,0,.07-.17,0-.52.41-.48.53.06.17,0,.13-.13-.07h0s0,.02,0,.02ZM20.42,30.56c-.06-.05-.13-.14-.16-.21s-.09-.12-.15-.12c-.08,0-.09.03-.02.18.08.16.17.23.37.24.04,0,.02-.03-.04-.08h0ZM16.75,29.18s0-.11.06-.19c.13-.18.03-.33-.22-.33-.1,0-.17-.04-.17-.1,0-.06-.03-.12-.07-.15-.08-.05-.05.15.09.59.05.17.11.23.22.23.08,0,.13-.02.1-.05h0ZM28.46,28.99s.04,0,.02-.05c-.04-.12-.42-.18-.42-.07,0,.04.05.07.12.07.1,0,.1.02.02.12-.09.12-.09.12.05,0,.08-.07.17-.1.21-.07h0ZM27.3,28c.12.08.14.07.11-.08-.02-.15-.06-.16-.31-.14-.26.02-.39.1-.39.24,0,.03.1.01.22-.03.17-.06.26-.06.36,0h0ZM19.27,27.86s.22-.07.52-.07c.29,0,.65-.03.82-.06.2-.04.31-.03.33.02.01.04.12.07.23.06.11,0,.24.02.3.06.07.06.11.05.14-.03.05-.14.74-.25.82-.12.04.07.09.06.22-.01.09-.05.19-.12.22-.16s.08-.04.13-.01c.05.03.16,0,.26-.06.1-.06.26-.11.37-.11.29,0,.74-.08.74-.13,0-.02-.15-.1-.34-.17s-.47-.19-.63-.27c-.16-.08-.36-.14-.44-.14s-.17-.03-.2-.06c-.02-.03-.16-.08-.3-.11-.31-.06-.76-.29-.69-.35.03-.03,0-.05-.07-.05s-.15-.06-.19-.14c-.04-.08-.12-.14-.18-.14s-.1-.03-.1-.06c0-.08-.4-.59-.46-.59-.15.01-.18-.01-.18-.14,0-.08-.07-.17-.16-.21-.23-.09-.55-.52-.55-.75,0-.06-.04-.12-.09-.14-.07-.03-.06-.05.02-.11.09-.07.06-.11-.08-.09-.03,0-.07-.09-.09-.21s-.07-.2-.11-.18c-.08.05-.19-.84-.12-.96.07-.12-.03-.36-.15-.36-.06,0-.33.23-.59.5s-.52.5-.57.5-.08.02-.07.05c.02.15-.02.23-.12.23-.06,0-.11.05-.11.11s-.04.11-.09.11c-.09,0-.31.25-.44.52-.05.1-.17.17-.33.2-.14.02-.19.05-.12.05.11,0,.09.07-.13.49-.14.27-.28.5-.31.52-.11.09-.38.72-.35.81.02.06,0,.14-.04.19-.07.07-.04.08.11.05.16-.03.18-.02.12.06-.06.08-.06.1.03.1.17,0,.2.1.05.2-.11.07-.13.07-.09-.03.03-.08.01-.1-.06-.08-.06.02-.11.13-.12.24-.01.12-.06.28-.1.37-.1.2,0,.3.31.3.1,0,.2.03.22.07.01.04.22.08.45.08.24,0,.47.04.52.08.07.05.11.05.14,0,.03-.04.17-.13.32-.19.27-.11.28-.11.44.07.11.12.27.19.48.22.17.02.32.05.34.07.06.06.15.03.15-.04h0ZM27.73,26.4c.15-.07.33-.11.41-.09.08.02.14,0,.14-.03s.07-.06.16-.06c.09,0,.21,0,.27-.02.17-.04.57-.29.57-.36,0-.05.39-.23.4-.18,0,.01.06-.03.13-.1.07-.07.17-.12.22-.12s.13-.08.18-.18.15-.2.22-.22c.07-.02.16-.12.22-.22.05-.1.12-.18.15-.18s.06-.03.06-.08c0-.09.43-.74.51-.77.03-.01.06-.07.06-.12s.03-.11.06-.12c.16-.06.94-1.1,1.05-1.4.07-.19.16-.38.19-.43.04-.05.04-.09.01-.09s0-.07.08-.16c.08-.09.19-.26.24-.38s.14-.24.18-.27.04-.05,0-.05-.02-.06.04-.13c.06-.07.14-.29.19-.48.05-.2.13-.38.18-.41.06-.04.05-.06-.02-.06-.06,0-.01-.05.1-.12.24-.13.23-.14-.44-.46-.25-.12-.47-.26-.49-.32s-.07-.09-.11-.06c-.04.02-.11-.02-.16-.09-.05-.07-.16-.13-.23-.14-.23,0-.81-.19-.81-.26,0-.03-.13-.06-.28-.06s-.3-.03-.32-.06c-.04-.07-1.63-.06-1.74.01-.04.03-.16.02-.26-.02-.15-.06-.2-.05-.25.05-.06.11-.08.11-.14.02-.06-.08-.1-.09-.2-.03-.07.04-.27.1-.43.13s-.3.08-.3.11c0,.1.48.29.6.24.08-.03.11,0,.11.1,0,.08.15.29.33.47.18.18.3.36.28.4-.03.04,0,.12.04.18.07.08.06.1-.03.1-.06,0-.13.04-.16.08-.03.06,0,.07.14.05.15-.03.21,0,.25.12.03.09.12.18.18.21.07.03.1.09.08.15-.02.06-.06.16-.09.23-.04.1-.03.11.03.02.07-.09.08-.09.08.01,0,.07-.04.14-.09.16-.05.02-.04.04.04.04.14,0,.17.11.05.19-.05.03-.06.07,0,.12.05.05.05.1,0,.17-.06.07-.05.09.02.09.06,0,.1.09.11.22,0,.12-.02.21-.05.21s-.07.08-.07.18.03.18.06.18.08.11.09.25c.03.22.01.25-.1.22-.12-.03-.13,0-.1.38.03.37.01.42-.11.45-.11.03-.12.06-.06.18.05.1.05.16,0,.19-.04.02-.07.1-.07.16s-.09.2-.2.3c-.19.18-.41.56-.39.67,0,.03-.02.05-.06.05s-.06.03-.04.06-.03.12-.1.19-.14.16-.14.2c0,.13-.33.41-.49.41-.12,0-.16.04-.14.13.01.08-.02.12-.09.12-.06,0-.12.05-.12.13,0,.07.01.12.04.11.03-.02.17-.08.32-.15h0ZM25.67,26.31c.12-.03.26-.06.32-.05.11,0,.6-.21.76-.35.46-.38,1.09-1.1,1.09-1.25,0-.07.06-.16.14-.21.09-.05.14-.17.14-.29,0-.11.05-.26.1-.34s.08-.18.07-.22c-.02-.05,0-.16.05-.25s.08-.34.08-.56.03-.45.06-.52c.04-.08.04-.14-.01-.17-.04-.03-.06-.09-.04-.14s0-.12-.03-.14c-.04-.03-.02-.09.04-.15.1-.1.1-.12,0-.22-.08-.08-.09-.13-.03-.2.06-.07.05-.11-.04-.16-.07-.04-.12-.09-.11-.11,0-.13-.23-.58-.39-.73-.1-.09-.18-.2-.18-.24s-.03-.08-.06-.08-.17-.1-.3-.22c-.37-.34-.86-.63-1.05-.63-.09,0-.16-.03-.16-.06,0-.09-.41-.04-.79.09-.18.06-.44.13-.57.14s-.4.1-.59.18c-.19.08-.4.15-.47.15-.15,0-.39.25-.33.35.02.04.01.09-.03.11-.07.05-.05,1.21.04,1.58.03.12.1.29.15.37.06.09.08.19.06.23s-.01.07.03.07.12.09.18.21.16.23.23.25c.07.02.21.16.3.29.19.26.81.6,1.11.6.19,0,.34-.16.46-.5.05-.14.15-.38.23-.54.18-.4.17-.46-.11-.46-.13,0-.33-.05-.45-.11-.24-.12-.46-.14-.46-.04,0,.04-.03.07-.08.07s-.16.1-.26.22c-.24.28-.35.27-.34-.02,0-.13.01-.25.02-.27,0-.02.03-.18.04-.36.01-.18.06-.33.1-.35.04-.01.08-.06.08-.09s.08-.16.18-.26.18-.16.18-.13.07,0,.16-.08c.23-.21.75-.26.67-.06-.02.06-.02.1.01.09.12-.03.59.18.59.27,0,.06.03.1.08.1s.06-.03.03-.07c-.02-.04-.01-.07.03-.07s.08.05.08.11.02.1.05.1c.13-.02.23.01.23.08,0,.04-.03.06-.07.03-.04-.03-.05,0-.03.07.02.06.08.11.13.11.13,0,.18.51.06.63-.05.05-.08.16-.05.23.03.08-.02.24-.11.38-.08.14-.15.3-.14.37.02.21,0,.31-.07.31-.04,0-.05-.06-.02-.12s.02-.1,0-.08c-.04.04-.08.19-.14.54,0,.05-.09.17-.18.27-.12.12-.14.18-.07.18.06,0,.02.07-.11.18-.11.1-.26.18-.33.18s-.14.02-.17.05c-.09.09-.89.06-.93-.04-.02-.05-.1-.09-.18-.09s-.14-.04-.14-.08-.05-.06-.1-.04c-.06.02-.14-.01-.17-.08-.04-.07-.09-.1-.11-.08-.06.06-.41-.29-.65-.66-.26-.41-.36-.51-.4-.42-.08.23-.56-.48-.56-.82,0-.07-.04-.19-.08-.27-.06-.11-.06-.16.02-.21.06-.04.06-.06.02-.06-.05,0-.07-.1-.07-.23,0-.13-.02-.27-.05-.32-.04-.06-.04-.21.01-.41.12-.49-.09-.78-.38-.5-.06.06-.15.11-.21.11-.09,0-.18.06-.53.36-.05.04-.2.13-.34.19-.26.12-.36.4-.16.47.05.02.03.06-.07.1-.16.06-.16.07-.04.24.13.18.17.38.18.8,0,.17.04.28.11.3.06.02.09.09.07.15s0,.11.03.11.07.07.07.16.04.2.09.25.06.09.03.09,0,.1.06.22c.06.12.09.25.07.29-.02.04-.02.06.01.05s.2.14.38.34c.74.82,1.03,1.05,1.82,1.43.92.45,1.51.54,2.22.34h0ZM16.09,22.78c-.18-.14-.39-.17-.39-.06,0,.04.03.07.07.07s.07.06.07.14c0,.12.02.13.21.06l.21-.08-.16-.13ZM35.85,18.89c.04-.1.23-.26.42-.35.19-.1.32-.18.28-.18-.12,0-.73.16-.82.23-.05.04-.23.05-.41.03-.18-.02-.32-.01-.32.03s-.1.07-.23.07c-.19,0-.21.01-.11.08.07.04.16.05.19.03s.08-.01.11.03c.05.07.17.07.3-.01.05-.03.1,0,.12.09.06.21.36.19.46-.03h0ZM23.14,18.86s.07-.09.15-.11c.12-.04.13-.07.06-.15-.12-.14-.19-.13-.23.04-.03.1-.08.13-.15.1-.08-.03-.11,0-.11.07,0,.07.06.12.14.12.08,0,.14-.03.14-.07h0ZM20.45,17.94c-.04-.1-.06-.09-.12.06-.05.12-.04.19,0,.2.04.01.08.08.09.14,0,.07.02.03.04-.08.02-.11,0-.26-.02-.32h0ZM36.21,18.1c.12-.02.22-.07.22-.11,0-.1-.32-.07-.47.04-.15.12-.09.13.25.07h0ZM23.74,17.54c-.21-.19-.22-.25-.05-.25.11,0,.11-.01.02-.07-.08-.05-.13-.03-.2.05-.13.17-.11.23.07.3.09.04.14.07.1.07s-.04.04-.02.07.09.05.14.03c.08-.03.06-.08-.07-.2h0ZM25.82,17.64c0-.08-.03-.14-.06-.14s-.06.03-.06.07-.09.05-.22.03c-.13-.03-.22-.01-.22.03,0,.07.08.09.47.15.04,0,.07-.05.07-.13h0ZM28.08,17.4c-.09-.11-.42-.14-.48-.04-.02.03.05.06.15.06s.2.05.23.11c.03.08.07.09.12.04s.05-.1-.01-.17h0ZM31.9,17.5c.03-.08.01-.2-.03-.27-.06-.1-.07-.1-.08-.02,0,.06-.08-.06-.18-.27-.16-.34-.19-.37-.32-.3-.08.04-.14.06-.14.03s-.06.02-.14.11c-.12.14-.15.14-.25.05-.12-.12-.22-.15-.15-.03.03.04,0,.12-.04.18-.07.08-.07.1,0,.1.05,0,.07.03.04.07s0,.09.07.11c.06.02.1.07.08.1-.02.03.02.08.08.1.08.03.13,0,.15-.1.03-.11.08-.13.23-.1.37.09.51.17.51.27,0,.16.12.13.18-.03h0ZM28.93,16.35s-.03-.07-.07-.07-.07-.05-.07-.11-.03-.11-.07-.11-.07.07-.07.16c0,.11.05.17.14.17.08,0,.14-.02.14-.06h0ZM23.14,14.82s.02-.09.05-.16c.04-.11.03-.12-.07-.04-.07.05-.15.07-.19.05-.04-.03-.11-.02-.15,0-.06.03-.05.07.02.11.1.06.35.09.35.03h0ZM42.66,14.13s.05-.06.1-.06.21-.12.34-.27c.23-.27,1.01-1.04,1.69-1.69.2-.19.37-.37.37-.4s.11-.19.25-.36c.3-.37.31-.41.07-.37-.12.02-.18.08-.18.19,0,.08-.02.11-.04.06-.02-.05-.07-.09-.11-.09s-.06.02-.03.04c.08.08-.33.46-.45.42-.07-.02-.14,0-.17.03-.03.04,0,.07.04.07.17,0,.01.17-.18.2-.12.01-.22.06-.23.09-.01.04-.1.07-.19.07-.11,0-.18.05-.21.14-.03.08-.08.13-.11.1s-.14,0-.23.07-.12.11-.07.11.07.03.05.07c-.07.1-.27,0-.22-.12.02-.06.01-.08-.03-.06-.04.02-.09.14-.11.27-.03.13-.15.33-.27.46-.46.46-.47.48-.4.61.06.1.03.14-.13.21l-.2.08.18.03c.1.02.2.07.23.13.06.1.27.06.27-.05h0ZM20.42,12.61c0-.16-.12-.34-.23-.34-.03,0-.06.06-.06.14s.03.14.07.14.05.05.03.11c-.03.07,0,.11.07.11s.12-.06.12-.16h0Z"/>
    </g>
  </g>
</svg>