<?xml version="1.0" encoding="UTF-8"?>
<svg id="Layer_2" data-name="Layer 2" xmlns="http://www.w3.org/2000/svg" viewBox="0 0 26.53 32.77">
  <defs>
    <style>
      .cls-1 {
        fill: #231815;
      }

      .cls-2 {
        fill: #fff;
      }
    </style>
  </defs>
  <g id="Layer_1-2" data-name="Layer 1">
    <g>
      <path class="cls-2" d="M26.53,16.38C26.53,7.34,20.59,0,13.26,0S0,7.34,0,16.38s5.94,16.38,13.26,16.38,13.26-7.34,13.26-16.38Z"/>
      <path class="cls-1" d="M13.14,22.5c3.31,0,6-2.69,6-6s-2.69-6-6-6-6,2.69-6,6,2.69,6,6,6Z"/>
      <path class="cls-2" d="M10.6,14.42c.36,0,.65-.29.65-.65s-.29-.65-.65-.65-.65.29-.65.65.29.65.65.65Z"/>
    </g>
  </g>
</svg>