<?xml version="1.0" encoding="UTF-8"?>
<svg id="Layer_2" data-name="Layer 2" xmlns="http://www.w3.org/2000/svg" viewBox="0 0 33.12 48">
  <g id="Layer_1-2" data-name="Layer 1">
    <g id="_ÎÓÈ_1" data-name=" ÎÓÈ 1">
      <path d="M4.67,8.02c3.64,8.79,7.27,17.59,10.91,26.38,1.42-.38,2.84-.76,4.26-1.14-4.6-8.1-9.2-16.21-13.8-24.31-.41-.71-1.72-.44-2.36-.26-.36.1-2.24.71-1.91,1.4,4.07,8.65,7.22,17.71,9.39,27.01l4.13-1.34c-5.16-5.03-8.74-11.54-10.25-18.58-.43-1.99-.69-4.02-.77-6.06-1.42.38-2.84.76-4.26,1.14,4.48,8.7,8.14,17.82,10.89,27.22.78,2.67,1.49,5.36,2.13,8.07.16.69,1.67.41,2.07.32.82-.17,1.72-.49,2.18-1.22,3.33-5.32,4.53-11.54,5.26-17.68.73-6.21.99-12.52,2.55-18.6.85-3.32,2.1-6.57,4.03-9.43-1.36.22-2.73.43-4.09.65,1.58,7.98-.16,16.58-4.67,23.35-1.29,1.94-2.8,3.72-4.48,5.33,1.36-.22,2.73-.43,4.09-.65.45-7.52,2.82-14.92,6.7-21.37,1.08-1.8,2.31-3.52,3.63-5.15-1.36.22-2.73.43-4.09.65,1.45,9.81.09,19.93-3.89,29.01-.5,1.14-.98,2.37-1.69,3.39-.33.46-.74.91-1.1,1.24-.06.05-.21.23-.04.04-.05.03-.1.05-.15.08.26-.14.55-.23.85-.26.37-.05.55.06.09-.13.13.11.27.23.41.34.31-8.39,2.95-16.76,7.46-23.84,1.29-2.03,2.75-3.95,4.33-5.76-1.36.22-2.73.43-4.09.65,1.5,8.9-.64,18.36-5.74,25.8-1.46,2.13-3.15,4.09-5.04,5.85-.74.69.63.96,1.07.93,1.02-.05,2.08-.38,2.84-1.08,6.87-6.4,10.99-15.44,11.56-24.79.16-2.63.02-5.26-.42-7.85-.1-.59-1.44-.44-1.78-.38-.79.13-1.76.4-2.31,1.03-5.73,6.57-9.71,14.65-11.33,23.22-.46,2.43-.72,4.89-.81,7.37.08.18.21.3.41.34,1.6.67,3.65.18,5.12-.61,1.2-.65,2.15-1.62,2.88-2.77,1.44-2.27,2.42-4.94,3.29-7.47,1.79-5.2,2.76-10.66,2.91-16.16.09-3.12-.1-6.24-.56-9.32-.09-.59-1.45-.44-1.78-.38-.77.13-1.79.39-2.31,1.03-4.91,6.07-8.34,13.3-9.86,20.95-.43,2.17-.69,4.35-.82,6.56-.03.58,1.56.42,1.78.38.84-.14,1.68-.43,2.31-1.03,6.16-5.86,9.77-14.12,10.08-22.59.09-2.38-.1-4.75-.56-7.08-.12-.59-1.43-.44-1.78-.38-.72.12-1.87.38-2.31,1.03-3.55,5.27-4.96,11.42-5.74,17.64-.79,6.31-1.02,12.72-2.51,18.93-.82,3.4-2.05,6.69-3.9,9.66,1.42-.3,2.83-.6,4.25-.9-2.24-9.52-5.39-18.83-9.39-27.76-1.14-2.54-2.35-5.06-3.63-7.53-.37-.72-1.74-.44-2.36-.26-.61.18-1.95.57-1.91,1.4.32,7.33,2.9,14.41,7.21,20.33,1.23,1.69,2.6,3.26,4.09,4.72.55.54,1.91.16,2.5-.03.47-.15,1.79-.62,1.63-1.31-2.17-9.31-5.32-18.37-9.39-27.01-1.42.38-2.84.76-4.26,1.14,4.6,8.1,9.2,16.21,13.8,24.31.41.71,1.72.44,2.36.26.38-.11,2.2-.69,1.91-1.4-3.64-8.79-7.27-17.59-10.91-26.38-.31-.74-1.79-.42-2.36-.26-.38.11-2.2.69-1.91,1.4h0Z"/>
    </g>
  </g>
</svg>