<?xml version="1.0" encoding="UTF-8"?>
<svg id="Layer_2" data-name="Layer 2" xmlns="http://www.w3.org/2000/svg" xmlns:xlink="http://www.w3.org/1999/xlink" viewBox="0 0 39.49 15">
  <defs>
    <style>
      .cls-1 {
        mask: url(#mask);
      }

      .cls-2 {
        fill: #fff;
      }
    </style>
    <mask id="mask" x="0" y="0" width="39.49" height="15" maskUnits="userSpaceOnUse">
      <g id="mask0_12629_2805-2" data-name="mask0 12629 2805">
        <path class="cls-2" d="M31.65,0H7.01C3.14,0,0,3.14,0,7.01s3.14,7.01,7.01,7.01h24.64c3.87,0,7.01-3.14,7.01-7.01s-3.14-7.01-7.01-7.01Z"/>
      </g>
    </mask>
  </defs>
  <g id="Layer_1-2" data-name="Layer 1">
    <g>
      <g id="mask0_12629_2805" data-name="mask0 12629 2805">
        <path class="cls-2" d="M31.65,0H7.01C3.14,0,0,3.14,0,7.01s3.14,7.01,7.01,7.01h24.64c3.87,0,7.01-3.14,7.01-7.01s-3.14-7.01-7.01-7.01Z"/>
      </g>
      <path class="cls-2" d="M31.65,0H7.01C3.14,0,0,3.14,0,7.01s3.14,7.01,7.01,7.01h24.64c3.87,0,7.01-3.14,7.01-7.01s-3.14-7.01-7.01-7.01Z"/>
      <g class="cls-1">
        <path d="M32.29,15c3.97,0,7.19-3.22,7.19-7.19s-3.22-7.19-7.19-7.19-7.19,3.22-7.19,7.19,3.22,7.19,7.19,7.19Z"/>
      </g>
    </g>
  </g>
</svg>