<?xml version="1.0" encoding="UTF-8"?>
<svg id="Layer_2" data-name="Layer 2" xmlns="http://www.w3.org/2000/svg" viewBox="0 0 19 48">
  <g id="Layer_1-2" data-name="Layer 1">
    <g id="_ÎÓÈ_1" data-name=" ÎÓÈ 1">
      <path d="M1.37,1.95c1.52,5.83,2.94,11.7,4.26,17.58,1.32,5.91,2.53,11.83,3.64,17.78.62,3.34,1.21,6.69,1.77,10.05,1.57-.53,3.15-1.05,4.72-1.58-2.86-3.71-5.72-7.43-8.58-11.14-.82-1.07-1.64-2.13-2.46-3.2-1.52.62-3.04,1.24-4.55,1.85,3.05,3.82,6.1,7.64,9.15,11.46,1.52-.62,3.04-1.24,4.55-1.85-2.3-2.51-4.59-5.06-6.38-7.96.06.09.11.18.17.27-1.21-1.98-2.15-4.11-2.6-6.39-1.57.53-3.15,1.05-4.72,1.58,3.05,2.37,5.64,5.28,7.66,8.58-.06-.09-.11-.18-.17-.27,1.14,1.87,2.08,3.84,2.81,5.9.13.38.57.53.93.59.57.1,1.27.02,1.81-.14.57-.17,1.19-.38,1.64-.79.28-.25.59-.57.5-.98-.37-1.72-.53-3.47-.49-5.23,0,.11,0,.21,0,.32.09-3.52.98-6.99,2.61-10.12-.06.11-.12.22-.17.33.27-.52.57-1.03.88-1.52-1.57.22-3.14.44-4.7.66.23,1.59.33,3.19.29,4.79v-.32c-.09,3.55-.83,7.06-2.2,10.34,1.63-.33,3.25-.66,4.88-.99-.02-.74-.02-1.48,0-2.22,0,.11,0,.21,0,.32.12-4.31.92-8.58,2.38-12.64-1.62.22-3.25.45-4.87.67-.05.25-.09.51-.14.76-.18,1.03,1.44,1.01,2.07.91.64-.1,1.3-.27,1.85-.62.35-.21.87-.53.95-.96.05-.25.09-.51.14-.76.18-1.03-1.44-1.01-2.07-.91-.64.1-1.3.27-1.85.62-.39.24-.78.52-.95.96-1.75,4.86-2.53,10.01-2.38,15.18.01.36.7.56.93.59.5.08.99.03,1.48-.07.9-.18,2.08-.59,2.47-1.51,2.03-4.85,2.68-10.25,1.92-15.45-.05-.31-.46-.46-.7-.53-.44-.12-.93-.13-1.38-.06-.44.07-.88.19-1.3.35-.41.16-1.07.5-1.32.9-2.57,4.09-3.84,8.81-3.67,13.64.05,1.31.21,2.61.48,3.89,1.63-.44,3.26-.87,4.89-1.31-1.6-4.52-4.23-8.69-7.61-12.09-.95-.95-1.96-1.84-3.02-2.67-.79-.61-2.04-.36-2.89-.08-.45.15-.96.36-1.32.68-.28.25-.59.56-.5.98.89,4.5,3.65,8.35,6.58,11.76.84.97,1.7,1.92,2.56,2.86.28.31.93.36,1.3.36.62,0,1.35-.14,1.91-.39.61-.27,2-.99,1.34-1.83-3.05-3.82-6.1-7.64-9.15-11.46-.25-.31-.96-.36-1.3-.36-.62,0-1.35.14-1.91.39-.62.27-1.99.99-1.34,1.83,2.86,3.71,5.72,7.43,8.58,11.14.82,1.07,1.64,2.13,2.46,3.2.24.31.98.37,1.3.36.55-.01,1.08-.11,1.59-.29.45-.15.96-.36,1.32-.68.28-.26.57-.56.5-.98-.99-5.95-2.08-11.87-3.27-17.78-1.2-5.93-2.51-11.84-3.92-17.73-.79-3.31-1.62-6.61-2.48-9.9-.1-.38-.6-.54-.93-.59-.57-.1-1.27-.02-1.81.14-.57.17-1.19.38-1.64.79-.27.24-.61.58-.5.98h0Z"/>
    </g>
  </g>
</svg>