<?xml version="1.0" encoding="UTF-8"?>
<svg id="Layer_2" data-name="Layer 2" xmlns="http://www.w3.org/2000/svg" viewBox="0 0 32 25.78">
  <defs>
    <style>
      .cls-1 {
        fill: #231815;
      }

      .cls-2 {
        fill: #fff;
      }
    </style>
  </defs>
  <g id="Layer_1-2" data-name="Layer 1">
    <g>
      <path class="cls-2" d="M28.66,25.78c2.1-2.71,3.34-6.09,3.34-9.78C32,7.16,24.84,0,16,0S0,7.16,0,16c0,3.68,1.25,7.08,3.34,9.78h25.31Z"/>
      <path class="cls-1" d="M16,7.33c-4.79,0-8.67,3.88-8.67,8.67s3.88,8.67,8.67,8.67,8.67-3.88,8.67-8.67-3.88-8.67-8.67-8.67ZM13.41,12.24c-1.02,0-1.84-.82-1.84-1.84s.82-1.84,1.84-1.84,1.84.82,1.84,1.84-.82,1.84-1.84,1.84Z"/>
      <path class="cls-2" d="M13.41,8.55c-1.02,0-1.84.82-1.84,1.84s.82,1.84,1.84,1.84,1.84-.82,1.84-1.84-.82-1.84-1.84-1.84Z"/>
    </g>
  </g>
</svg>