<?xml version="1.0" encoding="UTF-8"?>
<svg id="Layer_2" data-name="Layer 2" xmlns="http://www.w3.org/2000/svg" xmlns:xlink="http://www.w3.org/1999/xlink" viewBox="0 0 36 19.88">
  <defs>
    <style>
      .cls-1 {
        mask: url(#mask);
      }

      .cls-2 {
        fill: #fff;
      }
    </style>
    <mask id="mask" x=".65" y="0" width="35.28" height="19.73" maskUnits="userSpaceOnUse">
      <g id="mask0_13264_3384-2" data-name="mask0 13264 3384">
        <path class="cls-2" d="M.65,2.09c0,9.75,7.9,17.64,17.64,17.64s17.64-7.89,17.64-17.64H.65Z"/>
      </g>
    </mask>
  </defs>
  <g id="Layer_1-2" data-name="Layer 1">
    <g>
      <g id="mask0_13264_3384" data-name="mask0 13264 3384">
        <path class="cls-2" d="M.65,2.09c0,9.75,7.9,17.64,17.64,17.64s17.64-7.89,17.64-17.64H.65Z"/>
      </g>
      <path class="cls-2" d="M0,2.09c.18,9.86,8.17,17.79,18,17.79s17.81-7.93,18-17.79H0Z"/>
      <g class="cls-1">
        <path d="M23.02,11.41c2.61-2.61,2.61-6.84,0-9.45-2.61-2.61-6.84-2.61-9.45,0-2.61,2.61-2.61,6.84,0,9.45,2.61,2.61,6.84,2.61,9.45,0Z"/>
      </g>
    </g>
  </g>
</svg>