<?xml version="1.0" encoding="UTF-8"?>
<svg id="Layer_2" data-name="Layer 2" xmlns="http://www.w3.org/2000/svg" viewBox="0 0 48 26.14">
  <g id="Layer_1-2" data-name="Layer 1">
    <g id="uuid-ee5e284e-d3ee-435b-8106-8e7edb8f546b" data-name="Layer 1-2">
      <g>
        <path d="M1.36,14.83c0-.12.01-.24.02-.37C-3.21,10.06,4.77,3.66,8.92,2.45c1.97-.57,3.99-1.29,6.06-1.23.33.05.73.08,1-.25.42-.22.96-.03,1.33-.46.08-.07.32-.06.43,0,.85.46,1.8-.2,2.63.3.29.18.44-.18.26-.45h1.04s0,.09,0,.13h-.64c.08.21.15.38.22.57.23.02.45.05.68.07,0,.02,0,.05,0,.07-.27.02-.54.05-.89.08.73.36,1.47.23,1.7-.27-.24-.03-.46-.06-.68-.09,0-.01,0-.02,0-.04.2-.02.41-.04.66-.06-.11-.12-.19-.21-.27-.3.23-.66.93.06,1.4-.34.35-.18.65.03.75.45h1.62s0-.07,0-.11c-.25-.04-.5-.07-.75-.11v-.1c.91-.07,1.93-.35,2.79-.08.46.13.91.22,1.33-.13.03-.03.07-.08.1-.08.51.16,1.04-.21,1.56.07.26.14.61.1.95.15.13.44.22.97.91.87,0,.09,0,.09-.05.12-.03.02-.06.04,0,0,1.13.28,2.33.57,3.53.87,1-.17,2.07-.23,3.08-.24.03.22.06.37.08.55,1.38-.5.25.46,2.43.63-.08.09-.14.17-.23.28.49.25.98.49,1.46.73,0,.03-.01.06-.02.09-.17.02-.34.03-.58.05.38.49.89.61,1.42.6.56.49,1.23.78,1.7,1.45,1.19,1.8,1.93,3.02,1.92,5.22.89,2.85-2.81,4.74-5.08,5.73.29,2.17,1.2,4.21,1.34,6.26-.23.23-.36.36-.47.47-.07-.14-.18-.34-.34-.66-.11.39-.18.65-.25.93-.8-.68-2.7-1.22-2.46-2.42-.35-1.15-.93-2.29-1.3-3.44-.53-.37-1.08-.12-1.65-.02.08.02.16.04.34.08-.88.33-1.62-.07-2.36.57.24,2.05,1.67,4.23.66,6.2-.78.25-1.36-.08-1.61-.68-1.89.65-2.39-3.78-2.71-5.06-.49,0-.96-.01-1.42,0-.35.01-.73-.29-1.04.11-.7-.25-1.38-.07-2.18-.15-.22,2.3.2,4.53-.55,6.72-.12-.27-.19-.43-.3-.66-.14.19-.23.32-.34.47-2.2-1.15-2-1.84-2.04-4.15.04-.68.3-1.3-.36-2.01-1.28-.03-2.75-.06-4.31-.09-.14,1.91-.27,3.81-.59,5.7-.05.59-.61.27-.99.73-.22-.27-.64-1-1.05-.78-.78-.58-.5-1.31-.4-2.15-.92-.72.24-1.2-.61-1.99.6.06.06-1.22.18-1.7-1.28-.09-2.82.06-3.98-.69-1-.33-2.01,5.34-3.66,5.53-.48-.23-.62-.93-1.19-1.01-1.28-.52-.61-1.74-.03-2.53.33-.55.39-1.21.85-1.68.34-.39.28-.54-.23-.74-2.13-.64-4.32-1.53-5.96-3.04h-.01c.37,0,.76.49,1.11-.04.57-.05,1.98,1.42,2.3.73-.38-.33-.7-.61-1.03-.9.13-.04.2-.07.36-.12-.42-.12-.61-.5-.97-.54-.04.04-.07.09-.11.13.13.13.27.25.44.41-.7-.3-1.21-.91-2.12-.97.39.39.7.7,1.01,1.01-.54.07-.9-.5-1.44-.22h.01s0,0,0,0ZM30.01,8.57c-.46.65-.92,1.29-1.37,1.94.05.03.09.06.14.09.52-.61.98-1.26,1.22-2.04.45-.22.42-.74.68-1.09.02-.02-.07-.13-.14-.24-.37.41-.56.83-.53,1.34ZM3.1,8.57l-.03-.03c-.01-.08-.02-.16-.05-.34-1.06.73-.95,2.47-.29,3.39.34.03.41.23.48.52.11.4,1.14.56.81,1.03.72.31,1.09,1.12,1.85,1.31.43.11.51.33.78.34,0-.09.02-.18.03-.31.45.14.85.26,1.28.38v-.46c.63.55,1.36.47,2.02.65.93.44,1.89.39,2.9.49.48.05,1.03.39,1.5.29.28-.3.6-.13.89-.07.47-.04,1.65.74,1.74.06h.89c-2.17-3.37-3.99-7.63-1.58-11.34-3-.05-5.84.78-8.8,1.1-1.05.39-1.98,1.11-2.97,1.59-.77.17-1.05.78-1.43,1.38h0ZM33.33,15.75c.47-.9.79.07,1.41-.16.86.04,1.57-.26,2.29-.72,1.06-.21,1.91-.34,3.03-.43-.16-.1-.23-.14-.27-.16,2.38-.78,4.75-1.46,6.51-3.36-2.22-4.25-8.56-5.69-12.97-6.32,2.64,2.35,2.28,6.34.65,9.13-.15.44-.23.93-.63,1.27-.19.16-.33.45-.02.76h0ZM18.5,14.09c.12.65.96.62,1.11,1.23.07.01.11-.02.22-.04-.23-.65-.83-.86-1.33-1.19h0ZM13.88,18.6c.44.17.8.01,1.14-.23-.41-.15-.82-.29-1.14.23ZM27.72,12.43c.29-.47.53-.86.77-1.24-.46.26-.83.58-.77,1.24ZM10.36,4.39c.53.18.86.09,1.37-.36-.49.13-.91.24-1.37.36ZM28.01,19.09s.02.08.03.11c.37-.03.73-.06,1.1-.09,0-.05,0-.09-.01-.14-.37.04-.74.07-1.11.11h0ZM15.97,17.52c-.27.02-.54-.15-.76.05.16.11.31.2.46.29.12-.14.33-.18.3-.35h0ZM19.59,1.87c-.24-.11-.58-.11-1.03,0,.4-.04.71.35,1.03,0ZM29.37,7.39s-.09-.07-.14-.1c-.11.16-.22.32-.4.57.43-.06.43-.31.54-.47ZM18.17,8.03s.09.05.14.07c.09-.21.18-.42.27-.62-.05-.02-.1-.04-.15-.07-.08.21-.17.41-.25.62ZM26.16,12.82s.06.05.09.08c.1-.11.2-.22.3-.33-.03-.03-.07-.06-.1-.08-.1.11-.2.23-.3.34h0ZM17.72,16.26s.02.09.02.14l.55-.05c0-.05-.01-.11-.02-.16-.19.02-.37.04-.56.07ZM20.9,1.66s0,.06,0,.08h.47s0-.04,0-.06c-.16,0-.31-.02-.47-.02h0Z"/>
        <path d="M36.9,2.04c-.09.03-.19.06-.29.09-.04-.07-.06-.2-.12-.21-.77-.25-1.35-.78-2.22-.71,0-.04,0-.08,0-.13.14-.04.28-.07.51-.13-.19-.05-.29-.08-.4-.11.22-.15.68-.05.88.26.51.24,1.44.17,1.65.94h0Z"/>
        <path d="M45.9,5.34c-.39-.15-.66-.45-.94-.74.42.11.79.3.92.75l.02-.02Z"/>
        <path d="M46.42,5.89c.14.1.29.2.43.3-.06.05-.11.09-.17.14-.08-.15-.16-.3-.24-.45l-.02.02h0Z"/>
        <path d="M1.36,14.83h-.01c.18.15.55.13.45.52h.01c-.19-.14-.48-.19-.45-.52Z"/>
        <path d="M45.89,5.35c.18.18.35.36.53.53,0,0,.02-.02.02-.02-.3-.05-.45-.32-.55-.51Z"/>
        <path d="M3.1,8.57c-.01.15-.02.3-.04.58-.12-.25-.12-.45.01-.61.2-.23.03.03.03.03h0Z"/>
        <path d="M6.98,14.34c-.13-.06-.26-.12-.39-.19.01-.03.02-.06.04-.09.14.05.28.1.42.15-.02.04-.04.08-.06.13Z"/>
        <path d="M5.47,13.41c.09.07.18.15.28.22-.01.02-.02.04-.03.06-.11-.06-.22-.11-.33-.17.03-.04.06-.07.08-.11h0Z"/>
        <path d="M5.03,13.28c-.1-.08-.2-.16-.31-.24.02-.03.04-.05.06-.08.1.08.21.15.31.23-.02.03-.04.05-.06.08Z"/>
        <path d="M2.98,9.38c.03.1.05.2.08.3-.02,0-.05.02-.08.02-.04-.09-.08-.19-.11-.28l.11-.04h0Z"/>
        <path d="M35.22,15.29c-.27.06-.55.12-.82.18,0-.03-.01-.07-.02-.1.28-.05.55-.11.83-.16,0,.03.01.06.02.08h0Z"/>
      </g>
    </g>
  </g>
</svg>