<?xml version="1.0" encoding="UTF-8"?>
<svg id="Layer_2" data-name="Layer 2" xmlns="http://www.w3.org/2000/svg" viewBox="0 0 48 20.15">
  <defs>
    <style>
      .cls-1 {
        fill: #fff;
      }

      .cls-2 {
        fill: #131414;
      }
    </style>
  </defs>
  <g id="Layer_1-2" data-name="Layer 1">
    <g id="uuid-953aaa62-5577-4555-9bbc-e9fe3432a9de" data-name="Layer 1-2">
      <g>
        <path class="cls-1" d="M48,11.58s-5.08,6.42-15.63,8.14c-.03.01-.07.01-.11.01-4.27.69-9.44.61-15.53-.98-4.9-1.28-10.41-3.55-16.53-7.17-1.57-.93,6.37-7.11,15.61-10.04C18.95.54,22.23-.08,25.35,0c1.3.04,2.58.19,3.81.5.62.16,1.22.32,1.8.49,11.54,3.46,17.04,10.58,17.04,10.58h0Z"/>
        <path class="cls-2" d="M32.26,19.73c-4.27.69-9.44.61-15.53-.98-.25-5.35-.62-11.97-.92-17.22C18.95.54,22.23-.08,25.35,0c1.3.04,2.58.19,3.81.5.62.16,1.22.32,1.8.49l1.3,18.73h0Z"/>
      </g>
    </g>
  </g>
</svg>