<?xml version="1.0" encoding="UTF-8"?>
<svg id="Layer_2" data-name="Layer 2" xmlns="http://www.w3.org/2000/svg" viewBox="0 0 48 19.45">
  <g id="Layer_1-2" data-name="Layer 1">
    <g id="uuid-4bac7c6b-27f9-42b8-a381-f8c4205b849c" data-name="Layer 1-2">
      <g>
        <path d="M7.82,7.28c-.02-.3-.19-.54-.31-.8h0c.78.72,1.47-.4,1.99.04.06.06.28-.02.49-.05-.23-1.27-.57-2.63-1.87-3.2-.16-.1-.32-.45-.25-.62.34-.56,1.21.65,1.43.99.12-.93-1.08-.92-1.05-1.69.01-.2.06-.43.31-.52.06-.02.1-.12.13-.19.97-1.42,2.24.54,2.48,1.53-.15.33.04.56.21.81.44.83.59,1.72.91,2.64.58-.17,1.1-.45,1.67-.38.31.68,1.47-.23,2.12,0,.69.1-.1-1.93-.14-2.33-.31-.63-.93-1.16-.35-1.91-.3-.26-.25-.59-.14-.95h.19c.15-.2.28-.38.44-.59,1.1,1.5,1.89,3.2,2.22,5.03.44-.02.85-.05,1.26-.07-.33.19-.71.07-1.1.15.21.12.5-.05.58.24.53-.03,1.1.08,1.55-.23.49-.28,1.59-.07,1.52-.86.19-.91-.92-4.17-.16-4.33.46-.08.11.61.56.54.15.26.26.61.61.7.12.06.29.14.31.23.07.33.33.57.36.92.02.28.02.59.21.85.13.48.07.99.13,1.52.67.02,1.22.02,1.81-.15.73.3,1.54.09,2.31.16.45-.11.07-.4.82-.29.15-.36,0-.7-.08-1.04.37-.86.34-1.66.27-2.61.34.37.41.58.91.73.17.25.12.65.1,1.05.17.03.31.05.46.08v1.74c.18.07.33.13.49.19-.16-.08-.31-.08-.45.06.15-.01.32.13.44-.07.14-.03.29-.07.43-.1.01.03.03.06.04.09-.05.04-.09.08-.14.13.31.12.87-.17,1.06.31-.12.02-.24.05-.35.07v.04c.72-.03,1.43-.06,2.15-.09-.01-.11-.02-.21-.04-.36.54-.02,1.39.41,1.49-.39.36-1.08.58-2.22.65-3.37,0-.15-.1-.48.31-.49.08.29.16.58.25.89.1-.05.22-.1.37-.16.21.39.22.77.18,1.2.11-.04.2-.07.3-.1.55.82-.18,1.83-.27,2.76.3.14.93-.05.95.42.38.14.98.47,1.4.41-.14-.32-.14-.32.13-.55.24-.19.32-.5.5-.71.2-.24.26-.62.61-.74.03,0,.05-.07.06-.12.27-.88.97-1.48,1.26-2.39.11.12.21.22.32.34-.06.14-.12.28-.18.42.01.01.02.03.03.04.08-.07.15-.14.27-.25-.02.19-.04.33-.07.52.63-.12.46-.76.86-1.02.11-.06.17-.23.33-.32-.06.32-.12.65-.18,1.03.16-.08.27-.13.38-.18.02.02.04.03.06.05-.16.3-.53.75-.45,1.08.47.55-1.21,2.79-1.61,3.39.52.31,1.32.2,1.57.78.03.21.28.27.46.35.99.35,1.91.85,2.78,1.43.21.14.46.31.37.64.41.63.46,1.42.51,2.15.18,2.71-2.46,3.89-4.61,4.74-8.9,3.65-34.01,4.37-42.13-.85.08,0,.12-.01.19-.02.05-.68-1.72-.37-1.4-2.12.57-2.71,2.79-4.43,5.27-5.37-.95-1.49-2.07-2.94-2.56-4.63.02-.54.8-.75.79-1.39.29.07.46.26.61.55.06-.21.11-.38.17-.63.41.65.76,1.24,1.16,1.85h0c.56,1.15,1.22,2.18,2.13,3.1-1.1.5-1.43-1.51-2.3-1.88.02-.31-.08-.56-.43-.78.11.36.18.62.44.77.33.71.74,1.48,1.39,1.95.17.06.25.13.25.33,0,.17.14.24.3.17.2-.09.38-.21.57-.32.18,0,.39.1.55-.16-.21.06-.38.11-.55.16h0ZM41.26,4.67c-.16.06-.38.05-.32.41.13-.18.22-.3.31-.43.16.05.22,0,.27-.15-.15-.03-.23,0-.26.16h0ZM41.84,3.49c.31.14.35-.08.44-.3-.29-.07-.27.24-.43.3-.03.16-.07.33-.1.49.12-.15.45-.29.09-.49h0ZM39.25,6.15c.13.06.25.12.38.18-.11-.1-.11-.48-.39-.17-.28-.31-.5-.38-.92-.25.35.09.64.16.93.23h0ZM32.57,8.57c.11.09.17.16.33.18-.03-.13-.06-.22-.1-.36-.1.08-.16.13-.23.18.07-.67-1.13-1.35-1.71-1.27.64.37,1.35.59,1.71,1.27h0ZM22.15,16.48c-.02.05-.05.11-.07.16.35.11.71.21.73-.1.92.04,1.82.21,2.73-.06.17.27.36.09.55,0h-.54c1.28-.56.88.1,1.93-.22.62-.01,1.1-.5,1.72-.38.11.03.33-.03.38-.11.28-.46.97-.18,1.17-.66.12-.23.33-.27.51-.39.65-.29,1.07-.89,1.59-1.35.86-.98-.16-2.46-.89-3.25-.86-.9-2.07-1.34-3.22-1.64-1.3-.71-2.97-.31-4.4-.16-1.92-.15-3.79.63-5.52,1.42-.69.33-2.2,1.71-2.12,2.45.22.81.81,1.18,1.43,1.78.05-.1.08-.16.14-.28.24.25.34.5.43.82.62,1.1,2.45,1.22,3.46,1.95h0ZM1.8,12.03c-.08.28-.15.55.25.65.29.6,1,.77,1.46,1.21.55.47,1.21.55,1.86.8.6.28,1.21.75,1.89.7-.15-.15,0-.13.08-.12,1.87.36,3.71.96,5.62.96.41-.09.97-.21,1.23.4,1.15-.55.71.51,2.93-.15-1.24-1.1-2.14-2.74-1.56-4.42.43-1.42.91-3.04,2.4-3.69-.51-.54-1.34,0-1.98-.06-2.6.19-5.25.63-7.68,1.47-.51-.22-.99.13-1.46.07-.27-.19-.46.19-.7.24-1.45.59-3.18.7-4.28,1.85-.02.03-.04.07-.06.1h0ZM32.52,7.48c1.55,1.13,1.76,2.96,1.84,4.69.25.12.1.26.01.34-.16.14-.27.26-.15.48-.21,1.16-.53,2.24-1.38,3.13,2,0,3.92-.8,5.93-.85.44-.1.02-.41.9-.36,1.27-.04,2.55-.23,3.76-.73,0-.02,0-.05,0-.07-.16-.02-.32-.04-.56-.07.73-.4,1.29-.61,2.05-.83.64-.43,1.2-.92,1.87-1.33-1.43-1.89-3.73-2.35-5.8-3.18-.59-.25-.83.78-1.48.42-.07-.28-.14-.53-.21-.81-.74-.36-5.99-1-6.78-.83h0ZM14.52,6.34c-.74-.08-1.26.52-2,.65.17.43.38.4.75.34,0-.32.26-.17.4-.23.21-.08.44-.11.66-.17,0-.02,0-.03,0-.05-.13-.01-.27-.02-.48-.04.33-.08.59-.14.86-.21-.08-.12-.13-.19-.2-.29h0ZM29.14,4.87c-.56-.35-.54.36-.87.47h.7c.06-.17.11-.31.17-.47ZM28.12,16.44c-.53-.07-1,.13-1.47.31.49-.09,1.01-.04,1.47-.31ZM10.59,7.64c-.24-.04-.5.02-.8.16.49.18.59.16.8-.16ZM10.37,1.76c-.03-.29-.14-.45-.43-.48.05.25.11.45.43.48ZM13.37,16.34s-.01.07-.02.11c.18-.02.35.24.56,0-.19-.04-.36-.07-.54-.1h0ZM15.94,6.15c-.15.02-.29.05-.44.07,0,.02,0,.05,0,.07.16.03.31.06.49.1-.02-.11-.04-.17-.05-.24ZM35.54,5.2s.01-.08.02-.12h-.6s0,.03,0,.05c.19.02.39.05.58.07ZM8.37,15.68c-.1-.05-.18-.09-.28-.14-.04.11-.08.21-.14.35.16-.08.28-.14.42-.21h0ZM34.53,16.16c.14.01.26.06.28-.17-.11.07-.19.11-.28.17ZM5.32,9.96s0,.02-.01.03c.1.02.2-.05.29-.07,0-.02-.02-.04-.03-.06-.08.03-.17.07-.25.1h0ZM27.93,5.03s-.02-.06-.03-.09c-.09.02-.18.04-.28.06v.06c.11,0,.21-.02.3-.03h0ZM21.46,18.97s.01.04.02.06c.1,0,.2-.01.3-.02,0-.02,0-.05,0-.07-.1,0-.21.02-.31.02h0Z"/>
        <path d="M30.41,1.18c.39.24.43.39.21,1.03.01-.14.02-.28.03-.44-.16-.13-.24-.33-.25-.59h0Z"/>
        <path d="M44.35,6.75c-.41.04-.78-.03-1.08-.34.36.11.72.22,1.08.34Z"/>
        <path d="M27.33,4.57c.33-.24.63-.18.94,0h-.94Z"/>
        <path d="M11.98,4.38c.09.24.17.48.29.81-.33-.23-.3-.52-.38-.76.03-.02.06-.03.09-.05Z"/>
        <path d="M20.25,4.94c.24-.18.5-.2.77-.05-.26.02-.51.03-.77.05Z"/>
        <path d="M5.5,3.53l-.12-.41s.05-.02.08-.03c.08.16.15.31.26.52-.12-.05-.17-.07-.22-.1,0,0,.01,0,.01,0Z"/>
        <path d="M5.47,3.95s0,0,0,0c0-.14.01-.28.02-.42,0,0-.01,0-.01,0,.06.15.13.31.21.51-.1-.04-.16-.06-.23-.09h0Z"/>
        <path d="M32.58,4.63h.58s0,.01,0,.02h-.58s0-.01,0-.02h0Z"/>
        <path d="M7.11,6.04c.13.15.26.31.4.46h0c-.26-.05-.36-.23-.4-.47h0Z"/>
        <path d="M44.67,1.51v-.56s.06,0,.1,0c-.03.18-.06.37-.1.55Z"/>
        <path d="M37.87,1.76v-.26s.04,0,.06,0v.26h-.06Z"/>
        <path d="M6.78,5.6c.29,0,.31.22.33.43,0,0,0,0,0,0-.11-.14-.23-.28-.34-.42h0Z"/>
        <path d="M15.21,5.52c-.1,0-.19,0-.29.01,0-.02,0-.04,0-.05h.29s0,.03,0,.04h0Z"/>
        <path d="M6.78,5.6c-.06-.13-.12-.26-.19-.39.13.1.3.18.19.39Z"/>
        <path d="M33.91,4.83c-.06-.04-.01-.06.02-.1.02.02.03.04.05.06-.02.01-.05.03-.07.05h0Z"/>
        <path d="M44.67,1.51c-.1.07-.19.14-.29.21.03-.14.13-.21.29-.2.24,0,0,0,0,0h0Z"/>
        <path d="M1.03,15.4c.04.09.06.14.07.19-.13.06-.21-.06-.07-.19Z"/>
        <path d="M1.86,11.93s.09.08.14.12c-.04.04-.08.07-.12.1-.03-.04-.05-.09-.08-.13.02-.03.04-.07.06-.1Z"/>
        <path d="M34.41,9.25c-.05.09-.08.17-.12.25-.07-.14-.03-.23.12-.25Z"/>
        <path d="M33.35,7.63c.08.09.16.18.29.33-.15-.06-.25-.17-.29-.33Z"/>
        <path d="M23.98,14.83h.2c-.16-.23-.41-.21-.65-.24-.73-.12-1.64-.23-2.15-.79-.75-1.12-.17-3.33.91-4.1.96-1.02,2.4-.93,3.68-.69,0,.04-.02.1-.04.21.15.03.27.15.43-.04.49-.27,1.24-.01,1.6.42.33-.12.72-.26.96.11.2.41.65.74.68,1.21,0,.15-.16.35-.11.44.09.53-.23,1.05-.32,1.58-.2.69-.82,1.44-1.79,1.51-1.05.47-2.27.73-3.38.37h0s0,.01,0,.01ZM26.41,11.57c-.8-.28-1.85-.72-2.65-.08.38.13,2.26.19,2.65.08ZM24.73,14.42s0,0,0,.01h.28s-.28-.01-.28-.01Z"/>
        <path d="M24.59,16.31c-.4.28-.77.13-1.18.15.37-.33.76-.18,1.18-.15Z"/>
        <path d="M17.14,12.35c.34.04.42.5.67.76-.46,0-.46-.48-.66-.77h0Z"/>
        <path d="M20.19,15.08c.14.11.26.22.39.32-.2-.02-.33-.12-.39-.32Z"/>
        <path d="M23.04,16.19c-.19-.03-.37-.06-.56-.09,0-.04.01-.08.02-.12.19.04.39.08.58.12-.01.03-.03.06-.04.09Z"/>
        <path d="M17.15,12.35c-.06-.23-.12-.46-.18-.69.03,0,.07-.01.1-.02.11.22.19.48.08.71h0Z"/>
        <path d="M23.98,14.82c-.12.12-.23.1-.33-.07.11.03.21.06.32.08,0,0,0-.01,0-.01Z"/>
      </g>
    </g>
  </g>
</svg>