<?xml version="1.0" encoding="UTF-8"?>
<svg id="Layer_2" data-name="Layer 2" xmlns="http://www.w3.org/2000/svg" viewBox="0 0 48 22.32">
  <defs>
    <style>
      .cls-1 {
        fill: #fff;
      }

      .cls-2 {
        fill: #131414;
      }
    </style>
  </defs>
  <g id="Layer_1-2" data-name="Layer 1">
    <g id="uuid-4b5af5fd-3df8-4e4a-8663-654587050282" data-name="Layer 1-2">
      <g>
        <path class="cls-1" d="M48,11.16c0,6.17-10.74,11.16-24.01,11.16-1.33,0-2.62-.05-3.89-.14C8.71,21.32,0,16.72,0,11.16S8.7,1.02,20.08.16c1.26-.1,2.58-.16,3.91-.16,13.26,0,24.01,5.01,24.01,11.16Z"/>
        <path class="cls-2" d="M30.11,11.3c0,4.41-3.87,8.35-10,11.02C8.71,21.46,0,16.86,0,11.3S8.7,1.16,20.08.3c6.14,2.66,10.03,6.6,10.03,11h0Z"/>
      </g>
    </g>
  </g>
</svg>