<?xml version="1.0" encoding="UTF-8"?>
<svg id="Layer_2" data-name="Layer 2" xmlns="http://www.w3.org/2000/svg" viewBox="0 0 48 44.36">
  <g id="Layer_1-2" data-name="Layer 1">
    <g id="_ÎÓÈ_1" data-name=" ÎÓÈ 1">
      <g>
        <path d="M16.28,16c-4.56,2.17-9.28,4.51-12.62,8.41-1.5,1.75-2.7,3.79-3.29,6.04-.54,2.06-.51,4.24.16,6.26.64,1.95,1.88,3.73,3.61,4.86,2.07,1.35,4.64,1.7,7.06,1.45,2.72-.28,5.3-1.26,7.74-2.47.31-.15.61-.31.92-.46.13-.07.25-.13.38-.2.08-.04.15-.08.23-.12.05-.03.1-.05.15-.08-.09.03-.17.06-.27.08-.17.03-.09,0,.02.05.08.04.16.09.23.15.2.18.25.44.32.68.33,1.08.83,2.19,1.72,2.93.74.61,1.76.85,2.7.77,1.05-.09,2.25-.5,2.79-1.48.44-.81.25-1.73-.08-2.54-.36-.89-.88-1.72-1.14-2.65-.12-.42-.18-.87-.11-1.31-.34.14-.69.29-1.03.43-.12,0-.03,0,.03,0,.04,0,.15.02.05,0,.09.02.17.04.26.07.07.02.09.03.18.09.08.05.16.1.24.16.3.23.54.53.74.85.47.73.8,1.53,1.27,2.25.44.69,1.01,1.31,1.85,1.46,1.43.25,3.17-.49,3.64-1.93.49-1.5-.14-2.96-.8-4.3-.26-.53-.64-1.15-.38-1.75.03-.08.08-.15.11-.18.01-.01.11-.11.07-.07-.05.04.02-.01.03-.02.06-.04.04,0,.02-.01,0,0-.06.03,0,0-.17.08-.09.04-.05.02.02,0,.1-.04-.02,0-.17.07.11-.02-.07.02-.12.03-.04.01-.01,0,.09-.02-.02-.02-.05,0,.03-.02.23,0,.07,0,.05,0,.09,0,.14,0,.03,0,.06,0,.09.01,0,0-.07-.01-.01,0,.12.02.23.05.34.09.18.06.36.17.51.3.51.42.8,1.06,1.08,1.64.28.59.55,1.2,1.01,1.68.4.42.93.74,1.51.84.78.13,1.67-.08,2.29-.57.61-.49.75-1.18.75-1.92,0-1.5-.39-3-1.1-4.33-.17-.33-.37-.64-.58-.95l-.17.23c.36-.24.65-.41,1.02-.6.19-.09.38-.19.58-.27.04-.02.09-.04.13-.06.13-.06.06-.02.03-.01.11-.05.22-.09.33-.14.83-.34,1.67-.64,2.48-1.01,1.59-.73,3-1.76,3.8-3.36.74-1.48.92-3.21.77-4.84-.15-1.59-.63-3.14-1.35-4.57-1.45-2.83-3.87-5.17-6.84-6.34-3.71-1.46-7.77-.6-11.35.86-1.97.81-3.88,1.77-5.8,2.7-1.99.97-3.98,1.93-5.96,2.9-.5.24-.99.48-1.49.73-.14.07-.48.31-.17.41.31.09.74-.04,1.02-.18,1.93-.94,3.87-1.88,5.8-2.82,1.88-.91,3.74-1.85,5.64-2.72.89-.41,1.74-.77,2.67-1.1.49-.18.81-.28,1.3-.41.23-.06.46-.12.69-.18.05-.01.11-.03.16-.04-.09.02.04,0,.05-.01.14-.03.27-.06.41-.08,1.62-.29,3.35-.26,4.97.23,2.93.88,5.41,3.01,6.98,5.61,1.59,2.64,2.43,6.05,1.48,9.06-.23.74-.58,1.46-1.07,2.06-.25.3-.52.59-.82.83-.28.23-.65.47-.92.62-.35.19-.71.36-1.08.52-.13.06-.06.02-.03.01-.05.02-.11.05-.16.07-.09.04-.18.07-.26.11-.21.08-.42.17-.63.25-.81.32-1.62.63-2.39,1.03-.38.2-.75.42-1.11.66-.03.02-.22.16-.17.23.83,1.2,1.38,2.57,1.58,4.01.05.37.08.73.09,1.1,0,.36.01.73-.11,1.07-.1.3-.28.48-.47.67-.05.05.02-.01.04-.02.08-.03,0,0-.02,0,.04-.01.09-.03.13-.04.01,0,.18-.03.09-.02-.06.01,0,0,.02,0-.03,0-.06,0-.08,0-.02,0-.09-.01-.15-.03-1.25-.31-1.73-1.58-2.24-2.62-.27-.54-.6-1.14-1.1-1.5-.38-.27-.86-.42-1.32-.45-.98-.07-2.54.32-2.66,1.5-.07.69.38,1.32.66,1.92.31.65.59,1.33.71,2.04.12.7.06,1.46-.27,2.09-.13.24-.3.46-.52.61-.02.01-.15.09-.08.06-.04.02-.08.04-.12.06.01,0,.09-.03.02-.01-.08.02.03,0,.04-.01-.03.01-.11,0-.03,0,.17,0-.02,0-.03,0,0,0-.1,0-.14-.01-.09,0,.05.01-.04,0-.1-.02-.2-.05-.29-.08-.1-.04-.28-.14-.41-.24-.31-.23-.55-.53-.76-.84-.47-.7-.8-1.48-1.23-2.2-.39-.65-.9-1.28-1.67-1.48-.25-.06-.51-.07-.76-.07-.22,0-.45.07-.65.16-.1.04-.36.14-.38.27-.31,1.9,1.26,3.35,1.54,5.14.06.41.04.82-.13,1.2-.08.17-.17.33-.3.47-.04.04-.07.07-.11.11-.07.07-.04.03-.02.02-.04.03-.09.06-.13.09q-.06.04,0,0s-.06.03-.09.05c-.15.08.1-.05,0,0-.08.04-.08.08.01,0-.02.02-.24.05-.01,0-.05.01-.11.02-.16.03.17-.03-.1,0-.15,0,.13,0-.05,0-.07,0-.07,0-.13,0-.2-.01-.34-.03-.77-.17-1.11-.36-.94-.53-1.5-1.54-1.86-2.53-.17-.46-.22-1.05-.62-1.39-.5-.42-1.28-.32-1.84-.12-.62.22-1.2.6-1.78.89-.59.29-1.18.58-1.78.84-1.12.49-2.21.88-3.41,1.14.14-.03-.11.02-.11.02-.08.02-.15.03-.23.04-.13.02-.25.05-.38.07-.33.05-.51.07-.82.1-.57.05-1.13.06-1.71.02-1.12-.07-2.25-.32-3.27-.78-1.87-.84-3.32-2.39-4.18-4.24-.84-1.81-1.16-3.89-.88-5.87.31-2.2,1.26-4.28,2.54-6.08,2.81-3.94,7.14-6.38,11.4-8.46.55-.27,1.09-.53,1.64-.79.14-.07.48-.31.17-.41s-.74.05-1.02.18h0Z"/>
        <path d="M13.39,17.66c-.64-1.45-1.22-2.92-1.73-4.42-.51-1.49-.98-3.02-1.3-4.56-.18-.87-.28-1.78-.07-2.65-.47.13-.94.25-1.4.38,2.11,1.45,3.9,3.33,5.23,5.52.12.19.62.04.78,0,.13-.04.71-.18.68-.39-.49-3.1-2.58-5.81-2.44-9.03.04-.83.24-1.64.67-2.36-.47.13-.94.25-1.4.38,2,1.71,3.76,3.7,5.21,5.9.41.62.79,1.25,1.14,1.9.17.3,1.55-.18,1.46-.39-.43-.96-.68-2-.73-3.05-.03-.53,0-1.06.07-1.59.03-.2.06-.41.13-.6.03-.08.08-.15.12-.23.01-.02.03-.03.04-.05-.16.27-1.18.08-.78.24.19.08.35.26.47.42.18.24.35.48.52.72.34.47.68.94,1.02,1.41.68.94,1.36,1.88,2.04,2.83.78,1.08,1.56,2.15,2.33,3.23.14.19.6.05.78,0,.06-.02.78-.25.68-.39-1.51-2.09-3.01-4.17-4.52-6.26-.39-.54-.78-1.08-1.17-1.62-.32-.44-.62-.91-1.22-.92-.42,0-.92.13-1.29.34-.22.13-.38.3-.47.54-.18.47-.21,1.03-.23,1.53-.06,1.31.2,2.63.73,3.83.49-.13.97-.26,1.46-.39-1.28-2.33-2.89-4.47-4.77-6.35-.53-.53-1.09-1.04-1.66-1.53-.14-.12-.6,0-.74.05-.2.06-.55.13-.66.33-1.66,2.83-.03,6.09.99,8.82.33.87.61,1.76.76,2.68.49-.13.97-.26,1.46-.39-1.35-2.22-3.17-4.14-5.31-5.61-.17-.11-.57,0-.74.05-.12.03-.24.07-.36.12-.05.02-.29.12-.3.2-.38,1.57.1,3.17.53,4.68.43,1.54.93,3.05,1.5,4.54.33.85.68,1.69,1.05,2.52.09.2.64.04.78,0,.09-.02.75-.21.68-.39h0Z"/>
        <path d="M24.79,24.58c-.75,1.12-.89,2.57-.86,3.89.01.53.08,1.1.33,1.58.3.56.8.93,1.44,1.02.83.12,1.66-.12,2.42-.43.65-.26,1.41-.59,1.66-1.31.22-.64-.12-1.32-.46-1.86-.41-.66-.91-1.28-1.37-1.91-.26-.36-.52-.72-.78-1.08-.21-.3-.42-.61-.76-.78-.46-.22-1.07-.1-1.48.17-.32.2-.59.57-.33.92.07.09.27.11.36.11.17,0,.37-.04.53-.11.18-.08.54-.28.37-.52-.04-.06.02-.08,0-.11,0,0-.01.01-.02.02-.14.09-.31.14-.49.14-.01.1-.13-.13,0,.03.06.07.16.13.23.21.09.11.17.22.26.34.39.54.78,1.08,1.17,1.61.37.51.77,1,1.09,1.55.24.41.49.96.32,1.45-.06.18-.21.33-.32.39,0,0-.19.1-.08.05-.06.03-.12.05-.18.08-.15.06-.3.12-.45.18.02,0-.2.07-.11.04.09-.03-.13.04-.12.04-.07.02-.14.04-.21.06-.21.05.12,0-.09.02-.19.02-.37.04-.63-.07-.82-.37-.94-1.45-.95-2.23-.01-1.15.11-2.48.76-3.46.17-.26-.15-.37-.36-.37-.29,0-.72.1-.89.36h0Z"/>
        <path d="M24.77,24.85c-.89,1.6-.86,3.58,0,5.18.12.23.53.25.75.19.25-.08.52-.25.55-.54.18-1.36.17-2.74,0-4.11-.04-.31-.49-.37-.72-.33-.29.05-.61.24-.65.55-.14,1.08-.14,2.16-.03,3.24.09.89.23,1.89,1,2.47.38.29,1.14.05,1.2-.45.25-1.89.1-3.83-.46-5.65-.09-.3-.45-.37-.72-.33-.26.04-.65.24-.65.55,0,.83.09,1.67.26,2.48.09.4.19.79.32,1.17.12.37.25.78.45,1.12.29.48.95.48,1.4.25.41-.21.64-.63.62-1.09-.03-.81-.18-1.63-.39-2.41-.24-.89-.59-1.75-1.01-2.57-.12-.23-.54-.25-.75-.19-.23.07-.55.26-.55.54-.03,1.75.72,3.41,2.02,4.58.25.22.74.12.97-.07.7-.58.31-1.34.01-2.01-.35-.78-.71-1.57-1.06-2.35-.16-.36-.29-.83-.6-1.08-.4-.32-1.07-.24-1.42.12-.38.41-.13.82.08,1.24.17.34.36.67.56.99.45.74.98,1.44,1.55,2.08.21.24.55.27.84.16.23-.09.57-.35.46-.64-.28-.71-.6-1.4-.98-2.06-.19-.32-.38-.64-.59-.94-.21-.31-.43-.66-.71-.9-.38-.33-1-.31-1.39,0-.3.24-.39.58-.35.95.03.32.2.61.34.89.16.31.33.62.52.91.45.69.99,1.31,1.6,1.86.25.23.74.12.97-.07.26-.21.31-.51.06-.74-.53-.49-1-1.05-1.4-1.66-.19-.29-.37-.6-.52-.91-.06-.13-.13-.27-.18-.4-.02-.06-.03-.12-.04-.19.01.11,0-.07.01-.09-.02.07-.02.07,0,.01-.03.05-.06.09-.11.12-.21.15-.41.19-.6.1-.02-.03,0-.02.04.03.11.16.24.31.35.46.22.3.42.61.61.93.4.66.74,1.35,1.02,2.07.43-.16.86-.33,1.29-.49-.48-.54-.92-1.11-1.32-1.71-.19-.3-.38-.6-.55-.91-.08-.15-.16-.3-.24-.45-.04-.09-.08-.18-.13-.26-.06-.1,0-.04-.02.01-.06.08-.13.16-.19.24-.12.04-.23.08-.35.12-.06,0-.13-.02-.19-.03-.08-.03-.13-.13-.05,0,.05.08.04.07.09.17.09.21.19.42.29.63.2.44.39.87.59,1.31.19.42.38.85.57,1.27.07.16.14.31.18.48,0,.04.02.07.02.11,0-.06,0-.01,0,.02,0,.06,0,.07,0,.03,0-.03,0-.03,0,0-.01.03-.01.03,0,0,.01-.03.03-.05.06-.07.32-.02.65-.05.97-.07-1.06-.95-1.7-2.41-1.68-3.85-.43.12-.87.23-1.3.35.59,1.15.99,2.4,1.18,3.68.04.29.1.58.09.87,0,.04-.01.15-.01.15.03,0,.09-.07.12-.09.12-.05.22-.05.34-.03-.33-.07.17.03.15.04,0,0-.07-.15-.08-.18-.25-.61-.45-1.24-.59-1.89-.16-.73-.24-1.46-.24-2.2-.45.07-.91.15-1.36.22.53,1.74.68,3.56.43,5.37l1.2-.45c-.14-.1-.2-.17-.3-.34-.08-.13-.13-.28-.18-.47-.12-.42-.17-.86-.21-1.29-.09-.96-.06-1.93.06-2.89-.45.07-.91.15-1.36.22.16,1.27.15,2.56-.02,3.83.43-.12.87-.23,1.3-.35-.73-1.35-.67-3.04.07-4.37.16-.3-.15-.58-.42-.61-.36-.04-.7.11-.88.43h0Z"/>
        <path d="M30.8,17.68c-.93.17-1.73.76-1.89,1.73-.13.78,0,1.75.72,2.2.35.21.78.3,1.18.36.44.07.89.11,1.34.09.94-.02,1.88-.21,2.76-.56,1.36-.55,2.87-1.65,2.85-3.27,0-.63-.27-1.28-.8-1.66-.74-.53-1.7-.49-2.55-.32-.92.18-1.85.46-2.73.77-.89.32-1.75.75-2.47,1.37-.21.18-.14.41.12.46.31.06.72-.05.96-.26.25-.21.44-.35.74-.52.07-.04.14-.08.21-.11.01,0,.11-.06.03-.02.03-.02.06-.03.09-.04.15-.07.31-.14.47-.2.15-.06.3-.11.45-.17.02,0,.13-.04.02,0,.03-.01.07-.02.1-.03.09-.03.18-.06.26-.08.32-.1.64-.19.97-.27.15-.04.31-.08.47-.12.08-.02.16-.04.24-.06.03,0,.07-.02.1-.02-.12.02.04,0,.06,0,.08-.01.16-.02.24-.03.03,0,.07,0,.1-.01.11,0-.08,0,.03,0,.18,0,.25,0,.42.03.5.11.86.52,1.02,1,.16.51.13,1.06-.11,1.54-.11.24-.29.47-.46.65-.22.23-.42.38-.66.52-.06.03-.11.07-.17.1-.04.02-.07.04-.11.06-.02,0-.11.06-.02.01-.15.07-.3.14-.46.2-.04.02-.09.03-.14.05-.01,0-.13.04-.03.01-.07.02-.14.04-.21.06-.08.02-.16.04-.25.06-.05.01-.09.02-.14.03-.13.03.16-.03-.07.01-.64.11-1.22.13-1.88.02-.32-.05-.71-.11-.96-.34-.26-.24-.34-.58-.38-.92-.05-.39-.04-.81.12-1.18.05-.11.14-.24.21-.32.02-.02.04-.04.07-.06.13-.12-.04.02.05-.04.06-.04-.01,0-.02,0,.07-.03.07-.03.02-.01-.03.01-.06.02-.09.02.25-.05.7-.15.77-.45.06-.29-.41-.31-.58-.28h0Z"/>
        <path d="M12.62,28.13c-.77.47-1.37,1.21-1.61,2.08-.23.81-.05,1.69.43,2.37,1.25,1.78,3.75,1.24,5.44.53,1.67-.7,3.39-2.17,3.36-4.14-.01-.81-.34-1.61-.95-2.16-.81-.72-1.87-.82-2.9-.61-.59.12-1.15.35-1.7.58-.47.2-.94.4-1.39.66-.46.26-.91.57-1.26.98-.16.18-.27.39-.26.64.01.33.28.45.57.49.3.04.74-.11.89-.4.16-.3-.14-.46-.39-.5.1.06.2.11.3.17,0-.01,0-.02,0-.04-.02.02,0,.04,0,0,0-.02.03-.07-.01-.01.05-.07.12-.13.18-.19.03-.03.06-.06.1-.09.14-.13-.07.05.08-.07.13-.1.27-.2.41-.28.04-.02.08-.05.11-.07.1-.06-.07.04.02-.01.09-.05.18-.09.27-.14.35-.17.7-.32,1.06-.47.18-.07.36-.15.54-.21.12-.04-.08.03.04-.01.05-.02.1-.03.15-.05.11-.03.22-.07.33-.09.05-.01.1-.02.15-.03.15-.03.07-.01.04,0,.1-.01.2-.03.3-.03.12,0,.32,0,.49.05.24.07.49.19.69.38.47.42.76,1.03.79,1.66.03.69-.24,1.4-.65,1.93-.2.27-.46.52-.71.71-.33.25-.56.39-.9.55-.67.32-1.34.54-2.05.61-.21.02-.27.02-.48,0-.18-.02-.32-.05-.51-.12-.26-.09-.51-.28-.71-.49-.48-.53-.7-1.25-.57-1.95.07-.36.22-.69.43-.99.07-.1.2-.25.32-.36.03-.03.06-.06.09-.08-.07.06.08-.06.08-.06.08-.06.17-.12.26-.17.23-.14.36-.46.09-.63-.29-.18-.7-.06-.97.1h0Z"/>
        <path d="M12.54,29.12c-.58,1.07-.42,2.4.35,3.33.06.07.28.07.35.07.15,0,.3-.04.44-.09.19-.06.51-.17.52-.4.05-1.07-.18-2.13-.67-3.08-.08-.16-.34-.13-.48-.12-.25.03-.52.11-.73.25-.79.54-.99,1.56-.59,2.4.19.4.51.86.89,1.1.3.2.68.16,1.01.07.33-.09.67-.27.78-.62.16-.49.09-1.03-.06-1.51-.15-.48-.39-.98-.67-1.41-.14-.2-.31-.34-.55-.37-.4-.05-.97.1-1.25.4-.32.34-.36.95-.29,1.39.13.95.84,1.71,1.63,2.19.19.12.4.25.62.32.41.14.97,0,1.32-.24.41-.28.36-.81.33-1.25-.04-.52-.16-1.03-.37-1.5-.17-.39-.43-.78-.84-.95-.59-.24-1.41.01-1.88.41-.37.32-.55.76-.56,1.25-.03.94.7,1.71,1.48,2.13.56.3,1.14.38,1.76.19.53-.16,1.01-.47,1.28-.97.24-.44.24-.98.2-1.47-.04-.57-.11-1.15-.21-1.71-.08-.46-.14-1.05-.66-1.2-.37-.1-.83,0-1.17.17-.26.13-.42.32-.53.58-.3.71-.3,1.57.02,2.27.39.86,1.21,1.41,2.16,1.31.58-.06,1.25-.33,1.49-.9.16-.37.12-.81.06-1.2-.08-.52-.21-1.02-.39-1.51-.09-.23-.18-.46-.29-.69-.11-.22-.21-.48-.39-.65-.21-.21-.54-.2-.82-.15-.34.06-.8.22-.95.57-.08.18-.07.42-.07.61,0,.25.02.5.06.74.16.88.64,1.89,1.47,2.32.9.46,2.43.09,2.64-1.01.07-.4.04-.82-.01-1.23-.05-.41-.13-.82-.3-1.2-.17-.37-.42-.7-.76-.92-.19-.12-.5-.07-.7,0-.18.05-.54.15-.6.36-.32,1.03-.45,2.27.37,3.12.5.52,1.25.55,1.88.22.53-.28.61-.87.57-1.42-.04-.5-.24-.98-.55-1.37-.2-.24-.45-.33-.76-.31-.43.03-.93.19-1.14.6-.39.78-.04,1.82.66,2.29.27.18.58.29.92.27.42-.03,1.02-.18,1.22-.61.11-.23.08-.54.04-.78-.06-.32-.18-.62-.37-.89-.14-.21-.54-.13-.74-.07-.17.05-.63.18-.61.43.1,1.09-.32,2.19-1.08,2.96-.18.18-.37.33-.58.47,0,0-.09.05-.03.02-.03.01-.05.03-.08.04-.06.03-.12.06-.19.09.1-.05-.06.02-.09.04-.03.01-.07.03-.1.04-.05.02-.05.02,0,0-.02,0-.05.01-.07.02-.14.03-.17.05-.31.06-.1,0-.29.01-.43,0-.29-.03-.58-.11-.84-.23-.57-.27-1.04-.77-1.26-1.36-.08-.21-.51-.12-.65-.09-.19.04-.63.15-.69.38-.2.69.12,1.43.7,1.84.72.51,1.7.54,2.54.39.18-.03.35-.08.51-.16.08-.04.24-.13.27-.23.07-.25-.45-.2-.55-.18-.19.04-.2.04-.41.04-.09,0-.26-.01-.38-.04-.29-.06-.57-.18-.81-.37-.43-.36-.69-.95-.53-1.5-.45.1-.9.19-1.35.29.23.63.72,1.16,1.31,1.47.76.4,1.64.46,2.47.32,1.52-.25,2.9-1.13,3.59-2.54.32-.65.46-1.39.39-2.12l-1.35.36c.17.26.3.55.36.86.03.14.04.29.04.43,0,.05,0,.1-.02.14,0,.02-.06.12-.03.1.09-.05.19-.1.28-.14.52-.22.61,0,.34-.12-.05-.02-.1-.06-.15-.09-.09-.06-.17-.13-.25-.21-.16-.16-.28-.36-.36-.58-.08-.22-.13-.46-.12-.69,0-.1.02-.2.05-.3.01-.05.03-.1.05-.15.01-.03.03-.07.04-.1.04-.06.03-.06-.02,0-.09.05-.19.1-.28.14.02,0,.04-.01.06-.02-.18.04-.35.08-.53.11-.18.01-.12-.01-.03.08.03.03.06.06.08.1.07.09.13.19.19.29.11.2.18.42.23.64.04.21.06.43.05.64,0,.13-.04.5-.14.56.09-.05.19-.1.28-.14.48-.19.59,0,.37-.11-.06-.03-.11-.07-.15-.1-.12-.09-.22-.19-.31-.31-.16-.21-.27-.47-.34-.73-.17-.66-.03-1.34.16-1.98-.43.12-.87.23-1.3.35.46.3.71.77.85,1.29.13.51.22,1.08.18,1.6,0,.13-.03.25-.07.37-.04.11-.11.19-.16.29-.03.05-.02,0,0,0,.04,0,.14-.06.19-.07.05-.01.16,0,.2-.03.04-.02-.02,0-.03,0-.1-.03-.22-.07-.32-.14-.52-.32-.85-.88-1.06-1.44-.12-.33-.2-.67-.23-1.02-.01-.17-.02-.34-.01-.51,0-.08,0-.16.02-.24,0-.03.01-.05.02-.08.04-.14.09-.07-.09.01l-.51.16s.04,0,.05-.01l-.32.02s-.09-.07,0,.01c.02.02.04.04.06.06.05.05.08.11.11.18.09.16.17.33.25.5.15.33.27.67.38,1.01.1.35.18.7.23,1.05.04.27.07.55.01.82-.02.11-.06.25-.13.34-.01.02-.07.08-.07.07,0,0,.12-.06.13-.07.22-.09.35-.04.28-.06-.27-.07-.48-.17-.69-.35-.4-.34-.63-.83-.73-1.34-.05-.28-.06-.58-.02-.86.02-.15.06-.31.11-.46.02-.07.05-.14.08-.2.14-.32.12-.02-.43.05-.11,0-.21.01-.32.02.31,0,.37.83.42,1.06.09.5.15,1.01.19,1.52.03.47.05.96-.16,1.39-.06.13-.17.25-.26.34-.09.09-.04.02-.02.02.05,0,.11-.04.15-.05.08-.02.23.02.07-.02-.05-.02-.11-.03-.16-.05-.75-.27-1.47-.94-1.62-1.74-.07-.38-.02-.81.22-1.12.04-.05.12-.1.15-.15-.12.04-.24.08-.36.13-.05,0-.1,0-.15.01,0,0,.04,0,.07.02.16.07.29.22.39.36.28.39.43.92.52,1.39.05.27.08.54.08.81,0,.11,0,.22,0,.32,0,.04-.02.08-.03.12,0,.04-.06.09,0,.05.09-.05.19-.1.28-.14.08-.02.17-.04.25-.07.11,0,.21-.01.32-.02-.14-.01-.32-.15-.43-.22-.15-.09-.3-.19-.44-.29-.29-.22-.56-.48-.76-.79-.2-.31-.34-.67-.38-1.04-.02-.17-.03-.35,0-.52.02-.1.04-.2.07-.29.01-.04.03-.08.05-.12,0-.02.07-.11.02-.07-.09.05-.19.1-.28.14-.09.02-.17.05-.26.07-.11,0-.21.01-.32.02-.05,0,.02.03.04.05.04.04.08.08.11.13.08.12.14.26.21.38.15.28.28.57.39.87.1.28.17.56.18.86.01.21.02.6-.15.76.07-.05.15-.1.22-.15.17-.05.34-.09.51-.14.09,0,.18.02.27.02-.27-.07-.55-.46-.7-.68-.18-.25-.31-.55-.37-.85-.1-.51.02-1.14.46-1.44-.4.04-.8.09-1.2.13.49.95.72,2.01.67,3.08.44-.14.87-.28,1.31-.42-.71-.85-.8-2.1-.27-3.06.13-.24-.47-.2-.55-.18-.26.05-.64.14-.79.4h0Z"/>
        <path d="M29.39,19.39c-.3.89-.1,1.87.54,2.56.59.63,1.48.94,2.33.98,2.01.08,4.12-1.06,5.2-2.76.52-.82.79-1.85.4-2.78-.45.12-.9.24-1.35.36.26.63.15,1.31-.2,1.88-.32.52-.85.9-1.35,1.15-.07.04-.14.07-.21.1-.07.03-.08.04-.03.01-.04.02-.08.03-.12.05-.07.03-.15.05-.22.08-.05.02-.04.01.02,0-.04.01-.09.03-.13.04-.02,0-.28.07-.15.04-.09.02-.18.04-.27.05-.02,0-.2.03-.1.01-.09,0-.18.02-.27.02-.25.01-.57,0-.85-.07-.32-.07-.61-.18-.9-.34-.19-.11-.5-.04-.7.01-.19.05-.52.14-.61.34-.23.5.17,1.01.64,1.18.73.26,1.57-.02,2.28-.21.67-.19,1.38-.33,2.02-.63.45-.21,1.01-.57.95-1.15-.03-.3-1.33,0-1.35.36-.02.26-.14.53-.32.73-.08.09-.17.17-.26.23-.03.02-.07.04-.1.06.04-.02.03-.02-.03.01-.07.03-.07.03,0,0-.07.02-.07.03-.02.01.05-.02.04-.01-.02,0,.09-.02.09-.02,0,0,.08,0-.16.01-.14,0-.16,0-.32-.02-.48-.05-.38-.07-.74-.2-1.09-.34-.24-.1-.65.04-.87.14-.07.03-.52.25-.32.37,1.52.9,3.62.53,4.95-.53.12-.1.05-.18-.06-.22-.69-.27-1.49-.09-2.18.07-.15.04-.29.07-.44.11-.04,0-.08.02-.12.03.08-.02.09-.02,0,0-.08.01-.15.03-.23.04.14-.02-.09,0-.12,0-.07,0-.08,0-.02,0-.04,0-.07,0-.11,0-.11-.01-.25-.05-.37-.11-.24-.1-.65.04-.87.14-.06.03-.53.27-.32.37,1.27.64,2.89.25,4.04-.47.52-.32.98-.75,1.38-1.22.38-.45.74-.93.97-1.48.24-.58.33-1.26-.02-1.82-.44.14-.87.28-1.31.42.39.41.6.97.6,1.54,0,.57-.25,1.1-.6,1.54-.17.21-.37.41-.59.59-.19.16-.4.29-.58.38-.07.03-.14.07-.2.1-.04.02-.04.02,0,0-.04.02-.08.03-.12.05-.01,0-.21.07-.07.03-.06.02-.12.03-.19.05-.08.02-.08.02,0,0-.04,0-.08.02-.13.02-.06.01-.13.02-.19.03.12-.01-.09,0-.09,0-.03,0-.2,0-.18,0-.26,0-.51.05-.75.15-.05.02-.45.2-.36.32.37.5,1.08.42,1.63.29.6-.14,1.14-.43,1.64-.78.85-.59,1.63-1.43,1.86-2.47.19-.89-.05-1.88-.73-2.52-.97-.91-2.47-.61-3.6-.24-.71.23-1.4.53-2.1.8-.37.14-.81.27-1.09.56-.2.21-.28.49-.07.72.06.07.28.05.35.05.17-.01.37-.05.53-.12.12-.05.57-.22.4-.4-.1-.11-.03-.29.03-.34-.05.04,0,0,.03-.01.06-.03.13-.05.19-.07.14-.06.28-.11.42-.17.5-.2.99-.4,1.5-.58.05-.02.1-.03.14-.05,0,0,.23-.07.11-.04.11-.03.22-.06.33-.09.14-.03-.16.03.08-.01.13-.02.09-.02.05-.01.12-.02.25-.02.37-.01.38.03.73.2,1.02.45.52.47.77,1.21.75,1.9-.02.8-.46,1.55-1.02,2.1-.32.32-.69.59-1.08.81.07-.04-.09.05-.08.04-.12.07.09-.03-.05.02-.13.05,0,0,.01,0-.15.02.04,0,.07,0-.13.01.05.04-.07,0,.06.02-.09-.02-.08-.02-.07-.03-.15-.09-.19-.15-.37.16-.74.31-1.11.47,1.55,0,3.19-.57,4.26-1.72.47-.51.84-1.11.89-1.82.05-.68-.21-1.34-.68-1.83-.21-.22-1.45.2-1.31.42.7,1.11-.28,2.45-1.02,3.26-.2.22-.42.43-.65.61-.12.1-.26.19-.39.27-.04.02-.08.05-.14.07-.04.02-.08.04-.12.06.04-.02.04-.02,0,0-.03.01-.24.08-.12.04-.04.01-.09.02-.13.04.06-.01.06-.01.01,0-.09.01-.18.03-.3.03-.3,0-.6-.08-.87-.21-.4.17-.79.33-1.19.5.68.28,1.48.12,2.17-.05.15-.04.29-.07.44-.11.03,0,.28-.06.11-.03.08-.02.15-.03.23-.04.07-.01.08-.01,0,0,.04,0,.08,0,.11-.01.07,0,.08,0,.02,0,.04,0,.07,0,.11,0,.12,0,.25.05.38.09-.02-.07-.04-.15-.06-.22-.05.04-.1.07-.15.11,0,0-.15.09-.08.05-.06.04-.13.07-.19.1-.04.02-.04.02.01,0-.04.02-.08.03-.12.04-.15.06.09-.02-.06.02-.04.01-.08.02-.12.03.08-.02.08-.02,0,0-.02,0-.2.03-.08.01-.07,0-.14.01-.22.02-.15,0-.47-.03-.68-.08-.27-.07-.53-.17-.77-.32-.4.17-.79.33-1.19.5,1.06.43,2.17.57,3.27.19.8-.28,1.6-.86,1.67-1.77-.45.12-.9.24-1.35.36.02.15-.02.28-.11.39-.06.07-.1.09-.15.13-.12.09.07-.03-.07.04-.03.02-.07.03-.1.05.15-.07-.25.07-.03.01-.12.03-.24.07-.37.1-.27.08-.55.15-.82.23-.13.04-.26.07-.39.11-.06.02-.12.03-.19.05-.02,0-.05.01-.07.02.04,0,.04,0,0,0-.14.03-.31.04-.49-.04-.31-.14-.55-.53-.4-.86-.43.12-.87.23-1.3.35,1.19.67,2.64.63,3.92.27,1.24-.35,2.63-1.01,3.3-2.17.34-.58.45-1.32.18-1.96-.09-.21-.58-.09-.74-.04-.1.03-.7.2-.62.4.6,1.46-.41,3.04-1.56,3.9-.16.12-.32.22-.48.32-.06.04-.12.07-.2.11-.05.02-.1.05-.15.07-.11.05.03,0-.09.04-.04.02-.26.09-.14.06-.04.01-.09.03-.13.04.01,0-.2.05-.11.03.09-.02-.26.04-.14.02-.04,0-.09,0-.14.01-.01,0-.18,0-.1,0-.69,0-1.39-.26-1.91-.73-.68-.62-.91-1.61-.63-2.47.08-.24-.44-.17-.55-.15-.18.03-.35.08-.51.16-.09.04-.24.11-.28.22h0Z"/>
        <path d="M30.87,18.59c-.29.25-.43.63-.4,1.01.03.39.25.73.54.97.75.62,1.82.58,2.73.55.17,0,.37-.06.53-.12.12-.04.28-.11.38-.21.22-.22-.2-.23-.32-.23-.06,0-.12,0-.18,0-.04,0-.03,0,.02,0-.03,0-.05,0-.08,0-.11,0-.22,0-.33,0-.21,0-.37-.02-.54-.05-.35-.07-.66-.19-.94-.42-.25-.21-.42-.49-.46-.81-.02-.15,0-.3.04-.44.05-.16.12-.26.23-.36.23-.2-.2-.24-.32-.23-.3.03-.67.12-.91.32h0Z"/>
        <path d="M31.83,17.96c-.34.27-.51.71-.38,1.13s.49.72.86.93c.9.52,2.02.56,3.01.29.15-.04.33-.11.46-.21.07-.06.17-.16.14-.26-.07-.26-.6-.15-.76-.11-.02,0-.14.03-.15.04.02-.03.14-.02,0,0-.04,0-.09.01-.13.02-.17.02.13,0-.04,0-.09,0-.17,0-.26,0-.11,0,.03,0-.03,0-.04,0-.09,0-.13-.01-.21-.03-.3-.05-.48-.11-.17-.06-.34-.13-.5-.22-.24-.14-.51-.37-.62-.65-.05-.12-.07-.26-.05-.39.01-.07.03-.14.06-.2-.02.05.04-.05.04-.05.05-.08-.05.04.03-.03.07-.05.17-.16.14-.26-.03-.1-.17-.14-.25-.15-.32-.04-.71.06-.96.26h0Z"/>
        <path d="M32.21,18.07c-.09.23-.08.42.04.63.08.15.2.25.33.36.24.2.51.34.79.46.63.26,1.33.28,2,.14.15-.03.34-.14.44-.26.08-.09.16-.24.12-.36-.11-.32-.53-.31-.79-.25-.11.02.07,0,.07-.01,0,0-.07,0-.07.01-.05,0-.1.01-.15.01-.05,0-.11.01-.15,0,.02,0,.15,0,.06,0-.02,0-.05,0-.08,0-.1,0-.2-.03-.3-.04.03,0,.12.03.04,0-.02,0-.05-.01-.07-.02-.06-.01-.11-.03-.16-.05-.05-.02-.1-.03-.14-.05-.02,0-.05-.02-.07-.03-.07-.03.09.05.03.01-.09-.05-.18-.09-.26-.15s-.16-.12-.24-.18c-.05-.04.06.06.01,0-.02-.02-.04-.04-.05-.06-.04-.04-.07-.09-.1-.14.02.04.04.07.06.11-.02-.05-.03-.09-.04-.14,0,.04,0,.08,0,.12,0-.04.02-.12-.02-.02.05-.12.06-.24-.02-.35-.08-.11-.25-.17-.38-.18-.18-.01-.37.01-.53.1-.13.07-.3.16-.35.31h0Z"/>
        <path d="M32.97,18.2s.2-.07.08-.03c-.12.04.04-.01.06-.02.05-.01.1-.03.15-.04.05-.01.19-.02,0,0,.03,0,.1-.01.13-.02-.09.01-.11.01-.06,0,.02,0,.04,0,.07,0,.13-.02-.09,0,.03,0,.03,0,.06,0,.09,0,.05,0,.06,0,.03,0-.04,0,.07.01.09.02.05,0,.1.02.15.04.05.02.11.05.15.07.13.07.24.17.33.29-.01-.02-.02-.03-.04-.05.21.27.32.6.28.95,0,.07.22.08.24.09.16,0,.34-.03.49-.07.16-.04.32-.09.46-.19.08-.05.15-.09.16-.19.07-.54-.25-1.1-.74-1.33-.36-.17-.78-.19-1.17-.14-.49.06-.96.19-1.43.34-.07.02-.6.23-.41.37.08.06.25.04.34.03.18-.02.35-.06.53-.12h0Z"/>
        <path d="M34.16,17.84s.09-.09.12-.13c-.01.02-.11.09-.04.04.02-.02.05-.04.07-.05.01,0,.06-.05.07-.05,0,0-.15.08-.06.04.03-.01.05-.03.08-.04.02-.01.11-.04,0,0-.12.04-.01,0,.01,0,.03,0,.06-.01.09-.02.08-.02-.16.02-.08.01.03,0,.06,0,.09,0,.03,0,.14,0,.02,0-.11,0-.02,0,0,0,.03,0,.06,0,.09,0,.02,0,.13.02.03,0-.09-.02,0,0,.01,0,.03,0,.06.02.09.03.02,0,.05.02.07.03,0,0,.12.05.04.01-.08-.04.02.01.03.02.02.01.04.02.06.04.05.03.1.07.15.11,0,0,.06.05.06.05-.04-.04-.05-.05-.03-.02,0,0,.02.02.03.03.04.04.08.08.11.12.07.09.14.18.19.28-.02-.04-.04-.07-.06-.11.07.15.12.31.13.48,0-.04,0-.08,0-.12,0,.07,0,.13,0,.2,0,.03-.01.07-.02.1-.01.09.05-.1,0-.01-.01.03-.02.05-.04.08-.05.1-.01,0,.02-.02-.02,0-.04.05-.06.06.08-.07.1-.09.05-.05-.02.01-.03.02-.05.03-.23.14-.35.51-.08.67.31.19.69.09.97-.09.68-.42.7-1.31.3-1.92-.23-.35-.57-.6-.94-.77-.44-.2-.92-.21-1.39-.12-.48.09-.97.36-1.28.75-.08.1-.15.23-.11.37.03.13.16.22.28.26.3.09.75,0,.96-.26h0Z"/>
        <path d="M34.98,17.38c.55.43.77,1.25.52,1.91-.06.17-.16.33-.27.47-.06.07-.12.13-.19.18-.08.07-.11.09-.19.14-.02.01-.15.08-.05.03-.05.02-.09.04-.14.06-.11.05.06-.02-.01,0-.05.02-.1.03-.15.05-.05.02-.03.01.05-.02-.02,0-.05.01-.08.02-.05.01-.1.03-.15.04-.05.01-.03,0,.05-.01-.02,0-.05.01-.08.02-.06.01-.12.02-.18.04-.17.03-.35.09-.52.16-.06.03-.25.11-.28.19-.08.21.47.11.53.1.6-.12,1.2-.27,1.75-.55.46-.23.92-.55,1.16-1.02.39-.76.17-1.74-.5-2.26-.07-.06-.27-.03-.34-.02-.17.02-.36.06-.53.12-.08.03-.58.22-.41.35h0Z"/>
        <path d="M33.48,17.35c-.67,0-1.34.06-1.98.28-.51.18-1.02.47-1.32.93-.55.83.05,1.83.69,2.4.08.07.26.06.35.06.17,0,.37-.05.53-.12.1-.04.59-.24.4-.41-.52-.46-1.05-1.24-.74-1.96.07-.16.16-.28.29-.39.02-.02.02-.02,0,0,.02-.01.04-.03.06-.04.01,0,.14-.09.07-.05-.07.04.06-.03.08-.04.04-.02.03-.01-.05.02.02,0,.04-.02.06-.02.15-.06-.07.01.01,0,.03,0,.06-.01.08-.02-.08.02-.1.02-.04.01.06,0,.11-.02.17-.03.05,0,.04,0-.03,0,.03,0,.06,0,.09,0,.24-.02.47-.02.71-.02.17,0,.37-.06.53-.12.12-.05.28-.12.38-.22.21-.23-.19-.26-.33-.25h0Z"/>
        <path d="M13.57,28.1c.38.1.78.11,1.17.08.17-.01.36-.06.53-.12.08-.02.15-.06.22-.1.06-.03.11-.06.16-.1.04-.04.11-.11.03-.16l-.08-.03c-.09-.01-.17-.01-.26,0-.02,0-.04,0-.06,0-.1,0,.14,0,.08,0-.04,0-.07,0-.11,0-.07,0-.15,0-.22,0,.04,0,.08,0,.12,0-.15-.01-.3-.04-.44-.07-.06-.01-.13-.01-.19,0-.08,0-.16.01-.24.03-.17.03-.36.08-.52.16-.04.02-.09.04-.13.07-.06.03-.11.07-.15.13v.06s.05.07.11.07h0Z"/>
        <path d="M28.45,28.95c-.12.06-.24.12-.35.18-.06.03-.12.07-.17.12-.04.03-.08.07-.1.12-.02.04-.01.07.01.1.02.04.06.06.11.07.04,0,.08.01.12.02.11,0,.21,0,.32-.02.06-.01.12-.03.18-.04.12-.03.23-.07.33-.13.12-.06.24-.12.35-.18.06-.03.12-.07.17-.12.04-.03.08-.07.1-.12.02-.04.01-.07-.01-.1-.02-.04-.06-.06-.11-.07-.04,0-.08-.01-.12-.02-.11,0-.21,0-.32.02-.06.01-.12.03-.18.04-.12.03-.23.07-.33.13h0Z"/>
      </g>
    </g>
  </g>
</svg>