<?xml version="1.0" encoding="UTF-8"?>
<svg id="Layer_2" data-name="Layer 2" xmlns="http://www.w3.org/2000/svg" viewBox="0 0 48 17.23">
  <g id="Layer_1-2" data-name="Layer 1">
    <g id="uuid-12c9cdcd-3727-4d07-b03e-28bb504222a3" data-name="Layer 1-2">
      <g>
        <path d="M46.27,1.38c.14.12-.06.18-.14.27-.44.34-.14,1.02-.69,1.37.02.02.04.04.06.06.13-.12.24-.25.43-.22,0,.06,0,.16-.02.17-.15.05-.1.3-.3.28.11.54-1.55,1.19-1.85,1.73.02.02.04.04.05.06.9-.52,1.67-1.26,2.42-1.9.75.86-2.8,2.53-3.38,3.09.1.24.16.51.33.7.32.28.54.6.6,1.03.26.46.62.88,1.04,1.21,0,0-.06.01-.12.03.01.13.19.23.08.4-.03.05.04.23.11.26.4.18.49.69.92.78-.21-.31-.49-.58-.51-.98-.02-.16-.27-.29-.07-.51.14.2.42.31.44.61.15.14.31.28.49.45-.11-.35-.19-.43-.49-.45,0-.22.15-.26.37-.22-.14-.22-.28-.39-.18-.65.16.2.14.54.43.6.65.55,1.09,1.34,1.68,1.99-.03.04-.08.09-.15.16-.3-.33-.59-.66-.89-.98-.13.16-.17.16-.4,0-.01.12-.03.25-.04.39.42-.04.41.47.74.54-.16.26-.33.03-.5.03-.02.24-.04.48-.06.73-.31.01-.28.34-.45.51.06.04.11.07.2.12-.14.11-.26.21-.38.31-.33-.3-.38-.29-.67.23.15.2.32.41.5.64-.23.11-.44.21-.7.33-1.04-.72-1.7-1.88-2.52-2.83-.76-.81-1.46-1.7-2.32-2.4-.41-.22-.45-.75-.78-1.08.1-.16.18-.3.27-.45.07.02.15.03.26.06-.05-.11-.08-.19-.13-.3-.87.27-1.63.77-2.51.97.38.43.54.96.9,1.39.14.16.33.28.24.55-.02.07.02.2.08.23.19.11.19.29.23.46.08.49.52.73.7,1.17-.08-.03-.15-.05-.29-.1.14.4.43.65.61.98-.03.08-.06.18-.09.28-.06-.02-.12-.04-.16-.05-.59.44-.72.35-.3,1.07-.11-.02-.19-.04-.3-.06v.5c-.23.09-.45.18-.66.26,0,.02,0,.04.01.06-.11-.03-.22-.07-.34-.1,0,.39.51.53.13,1.05-.13.03-.28.07-.46.12-.2-.15-.32-.66-.55-.63-.02,0-.07-.06-.06-.09.02-.17-.09-.25-.2-.35-.98-1.87-1.71-3.95-2.94-5.69-.97.23-1.93.45-2.92.69-.15.74.72,2.65.22,2.9h0s-.07-.03-.07-.03c.1-.51-.05-1.03-.22-1.49h.01c-.19-.29-.58-.64-.32-1.01.05.05.1.1.15.15.02-.05.05-.11.07-.16-.14-.41-.22-.45-.72-.3.12.12.25.12.2.32-.05.26,0,.54.04.81.21.55.1,1.44.51,1.85v.69c-.14.15-.29.31-.46.5-.23-.04-.29-.27-.4-.53.05.47-.11.81-.22,1.23-.16.25-.46.37-.74.5.22.32-.05.57-.08.85-.18.03-.34.05-.53.08-.06-.28-.11-.54-.18-.89-.08.18-.12.29-.19.46.01-.25.05-.45.02-.64-.02-.15-.26-.24-.17-.47.04.03.07.06.11.09-.35-.54-.39-1.23-.49-1.87-.2-.87-.5-1.74-.62-2.63-.55.06-1.1.13-1.65.16-.4-.02-.41.29-.58.55h0c.03-.12.05-.25.08-.4-.17-.22-.39-.04-.59-.08-.75,2.06-1.9,3.95-3.2,5.64-.27.16-.46.26-.69.39-.2-.22-.02-.47.04-.73-.05-.05-.13-.11-.19-.15.29-1.76,1.54-3.33,1.86-5.07-1.52,0-3.06,0-4.63-.25-.39.94-.71,2.73-1.61,3.21.05-.15.09-.26.13-.37-.02,0-.04-.02-.05-.03-.29.64-.76,1.17-.98,1.84-.2.77-.61,1.34-1.25,1.81-.14-.07-.27-.13-.36-.17-.04-.12-.08-.21-.13-.35.06-.07.16-.18.32-.35-.15.06-.22.09-.3.12-.29-.85.53-.84.21-1.52.84-.48,1.48-3.47,1.74-4.48-1.3-.31-2.61-.62-3.93-.93-.5,1.23-1.03,2.44-1.61,3.65-.25-.23-.25-.4-.03-.72.55-.98.9-1.99,1.43-3-.1-.05-.19-.09-.31-.15-.79,1.82-1.49,3.67-2.48,5.39-.44.68-.54,1.74-1.47,1.96-.07-.19-.13-.37-.21-.58-.35-.1-.27-.56-.04-.84.83-2.18,2.15-4.16,2.41-6.53-.94-.39-1.88-.79-2.84-1.19-.21.24.12.28-.19.45-.93.83-1.76,1.78-2.75,2.55-.81.43-2.09,2.5-2.92,2.04.05-.31-.02-.52-.25-.76.17-.79,1.05-1.27,1.34-2.05.35-.63,1.09-.87,1.55-1.42.49-.6,1.17-.92,1.64-1.58C3.24,5.81.37,4.79,0,3.17c-.08-.4.45-.5.47-.9,0-.07.22-.12.33-.18v-.38c.9-.18.72-1.79,2.51-.28.01-.01.03-.02.04-.04-.03-.06-.06-.13-.09-.19.43.1.67.45,1,.7-.07.19.13.23.18.35-.06,0-.12-.01-.24-.03.12.1.19.17.26.23.02-.01.03-.02.05-.03-.02-.05-.05-.11-.07-.16.35.14.69.29,1.04.43.06.27.06.28.32.21-.06-.07-.11-.13-.17-.19,1.5.94,3.19,1.61,4.83,2.32,1.02.47,2.33.52,3.23,1.15.26-.34.2.28.71.25.02-.39.5.12.7.18.58-.46,2.02.3,2.81.31.29.07.59,0,.88-.03.3.35,1.35-.04,1.31.34.6-.11,1.25-.27,1.91-.08.75.3,1.58-.07,2.36-.1.15-.08.22.22.41.06.1-.09.29-.07.44-.09.45-.06.91-.02,1.34-.18.24-.04.48-.09.7.14-.03-.08-.04-.12-.07-.18.4-.01.91-.25,1.16.16-.24-.14-.48-.01-.72,0,.51,0,1.02,0,1.52-.04,0-.02,0-.04,0-.06-.08-.02-.17-.04-.25-.06,0-.02,0-.03,0-.05,1.94-.37,3.91-1.25,5.84-1.36.54-.18,1.12-.21,1.65-.48.57-.11.98-.56,1.6-.59-.15.11-.25.2-.46.2.37.26.63-.1.98-.19h-.01c.24-.13.48-.29.72-.43.1-.06.29-.01.22-.23,1.07-.54,2.39-.6,3.31-1.44-.07-.47,1.4-.52,1.7-1.08.12-.12.28-.37.42-.42.12.08.2-.04.21-.08.13-.31.44-.41.65-.63.12.14.14.15.36.05-.06.46.05.9-.05,1.35.07,0,.14-.01.21-.02h0ZM15.69,6.96c.13.02.25.04.38.05,0-.03,0-.07,0-.1-.13.02-.26.03-.38.05,0-.22-.15-.21-.32-.14.11.05.22.09.32.14h0ZM33.6,6.02c.23-.09.52-.07.67-.29.23.11.69.05.93-.12-.35-.2-.61.14-.92.14-.24.07-.59-.02-.68.28-.1-.06-.2-.06-.3,0h.3ZM44.56,9.24c-.41-.48-.74-1.05-1.37-1.31.45.45.71,1.08,1.37,1.31ZM16.31,12.63c.11-.07.22-.12.22-.16,0-.52.52-.87.46-1.41.03-.13.11-.24.14-.4-.18.06-.45.71-.82,1.96h0ZM44.21,9.88c.22.26.29.63.66.78.13-.27-.13-.38-.19-.56-.07-.22-.31-.16-.48-.22h0ZM9.62,5.33c.06-.13-.22-.17-.05-.3-.19-.19-.49-.21-.75-.33-.1.54.43.48.8.63h0ZM19.29,10.12s0,.03,0,.04h.96v-.04h-.96ZM16.05,13.4s.04.01.06.02c.06-.16.13-.32.21-.47-.03-.01-.06-.03-.1-.04-.06.16-.12.33-.17.49ZM18.03,10.04v.02c.22.01.44.02.67.03,0-.02,0-.04,0-.06h-.67,0ZM9.25,5.34c.22.17.23.17.49.1-.18-.04-.32-.06-.49-.1ZM24.97,7.15s0,.03-.01.04c.15.08.22.2.34-.02-.14-.01-.24-.02-.33-.02h0ZM38.46,11.95s-.04.02-.06.04c.08.08.09.28.24.21-.06-.09-.12-.17-.17-.24ZM15.52,13.98s.05.02.07.02c.03-.09.06-.18.09-.26-.02,0-.04-.01-.06-.02-.03.09-.07.17-.1.26h0ZM29.3,7.15s0,.06.01.09l.26-.04s0-.05,0-.07c-.09,0-.17.02-.26.02ZM43.38,5.5s-.03-.05-.04-.08c-.1.06-.2.12-.29.18,0,.02.02.03.03.05.1-.05.21-.1.31-.15h0ZM42.4,5.74s.02.05.03.07c.07-.03.14-.05.2-.08-.01-.03-.02-.05-.03-.08-.07.03-.13.06-.2.09h0ZM40.05,3.76s-.02-.04-.04-.06c-.07.04-.15.07-.22.11,0,.02.01.03.02.05.08-.03.16-.07.23-.1h0ZM25.58,7.23s0,.05,0,.07l.32-.02s0-.03,0-.05h-.32ZM38.31,11.63s.04-.01.06-.02c-.02-.06-.05-.12-.07-.18-.02,0-.03.01-.05.02.02.06.04.13.06.19h0Z"/>
        <path d="M23.99,12.49c.02.7-.55,1.29-.73,1.96-.06.13-.12.24-.29.07.24-.72.69-1.34,1.03-2.03h0Z"/>
        <path d="M44.72,8c-.49-.07-.85-.7-1.05-1.12.34.09.91.68,1.05,1.12Z"/>
        <path d="M39.13,10.58c.33.41.54.87.65,1.37-.33-.41-.53-.87-.65-1.37Z"/>
        <path d="M23.98,12.29c.16-.36.31-.71.47-1.07.02,0,.04,0,.06,0,.1.4-.31.75-.45,1.12l-.08-.04h0Z"/>
        <path d="M31.33,13.18c.2.25.28.5.26.83-.21,0-.38-.64-.26-.83Z"/>
        <path d="M31.06,11.66c0,.21.02.42.03.63-.2-.15-.3-.61-.02-.62h-.01Z"/>
        <path d="M24.81,11.43c-.08.22-.16.45-.26.73-.11-.36-.05-.49.26-.72h0s0,0,0,0Z"/>
        <path d="M30.97,10.63c-.02.05-.05.11-.07.16-.1-.09-.17-.16-.25-.28.16-.09.24,0,.32.12h0Z"/>
        <path d="M40.62,13.42c.07.01.14.03.21.04l-.04.19c-.07-.04-.14-.08-.2-.11.01-.04.02-.08.04-.12h0Z"/>
        <path d="M44.73.84c-.08.1-.17.2-.25.29-.04,0-.09-.01-.19-.02.18-.13.23-.32.45-.27Z"/>
        <path d="M15.6,14.57c.08-.09.15-.19.25-.3-.02.14-.1.24-.25.3Z"/>
        <path d="M44.62,8.51c.14.17.23.27.36.42-.25-.05-.33-.15-.36-.42Z"/>
        <path d="M39.95,12.19c.08.13.16.27.23.4-.02.01-.04.02-.05.03l-.26-.38s.05-.04.07-.06Z"/>
        <path d="M45.25,8.43c-.07-.09-.15-.18-.22-.28l.06-.06c.08.09.17.17.25.26-.03.02-.06.05-.09.08Z"/>
        <path d="M38.52,4.32h.01c-.09,0-.17,0-.29.01.05-.21.26-.23.27-.01h0Z"/>
        <path d="M46.27,1.38c-.07,0-.14.01-.21.02.07-.04.13-.08.2-.13,0,.04,0,.07.01.11h0Z"/>
      </g>
    </g>
  </g>
</svg>