<?xml version="1.0" encoding="UTF-8"?>
<svg id="Layer_2" data-name="Layer 2" xmlns="http://www.w3.org/2000/svg" viewBox="0 0 47.26 48">
  <g id="Layer_1-2" data-name="Layer 1">
    <g id="_ëÎÓÈ_1" data-name=" ëÎÓÈ 1">
      <path d="M18.05,47.87c0-.07-.2-.19-.44-.26-.24-.07-.36-.13-.27-.14.24-.02.21-.45-.04-.76-.2-.25-.21-.24-.14.17.04.26,0,.47-.08.53-.1.06-.13.02-.07-.12.05-.12-.03-.36-.18-.55s-.22-.38-.16-.44c.05-.06,0-.05-.11.04-.28.2-.84.16-.92-.08-.05-.13,0-.16.16-.1l.41.17c.14.06.17,0,.12-.2-.07-.27-.36-.35-1-.31-.13,0-.22-.11-.24-.32-.02-.26.04-.33.28-.32.17,0,.23.04.13.08-.09.04-.14.13-.09.19.04.07.16.04.27-.07.21-.21.25-.36.09-.33-.06,0-.19,0-.3,0-.17-.02-.17-.04-.01-.14.13-.08.05-.11-.26-.1-.38.02-.5-.05-.71-.41-.2-.34-.22-.49-.11-.71.11-.2.11-.28,0-.28-.08,0-.11-.06-.07-.14.05-.08-.02-.14-.14-.14s-.18.06-.14.14c.05.08-.05.13-.23.13-.17,0-.24-.04-.14-.08.12-.05.13-.14.03-.34-.08-.15-.1-.45-.06-.67.06-.27.04-.4-.07-.4-.09,0-.13-.09-.09-.19s-.03-.24-.16-.29c-.18-.08-.15-.12.17-.18.22-.05.42-.16.45-.26.05-.13-.02-.16-.23-.09-.22.07-.31.02-.4-.22-.15-.4-.06-.62.23-.6.18.01.22-.09.2-.46-.07-1.06-.03-1.55.11-1.63.08-.05.11-.16.06-.25s0-.19.13-.24c.2-.08.18-.11-.09-.26-.18-.1-.25-.18-.16-.18.09,0,.25-.1.36-.21.17-.17.23-.17.38-.02.1.1.27.15.37.12.13-.04.16,0,.11.16-.07.18-.04.19.17.06.21-.13.22-.19.06-.34-.1-.1-.25-.15-.32-.1-.2.12-.58-.31-.49-.55.09-.24.04-.24-.63-.06-.28.08-.48.19-.44.26.13.21-.09.55-.36.55-.15,0-.24-.05-.2-.1.03-.06-.02-.18-.13-.28-.16-.14-.19-.14-.19.03,0,.12-.19.26-.44.33-.41.12-.39.13.3.14.49.01.68.06.55.14-.21.13-.85.11-1.33-.05-.18-.06-.3-.04-.3.04,0,.07.11.16.24.2.23.06.23.06,0,.08-.13,0-.24.06-.24.12s-.21.11-.47.13-.66.12-.89.23c-.23.12-.47.18-.54.14-.07-.04-.12,0-.12.07,0,.19.45.18.65-.02.09-.09.2-.12.25-.07.05.05-.02.18-.17.29-.3.23-.88.15-1.05-.15-.06-.11-.18-.19-.27-.19-.12,0-.11.04.01.11.23.15-.06.82-.37.85-.39.03-.75-.04-.88-.16-.24-.23-.34-.13-.34.35s-.02.47-.44.41c-.24-.03-.5-.06-.58-.07-.08,0-.04-.07.07-.14.12-.08.14-.13.04-.13-.09,0-.2.06-.24.13-.12.19-.42.17-.64-.05-.27-.27-.6-.22-.59.09.01.39-.25.42-.45.06-.16-.3-.7-.41-.92-.19-.05.05-.17.09-.28.09-.14,0-.15-.06-.05-.26.19-.36.18-.46-.06-.37-.12.05-.2,0-.2-.12,0-.11.1-.2.22-.2.18,0,.19-.04.05-.2-.17-.21-.43-.28-.37-.1.02.06-.06.31-.16.57l-.19.46-.17-.4c-.11-.25-.17-.31-.18-.16,0,.35-.26.29-.41-.1-.07-.19-.19-.34-.25-.34s-.1-.12-.06-.26,0-.39-.09-.55c-.14-.26-.17-.27-.37-.08-.12.12-.24.18-.28.14-.12-.12.25-.48.49-.48.33,0-.24-.37-.66-.43-.24-.04-.33-.12-.3-.32.02-.15.05-.49.08-.76.03-.27.08-.54.12-.61.04-.07.11-.29.16-.5.05-.21.18-.37.3-.37.13,0,.17-.06.11-.16-.07-.11-.02-.13.15-.07.2.08.22.06.08-.1-.11-.14-.12-.22-.02-.28.08-.05.11-.15.07-.22-.04-.07-.14-.09-.22-.04-.08.05-.08-.03.02-.2.12-.22.26-.28.62-.26.58.04.71-.09.42-.41-.21-.23-.21-.28-.02-.46.14-.14.16-.22.05-.26-.09-.03-.16-.21-.17-.41-.01-.26.08-.4.33-.52.19-.09.42-.15.52-.14.1.02.16-.07.14-.21-.04-.22.13-.31.95-.54.14-.04.13-.1-.03-.26-.26-.26-.26-.28,0-.38.13-.05.18-.03.12.06-.05.08.04.06.2-.04s.28-.26.28-.36c0-.15.04-.16.2-.02.17.14.2.11.2-.19,0-.28.07-.35.31-.35.17,0,.38.07.47.16.13.13.16.08.16-.21,0-.41.36-.64.55-.35.11.17.18.08.14-.18,0-.06.2-.1.47-.1.44,0,.47-.02.3-.23-.17-.21-.16-.21.15-.05.24.13.35.14.38.02.03-.09.17-.16.32-.16s.23-.06.19-.12c-.09-.15.31-.31.49-.2.08.05.19,0,.26-.1.2-.32.14-.42-.22-.33-.26.07-.34.03-.35-.15,0-.13-.19-.38-.41-.56l-.4-.31v.29c0,.16.06.25.13.21.07-.04.16-.02.21.06.05.08-.01.14-.13.14s-.21.08-.21.19c0,.11-.15.19-.36.19-.32,0-.34-.02-.14-.17.34-.25.28-.47-.13-.47-.3,0-.33.03-.19.2.1.12.11.2.03.2-.08,0-.23.03-.34.08-.18.07-.43-.36-.38-.67.01-.07-.08-.23-.2-.36-.2-.22-.19-.26.1-.47.21-.15.21-.2.01-.14-.24.07-.32.02-.39-.26-.08-.32-.33-.49-.33-.23,0,.07-.2.11-.44.09-.33-.03-.45-.11-.48-.32-.04-.28-.43-.42-.43-.15,0,.24-.27.14-.28-.1,0-.14-.04-.17-.08-.07-.1.25-.32.06-.32-.28,0-.24-.03-.26-.13-.09-.07.11-.13.14-.13.07s.15-.3.34-.51.3-.37.24-.38c-.06,0,.03-.06.2-.13s.3-.19.3-.26c0-.2-.37-.17-.44.03-.03.09-.24.17-.47.17-.34,0-.41-.06-.41-.31,0-.17.13-.4.29-.52.2-.15.24-.23.11-.28-.13-.05-.14-.11-.02-.25.08-.1.11-.25.06-.34-.13-.21-.33.1-.33.52,0,.17-.06.3-.13.3-.21,0-.4-.47-.32-.77.05-.18-.01-.31-.18-.37-.2-.08-.14-.15.35-.39.81-.39.86-.63.15-.63-.34,0-.53-.05-.48-.14.05-.08.01-.14-.08-.14-.1,0-.13-.12-.07-.34.09-.34-.11-.48-.25-.17-.04.09-.04.03,0-.14s.02-.38-.04-.47c-.07-.09-.19-.32-.27-.52-.13-.29-.12-.37.05-.44.12-.05.17-.02.12.06-.05.08.01.29.13.47.18.27.25.3.39.16.22-.22.23-.64.02-.56-.11.04-.15-.14-.13-.62.03-.52-.01-.68-.16-.68-.16,0-.15-.17.02-.52.12-.24.27-.39.34-.35s.23.02.36-.06c.23-.13.23-.14,0-.22-.13-.05-.33-.06-.45-.01-.19.07-.19.05,0-.21.11-.16.18-.45.16-.64-.02-.19-.02-.25.02-.12.07.27.45.18.45-.11,0-.1.06-.19.14-.19.29,0,.12-.41-.17-.41h-.3s.3-.13.3-.13c.17-.07.31-.2.31-.3,0-.14.02-.14.11,0,.08.13.2.14.47.04.35-.13.35-.15.13-.41-.13-.15-.32-.27-.41-.27s-.15-.06-.11-.12c.04-.07.19-.09.33-.06.34.09.76-.33.56-.56-.11-.13-.07-.19.16-.25.17-.04.33-.05.36-.02.04.04,0,.06-.1.06s-.16.08-.16.17c0,.2.65-.47.71-.73.02-.1-.05-.18-.16-.18-.4-.01-.31-.34.09-.34.28,0,.44.09.55.3.13.26.15.23.09-.24-.04-.3-.03-.46.02-.37.12.25.34.2.3-.07-.03-.18.04-.23.28-.19.18.03.37-.03.43-.12.14-.22.54.15.54.5,0,.19.04.2.17.07s.13-.23-.01-.45c-.13-.21-.14-.31-.02-.38.1-.06.04-.17-.19-.32-.22-.14-.31-.3-.26-.43.09-.22.4-.19.36.04-.02.07.05.13.14.14s.26.05.39.1c.16.07.25,0,.31-.19.05-.15.15-.28.22-.28s.06.13-.03.3c-.15.27-.14.29.06.12.24-.2.5-.11.5.18,0,.1.07.23.16.28.11.07.13-.02.06-.28l-.1-.38.36.24c.2.13.32.17.27.09-.13-.22.27-.18.45.04.12.15.07.2-.25.27-.37.08-.61.5-.27.5.08,0,.14-.1.14-.22,0-.2.04-.19.37.02.2.13.45.34.54.45.14.19.17.17.17-.11,0-.18.04-.29.09-.25s.08.3.08.56.02.48.05.48.25-.21.51-.47c.51-.52.64-.58.64-.27,0,.11.1.2.21.2.15,0,.19.09.14.3-.04.17-.04.23,0,.13.04-.09.14-.13.22-.09.09.05.11-.02.05-.2-.06-.17-.03-.29.05-.29.08,0,.13.08.11.17-.02.11.1.16.33.15.34-.02.35,0,.15.22-.12.14-.31.21-.42.17-.14-.05-.17-.03-.1.09.06.09.19.13.3.09s.29.02.4.13c.11.11.27.16.35.12.08-.05.11,0,.07.1-.07.19-.12.2-.58.06-.21-.07-.21-.05.03.08.17.09.3.22.3.29s.09.06.2-.04c.13-.11.2-.12.2-.03,0,.08-.13.24-.29.35l-.29.21.52.49c.34.32.56.44.65.35.07-.07.22-.1.32-.06.11.04.19-.02.19-.13,0-.34.34-.54.54-.31.14.17.11.22-.19.34-.19.07-.35.19-.35.26,0,.35.17.51.52.47.2-.02.26-.01.13.03-.13.04-.2.14-.15.22.06.1.01.12-.13.06-.15-.06-.23-.02-.23.11,0,.24-.22.26-.31.03-.05-.14-.1-.14-.24,0-.15.14-.14.17.04.17.12,0,.25.09.29.2.11.29.36.25.36-.07,0-.18.09-.27.27-.27.15,0,.27.08.27.17,0,.13.03.13.11,0,.06-.09.24-.13.41-.09.22.06.27.12.16.25-.16.19-.04.65.15.53.07-.04.12.02.12.13s-.08.23-.17.26c-.29.1.06.85.38.81.22-.03.23-.02.06.1-.26.17-.01.63.32.6.27-.02.29.17.03.26-.1.04-.25,0-.34-.08-.11-.11-.15-.11-.15.01,0,.09.07.16.15.16s.12.08.08.18-.02.27.05.37c.1.15.12.15.12-.05,0-.13.06-.24.14-.24s.14.09.14.2.06.2.14.2.14.12.14.27-.08.27-.17.27c-.12,0-.11.04.02.12.32.2.3.83-.03,1.12-.2.17-.15.19.14.05.54-.26.54-.26.62.05.06.21-.02.28-.36.36l-.42.1.39.13c.29.1.42.09.51-.06.09-.14.14-.12.2.11.07.24.13.27.31.15.22-.14.21-.18-.04-.69-.19-.39-.22-.57-.11-.6.12-.04.12-.13.02-.31-.1-.18-.1-.26,0-.26.08,0,.14.07.14.15,0,.1.08.09.22-.03.2-.17.21-.14.12.29-.17.76-.19,1.08-.05,1.08.07,0,.12-.09.12-.19,0-.14.14-.17.58-.13.53.06.56.05.32-.14-.14-.11-.34-.17-.45-.13-.19.07-.44-.16-.44-.4,0-.06.2-.1.44-.11.42,0,.42-.02.18-.2-.14-.11-.19-.2-.11-.2.09,0,.12-.1.07-.22-.07-.18-.03-.21.21-.15.16.04.33.01.38-.07.06-.1-.11-.12-.52-.07-.48.06-.64.02-.76-.17-.12-.19-.1-.25.11-.3.14-.04.28,0,.3.06.03.07.22.04.45-.08l.4-.21h-.54c-.48,0-1.23-.26-.78-.27.09,0,.17-.09.17-.19s.1-.23.21-.27c.3-.12.74.15.65.39-.04.11,0,.2.08.2s.14-.18.12-.41c-.02-.23-.11-.41-.21-.41s-.15-.06-.1-.13c.05-.08,0-.1-.11-.06-.11.04-.24.01-.29-.07s-.21-.14-.35-.14-.26-.09-.26-.2c0-.17.05-.18.26-.04.19.12.31.12.44.01.13-.11.25-.1.44.04.22.16.31.15.64-.09.51-.36.49-.49-.09-.42-.3.04-.47,0-.47-.1,0-.09-.06-.12-.12-.08-.07.04-.21.04-.31,0-.22-.09-.31-.88-.1-.88.08,0,.11.06.07.12-.13.2.08.58.28.5.1-.04.26.01.37.12.27.27.53.05.43-.36-.07-.29-.03-.36.33-.49.23-.08.44-.09.49-.03.07.11.74-.13.75-.27,0-.04-.16-.09-.36-.1-.5-.04-.51-.07-.09-.49.2-.2.32-.4.27-.45-.05-.05-.25.11-.45.34-.26.32-.43.41-.63.35-.23-.07-.26-.04-.2.27.04.23.02.34-.08.31-.08-.03-.16-.27-.17-.54-.02-.39.02-.47.19-.4.16.06.19.02.12-.15-.07-.19-.04-.22.21-.15l.3.08-.3-.26c-.22-.19-.26-.3-.14-.41.1-.1.1-.15.02-.15-.08,0-.14-.09-.14-.2,0-.26.15-.26.42,0,.2.2.59.13.61-.11.02-.16.21-.05.21.13,0,.09.05.2.1.26.06.06.1.24.1.41s.06.32.14.32c.17,0,.18-.69,0-1.14-.07-.19-.22-.35-.34-.35s-.21-.06-.21-.14c0-.08-.14-.1-.34-.05-.33.08-.34.07-.18-.3.23-.53.33-.64.52-.53.11.07.09.18-.09.37-.24.27-.24.28.16.19.3-.07.35-.06.2.05-.14.09-.15.14-.03.14.26,0,.38-.06.34-.17-.02-.06.03-.1.12-.1s.12-.09.07-.2c-.04-.11-.02-.2.05-.2s.13-.06.13-.14-.11-.14-.24-.14c-.16,0-.25-.11-.26-.3,0-.17.02-.23.05-.14.09.24.31.21.31-.03,0-.11-.1-.2-.22-.2-.18,0-.19-.04-.05-.2.21-.25.41-.14.41.21,0,.19.09.26.32.26.17,0,.35-.04.4-.09.14-.14-.17-.59-.41-.59-.17,0-.19-.04-.07-.16.16-.16.49-.24,1.04-.26.15,0,.2-.04.1-.08-.13-.05-.13-.13-.02-.34.08-.15.11-.31.06-.35-.05-.05-.12.05-.16.21-.08.29-.59.44-.59.16,0-.08.07-.14.15-.14.09,0,.13-.16.09-.41-.03-.22,0-.41.05-.41s.11.11.12.24c0,.19.04.17.18-.08l.18-.32.23.36c.17.26.33.35.59.32.19-.02.37-.12.39-.21.02-.1,0-.11-.04-.03-.04.08-.2.14-.36.13h-.29s.3-.25.3-.25c.2-.17.28-.35.24-.57-.03-.18-.03-.25.02-.15.13.27.56.2.64-.1.04-.15.02-.27-.05-.27s-.08-.1-.04-.22c.06-.15.2-.2.46-.16.21.03.4,0,.43-.07.02-.07.36.03.74.23.84.43.93.44.57.09-.15-.15-.33-.27-.41-.27s-.12-.08-.1-.17c.02-.12-.14-.16-.54-.13-.32.02-.58-.02-.58-.09,0-.15.5-.32.88-.31.15,0,.19-.02.1-.07-.4-.18-.14-.35.44-.29.73.08.86-.21.17-.37-.28-.06-.37-.13-.24-.17.11-.04.29-.16.39-.27.1-.1.28-.15.39-.11.12.05.32-.04.46-.2.25-.27.25-.27-.1-.27-.19,0-.32-.05-.28-.12.04-.07.23-.09.41-.05.26.05.34,0,.34-.17s.05-.2.17-.1c.21.17.52-.03.77-.5.12-.22.2-.27.27-.16.08.12.16.11.32-.06.12-.12.22-.16.22-.08s.08.11.19.07c.1-.04.22.02.27.14.05.12.17.18.29.13.29-.11.26-.32-.04-.32-.26,0-.57-.24-.57-.45,0-.07.18-.09.41-.04.23.05.41.02.41-.05s-.06-.13-.14-.13-.14-.06-.14-.13.18-.1.42-.05c.33.07.41.04.36-.1-.08-.23.52-.9.66-.75.06.06.04.15-.04.2-.08.05-.15.28-.16.5-.01.22-.05.57-.08.78-.03.2-.02.37.03.37.2,0,.4-.52.38-.98-.01-.27,0-.46.03-.43s.18-.04.34-.15c.33-.23.49-.25.49-.06,0,.08-.09.14-.21.14-.27,0-.43.46-.35,1,.04.24.09.34.13.22.1-.29.47-.54.63-.41.3.24.71.28.79.08.06-.14.01-.18-.14-.12-.3.12-.11-.19.24-.37.22-.12.25-.1.17.09-.06.15-.04.2.07.13.09-.05.26-.04.39.04s.16.14.07.14c-.09,0-.17.07-.17.15s.06.11.13.06c.15-.09.86.58.99.93.05.14.17.19.31.13.16-.06.2-.04.13.08-.12.19.3.72.48.61.07-.04.12,0,.12.09s.11.29.23.45c.13.16.15.21.04.11s-.23-.17-.28-.17c-.16,0-.05.56.14.68.15.1.15.15,0,.33-.13.16-.14.26-.02.4.12.15.07.2-.27.27-.23.05-.72.09-1.09.09-.6,0-.7.06-.64.37.03.13.54.05.75-.13.19-.15.49-.02.37.17-.04.07,0,.13.08.13s.13-.08.09-.18c-.05-.13.05-.19.32-.19.44-.01.66.21.38.39-.15.09-.13.12.06.12.14,0,.22.08.19.17-.03.09-.22.16-.42.14s-.36.03-.36.1.15.13.32.13c.38,0,.56.36.32.65-.14.17-.14.22,0,.26.29.1.19.34-.11.26-.16-.04-.47.04-.71.19-.58.35-.88.33-.98-.08-.05-.19-.18-.34-.29-.34-.12,0-.17-.08-.13-.2.04-.11.02-.24-.06-.28-.09-.06-.09-.14,0-.24.18-.22-.02-1.1-.24-1.1-.1,0-.23-.13-.28-.28-.1-.26-.05-.28.64-.27.41,0,.77-.04.8-.1s-.05-.1-.19-.1c-.15,0-.25-.1-.25-.24,0-.42.45-.28.54.16.08.38.1.39.31.18s.2-.25-.15-.57c-.25-.23-.46-.32-.63-.27-.18.06-.24.03-.19-.1.04-.1-.05-.33-.2-.52l-.26-.34-.15.39c-.11.28-.19.35-.3.25-.08-.08-.23-.12-.33-.08-.27.11-.23-.36.05-.58.35-.27.7-.24.36.02-.15.12-.18.19-.07.16.23-.06.51-.46.39-.57-.04-.04-.22-.03-.4.04-.33.12-1.02-.12-.84-.29.05-.05.03-.09-.04-.09s-.21.12-.32.26c-.14.2-.25.23-.43.14-.32-.17-.39-.16-.39.08,0,.26-.1.26-.35,0-.16-.16-.17-.26-.04-.51.11-.2.06-.22-.13-.05-.34.3-.38.62-.09.62.22,0,.27.21.08.33-.07.04-.15,0-.19-.09-.05-.13-.07-.13-.08.01-.02.24-.56.69-.86.69-.13,0-.24.07-.24.14s-.05.13-.1.12-.3.06-.54.15c-.33.13-.44.25-.44.49,0,.18-.06.32-.14.32s-.14-.1-.14-.21-.08-.19-.17-.15c-.09.03-.16.16-.15.28.02.17-.07.2-.39.13-.34-.07-.4-.04-.33.13.05.12,0,.32-.11.46-.17.22-.19.22-.19.03,0-.12-.1-.26-.21-.3-.23-.09-.28.12-.07.25.08.05.14.14.14.2,0,.16-.65.81-.81.81-.07,0-.16.12-.2.26-.05.16-.16.23-.28.19-.17-.07-.26.09-.21.39.02.15-.23.12-.32-.03-.05-.08-.17-.14-.28-.14s-.2.06-.2.14.09.14.2.14.2.06.2.14-.09.14-.2.14-.2.09-.2.2-.14.34-.3.52c-.17.18-.37.44-.46.58-.09.14-.23.25-.31.23-.1-.02-.13.06-.08.2.05.17-.05.32-.31.5-.21.14-.36.34-.33.43.11.29-1.02,2.49-1.28,2.49-.2,0-.2.02-.03.14.13.08.15.17.07.23-.08.06-.14.29-.15.53,0,.24-.11.53-.24.65-.12.12-.22.4-.22.62,0,.24-.07.38-.17.36-.09-.02-.19.1-.21.26-.03.22.06.35.36.51.37.19.41.19.49-.03.09-.22.1-.22.22,0,.07.13.22.24.33.24.23,0,.26.23.05.3-.09.03-.07.12.07.23.19.15.23.14.33-.13.08-.21.15-.26.22-.15.06.09.03.25-.06.36s-.14.2-.11.21c.63.12.79.09.79-.14,0-.13-.12-.4-.27-.59-.29-.37-.35-.64-.14-.64.07,0,.1.09.06.19-.05.14,0,.17.19.12.15-.04.39,0,.53.07.22.12.25.25.21.76-.03.37,0,.62.09.62.08,0,.11-.09.07-.19-.05-.13.04-.21.31-.24.39-.05.53-.38.21-.49-.1-.03-.16.02-.14.11s-.04.19-.13.23c-.21.08-.21-.1-.02-.6.13-.35.16-.36.32-.14.1.13.29.23.43.23.24,0,.24-.02-.02-.13-.26-.11-.26-.12.02-.13.38-.01.5.44.17.68-.32.23-.1.54.31.43.2-.05.26-.03.19.08-.06.09-.01.16.11.16.32,0,.25.23-.09.33-.22.07-.25.11-.11.17.11.04.3-.05.43-.21.29-.36.48-.37.57-.02.05.18.14.24.29.19.16-.06.22,0,.22.27,0,.41.1.44.35.12.17-.22.18-.22.18,0,0,.14-.13.27-.33.32-.19.05-.3.14-.26.21s.11.1.15.06.2,0,.35.08c.19.1.18.19-.03.26-.4.15-.25.39.25.39.21,0,.41.08.44.17.05.13.11.13.28-.02.13-.11.23-.13.23-.04,0,.08-.06.18-.14.23-.26.16-.13.34.24.34.57,0,.76.26.41.56l-.29.25h.29c.2,0,.26.06.21.2-.04.11-.16.2-.27.2-.16,0-.16.05-.02.28.15.24.13.3-.08.42-.14.08-.2.18-.12.23.08.05.09.21.02.39-.09.23-.22.3-.56.3-.36,0-.45.06-.45.27,0,.31.09.34.32.11.13-.13.16-.11.16.07,0,.13.07.23.14.23.09,0,.11.12.05.3-.09.29-.08.29.16.07.21-.2.22-.28.08-.51s-.13-.27.05-.27c.12,0,.17.06.13.14s-.02.14.06.14.14-.06.14-.14.06-.14.14-.14c.09,0,.1.08,0,.25-.09.16-.09.3,0,.38s-.02.27-.28.52c-.22.21-.41.47-.41.57s-.07.18-.15.18c-.11,0-.11.05,0,.19.12.15.12.21-.02.27-.14.07-.14.1,0,.16.26.12.06.33-.31.33-.2,0-.33.08-.33.2s.08.17.2.12c.29-.11.25.05-.05.21-.19.1-.39.07-.77-.13-.28-.15-.54-.24-.58-.21-.09.09.67.75.79.68.06-.04.18.03.27.13.12.15.13.31.02.65-.14.42-.18.45-.74.43-.33-.01-.66-.06-.73-.11-.08-.05-.17-.03-.22.04-.04.07,0,.16.09.2.12.05.1.13-.09.28-.2.16-.32.17-.53.06-.27-.15-.27-.15-.02-.37.15-.13.24-.34.22-.52-.05-.34.18-.41.3-.09.1.27.91.21,1.01-.06.04-.13,0-.16-.16-.11-.27.1-1.06-.16-.97-.32.04-.06-.08-.22-.27-.34-.19-.12-.31-.28-.27-.34.04-.07.04-.12,0-.12s-.14.17-.22.37c-.11.29-.1.4.08.53.12.09.16.2.09.24-.07.05-.1.2-.06.35.08.31-.09.35-.36.1-.26-.24.27.6.55.88.27.27.6.19.97-.23.16-.18.23-.21.19-.08-.07.28-1.09.96-1.19.79-.1-.16-.33.11-.51.57-.11.29-.14.3-.22.09-.06-.15-.01-.34.14-.5.15-.16.2-.35.14-.5-.05-.13-.08-.27-.07-.3.04-.11-.41-.3-.53-.23s-.08.87.05,1c.04.04,0,.18-.07.32-.11.2-.09.25.07.25.13,0,.21.12.21.34,0,.19-.06.34-.14.34s-.14.09-.14.19-.1.23-.22.27c-.12.05-.19.12-.14.16s.02.23-.05.42c-.1.27-.08.38.11.52.23.17.23.18,0,.19-.13,0-.24.1-.24.21,0,.18.16.26.44.22.06,0,.1.08.1.19s-.06.2-.14.2-.14.13-.14.29c0,.28-1.14,2.15-1.3,2.15-.05,0-.06-.17-.03-.38.03-.21-.02-.45-.11-.54-.41-.38-1.09-.02-.95.52.05.19,0,.27-.15.28-.19,0-.19.03.03.15.19.11.28.1.36-.04.16-.26.27-.1.17.26-.04.16-.16.3-.26.3-.24,0-.35.2-.25.46.07.18.12.19.29.05.17-.14.19-.14.12.03-.05.11-.13.31-.17.44s-.18.24-.3.24c-.16,0-.18.04-.06.15.11.11.09.22-.11.43-.37.4-.33.48.38.8.35.16.57.31.47.34-.1.03-.32-.04-.49-.15-.3-.2-.32-.19-.47.12-.12.27-.11.33.05.33.32,0,.23.26-.15.44l-.35.16.52.17c.46.15.48.17.12.14-.3-.02-.44.05-.55.28-.08.17-.19.27-.23.22-.05-.05-.05.05,0,.21.06.22.03.27-.14.2-.3-.12-.28,0,.13.64.33.53.34.56.11.81-.18.2-.2.3-.08.42.43.43-.07.71-.53.3-.14-.13-.27-.16-.32-.08-.05.07.04.17.19.22.35.11.35.42,0,.52-.15.04-.27.12-.25.19.06.31-.03.73-.13.67-.06-.04-.25.02-.41.14-.22.16-.26.26-.17.44.19.36-.02.59-.46.48-.34-.09-.36-.07-.23.18.08.15.23.31.32.35.09.04-.03.04-.27,0-.42-.08-.63.12-.27.26.12.05.12.07,0,.08-.09,0-.2-.05-.25-.13-.06-.1-.15-.09-.27.01-.1.09-.26.11-.34.06-.11-.07-.09-.14.08-.23.19-.11.2-.16.06-.24-.25-.16-.39-.03-.39.36,0,.19-.06.3-.12.26-.07-.04-.28-.02-.47.06-.23.09-.35.09-.35,0,0-.07.11-.13.25-.13s.32-.08.41-.19c.12-.15.09-.2-.18-.25-.21-.04-.36,0-.4.12-.04.1-.12.18-.18.17-.4-.07-.47.03-.24.29.14.15.18.27.09.27s-.16-.06-.16-.13h-.02ZM18.18,46.79c0-.08.07-.14.14-.14s.11.06.06.14c-.05.08.01.14.13.14.25,0,.27-.19.04-.37-.1-.08-.29-.09-.46-.03-.41.16-.53.4-.19.4.15,0,.28-.06.28-.14h0ZM19.26,44.83c.08.05.36.06.61,0,.35-.07.44-.14.37-.3-.06-.15-.02-.2.11-.15.12.04.25-.09.35-.32.11-.26.26-.38.47-.39.3,0,.3-.01.05-.2s-.25-.2.04-.2c.19,0,.27-.06.21-.15-.06-.1,0-.12.23-.05.31.1.31.09.09-.17-.26-.29-.31-.58-.11-.58.07,0,.15-.14.17-.3.03-.2.15-.32.35-.35.4-.06.38-.31-.04-.71-.31-.29-.32-.34-.12-.49.12-.09.18-.23.13-.31-.05-.08,0-.18.12-.23.12-.05.21-.14.21-.21s-.06-.09-.14-.05c-.08.05-.14.04-.14-.03s-.04-.37-.08-.68c-.06-.48-.04-.58.16-.58.15,0,.2-.07.16-.2-.04-.11.08-.41.26-.68.37-.55.4-.75.16-1-.14-.14-.12-.2.06-.3.19-.11.21-.19.08-.46-.08-.18-.1-.43-.04-.57.06-.14.1-.3.08-.36-.02-.06.04-.2.13-.3.08-.1.12-.29.08-.42-.09-.29.24-.78.45-.66.08.05.14.02.14-.07s.09-.12.2-.08c.12.05.2,0,.2-.1,0-.3-.16-.35-.45-.15-.16.11-.38.19-.49.19-.14,0-.15-.03-.04-.08.09-.04.17-.25.17-.46,0-.28.07-.4.24-.4.14,0,.17-.04.07-.08-.09-.04-.17-.15-.17-.25s.08-.21.17-.24c.13-.05.13-.11-.02-.28-.1-.13-.2-.36-.22-.53-.05-.48-.06-.51-.2-.51-.22,0-.16.54.09.78.18.18.19.23.03.28-.1.03-.23.14-.29.24-.19.32-.8-.34-.71-.76.06-.29.03-.35-.2-.35-.15,0-.27.08-.27.17s-.06.17-.14.17-.14-.06-.14-.14-.18-.14-.41-.14-.41.06-.41.14-.07.14-.15.14-.12-.09-.07-.2c.06-.16,0-.18-.32-.12-.25.05-.4.03-.4-.07,0-.08.06-.15.14-.15s.14-.1.14-.21-.07-.17-.15-.12c-.17.1-.67-.38-.67-.64,0-.14-.03-.13-.12,0-.08.13-.22.15-.44.08-.18-.06-.37-.1-.43-.08s-.08-.09-.03-.23c.05-.14.01-.31-.08-.36-.1-.06-.13-.04-.07.06s0,.16-.17.16c-.39,0-.49-.25-.2-.56.19-.21.21-.32.1-.5-.08-.13-.25-.21-.37-.19-.12.02-.22-.02-.22-.1s-.06-.14-.14-.14-.1.14-.05.34c.05.21.03.34-.07.34-.08,0-.15-.05-.15-.11s-.16-.18-.35-.27c-.42-.19-.32-.43.19-.43.28,0,.32-.03.16-.13-.13-.08-.19-.29-.16-.57l.05-.44-.87.81.07-.37c.04-.2.01-.37-.06-.37s-.09-.06-.05-.13c.04-.07-.03-.16-.16-.2s-.08-.06.12-.03c.26.03.34-.01.29-.14-.09-.23.18-.24.28-.01.04.09.04.03,0-.14-.04-.17-.01-.3.07-.3s.14-.09.14-.2c0-.26-.22-.26-.36-.01-.09.17-.14.17-.37,0-.24-.18-.24-.19-.02-.19.14,0,.21-.08.18-.17-.04-.09-.13-.15-.21-.14-.08.02-.15-.03-.15-.1,0-.19.32-.17.52.03.13.13.16.09.16-.15,0-.27.05-.3.37-.24.21.04.6-.03.91-.17.3-.13.63-.27.73-.3.12-.04.02-.14-.27-.28-.25-.12-.52-.18-.6-.13-.08.05-.05.11.09.13.21.04.21.06,0,.27-.24.24-1.24.34-1.24.13,0-.07-.1-.03-.21.09-.24.24-.6.28-.6.08,0-.08.06-.14.14-.15s.19-.03.26-.03c.07-.01.21-.1.3-.19.14-.14.12-.19-.13-.25-.17-.04-.27-.13-.23-.19.04-.06.28-.02.54.09.43.18.49.18.73-.07.23-.23.24-.29.07-.42-.15-.13-.19-.12-.19.05,0,.47-.22.3-.24-.19-.01-.29.04-.53.11-.53s.13.1.13.22c0,.16.08.2.29.14.21-.05.4.05.68.36l.4.43-.15-.39c-.12-.32-.11-.37.05-.31.11.04.22,0,.26-.09.04-.1-.09-.16-.36-.17-.33,0-1.27-.33-1.55-.55-.03-.02.01-.14.09-.27.12-.21.14-.21.22.06.08.25.19.29.68.27.43-.02.57-.07.52-.2-.04-.1-.12-.18-.19-.18s-.12-.13-.12-.29-.1-.41-.23-.55c-.19-.22-.2-.27-.04-.37.15-.09.1-.14-.17-.21-.48-.12-.47-.38,0-.29.2.04.3.05.2,0s-.17-.16-.17-.27-.09-.19-.2-.19-.2-.05-.2-.12-.14-.16-.3-.22c-.26-.08-.27-.11-.07-.16.29-.08.3-.14.01-.42-.21-.21-.21-.23,0-.27.33-.07.28-.25-.11-.35-.18-.05-.4-.21-.48-.35-.08-.15-.28-.27-.44-.27-.28,0-.28-.02-.06-.18.13-.1.24-.26.24-.35,0-.13-.04-.14-.19-.01-.15.12-.22.12-.29,0-.06-.09-.03-.19.06-.22.24-.08.19-.32-.06-.27-.3.06-.38-.22-.12-.47.19-.19.19-.23,0-.41-.11-.11-.17-.3-.12-.41.05-.12.02-.21-.07-.21-.15,0-.2.18-.16.51.04.28-.41.37-.56.12-.07-.13-.18-.19-.25-.15s-.13-.04-.13-.19c0-.16-.09-.26-.22-.24-.12.01-.25-.06-.29-.16-.05-.13.01-.16.19-.1.14.05.42,0,.62-.11.25-.13.38-.14.41-.04.03.09.16.11.31.05.24-.09.23-.12-.14-.31-.22-.12-.56-.33-.74-.47l-.33-.26.3-.08c.34-.09.4-.56.09-.67-.11-.04-.16-.14-.12-.22.05-.08.03-.1-.05-.06s-.11.24-.07.43,0,.34-.07.34c-.22,0-.47-.38-.37-.55.06-.1,0-.14-.16-.13-.54.06-.74-.02-.84-.3-.09-.24-.22-.29-.71-.29-.65,0-1.4-.3-1.27-.51.1-.17-.02-.16-.34,0-.21.11-.36.03-.87-.48-.62-.62-.72-.65-1.52-.4-.17.05-.1-.28.13-.58.09-.11.08-.17-.03-.17-.09,0-.12-.07-.07-.15.06-.09.02-.13-.09-.09-.1.04-.19.21-.18.39,0,.37-.46.65-.63.37-.08-.13-.15-.13-.31.01-.12.1-.21.23-.21.3s-.18.28-.41.47c-.22.19-.41.43-.41.53s-.06.19-.14.19-.14.1-.14.21c0,.13-.06.17-.16.11-.11-.07-.13-.03-.08.12.09.24-.17,1.05-.34,1.05-.06,0-.11.12-.11.27s-.09.31-.19.35c-.2.08-.24.59-.05.59.27,0,.08.41-.2.42-.21.01-.23.04-.08.08.3.08.39.49.16.79-.1.14-.18.2-.18.14s-.04-.08-.09-.03.03.18.17.28c.32.23.2.38-.34.4-.4.02-.6.22-.21.22.3,0,.81.57.82.91,0,.17-.07.3-.17.3s-.18.06-.18.14.09.14.2.14.2.09.2.2-.07.2-.14.2-.11.06-.07.13.02.16-.06.21c-.08.05-.14.14-.14.21,0,.19.37.15.45-.04.05-.12.07-.1.08.04,0,.11.14.28.29.38.16.1.25.26.21.37-.04.11-.02.2.06.2s.13.06.13.14c0,.09-.11.09-.3-.02-.25-.13-.27-.13-.14.02.09.1.17.29.17.42s.08.23.17.21.16.07.15.19c-.02.21.24.4.79.57.34.11.29.35-.07.36-.26,0-.25.04.14.24.24.13.4.28.35.33-.05.05,0,.1.13.1.14,0,.19.08.15.2-.06.16-.13.17-.37.03-.16-.09-.34-.22-.39-.3-.06-.09-.16-.07-.26.03-.13.13-.12.17.06.17.13,0,.23.09.23.2,0,.15.15.2.53.2.3,0,.56.08.6.17.05.13.1.12.21-.03.08-.11.18-.15.24-.1.06.06-.02.19-.16.3-.25.19-.25.2.08.21.19,0,.44.09.58.19.26.2.32.51.09.45-.08-.02-.18.04-.21.14-.07.2.18.23.3.03.05-.08.23-.14.41-.14.24,0,.33.07.33.27,0,.15.07.27.15.27s.12-.12.08-.27c-.05-.2,0-.27.19-.27.14,0,.26.09.26.21,0,.15.09.18.34.12.27-.07.32-.04.26.13-.05.12-.17.22-.27.22s-.19.06-.19.14.15.14.33.14.36.08.41.17c.05.09.05-.03.02-.27-.07-.47.06-.56.36-.25.1.1.32.23.48.28.18.06.3.21.3.37,0,.33.26.27.46-.1.08-.14.16-.29.17-.31.02-.03.24.08.51.23.47.28.54.25.49-.25-.02-.14.01-.16.09-.05.06.09.2.18.3.2.2.05.4.18.75.5.14.12.2.13.2.03,0-.31.38-.56.65-.42.18.09.3.09.41-.02.09-.09.16-.12.16-.08,0,.14-.74.87-.97.95-.12.05-.28.27-.36.5-.12.34-.11.42.06.42.11,0,.17.05.13.12-.09.15-.76.03-.76-.13,0-.07-.09-.12-.2-.12s-.2.07-.2.15c0,.23-.36.53-.63.53-.23,0-.23-.01-.01-.14.13-.08.24-.2.24-.27,0-.21-.37-.15-.45.08-.04.11-.22.2-.39.2-.3,0-.31,0-.04-.21.25-.2.24-.2-.24-.12-.46.09-.51.07-.51-.22v-.31l-.32.3c-.23.22-.51.31-1.02.33-.43.02-.7.09-.7.19,0,.09-.07.2-.16.26-.11.07-.13,0-.08-.2.09-.33-.1-.4-.26-.1-.06.11-.17.21-.24.22-.36.07-.47.18-.47.48s-.25.42-.72.34c-.06-.01-.23.05-.37.12-.21.12-.27.1-.27-.09,0-.21-.02-.21-.26,0-.14.13-.23.32-.19.41.04.1,0,.21-.06.26-.07.05-.17-.08-.22-.27-.07-.27-.13-.32-.27-.2-.1.08-.29.11-.42.06-.17-.06-.21-.04-.14.07.05.09.2.16.33.16.14,0,.23.1.23.26,0,.14-.05.23-.11.2s-.11,0-.11.08c0,.09-.17.11-.43.06-.35-.07-.41-.05-.35.12.04.11.02.29-.04.39-.09.14-.12.14-.12.02,0-.38-.37-.13-.49.34-.08.32-.24.56-.43.64-.17.07-.3.18-.3.24s-.14.11-.3.11c-.17,0-.23.04-.14.08.29.12.19.34-.14.29-.25-.04-.3.02-.29.29.02.37-.28.74-.49.61-.08-.05-.14,0-.14.12,0,.13.08.18.2.13.29-.11.25.13-.06.32-.17.11-.26.31-.25.59,0,.23-.04.46-.11.51-.18.13-.2.38-.07.73.07.17.11.34.1.39-.04.19.5.56.93.63.48.08.61.23.31.36-.09.04-.04.07.12.08.36.01,1,.51,1,.76,0,.11.11.19.24.2.13,0,.38.04.56.09.22.06.3.04.23-.06-.1-.16.59-.13.86.04.08.05.25,0,.37-.09.19-.16.21-.15.14.05-.06.16-.03.21.11.16.11-.04.16-.14.11-.21-.1-.16,1.09-.09,1.47.09.18.08.22.06.16-.1-.14-.36.32-.87.86-.97.28-.05.54-.16.59-.24s.35-.16.68-.17c1.15-.05,1.17-.05,1.14-.29-.02-.13-.11-.25-.19-.28-.09-.03-.13-.11-.09-.17s.16-.09.26-.05c.11.04.21-.03.23-.16.07-.33,1.19-.39,1.42-.08.16.2.17.2.17,0,0-.13-.13-.27-.29-.32-.28-.09-.28-.1-.06-.27.13-.1.32-.15.41-.11.19.07.39-.3.27-.5-.04-.07.02-.09.14-.04.13.05.21,0,.21-.1,0-.15.02-.15.12,0,.09.13.15.07.26-.24.1-.29.21-.39.35-.34.14.05.26-.04.37-.27.09-.19.22-.35.29-.35s.09-.09.05-.2c-.05-.12,0-.2.12-.2.11,0,.2-.07.2-.16s.08-.05.19.09c.18.25.19.24.28-.04.05-.16.2-.29.32-.29.21,0,.21.02,0,.18-.28.21-.3.35-.07.35.32,0,.47.59.28,1.09-.1.26-.16.33-.13.17.03-.18-.03-.33-.14-.37-.32-.12-.32-.1-.04.4.32.58.34.74.06.74-.16,0-.19.08-.12.3.08.25.06.27-.09.14-.42-.4-1.03,0-.66.44.2.24.42.27.37.05-.02-.08.05-.18.15-.22.14-.05.16.01.08.25-.06.18-.1.41-.11.52,0,.11-.1.31-.22.44s-.23.38-.24.55c-.05.45-.12.81-.24,1.08-.06.13-.07.36-.03.51.04.15.01.3-.06.35s-.09.19-.05.33c.04.14.03.28-.04.32-.07.04-.11.29-.09.56s-.03.52-.09.56c-.16.1-.15.65.02.81.07.07.16.4.2.72.08.64.42,1.28.89,1.68.16.14.26.33.22.43-.05.13.07.21.36.27.79.16,1.31.39,1.31.57,0,.14.08.13.33-.04.18-.12.4-.18.48-.13v-.02ZM21.72,32.08c-.16-.17-.14-.21.1-.27.16-.04.28-.13.28-.19s.09-.12.2-.12.2.06.2.14-.09.14-.21.14-.25.12-.3.26c-.09.22-.12.23-.28.06ZM12.97,13.64c-.05-.08,0-.1.13-.05.13.05.21,0,.21-.13,0-.22.24-.43.36-.32.11.11-.27.64-.45.64-.09,0-.2-.06-.25-.13h0ZM23.22,39.93c-.04-.11-.09-.33-.09-.5-.02-.33-.49-.41-.6-.1-.04.13,0,.16.14.11.15-.06.19-.01.14.18-.04.15,0,.26.1.26.09,0,.13.09.09.2-.05.13-.01.17.11.12.1-.04.15-.16.11-.28h0ZM14.52,39.29c.13-.16.11-.22-.12-.34-.23-.12-.28-.11-.28.06,0,.11-.08.21-.17.21-.11,0-.1.05.03.13.27.18.34.17.53-.06ZM14.61,35.07c-.05-.12-.08-.24-.08-.27s-.13-.06-.29-.06c-.28,0-.28,0-.05.27.29.32.54.36.42.06h0ZM16.35,34.05c-.03-.31-.47-.67-.47-.37,0,.13.38.66.47.66.01,0,.02-.13,0-.29h0ZM25.85,33.27c.01-.14-.07-.29-.17-.33-.12-.05-.19.01-.19.17,0,.44.34.6.37.16h0ZM26,32.41c.03-.15-.04-.24-.19-.24-.13,0-.2.04-.15.09.05.05.02.18-.08.29-.14.16-.12.19.1.15.15-.03.28-.16.31-.29h0ZM26.16,31.85c0-.1.08-.22.17-.26.19-.07.15-1.18-.04-1.18-.16,0-.25.66-.09.71.25.08-.05.37-.38.37s-.57.22-.41.38c.05.05.14,0,.2-.09.09-.14.13-.13.19.04.1.26.36.28.36.03h0ZM25.75,30.56c0-.16-.43-.97-.61-1.16-.08-.08-.27-.22-.43-.31-.25-.14-.28-.14-.22.03.06.14-.02.2-.23.2-.17,0-.27.04-.22.09s.26.08.47.08c.34-.01.38.03.32.32-.04.18-.01.32.06.31.29-.05.43.03.5.28.07.27.37.39.37.15h0ZM26.41,29.89c-.1-.16-.25-.28-.33-.28-.24,0-.33.37-.12.45.13.05.17,0,.12-.16-.05-.17,0-.16.18.06.3.36.4.31.16-.07ZM23.84,30.03c.14-.09.13-.13-.05-.2-.13-.05-.2-.17-.16-.28.04-.11,0-.26-.1-.34-.14-.12-.2-.06-.26.27-.12.62.11.84.57.55ZM20.4,29.72c-.05-.08-.01-.2.09-.26.24-.15.16-.21-.42-.33l-.47-.1.26.29c.14.16.21.29.16.29s-.06.06-.01.14.18.14.29.14.16-.07.11-.15h0ZM22.73,29.12c.09-.18.11-.32.06-.32-.1,0-.69.75-.69.87,0,.18.49-.25.63-.55ZM20.38,28.06c.2-.05.37-.15.37-.23s-.1-.11-.21-.07-.29.08-.38.08-.28.1-.43.21c-.26.21-.26.21,0,.15.15-.04.44-.1.64-.15h0ZM19.43,27.59c-.04-.12-.19-.31-.33-.43s-.25-.33-.26-.47c-.02-.23-.02-.23-.08-.02-.08.3-.47.31-.42.02.06-.32-.38-.57-.6-.33-.14.15-.12.17.13.11.21-.05.3-.01.3.12,0,.11-.08.19-.17.2-.09,0-.03.06.14.13s.3.19.3.26.15.14.32.14c.33,0,.55.3.5.68-.02.17,0,.17.1.01.07-.11.09-.29.05-.41h0ZM24.61,27.33c-.04-.11.04-.22.2-.26.31-.08.37-.44.07-.44-.11,0-.2.08-.2.17s-.12.26-.27.37c-.34.25-.34.35,0,.35.18,0,.25-.07.2-.19h0ZM26.4,26.86c-.07-.2-.64-.31-.64-.12,0,.14.22.26.52.28.1,0,.16-.07.13-.16ZM18.75,25.98c-.15-.37-.49-.85-.6-.85-.21,0-.09.38.23.72.38.41.51.46.37.12h0ZM17.34,25.7c-.09-.12-.18-.24-.19-.26s-.13,0-.26.06c-.22.08-.21.12.08.33.37.28.62.2.37-.12h0ZM27.51,25.96c0-.07.24-.09.54-.05.38.05.54.02.54-.1,0-.1-.11-.14-.26-.1-.14.04-.33.02-.43-.04-.1-.06-.28-.04-.42.05-.27.17-.33.36-.11.36.08,0,.14-.06.14-.12h0ZM9.19,25.49c.04-.11.16-.16.27-.12.11.04.19.01.19-.06,0-.24-.42-.3-.63-.1-.11.11-.4.2-.63.2-.33,0-.38.03-.23.13.31.2.94.16,1.03-.06ZM19.43,25.61c.12-.05.17-.2.13-.41-.05-.23-.13-.31-.27-.26-.11.04-.29,0-.39-.08-.1-.09-.23-.12-.28-.07s.03.18.17.3c.22.18.23.2.02.14-.13-.04-.24-.04-.24,0,0,.1.43.44.56.45.05,0,.18-.03.28-.07h0ZM20.34,25.42c.26-.49-.31-1.32-.81-1.16-.34.11-.34.29,0,.37.17.05.29.24.35.56.1.55.25.62.46.23h0ZM30.05,25.41c.09,0,.17-.09.17-.21,0-.25-.19-.26-.43-.02-.1.1-.27.22-.38.27-.11.05-.05.06.14.02s.41-.07.51-.07h0ZM23.36,25.17c.1-.18-.24-1.32-.38-1.28-.08.02-.12.13-.1.24.03.12-.07.19-.23.19-.26,0-.26,0,.03.47.28.45.56.6.68.38h0ZM17.91,25.02c0-.17-.48-.58-.58-.48-.12.12.21.6.41.6.09,0,.17-.05.17-.12ZM24.47,23.55c-.08-.06-.21-.27-.31-.49-.14-.32-.2-.36-.37-.22-.16.14-.2.12-.2-.1s.07-.26.37-.2c.33.06.35.05.17-.13-.11-.11-.29-.23-.39-.26-.15-.05-.14-.11.04-.28.12-.12.22-.27.22-.33s-.07-.04-.15.05-.25.12-.36.07c-.14-.05-.18-.03-.11.08.05.09.04.16-.04.16s-.16-.08-.19-.17c-.03-.09-.11-.12-.17-.07s-.01.3.1.54c.12.24.29.62.39.83.18.38.52.6.93.62.12,0,.15-.03.07-.09h0ZM19.55,23.15c.17-.2.15-.22-.15-.14-.19.05-.39.09-.45.09s-.07.06-.03.14c.13.21.42.16.63-.09ZM4.1,23.11c.17-.11.17-.13-.03-.13-.13,0-.24-.09-.24-.21s-.1-.2-.22-.2c-.18,0-.19.04-.05.2.13.15.13.2,0,.2-.09,0-.12.06-.08.14.11.17.35.17.61,0h0ZM5.24,22.99c.1-.17-.07-.71-.2-.63-.06.04-.08.16-.04.27.04.11,0,.2-.08.2s-.12.06-.08.14c.1.16.3.18.39.02ZM26.99,22.52c-.21-.21-.32-.25-.44-.13-.19.19-.05.43.33.58.4.15.45-.09.11-.44ZM27.3,22.04c.09-.14-.45-.31-.63-.2-.06.04-.08.13-.04.2.1.16.56.16.66,0ZM18.85,21.64c0-.18.66-.27.73-.1.03.08.07.04.07-.09.01-.22.15-.29.51-.25.09.01.2-.04.24-.12.05-.08-.05-.15-.23-.16-1.34-.09-1.33-.1-1.33.19,0,.21-.07.26-.27.2-.3-.08-.3-.07-.19.23.09.22.46.3.46.1ZM24.71,21.53c-.09-.04-.17-.12-.17-.19,0-.17.51-.16.61.01.17.27.37.13.29-.19-.06-.25-.02-.34.19-.39.15-.04.3-.02.34.04.04.06.19.08.34.04.15-.04.25-.1.21-.13-.03-.03-.09-.04-.12-.02-.03.03-.14-.03-.25-.11-.15-.13-.33-.09-.85.16-.85.41-1.17.49-1.18.29,0-.1-.04-.09-.08.02-.08.2.33.56.63.55.14,0,.15-.03.03-.08h0ZM28.82,19.77s-.19-.03-.33.02c-.19.06-.25.17-.2.35.05.21.02.25-.15.18-.29-.11-.28.17,0,.33.18.1.28.03.48-.35.14-.26.22-.5.19-.54h0ZM21.02,20.01c0-.07-.16-.12-.35-.12s-.4-.08-.46-.17c-.08-.13-.13-.13-.21,0-.06.09-.02.22.09.28.24.15.93.16.93,0h0ZM27.46,19.66c-.08-.41-.06-.46.15-.39.18.06.2.05.1-.07-.16-.17-1.01-.06-1.01.13,0,.06.1.08.23.03.17-.07.21-.03.14.15-.09.23.13.61.36.62.07,0,.08-.21.03-.47h0ZM23.74,19.53c-.12-.14-.12-.2,0-.24.09-.03.13-.17.1-.32-.05-.23-.08-.22-.24.12-.16.33-.16.4.01.51.28.18.32.16.14-.06ZM23.32,18.54v-.51l-.2.39c-.2.38-.17.63.08.63.07,0,.13-.23.13-.51ZM24.52,18.74c-.1-.1-.3-.23-.44-.28-.15-.06-.22-.18-.18-.29.04-.11.02-.23-.05-.28-.07-.05-.13.06-.13.23,0,.2.16.42.43.61.45.31.68.32.36,0h0ZM28.84,18.89c.11-.11.11-.23.02-.41-.17-.32-.39-.19-.39.24,0,.36.13.42.37.17ZM23.02,17.67c-.28-.24-.31-.25-.35-.04-.06.27.21.47.48.37.14-.05.11-.14-.12-.34ZM17.01,17.5c-.04-.11-.16-.23-.27-.27-.11-.04-.19-.14-.19-.23s.09-.12.2-.08c.11.04.2.02.2-.05,0-.17-.64-.17-.74,0-.05.08-.02.14.06.14s.11.08.07.18.07.25.24.33c.42.21.52.2.43-.03h0ZM23.42,17.15c.28,0,.19-.24-.13-.32-.3-.08-.65.11-.65.35,0,.07.14.1.3.05.17-.05.38-.08.47-.08h0ZM14.4,14.68c0-.13.03-.13.08,0,.04.09.13.14.19.09.19-.12,0-.33-.29-.33-.14,0-.26.09-.26.2,0,.24.27.28.28.03ZM16.55,14.22c0-.11-.43-.44-.58-.45-.21,0-.09.38.14.44.37.1.44.1.44,0h0ZM24,11.28c0-.18-.06-.37-.14-.41-.08-.05-.14.09-.14.33,0,.23.06.41.14.41s.14-.15.14-.33ZM10.82,10.19c-.11-.11-.3-.17-.41-.12-.3.12-.13.32.28.32.3,0,.32-.02.14-.2ZM9.63,9.86c-.21-.33-.38-.37-.38-.09,0,.18.41.52.52.41.03-.03-.04-.17-.13-.33h0ZM24.82,9.57c-.18-.15-.29-.31-.24-.35.11-.11-.29-.86-.45-.86-.19,0-.16.24.03.3.09.03.17.26.17.52,0,.26.08.46.16.46s.2.05.25.1.17.1.25.1c.08,0,0-.13-.18-.27h0ZM26.16,7.99c0-.19-.26-.52-.27-.34,0,.09-.13.17-.28.17s-.24.06-.2.14c.1.16.75.19.74.03h0ZM26.7,7.38c0-.41-.2-.72-.33-.52-.05.09-.03.24.06.35s.12.25.07.33-.02.14.06.14.14-.14.14-.3h0ZM37.63,7.14c.16,0,.18-.04.07-.15-.11-.11-.23-.08-.43.09-.23.19-.25.28-.12.44.14.17.17.16.21-.09.03-.16.14-.29.26-.29h0ZM37.3,6.46c-.05-.17,0-.27.11-.27.14,0,.14-.03-.02-.13-.3-.2-.37-.17-.44.2-.07.36-.01.48.25.48.1,0,.14-.11.1-.27h0ZM36.11,2.67c.15-.06.19-.12.09-.13s-.14-.07-.09-.15c.06-.09.17-.09.34,0,.14.08.33.14.43.14.26,0-.51-.38-.87-.43-.25-.04-.31.03-.32.33-.02.4,0,.41.42.24h0ZM35.05,44.99c-.05-.13-.18-.23-.29-.23s-.27-.13-.36-.29c-.13-.25-.18-.26-.31-.1-.09.11-.28.27-.44.36-.24.13-.3.13-.37-.04-.04-.11-.14-.17-.22-.12-.08.05-.11.19-.06.31.07.17.02.16-.23-.05-.17-.15-.36-.34-.42-.43-.06-.1-.17-.14-.24-.09s-.2-.08-.28-.27c-.17-.38-.38-.46-.38-.14,0,.11-.11.2-.24.19-.14,0-.17-.04-.07-.08.09-.04.17-.19.17-.34s.05-.23.12-.19c.07.04.2-.02.29-.13.11-.13.12-.2.02-.2-.08,0-.11-.11-.07-.24.04-.13-.2.07-.54.44-.34.37-.62.61-.62.52,0-.09.09-.25.21-.37.27-.27.14-.78-.17-.66-.17.07-.2.01-.15-.24.06-.31.03-.33-.54-.31-.48.01-.62-.04-.67-.23-.05-.19-.15-.23-.42-.17-.27.07-.32.05-.21-.08.13-.14.39-.23.76-.27.06,0,.1-.08.1-.16s-.12-.11-.26-.06c-.14.05-.39,0-.56-.09-.23-.13-.31-.14-.35-.02-.03.09-.15.13-.26.09-.15-.06-.16-.12-.05-.25.11-.14.05-.27-.27-.58-.25-.24-.38-.48-.34-.6.04-.11-.02-.3-.13-.41-.27-.27-.27-.32.06-.4.28-.07.38-.56.14-.7-.21-.13-.49.1-.48.39,0,.14-.06.28-.14.31-.15.05-.16-.26-.02-.64.21-.58.23-.95.05-.95-.13,0-.17.09-.12.27.05.19,0,.27-.16.27s-.2-.07-.14-.27c.06-.19.03-.27-.12-.27-.11,0-.33-.18-.49-.41-.24-.34-.25-.41-.08-.41.12,0,.21-.06.21-.14s-.09-.14-.2-.14-.2-.07-.2-.14.06-.11.14-.06.14-.01.14-.13.1-.25.21-.3.18-.16.14-.26c-.04-.1.04-.24.16-.31.3-.16,1.34-.24,1.47-.11.05.05.04.1-.04.1s-.13.17-.12.37c0,.24.08.36.19.33.13-.03.16.07.1.36-.06.32-.03.41.19.47.15.04.26.17.26.28s.06.22.14.22.14.07.14.14-.05.12-.1.09c-.06-.03-.22-.01-.37.05-.24.1-.23.11.09.12.45.01.59.34.24.57-.33.23-.16.54.25.43.16-.04.27-.13.23-.19-.04-.06,0-.15.07-.2.22-.14.16.42-.07.61-.29.24-.25.54.08.54.16,0,.26.07.23.17-.03.09.07.27.23.41.22.19.23.22.05.16-.16-.06-.24-.01-.24.15,0,.41.46.16.72-.38.29-.62.41-.59.23.06-.12.42-.11.44.07.2.17-.22.2-.23.2-.04,0,.12-.1.28-.23.35-.2.11-.19.14.06.22.16.05.26.17.22.27-.05.12.08.21.36.26.61.12.67.11.67-.12,0-.11.09-.2.19-.2.14,0,.18.13.13.48-.05.43-.03.47.21.4.15-.05.27-.03.27.05s.14.11.3.08c.17-.03.41-.03.54.02.22.07.22.1.04.37-.24.34-.27.64-.06.64.08,0,.12-.09.07-.2-.04-.11-.02-.2.05-.2s.13.06.13.14.14.13.3.13c.23,0,.26-.03.11-.13-.19-.12-.33-.55-.18-.55.04,0,.19.1.32.22.2.18.32.19.66.07.23-.08.51-.11.61-.07.11.04.23-.02.28-.14.05-.12.14-.18.2-.14.07.04.12-.05.12-.21s.11-.32.24-.37c.35-.13.55-.37.65-.76.05-.2.18-.35.29-.35s.19-.11.17-.24c-.06-.6,0-.73.31-.65.3.08.3.08.04-.13-.14-.12-.2-.21-.12-.21.08,0,.13-.23.1-.54-.02-.31.02-.54.1-.54s.11-.09.06-.2c-.04-.11.01-.29.12-.4.26-.26.25-.49-.04-.7-.16-.12-.18-.18-.06-.18.12,0,.15-.1.09-.27s-.03-.27.09-.27c.13,0,.14-.03.02-.11-.24-.15-.13-.6.17-.72.24-.09.23-.1-.05-.11-.41-.01-.43-.55-.03-.55.15,0,.25-.05.21-.11-.04-.06.06-.22.21-.35.38-.33.16-.51-.61-.51-.37,0-.68-.08-.78-.19-.09-.11-.24-.19-.33-.19-.11,0-.15-.1-.1-.27.05-.2-.02-.3-.28-.4-.24-.09-.32-.2-.27-.34.04-.11.02-.21-.06-.21s-.17.08-.21.17c-.04.09-.07.03-.08-.14-.01-.35-.11-.37-.48-.1-.36.27-.58.25-.68-.07-.05-.15-.17-.27-.28-.27-.24,0-.26-.26-.03-.29.5-.06.74-.03,1.03.11.25.12.38.12.58,0,.27-.17.33-.36.12-.36-.08,0-.14.06-.14.14s-.14.13-.3.12c-.23-.01-.25-.03-.07-.08.44-.12.24-.28-.39-.33-.42-.03-.65,0-.69.12-.1.26-.44.21-.44-.07s-.49-.63-.61-.44c-.12.2-.71-.13-.69-.38.01-.15-.07-.21-.25-.18-.22.04-.24.01-.1-.16.13-.16.12-.24-.05-.42-.12-.12-.15-.22-.07-.22s.28-.12.44-.27c.19-.18.32-.22.38-.12.05.08.08-.04.08-.26-.01-.37-.05-.4-.35-.33-.19.05-.45.14-.59.21-.14.07-.28.09-.32.05-.04-.04.02-.11.14-.16.17-.07.19-.14.08-.34-.08-.14-.1-.32-.06-.39s-.04-.13-.2-.13-.28-.05-.28-.12.16-.12.34-.12c.27,0,.36.08.42.39.09.47.2.48.83.09.26-.16.43-.22.38-.14s-.04.16.04.16.14.07.14.16c0,.13-.04.13-.16,0-.23-.23-.39-.2-.29.04.1.27.67.26.78-.02.06-.16.18-.19.42-.13.39.1.45-.11.1-.31-.19-.11-.15-.13.21-.12.25,0,.4.05.33.09-.1.07-.12.24-.05.52.02.06.07,0,.12-.14.08-.21.14-.19.54.17.48.44.78.53.65.21-.04-.11.03-.27.16-.35.19-.12.15-.14-.18-.08-.5.08-.87-.09-.58-.26.1-.06.34-.1.53-.08.25.03.39-.06.53-.3.1-.19.25-.3.33-.25.08.05.04-.04-.1-.2-.24-.28-.24-.28.04-.21.16.04.31.12.35.18.04.06.19.08.33.04.21-.05.25-.15.19-.39-.06-.24-.03-.32.14-.32.12,0,.22-.07.22-.16s.04-.12.09-.07.17-.02.27-.15c.12-.16.21-.19.28-.09.21.3.53.16.53-.24,0-.21-.06-.38-.12-.38s-.03-.09.08-.2c.22-.22.42-.27.3-.08-.04.07-.02.28.06.47.07.19.08.35.03.35s-.1.14-.1.3c.01.32-.2.39-.67.23-.16-.06-.34-.02-.44.09-.25.26-.21.37.1.29.15-.04.27-.03.27.02s.27.1.61.11c.55.02.61,0,.61-.28,0-.35.54-.43.55-.09,0,.14.03.15.08.04.1-.24.23-.21.43.12.17.27.16.28-.11.21-.22-.06-.28-.03-.22.12.05.12,0,.19-.13.19-.15,0-.18.08-.12.27.05.16.03.27-.06.27s-.14-.07-.14-.15c0-.09-.12-.12-.29-.08-.16.04-.41.02-.55-.06-.23-.12-.25-.09-.2.34.03.26,0,.48-.06.48s-.12-.06-.12-.13c0-.08-.12-.09-.32-.01-.21.08-.37.07-.47-.03-.11-.11-.15-.08-.15.15,0,.16-.07.3-.15.3-.09,0-.11-.15-.06-.41.08-.36.06-.4-.23-.4-.26,0-.28.03-.11.15.16.11.16.16.03.21-.1.04-.26.16-.36.26s-.36.19-.57.2c-.38,0-.38,0,.13.27.55.29.68.47.24.33-.16-.05-.27-.03-.27.06s-.17.14-.38.14c-.32,0-.38.06-.41.41-.03.37,0,.41.41.42l.44.02-.41.1c-.22.06-.31.12-.2.14.11.02.26.05.34.07s.23.04.34.05c.11.01.38.17.61.36l.41.34-.36-.09c-.2-.05-.4-.02-.44.06s-.19.1-.31.06c-.17-.06-.19-.04-.1.11.07.11.1.31.09.46-.03.22,0,.21.14-.07.1-.19.28-.36.4-.38.27-.05.8.37.69.55-.04.07,0,.18.11.24.14.09.11.12-.13.12-.18,0-.28.06-.23.14.05.08.14.1.21.06s.13.02.13.13.1.21.22.21c.13,0,.19.08.14.2-.05.13.07.26.31.37.42.19.42.38-.02.38-.25,0-.25.02-.06.21.26.26.27.42.04.5-.28.1-.02.25.48.28.26.02.45.07.42.12-.11.19.12.52.37.52.31,0,.33.22.05.49-.22.22-.27.59-.08.59.07,0,.09.13.05.28-.05.19-.15.26-.33.22-.32-.08-.33.12-.02.25.2.09.19.12-.13.26l-.37.16.33.39c.34.4.46.67.17.37-.19-.19-.78-.22-.78-.04,0,.07.06.17.14.21.08.05.11.14.07.2s.03.17.15.24c.15.09.18.16.07.22-.08.05-.15.03-.15-.05s-.1-.14-.21-.14c-.15,0-.19.08-.13.26.05.14.02.3-.06.35-.08.05-.11.15-.06.22.05.08-.06.1-.29.04-.24-.06-.34-.04-.28.05.12.2.62.31.71.16.15-.24.26-.12.28.28,0,.22-.03.38-.08.35-.16-.1-.49.19-.35.3.2.15.23.44.03.44-.11,0-.11.04.03.13.16.1.08.18-.36.37l-.56.25.17.5c.09.27.14.53.1.57-.17.17-.3.05-.3-.25,0-.32-.32-.56-.55-.41-.2.13-.14.33.11.33.17,0,.19.04.08.15-.12.12-.11.2.04.34.3.3.09.59-.43.59-.28,0-.43.06-.38.14.11.18-.34.35-.45.17-.11-.16-.58-.18-.48-.02.04.06-.02.11-.12.11-.13,0-.18.14-.15.44.02.24,0,.33-.03.2-.04-.13-.13-.2-.2-.16-.07.04-.13.02-.13-.06,0-.17-.38-.56-.55-.56-.07,0-.13.15-.13.33,0,.26.09.35.42.42.23.05.36.13.29.18s-.16.18-.2.28c-.05.16-.08.15-.15-.03h0ZM37.23,42.95c-.03-.12-.14-.16-.3-.1-.25.09-.25.1,0,.34s.39.14.3-.24h0ZM27.04,36.37c.3-.13.29-.13-.24-.2-.26-.03-.37.01-.37.15,0,.22.2.23.61.06ZM38.81,36.1c.05-.08.23-.1.42-.05.31.08.32.06.2-.26-.07-.19-.09-.38-.05-.42s-.05-.08-.21-.08-.29.09-.29.19-.09.22-.2.27c-.11.04-.2.17-.2.28,0,.23.21.28.34.07h0ZM35.76,28.75c.37-.16.4-.2.22-.35-.14-.12-.21-.13-.21-.02,0,.08-.07.15-.15.15s-.12-.09-.07-.2c.04-.11.02-.23-.05-.28-.07-.05-.13.08-.13.27s-.06.35-.14.35-.14.06-.14.14c0,.18.16.17.67-.05h0ZM24.35,35.86c-.06-.09-.06-.22-.02-.3.13-.21.47-.16.47.08,0,.12-.06.18-.12.14-.07-.04-.15,0-.18.09-.04.13-.08.13-.16,0h0ZM37.6,34.02c-.23-.17-.22-.19.18-.25.49-.07.58-.03.47.24-.09.24-.33.24-.65,0h0ZM1.4,32.31c0-.08-.09-.14-.2-.14s-.2-.09-.2-.2.09-.2.2-.2.2.09.2.2.06.2.14.2.14.06.14.14-.06.14-.14.14-.14-.06-.14-.14ZM35.67,27.07c-.21-.07-.23-.44-.03-.44s.53-.35.54-.57c0-.26.53.45.54.73,0,.28-.22.44-.33.25-.05-.08-.18-.09-.31-.02-.13.07-.3.09-.4.06h0ZM41.62,26.13c-.25-.05-.3-.15-.3-.53v-.47l-.69.45.1-.39c.05-.22.18-.44.28-.5.23-.14.24-.64.01-.63-.36,0-.52.22-.43.59.08.3.05.36-.2.36-.16,0-.29-.07-.29-.15s.09-.12.2-.07c.23.09.27-.06.07-.26-.07-.07-.1-.27-.05-.43.07-.26.15-.29.67-.24.47.05.59.02.59-.15,0-.11.06-.17.13-.13.18.11.82-.07.82-.23,0-.08-.12-.11-.27-.07-.15.04-.27.02-.27-.04,0-.14.39-.54.53-.54.06,0,.17-.15.26-.34.15-.33.57-.48.57-.2,0,.08.09.14.21.14s.24.09.28.2c.04.11.13.2.19.2s.08-.09.04-.2c-.09-.23.29-.29.42-.07.14.22.28.15.28-.14,0-.19-.07-.25-.22-.2-.58.18-.94-.41-.58-.97.12-.18.26-.29.33-.25.16.1.94-.31.94-.5,0-.09-.16-.11-.41-.05-.26.06-.41.04-.41-.06,0-.08.11-.15.24-.16.14,0,.17-.04.07-.08-.27-.11-.2-.32.1-.32.26,0,.38-.38.18-.59-.16-.16-.17-.77-.02-.77.09,0,.06-.1-.06-.24-.31-.36-.45-.63-.27-.52.09.05.16.03.16-.05s.11-.15.24-.15c.23,0,.23-.01,0-.18-.13-.1-.24-.29-.24-.42,0-.15-.07-.21-.2-.16-.23.09-.28-.12-.07-.25.07-.05.2-.21.29-.37.13-.24.12-.27-.06-.2-.29.11-.39-.23-.15-.53.17-.22.19-.22.11-.01-.07.19,0,.24.27.24.19,0,.35-.06.35-.13s-.09-.1-.2-.05c-.3.12-.25-.13.07-.33.26-.16.33-.1.29.25-.02.14.65.02.85-.15.14-.12.26-.11.47.02.4.25.37.74-.06.84-.19.05-.34.16-.34.24,0,.12.04.12.16,0,.27-.27.36-.19.2.16-.09.18-.2.3-.25.27-.14-.09-.52.09-.52.24,0,.07.11.12.24.11.41-.04.48,0,.32.19-.18.21,0,.42.46.53.24.06.23.07-.04.08-.26.01-.3.07-.22.3.06.19.04.26-.06.2-.08-.05-.15-.03-.15.05s.12.14.25.14c.33,0,.47.49.17.62-.12.05-.26.09-.3.09-.04,0-.05.17-.02.39.05.32.11.38.31.32.14-.05.25-.02.25.06s-.06.14-.13.14-.09.11-.05.24c.07.19.05.21-.1.07-.22-.2-.76-.22-.87-.03-.05.08-.15.14-.23.14-.1,0-.09-.06.01-.19.12-.15.11-.21-.06-.27-.3-.12-.3-.12-.28.22.01.25.11.32.56.37.43.05.54.12.54.34,0,.15-.11.29-.24.31-.44.09-.25.52.2.45.14-.02.12.15-.03.39-.1.16-.13.16-.13.02,0-.11-.09-.15-.2-.11-.11.04-.23.02-.28-.05-.05-.07-.18-.13-.29-.13-.17,0-.18.04-.04.2.14.17.12.2-.13.2-.16,0-.26.06-.22.13.05.07.24.08.48,0,.24-.07.4-.07.4.01,0,.07.12.13.27.13s.27.06.27.14-.06.14-.12.14-.22.04-.34.08c-.14.05-.21,0-.21-.14,0-.12-.09-.22-.19-.22-.14,0-.19.17-.18.61,0,.33-.02.64-.07.69-.05.05-.26-.01-.48-.13-.35-.18-.43-.18-.68,0-.17.12-.25.28-.2.41.07.18.11.19.28.01.17-.17.25-.17.59,0,.4.2.57.64.19.5-.11-.04-.2-.13-.2-.2s-.06-.12-.14-.12-.14.1-.14.22c0,.17-.09.2-.38.14-.42-.09-.78.07-.65.29.05.08.02.18-.07.24-.08.05-.2.02-.26-.08-.14-.22-.54-.07-.54.2,0,.11.13.27.28.35.16.08.25.19.21.23-.04.04-.17,0-.28-.1-.16-.13-.21-.13-.21,0,0,.09-.09.13-.19.09-.11-.04-.23.02-.27.12-.07.19-.26.21-.86.1h.01ZM42.4,25.06c0-.12.05-.18.12-.14.07.04.15-.07.18-.25.06-.32.06-.32-.41-.13-.33.14-.51.15-.61.05-.2-.2-.36-.18-.36.06,0,.11-.08.21-.17.22-.09,0,.01.06.24.11s.51.04.64-.02c.18-.09.22-.07.16.09-.04.11-.01.21.07.21s.15-.1.15-.21h0ZM43.29,23.81c.02-.35-.36-.41-.62-.1-.09.11-.25.2-.35.2s-.19.05-.19.11.26.1.58.1c.49-.01.58-.06.59-.31h0ZM45.51,23.38c0-.15-.09-.28-.2-.29-.38-.03-.45-.05-.55-.15-.17-.17-.33-.12-.33.11,0,.12.08.19.17.17s.18.02.19.08c.07.38.72.45.72.08h0ZM45.92,16.15c0-.11.08-.22.17-.26.1-.04.07-.07-.08-.08-.24-.01-1.04.35-1.04.47,0,.04.21.07.47.07.32,0,.47-.06.47-.19h0ZM31.66,23.45c-.05-.13,0-.2.16-.21.22,0,.22-.01,0-.14-.28-.17-.31-.39-.05-.39.17,0,.35.38.35.78,0,.24-.36.21-.45-.03h0ZM31.64,18.64c.08-.25.06-.3-.11-.23-.25.1-.85-.38-.64-.51.08-.05.11-.15.07-.22-.13-.21-.33-.14-.34.11,0,.13-.07.06-.13-.16-.08-.28-.07-.43.05-.52.13-.09.13-.13,0-.19-.09-.04-.17-.16-.17-.26s-.09-.23-.2-.27c-.33-.13-.24-.32.25-.52.51-.21,1.58-.3,1.82-.15.11.07.16,0,.16-.19,0-.18-.11-.32-.27-.36-.15-.04-.27-.18-.27-.31s-.08-.27-.17-.31c-.1-.04-.07-.07.08-.08.14,0,.21-.06.18-.12-.04-.06.06-.2.21-.3.73-.52,1.1-.93,1.01-1.15-.12-.3.27-.88.52-.78.11.04.21.21.24.37.05.38.92.52.92.15,0-.16.07-.2.24-.14.23.09.23.08,0-.15-.18-.19-.27-.2-.4-.08-.09.09-.29.16-.44.16-.24,0-.22-.04.13-.28.35-.24.36-.27.09-.19-.34.1-.55-.09-.56-.49,0-.16.09-.2.34-.15.19.04.34.13.34.2s.1.1.21.05.34-.01.51.07l.29.15-.3-.33c-.38-.42-.39-.65,0-.65.2,0,.25-.04.16-.14-.2-.2-.59-.01-.59.29,0,.25-.01.25-.27-.02-.15-.15-.35-.27-.44-.28-.26-.02,1.28-.42,1.62-.42.3,0,.42-.29.18-.44-.07-.04-.09-.21-.05-.37.06-.24.03-.28-.21-.22-.27.07-.51-.18-.34-.35.08-.08.85.3,1.03.53.07.08.09.04.04-.09-.05-.15.03-.25.22-.31.27-.08.27-.1.06-.22-.16-.09-.32-.09-.48,0-.19.1-.29.07-.44-.13-.1-.14-.3-.26-.42-.26-.16,0-.21-.07-.16-.21.05-.14.13-.17.22-.08.07.07.22.1.32.06.11-.04.19.02.19.16,0,.17.11.22.44.2.71-.05.84,0,.98.3.22.49.48.47.34-.02-.12-.41,0-.65.26-.49.07.04.15,0,.18-.09.04-.13.13-.13.38-.02l.33.15-.33.13c-.32.13-.33.13-.03.2.31.08.41.51.12.51-.1,0-.24.18-.32.4-.12.32-.21.38-.47.33-.25-.06-.28-.04-.12.08.13.09.15.15.04.15-.09,0-.24.15-.34.33-.1.18-.23.32-.31.3-.24-.05-.23.6.01.86.23.25.22.26-.09.26-.18,0-.4-.12-.5-.28-.2-.32-.43-.24-.43.14,0,.16.07.23.18.19.1-.04.25.08.33.27.16.35.06.45-.2.2-.11-.11-.18-.1-.25.02-.06.1-.01.23.11.32.21.15.25.63.06.62-.05,0-.23,0-.39,0-.23,0-.26-.04-.14-.16.23-.23.2-.36-.08-.34-.34.03-.32.64.02.64.17,0,.23.07.17.21-.05.12-.08.27-.08.35s-.2.12-.43.09c-.38-.04-.43,0-.42.26.04.8.04.8.32.44l.27-.34.09.3c.09.3.32.43.32.17,0-.08.15-.04.34.08.31.2.34.2.34,0,0-.13.11-.22.28-.22.21,0,.27-.08.26-.3-.04-.49,0-.55.21-.37.17.14.2.13.2-.06,0-.17.07-.21.27-.14.16.05.27.03.27-.06s.11-.15.24-.15c.18,0,.16-.05-.09-.19-.32-.18-.31-.18.23-.19.67-.01.82.15.35.36-.39.18-.34.36.14.46.35.07.53-.15.4-.48-.04-.1.03-.26.14-.36.18-.15.2-.14.13.05-.11.28.04.28.31,0,.18-.18.19-.23.03-.33-.16-.1.19-.09.69,0,.04,0-.04.08-.17.15-.14.08-.22.27-.21.46.03.39.16.33.42-.2.19-.39.19-.41-.16-.6-.46-.25-.19-.27.33-.02.7.33,1.01.39.92.17-.04-.11,0-.24.09-.3.11-.07.13-.05.07.06-.1.16.13.56.33.56.06,0,.14-.17.18-.37.04-.2.17-.5.29-.64.21-.26.21-.25.14.2-.06.38-.05.42.07.24.21-.33.47-.29.73.1.3.45.45.43.38-.07-.05-.31,0-.41.16-.41.12,0,.22.09.22.2,0,.23.21.27.34.07.14-.23.37-.15.3.1-.04.13-.09.32-.12.42s.06.2.19.23c.2.03.21,0,.09-.15-.21-.25.11-.26.59-.02.31.16.32.19.12.33-.21.14-.21.15.01.08.16-.05.24,0,.24.14,0,.12-.06.22-.13.22s-.2.12-.28.27c-.13.25-.11.27.33.21.27-.04.48,0,.48.08s.06.1.14.05c.08-.05.14-.03.14.04,0,.17-1.5.1-1.61-.08-.1-.17-.69-.06-.69.13,0,.23-.48.12-.65-.15-.21-.34-.44-.35-.44-.01,0,.19-.07.24-.27.19-.16-.04-.27,0-.27.1,0,.11-.14.15-.41.11-.32-.05-.41,0-.41.18,0,.23-.03.22-.48-.04-.26-.16-.52-.24-.56-.2s-.01.09.08.09.13.06.08.14-.02.14.07.14.12.06.08.12-.34.1-.66.06c-.32-.03-.75,0-.96.08-.31.12-.35.18-.21.34.13.16.12.22-.08.29-.14.06-.27.03-.3-.07-.08-.23-.4-.2-.55.06-.14.25-.43.14-.43-.18,0-.13.08-.18.2-.13.12.05.2,0,.2-.12,0-.21-.13-.25-.44-.12-.12.05-.17.2-.13.41.04.19,0,.33-.09.33s-.15-.1-.15-.22c0-.2-.03-.2-.27.02-.32.29-.34.44-.07.5.13.03.09.1-.15.21-.3.14-.34.13-.27-.04.04-.11,0-.28-.09-.38-.13-.14-.22-.13-.44.09-.27.25-.28.25-.32,0-.06-.36-.57-.5-.57-.15,0,.14-.08.26-.17.26-.12,0-.1.05.03.15.15.11.06.12-.37.06l-.58-.08.08.52c.06.38.03.56-.13.7-.24.2-.3.01-.07-.22.2-.2.04-.45-.22-.36-.11.04-.2,0-.2-.07,0-.28-.64-.17-.72.14-.04.16-.14.25-.21.2-.08-.05-.13.07-.11.29.02.29-.03.37-.21.34-.27-.05-.66.14-.99.47-.22.22-.23.21-.13-.09h0ZM30.99,16.07c-.03-.33-.14-.34-.43-.06-.29.29-.27.33.12.33.25,0,.32-.07.31-.27ZM34.96,15.73c0-.11-.09-.2-.21-.2-.17,0-.18-.05-.05-.29.13-.24.12-.31-.07-.41-.12-.07-.19-.18-.14-.25s.02-.13-.07-.13-.14.12-.14.27.07.27.15.27.11.1.07.22.02.33.14.47c.27.3.32.31.32.05h0ZM33.47,14.88c.11-.05.22-.19.24-.31.03-.16-.05-.2-.28-.16-.18.04-.39-.03-.49-.15-.1-.12-.28-.21-.4-.21-.18,0-.16.06.08.25.16.14.26.28.22.32-.11.11.08.36.26.35.09,0,.25-.05.36-.1h0ZM42.73,14.09c.05-.12.05-.25.02-.29-.04-.04-.07,0-.07.09s-.06.16-.14.16-.14-.09-.14-.2-.06-.2-.14-.2c-.15,0-.17.15-.05.46.11.28.41.27.52,0h0ZM33.6,13.98c.09-.11.14-.31.1-.44-.05-.19-.07-.18-.08.06-.01.23-.1.3-.35.3-.19,0-.34.06-.34.14,0,.21.49.16.67-.06h0ZM43.38,13.35c-.07-.25-.08-.26-.33-.04-.18.17-.21.26-.1.33.26.16.5,0,.42-.3h0ZM36.45,10.56c0-.18.03-.2.12-.05.2.32.67-.04.59-.45-.04-.19-.12-.34-.19-.34s-.09-.06-.04-.14c.05-.08.02-.14-.06-.14s-.14.06-.14.14-.1.14-.21.14-.17.06-.12.14c.06.1.14.1.26,0,.18-.15.35-.06.35.2,0,.09-.18.2-.41.24-.37.08-.6.5-.27.5.08,0,.14-.11.14-.24h0ZM34.82,17.46c0-.13.46-.43.65-.44.31,0,.09.31-.29.42-.2.05-.36.06-.36.02h0ZM36.17,14.27s.14-.22.3-.44c.31-.4.68-.47.98-.16.09.1,0,.11-.3.06-.38-.07-.44-.05-.44.19,0,.15-.06.24-.14.19-.08-.05-.14-.02-.14.06s-.06.14-.14.14-.14-.02-.14-.04h0ZM14.64,11.78c-.32-.07-.56-1.12-.25-1.12.08,0,.14.12.14.27s.06.27.13.27c.12,0,.35.53.26.59-.03.02-.15.01-.27-.02ZM34.77,9.67c-.14-.51-.09-.55.26-.23.4.38.42.48.08.5-.16.01-.29-.09-.34-.28h0ZM6.14,8.49c-.16-.11-.14-.13.11-.13.17,0,.28-.06.23-.14-.05-.08-.03-.14.04-.14s.16.12.2.27c.08.3-.22.37-.58.14ZM35.5,7.61c-.14-.17-.13-.2.05-.2.12,0,.22.06.22.14,0,.09.1.09.28-.01.16-.08.32-.12.36-.08.04.04-.09.14-.29.21-.46.17-.42.18-.62-.06h0ZM35.64,4.66c0-.28.05-.37.22-.34.12.03.25.13.29.23.04.11,0,.15-.08.1-.08-.05-.21.02-.28.15-.12.21-.14.19-.14-.14h0Z"/>
    </g>
  </g>
</svg>