<?xml version="1.0" encoding="UTF-8"?>
<svg id="Layer_2" data-name="Layer 2" xmlns="http://www.w3.org/2000/svg" xmlns:xlink="http://www.w3.org/1999/xlink" viewBox="0 0 36 18.1">
  <defs>
    <style>
      .cls-1 {
        mask: url(#mask);
      }

      .cls-2 {
        fill: #fff;
      }
    </style>
    <mask id="mask" x=".09" y=".15" width="35.91" height="17.95" maskUnits="userSpaceOnUse">
      <g id="mask0_13264_3440-2" data-name="mask0 13264 3440">
        <path class="cls-2" d="M36,18.1C36,8.18,27.96.15,18.05.15S.09,8.18.09,18.1h35.91Z"/>
      </g>
    </mask>
  </defs>
  <g id="Layer_1-2" data-name="Layer 1">
    <g>
      <g id="mask0_13264_3440" data-name="mask0 13264 3440">
        <path class="cls-2" d="M36,18.1C36,8.18,27.96.15,18.05.15S.09,8.18.09,18.1h35.91Z"/>
      </g>
      <path class="cls-2" d="M35.96,18.1C35.78,8.07,27.8,0,17.98,0S.19,8.07,0,18.1h35.96Z"/>
      <g class="cls-1">
        <path d="M9.25,4.32c-2.66,2.66-2.66,6.96,0,9.62,2.66,2.66,6.96,2.66,9.62,0,2.66-2.66,2.66-6.96,0-9.62-2.66-2.66-6.96-2.66-9.62,0Z"/>
      </g>
    </g>
  </g>
</svg>